<svg xmlns="http://www.w3.org/2000/svg" viewBox="0 0 192 192"><path d="M95.865 20.016A136.028 136.028 0 0 0 73.6 21.827c-10.516 1.777-16.883.353-20.247-1.561-8.643 3.338-18.372 7.478-18.372 7.494a19.36 19.36 0 0 1-4.479 11.256c-4.532 5.546-7.552 9.686-7.552 9.725s10.513 9.056 9.315 13.119c-1.035 4.05-13.844 44.673-2.976 66.732s27.606 34.802 48.774 38.942A33.626 33.626 0 0 1 96.047 178a33.332 33.332 0 0 1 17.928-10.531c21.117-4.205 37.845-16.864 48.723-38.987 10.88-22.124-1.873-62.62-3.017-66.735s9.37-13.118 9.37-13.118-2.97-4.115-7.495-9.735a19.348 19.348 0 0 1-4.48-11.245s-9.733-4.114-18.373-7.497c-3.382 1.876-9.734 3.383-20.247 1.552a135.975 135.975 0 0 0-22.539-1.688z" fill="#d4d4d4" fill-rule="evenodd"/><path d="M29.422 46.84c3.894-4.9 7.732-9.277 8.834-15.897A871.88 871.88 0 0 1 53.2 24.849c4.41 1.941 11.256 2.847 20.96 1.131a135.69 135.69 0 0 1 21.658-1.704c12.417-.186 32.473 5.046 43.082.518 5.857 2.329 11.902 4.787 15.007 6.096 1.108 6.598 4.917 10.997 8.927 15.958H29.423z"/><path d="M102.073 32.546v3.826s5.046.129 7.116.129 1.875-.854 1.875-1.64c0-.786.233-2.108-2.03-2.108-2.283-.095-6.907-.224-6.907-.207zm-12.17 5.205L87.2 32.374l-2.937 5.375h5.64zm-36.398 3.788h-9.088l-1.234 1.898h-4.99l8.003-11.247 5.922-.753 7.38 11.186V30.384s11.279-.918 14.486-.918c3.205 0 3.493 1.681 3.493 3.907a2.656 2.656 0 0 1-1.974 2.786c-.202 0-.158.26 0 .26s2.277-.06 2.329 1.584v2.622l6.603-12.08 5.997-.042 7.05 13.866V28.801s11.774.258 14.62.646c2.75.26 3.105 1.941 3.105 1.993l-.06-1.7s5.434.13 12.42.702c7.086.647 11.127 1.165 11.127 1.152v4.744l9.76.975v-3.942l4.383.702.003 9.361h-4.393v-3.27s-1.407-.233-4.51-.41c-3.105-.175-5.297-.268-5.297-.268l.002 3.92h-4.481l-.003-8.979s-1.307-.217-4.187-.393c-2.878-.175-4.304-.168-4.304-.168l.003 9.511h-4.51l-.002-10.034h-5.886v1.004c0 3.91-2.2 4.111-2.502 4.14-.303 0-.162.263-.021.263.142 0 2.173-.135 2.2 1.452v3.293h-4.498v-1.88s.417-1.363-1.785-1.363h-6.986l.013 3.215-9.057.01-1.182-2.355h-9.082l-1.276 2.352-4.83-.026s-.066-.09.012-.822a3.253 3.253 0 0 1-2.424.86l-19.3.026-1.05-1.972zm10.419-8.298s6.515-.401 8.078-.401c1.562 0 1.035 2.199 0 2.186-1.027.043-8.077.132-8.077.132v-1.916zm-.176 5.084s6.113-.266 8.12-.31c2.007-.047 1.423 2.328.129 2.318h-8.389l.14-2.005zm-17.647.621l5.605-.253-2.682-4.236-2.922 4.49z" fill="#fff" fill-rule="evenodd"/><path d="M160.791 52.695c-2.82 3.221-5.437 7.255-4.454 10.79a267.32 267.32 0 0 1 3.234 12.672l-15.775 7.116a.752.752 0 0 0-.07-.095l-21.151-24.677a1.084 1.084 0 0 0-.5-.202L89.27 61.534c-.737.072-.859.815-.183 1.118l20.544 9.219-10.224 4.515c-.667.295-.57 1.035.13 1.117l20.241 2.975a1.563 1.563 0 0 0 .466-.132l7.097-6.068 3.679 7.848-24.03 6.175a.608.608 0 0 0-.429.647s1.294 6.728 2.07 9.542l-7.326-8.248c-1.035-1.164-4.4 3.94-5.105 4.73l-7.051.24a.568.568 0 0 0-.562.648l1.449 10.35-5.279-7.196a.604.604 0 0 0-.808-.132l-20.424 14.43-4.021-8.039 9.16-1.401a1.258 1.258 0 0 0 .406-.267l10.893-17.217c.395-.626-.117-1.177-.77-.832l-10 5.312 6.647-21.89c.217-.712-.427-1.106-.963-.595L51.446 90.687a1.083 1.083 0 0 0-.175.513l4.878 31.826a.812.812 0 0 1 0 .125L35.11 132.72q-1.368-2.387-2.634-4.96c-8.561-17.41-1.734-46.305 3.25-64.242.988-3.558-1.672-7.62-4.51-10.852H160.79z" fill="#ffd500"/><path d="M159.858 77.323c3.788 16.819 6.34 36.996-.271 50.404-10.428 21.202-26.279 33.113-46.257 37.131a36.313 36.313 0 0 0-17.267 8.966 36.802 36.802 0 0 0-17.301-8.901c-18.015-3.59-32.676-13.63-43.03-31.119l53.393-24.316-5.22 7.206-2.086-.049c-.732-.017-.947.686-.328 1.08l4.206 2.682a.6.6 0 0 0 .734-.085l6.566-6.766 1.224 1.623-6.181 6.712c-.198.022-3.968.15-2.296 1.278l3.895 2.623a.624.624 0 0 0 .74-.073l6.72-6.722 1.209 1.604-6.094 6.599h-2.022c-2.494 0 3.235 5.045 4.14 4.023l6.798-6.841 1.335 1.772-5.6 6.55h-2.41c-.711.007-.914.662-.33 1.065l3.796 2.634a.64.64 0 0 0 .747-.067l6.551-6.552c.104.13.259.389.388.518a.481.481 0 0 0-.073.237l-.35 9.837a.385.385 0 0 0 .13.26.577.577 0 0 0-.55.158l-6.166 7.108a1.079 1.079 0 0 0-.127.521l.05.26a.506.506 0 0 0-.443-.046l-8.743 2.814a1.354 1.354 0 0 0-.357.323l-.132.26a.623.623 0 0 0-.244-.544L77.8 144.55a2.043 2.043 0 0 0-1.26.058l.572-.216a.718.718 0 0 0 .375-.608l-1.992-18.859c-.078-.76-.902-.846-1.139-.119l-7.261 22.382c-.19.517.258.906.776.728l6.883-2.613c-.989.51-1.689 1.164-1.11 1.669 4.314 3.752 16.56 15.913 15.395 11.902l-.067-.242c.307.518.647.777.906.694l13.426-2.344c.588-.104.735-.595.302-1.003h.478a.735.735 0 0 0 .806-.06l11.479-12.65c.305-.336.276-.696.013-.87a.643.643 0 0 0 .489-.563l.349-14.758c.013-.528-.346-.776-.771-.578l.423-.302c.582-.383-.067-1.783-.12-1.975l9.302-.376c1.213-.048.882-4.709.91-5.106.055-.691-.54-.951-1.013-.444l-1.355 1.462-8.966.336-.629-2.306 9.794-.686c1.207-.084.707-4.657.727-5.123.077-1.884-2.19.722-2.515 1.039l-9.276.108-.557-2.037 9.971-.606c1.211-.074 1.01-5.09 1.01-5.105.193-1.915-2.254.65-2.562.929l-9.67.181-.543-1.996 10.25-.56a.7.7 0 0 0 .541-.473l.957-4.95c.143-.728-.54-1.054-1.022-.491l-1.207 1.423c-4.792.036-7.659-.043-9.67 0l48.636-22.118zm4.525-28.344a71.898 71.898 0 0 0-2.748 2.778h-41.46v-3.981h43.285c.31.41.638.798.897 1.203z" fill="#e30613"/><path d="M71.918 51.756H30.402a70.143 70.143 0 0 0-2.691-2.713c.323-.43.646-.85.974-1.268h43.237v3.982z" fill="#00712f"/><path d="M71.983 47.797h48.257v4.01H71.983z" fill="#fff"/><path d="M106.173 130.584l5.505-.116 4.919-3.398-.352 14.757-7.144.586-3.28-1.993.352-9.837zm-.978 10.579l3.283 2.109 7.417-.392-11.475 12.653-4.531-3.75-.858-3.512 6.166-7.107zm-6.949 7.935l.863 3.433 4.057 3.83-13.43 2.341-1.56-3.748 1.33-3.043 8.741-2.781zm-9.97 2.863l-.996 2.988 1.157 4.01-14.432-12.523 3.467-1.475 10.803 7zM74.9 124.96l1.992 18.859-9.25 3.514 7.258-22.372zm38.378-11.243l9.962-.116 1.69-1.643-.183 4.56-10.505.735.94 3.442 9.674-.363 1.522-1.638-.349 4.567-10.037.405.556 2.042-5.276 3.493-5.188.75-.776-1.028-7.027 7.027-3.799-2.636 2.68-.026 6.081-7.112-2.024-2.687-7.275 7.323-3.748-3.028h2.277l6.598-7.141-1.908-2.536-7.196 7.198-3.894-2.623 2.25-.233 6.664-7.232-1.928-2.562-7.043 7.258-4.209-2.682H84.2l6.054-8.361 19.19-8.821 11.722-.086 1.38-1.627-.957 4.951-10.975.656.854 3.136 10.344-.194 1.751-1.565-.461 4.528-10.69.647.865 3.221zM84.27 99.408l6.052 8.252-33.599 15.311-4.877-31.857 23.432-22.302-7.056 23.239 11.243-5.973-10.891 17.217-9.954 1.523 4.683 9.37L84.27 99.41zm16.578-8.75l7.74 8.712-17.808 8.12-1.63-11.67 7.3-.248 4.402-4.916zm42.452-7.044l-34.168 15.532-.045-.005-1.95-10.275 24.733-6.384-4.305-9.183-7.682 6.569-20.242-3.007 11.428-5.048-21.744-9.758 32.803-3.17 21.172 24.73z" fill-rule="evenodd"/></svg>