<svg xmlns="http://www.w3.org/2000/svg" xmlns:xlink="http://www.w3.org/1999/xlink" viewBox="0 0 192 192"><defs><linearGradient id="e" data-name="Sfumatura senza nome 6" x1="158.936" y1="1843.399" x2="35.866" y2="1878.126" gradientTransform="matrix(1 0 0 -1 0 1957.153)" gradientUnits="userSpaceOnUse"><stop offset=".194" stop-color="#0f1635"/><stop offset=".402" stop-color="#003a65"/><stop offset=".509" stop-color="#004b7f"/><stop offset=".582" stop-color="#004473"/><stop offset=".713" stop-color="#003158"/><stop offset=".861" stop-color="#0b1937"/></linearGradient><radialGradient id="f" data-name="Sfumatura senza nome 2" cx="96.414" cy="1861.153" r="55.905" gradientTransform="matrix(1 0 0 -1 0 1957.153)" gradientUnits="userSpaceOnUse"><stop offset=".316" stop-color="#707070"/><stop offset=".702" stop-color="#909090"/><stop offset=".803" stop-color="#999"/><stop offset=".863" stop-color="#979797"/><stop offset=".895" stop-color="#8f8f8f"/><stop offset=".921" stop-color="#818181"/><stop offset=".943" stop-color="#6e6e6e"/><stop offset=".963" stop-color="#545454"/><stop offset=".981" stop-color="#363636"/><stop offset=".989" stop-color="#262626"/></radialGradient><linearGradient id="g" data-name="Sfumatura senza nome 3" x1="-18.331" y1="1915.622" x2="219.288" y2="1802.412" gradientTransform="matrix(1 0 0 -1 0 1957.153)" gradientUnits="userSpaceOnUse"><stop offset=".097" stop-color="#fff"/><stop offset=".276" stop-color="#bfc0c2"/><stop offset=".346" stop-color="#d8d9da"/><stop offset=".441" stop-color="#f5f5f5"/><stop offset=".502" stop-color="#fff"/><stop offset=".542" stop-color="#f3f3f4"/><stop offset=".613" stop-color="#d2d2d5"/><stop offset=".706" stop-color="#a0a2a5"/><stop offset=".726" stop-color="#94969a"/><stop offset=".906" stop-color="#fff"/></linearGradient><linearGradient id="a" data-name="Sfumatura senza nome 5" x1="104.935" y1="1900.889" x2="111.988" y2="1917.068" gradientTransform="matrix(1 0 0 -1 0 1957.153)" gradientUnits="userSpaceOnUse"><stop offset=".186" stop-color="#fff" stop-opacity="0"/><stop offset=".714" stop-color="#fff"/></linearGradient><linearGradient id="h" x1="2873.88" y1="-746.157" x2="2879.679" y2="-732.852" gradientTransform="matrix(-1 0 0 1 2963.14 884.92)" xlink:href="#a"/><linearGradient id="b" data-name="Sfumatura senza nome 13" x1="53.12" y1="1900.439" x2="161.268" y2="1866.503" gradientTransform="matrix(1 0 0 -1 0 1957.153)" gradientUnits="userSpaceOnUse"><stop offset=".101" stop-color="#fff"/><stop offset=".276" stop-color="#94969a"/><stop offset=".335" stop-color="#b7b8bb"/><stop offset=".407" stop-color="#dddee0"/><stop offset=".465" stop-color="#f6f6f7"/><stop offset=".502" stop-color="#fff"/><stop offset=".542" stop-color="#f3f3f4"/><stop offset=".613" stop-color="#d2d2d5"/><stop offset=".706" stop-color="#a0a2a5"/><stop offset=".726" stop-color="#94969a"/><stop offset=".906" stop-color="#e5e5e5"/></linearGradient><linearGradient id="i" x1="39.673" y1="1858.307" x2="147.931" y2="1824.336" xlink:href="#b"/><linearGradient id="j" x1="40.717" y1="1861.464" x2="148.923" y2="1827.509" xlink:href="#b"/><linearGradient id="k" x1="43.037" y1="1867.914" x2="150.959" y2="1834.049" xlink:href="#b"/><linearGradient id="l" x1="42.197" y1="1866.62" x2="150.534" y2="1832.624" xlink:href="#b"/><linearGradient id="m" x1="40.305" y1="1859.817" x2="148.409" y2="1825.895" xlink:href="#b"/><linearGradient id="n" x1="41.609" y1="1864.568" x2="149.893" y2="1830.59" xlink:href="#b"/><linearGradient id="o" x1="41.303" y1="1862.999" x2="149.408" y2="1829.076" xlink:href="#b"/><radialGradient id="p" data-name="Sfumatura senza nome 14" cx="93.842" cy="1862.303" r="55.89" gradientTransform="matrix(1 0 0 -1 0 1957.153)" gradientUnits="userSpaceOnUse"><stop offset=".905" stop-color="#495056"/><stop offset=".924" stop-color="#64696e"/><stop offset=".957" stop-color="#8c8e92"/><stop offset=".983" stop-color="#a8a9a9"/><stop offset="1" stop-color="#b2b2b2"/></radialGradient><linearGradient id="q" data-name="Sfumatura senza nome 15" x1="36.83" y1="1902.8" x2="149.155" y2="1823.813" gradientTransform="matrix(1 0 0 -1 0 1957.153)" gradientUnits="userSpaceOnUse"><stop offset=".097" stop-color="#fff"/><stop offset=".2" stop-color="#e7e5e4"/><stop offset=".25" stop-color="#d9d6d4"/><stop offset=".379" stop-color="#ebeaea"/><stop offset=".526" stop-color="#fefeff"/><stop offset=".668" stop-color="#e7e8e9"/><stop offset=".814" stop-color="#d4d6d7"/><stop offset=".906" stop-color="#fff"/></linearGradient><linearGradient id="r" data-name="Sfumatura senza nome 16" x1="114.556" y1="1890.743" x2="115.308" y2="1890.316" gradientTransform="matrix(1 0 0 -1 0 1957.153)" gradientUnits="userSpaceOnUse"><stop offset=".097" stop-color="#fff"/><stop offset=".276" stop-color="#bfc0c2"/><stop offset=".366" stop-color="#caccce"/><stop offset=".517" stop-color="#ececed"/><stop offset=".587" stop-color="#fff"/><stop offset=".612" stop-color="#f3f3f4"/><stop offset=".656" stop-color="#d2d2d5"/><stop offset=".713" stop-color="#a0a2a5"/><stop offset=".726" stop-color="#94969a"/><stop offset=".906" stop-color="#fff"/></linearGradient><linearGradient id="s" data-name="Sfumatura senza nome 17" x1="134.48" y1="1907.685" x2="123.722" y2="1910.72" gradientTransform="matrix(1 0 0 -1 0 1957.153)" gradientUnits="userSpaceOnUse"><stop offset=".194" stop-color="#0f1635"/><stop offset=".242" stop-color="#111938"/><stop offset=".3" stop-color="#152143"/><stop offset=".365" stop-color="#1c3155"/><stop offset=".434" stop-color="#284971"/><stop offset=".505" stop-color="#3d6e9c"/><stop offset=".509" stop-color="#3f719f"/><stop offset=".623" stop-color="#274b73"/><stop offset=".783" stop-color="#112647"/><stop offset=".861" stop-color="#0b1937"/></linearGradient><linearGradient id="t" data-name="Sfumatura senza nome 18" x1="33.405" y1="1888.079" x2="93.081" y2="1846.14" gradientTransform="matrix(1 0 0 -1 0 1957.153)" gradientUnits="userSpaceOnUse"><stop offset=".116" stop-color="#d00a10"/><stop offset=".497" stop-color="#b52936"/><stop offset=".571" stop-color="#a82130"/><stop offset=".712" stop-color="#921526"/><stop offset=".834" stop-color="#850e20"/><stop offset=".922" stop-color="#800b1d"/></linearGradient><radialGradient id="u" data-name="Sfumatura senza nome 19" cx="-189.488" cy="946.884" r="27.463" gradientTransform="matrix(.9157 .4018 .9683 -2.2072 -614.287 2222.539)" gradientUnits="userSpaceOnUse"><stop offset=".166" stop-color="#107d50"/><stop offset=".254" stop-color="#007a4f"/><stop offset=".352" stop-color="#00754d"/><stop offset=".658" stop-color="#005f3c"/><stop offset=".785" stop-color="#005635"/></radialGradient><linearGradient id="c" data-name="Sfumatura senza nome 20" x1="48.651" y1="1864.817" x2="48.651" y2="1850.313" gradientTransform="matrix(1 0 0 -1 0 1957.153)" gradientUnits="userSpaceOnUse"><stop offset=".841"/><stop offset=".894" stop-color="#575757" stop-opacity=".646"/><stop offset=".991" stop-color="#fff" stop-opacity="0"/></linearGradient><radialGradient id="v" data-name="Sfumatura senza nome 21" cx="-306.711" cy="621.315" r="19.902" gradientTransform="matrix(.7682 .6402 .6993 -.8391 -75.764 795)" gradientUnits="userSpaceOnUse"><stop offset=".881"/><stop offset=".917" stop-color="#020202" stop-opacity=".7"/><stop offset=".933" stop-color="#0a0a0a" stop-opacity=".563"/><stop offset=".946" stop-color="#161616" stop-opacity=".458"/><stop offset=".956" stop-color="#292929" stop-opacity=".37"/><stop offset=".965" stop-color="#404040" stop-opacity=".293"/><stop offset=".973" stop-color="#5d5d5d" stop-opacity=".223"/><stop offset=".981" stop-color="gray" stop-opacity=".159"/><stop offset=".988" stop-color="#a8a8a8" stop-opacity=".099"/><stop offset=".995" stop-color="#d5d5d5" stop-opacity=".045"/><stop offset="1" stop-color="#fff" stop-opacity="0"/></radialGradient><radialGradient id="w" data-name="Sfumatura senza nome 22" cx="-395.098" cy="715.758" r="11.498" gradientTransform="matrix(.8403 .5422 .6568 -1.018 -11.52 1058.536)" gradientUnits="userSpaceOnUse"><stop offset=".809"/><stop offset=".866" stop-color="#020202" stop-opacity=".7"/><stop offset=".892" stop-color="#0a0a0a" stop-opacity=".563"/><stop offset=".912" stop-color="#161616" stop-opacity=".458"/><stop offset=".929" stop-color="#292929" stop-opacity=".37"/><stop offset=".944" stop-color="#404040" stop-opacity=".293"/><stop offset=".957" stop-color="#5d5d5d" stop-opacity=".223"/><stop offset=".97" stop-color="gray" stop-opacity=".159"/><stop offset=".981" stop-color="#a8a8a8" stop-opacity=".099"/><stop offset=".991" stop-color="#d5d5d5" stop-opacity=".045"/><stop offset="1" stop-color="#fff" stop-opacity="0"/></radialGradient><radialGradient id="x" data-name="Sfumatura senza nome 23" cx="105.461" cy="1828.143" r="13.344" gradientTransform="matrix(1 0 0 -1 0 1957.153)" xlink:href="#c"/><radialGradient id="y" data-name="Sfumatura senza nome 24" cx="1423.679" cy="1671.007" r="5.553" gradientTransform="matrix(.7253 -.6884 -1.1277 -1.1881 948.12 3072.087)" gradientUnits="userSpaceOnUse"><stop offset=".733"/><stop offset=".755" stop-color="#090909" stop-opacity=".915"/><stop offset=".791" stop-color="#222" stop-opacity=".776"/><stop offset=".836" stop-color="#4a4a4a" stop-opacity=".6"/><stop offset=".889" stop-color="#828282" stop-opacity=".394"/><stop offset=".948" stop-color="#c8c8c8" stop-opacity=".165"/><stop offset=".991" stop-color="#fff" stop-opacity="0"/></radialGradient><linearGradient id="z" data-name="Sfumatura senza nome 25" x1="82.714" y1="1858.482" x2="82.714" y2="1850.489" gradientTransform="matrix(1 0 0 -1 0 1957.153)" gradientUnits="userSpaceOnUse"><stop offset=".703"/><stop offset=".728" stop-color="#0c0c0c" stop-opacity=".912"/><stop offset=".774" stop-color="#2d2d2d" stop-opacity=".752"/><stop offset=".836" stop-color="#616161" stop-opacity=".538"/><stop offset=".911" stop-color="#aaa" stop-opacity=".278"/><stop offset=".991" stop-color="#fff" stop-opacity="0"/></linearGradient><linearGradient id="A" data-name="Sfumatura senza nome 26" x1="65.922" y1="1910.198" x2="55.941" y2="1888.53" gradientTransform="matrix(1 0 0 -1 0 1957.153)" gradientUnits="userSpaceOnUse"><stop offset=".495"/><stop offset=".542" stop-color="#060606" stop-opacity=".906"/><stop offset=".604" stop-color="#171717" stop-opacity=".781"/><stop offset=".674" stop-color="#333" stop-opacity=".639"/><stop offset=".751" stop-color="#595959" stop-opacity=".483"/><stop offset=".834" stop-color="#8b8b8b" stop-opacity=".317"/><stop offset=".919" stop-color="#c7c7c7" stop-opacity=".145"/><stop offset=".991" stop-color="#fff" stop-opacity="0"/></linearGradient><linearGradient id="B" data-name="Sfumatura senza nome 27" x1="106.16" y1="1883.528" x2="106.16" y2="1879.511" gradientTransform="matrix(1 0 0 -1 0 1957.153)" gradientUnits="userSpaceOnUse"><stop offset=".733"/><stop offset=".782" stop-color="#2b2b2b" stop-opacity=".812"/><stop offset=".89" stop-color="#969696" stop-opacity=".391"/><stop offset=".991" stop-color="#fff" stop-opacity="0"/></linearGradient><radialGradient id="C" data-name="Sfumatura senza nome 28" cx="2053.117" cy="-57.926" r="4.232" gradientTransform="matrix(-.8428 .5382 1.1252 1.7622 1892.127 -942.851)" gradientUnits="userSpaceOnUse"><stop offset=".673"/><stop offset=".715" stop-color="#030303" stop-opacity=".851"/><stop offset=".751" stop-color="#0e0e0e" stop-opacity=".722"/><stop offset=".784" stop-color="#202020" stop-opacity=".601"/><stop offset=".817" stop-color="#393939" stop-opacity=".484"/><stop offset=".849" stop-color="#595959" stop-opacity=".371"/><stop offset=".879" stop-color="#818181" stop-opacity=".26"/><stop offset=".91" stop-color="#b0b0b0" stop-opacity=".151"/><stop offset=".939" stop-color="#e5e5e5" stop-opacity=".046"/><stop offset=".952" stop-color="#fff" stop-opacity="0"/></radialGradient><radialGradient id="D" data-name="Sfumatura senza nome 29" cx="95.921" cy="1861.438" r="83.655" gradientTransform="matrix(1 0 0 -1 0 1957.153)" gradientUnits="userSpaceOnUse"><stop offset=".781" stop-color="#b9b8b8"/><stop offset=".828" stop-color="#d8d8d7"/><stop offset=".881" stop-color="#f4f4f4"/><stop offset=".908" stop-color="#fff"/></radialGradient><linearGradient id="E" data-name="Sfumatura senza nome 30" x1="163.211" y1="1901.381" x2="160.577" y2="1884.091" gradientTransform="matrix(1 0 0 -1 0 1957.153)" gradientUnits="userSpaceOnUse"><stop offset=".101" stop-color="#fff"/><stop offset=".276" stop-color="#c7c7c9"/><stop offset=".313" stop-color="#cdcdce"/><stop offset=".402" stop-color="#d7d7d7"/><stop offset=".482" stop-color="#dadada"/><stop offset=".56" stop-color="#d1d2d3"/><stop offset=".669" stop-color="#c8c9cb"/><stop offset=".906" stop-color="#e5e5e5"/></linearGradient><linearGradient id="d" data-name="Sfumatura senza nome 34" x1="83.936" y1="1911.4" x2="112.492" y2="1899.649" gradientTransform="matrix(1 0 0 -1 0 1957.153)" gradientUnits="userSpaceOnUse"><stop offset=".103" stop-color="#e9e4e3"/><stop offset=".525" stop-color="#fcfcfc"/><stop offset=".649" stop-color="#e7e7e9"/><stop offset=".788" stop-color="#d4d6d7"/><stop offset=".906" stop-color="#fff"/></linearGradient><linearGradient id="F" x1="86.322" y1="1917.202" x2="114.88" y2="1905.451" xlink:href="#d"/><linearGradient id="G" x1="85.441" y1="1915.056" x2="113.996" y2="1903.305" xlink:href="#d"/><linearGradient id="H" x1="84.542" y1="1912.869" x2="113.096" y2="1901.119" xlink:href="#d"/></defs><path d="M95.983 11.522a84.469 84.469 0 1 0 84.469 84.47 84.478 84.478 0 0 0-84.47-84.47zm.083 143.08a58.611 58.611 0 1 1 58.61-58.61 58.608 58.608 0 0 1-58.61 58.61z" fill="url(#e)"/><path d="M56.583 135.806v-30.997H40.687a55.857 55.857 0 0 0 15.896 30.997zm0-49.014V56.193a55.816 55.816 0 0 0-15.83 30.599zm54.948 53.373h-6.216a13.66 13.66 0 0 1-5.57-26.007l.382-.182a17.9 17.9 0 0 1-10.277-9.167H74.617v43.014a56.007 56.007 0 0 0 21.449 4.26c1.458 0 2.917-.05 4.343-.166h.149a20.993 20.993 0 0 0 10.658-3.332c2.52-1.64 3.779-3.282 3.779-4.906a3.538 3.538 0 0 0-3.464-3.514zm8.188-63.716H91.242c2.37-7.592 6.597-9.714 6.647-9.747l.332-.199-.299-.248a20.945 20.945 0 0 1-6.033-8.702c-.05-.116-.1-.233-.15-.332l13.095-.017c1.442 0 1.591-.116 2.155-1.027a8.718 8.718 0 0 1 1.724-2.138 7.419 7.419 0 0 1 5.089-1.675h6.978a3.166 3.166 0 0 0 1.475-5.967l-.066-.05a56.206 56.206 0 0 0-47.572-2.17v42.615h16.741a17.82 17.82 0 0 1 14.57-7.575h13.774a1.372 1.372 0 0 0 1.376-1.376 1.352 1.352 0 0 0-1.359-1.392zm22.775-11.885a25.688 25.688 0 0 1-16.195 31.99 16.481 16.481 0 0 1-4.442 32.273l.348.249a11.383 11.383 0 0 1 4.542 9.133 11.112 11.112 0 0 1-1.11 4.89l-.349.746-.016.016a56.055 56.055 0 0 0 17.222-79.297z" fill="url(#f)"/><path d="M96 8.008a87.991 87.991 0 1 0 87.982 87.983A87.998 87.998 0 0 0 96 8.008zm0 172.618a84.626 84.626 0 1 1 84.617-84.618A84.634 84.634 0 0 1 96 180.626z" fill="url(#g)"/><circle cx="96.001" cy="96" r="87.999" fill="none" stroke="#000" stroke-miterlimit="10" stroke-width=".365"/><path d="M97.226 43.894a49.06 49.06 0 0 0-14.388 2.155 48.692 48.692 0 0 0 33.748 13.542 49.06 49.06 0 0 0 14.388-2.154 48.662 48.662 0 0 0-33.748-13.543z" fill="url(#a)"/><path d="M95.602 148.933a39.95 39.95 0 0 0 11.835-1.773 40.258 40.258 0 0 0-39.6-9.349 40.09 40.09 0 0 0 27.765 11.122z" opacity=".6" fill="url(#h)" style="isolation:isolate"/><path d="M96 11.373a84.626 84.626 0 1 0 84.617 84.618A84.63 84.63 0 0 0 96 11.373zm0 168.673a84.038 84.038 0 1 1 84.037-84.038A84.04 84.04 0 0 1 96 180.046z" fill="#fff"/><path d="M56.815 139.187a58.119 58.119 0 0 0 97.033-43.196c0-.464 0-.945-.017-1.409v-.215c-.315-11.819-3.961-23.206-9.514-31.56a58.845 58.845 0 0 1-94.464 70.048 65.026 65.026 0 0 1-2.718-3.646 60.586 60.586 0 0 1-9.382-28.477 57.922 57.922 0 0 0 19.062 38.455z" fill="#fff"/><path d="M139.809 131.065a.297.297 0 0 0-.083.116.702.702 0 0 0 .083-.116zM82.407 63.288a3.44 3.44 0 0 1 2.553 1.077 1.835 1.835 0 0 0 1.11.448c.365 0 .531-.183.531-.564 0-2.304-.563-6.912-1.657-7.542 0 0-.017-.016-.083-.016a.68.68 0 0 0-.183.016 1.254 1.254 0 0 1-.248.017 1.003 1.003 0 0 1-.249-.033 3.625 3.625 0 0 1-1.89-1.94l-.215-.381.332-.083a7.624 7.624 0 0 1 1.69-.215 5.128 5.128 0 0 1 3.614 1.409 10.89 10.89 0 0 1 2.138 3.563 20.906 20.906 0 0 0 4.724 7.144l.199.2-.2.182a20.906 20.906 0 0 0-4.723 7.144 11.158 11.158 0 0 1-2.138 3.58 5.172 5.172 0 0 1-3.614 1.409 6.854 6.854 0 0 1-1.69-.216l-.332-.082.215-.382a3.625 3.625 0 0 1 1.89-1.939 1.153 1.153 0 0 1 .265-.033 1.255 1.255 0 0 1 .249.016c.066 0 .133.017.182.017a.24.24 0 0 0 .1-.017c1.077-.63 1.657-5.237 1.657-7.525 0-.398-.165-.58-.53-.58a1.797 1.797 0 0 0-1.11.464 3.438 3.438 0 0 1-2.537 1.078 3.254 3.254 0 0 1-3.414-2.934v-.365a3.175 3.175 0 0 1 3.364-2.917zM43.107 104.81a53.427 53.427 0 0 0 13.476 27.548v-27.549zM56.583 59.674A53.437 53.437 0 0 0 43.19 86.792h13.393zM145.146 123.109c-.232.414-.464.845-.713 1.26.232-.415.48-.83.713-1.26zM142.03 128.115c-.05.082-.116.165-.166.248a2.16 2.16 0 0 1 .166-.248zM145.892 121.716zM143.057 126.573c-.116.166-.215.332-.331.497.116-.165.232-.331.331-.497zM143.952 125.18c-.116.2-.248.382-.364.58.116-.198.248-.38.364-.58zM140.853 129.722c-.017.017-.017.033-.033.05.016-.017.033-.033.033-.05zM146.074 121.368a56.101 56.101 0 0 0-3.564-56.804c.017.033.017.05.033.083a56.04 56.04 0 0 1 3.531 56.721zM122.57 46.613c-.1-.067-.215-.133-.315-.2l-.066-.049a56.206 56.206 0 0 0-47.572-2.171v.016a56.239 56.239 0 0 1 47.953 2.404z" fill="none"/><path d="M149.688 96.024a53.318 53.318 0 0 0-6.034-24.73c.017.315.017.646.017.978a25.657 25.657 0 0 1-17.372 24.283 16.481 16.481 0 0 1-4.442 32.272l.348.249a11.383 11.383 0 0 1 4.542 9.133 10.63 10.63 0 0 1-.166 1.923 53.631 53.631 0 0 0 23.107-44.108z" fill="none"/><path d="M82.407 69.503a3.438 3.438 0 0 0 2.537-1.077 1.836 1.836 0 0 1 1.11-.464c.365 0 .53.182.53.58 0 2.288-.563 6.912-1.657 7.525 0 0-.017.017-.1.017a.68.68 0 0 1-.182-.017c-.083 0-.166-.016-.248-.016a1.288 1.288 0 0 0-.266.033 3.685 3.685 0 0 0-1.89 1.94l-.215.38.332.083a7.624 7.624 0 0 0 1.69.216 5.202 5.202 0 0 0 3.614-1.409 11.158 11.158 0 0 0 2.138-3.58 20.906 20.906 0 0 1 4.724-7.144l.2-.183-.2-.199a20.906 20.906 0 0 1-4.724-7.144 10.89 10.89 0 0 0-2.138-3.563 5.1 5.1 0 0 0-3.613-1.41 6.854 6.854 0 0 0-1.691.216l-.332.083.216.381a3.625 3.625 0 0 0 1.89 1.94 1.128 1.128 0 0 0 .248.033 1.255 1.255 0 0 0 .249-.017c.066 0 .132-.016.182-.016.066 0 .083.016.083.016 1.077.63 1.657 5.238 1.657 7.542 0 .398-.165.564-.53.564a1.876 1.876 0 0 1-1.11-.448 3.44 3.44 0 0 0-2.553-1.077 3.264 3.264 0 0 0-3.415 2.917v.365a3.334 3.334 0 0 0 3.465 2.933z" fill="url(#b)"/><path d="M140.82 129.772c-.332.431-.663.879-1.011 1.31.348-.448.68-.879 1.01-1.31z" fill="#828282"/><path d="M140.82 129.772c-.332.431-.663.879-1.011 1.31.348-.448.68-.879 1.01-1.31z" fill="url(#i)"/><path d="M142.742 127.07c-.232.348-.464.696-.712 1.045.232-.349.48-.697.712-1.045z" fill="#828282"/><path d="M142.742 127.07c-.232.348-.464.696-.712 1.045.232-.349.48-.697.712-1.045z" fill="url(#j)"/><path d="M146.074 121.368c-.066.116-.116.232-.182.348.066-.116.116-.232.182-.348z" fill="#828282"/><path d="M146.074 121.368c-.066.116-.116.232-.182.348.066-.116.116-.232.182-.348z" fill="url(#k)"/><path d="M145.394 122.645c-.082.149-.165.315-.248.464.083-.15.166-.299.248-.464z" fill="#828282"/><path d="M145.394 122.645c-.082.149-.165.315-.248.464.083-.15.166-.299.248-.464z" fill="url(#l)"/><path d="M141.847 128.363c-.331.464-.663.912-.994 1.36.348-.448.68-.896.994-1.36z" fill="#828282"/><path d="M141.847 128.363c-.331.464-.663.912-.994 1.36.348-.448.68-.896.994-1.36z" fill="url(#m)"/><path d="M144.433 124.368c-.166.266-.315.53-.48.813.165-.266.314-.547.48-.813z" fill="#828282"/><path d="M144.433 124.368c-.166.266-.315.53-.48.813.165-.266.314-.547.48-.813z" fill="url(#n)"/><path d="M143.588 125.76c-.166.283-.348.548-.53.813.182-.265.364-.547.53-.812z" fill="#828282"/><path d="M143.588 125.76c-.166.283-.348.548-.53.813.182-.265.364-.547.53-.812z" fill="url(#o)"/><path fill="#404040" d="M74.617 104.809v42.981l.796-2.221v-40.76h-.796zM74.617 44.193v42.599h.796V46.48l-.796-2.287z"/><path d="M113.354 140.58c.845.513 1.409 1.193 1.243 2.055-1.226 3.48-6.381 5.552-10.376 6.414a54.038 54.038 0 0 1-28.792-3.497v.017l-.795 2.237v.017a56.007 56.007 0 0 0 21.448 4.26c1.459 0 2.918-.05 4.343-.166h.15a21.295 21.295 0 0 0 10.226-3.05.036.036 0 0 0 .034-.033.016.016 0 0 0 .016-.017c.182-.116.348-.232.53-.348a12.78 12.78 0 0 0 2.089-1.674c-.05.017-.083.033-.133.05 1.973-2.022 3.25-4.674.017-6.266zm-72.667-35.77a56.01 56.01 0 0 0 15.896 31.012v-3.448a53.553 53.553 0 0 1-13.476-27.548h-2.42zm2.503-18.018a53.437 53.437 0 0 1 13.393-27.118v-3.497a55.816 55.816 0 0 0-15.83 30.598h2.437zm31.427-42.6zm67.91 20.455a25.142 25.142 0 0 1 1.127 6.647 53.667 53.667 0 0 1-17.073 68.838 10.502 10.502 0 0 1-.945 2.967l-.348.746-.016.016a56.58 56.58 0 0 0 14.454-12.68.297.297 0 0 0 .083-.116c.348-.431.68-.862 1.01-1.31.017-.016.017-.033.034-.05.331-.447.663-.894.994-1.358.05-.083.116-.166.166-.249.249-.348.48-.696.713-1.044.116-.166.215-.332.331-.498.183-.265.348-.547.53-.812.117-.199.25-.381.365-.58.166-.265.315-.53.481-.812.249-.414.48-.829.713-1.26.083-.149.166-.315.248-.464.166-.315.332-.63.498-.928.066-.116.116-.232.182-.348a56.069 56.069 0 0 0-3.547-56.705zM122.57 46.613a56.17 56.17 0 0 0-47.953-2.42l.796 2.287v.017a53.707 53.707 0 0 1 48.384 3.63 3.158 3.158 0 0 0 .132-.895 3.082 3.082 0 0 0-1.359-2.62z" stroke="#4d4d4c" stroke-miterlimit="10" stroke-width=".11" fill="url(#p)"/><path d="M94.54 66.586l.2-.182-.2-.199a20.906 20.906 0 0 1-4.723-7.144 10.89 10.89 0 0 0-2.138-3.564 5.1 5.1 0 0 0-3.614-1.409 6.854 6.854 0 0 0-1.69.216l-.332.083.215.38a3.625 3.625 0 0 0 1.89 1.94 1.128 1.128 0 0 0 .249.033 1.254 1.254 0 0 0 .248-.016c.067 0 .133-.017.183-.017.066 0 .082.017.082.017 1.078.63 1.658 5.238 1.658 7.542 0 .397-.166.563-.53.563a1.876 1.876 0 0 1-1.111-.447 3.44 3.44 0 0 0-2.553-1.078 3.264 3.264 0 0 0-3.414 2.918v.364a3.254 3.254 0 0 0 3.414 2.934 3.438 3.438 0 0 0 2.536-1.077 1.836 1.836 0 0 1 1.11-.464c.366 0 .531.182.531.58 0 2.287-.563 6.912-1.657 7.525 0 0-.017.017-.1.017a.68.68 0 0 1-.182-.017c-.083 0-.166-.017-.249-.017a1.288 1.288 0 0 0-.265.034 3.685 3.685 0 0 0-1.89 1.939l-.215.381.332.083a7.624 7.624 0 0 0 1.69.216 5.201 5.201 0 0 0 3.614-1.41 11.157 11.157 0 0 0 2.138-3.58 21.773 21.773 0 0 1 4.774-7.144zm1.526-29.272a58.677 58.677 0 1 0 58.677 58.677 58.68 58.68 0 0 0-58.677-58.677zM74.6 44.176a56.206 56.206 0 0 1 47.572 2.171l.066.05a3.166 3.166 0 0 1-1.475 5.967h-6.978a7.447 7.447 0 0 0-5.089 1.675 8.507 8.507 0 0 0-1.724 2.138c-.563.911-.712 1.027-2.154 1.027l-13.095.017c.05.116.1.232.15.332a21.048 21.048 0 0 0 6.033 8.702l.298.248-.331.2c-.05.032-4.277 2.154-6.647 9.746h28.476a1.387 1.387 0 0 1 1.376 1.392 1.372 1.372 0 0 1-1.376 1.376h-13.774a17.82 17.82 0 0 0-14.57 7.575H74.6zM56.583 56.193v30.599h-15.83a55.816 55.816 0 0 1 15.83-30.599zm0 79.613a55.904 55.904 0 0 1-15.896-31.013h15.896zm15.912 11.089a56.013 56.013 0 0 1-13.807-9.1v-35.107h-18.3a56.64 56.64 0 0 1 .05-13.808h18.25V54.204a56.486 56.486 0 0 1 13.807-9.1V88.88h17.587a17.684 17.684 0 0 0-1.99 8.189 17.867 17.867 0 0 0 .896 5.602H72.495zm38.72 1.674a20.993 20.993 0 0 1-10.657 3.331h-.15a53.748 53.748 0 0 1-4.342.166 55.636 55.636 0 0 1-21.449-4.26v-43.013H89.85a17.9 17.9 0 0 0 10.277 9.166l-.382.182a13.66 13.66 0 0 0 5.57 26.007h6.216a3.535 3.535 0 0 1 3.464 3.498c0 1.64-1.276 3.282-3.78 4.923zm10.56-3.647a7.428 7.428 0 0 1-1.178 1.028 22.954 22.954 0 0 1-2.022 1.143 56.86 56.86 0 0 1-4.674 1.824 6.158 6.158 0 0 0 3.182-5.271 5.646 5.646 0 0 0-5.585-5.603l-.514-.016h-5.702a11.575 11.575 0 0 1-11.288-11.553c0-6.117 5.188-11.554 11.288-11.554h16.343a1.054 1.054 0 0 0 1.061-1.044 1.068 1.068 0 0 0-1.06-1.06h-15.714a15.747 15.747 0 1 1 0-31.494h13.807a3.567 3.567 0 0 0 3.398-3.597 3.403 3.403 0 0 0-3.398-3.398H94.458c1.79-5.437 6-6.713 6-6.713H114a1.16 1.16 0 0 0 0-2.32h-13.442a13.852 13.852 0 0 1-5.52-5.984h9.813c3.978 0 3.315-1.99 5.254-3.68a5.286 5.286 0 0 1 3.697-1.16l6.978-.017a5.277 5.277 0 0 0 5.205-4.393l.066.017a23.563 23.563 0 0 1-8.023 45.715h-12.58a1.06 1.06 0 0 0 0 2.122h16.127v.016a14.404 14.404 0 0 1 0 28.809H104.9a1.06 1.06 0 1 0 .017 2.121h10.41a9.32 9.32 0 0 1 6.447 16.062zm3.497-1.06l.016-.017.348-.746a11.412 11.412 0 0 0-3.43-14.023l-.349-.249a16.481 16.481 0 0 0 4.442-32.272 25.688 25.688 0 0 0 16.195-31.991 56.095 56.095 0 0 1-17.222 79.297z"/><path d="M142.394 64.597a25.562 25.562 0 0 1-16.128 31.858l-.315.1.315.1a16.382 16.382 0 0 1-4.409 32.073h-.1v.149l.05.033.349.249a11.289 11.289 0 0 1 4.492 9.033 11.114 11.114 0 0 1-1.094 4.84l-.348.746.132.15a56.182 56.182 0 0 0 26.919-47.97 55.822 55.822 0 0 0-9.647-31.493l-.033-.05h-.2zm-31.377 73.546l.514.016a5.573 5.573 0 0 1 5.486 5.503 6.131 6.131 0 0 1-3.133 5.188l.083.183a53.463 53.463 0 0 0 4.675-1.823 22.53 22.53 0 0 0 2.022-1.16 6.307 6.307 0 0 0 1.193-1.062 9.337 9.337 0 0 0 2.884-6.779 9.44 9.44 0 0 0-9.398-9.431H104.9a.961.961 0 1 1-.016-1.923h16.675a14.504 14.504 0 0 0 .1-29.007l-.1-.017h-16.112a.953.953 0 0 1 0-1.906h12.581a23.666 23.666 0 0 0 8.056-45.914l-.182-.067-.017.116a5.137 5.137 0 0 1-5.105 4.31l-6.978.017a5.55 5.55 0 0 0-3.78 1.176 6.437 6.437 0 0 0-1.326 1.675c-.68 1.11-1.226 1.972-3.862 1.972h-9.978l.066.15a14.014 14.014 0 0 0 5.57 6.05l.016.016h13.46a1.054 1.054 0 0 1 1.044 1.06 1.04 1.04 0 0 1-1.045 1.045h-13.575a10.297 10.297 0 0 0-6.067 6.78l-.05.132h25.427a3.297 3.297 0 0 1 3.299 3.299 3.436 3.436 0 0 1-3.299 3.48h-13.807a15.854 15.854 0 0 0 0 31.71h15.714a.959.959 0 0 1 .961.944.948.948 0 0 1-.961.945h-16.344c-6.066 0-11.387 5.453-11.387 11.653a11.696 11.696 0 0 0 11.387 11.669h5.752zm-26.935-59.54a6.601 6.601 0 0 1-1.658-.215l-.199-.05.15-.265a3.58 3.58 0 0 1 1.823-1.89.979.979 0 0 1 .232-.033 1.094 1.094 0 0 1 .232.017c.066 0 .132.016.199.016a.627.627 0 0 0 .132-.016c1.21-.696 1.708-5.669 1.708-7.625 0-.447-.216-.68-.63-.68a2.003 2.003 0 0 0-1.194.498 3.315 3.315 0 0 1-2.47 1.044 3.16 3.16 0 0 1-3.315-2.834v-.365a3.16 3.16 0 0 1 3.315-2.818 3.378 3.378 0 0 1 2.47 1.044 1.898 1.898 0 0 0 1.177.481c.415 0 .63-.232.63-.68 0-1.955-.497-6.928-1.707-7.624a.239.239 0 0 0-.15-.033h-.198a1.254 1.254 0 0 1-.249.016.978.978 0 0 1-.232-.033 3.58 3.58 0 0 1-1.823-1.89l-.15-.265.2-.05a7.34 7.34 0 0 1 1.657-.215 5.045 5.045 0 0 1 3.53 1.376 10.87 10.87 0 0 1 2.122 3.53 20.981 20.981 0 0 0 4.74 7.178l.117.116-.116.116a20.981 20.981 0 0 0-4.74 7.177 10.957 10.957 0 0 1-2.123 3.547 4.625 4.625 0 0 1-3.48 1.425zm11.984 76.148a58.744 58.744 0 1 1 58.743-58.743 58.814 58.814 0 0 1-58.743 58.743zM74.5 147.89l.066.033a55.64 55.64 0 0 0 21.499 4.26c1.508 0 2.967-.05 4.36-.166h.132a21.966 21.966 0 0 0 10.625-3.298l.082-.05c2.537-1.657 3.83-3.332 3.83-4.99a3.63 3.63 0 0 0-3.564-3.596h-6.216a13.552 13.552 0 0 1-5.52-25.808l.613-.298-.232-.083a17.893 17.893 0 0 1-10.21-9.117l-.033-.066H74.534zm-15.912-10.045l.033.034a56.092 56.092 0 0 0 13.84 9.116l.15.066v-44.256h16.542l-.05-.133a17.778 17.778 0 0 1 1.094-13.741l.083-.15H72.595V44.94l-.15.066a56.092 56.092 0 0 0-13.84 9.116l-.033.034V88.78H40.339l-.017.083a56.556 56.556 0 0 0-.447 7.127 57.2 57.2 0 0 0 .398 6.713l.016.1h18.283v35.04zm-18.001-33.018a55.766 55.766 0 0 0 15.929 31.062l.182.183V104.71H40.57zm55.478-65.01a56.07 56.07 0 0 0-21.499 4.26l-.066.034V86.89h16.907l.033-.05a17.776 17.776 0 0 1 14.487-7.525h13.774a1.5 1.5 0 0 0 0-3H91.358c2.354-7.41 6.514-9.514 6.564-9.547l.464-.266-.414-.331a21.137 21.137 0 0 1-6-8.653c-.034-.066-.05-.132-.083-.199l12.945-.016c1.475 0 1.658-.133 2.238-1.078a8.356 8.356 0 0 1 1.707-2.105 7.315 7.315 0 0 1 5.023-1.657h6.978a3.272 3.272 0 0 0 3.265-3.266 3.306 3.306 0 0 0-1.757-2.9l-.05-.033a55.6 55.6 0 0 0-26.172-6.448zM56.5 56.11a55.624 55.624 0 0 0-15.863 30.665l-.016.116h16.061V55.945z" fill="url(#q)"/><path d="M124.194 73.647l.183 4.194-1.343-.05a3.44 3.44 0 0 1-3.298 3.448h-13.808a15.854 15.854 0 0 0 0 31.709h15.714a.959.959 0 0 1 .961.945.948.948 0 0 1-.961.945h-16.344c-6.066 0-11.387 5.453-11.387 11.652a11.696 11.696 0 0 0 11.387 11.67H111l.514.016a5.573 5.573 0 0 1 5.487 5.503 6.131 6.131 0 0 1-3.133 5.188l.083.182a53.462 53.462 0 0 0 4.674-1.823 22.532 22.532 0 0 0 2.022-1.16 6.307 6.307 0 0 0 1.194-1.061 9.337 9.337 0 0 0 2.884-6.78 9.44 9.44 0 0 0-9.398-9.43h-10.443a.961.961 0 1 1-.017-1.924h16.675a14.504 14.504 0 0 0 .1-29.007l-.1-.016h-16.095a.953.953 0 0 1 0-1.907h12.581a23.666 23.666 0 0 0 8.056-45.914l-.182-.066-.017.116a5.137 5.137 0 0 1-5.105 4.31l-6.978.016a5.55 5.55 0 0 0-3.78 1.177 6.437 6.437 0 0 0-1.326 1.674c-.68 1.11-1.226 1.973-3.862 1.973h-9.978l.066.149a14.014 14.014 0 0 0 5.57 6.05l.016.016h13.46a1.054 1.054 0 0 1 1.044 1.061 1.04 1.04 0 0 1-1.045 1.045h-13.575a10.297 10.297 0 0 0-6.067 6.779l-.033.116.133-.083z" fill="none"/><path d="M111.53 140.065h-6.215a13.552 13.552 0 0 1-5.52-25.808l.614-.298-.233-.083a17.893 17.893 0 0 1-10.21-9.116l-.033-.067H74.534v43.18l.066.033a55.64 55.64 0 0 0 21.499 4.26c1.508 0 2.967-.05 4.36-.166h.132a21.966 21.966 0 0 0 10.625-3.299l.083-.05c2.536-1.657 3.829-3.331 3.829-4.989a3.67 3.67 0 0 0-3.597-3.597zM89.535 59.194a10.562 10.562 0 0 0-2.072-3.465 4.829 4.829 0 0 0-3.398-1.326 7.381 7.381 0 0 0-1.558.183l.016.033c.282.53.813 1.525 1.708 1.79a.511.511 0 0 0 .166.016 1.175 1.175 0 0 0 .232-.016h.215a.605.605 0 0 1 .249.05c1.359.779 1.806 6.066 1.806 7.807a.778.778 0 0 1-.845.878 2.056 2.056 0 0 1-1.326-.547 3.113 3.113 0 0 0-2.32-.978 2.943 2.943 0 0 0-3.1 2.62v.347a2.957 2.957 0 0 0 3.1 2.636 3.093 3.093 0 0 0 2.32-.995 2.09 2.09 0 0 1 1.326-.547.786.786 0 0 1 .845.879c0 1.74-.447 7.011-1.823 7.807a.481.481 0 0 1-.232.05.945.945 0 0 1-.215-.017c-.067 0-.15-.017-.216-.017a.462.462 0 0 0-.166.017c-.878.265-1.409 1.26-1.707 1.79l-.017.033a6.583 6.583 0 0 0 1.559.2 4.857 4.857 0 0 0 3.398-1.327 10.65 10.65 0 0 0 2.072-3.48 20.903 20.903 0 0 1 4.757-7.211 21.392 21.392 0 0 1-4.774-7.21zM56.5 135.888l.182.183V104.71H40.554l.017.116A55.87 55.87 0 0 0 56.5 135.888zM40.654 86.775l-.017.116H56.7V55.945l-.182.182a55.523 55.523 0 0 0-15.863 30.648zM142.593 64.514l-.033-.05h-.199l.033.133a25.562 25.562 0 0 1-16.128 31.858l-.315.1.315.1a16.382 16.382 0 0 1-4.409 32.073h-.1v.149l.05.033.349.249a11.289 11.289 0 0 1 4.492 9.033 11.114 11.114 0 0 1-1.094 4.84l-.349.746.133.15a56.182 56.182 0 0 0 26.919-47.97 55.926 55.926 0 0 0-9.664-31.444z" fill="none"/><path d="M90.264 88.78l-.083.15a17.778 17.778 0 0 0-1.094 13.741l.05.133h-.016l.298.199-.133-.415a17.651 17.651 0 0 1 1.078-13.575l.232-.448zM123.034 77.742a3.307 3.307 0 0 0-3.298-3.299H94.309v-.017l-.282.183-.017.033h25.726a3.077 3.077 0 0 1 3.083 3.083v.033l.199.017c.016 0 .016-.017.016-.033zM91.607 86.974a17.55 17.55 0 0 1 14.321-7.442h13.774a1.698 1.698 0 0 0 1.691-1.691c0-.05-.016-.083-.016-.133l-.216-.016c0 .05.017.083.017.132a1.496 1.496 0 0 1-1.492 1.492h-13.774a17.776 17.776 0 0 0-14.487 7.525l-.034.05.1.216z" fill="#fff"/><path fill="#fff" d="M91.524 87.107l-.116-.216H74.501l-.199.216h17.222zM97.939 66.802c-.05.016-4.21 2.138-6.564 9.547h.016l.315-.199h-.05c2.321-7.094 6.332-9.133 6.382-9.166l.73-.414-.365-.034z"/><path d="M91.988 57.536a20.87 20.87 0 0 0 6 8.652l.415.332.365.033-.647-.53a20.73 20.73 0 0 1-5.9-8.487l-.316-.199a1.014 1.014 0 0 0 .083.199z" fill="#fff" stroke="#fff" stroke-miterlimit="10" stroke-width=".183"/><path d="M121.111 52.464a2.447 2.447 0 0 1-.348.016h-6.978a7.315 7.315 0 0 0-5.022 1.658 8.657 8.657 0 0 0-1.708 2.105c-.58.945-.762 1.077-2.237 1.077l-12.946.017.315.199 12.63-.017c1.575 0 1.807-.182 2.42-1.176a8.345 8.345 0 0 1 1.658-2.056 7.128 7.128 0 0 1 4.89-1.608h6.978a3.484 3.484 0 0 0 3.415-2.818 3.32 3.32 0 0 1-3.067 2.603z" fill="#fff" stroke="#fff" stroke-miterlimit="10" stroke-width=".183"/><path d="M122.819 46.414a2.319 2.319 0 0 0-.431-.265l-.034-.034a56.466 56.466 0 0 0-47.853-2.22l-.199.082v43.13l.199-.216V44.11l.066-.033a56.344 56.344 0 0 1 46.86 1.773c.281.133.546.282.812.415l.05.033a3.269 3.269 0 0 1-1.178 6.15 3.323 3.323 0 0 0 3.067-2.587 4.279 4.279 0 0 0 .066-.663 3.425 3.425 0 0 0-1.425-2.784z" fill="#3c3c3b"/><path d="M100.525 65.625h13.459a.849.849 0 0 1 .845.845h.2a1.054 1.054 0 0 0-1.045-1.06h-13.46l-.066.198z" fill="#fff"/><path d="M72.81 88.582l-.215.199h17.669l.332-.199H72.81z"/><path fill="#fff" d="M72.81 44.624l-.215.315v43.842l.215-.199V44.624zM89.121 102.804H72.595v44.24l.215.331v-44.372h16.609l-.298-.199z"/><path d="M72.446 146.977a56.401 56.401 0 0 1-13.84-9.116l-.034-.033-.199.1.1.099a56.495 56.495 0 0 0 13.89 9.15l.447.198-.199-.331zM145.013 123.987a56.467 56.467 0 0 0-2.254-59.605l-.1-.133-.115.199.033.05a56.226 56.226 0 0 1 2.237 59.39 56.578 56.578 0 0 1-19.509 20.073l-.05.265.15-.1a56.364 56.364 0 0 0 19.608-20.139z" fill="#fff"/><path d="M40.654 86.775A55.624 55.624 0 0 1 56.517 56.11l.182-.182.215-.497-.53.53A55.752 55.752 0 0 0 40.47 86.742l-.066.365.249-.216z"/><path fill="#fff" d="M56.898 55.447l-.216.498v30.946H40.621l-.232.216h16.509v-31.66zM89.717 59.11a10.695 10.695 0 0 0-2.121-3.53 5.045 5.045 0 0 0-3.53-1.376 6.506 6.506 0 0 0-1.658.216l-.2.05.316.132a6.344 6.344 0 0 1 1.558-.182 4.857 4.857 0 0 1 3.398 1.326 10.562 10.562 0 0 1 2.072 3.464 21.401 21.401 0 0 0 4.757 7.21h.298l-.116-.116a21.35 21.35 0 0 1-4.774-7.193z"/><path d="M94.292 66.387a20.903 20.903 0 0 0-4.757 7.21 10.651 10.651 0 0 1-2.072 3.482 4.857 4.857 0 0 1-3.398 1.326 6.583 6.583 0 0 1-1.558-.2l-.315.133.199.05a7.462 7.462 0 0 0 1.657.215 5.045 5.045 0 0 0 3.531-1.375 10.957 10.957 0 0 0 2.122-3.548 20.981 20.981 0 0 1 4.74-7.177l.116-.116z"/><path d="M85.789 67.68c.033 0 .066-.016.116-.016a.246.246 0 0 1-.116.016zM84.247 76.399a.511.511 0 0 1 .166-.017.945.945 0 0 1 .216.017c.066 0 .149.016.215.016a.481.481 0 0 0 .232-.05c1.376-.795 1.823-6.082 1.823-7.806a.778.778 0 0 0-.845-.879h-.05c.448 0 .68.299.68.78v.099c0 1.956-.497 6.928-1.707 7.624-.017.017-.067.017-.133.017a.807.807 0 0 1-.199-.017c-.083 0-.166-.016-.232-.016a.978.978 0 0 0-.232.033 3.643 3.643 0 0 0-1.823 1.89l-.15.265.316-.133.016-.033a3.362 3.362 0 0 1 1.707-1.79zM85.507 56.873a.811.811 0 0 0-.563-.249.058.058 0 0 1 .033.017c1.21.696 1.707 5.669 1.707 7.625 0 .447-.215.68-.63.68a1.898 1.898 0 0 1-1.177-.481 3.315 3.315 0 0 0-2.47-1.045 3.17 3.17 0 0 0-3.315 2.818v.182h.2v-.182a2.956 2.956 0 0 1 3.099-2.619 3.113 3.113 0 0 1 2.32.978 2.09 2.09 0 0 0 1.327.547.786.786 0 0 0 .845-.878c.016-1.558-.348-5.901-1.376-7.393zM84.944 56.608a.586.586 0 0 0-.1-.017c.017.017.05.017.1.017z" fill="#fff"/><path d="M85.507 56.873a1.403 1.403 0 0 0-.414-.414.554.554 0 0 0-.249-.05h-.215a1.095 1.095 0 0 1-.232.016.511.511 0 0 1-.166-.016c-.895-.265-1.426-1.26-1.707-1.79l-.017-.033-.315-.133.15.265a3.58 3.58 0 0 0 1.823 1.89.978.978 0 0 0 .232.033 1.34 1.34 0 0 0 .248-.017h.2c.049 0 .082 0 .099.017a.702.702 0 0 1 .563.232zM79.308 66.752v.033c.016-.016.016-.033 0-.033zM86.004 67.664h-.1c-.032 0-.065.016-.115.016a2.203 2.203 0 0 0-1.077.53 3.119 3.119 0 0 1-2.321.995 3.012 3.012 0 0 1-3.067-2.27 2.992 2.992 0 0 0 1.492 2.12 3.752 3.752 0 0 0 1.575.349 3.315 3.315 0 0 0 2.47-1.044 2.003 2.003 0 0 1 1.193-.497.57.57 0 0 1 .63.58c0-.481-.249-.78-.68-.78zM79.324 66.769c0 .05.017.099.017.149a.459.459 0 0 1-.017-.15zM79.308 66.752a2.346 2.346 0 0 1-.017-.315v.133a.68.68 0 0 1 .017.182z"/><path d="M79.341 66.918a.459.459 0 0 1-.017-.15v-.033c0-.066-.016-.116-.016-.182v-.166h-.216v.183a2.802 2.802 0 0 0 1.74 2.47 2.933 2.933 0 0 1-1.491-2.122z" fill="#fff"/><path d="M114 67.332H100.41l-.034.017a10.642 10.642 0 0 0-6.215 6.912l-.116.364.281-.182.033-.116a10.35 10.35 0 0 1 6.067-6.78H114a1.07 1.07 0 0 0 .564-.165 4.29 4.29 0 0 0 .265-.713.87.87 0 0 1-.829.663z"/><path d="M114.83 66.652a.564.564 0 0 0 .016-.165c0 .05-.017.116-.017.165z" fill="url(#r)"/><path d="M115.045 66.487h-.2a.51.51 0 0 1-.016.165 2.54 2.54 0 0 1-.265.713 1.061 1.061 0 0 0 .48-.878z"/><path d="M115.045 66.487h-.2a.51.51 0 0 1-.016.165 2.54 2.54 0 0 1-.265.713 1.061 1.061 0 0 0 .48-.878z" fill="#fff"/><path d="M120.597 76.399a1.667 1.667 0 0 0-.895-.265H91.706l-.315.199h28.311a1.48 1.48 0 0 1 1.476 1.359 1.527 1.527 0 0 0-.58-1.293z"/><path d="M120.597 76.399a1.556 1.556 0 0 1 .58 1.31l.216.016a1.73 1.73 0 0 0-.796-1.326z" fill="#fff"/><path d="M121.393 80.725a3.513 3.513 0 0 0 1.625-2.95l-.2-.017a3.453 3.453 0 0 1-1.425 2.967z"/><path d="M121.393 80.725a3.513 3.513 0 0 0 1.625-2.95l-.2-.017a3.453 3.453 0 0 1-1.425 2.967z" fill="#fff"/><path d="M104.702 96.87a.412.412 0 0 0 .016.132c0-.033-.016-.083-.016-.132zM104.735 97.052c.016.033.016.083.033.116a.422.422 0 0 1-.033-.116z"/><path d="M104.768 97.168a.39.39 0 0 1-.033-.133v-.033a.412.412 0 0 1-.017-.132h-.199a.959.959 0 0 0 .945.961h.663c-.895 0-1.243-.365-1.36-.663z" fill="#fff"/><path d="M105.928 81.222h13.808a3.085 3.085 0 0 0 1.657-.497 3.443 3.443 0 0 0 1.426-2.95 3.235 3.235 0 0 1-3.083 3.248h-13.808a16.072 16.072 0 0 0-16.045 16.062 15.752 15.752 0 0 0 1.492 6.73 16.27 16.27 0 0 1 14.553-22.593z"/><path d="M122.388 114.009c0-.05.016-.083.016-.116 0 .033-.016.083-.016.116z" fill="#fff"/><path d="M122.371 114.058c0-.016.017-.033.017-.05a.06.06 0 0 1-.017.05z" fill="#e30613"/><path d="M121.658 112.931h-15.713a15.868 15.868 0 0 1-15.846-15.846 15.675 15.675 0 0 0 1.276 6.73 16.53 16.53 0 0 0 1.31 2.304 16.067 16.067 0 0 0 13.26 7.011h15.713a.743.743 0 0 1 .746.746.324.324 0 0 1-.016.116.06.06 0 0 1-.017.05c-.066.282-.249.73-.613.762a.939.939 0 0 0-.1-1.873z" fill="#fff"/><path d="M121.658 114.622h-16.343c-6.183 0-11.603 5.553-11.603 11.868a11.642 11.642 0 0 0 1.077 4.89 11.779 11.779 0 0 1-.862-4.824v-.05c0-6.215 5.321-11.652 11.388-11.652h16.343a.282.282 0 0 0 .116-.017c.365-.033.547-.464.614-.762a.766.766 0 0 1-.73.547z"/><path d="M99.68 114.191a13.676 13.676 0 0 0-6.399 6.713 11.225 11.225 0 0 0-.961 5.652 13.478 13.478 0 0 1 7.442-12.183l1.044-.53-.547.033z" fill="#fff"/><path d="M112.824 140.099a3.735 3.735 0 0 0-1.293-.249h-6.448a13.411 13.411 0 0 1-12.564-10.592 12.609 12.609 0 0 1-.299-2.751 11.387 11.387 0 0 1 1.044-5.636 13.34 13.34 0 0 0-1.26 5.636 13.644 13.644 0 0 0 13.294 13.575h6.216a3.506 3.506 0 0 1 1.956.613 3.664 3.664 0 0 1 1.575 2.487 3.77 3.77 0 0 1 .033.43v-.032a3.91 3.91 0 0 0-2.254-3.481z"/><path d="M112.824 140.099a3.936 3.936 0 0 1 2.27 3.447v.116c0 1.658-1.292 3.332-3.829 4.99l-.082.05A22.33 22.33 0 0 1 100.558 152h-.133a52.726 52.726 0 0 1-4.36.166 55.762 55.762 0 0 1-21.498-4.26l-.066-.033-.199.132.199.083a56.107 56.107 0 0 0 21.565 4.276c1.508 0 2.983-.05 4.376-.165h.132a22.381 22.381 0 0 0 10.725-3.332l.083-.05c2.602-1.69 3.928-3.43 3.928-5.171a3.872 3.872 0 0 0-2.486-3.547z" fill="#fff"/><path d="M89.933 104.76a17.943 17.943 0 0 0 10.21 9.116l.232.083.547-.033-.712-.249a17.75 17.75 0 0 1-10.095-9l-.083-.183-.132.2z"/><path d="M74.501 104.71h15.415l.116-.216h-15.73v43.528l.199-.133V104.71z"/><path d="M136.079 104.776a16.299 16.299 0 0 1 1.856 6.879 13.495 13.495 0 0 0-1.856-6.879z" fill="none"/><path d="M126.266 96.455a25.562 25.562 0 0 0 16.128-31.858l-.033-.132h.2l.115-.2h-.597l.116.398a25.37 25.37 0 0 1-16.012 31.593l-.928.315.68-.016zM125.272 96.571l.414.116-.414-.116z"/><path d="M126.266 96.654l-.315-.1-.68.017.399.116.53.166a16.029 16.029 0 0 1 7.907 5.337 14.542 14.542 0 0 1 1.955 2.586 16.354 16.354 0 0 0-9.796-8.122z" fill="#fff"/><path d="M137.952 112.351c0-.232 0-.464-.017-.696.017.282.017.53.017.696zM126.432 138.209a10.975 10.975 0 0 1-1.077 4.757l-.415.862.332.398.05-.265-.133-.15.348-.745a11.29 11.29 0 0 0 0-9.697 17.526 17.526 0 0 0-1.426-1.923 10.785 10.785 0 0 1 2.321 6.763z"/><path d="M137.952 112.351c-.017-.166-.017-.414-.017-.696a16.298 16.298 0 0 0-1.856-6.879 14.542 14.542 0 0 0-1.956-2.586 16.154 16.154 0 0 1-12.266 26.355h-.298l.199.2h.1a16.467 16.467 0 0 0 16.094-16.394z"/><path d="M121.542 128.993a4.731 4.731 0 0 1 .663.48 11.197 11.197 0 0 1 1.923 1.94 19.956 19.956 0 0 1 1.426 1.923 11.313 11.313 0 0 0-3.398-4.177l-.349-.249-.05-.033v-.15l-.198-.198v.464zM105.464 138.143h-.15a11.682 11.682 0 0 1-11.387-11.603 11.358 11.358 0 0 0 11.388 11.818h5.287a7.443 7.443 0 0 1-2.32-.199h-2.818zM112.674 138.507a5.692 5.692 0 0 0-.928-.132 5.213 5.213 0 0 1 .928.132zM111.017 138.358h.248a3.466 3.466 0 0 1 .415.017h-.133z" fill="#fff"/><path d="M117 143.563a5.561 5.561 0 0 0-5.47-5.404l-.513-.016h-2.735a7.538 7.538 0 0 0 2.32.199h.415l.514.016h.215a4.323 4.323 0 0 1 .928.133 5.693 5.693 0 0 1 4.327 5.072z" fill="#fff"/><path d="M117 143.662v-.1c-.066-.762-.729-4.309-4.326-5.055a5.389 5.389 0 0 1 4.128 5.155 5.943 5.943 0 0 1-3.034 5.006l-.165.1.265.082a6.131 6.131 0 0 0 3.133-5.188z"/><path fill="#fff" d="M113.868 148.85l-.265-.082.248.513.1-.248-.083-.183zM124.741 138.209a9.31 9.31 0 0 1-2.884 6.78 8.113 8.113 0 0 1-1.193 1.06 22.53 22.53 0 0 1-2.022 1.16c-1.525.68-3.1 1.293-4.675 1.824l-.116.248.183-.066a51.923 51.923 0 0 0 4.69-1.84c.763-.398 1.426-.779 2.056-1.177a7.246 7.246 0 0 0 1.243-1.094 9.23 9.23 0 0 0 .564-12.928 9.542 9.542 0 0 1 2.154 6.033z"/><path d="M105.199 128.761h10.16a9.856 9.856 0 0 1 9.598 9.431 9.671 9.671 0 0 0-9.398-9.647H104.9a.747.747 0 0 1-.762-.745c.017.331.083.961 1.06.961z"/><path d="M136.295 112.351v-.248a1.247 1.247 0 0 0 0 .248z" fill="none"/><path d="M133.742 104.461a14.5 14.5 0 0 1-12.167 22.394H104.9a.961.961 0 1 0 .017 1.923h.282c-.978 0-1.044-.647-1.044-.962a.743.743 0 0 1 .745-.746h16.675a14.725 14.725 0 0 0 14.72-14.702v-.249a15.665 15.665 0 0 0-2.553-7.658z" fill="#fff"/><path d="M121.675 97.632l-.083-.016h-16.145a.746.746 0 0 1-.68-.448c.117.298.465.663 1.36.663h15.448l.1.017a14.532 14.532 0 0 1 12.067 6.613 15.438 15.438 0 0 1 2.536 7.642 14.763 14.763 0 0 0-14.603-14.47z"/><path d="M140.405 64.614c.05.132.1.281.15.414-.05-.133-.1-.265-.15-.414zM141.682 72.272a23.677 23.677 0 0 1-23.654 23.653h-12.58a.944.944 0 0 0-.945.945h.199a.743.743 0 0 1 .745-.746h12.581a23.286 23.286 0 0 0 22.543-31.046 23.652 23.652 0 0 1 1.11 7.194z" fill="#fff"/><path d="M140.571 65.094c0-.016-.017-.033-.017-.05a.06.06 0 0 0 .017.05z"/><path d="M126.15 49.812l-.414-.133.166.265.182.067a23.725 23.725 0 0 1 14.321 14.603 4 4 0 0 1 .133.414c0 .017.016.033.016.05a23.772 23.772 0 0 1 1.326 7.177 23.912 23.912 0 0 0-15.73-22.443z"/><path d="M94.939 59.376c-.017-.05-.05-.1-.067-.15l.067.15z" fill="none"/><path d="M125.736 49.68l-.066.364a4.936 4.936 0 0 1-4.89 4.127l-6.978.017a5.659 5.659 0 0 0-3.912 1.243 6.803 6.803 0 0 0-1.376 1.724c-.68 1.094-1.16 1.89-3.68 1.89H94.541l.182.43a14.15 14.15 0 0 0 5.686 6.15l.033.016a15.196 15.196 0 0 1-5.52-6.249l-.066-.149h9.978c2.636 0 3.183-.878 3.862-1.972a6.721 6.721 0 0 1 1.326-1.674 5.522 5.522 0 0 1 3.78-1.177l6.978-.017a5.163 5.163 0 0 0 5.105-4.31l.017-.115z"/><path d="M100.508 65.41a14.035 14.035 0 0 1-5.57-6.034 15.314 15.314 0 0 0 5.52 6.249l.067-.2z" fill="#fff"/><path d="M58.472 53.972l-.099.1.199.1.033-.034a56.727 56.727 0 0 1 13.84-9.117l.15-.066.199-.331-.448.199a57.193 57.193 0 0 0-13.874 9.15zM58.373 137.927l.215-.083v-35.04l-.215.199v34.924z"/><path d="M58.588 54.155l-.215-.1v34.527h-18.2l.182.199h18.233V54.155z"/><path d="M40.123 88.847a57.185 57.185 0 0 0-.05 13.874l.034.282h18.266l.199-.2H40.306l-.017-.099a56.912 56.912 0 0 1 .05-13.84l.016-.083-.182-.2zM56.533 135.888a55.766 55.766 0 0 1-15.929-31.062l-.017-.116-.248-.199.05.365a55.92 55.92 0 0 0 15.995 31.178l.53.53-.199-.497z" fill="#fff"/><path d="M40.322 104.494l.232.216h16.128l.216-.216H40.322z"/><path fill="#e30613" d="M56.898 136.551v-.033l-.216-.464.216.497z"/><path fill="#fff" d="M56.682 104.71v31.344l.216.464v-32.024l-.216.216z"/><path d="M131.62 49.447a37.916 37.916 0 0 0-3.895-2.718 60.606 60.606 0 0 1 3.962 2.784z" fill="url(#s)"/><path d="M56.964 139.568c-.083-.083-.166-.149-.249-.232a1.703 1.703 0 0 0 .25.232z" fill="none"/><path d="M56.898 139.651a69.131 69.131 0 0 0 6.365 4.724 58.464 58.464 0 0 1 59.29-100.514v-.016a40.38 40.38 0 0 1 5.222 2.784 58.648 58.648 0 0 0-71.142 92.757l.016.016c.083.1.166.166.249.25z" fill="#fff"/><path d="M74.402 150.193c.298.116.596.232.878.348a16.224 16.224 0 0 0-.878-.348z" fill="#e30613"/><path d="M131.736 49.447a60.81 60.81 0 0 0-3.961-2.801 40.382 40.382 0 0 0-5.222-2.785v.017a58.459 58.459 0 0 1-47.29 106.746l-.895-.348a.24.24 0 0 0-.116-.033 46.633 46.633 0 0 1-8.055-3.995 54.802 54.802 0 0 1-2.934-1.873 72.408 72.408 0 0 1-6.365-4.724 58.65 58.65 0 1 0 74.838-90.204z"/><path d="M56.699 139.336l.016.017z" fill="#e30613"/><path d="M40.687 96.505a57.945 57.945 0 0 1 .447-7.227h18.117V54.702a65.797 65.797 0 0 1 13.244-8.819v-.779a56.014 56.014 0 0 0-13.807 9.1v34.693h-18.25a56.64 56.64 0 0 0-.05 13.807h.63a59.017 59.017 0 0 1-.331-6.199zM73.523 89.278h16.36l.199-.398H72.495zM59.252 138.292v-35.107l-.564-.497v35.107a56.486 56.486 0 0 0 13.807 9.1 72.877 72.877 0 0 1-13.244-8.603z" fill="#646363"/><path d="M95.27 66.42a20.906 20.906 0 0 1-4.724-7.144 10.89 10.89 0 0 0-2.138-3.563 5.119 5.119 0 0 0-2.337-1.26 4.867 4.867 0 0 1 1.624 1.044 10.89 10.89 0 0 1 2.138 3.564 20.906 20.906 0 0 0 4.724 7.144l.2.199-.2.182a20.907 20.907 0 0 0-4.724 7.144 11.157 11.157 0 0 1-2.138 3.58 5.201 5.201 0 0 1-3.613 1.41 6.785 6.785 0 0 1-1.26-.133l-.033.066.331.083a7.604 7.604 0 0 0 1.674.216 5.1 5.1 0 0 0 3.614-1.41 11.158 11.158 0 0 0 2.138-3.58 20.906 20.906 0 0 1 4.724-7.144l.199-.199z" fill="#4d4d4c"/><path d="M154.693 98.345c-.016.298-.033.597-.033.895 0-.282.017-.597.033-.895z" fill="none"/><path d="M37.388 95.991c0-.48 0-.945.017-1.425-.017.48-.017.961-.017 1.425z" fill="#ffe500"/><path d="M37.952 98.18q-.05-1.095-.05-2.189a58.151 58.151 0 0 1 116.095-4.857 60.572 60.572 0 0 0-9.332-28.31 59.658 59.658 0 0 0-2.751-3.713 58.85 58.85 0 0 0-94.431 70.114c-5.32-7.973-8.901-18.73-9.481-30.002-.017-.298-.033-.596-.033-.895zm116.227-3.797c-.016-.58-.05-1.16-.082-1.74.05.58.082 1.16.082 1.74z" fill="#160333"/><path d="M88.093 97.085a17.89 17.89 0 0 1 1.989-8.188H72.495V45.104a56.014 56.014 0 0 0-13.807 9.1v34.693h-18.25a56.64 56.64 0 0 0-.05 13.807h18.3v35.107a56.486 56.486 0 0 0 13.807 9.1v-44.223h16.493a17.867 17.867 0 0 1-.895-5.603z" fill="url(#t)"/><path d="M121.575 97.947a14.404 14.404 0 1 1 0 28.808H104.9a1.06 1.06 0 1 0 .017 2.122h10.41a9.32 9.32 0 0 1 6.464 16.045 7.428 7.428 0 0 1-1.177 1.028 22.951 22.951 0 0 1-2.022 1.144 56.867 56.867 0 0 1-4.674 1.823 6.158 6.158 0 0 0 3.182-5.271 5.646 5.646 0 0 0-5.586-5.603l-.514-.016h-5.702a11.575 11.575 0 0 1-11.288-11.553c0-6.117 5.188-11.554 11.288-11.554h16.344a1.054 1.054 0 0 0 1.06-1.044 1.068 1.068 0 0 0-1.06-1.06h-15.714a15.747 15.747 0 0 1 0-31.494h13.808a3.567 3.567 0 0 0 3.398-3.597 3.403 3.403 0 0 0-3.398-3.398H94.458c1.79-5.437 6-6.713 6-6.713H114a1.16 1.16 0 0 0 0-2.32h-13.442a13.852 13.852 0 0 1-5.52-5.984h9.813c3.978 0 3.315-1.99 5.254-3.68a5.286 5.286 0 0 1 3.697-1.16l6.978-.017a5.277 5.277 0 0 0 5.205-4.393l.066.017a23.563 23.563 0 0 1-8.023 45.715h-12.58a1.06 1.06 0 0 0 0 2.122l16.127.033" fill="url(#u)"/><path d="M105.928 82.582h13.808a3.567 3.567 0 0 0 3.398-3.597 2.713 2.713 0 0 0-.067-.63 3.547 3.547 0 0 1-3.331 2.967h-13.808a15.75 15.75 0 0 0-15.747 15.747c0 .215 0 .414.017.63a15.778 15.778 0 0 1 15.73-15.117zM104.85 60.586c3.979 0 3.316-1.99 5.255-3.68a5.286 5.286 0 0 1 3.697-1.16l6.978-.017a5.277 5.277 0 0 0 5.205-4.392l.066.016a23.585 23.585 0 0 1 15.531 21.449c0-.182.017-.365.017-.547a23.585 23.585 0 0 0-15.532-22.161l-.066-.017a5.277 5.277 0 0 1-5.205 4.392l-6.978.017a5.286 5.286 0 0 0-3.696 1.16c-1.94 1.691-1.277 3.68-5.255 3.68h-9.812a10.07 10.07 0 0 0 .663 1.26zM117.067 144.292a6.237 6.237 0 0 1-3.15 4.641 35.117 35.117 0 0 0 2.205-.812 5.641 5.641 0 0 0 .978-3.215 2.586 2.586 0 0 0-.033-.614zM100.458 68.526h12.93a1.884 1.884 0 0 0 1.756-2.04 1.198 1.198 0 0 1-1.16 1.161h-13.542s-4.227 1.26-6 6.713h.48a11.19 11.19 0 0 1 5.536-5.834zM121.575 97.947l-16.128-.016a1.068 1.068 0 0 1-1.06-1.078c0 1.757.663 2.122 1.674 2.122h15.498v.016a14.587 14.587 0 0 1 14.387 14.007c.017-.216.017-.415.017-.63a14.382 14.382 0 0 0-14.388-14.42zM115.31 128.877H104.9a1.03 1.03 0 0 1-.861-.431 1.053 1.053 0 0 0 .861 1.69h10.41a9.32 9.32 0 0 1 9.299 8.703c.016-.216.016-.415.016-.63a9.306 9.306 0 0 0-9.315-9.332zM120.664 115.965a1.826 1.826 0 0 0 2.039-2.072 1.046 1.046 0 0 1-1.061 1.044h-16.344c-6.1 0-11.288 5.437-11.288 11.553 0 .216 0 .431.017.63.331-5.868 5.37-11.155 11.271-11.155z" fill="#575756"/><path d="M56.6 135.806v-30.997H40.702A55.963 55.963 0 0 0 56.6 135.806z" fill="url(#c)"/><path d="M143.173 65.592c-.215-.348-.447-.68-.68-1.028a25.695 25.695 0 0 1-16.177 31.99c15.084-.695 23.106-16.276 16.857-30.962z" fill="url(#v)"/><path d="M136.228 104.81a16.498 16.498 0 0 1-14.387 24.034l.265.182c15.564.73 20.819-13.641 14.122-24.217z" fill="url(#w)"/><path d="M105.133 141.673h7.492c1.856 0 2.138 3.647 1.326 4.46a1.257 1.257 0 0 0-.232.364 4.33 4.33 0 0 0 1.276-2.835 3.535 3.535 0 0 0-3.464-3.497h-6.216a13.72 13.72 0 0 1-13.393-13.675c-.017 7.31 3.746 15.183 13.21 15.183z" fill="url(#x)"/><path d="M89.916 104.942c0 4.194 4.691 8.818 10.144 9a17.939 17.939 0 0 1-10.21-9.133h-.05z" fill="url(#y)"/><path fill="url(#z)" d="M91.126 107.412H74.302v-2.918h15.614l1.21 2.918z"/><path d="M56.583 86.792V56.193a55.816 55.816 0 0 0-15.83 30.599z" fill="url(#A)"/><path d="M93.613 77.708h27.465a1.37 1.37 0 0 0-1.359-1.26H91.242a2.772 2.772 0 0 0 2.37 1.26z" fill="url(#B)"/><path d="M98.22 66.503l-.298-.248a20.945 20.945 0 0 1-6.033-8.702c-.05-.116-.1-.233-.15-.332-.165 2.702 2.305 8.47 6.482 9.282z" fill="url(#C)"/><path d="M122.653 37.612a13.108 13.108 0 0 1-4.393-.795c-5.42-1.956-8.287-6.515-6.796-10.84 1.061-3.05 3.912-4.857 7.625-4.857a12.828 12.828 0 0 1 4.326.779 11.716 11.716 0 0 1 5.868 4.342 7.187 7.187 0 0 1 .945 6.481c-1.044 3.05-3.879 4.89-7.575 4.89zm-3.067-12.315a3.474 3.474 0 0 0-3.596 2.304c-.746 2.171.663 4.276 3.613 5.337a7.582 7.582 0 0 0 2.52.48 3.473 3.473 0 0 0 3.596-2.303c.746-2.172-.68-4.26-3.63-5.321a7 7 0 0 0-2.503-.497z" fill="#999"/><path d="M129.051 26.407a11.456 11.456 0 0 0-5.719-4.21 12.252 12.252 0 0 0-4.226-.763c-3.58 0-6.332 1.74-7.343 4.658-1.442 4.16 1.342 8.553 6.597 10.443a12.917 12.917 0 0 0 4.276.779c3.547 0 6.282-1.757 7.293-4.691a6.815 6.815 0 0 0-.878-6.216zm-3.033 4.79a3.775 3.775 0 0 1-3.896 2.52 7.844 7.844 0 0 1-2.635-.497c-3.116-1.127-4.608-3.365-3.796-5.719a3.755 3.755 0 0 1 3.879-2.503 7.681 7.681 0 0 1 2.619.497c3.15 1.111 4.64 3.365 3.829 5.702z" fill="#333"/><path d="M143.92 53.624l5.105-6.912-9.216 2.155-.53-.497 1.21-9.581-6.134 5.917-3.464-3.232 9.183-8.917a2.18 2.18 0 0 0 .547-1.41l.05-1.01 4.64 4.326-1.044 8.868 8.503-1.906 3.664 3.414-9.1 12z" fill="#999"/><path d="M152.704 41.773l-8.785 1.972 1.078-9.15-4.045-3.762-.016.348a2.545 2.545 0 0 1-.647 1.608l-8.95 8.702 3.016 2.801 6.548-6.315-1.31 10.293.298.265 9.88-2.32-5.437 7.36 3 2.784 8.718-11.503z" fill="#333"/><path d="M87.612 19.462a2.63 2.63 0 0 0-.563-1.293l-.63-.762 13.078-.116a5.504 5.504 0 0 1 5.834 5.718 5.08 5.08 0 0 1-2.569 4.724l-.05.033 3.365 4.476-5.37.05-2.752-3.912-5.569.05.033 3.895-4.69.05zm4.74 5.039l6.78-.066a1.447 1.447 0 0 0 1.542-1.608 1.486 1.486 0 0 0-1.525-1.641l-6.813.066z" fill="#999" opacity=".4" style="isolation:isolate"/><path d="M102.596 27.435A4.76 4.76 0 0 0 105 22.993a5.2 5.2 0 0 0-5.52-5.404l-12.431.1.215.265a3.053 3.053 0 0 1 .647 1.491l.116 12.598 4.06-.033-.033-3.896 6.034-.05 2.751 3.88 4.575-.034-3.215-4.26zm-3.464-2.669l-7.094.066-.017-3.878 7.144-.067a1.799 1.799 0 0 1 1.84 1.956 1.78 1.78 0 0 1-1.873 1.923z" fill="#333"/><path d="M35.15 49.281a2.648 2.648 0 0 0-1.325-.464l-.995-.066 11.901-12.912 2.802 2.685-7.857 8.52 1.84 1.757 5.453-5.918 2.801 2.685-5.453 5.918 3.265 3.133-3.215 3.48z" fill="#999"/><path d="M46.986 43.33l-5.454 5.918-2.287-2.188 7.857-8.52-2.354-2.254-11.238 12.2.348.016a2.934 2.934 0 0 1 1.492.53l.033.034 8.984 8.62 2.784-3.034-3.265-3.133 5.453-5.917z" fill="#333"/><path d="M54.378 31.247v-.033a1.375 1.375 0 0 0-.68-.912l-.762-.414 5.686-3.249 14.089 9.1-4.194 2.42-2.37-1.525-7.376 4.244.083 2.85-4.227 2.42zm4.293 5.188l3.813-2.188-3.945-2.552z" fill="#999"/><path d="M53.566 29.871l.265.15a1.712 1.712 0 0 1 .846 1.16v.066l.248 14.371 3.597-2.072-.083-2.85 7.708-4.426 2.37 1.525 3.58-2.056-13.508-8.735zm4.807 7.095l-.15-5.851 4.857 3.149z" fill="#333"/><path d="M19.387 87.886l-.033-.017a1.376 1.376 0 0 0-.646-.149 1.436 1.436 0 0 0-.53.1l-.78.348 1.011-6.465 15.896-5.337-.729 4.773-2.669.896-1.276 8.403 2.27 1.708-.728 4.807zm6.713-.15l.663-4.342-4.442 1.492z" fill="#999"/><path d="M18.061 87.521a1.802 1.802 0 0 1 .647-.133 1.73 1.73 0 0 1 .812.2l.05.033 11.387 8.751.63-4.11-2.27-1.708 1.342-8.785 2.668-.895.63-4.094-15.25 5.122-.894 5.719zm9.084-4.575l-.812 5.354-4.658-3.53z" fill="#333"/><path d="M149.373 60.238l11.039-5.984a2.557 2.557 0 0 0 1.011-1.16l.398-.912 8.105 15.581-3.398 1.84-5.387-10.343-1.342.73 3.746 7.176-3.398 1.84-3.73-7.194-1.442.796 5.62 10.807-3.399 1.84z" fill="#999"/><path d="M154.544 62.492l1.99-1.094 3.729 7.194 2.85-1.542-3.745-7.177 1.89-1.028 5.386 10.327 2.851-1.542-7.674-14.735-.133.315a2.845 2.845 0 0 1-1.144 1.31l-10.774 5.85 7.542 14.487 2.851-1.541z" fill="#333"/><path d="M167.224 96.837c-3.994 0-7.26-3.531-8.138-8.802-.962-5.785 1.558-10.542 5.984-11.305a7.2 7.2 0 0 1 1.176-.099c3.929 0 7.277 3.613 8.139 8.785.961 5.801-1.541 10.559-5.967 11.338a9.199 9.199 0 0 1-1.194.083zm-.745-15.35a3.287 3.287 0 0 0-.58.05c-2.238.382-3.332 2.669-2.818 5.818.48 2.851 1.989 4.625 3.945 4.625a3.478 3.478 0 0 0 .596-.05c2.221-.381 3.315-2.669 2.802-5.834-.481-2.802-2.023-4.608-3.945-4.608z" fill="#999"/><path d="M166.263 76.93a6.768 6.768 0 0 0-1.127.099c-4.26.73-6.663 5.337-5.735 10.956.862 5.105 3.994 8.537 7.823 8.537a6.665 6.665 0 0 0 1.144-.1c4.243-.73 6.647-5.354 5.719-10.973-.846-5.006-4.061-8.52-7.824-8.52zm1.409 15.299a4.087 4.087 0 0 1-.646.05c-2.122 0-3.747-1.874-4.26-4.89-.547-3.332.646-5.752 3.066-6.167a3.938 3.938 0 0 1 .647-.05c2.088 0 3.746 1.907 4.243 4.874.547 3.332-.647 5.768-3.05 6.183z" fill="#333"/><path d="M23.995 68.244a2.269 2.269 0 0 0-.895-.166 2.023 2.023 0 0 0-.563.066l-.978.216 2.685-5.37 9.796 5.138 4.79-9.515 3.465 1.807-6.929 13.79z" fill="#999"/><path d="M22.122 67.912l.332-.083a2.67 2.67 0 0 1 .646-.066 2.418 2.418 0 0 1 1.028.199l11.106 5.818 6.646-13.227-2.917-1.525-4.79 9.53-9.796-5.138z" fill="#858585"/><path d="M38.963 59.028l-4.79 9.53-9.796-5.138-2.255 4.492.332-.083a2.67 2.67 0 0 1 .646-.066 2.418 2.418 0 0 1 1.028.199l11.106 5.818 6.646-13.227z" fill="#333"/><path fill="none" d="M63.379 34.214l-5.338-3.464.166 6.431 5.172-2.967zM122.255 25.28a7.951 7.951 0 0 0-2.669-.497 3.9 3.9 0 0 0-4.027 2.619c-.846 2.453.68 4.773 3.895 5.934a8.082 8.082 0 0 0 2.685.514 3.932 3.932 0 0 0 4.044-2.636c.846-2.453-.696-4.79-3.928-5.934zM26.449 88.549l.895-5.901-6.034 2.022 5.139 3.879z"/><path d="M122.653 36.717a11.968 11.968 0 0 1-4.11-.762c-4.974-1.79-7.609-5.901-6.283-9.763a.589.589 0 0 1 .066-.15 6.757 6.757 0 0 1 .15-1.143 6.938 6.938 0 0 0-.548 1.177c-1.408 4.077 1.327 8.37 6.498 10.227a12.492 12.492 0 0 0 4.227.779c3.48 0 6.15-1.708 7.144-4.575a7.914 7.914 0 0 0 .215-.78 6.183 6.183 0 0 1-.68.946c-.994 2.536-3.463 4.044-6.68 4.044z" fill="#fff"/><path d="M126.183 31.197a3.932 3.932 0 0 1-4.044 2.636 7.685 7.685 0 0 1-2.685-.514c-3.216-1.16-4.74-3.48-3.895-5.934a3.364 3.364 0 0 1 .182-.43 4.264 4.264 0 0 1 .033-.796 4.659 4.659 0 0 0-.564 1.11c-.928 2.652.697 5.172 4.111 6.398a8.288 8.288 0 0 0 2.818.53 4.287 4.287 0 0 0 4.591-3.745 3.496 3.496 0 0 1-.513.596c-.017.05-.017.1-.034.15z" fill="#fff"/><path d="M126.764 29.656c-.1-2.006-1.675-3.763-4.376-4.724a8.165 8.165 0 0 0-2.802-.514 4.694 4.694 0 0 0-3.315 1.16 6.05 6.05 0 0 0-.514.597 4.263 4.263 0 0 0-.033.796 3.783 3.783 0 0 1 3.846-2.172 7.952 7.952 0 0 1 2.668.498c2.835 1.01 4.36 2.933 4.128 5.039a4.018 4.018 0 0 1-.166.746 6.05 6.05 0 0 0 .514-.597 3.586 3.586 0 0 0 .05-.83z" fill="gray"/><path d="M128.918 26.44a11.415 11.415 0 0 0-5.635-4.16 12.428 12.428 0 0 0-4.16-.763 7.7 7.7 0 0 0-5.968 2.437 6.266 6.266 0 0 0-.663.928 6.757 6.757 0 0 0-.15 1.144 6.315 6.315 0 0 1 .482-1.011 7.007 7.007 0 0 1 6.282-3.133 12.133 12.133 0 0 1 4.044.73 10.941 10.941 0 0 1 5.454 4.01 6.396 6.396 0 0 1 1.06 4.94 7.082 7.082 0 0 1-.215.796c-.033.1-.066.182-.1.282a7.57 7.57 0 0 0 .68-.945 6.758 6.758 0 0 0 .15-1.144 7.123 7.123 0 0 0-1.26-4.11z" fill="gray"/><path d="M18.46 86.825a1.426 1.426 0 0 1 .264-.017 2.176 2.176 0 0 1 1.078.282h.016l.033.017.034.016 10.707 8.238.448-2.917-2.105-1.575-.182-.132.033-.216 1.359-8.967.033-.216.216-.066 2.453-.829.447-2.917-14.122 4.74zm2.734-2.503l6.034-2.022.563-.183-.083.597-.895 5.884-.1.614-.48-.365-5.138-3.879-.547-.414zm33.367-54.467a2.148 2.148 0 0 1 .63 1.21v.083l.232 13.509 2.552-1.459-.083-2.635v-.216l.183-.116 7.873-4.525.199-.116.182.116 2.172 1.409 2.552-1.475-12.498-8.09zm9.514 4.376l-.514.298-5.171 2.967-.53.299-.017-.614-.166-6.431-.017-.696.58.381 5.338 3.464zM34.571 68.89l-.166.33-.332-.165L24.61 64.1l-1.558 3.1h.05a3.076 3.076 0 0 1 1.276.265l10.625 5.57 6.182-12.283-1.989-1.045zm14.022-23.34l-1.59-1.524-5.206 5.652-.248.282-.265-.265-2.52-2.42-.265-.249.249-.265 7.608-8.271-1.592-1.525-10.193 11.072a3.289 3.289 0 0 1 1.11.53h.017l.016.017.017.017 8.603 8.254 2.071-2.254-3-2.884-.265-.249.249-.265zm124.963 39.931c-.795-4.757-3.796-8.089-7.31-8.089a7.355 7.355 0 0 0-1.027.083c-3.962.68-6.183 5.04-5.304 10.343.812 4.84 3.746 8.106 7.31 8.106a5.44 5.44 0 0 0 1.044-.1c3.945-.646 6.182-5.005 5.287-10.343zm-5.801 7.21a3.783 3.783 0 0 1-.746.067c-2.403 0-4.227-2.039-4.774-5.337-.597-3.63.78-6.3 3.514-6.78a5.184 5.184 0 0 1 .73-.066c2.353 0 4.226 2.088 4.757 5.304.613 3.68-.746 6.349-3.481 6.813zm-65.556-65.688a4.218 4.218 0 0 0 2.287-4.061 4.596 4.596 0 0 0-4.973-4.873l-11.072.1h-.348a3.463 3.463 0 0 1 .365 1.226v.033l.099 12.05 3.017-.033-.033-3.547v-.365h.364l6.282-.05h.2l.115.15 2.636 3.73 3.265-.034-2.718-3.597-.265-.364.397-.2zm-3.05-1.774l-7.26.067h-.365v-.365l-.033-4.194v-.364h.365l7.31-.067a2.325 2.325 0 0 1 2.37 2.47 2.28 2.28 0 0 1-2.387 2.453zm54.682 36.98l.315-.165 2.288-1.244.331-.182.166.332 3.564 6.845 1.923-1.044-3.58-6.862-.167-.315.315-.166 2.172-1.177.331-.182.166.331 5.205 10.012 1.923-1.044-6.962-13.377a3.138 3.138 0 0 1-1.028.945l-10.31 5.603 7.045 13.542 1.922-1.044-5.453-10.493zm-30.68-39.582a12.133 12.133 0 0 0-4.045-.73c-3.349 0-5.901 1.608-6.846 4.31-1.343 3.879 1.293 7.99 6.282 9.763a12.225 12.225 0 0 0 4.11.763c3.333 0 5.869-1.625 6.797-4.327a6.38 6.38 0 0 0-.845-5.751 10.87 10.87 0 0 0-5.454-4.028zm3.38 8.685a4.284 4.284 0 0 1-4.392 2.885 8.436 8.436 0 0 1-2.818-.53c-3.414-1.227-5.039-3.747-4.11-6.399a4.244 4.244 0 0 1 4.375-2.85 8.657 8.657 0 0 1 2.802.513c3.43 1.227 5.055 3.73 4.144 6.381zm26.024 10.973l-8.735 1.956-.497.116.066-.513 1.06-9.117-3.099-2.868a2.742 2.742 0 0 1-.696 1.26l-8.553 8.305 2.238 2.088 6.514-6.299.746-.712-.133 1.027-1.31 10.36 9.896-2.32.962-.233-.597.796-5.42 7.343 2.22 2.072 8.073-10.658z" fill="url(#D)"/><path fill="#fff" d="M31.405 92.295l-.199.083-.199.083-.448 2.9.133.332.149.348.564-3.746z"/><path fill="#ccc" d="M28.902 90.869l2.105 1.575v.017l.199-.083.199-.083-2.288-1.707-.381.149.166.132z"/><path fill="#fff" d="M30.161 81.322l-.033.232-1.359 8.967-.033.216.381-.149 1.376-8.984-.332-.282z"/><path fill="#ccc" d="M30.377 81.256l-.216.066.332.282 2.652-.895-.315-.282v.016l-2.453.813z"/><path fill="#fff" d="M33.162 80.709l.563-3.73-.464.547h.017l-.448 2.901.315.282h.017zM41.665 60.569l-.481.149v.017l-6.182 12.266.165.514 6.498-12.946z"/><path fill="#ccc" d="M41.665 60.569l-2.619-1.375.149.497 1.989 1.027.481-.149z"/><path fill="gray" d="M39.046 59.194l-4.79 9.53.149.498.166-.332 4.624-9.199-.149-.497z"/><path fill="#ccc" d="M34.073 69.039l.332.183-.149-.498-9.797-5.138.15.497 9.464 4.956zM35.002 73l-10.625-5.552a3.134 3.134 0 0 0-1.277-.265h-.05l-.63.447a2.784 2.784 0 0 1 .68-.082 2.683 2.683 0 0 1 1.127.232l10.94 5.718z"/><path fill="gray" d="M24.609 64.083l-.15-.497-2.038 4.044.63-.447 1.558-3.1z"/><path d="M18.708 87.19a1.8 1.8 0 0 1 .895.232l.016.016 11.189 8.603-.133-.332-.132-.331-10.708-8.238-.033-.017-.033-.016h-.017a2.176 2.176 0 0 0-1.077-.282 1.426 1.426 0 0 0-.266.017l-.447.497a1.763 1.763 0 0 1 .746-.15zM33.725 76.979L18.84 81.985l.315.282 14.106-4.741.464-.547z" fill="#ccc"/><path fill="gray" d="M18.012 87.322l.447-.497.696-4.558-.315-.282-.828 5.337z"/><path fill="#fff" d="M46.405 54.619l-2.071 2.237.016.531 2.569-2.785-.514.017z"/><path fill="#ccc" d="M43.14 51.486l.265.249 3 2.884.514-.017-3.265-3.133-.514.017z"/><path fill="#fff" d="M49.107 45.535l-.514.017-5.204 5.669-.249.265.514-.017 5.453-5.934zM46.87 38.491l-.514.016-7.608 8.255-.249.265.514-.016 7.857-8.52z"/><path fill="#ccc" d="M39.013 47.011l-.514.016.265.249 2.52 2.42.265.265-.017-.53-2.519-2.42zM46.986 43.513l.016.514 1.591 1.525.514-.017-2.121-2.022z"/><path fill="gray" d="M41.532 49.431l.017.53.248-.282 5.205-5.652-.016-.514-5.454 5.918z"/><path d="M35.466 48.867l8.884 8.52-.016-.53-.017.016-8.603-8.255-.016-.016-.017-.017h-.016a3.29 3.29 0 0 0-1.111-.53l-.713.248a2.946 2.946 0 0 1 1.625.564zM46.87 38.491l-2.122-2.039.016.514 1.592 1.541.514-.016z" fill="#ccc"/><path fill="gray" d="M33.858 48.287l.713-.249 10.193-11.072-.016-.514-10.89 11.835z"/><path fill="#ccc" d="M57.925 40.563l.067 2.619.381.215-.083-2.851-.381-.215.016.232zM66.362 35.723l-.182-.133-.017.431 2.354 1.525.017-.415-2.172-1.408z"/><path fill="#fff" d="M55.439 44.657l-.348.613 3.282-1.873-.381-.215-2.553 1.475zM65.981 35.706l-7.873 4.525-.199.1.381.215 7.873-4.525.017-.431-.199.116zM71.086 35.656l-2.552 1.475-.017.415 3.282-1.873-.713-.017z"/><path d="M54.842 31.115v.016l.249 14.123.348-.63-.232-13.51v-.082a2.202 2.202 0 0 0-.63-1.21l-.663-.033a2.009 2.009 0 0 1 .928 1.326zM58.605 27.136l-.017.431 12.498 8.089.713.017-13.194-8.537z" fill="#ccc"/><path fill="gray" d="M53.898 29.822l.663.033 4.027-2.288.017-.431-4.707 2.686z"/><path fill="#fff" d="M58.041 30.75l5.338 3.464.696.017-.497-.332-5.338-3.447-.58-.382.017.696.166 6.415.016.614.348-.614-.166-6.431z"/><path fill="gray" d="M63.561 34.529l.514-.298-.696-.017-5.172 2.967-.348.614.531-.299 5.171-2.967z"/><path fill="#fff" d="M21.31 84.67l6.034-2.022.447-.531-.563.183-6.034 2.022-.646.215.547.415 5.138 3.879.481.381-.265-.663-5.139-3.879z"/><path fill="gray" d="M27.708 82.714l.083-.597-.447.531-.895 5.901.265.663.099-.614.895-5.884zM88.441 18.153l10.874-.1a9.884 9.884 0 0 1 2.933.249 6.011 6.011 0 0 0-2.751-.614l-11.437.1h-.663l.68.365z"/><path d="M104.834 22.628a3.644 3.644 0 0 0-.083-.73c.033.25.067.498.083.763z" fill="none"/><path d="M102.348 18.782a.06.06 0 0 0 .05.017c-.017 0-.034-.017-.05-.017z" fill="#e30613"/><path d="M102.43 18.832a.058.058 0 0 1-.032-.016.051.051 0 0 1 .033.016z"/><path d="M104.768 21.899a4.77 4.77 0 0 0-2.503-3.58 9.358 9.358 0 0 0-2.934-.25h.199a5.405 5.405 0 0 1 2.834.713h.017c.017 0 .017.017.033.017a.058.058 0 0 1 .033.017 5.015 5.015 0 0 1 2.32 3.083z" fill="gray"/><path d="M104.834 22.661v.68c0-.133.017-.266.017-.415a1.515 1.515 0 0 0-.017-.265z"/><path fill="#ccc" d="M91.541 27.899l.033 3.547.364.365-.033-3.912-.364-.365v.365zM98.502 27.634l-.116-.149-.182.364 2.735 3.879.199-.365-2.636-3.729zM88.458 19.412v-.016a3.463 3.463 0 0 0-.365-1.227l-.68-.365a2.969 2.969 0 0 1 .68 1.625l.1 12.415.364-.365z"/><path fill="gray" d="M98.187 27.485l-6.282.049h-.364l.364.365 6.299-.05.182-.364h-.199z"/><path fill="#fff" d="M88.557 31.479l-.365.365 3.746-.033-.364-.365-3.017.033zM104.387 31.33l-3.249.033-.199.365 4.177-.033-.729-.365z"/><path d="M102.348 27.335a4.474 4.474 0 0 0 2.486-3.978v-.68a5.647 5.647 0 0 0-.083-.762 4.799 4.799 0 0 0-2.337-3.066 4.675 4.675 0 0 1 2.056 4.127 4.218 4.218 0 0 1-2.288 4.061l-.381.182-.398.2.564.132z" fill="#ccc"/><path fill="gray" d="M101.403 27.385l.265.348 2.719 3.597.729.365-3.149-4.177-.564-.133z"/><path d="M99.165 20.307l-7.31.067h-.364l.365.364s6.762-.066 7.343-.066a1.848 1.848 0 0 1 .38.05h.017a2.173 2.173 0 0 1 1.923 2.138v-.066a2.317 2.317 0 0 0-2.354-2.487z" fill="#fff"/><path d="M99.596 20.705a1.976 1.976 0 0 1 1.575 2.072 1.907 1.907 0 0 1-2.022 2.089l-7.26.066-.365.365h.365l7.26-.067a2.267 2.267 0 0 0 2.37-2.387 2.2 2.2 0 0 0-1.923-2.138z" fill="#fff"/><path fill="#fff" d="M91.856 20.738l-.365-.364v.364l.033 4.194v.365l.365-.365-.033-4.194z"/><path fill="#ccc" d="M140.869 37.214l-6.53 6.299.016.497 6.763-6.53.497-.978-.746.712zM143.82 44.242l8.735-1.956.1-.397-8.918 2.005-.414.464.497-.116z"/><path fill="#fff" d="M139.775 48.154l.166.149.232-.431-.398.282z"/><path fill="#ccc" d="M150.45 46.132l.597-.812-.879.597-5.619 7.591.481-.033 5.42-7.343zM155.323 44.889l-8.072 10.658.05.547 8.519-11.255-.497.05z"/><path fill="#fff" d="M145.03 53.475l-.481.033 2.752 2.586-.05-.547-2.221-2.072z"/><path fill="gray" d="M152.555 42.286l2.768 2.603.497-.05-3.165-2.95-.1.397z"/><path fill="#fff" d="M150.069 45.552l-9.896 2.32-.232.431 10.227-2.386.879-.597-.978.232zM132.101 41.425h-.514l2.768 2.585-.016-.497-2.238-2.088z"/><path fill="#ccc" d="M143.372 43.845l-.049.513.414-.464 1.094-9.299-.381.15-1.078 9.1z"/><path fill="#fff" d="M141.483 37.529l.132-1.027-.497.978-1.343 10.674.398-.282 1.31-10.343z"/><path fill="gray" d="M141.516 31.512l-.415-.381.249.729 3.1 2.885.381-.15-3.315-3.083z"/><path d="M140.405 32.855l-8.835 8.586h.53l8.554-8.304a2.66 2.66 0 0 0 .696-1.26l-.249-.73a2.678 2.678 0 0 1-.696 1.708z" fill="#ccc"/><path fill="#fff" d="M156.931 60.967l-.166-.331-.165.497 3.746 7.177.149-.497-3.564-6.846z"/><path fill="gray" d="M153.997 62.542l5.47 10.475.481.15-5.619-10.791-.498-.166.166.332zM158.837 59.906l3.581 6.863.497.149-3.746-7.177-.498-.15.166.315zM168.799 67.349l.481.149-7.426-14.288-.017.762 6.962 13.377z"/><path fill="#fff" d="M150.5 60.52l-.498-.15 7.393 14.189.149-.497L150.5 60.52zM161.672 58.398l-.166-.332-.166.498 5.387 10.326.149-.497-5.204-9.995z"/><path fill="url(#E)" d="M160.495 67.813l1.923-1.044-1.028.082-.895.962z"/><path fill="#e30613" d="M161.174 58.232l-2.188 1.177-.315.182.498.15 2.171-1.177.166-.498-.332.166z"/><path fill="#ccc" d="M161.174 58.232l-2.188 1.177-.315.182.498.15 2.171-1.177.166-.498-.332.166z"/><path fill="#e30613" d="M168.799 67.349l-1.923 1.044-.149.497 2.553-1.392-.481-.149z"/><path fill="#ccc" d="M168.799 67.349l-1.923 1.044-.149.497 2.553-1.392-.481-.149z"/><path fill="#e30613" d="M157.544 74.062l-.149.497 2.553-1.392-.481-.15-1.923 1.045z"/><path fill="#ccc" d="M157.544 74.062l-.149.497 2.553-1.392-.481-.15-1.923 1.045z"/><path d="M160.81 54.917a3.138 3.138 0 0 0 1.027-.945l.017-.762a2.873 2.873 0 0 1-1.21 1.375l-10.642 5.785.498.15z" fill="#e30613"/><path d="M160.81 54.917a3.138 3.138 0 0 0 1.027-.945l.017-.762a2.873 2.873 0 0 1-1.21 1.375l-10.642 5.785.498.15z" fill="#ccc"/><path fill="#e30613" d="M156.434 60.801l-2.288 1.244-.315.165.498.166 2.271-1.243.165-.497-.331.165z"/><path fill="#ccc" d="M156.434 60.801l-2.288 1.244-.315.165.498.166 2.271-1.243.165-.497-.331.165z"/><path fill="#e30613" d="M160.495 67.813l-.149.497 2.569-1.392-.497-.149-1.923 1.044z"/><path fill="#ccc" d="M160.495 67.813l-.149.497 2.569-1.392-.497-.149-1.923 1.044z"/><path d="M169.296 92.013a4.863 4.863 0 0 1-.68.05h-.032a4.537 4.537 0 0 1-.879.265 4.862 4.862 0 0 1-.68.05c-2.204 0-3.895-1.923-4.409-5.023-.547-3.315.614-5.751 2.984-6.298a3.912 3.912 0 0 1 .862-.465 3.302 3.302 0 0 0-.696.067c-2.735.48-4.11 3.133-3.514 6.78.547 3.281 2.37 5.336 4.774 5.336a3.783 3.783 0 0 0 .745-.066 3.994 3.994 0 0 0 .896-.265 4.117 4.117 0 0 0 .845-.464c-.083 0-.15.033-.216.033z" fill="#fff"/><path d="M171.236 85.897c-.464-2.802-1.94-4.74-3.862-5.205a4.161 4.161 0 0 0-.912-.116h-.033a4.755 4.755 0 0 0-.862.464l.232-.05a4.635 4.635 0 0 1 .663-.05h.033c2.155.017 3.862 1.99 4.36 5.006.497 3-.382 5.288-2.288 6.117h.033a4.863 4.863 0 0 0 .68-.05c.066-.016.149-.033.215-.05 1.542-1.11 2.205-3.298 1.74-6.066z" fill="gray"/><path d="M173.92 85.433c-.762-4.509-3.447-7.774-6.712-8.305a6.063 6.063 0 0 0-.945-.083c-.15 0-.298.017-.447.017a5.974 5.974 0 0 0-1.277.597c.232-.067.448-.116.696-.166a4.273 4.273 0 0 1 .647-.066 2.933 2.933 0 0 1 .381-.017c3.514 0 6.514 3.332 7.31 8.089.812 4.89-.995 8.95-4.343 10.128.216-.017.448-.034.663-.067a4.52 4.52 0 0 0 .68-.166c2.718-1.707 4.094-5.52 3.348-9.961z" fill="gray"/><path d="M169.877 95.527a4.279 4.279 0 0 1-.663.066 7.862 7.862 0 0 1-.945.249l-.398.05c-.216.016-.431.033-.647.033-3.563 0-6.497-3.249-7.31-8.106-.828-4.989 1.095-9.133 4.625-10.177a5.973 5.973 0 0 1 1.277-.597 4.312 4.312 0 0 0-.647.083c-4.16.73-6.514 5.255-5.602 10.774.845 5.023 3.928 8.404 7.674 8.404a6.431 6.431 0 0 0 1.11-.1 4.397 4.397 0 0 0 .945-.248 5.974 5.974 0 0 0 1.277-.597 3.538 3.538 0 0 1-.696.166z" fill="#fff"/><path d="M92.717 53.409a1.295 1.295 0 0 1-1.292-1.293 1.32 1.32 0 0 1 1.292-1.31l13.161-.066a1.293 1.293 0 0 1 0 2.586z" fill="url(#d)"/><path d="M105.348 49.563a1.79 1.79 0 1 1 1.774-1.807 1.772 1.772 0 0 1-1.774 1.807z" fill="url(#F)"/><path d="M99.331 49.596a1.79 1.79 0 1 1 1.774-1.806 1.772 1.772 0 0 1-1.774 1.806z" fill="url(#G)"/><path d="M93.198 49.63a1.79 1.79 0 1 1 1.774-1.807 1.783 1.783 0 0 1-1.774 1.806z" fill="url(#H)"/><path d="M101.055 47.806a1.807 1.807 0 0 1-1.79 1.807 1.74 1.74 0 0 1-.78-.182 1.793 1.793 0 1 0 2.14-2.785 1.754 1.754 0 0 1 .43 1.16zM107.072 47.773a1.804 1.804 0 0 1-1.774 1.807 1.866 1.866 0 0 1-.795-.183 1.787 1.787 0 1 0 2.121-2.784 1.767 1.767 0 0 1 .448 1.16zM94.922 47.84a1.804 1.804 0 0 1-1.774 1.806 1.866 1.866 0 0 1-.795-.182 1.787 1.787 0 1 0 2.121-2.785 1.767 1.767 0 0 1 .448 1.16zM106.84 51.27a1.251 1.251 0 0 1 .265.763 1.295 1.295 0 0 1-1.293 1.293l-13.16.066a1.54 1.54 0 0 1-.482-.083 1.302 1.302 0 0 0 1.045.53l13.16-.082a1.285 1.285 0 0 0 .465-2.487z" fill="#4d4d4c"/><path d="M99.198 49.281h.083a1.47 1.47 0 0 0 1.045-.447 1.328 1.328 0 0 0 .248-.348 1.76 1.76 0 0 1-1.376.795zM92.601 50.823h-.149a.956.956 0 0 0-.878.563 1.327 1.327 0 0 1 1.027-.563zM99.149 46.033h-.067a1.47 1.47 0 0 0-1.044.447 1.328 1.328 0 0 0-.248.348 1.73 1.73 0 0 1 1.359-.795zM93.049 49.315h.083a1.476 1.476 0 0 0 1.293-.796 1.734 1.734 0 0 1-1.376.796zM93 46.066h-.067a1.476 1.476 0 0 0-1.293.795 1.73 1.73 0 0 1 1.36-.795zM105.215 49.248h.083a1.47 1.47 0 0 0 1.045-.447 1.327 1.327 0 0 0 .248-.348 1.785 1.785 0 0 1-1.376.795zM105.166 46h-.067a1.47 1.47 0 0 0-1.044.447 1.328 1.328 0 0 0-.249.348 1.68 1.68 0 0 1 1.36-.796zM105.663 53.01h.15a.928.928 0 0 0 .695-.298 1.267 1.267 0 0 0 .183-.265 1.258 1.258 0 0 1-1.028.564z" fill="none"/><path d="M106.575 48.47a1.328 1.328 0 0 1-.249.347 1.54 1.54 0 0 1-1.044.448h-.067c-.033 0-.066.016-.099.016a1.774 1.774 0 0 1-1.442-.729 1.783 1.783 0 0 0 3.398-.779 1.713 1.713 0 0 0-.365-1.06 1.9 1.9 0 0 1 .183.745 1.743 1.743 0 0 1-.315 1.011zM100.574 48.502a1.328 1.328 0 0 1-.248.348 1.54 1.54 0 0 1-1.045.448h-.083c-.033 0-.066.016-.099.016a1.774 1.774 0 0 1-1.442-.729 1.793 1.793 0 0 0 3.415-.779 1.713 1.713 0 0 0-.365-1.06 2.24 2.24 0 0 1 .182.745 2.023 2.023 0 0 1-.315 1.011zM94.425 48.535a1.508 1.508 0 0 1-1.293.796h-.083c-.033 0-.066.017-.1.017a1.774 1.774 0 0 1-1.442-.73 1.783 1.783 0 0 0 3.398-.779 1.713 1.713 0 0 0-.364-1.06 2.24 2.24 0 0 1 .182.745 1.62 1.62 0 0 1-.298 1.011zM106.807 51.237a1.189 1.189 0 0 1 .1.48 1.347 1.347 0 0 1-.216.73.757.757 0 0 1-.183.265.993.993 0 0 1-.696.299h-.182l-13.161.066a1.28 1.28 0 0 1-1.011-.497 1.315 1.315 0 0 0 1.21.796l13.16-.067a1.295 1.295 0 0 0 1.294-1.293 1.473 1.473 0 0 0-.315-.779z"/><path d="M106.906 51.718a1.189 1.189 0 0 0-.1-.48 1.28 1.28 0 0 0-1.01-.498l-13.161.066H92.6a1.301 1.301 0 0 0-1.027.564 1.146 1.146 0 0 0-.216.73 1.189 1.189 0 0 0 .1.48 1.28 1.28 0 0 0 1.01.497l13.162-.066h.033l-13.012.066a.967.967 0 0 1-.911-.646 1.072 1.072 0 0 1-.067-.332.994.994 0 0 1 .978-.994l13.161-.067a1.013 1.013 0 0 1 .746.332.977.977 0 0 1 .249.646.967.967 0 0 1-.1.431 1.446 1.446 0 0 0 .2-.729zM94.723 47.524a1.653 1.653 0 0 0-.182-.746 1.774 1.774 0 0 0-1.442-.729c-.033 0-.067.017-.116.017a1.757 1.757 0 0 0-1.36.779 1.62 1.62 0 0 0-.298 1.01 1.652 1.652 0 0 0 .182.747 1.774 1.774 0 0 0 1.443.729c.033 0 .066-.017.099-.017a1.48 1.48 0 0 1-1.293-.895 1.345 1.345 0 0 1-.116-.58 1.493 1.493 0 0 1 1.475-1.492 1.452 1.452 0 0 1 1.177.597 1.477 1.477 0 0 1 .299.879 1.406 1.406 0 0 1-.183.696 1.462 1.462 0 0 0 .315-.995zM106.89 47.458a1.653 1.653 0 0 0-.183-.746 1.774 1.774 0 0 0-1.442-.73c-.033 0-.066.017-.116.017a1.757 1.757 0 0 0-1.359.78 1.62 1.62 0 0 0-.298 1.01 1.653 1.653 0 0 0 .182.746 1.774 1.774 0 0 0 1.442.73c.033 0 .066-.017.1-.017a1.48 1.48 0 0 1-1.293-.895 1.345 1.345 0 0 1-.116-.58 1.453 1.453 0 0 1 .43-1.044 1.54 1.54 0 0 1 1.045-.448 1.452 1.452 0 0 1 1.177.597 1.477 1.477 0 0 1 .298.878 1.454 1.454 0 0 1-.182.697 1.655 1.655 0 0 0 .315-.995zM100.873 47.491a1.653 1.653 0 0 0-.183-.746 1.774 1.774 0 0 0-1.442-.729c-.033 0-.066.017-.116.017a1.757 1.757 0 0 0-1.359.779 1.62 1.62 0 0 0-.298 1.01 1.653 1.653 0 0 0 .182.747 1.774 1.774 0 0 0 1.442.729c.033 0 .066-.017.1-.017a1.48 1.48 0 0 1-1.293-.895 1.345 1.345 0 0 1-.116-.58 1.453 1.453 0 0 1 .43-1.044 1.54 1.54 0 0 1 1.045-.448 1.452 1.452 0 0 1 1.177.597 1.477 1.477 0 0 1 .298.879 1.454 1.454 0 0 1-.182.696 1.655 1.655 0 0 0 .315-.995z" fill="#fff"/><path d="M92.933 49.38a1.807 1.807 0 0 1-1.475-.745 1.909 1.909 0 0 1-.183-.78 1.838 1.838 0 0 1 .315-1.043 1.886 1.886 0 0 1 1.41-.813h.132a1.807 1.807 0 0 1 1.475.746 1.909 1.909 0 0 1 .182.78 1.838 1.838 0 0 1-.314 1.044c-.017.033-.05.033-.083.016s-.034-.05-.017-.083a1.74 1.74 0 0 0 .298-.978 1.871 1.871 0 0 0-.165-.729 1.735 1.735 0 0 0-1.376-.696h-.116a1.705 1.705 0 0 0-1.326.762 1.74 1.74 0 0 0-.298.978 1.871 1.871 0 0 0 .165.73 1.735 1.735 0 0 0 1.376.696h.017a.044.044 0 0 1 .05.05.06.06 0 0 1-.067.066zM105.1 49.315a1.807 1.807 0 0 1-1.476-.746 1.909 1.909 0 0 1-.182-.78 1.838 1.838 0 0 1 .315-1.044 1.886 1.886 0 0 1 1.409-.812h.132a1.807 1.807 0 0 1 1.476.746 1.909 1.909 0 0 1 .182.779 1.838 1.838 0 0 1-.315 1.044c-.017.033-.05.033-.083.017s-.033-.05-.017-.083a1.74 1.74 0 0 0 .299-.978 1.871 1.871 0 0 0-.166-.73 1.697 1.697 0 0 0-1.392-.695h-.1a1.705 1.705 0 0 0-1.326.762 1.74 1.74 0 0 0-.298.978 1.871 1.871 0 0 0 .166.73 1.735 1.735 0 0 0 1.375.695h.017a.044.044 0 0 1 .05.05.06.06 0 0 1-.067.067zM99.082 49.348a1.807 1.807 0 0 1-1.475-.746 1.909 1.909 0 0 1-.182-.78 1.849 1.849 0 0 1 1.724-1.856h.132a1.807 1.807 0 0 1 1.476.746 1.909 1.909 0 0 1 .182.78 1.838 1.838 0 0 1-.315 1.043c-.017.034-.05.034-.083.017s-.033-.05-.016-.083a1.74 1.74 0 0 0 .298-.978 1.872 1.872 0 0 0-.166-.73 1.735 1.735 0 0 0-1.376-.695h-.116a1.741 1.741 0 0 0-1.624 1.74 1.871 1.871 0 0 0 .166.73 1.735 1.735 0 0 0 1.376.696h.016a.044.044 0 0 1 .05.05.06.06 0 0 1-.067.066zM92.469 53.16a1.288 1.288 0 0 1-1.044-.514v-.016a1.35 1.35 0 0 1-.1-.514 1.356 1.356 0 0 1 1.31-1.36h.033l13.144-.066a1.288 1.288 0 0 1 1.044.514v.017a1.35 1.35 0 0 1 .1.514 1.418 1.418 0 0 1-.232.762c-.017.033-.05.033-.083.017s-.033-.05-.017-.083a1.19 1.19 0 0 0 .216-.696 1.17 1.17 0 0 0-.1-.465 1.225 1.225 0 0 0-.961-.464l-13.144.067H92.6a1.218 1.218 0 0 0-.978.547 1.323 1.323 0 0 0-.215.696 1.17 1.17 0 0 0 .1.464 1.225 1.225 0 0 0 .96.464l13.162-.066h.033a.05.05 0 1 1 0 .1h-.033l-13.161.082z"/><path d="M86.236 57.685c.017 0 .017.017 0 0v.017c.017 0 .017-.017 0-.017z" fill="#ffed00"/><path d="M86.253 57.702c-.05-.133-.1-.249-.15-.365-.016-.033-.032-.083-.049-.116a3.905 3.905 0 0 0-.414-.68 1.68 1.68 0 0 0-.415-.364.833.833 0 0 0-.397-.1.744.744 0 0 0-.183.017h-.05a.876.876 0 0 1-.198.016h-.067a2.651 2.651 0 0 1-1.342-1.309l-.481-.215.017.033c.281.53.812 1.525 1.707 1.79a.51.51 0 0 0 .166.016 1.174 1.174 0 0 0 .232-.016h.215a.606.606 0 0 1 .249.05 1.33 1.33 0 0 1 .414.397 3.599 3.599 0 0 1 .746.846z" fill="#333"/><path d="M79.64 66.868c0-.033-.017-.066-.017-.1a.21.21 0 0 1 .016.1z" fill="none"/><path d="M79.64 66.868c0-.033-.017-.066-.017-.1 0-.05-.017-.099-.017-.132v-.414a2.634 2.634 0 0 1 2.785-2.304 2.786 2.786 0 0 1 2.088.878 2.413 2.413 0 0 0 1.559.646 1.077 1.077 0 0 0 1.143-1.193 24.118 24.118 0 0 0-.961-6.564 3.002 3.002 0 0 0-.763-.845c1.045 1.475 1.393 5.85 1.393 7.409a.778.778 0 0 1-.846.878 2.055 2.055 0 0 1-1.326-.546 3.113 3.113 0 0 0-2.32-.978 2.943 2.943 0 0 0-3.1 2.618v.349a2.705 2.705 0 0 0 1.823 2.386 2.97 2.97 0 0 1-1.442-2.088z" fill="#fff"/><path d="M79.623 66.769c0-.05-.017-.1-.017-.133a.323.323 0 0 1 .017.133z"/><path d="M89.535 59.194a10.562 10.562 0 0 0-2.072-3.465 4.829 4.829 0 0 0-3.398-1.326 7.381 7.381 0 0 0-1.558.183l.48.215a6.061 6.061 0 0 1 1.078-.1 4.542 4.542 0 0 1 3.183 1.244 10.737 10.737 0 0 1 2.005 3.381 21.586 21.586 0 0 0 4.608 7.078h.448a21.392 21.392 0 0 1-4.774-7.21z" fill="#fff"/><path d="M87.463 77.079a10.651 10.651 0 0 0 2.072-3.481 20.903 20.903 0 0 1 4.757-7.21h-.447a21.497 21.497 0 0 0-4.592 7.077 10.618 10.618 0 0 1-2.005 3.381 4.514 4.514 0 0 1-3.183 1.244 6.061 6.061 0 0 1-1.077-.1l-.481.216a6.584 6.584 0 0 0 1.558.199 4.829 4.829 0 0 0 3.398-1.326z" fill="#333"/><path d="M85.076 76.35a.481.481 0 0 1-.232.049.945.945 0 0 1-.215-.017c-.067 0-.15-.016-.216-.016a.462.462 0 0 0-.166.016c-.878.266-1.409 1.26-1.707 1.79l-.016.034.48-.216a2.682 2.682 0 0 1 1.326-1.31h.083a.68.68 0 0 1 .182.017 1.254 1.254 0 0 0 .25.017.798.798 0 0 0 .364-.066c1.375-.796 1.84-4.923 1.956-7.078l-.282-1.011c.016 1.724-.431 6.995-1.807 7.79z" fill="#fff"/><path d="M86.883 68.327a.39.39 0 0 0-.033-.133.39.39 0 0 0 .033.133z"/><path d="M84.513 67.979a2.87 2.87 0 0 1-2.105.911 1.426 1.426 0 0 1-.266-.016 2.66 2.66 0 0 1-2.503-2.023 2.883 2.883 0 0 0 1.476 2.089 3.478 3.478 0 0 0 .911.215 2.685 2.685 0 0 0 .365.017 3.093 3.093 0 0 0 2.32-.995 2.09 2.09 0 0 1 1.327-.547.76.76 0 0 1 .778.498c-.298-.945-1.889-.564-2.303-.15z" fill="#333"/><path d="M86.9 68.542a.875.875 0 0 0-.017-.215c0 .066.016.132.016.215zM86.85 68.194c0-.017 0-.033-.017-.033 0 .016 0 .016.017.033z"/><path d="M86.054 67.349a2.439 2.439 0 0 0-1.541.63c.414-.415 2.005-.813 2.32.165 0 .017 0 .033.017.033.016.034.016.083.033.133a.875.875 0 0 1 .016.216l.282 1.01c.017-.43.033-.778.033-1.01a1.1 1.1 0 0 0-1.16-1.177z" fill="#fff"/></svg>