<svg xmlns="http://www.w3.org/2000/svg" xmlns:xlink="http://www.w3.org/1999/xlink" viewBox="0 0 192 192"><defs><linearGradient id="e" data-name="Sfumatura senza nome 36" x1="-721.736" y1="2803.184" x2="-358.595" y2="2452.269" gradientTransform="matrix(.51417 0 0 -.51418 366.215 1439.862)" gradientUnits="userSpaceOnUse"><stop offset="0" stop-color="#dff4ff"/><stop offset=".098" stop-color="#d6eaf5"/><stop offset=".268" stop-color="#bfd0d9"/><stop offset=".488" stop-color="#98a5ac"/><stop offset=".747" stop-color="#646b6e"/><stop offset="1" stop-color="#2b2b2b"/></linearGradient><radialGradient id="f" data-name="Sfumatura senza nome 35" cx="-698.814" cy="2773.411" r="243.155" gradientTransform="matrix(.51417 0 0 -.51418 366.215 1439.862)" gradientUnits="userSpaceOnUse"><stop offset="0" stop-color="#fff"/><stop offset=".306" stop-color="#a8a8a8"/><stop offset=".646" stop-color="#4f4f4f"/><stop offset=".885" stop-color="#161616"/><stop offset="1"/></radialGradient><linearGradient id="g" data-name="Sfumatura senza nome 33" x1="1500.912" y1="-842.986" x2="1732.196" y2="-1066.482" gradientTransform="matrix(-.51417 0 0 .51418 931.981 591.539)" gradientUnits="userSpaceOnUse"><stop offset="0" stop-color="#dff4ff"/><stop offset=".086" stop-color="#d6eaf5"/><stop offset=".233" stop-color="#bed0d9"/><stop offset=".424" stop-color="#96a4ac"/><stop offset=".652" stop-color="#5f686d"/><stop offset=".907" stop-color="#1a1d1e"/><stop offset="1"/></linearGradient><radialGradient id="a" data-name="Sfumatura senza nome 32" cx="-742.481" cy="2798.174" r="584.257" gradientTransform="matrix(.51417 0 0 -.51418 366.215 1439.862)" gradientUnits="userSpaceOnUse"><stop offset="0" stop-color="#fff"/><stop offset=".31" stop-color="#fdfdfd"/><stop offset=".451" stop-color="#f6f6f6"/><stop offset=".557" stop-color="#e9e9e9"/><stop offset=".646" stop-color="#d7d7d7"/><stop offset=".724" stop-color="#bfbfbf"/><stop offset=".794" stop-color="#a2a2a2"/><stop offset=".859" stop-color="gray"/><stop offset=".92" stop-color="#575757"/><stop offset=".975" stop-color="#2b2b2b"/><stop offset="1" stop-color="#141414"/></radialGradient><radialGradient id="h" cx="-742.511" cy="2798.173" r="584.317" xlink:href="#a"/><radialGradient id="i" cx="-742.542" cy="2798.346" r="584.765" xlink:href="#a"/><radialGradient id="c" data-name="Sfumatura senza nome 11" cx="-637.843" cy="2717.172" r="157.595" gradientTransform="matrix(.51417 0 0 -.51418 366.215 1439.862)" gradientUnits="userSpaceOnUse"><stop offset="0" stop-color="#e6e6e6"/><stop offset=".104" stop-color="#d6d6d6"/><stop offset=".307" stop-color="#adadad"/><stop offset=".588" stop-color="#6c6c6c"/><stop offset=".933" stop-color="#121212"/><stop offset="1"/></radialGradient><radialGradient id="j" data-name="Sfumatura senza nome 31" cx="-594.738" cy="2695.976" r="229.188" gradientTransform="matrix(.51417 0 0 -.51418 366.215 1439.862)" gradientUnits="userSpaceOnUse"><stop offset="0" stop-color="#fff"/><stop offset=".344" stop-color="#fdfdfd"/><stop offset=".481" stop-color="#f6f6f6"/><stop offset=".582" stop-color="#eaeaea"/><stop offset=".665" stop-color="#d8d8d8"/><stop offset=".737" stop-color="#c2c2c2"/><stop offset=".802" stop-color="#a6a6a6"/><stop offset=".86" stop-color="#848484"/><stop offset=".913" stop-color="#5f5f5f"/><stop offset=".949" stop-color="#404040"/><stop offset=".957" stop-color="#404040"/><stop offset="1" stop-color="#404040"/><stop offset="1"/></radialGradient><radialGradient id="b" data-name="Sfumatura senza nome 12" cx="-662.032" cy="2782.854" r="405.896" gradientTransform="matrix(.51417 0 0 -.51418 366.215 1439.862)" gradientUnits="userSpaceOnUse"><stop offset=".169" stop-color="#fff"/><stop offset=".196" stop-color="#e0eff7"/><stop offset=".241" stop-color="#b2d9ec"/><stop offset=".287" stop-color="#8bc5e2"/><stop offset=".335" stop-color="#6bb5da"/><stop offset=".384" stop-color="#52a9d4"/><stop offset=".436" stop-color="#41a0cf"/><stop offset=".491" stop-color="#369bcd"/><stop offset=".556" stop-color="#39c"/><stop offset=".606" stop-color="#3396c8"/><stop offset=".655" stop-color="#328ebc"/><stop offset=".705" stop-color="#3180a8"/><stop offset=".754" stop-color="#2f6d8c"/><stop offset=".803" stop-color="#2d5468"/><stop offset=".851" stop-color="#2a373d"/><stop offset=".871" stop-color="#292929"/></radialGradient><radialGradient id="k" cx="-662.032" cy="2782.854" r="405.885" xlink:href="#b"/><radialGradient id="l" cx="-635.69" cy="2715.188" r="154.574" xlink:href="#c"/><linearGradient id="d" data-name="Sfumatura senza nome 7" x1="-545.801" y1="2753.782" x2="-395.061" y2="2608.117" gradientTransform="matrix(.51417 0 0 -.51418 366.215 1439.862)" gradientUnits="userSpaceOnUse"><stop offset="0" stop-color="#f0f4ff"/><stop offset=".109" stop-color="#ebeff9"/><stop offset=".247" stop-color="#dce0ea"/><stop offset=".403" stop-color="#c4c7cf"/><stop offset=".57" stop-color="#a2a4ab"/><stop offset=".747" stop-color="#76777c"/><stop offset=".929" stop-color="#414243"/><stop offset="1" stop-color="#2b2b2b"/></linearGradient><linearGradient id="m" x1="-668.153" y1="2630.799" x2="-517.41" y2="2485.132" xlink:href="#d"/><linearGradient id="n" data-name="Sfumatura senza nome 10" x1="-595.227" y1="2682.742" x2="-517.061" y2="2607.207" gradientTransform="matrix(.51417 0 0 -.51418 366.215 1439.862)" gradientUnits="userSpaceOnUse"><stop offset="0" stop-color="#c2d7e8"/><stop offset=".134" stop-color="#bacfe1"/><stop offset=".343" stop-color="#a4bacd"/><stop offset=".6" stop-color="#8098ac"/><stop offset=".894" stop-color="#4e697f"/><stop offset="1" stop-color="#3a566d"/></linearGradient><linearGradient id="o" data-name="Sfumatura senza nome 9" x1="-634.375" y1="2664.234" x2="-485.148" y2="2520.032" gradientTransform="matrix(.51417 0 0 -.51418 366.215 1439.862)" gradientUnits="userSpaceOnUse"><stop offset="0" stop-color="#f0f4ff"/><stop offset=".097" stop-color="#e8ebf6"/><stop offset=".257" stop-color="#d1d4dd"/><stop offset=".459" stop-color="#abaeb5"/><stop offset=".695" stop-color="#78797d"/><stop offset=".958" stop-color="#363637"/><stop offset="1" stop-color="#2b2b2b"/></linearGradient><linearGradient id="p" data-name="Sfumatura senza nome 8" x1="-524.386" y1="2610.743" x2="-472.042" y2="2560.161" gradientTransform="matrix(.51417 0 0 -.51418 366.215 1439.862)" gradientUnits="userSpaceOnUse"><stop offset="0" stop-color="#d9def0"/><stop offset=".123" stop-color="#d4daec"/><stop offset=".263" stop-color="#c7cfe2"/><stop offset=".411" stop-color="#b0bcd1"/><stop offset=".566" stop-color="#90a1b8"/><stop offset=".725" stop-color="#677f99"/><stop offset=".885" stop-color="#355674"/><stop offset=".972" stop-color="#173d5d"/></linearGradient><linearGradient id="q" x1="-577.932" y1="2718.961" x2="-428.868" y2="2574.917" xlink:href="#d"/></defs><path d="M96 8a88 88 0 1 0 88 88A88 88 0 0 0 96 8zm0 171.6A83.6 83.6 0 1 1 179.6 96 83.595 83.595 0 0 1 96 179.6z" fill="url(#e)"/><path d="M180.23 96A84.228 84.228 0 1 1 96 11.77 84.233 84.233 0 0 1 180.23 96z" fill="#333"/><path d="M179.6 96A83.598 83.598 0 1 1 96 12.4 83.598 83.598 0 0 1 179.6 96z" fill="url(#f)"/><path d="M152.047 96A56.047 56.047 0 1 1 96 39.952 56.047 56.047 0 0 1 152.047 96z" fill="url(#g)"/><path d="M89.813 16.338h-6.645v22.099h4.421V23.006l5.823 15.431h4.833l5.822-15.431v15.431h4.422V16.338h-6.646L95.799 32.16h.058l-6.044-15.822zM139.164 56.38l-3.817-4.538 12.593-16.676 3.219 3.862-7.885 10.618 12.203-5.442 3.452 4.143-7.555 11.016 11.866-5.836 3.219 3.859-18.676 9.378-3.774-4.569 7.24-10.915-.044-.054-12.041 5.154z"/><path d="M56.86 44.126a5.636 5.636 0 0 0-7.107-.649 4.907 4.907 0 0 0 .032-3.3 7.883 7.883 0 0 0-2.413-3.05c-2.968-2.487-6.091-.364-8.322 2.295L28.266 52.275 45.22 66.499l11.372-13.551c2.6-3.097 3-6.168.268-8.822zM34.93 50.324l6.478-7.72a2.641 2.641 0 0 1 3.538.059 2.325 2.325 0 0 1 .397 3.392l-6.406 7.631zm17.87 1.283l-6.752 8.048-4.229-3.554 6.803-8.11a2.772 2.772 0 0 1 4.179 3.616z" fill="#333"/><path fill="url(#a)" d="M89.859 15.483h-6.645v22.101h4.421V22.153l5.823 15.431h4.834l5.822-15.431v15.431h4.422V15.483h-6.646l-6.044 15.824h.057l-6.044-15.824z"/><path fill="url(#h)" d="M139.207 54.898l-3.813-4.541 12.593-16.673 3.218 3.861-7.884 10.618 12.199-5.441 3.452 4.143-7.552 11.016 11.866-5.839 3.216 3.862-18.673 9.378-3.774-4.571 7.24-10.914-.043-.055-12.045 5.156z"/><path d="M56.07 43.69a5.634 5.634 0 0 0-7.105-.65 4.923 4.923 0 0 0 .03-3.298 7.814 7.814 0 0 0-2.418-3.05c-2.968-2.489-6.087-.364-8.314 2.297L27.474 51.84 44.43 66.064 55.8 52.511c2.596-3.097 3-6.166.268-8.82zm-21.932 6.198l6.477-7.718a2.64 2.64 0 0 1 3.538.055 2.323 2.323 0 0 1 .394 3.393l-6.402 7.633zm17.874 1.284L45.26 59.22l-4.235-3.554 6.806-8.113a2.775 2.775 0 0 1 4.182 3.619z" fill="url(#i)"/><g><path d="M41.818 96A54.182 54.182 0 1 1 96 150.184a54.183 54.183 0 0 1-54.182-54.182z" fill="url(#c)"/><path d="M43.376 96A52.626 52.626 0 1 1 96 148.629 52.625 52.625 0 0 1 43.376 96z" fill="url(#j)"/><path d="M43.293 96H96V43.294a52.705 52.705 0 0 0-52.707 52.708z" fill="url(#b)"/><path d="M96 96v52.708a52.708 52.708 0 0 0 52.707-52.707H96z" fill="url(#k)"/><path fill="url(#l)" d="M96.934 96.934h52.209v-1.87H96.934v-52.21h-1.868v52.21H42.857v1.87h52.209v52.211h1.868V96.934z"/><path d="M96.934 44.334a51.676 51.676 0 0 1 50.738 50.73h.93a52.608 52.608 0 0 0-51.668-51.666z" fill="url(#d)"/><path d="M44.24 95.057a51.743 51.743 0 0 1 50.8-50.802v-.935a52.679 52.679 0 0 0-51.736 51.737z" fill="#c2d7e8"/><path d="M95.066 147.667a51.67 51.67 0 0 1-50.734-50.733h-.934a52.608 52.608 0 0 0 51.668 51.668z" fill="url(#m)"/><path d="M147.672 96.934a51.677 51.677 0 0 1-50.738 50.733v.935a52.606 52.606 0 0 0 51.668-51.668z" fill="#12404f"/><path fill="url(#n)" d="M95.066 95.04V43.32h-1v50.719H43.351v1.001h51.715z"/><path fill="url(#o)" d="M94.969 97.016v51.096h-.988V98.004H43.77v-.988h51.199z"/><path fill="url(#p)" d="M97.021 97.016v51.096h.984V98.004h50.107v-.988H97.021z"/><path fill="url(#q)" d="M97.021 94.862V43.768h.984v50.107h50.107v.987H97.021z"/></g></svg>