<svg xmlns="http://www.w3.org/2000/svg" xmlns:xlink="http://www.w3.org/1999/xlink" viewBox="0 0 192 192"><defs><clipPath id="b"><path d="M173.623 82.79c.029.3.064.58.097.882.965 9.61 1.408 7.038-.097-.881zM29.89 42.467s7.648-7.053 13.11-12.25a45.346 45.346 0 0 0-13.11 12.25zm-2.035 93.606a101.66 101.66 0 0 0 8.591 14.42s-4.06-6.125-8.591-14.42zm141.859-83.954l-1.423-4.147L181 52.489l-12.297-6.302 12.488-7.411-13.725 5.626 2.196-13.723-4.455 13.256-3.23-.912c-6.772-10.069-16.078-15.109-27.787-20.725-21.764-10.443-50.773-7.674-50.773-7.674s34.247.436 60.443 15.964a47.416 47.416 0 0 1 13.665 12.68l-5.653.311 6.48.827q.917 1.292 1.768 2.625l-7.522 4.345 8.116-3.407q1.253 2.031 2.376 4.127l-3.209 10.046 3.794-8.942a112.78 112.78 0 0 1 9.946 29.59c-1.573-15.002-4.319-25.696-8.198-33.718l.283-.666s14.201 18.56 11.653 49.002c-2.548 30.441-9.831 41.207-17.115 48.632l-.363-3.714s-10.557 31.557-62.992 30.813c-52.434-.744-56.44-17.818-56.44-17.818l-2.913-1.488s-12.379-9.649-20.026-35.265c-7.647-25.615-.365-46.403-.365-46.403s-4.005 17.076-1.092 34.523c1.51 9.042 6.927 20.467 11.8 29.384a86.562 86.562 0 0 1-8.522-26.414c-2.915-21.903-2.186-36.752 1.455-47.888 3.641-11.135 5.827-15.963 5.827-15.963s-15.293 17.82-15.657 55.685c-.365 37.866 31.678 63.85 45.878 69.42 14.2 5.568 58.988 12.991 85.933-5.94 26.946-18.933 25.124-23.758 33.863-41.208 8.742-17.447 5.099-52.714-6.917-71.647zm-6.377-6.944c-.03-.048-.057-.097-.086-.143l.272.035zm1.251 2.235c-.153-.29-.307-.587-.463-.87l.856-.36-.393 1.23zM36.446 45.807c2.184-3.712 13.472-10.394 13.472-10.394a59.584 59.584 0 0 0-13.108 11.88c-6.92 8.166 2.548-.743 15.293-9.282 12.744-8.538 30.586-7.795 30.586-7.795s-5.825-4.455-28.037 2.6l21.483-9.282s-32.77 7.054-42.238 20.417c-9.469 13.364.363 5.568 2.55 1.856zm109.607-1.174c4.019 4.173 6.912 7.856 6.912 7.856s-1.184-3.753-6.912-7.856zM21.516 99.265c4.005 39.35 20.756 56.056 20.756 56.056s12.743 12.621 52.432 14.477c39.689 1.855 52.436-13.735 53.528-16.334s-5.1 1.485-6.92.742c-1.82-.742 5.828-14.478 5.828-14.478-4.006 14.85 2.185-2.227 6.188-.37 4.006 1.854-8.01 6.682-4.003 10.394 4.003 3.712 12.376-22.645 17.84-34.525 5.463-11.878 3.641-24.13 3.278-31.926-.363-7.795-2.185-11.136-2.185-11.136l-1.092 18.562s.729 2.598-5.099-10.396l-4.733-12.621c-3.277 57.912-16.387 79.816-16.387 79.816s-4.733 14.476-42.966 14.848c-38.232.37-43.695-9.654-43.695-9.654-12.38-16.333-19.662-51.228-17.84-74.244 1.82-23.016 0-29.328 16.385-36.381 16.385-7.053 41.145-7.796 41.145-7.796 29.74-.836 44.69 5.04 52.077 10.334a93.174 93.174 0 0 0-2.92-2.909c-5.462-5.196-56.076-15.963-82.656-5.569s-28.401 20.418-26.58 50.859c1.82 30.441 11.288 55.684 17.841 65.336 6.554 9.652 29.858 12.623 29.858 12.623-31.679-.744-35.32-17.447-37.14-20.42-1.821-2.97-7.283-8.91-8.375-4.082-1.092 4.825-10.882-24.685-9.061-26.17 1.82-1.485 13.066 15.034 13.066 15.034s-4.005-8.169-8.01-31.184c-4.006-23.016 2.184-34.524-1.822-35.267-4.005-.742 4.981 33.962-6.49 35.506-3.268.44-.556-30.694.902-37.005 1.455-6.312 3.04-8.153 3.04-8.153s-10.195 6.683-6.19 46.033" fill="none"/></clipPath><linearGradient id="c" data-name="Sfumatura senza nome 55" x1="660.304" y1="-1280.143" x2="998.574" y2="-1603.505" gradientTransform="translate(-314.449 808.828) scale(.49485)" gradientUnits="userSpaceOnUse"><stop offset="0" stop-color="#8c8c8c"/><stop offset=".5" stop-color="#464646"/><stop offset=".75" stop-color="#fff"/><stop offset="1" stop-color="#fff"/></linearGradient><radialGradient id="d" data-name="Sfumatura senza nome 54" cx="96" cy="1798.666" r="58.468" gradientTransform="matrix(1 0 0 -1.06888 0 2020.6)" gradientUnits="userSpaceOnUse"><stop offset="0" stop-color="#e60a47"/><stop offset="1" stop-color="#7c0626"/></radialGradient><radialGradient id="a" data-name="Sfumatura senza nome 53" cx="-15.095" cy="1961.611" r="32.814" gradientTransform="matrix(1.3933 0 0 -1.01811 120.533 2094.577)" gradientUnits="userSpaceOnUse"><stop offset="0" stop-color="#d3d1d2"/><stop offset=".5" stop-color="#c9c7c8"/><stop offset="1" stop-color="#8d8b8c"/></radialGradient><radialGradient id="e" cx="-15.095" cy="1961.611" r="32.814" xlink:href="#a"/><radialGradient id="f" cx="-15.095" cy="1961.611" r="32.813" xlink:href="#a"/><radialGradient id="g" cx="-15.095" cy="1961.612" r="32.813" xlink:href="#a"/></defs><path d="M184 95.999A88 88 0 1 1 96 8a88 88 0 0 1 88 87.999" fill="#231f20"/><path d="M180.912 95.999A84.913 84.913 0 1 1 96 11.087 84.912 84.912 0 0 1 180.912 96" fill="#bdbcbc"/><path d="M27.707 53.232c0 .07-9.421 1.502-9.412 1.547.046.234-.488 48.465 8.116 46.037 5.665-2.665 2.616-34.091 2.616-29.865 0 5.892.572 15.556 2.833 30.732 2.547 17.096 1.474 19.226 2.662 22.907a19.008 19.008 0 0 0-7.063-3.89l6.096 20.604 4.49-.046a13.319 13.319 0 0 1 .123-1.45c.121 0 4.434.32 7.398 5.744 17.15 31.386 62.299 19.317 50.48 19.997l18.604-2.24c-54.487 9.322-64.708-15.8-67.448-20.816-1.717-2.515-6.651-5.15-9.753-3.65 0 0 7.572.303 7.235-1.705 2.366 2.298-5.884-3.72-5.884-3.72l.416 1.305c1.279.13.703-1.252 2.05-1.478l-1.672-.765c-.215-.263.93-1.629-3.155-29.043a196.052 196.052 0 0 1-1.793-32.624c0-5.654-.369-6.054-.358-6.095l-3.32-2.168-.637-.13a9.376 9.376 0 0 1-2.215-.696 2.355 2.355 0 0 0 .321-1.376c0-.646-.07-1.488-.16-2.575-.118-1.454-.059-6.665-.26-4.924-10.58 91.818 4.066-10.277 2.266-8.315l1.03-1.166c4.983-5.753 22.392-19.187 67.312-20.238 47.502-1.113 47.718 16.238 47.88 16.492l12.306 6.095c-.163-.26-16.145-26.788-64.387-25.659-45.459 1.065-58.953 16.637-64.033 22.5l-1.005 1.14c-2.088 2.278-4.485 2.3-4.485 5.655 0 1.792-2.009 4.18-1.887 5.661 5.865 10.303 3.84 5.21 4.693-1.783zm129.902-4.417c-1.036.445-.88 2.126-.664 4.451a17.116 17.116 0 0 1 0 5.07l1.187.299a17.904 17.904 0 0 0 .029-5.483c-.106-1.165-.272-2.927-.024-3.24.03.04.372 13.122 3.068 16.24 4.287 4.963 2.15 2.108 2.15 10.756 0 4.262 3.188 9.23 3.06 10.97-1.588-2.01-2.04-7.184-2.444-11.825-.472-5.403-.877-10.068-2.799-11.618 2.369-2.076-5.861-12.958-5.3-5.59.388 2.578-.873-5.786-2.703-8.634-5.607-8.725-17.221-18.92-57.582-20.321-36.998-1.285-55.335 13.901-60.048 18.534l.612-1.056-6.012-3.1-1.701 18 2.573-4.06s4.154-7.533 4.23-7.71c.648-.764 18.18-20.841 60.303-19.379 44.901 1.558 53.099 14.313 56.6 19.76 1.686 2.626 2.129 5.561 2.521 8.15.514 3.41 1.004 6.63 4.833 6.116a1.125 1.125 0 0 1 .91.25c1.517 1.223 1.937 6.074 2.347 10.764.537 6.207 1.051 12.068 3.903 13.505l.794.4.086-.891c.106-1.14 2.565-27.968-5.031-36.764-2.99-3.463-4.092-3.941-4.898-3.594zm16.24 22.238a50.473 50.473 0 0 0-3.442-10.359 66.925 66.925 0 0 1 3.443 10.359zm-3.442-10.359c-.21-.486-.398-.906-.537-1.198.198.401.357.798.537 1.198zm-3.826-8.882c10.038 9.68 8.237 34.655 8.237 34.655l-4.883-5.673v24.2l-3.38 6.806c-6.011 32.14-20.283 60.5-76.249 58.987-55.964-1.512-64.602-31.383-69.861-59.743-5.259-28.358 2.253-59.365 2.253-59.365-16.527 49.155 3.006 86.212 3.006 86.212s9.388 34.787 67.233 34.41c57.84-.378 66.857-32.519 66.857-32.519l1.05 8.112s13.437-12.29 17.567-38.003c2.093-13.018-5.996-52.455-11.83-58.079zm3.289 7.684c-.195-.408-.313-.633-.313-.633.11.212.21.423.313.633" fill="#231f20"/><g clip-path="url(#b)"><path d="M173.623 82.79L29.89 42.467s7.648-7.053 13.11-12.25a45.346 45.346 0 0 0-13.11 12.25zm-2.036 93.607a101.66 101.66 0 0 0 8.592 14.42s-147.793-46.45-152.324-54.745zm-1.873-124.28l-1.423-4.146L181 52.489l-12.297-6.302 12.488-7.411-13.725 5.626 2.196-13.723-4.455 13.256-3.23-.912c-6.772-10.069-16.078-15.109-27.787-20.725-21.764-10.443-50.773-7.674-50.773-7.674s34.247.436 60.443 15.964a47.416 47.416 0 0 1 13.665 12.68l-5.653.311 6.48.827q.917 1.292 1.768 2.625l-7.522 4.345 8.116-3.407q1.253 2.031 2.376 4.127l-3.209 10.046 3.794-8.942a112.78 112.78 0 0 1 9.946 29.59c-1.573-15.002-4.319-25.696-8.198-33.718l.283-.666s14.201 18.56 11.653 49.002c-2.548 30.441-9.831 41.207-17.115 48.632l-.363-3.714s-10.557 31.557-62.992 30.813c-52.434-.744-56.44-17.818-56.44-17.818l-2.913-1.488s-12.379-9.649-20.026-35.265c-7.647-25.615-.365-46.403-.365-46.403s-4.005 17.076-1.092 34.523c1.51 9.042 6.927 20.467 11.8 29.384a86.562 86.562 0 0 1-8.522-26.414c-2.915-21.903-2.186-36.752 1.455-47.888 3.641-11.135 5.827-15.963 5.827-15.963s-15.293 17.82-15.657 55.685c-.365 37.866 31.678 63.85 45.878 69.42 14.2 5.568 58.988 12.991 85.933-5.94 26.946-18.933 25.124-23.758 33.863-41.208 8.742-17.447 5.099-52.714-6.917-71.647zm-6.377-6.943c-.03-.048-.057-.097-.086-.143l.272.035zm1.251 2.235c-.153-.29-.307-.587-.463-.87l.856-.36zM36.446 45.807c2.184-3.712 13.472-10.394 13.472-10.394a59.584 59.584 0 0 0-13.108 11.88c-6.92 8.166 2.548-.743 15.293-9.282 12.744-8.538 30.586-7.795 30.586-7.795s-5.825-4.455-28.037 2.6l21.483-9.282s-32.77 7.054-42.238 20.417c-9.469 13.364.363 5.568 2.55 1.856zm109.607-1.174c4.019 4.173 6.912 7.856 6.912 7.856s-1.184-3.753-6.912-7.856zM21.516 99.265c4.005 39.35 20.756 56.056 20.756 56.056s12.743 12.621 52.432 14.477c39.689 1.855 52.436-13.735 53.528-16.334s-5.1 1.485-6.92.742c-1.82-.742 5.828-14.478 5.828-14.478-4.006 14.85 2.185-2.227 6.188-.37 4.006 1.854-8.01 6.682-4.003 10.394 4.003 3.712 12.376-22.645 17.84-34.525 5.463-11.878 3.641-24.13 3.278-31.926-.363-7.795-2.185-11.136-2.185-11.136l-1.092 18.562s.729 2.598-5.099-10.396l-4.733-12.621c-3.277 57.912-16.387 79.816-16.387 79.816s-4.733 14.476-42.966 14.848c-38.232.37-43.695-9.654-43.695-9.654-12.38-16.333-19.662-51.228-17.84-74.244 1.82-23.016 0-29.328 16.385-36.381 16.385-7.053 41.145-7.796 41.145-7.796 29.74-.836 44.69 5.04 52.077 10.334a93.174 93.174 0 0 0-2.92-2.909c-5.462-5.196-56.076-15.963-82.656-5.569s-28.401 20.418-26.58 50.859c1.82 30.441 11.288 55.684 17.841 65.336 6.554 9.652 29.858 12.623 29.858 12.623-31.679-.744-35.32-17.447-37.14-20.42-1.821-2.97-7.283-8.91-8.375-4.082-1.092 4.825-10.882-24.685-9.061-26.17 1.82-1.485 13.066 15.034 13.066 15.034s-4.005-8.169-8.01-31.184c-4.006-23.016 2.183-34.524-1.823-35.267-4.005-.742 4.982 33.962-6.49 35.506-3.268.44-.555-30.694.903-37.005 1.455-6.312 3.04-8.153 3.04-8.153s-10.195 6.683-6.19 46.033" fill="url(#c)"/></g><path d="M101.406 159.93a115.964 115.964 0 0 0 17.03-2.228 67.452 67.452 0 0 0 13.008-4.531l.023-.012.024-.01a21.97 21.97 0 0 0 5.504-3.468 13.773 13.773 0 0 0 3.082-4.688c.043-.115 3.74-9.97 6.537-20.497 2.574-9.688 4.34-20.397 4.357-20.504a179.344 179.344 0 0 0 2.759-22.473 169.733 169.733 0 0 0-.508-20.767c-.006-.083-.52-6.588-3.13-10.84a16.424 16.424 0 0 0-6.922-5.718l-.04-.016-.038-.02c-.052-.027-5.311-2.661-15.287-4.831a160.078 160.078 0 0 0-28.172-3.146 171.076 171.076 0 0 0-30.06 1.953 92.682 92.682 0 0 0-16.591 4.281l-.055.02-.056.016c-.065.018-6.556 1.797-9.968 6.13-3.467 4.401-4.029 11.632-4.034 11.705l-.004.043a133.086 133.086 0 0 0-.736 13.952c0 1.37.022 2.785.079 4.22a213.955 213.955 0 0 0 2.188 21.573c.02.111 2.431 13.356 5.18 24.519 2.038 8.275 4.69 15.596 4.717 15.668l.018.052.014.054a29.431 29.431 0 0 0 2.384 6.344 12.06 12.06 0 0 0 3.185 3.593l.03.021.03.025a24.362 24.362 0 0 0 3.266 2.125c2.267 1.241 5.305 2.572 5.434 2.627a75.483 75.483 0 0 0 15.74 3.812 169.67 169.67 0 0 0 21.011 1.017z" stroke="#6d0115" stroke-width="1.193" fill="url(#d)"/><g fill="#6d0115"><path d="M61.395 152.838c-.4-.183-.618-.29-.618-.29-.023-.009-.136-.058-.32-.143l-.068-.397a326.879 326.879 0 0 1-4.783-44.067c-.976-22.84-.939-50.832-.846-64.39v-.981q.4-.134.828-.271l.004.982c-.094 13.443-.138 41.647.844 64.626a325.225 325.225 0 0 0 4.861 44.455l.098.476z"/><path d="M64.005 153.956c-.32-.13-.62-.254-.9-.371l-.077-.612c-1.151-8.21-3.19-24.947-4.158-46.357-1.028-22.761-.842-51.37-.681-64.377l.002-.73q.405-.117.829-.234l.002.807c-.161 12.916-.353 41.657.679 64.498.99 21.895 3.1 38.888 4.231 46.853l.073.523zM83.528 37.984l.987 119.012.016 1.78-.825-.092-.02-1.691c-.176-21.054-.778-93.595-.987-118.9l-.021-.736c.28-.024.558-.047.838-.069zM94.337 37.656l.394 119.94.006 1.681q-.437.006-.837.008v-1.909l-.395-119.992-.004-.564q.404-.006.811-.01zM98.487 37.766c-.123 24.534-.488 98.165-.595 119.831l-.002 1.623-.843.02.012-1.317c.104-21.285.474-95.822.597-120.32l-.02-.791.865.01-.014.944zM109.705 157.166c.597-9.86 1.722-30.765 2.183-54.42.472-24.108.262-51.543.117-64.428l-.047-.83 1.002.091.046 1.063c.144 13.027.347 40.21-.12 64.123-.459 23.458-1.569 44.214-2.168 54.192l-.087 1.425c-.35.042-.651.082-1.006.12l.08-1.336zM138.057 147.393a11.911 11.911 0 0 1-1.306 1.493l.398-2.116a329.118 329.118 0 0 0 5.099-39.214c1.33-19.406 1.5-45.941 1.472-61.02l.018-1.444c.324.179.651.368.979.573l.002 1.925c.019 15.251-.175 41.045-1.476 60.034a329.952 329.952 0 0 1-5.005 38.762l-.18 1.007zM147.648 114.837a326.936 326.936 0 0 0 1.838-18.79c1.004-14.8 1.03-31.566.902-42.237l-.022-1.78a22.612 22.612 0 0 1 1.028 2.81l.02 1.654c.09 10.684-.007 25.983-.932 39.62-.193 2.87-.426 5.676-.684 8.392l-.305 2.999a476.236 476.236 0 0 1-2.343 11.085l.498-3.753z"/><path d="M134.525 150.637c-.315.215-.693.46-1.12.717l.303-1.702a367.097 367.097 0 0 0 5.27-45.08c1.116-21.211 1.12-46.425 1.027-59.332l-.039-1.828c.284.1.62.223.992.372l.046 1.703c.092 12.994.081 38.041-1.03 59.136a368.665 368.665 0 0 1-5.132 44.36zM122.278 154.835c.787-8.53 2.229-26.188 2.921-47.49.778-23.915.781-52.254.724-65.944l-.03-1.947q.52.107 1.025.216l.004 1.884c.056 13.757.05 41.985-.726 65.823-.688 21.162-2.115 38.735-2.905 47.353l-.102 1.047c-.33.097-.66.197-1.026.3l.115-1.242zM118.834 155.64c.864-7.243 2.279-21.284 2.862-39.547.85-26.571.746-60.08.635-75.586l-.02-1.725c.331.056.657.113.98.172l.037 1.803c.11 15.624.212 48.927-.636 75.37-.576 17.98-1.954 31.882-2.825 39.255l-.16 1.335c-.332.08-.686.17-1.036.25l.163-1.326zM116.04 156.228c.674-7.66 1.84-22.83 2.387-41.286.765-25.793.568-58.454.384-75.483l-.02-1.217q.51.068 1.007.142l.018 1.627c.182 17.187.366 49.434-.39 74.96-.54 18.171-1.678 33.163-2.357 40.956l-.125 1.413c-.343.071-.667.137-1.021.205l.116-1.317zM112.797 156.879c.573-8.946 1.655-27.639 2.128-47.69.629-26.652.66-56.384.632-70.301l-.029-1.048q.508.057 1.007.115l.02 1.18c.027 14.026-.007 43.573-.632 70.077-.468 19.811-1.529 38.298-2.107 47.384l-.087 1.34c-.356.06-.644.11-1.01.166zM109.368 38.422c-.042 14.243-.186 46.557-.647 74.12-.32 19.079-.927 35.756-1.28 44.406l-.077 1.765c-.282.023-.565.048-.846.07l.08-1.568c.351-8.555.968-25.392 1.293-44.687.464-27.698.606-60.196.648-74.324l.006-.978c.28.02.56.038.838.059l-.015 1.137zM105.263 37.766c.115 12.57.287 37.17.134 60.353-.167 25.095-.71 49.055-.968 59.371l-.031 1.444-.846.051.039-1.225c.255-10.147.807-34.319.975-59.648.153-23.046-.016-47.497-.131-60.128l-.01-.99.83.04.008.732zM102.002 37.712c.17 14.416.407 40.22.292 64.556-.108 22.641-.592 44.326-.884 55.656l-.025 1.172-.837.036.035-1.373c.292-11.365.772-32.956.88-55.495.115-24.214-.12-49.88-.29-64.334l-.019-1.053.837.024.01.81zM72.641 156.809q-.433-.108-.861-.223l-.05-.539c-.697-7.528-2.1-24.456-2.68-44.328-.742-25.35-.495-57.032-.314-71.95l-.007-.655.838-.142.002.662c-.181 14.85-.432 46.644.311 72.062.588 20.128 2.021 37.231 2.707 44.585l.054.528zM67.011 155.098q-.45-.16-.878-.318l-.068-.623c-1.27-10.596-3.727-33.486-4.505-57.769-.66-20.545-.09-43.475.294-55.007l.015-.845q.413-.1.837-.2l-.01.728c-.383 11.404-.971 34.567-.306 55.299.79 24.626 3.307 47.816 4.557 58.173zM43.364 112.864c-1.015-4.94-1.608-8.548-1.619-8.611l-.142-2.164c-.585-7.392-1.111-15.673-1.234-22.734-.145-8.349-.083-16.697.013-22.94l-.034-.796a25.314 25.314 0 0 1 .925-2.906l-.07 4.44c-.09 6.15-.142 14.168-.002 22.19.155 8.933.958 19.827 1.709 28.388zM50.586 139.227a259.263 259.263 0 0 1-1.919-5.855l-.506-2.92a208.774 208.774 0 0 1-2.77-22.033c-1.693-20.761-1.779-44.727-1.672-57.484l.02-2.348c.264-.288.537-.56.814-.815l.005 2.22c-.119 12.472-.072 37.105 1.663 58.373a231.647 231.647 0 0 0 3.428 25.805l.937 5.057zM54.67 143.595a291.129 291.129 0 0 1-4.903-35.022c-1.692-22.023-1.634-47.94-1.467-60.76l.02-2.648c-.243.124-.532.28-.853.469l.001 2.207c-.166 12.85-.222 38.764 1.47 60.794a292.163 292.163 0 0 0 4.884 34.958l1.061 5.008a10.283 10.283 0 0 0 1.053 1.03zM69.701 155.533c-.772-6.943-2.137-21.002-2.703-37.97-.93-27.919-.996-62.764-.978-77.238l-.008-.706-.84.17.017.615c-.018 14.529.05 49.307.978 77.185.554 16.592 1.87 30.41 2.653 37.53l.065.613q.427.139.865.271z"/><path d="M52.043 43.543q-.46.176-.847.333l-.015 1.248c-.279 13.03-.644 39.08.392 56.198a360.65 360.65 0 0 0 6.014 48.873l.14.727c.32.2.683.415.982.584l-.187-.893a356.925 356.925 0 0 1-6.12-49.34c-1.042-17.231-.662-43.545-.383-56.45l.024-1.312M73.144 38.423l-.84.12.014.698c-.144 13.571-.329 40.41.11 63.907.418 22.344 1.788 42.718 2.561 52.806l.099 1.403q.425.086.85.168l-.09-1.238c-.766-9.932-2.166-30.533-2.59-53.154-.44-23.525-.254-50.4-.11-63.947l-.004-.763zM76.672 37.966l-.849.103-.002.68c-.215 11.065-.534 33.959-.068 56.754.503 25.922 1.86 50.396 2.515 61.147l.075 1.301c.287.046.57.092.853.134l-.094-1.421c-.654-10.71-2.015-35.216-2.518-61.178-.466-22.83-.145-45.76.07-56.79zM80.07 37.596c-.276.026-.553.055-.83.084l-.005.688c-.093 11.876-.221 36.842.064 61.065.277 23.49.986 46.713 1.34 57.348l.051 1.524c.282.04.56.077.836.113l-.055-1.642c-.355-10.623-1.065-33.855-1.341-57.354-.287-24.333-.156-49.418-.063-61.22zM87.279 37.035l-.868.05.02.464.796 120.047.014 1.44.836.069-.018-1.454-.796-120.158zM90.777 36.879l-.848.029.021.803c.043 23.039.177 97.263.217 119.555l-.013 1.983c.217.014.373.021.463.026l.38.005.002-2.067-.218-119.501zM125.099 153.705c1.2-10.105 3.38-30.99 4.304-56.033.687-18.642.142-43.652-.218-56.157l-.064-1.347c.35.083.688.165 1.02.248l.05 1.384c.358 12.618.891 37.394.208 55.908-.921 25.011-3.096 45.883-4.3 56.037l-.145 1.157c-.297.101-.646.218-1.048.346l.193-1.543z"/><path d="M129.265 152.26c.971-8.796 2.676-26.182 3.703-47.87.986-20.823.935-47.709.815-61.963l-.02-1.037q-.483-.14-1.007-.285l.029 1.23c.12 14.216.173 41.16-.814 62.01-1.039 21.95-2.772 39.485-3.735 48.151l-.185 1.572 1.035-.478zM132.32 150.33c1.176-7.872 2.777-20.745 3.684-37.188 1.35-24.459 1.594-55.661 1.632-69.61l-.02-.926q-.422-.147-.988-.334l.011.936c-.035 13.777-.272 45.253-1.632 69.88-.944 17.113-2.639 30.343-3.821 38.077l-.23 1.52c.368-.184.736-.373 1.09-.561l.275-1.793zM141.048 140.128s.895-2.467 2-5.994l.418-2.742c1.36-9.098 2.794-20.446 3.747-32.742 1.266-16.368.99-36.306.637-48.308l-.077-2.265a13.456 13.456 0 0 0-1.043-.964l.081 1.844c.368 11.776.72 32.631-.594 49.62-1.105 14.278-2.863 27.273-4.397 36.94l-.772 4.61z"/></g><g fill-rule="evenodd"><g fill="#1a1a1a"><path d="M70.612 104.345v-8.638h-7.408l.028-21.741h9.671l-.052-8.73H52.746l1.817 66.816h8.835l-.194-27.707h7.408zM76.343 65.236l1.118 66.816h9.122l.186-66.816H76.343zM134.934 132.052l1.874-58.398h7.147l-.055-8.418h-24.791v8.428h7.206l-.207 58.388h8.826zM100.526 96.16l.1-22.695h5.093c2.31 5.054 3.793 11.739 4.956 22.695zm-8.139 35.89h8.445l.094-27.629h10.12c.795 4.877.99 19.93 1.038 27.63h8.192c.773-34.112-1.628-53.393-8.262-66.815h-20.4z"/></g><path fill="url(#a)" d="M71.693 94.51h-7.427l.028-21.741h9.696l-.052-8.73H53.782l1.822 66.815h8.856l-.194-27.707h7.427V94.51z"/><path fill="url(#e)" d="M87.89 64.039H77.438l1.121 66.815h9.145l.186-66.815z"/><path fill="url(#f)" d="M127.328 130.854h8.849l1.879-58.397h7.164l-.055-8.418h-24.853v8.428h7.224l-.208 58.387z"/><path d="M101.682 94.963l.1-22.695h5.106c2.315 5.054 3.803 11.739 4.969 22.695zm-8.16 35.89h8.467l.095-27.63h10.144c.798 4.877.993 19.93 1.04 27.63h8.214c.775-34.111-1.633-53.392-8.284-66.814h-20.45z" fill="url(#g)"/></g></svg>