<svg xmlns="http://www.w3.org/2000/svg" viewBox="0 0 192 192"><path d="M95.888 45.098c-49.308 0-89.022 14.726-89.022 33.467 0 18.519 39.937 33.467 89.022 33.467s89.246-14.948 89.246-33.467-39.937-33.467-89.246-33.467z" fill="#233a74"/><path d="M148.32 68.971c.223-.223 0-.446-.223-.446h-4.462c-.223 0-.446 0-.67.446-.446.893-6.916 10.487-8.032 12.272-.223.223-.446.223-.446 0a4.414 4.414 0 0 0-2.454-2.9 8.672 8.672 0 0 0-3.347-.447 10.868 10.868 0 0 0-5.578 2.677c-2.454 1.785-4.462 4.24-7.362 6.024-1.562.893-3.57 1.785-4.909.447-1.339-1.116-1.116-3.57.893-5.578.223-.223.446 0 .446.223a2.518 2.518 0 0 0 .67 2.454 2.363 2.363 0 0 0 2.9.223 4.339 4.339 0 0 0 2.008-3.123 3.556 3.556 0 0 0-3.124-4.016 6.82 6.82 0 0 0-4.462 1.561 16.225 16.225 0 0 0-1.785 2.008c-.223.224-.446.224-.446 0 0-2.454-.893-4.016-3.124-4.016a7.98 7.98 0 0 0-4.685 2.008 38.028 38.028 0 0 0-4.24 4.24c-.223.223-.223.223-.446-.223a7.08 7.08 0 0 0-1.338-4.463.84.84 0 0 0-1.34-.223c-.222.223-1.115.446-1.561.893a.981.981 0 0 0-.223 1.115 11.777 11.777 0 0 1-.446 7.81 8.214 8.214 0 0 1-4.909 4.908 3.179 3.179 0 0 1-3.793-1.116c-1.338-1.785-.669-4.685 1.116-7.363a13.102 13.102 0 0 1 6.47-4.462c.223 0 .446-.223.223-.446a3.77 3.77 0 0 1-.446-1.116c-.223-.67-.892-.67-1.562-.67a18.034 18.034 0 0 0-4.908 1.563c-4.016 2.23-6.024 6.47-6.917 8.701a12.098 12.098 0 0 1-1.339 2.454 17.305 17.305 0 0 1-2.9 2.9v.224c.223.223.892 1.339 1.116 1.562s.446 0 .669-.223a16.674 16.674 0 0 0 2.9-2.455c.224-.223.447-.223.447.223a6.36 6.36 0 0 0 4.016 4.24c3.793 1.338 7.586-.67 10.486-3.793a37.228 37.228 0 0 0 3.124-4.24 29.687 29.687 0 0 1 6.47-6.916c1.116-.892 2.231-1.339 2.9-.892.447.223.67 1.115-.223 2.454-2.9 5.355-7.14 11.379-7.809 12.94-.223.224 0 .447.223.447h4.463c.223 0 .223-.223.446-.223 2.231-3.347 4.24-6.694 6.47-10.04.223-.224.223 0 .223 0a5.94 5.94 0 0 0 .67 2.677 3.701 3.701 0 0 0 3.346 1.785 5.94 5.94 0 0 0 2.678-.67 20.637 20.637 0 0 1 2.23-1.115c.224-.223.447.223.447.223-.446 2.677.223 6.024 2.9 7.363 3.347 1.561 6.917-.67 8.925-2.678.223-.223.446-.223.446.223a4.068 4.068 0 0 0 1.116 2.455c1.785 1.785 5.132 1.115 8.701-1.562a47.418 47.418 0 0 0 6.694-6.694.309.309 0 0 0 0-.446c-.223-.446-.893-.67-1.116-1.115a.309.309 0 0 0-.446 0c-2.231 2.008-4.24 4.462-6.916 6.47-.893.67-2.455 1.115-3.124.223a1.887 1.887 0 0 1 0-1.562c.67-2.23 13.61-22.088 14.28-23.204zm-17.18 16.734c0 .223.224.223.447.446v.223a20.37 20.37 0 0 1-1.785 2.9 11.694 11.694 0 0 1-2.231 2.455c-1.34 1.116-3.124 2.231-4.686 1.562a2.422 2.422 0 0 1-.892-2.008c0-2.231.892-4.24 2.677-6.47 2.231-2.678 4.462-4.016 6.024-3.347s1.116 2.677.446 4.016v.223z" fill="#fff"/><path d="M53.72 96.86c-4.909 0-9.148-2.9-9.594-8.255a10.249 10.249 0 0 1 2.231-7.585 10.804 10.804 0 0 1 6.024-3.793 2.14 2.14 0 0 1 2.008.446 1.05 1.05 0 0 1-.223 1.785c-1.562.892-3.57 2.23-4.462 4.016a5.283 5.283 0 0 0 .223 5.131c2.008 2.9 7.363 3.124 12.494-1.785a26.985 26.985 0 0 0 3.57-3.57c2.231-2.454 2.9-3.57 6.024-7.585v-.223h-.223a7.995 7.995 0 0 0-5.355 2.008 1.102 1.102 0 0 1-1.561-.223c-.447-.447 0-1.116.446-1.562 2.677-1.785 5.578-2.231 8.701-2.678a.691.691 0 0 0 .447-.223c1.338-1.562 2.23-3.123 3.57-4.685a39.038 39.038 0 0 1 4.462-4.24 16.066 16.066 0 0 1 4.239-2.677c.223-.223 0-.446-.223-.446-6.694-1.339-13.61-2.9-20.08-.446-4.686 1.785-6.694 5.355-5.578 7.809.669 1.785 2.9 2.008 5.131.892a11.019 11.019 0 0 0 4.463-4.016c.669-.892 2.008-.223 1.338 1.34-2.008 4.461-5.578 8.254-10.04 8.254-3.793.223-6.247-2.677-6.247-6.247 0-6.916 7.586-11.379 15.618-12.048 9.594-.893 18.741 1.785 28.335 2.9a60.171 60.171 0 0 0 21.865-.892 1.053 1.053 0 0 1 1.34 1.339c0 1.338-1.116 2.454-3.57 3.793a16.69 16.69 0 0 1-8.702 2.008c-7.363 0-14.056-2.9-21.196-4.24a1.341 1.341 0 0 1-.223.893c-3.793 2.9-7.363 5.8-9.817 9.817v.223c2.008 0 3.793-.223 5.8-.223.447 0 .447 0 .224-.446a4.688 4.688 0 0 1 1.562-4.24c1.339-1.115 2.9-1.338 4.016-.446a3.04 3.04 0 0 1 .446 3.793 4.062 4.062 0 0 1-2.9 2.231.219.219 0 0 0-.224.223c0 .224 1.562 1.116 1.562 1.34.223.222 0 .445-.223.668s-.446.447-.67.224a.82.82 0 0 1-.669-.224 6.948 6.948 0 0 1-2.008-1.561c-.446.669-.446.669-.892.669-2.008.223-5.355.446-7.586.67-.446 0-.67.222-.67.446-3.569 5.8-7.139 12.048-11.378 16.064-4.24 4.462-8.032 5.578-11.825 5.578zm33.244-25.434c0 .223.223.446.223.223a3.47 3.47 0 0 0 1.785-1.339c.446-.67.67-1.339.223-1.785a1.051 1.051 0 0 0-1.339.223 3.066 3.066 0 0 0-.892 2.678" fill="#fff"/><path d="M95.888 109.132c-47.077 0-85.229-13.833-85.229-30.567C10.659 61.61 48.811 48 96.112 48c47.077 0 85.452 13.61 85.452 30.566-.223 16.734-38.375 30.567-85.676 30.567zm0-58.679c-45.515 0-82.328 12.717-82.328 28.112s36.813 27.89 82.328 27.89 82.33-12.495 82.33-27.89c.222-15.395-36.814-28.112-82.33-28.112z" fill="#fff"/><g fill="#233a74"><path d="M37.6 138.299c0-5.956 3.142-8.438 8.602-8.438 3.309 0 5.294.993 6.618 2.316l-2.482 2.482a5.351 5.351 0 0 0-4.136-1.489c-3.64 0-4.963 1.82-4.963 5.129 0 3.64.992 5.294 4.963 5.294 3.143 0 4.136-.993 4.136-3.309v-.165h-4.632v-2.978h8.272v2.647c0 4.632-1.82 7.114-7.941 7.114-6.618 0-8.438-2.978-8.438-8.603zM55.467 140.284c0-4.301 1.82-6.618 6.617-6.618s6.618 2.317 6.618 6.618-1.82 6.618-6.618 6.618-6.617-2.316-6.617-6.618zm9.595.166c0-2.151-.661-3.475-3.143-3.475s-3.143 1.324-3.143 3.475.661 3.474 3.143 3.474 3.143-1.324 3.143-3.474zM74.823 130.192h11.912v3.309h-8.272v3.474h8.107v3.31h-8.107v6.451h-3.64zM88.555 140.78v-6.783h3.474v6.783c0 1.82 0 2.978 2.482 2.978s2.482-1.323 2.482-2.978v-6.783h3.474v6.618c0 4.301-1.158 6.121-5.956 6.121-4.798.166-5.956-1.654-5.956-5.956zM102.121 134.163l2.647-.166.331 1.324c.497-.827 1.986-1.49 3.97-1.49v3.31c-2.977 0-3.639 1.158-3.639 3.143v6.287h-3.474v-12.408zM110.063 133.997h2.15l.662-3.143 2.647-.496v3.64h2.978v2.977h-2.978v5.129c0 .993.166 1.489 1.655 1.489h1.323v2.978h-1.985c-3.475 0-4.302-1.158-4.302-3.97v-5.626h-1.985v-2.978zM120.154 129.365h3.475v5.46c.496-.497 1.654-1.159 4.136-1.159 3.805 0 4.467 2.151 4.467 5.295v7.61h-3.475v-6.949c0-1.489-.165-2.647-2.316-2.647-2.481 0-2.812 1.158-2.812 2.813v6.783h-3.475zM133.72 140.284c0-3.474 1.159-6.618 6.453-6.618 5.46 0 5.79 3.64 5.625 7.942h-8.768c.165 1.489.992 2.481 3.143 2.481a6.3 6.3 0 0 0 3.97-1.158l1.82 2.316a8.929 8.929 0 0 1-5.79 1.655c-5.294 0-6.452-2.978-6.452-6.618zm3.31-1.158h5.625c-.166-1.489-.331-2.482-2.482-2.482s-2.978.993-3.143 2.482zM147.452 134.163l2.647-.166.331 1.324c.497-.827 1.986-1.49 3.97-1.49v3.31c-2.977 0-3.639 1.158-3.639 3.143v6.287h-3.474v-12.408z"/></g></svg>