<svg xmlns="http://www.w3.org/2000/svg" viewBox="0 0 192 192"><g fill="#002c5f"><path d="M96.84 107.554c34.297 0 62.154-14.278 62.154-31.777C158.994 58.14 131.137 44 96.84 44S34.686 58.279 34.686 75.777s27.857 31.777 62.154 31.777zm11.619-15.678c-.98 2.38-2.8 7.559-6.86 9.519a10.85 10.85 0 0 1-4.2.98h-.56a105.471 105.471 0 0 1-31.076-4.34.489.489 0 0 1-.28-.14c-.84-.28-1.26-.7-1.26-1.12a1.417 1.417 0 0 1 .56-.98l.56-.56c2.1-1.68 8.26-6.16 20.018-10.639a99.398 99.398 0 0 1 14.559-4.62c3.08-.56 14.698-2.379 8.539 11.9zm31.357-32.057c.28-.42.56-.7.98-.7a1.865 1.865 0 0 1 1.26.42c7.28 4.48 11.619 10.079 11.619 16.098 0 10.92-14.139 20.438-34.297 24.498-1.26.28-2.1.28-2.52-.14a.813.813 0 0 1 0-.98 2.457 2.457 0 0 1 .56-.7c10.92-13.019 19.318-32.057 21.698-37.516a2.143 2.143 0 0 0 .7-.98zm-54.595-.42c.98-2.38 2.8-7.56 6.86-9.52a10.85 10.85 0 0 1 4.199-.98h.56a105.471 105.471 0 0 1 31.077 4.34l.28.14c.84.28 1.26.7 1.26 1.12a1.417 1.417 0 0 1-.56.98l-.56.56c-2.1 1.68-8.26 6.16-20.018 10.639a99.4 99.4 0 0 1-14.559 4.62c-2.94.7-14.698 2.52-8.539-11.9zm-11.199-8.26c1.26-.28 2.1-.28 2.52.14a.813.813 0 0 1 0 .98 2.457 2.457 0 0 1-.56.7c-11.06 13.019-19.458 32.057-21.838 37.657a6.087 6.087 0 0 1-.56.98c-.28.42-.56.7-.98.7a1.865 1.865 0 0 1-1.26-.42c-7.28-4.48-11.619-10.08-11.619-16.239 0-10.919 14.139-20.298 34.297-24.498zM25.166 120.293v9.66H14.107v-9.66H8.088v25.478h6.02v-10.22h11.058v10.22h6.02v-25.478h-.28m22.538 0l-6.44 10.08-6.299-10.08h-7.14l10.5 16.659v8.819h6.02v-8.82l10.498-16.658h-.56m20.018 0v18.618a1.255 1.255 0 0 1-1.26 1.26h-9.659v-19.878h-6.019v25.478h17.918a4.863 4.863 0 0 0 3.78-1.4 5.067 5.067 0 0 0 1.4-3.78v-20.298zm29.538 0H91.66v25.478h6.02v-20.018h9.659a1.175 1.175 0 0 1 1.26 1.26v18.618h6.02v-20.158a4.863 4.863 0 0 0-1.4-3.78c-.7-.98-1.96-1.4-3.64-1.4zm28.697 0h-17.918v25.478h17.918a4.827 4.827 0 0 0 5.18-5.18v-15.118a4.863 4.863 0 0 0-1.4-3.78 4.672 4.672 0 0 0-3.78-1.4zm-.84 6.86v11.758a1.255 1.255 0 0 1-1.26 1.26h-9.659v-14.418h9.66a1.293 1.293 0 0 1 1.26 1.4zm16.659-6.86a4.863 4.863 0 0 0-3.78 1.4 5.067 5.067 0 0 0-1.4 3.78v20.298h6.02v-7.84h11.059v7.84h6.019v-25.478zm11.759 5.46v6.579h-11.06v-5.32a1.25 1.25 0 0 1 1.26-1.26zm12.038-5.46h6.02v25.478h-6.02z"/></g></svg>