<svg xmlns="http://www.w3.org/2000/svg" viewBox="0 0 192 192"><path d="M40.992 60.583c.147.005.316.009.515.012a5.714 5.714 0 0 0 2.323-.602 2.875 2.875 0 0 0 .675-.377c-.56-.006-1.458-.015-1.793-.015a2.761 2.761 0 0 0-2.228.903c-.005.046.195.066.508.079zm135.459 38.93c-.828-1.842-3.109-1.243-3.109-1.243-1.079.226-2.31 1.461-4.138 2.002a11.216 11.216 0 0 1-7.062-.189c-6.045-2.613-25.478-13.738-35.361-18.599 0 0-11.483-5.317-28.145-11.914 0 0-32.734-13.97-54.588-12.823 0 0-11.648.307-15.314 5.446a1.469 1.469 0 0 0-.27 1.474.39.39 0 0 1-.076.365 20.355 20.355 0 0 0-2.96 3.32 1.76 1.76 0 0 0-.02 2.191 2.376 2.376 0 0 1 .46.471 12.71 12.71 0 0 0 .9 1.571 3.28 3.28 0 0 0 2.991 1.408c.647-.113.65-.295.65-.295a2.94 2.94 0 0 0 1.906.7 13.618 13.618 0 0 1-.726-1.917 3.19 3.19 0 0 1 .098-1.18 5.132 5.132 0 0 1 1.06-1.978 1.834 1.834 0 0 1 2.209-.277c.647.458 1.419 1.952.776 4.082-.028.162-.737 1.674-1.495 1.904a.77.77 0 0 1-.216.023 4.385 4.385 0 0 1-1.463-.536 2.283 2.283 0 0 0 .111.687c.085.316.196.662.287.93 0 0-.184.33-.305.523-.159.206-.337.958.056 1.243a7.848 7.848 0 0 0 3.317 1.244 1.629 1.629 0 0 0 1.55-.69 18.562 18.562 0 0 1 2.326-2.91 12.867 12.867 0 0 1 5.74-2.774c.223-.029 3.884-1.048 10.11 3.93-1.78.143-3.896.568-5.51.854-4.611.823-7.57 5.173-8.432 6.942a4.225 4.225 0 0 0 2.341 6.21 8.463 8.463 0 0 0 6.456-4.98 2.231 2.231 0 0 1 2.793-1.376c1.328.43 13.057 4.53 15.698 5.224 0 0 7.854 2.045 10.811-1.566 4.727 1.551 9.165 2.303 20.787.802a23.945 23.945 0 0 1 3.605-.202 8.607 8.607 0 0 1 5.945 3.229c3.055 4.89 6.933 14.61 20.395 13.425l6.087-.55c3.716-.22 6.74-.366 9.81 1.248a14.199 14.199 0 0 1 4.342 3.122c3.103 2.952 5.956 6.142 9.752 4.4 1.345-.62 2.86-3.025 2.86-3.025a4.363 4.363 0 0 0-1.843-3.056c3.448.82 11.227 1.35 14.237-3.911a3.314 3.314 0 0 0 .567-2.978zm-1.228 2.485c-.295 1.019-1.75 2.383-3.52 3.167a17.642 17.642 0 0 1-7.98.683 14.386 14.386 0 0 1-8.144-4.411c-1.2-1.253-2.673-2.675-4.036-4.079a7.578 7.578 0 0 0-4.523-2.428c-2.553-.345-8.786-.514-11.13-1.293-1.568-.52-3.457-1.583-5.972-5.306a9.971 9.971 0 0 0-3.715-3.316 9.08 9.08 0 0 1 1.977 2.268c1.033 1.84 1.553 3.18 2.115 4.16a8.796 8.796 0 0 0 2.157 2.626 5.751 5.751 0 0 0 3.226 1.352 89.201 89.201 0 0 0 8.989.115 8.347 8.347 0 0 1 6.249 2.056c1.072.9 2.908 3.482 4.036 4.612a16.593 16.593 0 0 0 4.99 4.05c.924.468 2.437 1.618 2.359 2.727-1.196 1.197-2.68 1.512-6.242.56a5.178 5.178 0 0 0 5.306 1.279 4.063 4.063 0 0 1-2.89 1.093c-3.338-.185-6.608-4.298-8.44-5.815a36.64 36.64 0 0 0-3.921-3.081c-3.594-2.49-11.659-1.787-11.659-1.787l-5.917.308c-11.526.871-16.365-9.339-17.641-11.469a17.869 17.869 0 0 0-1.226-1.82c-.59-.784-3.738-4.868-6.922-6.211 0 0 3.128 2.693 2.944 4.476 0 0-1.296-.604-4.824-.099-15.183 2.162-20.35-1.638-20.35-1.638.705-3.041-1.42-6.163-1.42-6.163 1.171.372 8.637 2.892 15.726 1.452 0 0-11.536.063-19.625-6.39 0 0 5.034 6.307 3.838 10.438 0 0-.826 4.4-9.6 2.626-.937-.185-2.039-.5-15.174-4.143-3.087-.924-4.153.552-4.71 1.436-.024 1.298-1.554 2.813-2.325 3.29-4.064-.734-2.445-4.505-2.445-4.505-2.56 3.658.121 5.276.97 5.39a15.045 15.045 0 0 1-1.395.574s-3.322-1.977-1.466-5.22c2.589-4.517 5.224-5.968 10.06-6.408a24.897 24.897 0 0 1 5.218-.169c3.508.484 5.704 2.464 10.957 2.975-11.146-3.282-11.171-9.739-11.21-9.861l-.004-.013a8.479 8.479 0 0 0 .266 5.44c-.154-.054-2.591-1.656-3.52-2.22a20.518 20.518 0 0 0-7.163-2.871c-1.327-.17-1.945-1.781-1.945-1.781-.046-.083-.094-.159-.14-.236-1.846-3.153-3.67-3.216-3.67-3.216a6.634 6.634 0 0 1 1.047 3.389c.547 3.918-3.886 5.126-3.886 5.126-2.718 3.448-2.576 3.52-3.18 3.61a5.098 5.098 0 0 1-1.933-.592.542.542 0 0 1 .09-.643c.51-.405.926-.806.926-.806 2.873-2.939 3.217-4.373 2.862-6.277-.726-3.821-3.456-3.375-3.456-3.375a2.366 2.366 0 0 0-1.864 1.222c-.455.705-1.424 2.858-1.424 2.858-.592 1.285-1.197 1.575-1.51 1.632a2.968 2.968 0 0 1-.474.018 2.557 2.557 0 0 1-1.625-.886 2.103 2.103 0 0 1-.115-.126 1.917 1.917 0 0 1-.232-2.09 4.864 4.864 0 0 1 3.648-3.078c.308-.04 1.325-.187 1.325-.187 2.81-.472 4.136-3.397 4.136-3.397a21.94 21.94 0 0 0-2.819.103c-1.863.327-2.496 2.52-2.496 2.516-1.578.361-1.537-.994-1.26-1.407.247-.383 1.174-2.01 7.23-3.41 0 0 2.987-.9 9.371-.611l-.263.489a5.876 5.876 0 0 1-6.504 2.453s.034 1.645 4.048 2.233c0 0 3.628.649 9.783 5.595 0 0-2.943-5.847-7.94-7.36 0 0-.623-.134-.318-.525a12.137 12.137 0 0 1 7.055-2.979s13.455-1.296 20.923 8.982a40.328 40.328 0 0 0-3.956-6.268s7.811 2.206 19.823 6.383c0 0 8.198 2.907 13.443 4.976 7.08 2.79 24.784 9.678 36.08 15.834 2.015 1.097 22.442 11.749 22.442 11.749 5.656 2.54 9.57.996 9.57.996 1.273-.484 3.583-2.258 4.593-1.255a1.73 1.73 0 0 1 .341 1.904zM31.37 64.172s.12-.352.152-.438c.035-.085.37-1.003 1.203-1.09 0 0 .484-.028 1.228-.028a2.27 2.27 0 0 1-1.797 1.422 6.906 6.906 0 0 1-.786.134z" fill="#1d1d1b"/><path d="M39.653 130.102h12.249l-6.134-7.12zm13.796 1.798H38.11l-2.543 2.962h-3l12.063-13.906h5.101l12.074 13.906H56zm76.759-1.798h12.249l-6.134-7.12zm13.796 1.798h-15.339l-2.543 2.962h-3l12.063-13.906h5.102l12.073 13.906h-5.805zm-113.8-10.944v6.78a5.994 5.994 0 0 1-1.546 4.591c-1.82 1.863-5.31 2.535-10.247 2.535H8v-1.868h9.584c2.941 0 4.93-.487 6.126-1.67a5.253 5.253 0 0 0 1.316-4.003v-6.365zm54.137 12.047v-4.528h5.152v6.385H74.51a18.201 18.201 0 0 1-6.692-1.001 5.962 5.962 0 0 1-4.057-5.977 6.059 6.059 0 0 1 3.151-5.473c1.875-1.05 3.989-1.455 7.507-1.455h14.547v1.86H76.032c-2.771 0-4.282.416-5.432 1.353a5.237 5.237 0 0 0 .099 7.567c1.153.877 2.708 1.267 5.376 1.267zm90.51-3.054a11.113 11.113 0 0 0 4.867-1.042 3.794 3.794 0 0 0 1.947-3.44 3.71 3.71 0 0 0-2.344-3.715c-1.344-.59-3.005-.794-6.313-.794h-16.051v13.904h5.176v-4.82h6.801l7.76 4.82H183zm-2.517-7.24c1.94 0 2.8.18 3.39.622a2.323 2.323 0 0 1 .762 2.06v.26a2.334 2.334 0 0 1-.876 2.091c-.65.45-1.559.55-3.214.55h-10.263v-5.583zm-51.495-1.753v6.928a6.848 6.848 0 0 1-1.1 4.397c-1.472 1.93-4.169 3.04-11.692 3.04h-.078c-7.483 0-10.195-1.11-11.664-3.039a6.851 6.851 0 0 1-1.099-4.396v-6.93h5.177v6.732a6.07 6.07 0 0 0 .89 3.8c1.119 1.578 3.053 2.148 6.53 2.148h.44c3.635 0 5.41-.572 6.53-2.15a6.152 6.152 0 0 0 .889-3.793v-6.737z" fill="#26201f"/></svg>