<svg xmlns="http://www.w3.org/2000/svg" viewBox="0 0 192 192"><path d="M95.768 179.7c-1.672-.63-13.842-6.558-17.124-8.342-22.712-12.341-37.825-27.174-50.143-49.207-8.322-14.89-12.757-30.765-14.212-50.883-.328-4.532-.162-19.48.273-24.752l.189-2.302 3.31-2.532c12.047-9.206 26.364-17.066 38.961-21.385a133.94 133.94 0 0 1 24.643-5.643c6.47-.878 22.055-.953 28.351-.135 15.12 1.964 26.672 5.356 39.428 11.578a147.734 147.734 0 0 1 27.575 17.54l1.053.864.327 5.899a229.51 229.51 0 0 1-.432 26.863 121.075 121.075 0 0 1-4.809 23.57 85.474 85.474 0 0 1-6.744 17.057 117.845 117.845 0 0 1-22.848 31.818c-11.09 11.066-21.729 18.224-39.934 26.856-6.753 3.205-7.206 3.386-7.864 3.138zm-58.364-58.268c-.319-.523-1.493-2.78-2.61-5.01a113.72 113.72 0 0 1-11.422-39.256 231.147 231.147 0 0 1-.495-25.038l.252-3.31-.808-1.12c-.999-1.395-.999-1.503.011-1.706a7.502 7.502 0 0 0 2.23-1.266A144.827 144.827 0 0 1 39.907 34.65c7.06-3.817 7.602-4.012 23.054-8.294 6.169-1.71 11.417-2.983 15.395-3.742 2.614-.495 3.81-.999 2.379-.999a1.293 1.293 0 0 1-.95-.306c-.303-.486.69-1.04 3.322-1.86a16.21 16.21 0 0 0 2.704-1.007c.526-.5-1.387-.63-4.687-.316-16.926 1.606-35.436 8.564-51.691 19.428-2.376 1.586-5.845 3.908-7.716 5.157l-3.402 2.277 1.171 1.08c1.071.985 1.152 1.16.954 2.058-.338 1.52-.207 18.623.18 23.284a119 119 0 0 0 5.403 27.63c2.74 8.85 7.172 18.015 10.88 22.5 1.045 1.27 1.31 1.215.505-.104zm124.784-6.56c3.874-7.685 5.699-12.414 7.284-18.852.81-3.284 1.435-7.978 1.01-7.59a51.994 51.994 0 0 0-1.458 5.035c-2.76 10.614-4.814 16.327-8.688 24.136-1.179 2.379-1.877 3.996-1.558 3.6.324-.398 1.856-3.246 3.411-6.33zM48.855 59.336c0-.154.249-.413.548-.575a4.626 4.626 0 0 0 1.218-1.377 37.144 37.144 0 0 1 2.858-3.53A56.724 56.724 0 0 1 72.93 39.137a53.997 53.997 0 0 1 10.172-3.569 29.667 29.667 0 0 0 4.157-1.31 1.836 1.836 0 0 1 1.009-.283c.702-.019.692-.037-.224-.495-.905-.451-1.126-.442-4.028.156a57.192 57.192 0 0 0-29.032 16.005 51.654 51.654 0 0 0-7.06 9.103 14.306 14.306 0 0 1-1.053 1.799c-.275.338-.297.502-.075.502.183 0 .332.214.332.475 0 .284.35-.008.864-.715a5.793 5.793 0 0 0 .864-1.471z" fill="#e6e7e9"/><path d="M91.45 177.218c-10.92-5.149-17.689-8.849-24.318-13.286-16.874-11.295-29.671-25.73-39.678-44.757A115.053 115.053 0 0 1 16.189 84.2c-1.377-8.77-1.674-14.09-1.465-26.17.101-6.015.262-11.495.355-12.18.155-1.16.347-1.385 2.94-3.452C31.24 31.868 48.446 23.018 63.941 18.771a117.589 117.589 0 0 1 32.403-4.374 117.956 117.956 0 0 1 30.36 3.818c16.8 4.198 35.095 13.731 50.696 26.418.896.729 1.093 22.784.277 31.098a119.834 119.834 0 0 1-5.07 25.462c-3.281 10.917-7.25 19.149-14.512 30.086a103.495 103.495 0 0 1-14.674 18.002c-9.918 9.905-19.925 16.915-34.67 24.285-6.38 3.19-11.97 5.778-12.462 5.764a50.562 50.562 0 0 1-4.838-2.11zm12.157-4.288c7.766-3.928 10.822-5.718 12.567-7.357l9.521-5.2 15.916-11.629 21.293-28.807 11.214-31.328 2.039-25.516-1.175-16.928-16.752-12.628-20.607-9.756c-5.775-2.643-18.248-5.82-28.33-7.21a149.203 149.203 0 0 0-24.084-.31c-11.969 1.2-23.12 3.874-32.09 7.697C42.223 28.6 36.278 31.86 25.404 39.15c-7.468 5.004-7.78 5.251-7.972 6.285-.108.591-.283 4.444-.391 8.561-.641 24.29 3.442 45.027 12.383 62.875 14.097 26.976 37.716 49.083 66.699 59.286.814.014 2.628-.77 7.483-3.226z" fill="#acafb3"/><path d="M91.164 165.78c-15.321-7.955-24.42-14.292-33.403-23.267a105.956 105.956 0 0 1-19.526-26.094c-9.827-17.923-13.613-37.852-11.922-62.801l.184-2.686 2.762-2.083c12.804-9.662 26.328-16.504 39.313-19.89a96.537 96.537 0 0 1 27.485-3.442 95.5 95.5 0 0 1 24.609 2.691c11.765 2.64 24.53 8.302 35.975 15.96 4.714 3.155 9.206 6.568 9.47 7.198.144.342.274 5.932.287 12.42.027 10.77-.027 12.216-.625 16.55-2.43 17.667-7.34 30.762-16.939 45.185a110.214 110.214 0 0 1-37.668 34.974c-3.061 1.759-13.807 7.488-14.534 7.749a30.078 30.078 0 0 1-5.465-2.463z" fill="#1d3764"/><path d="M102.613 148.238a59.595 59.595 0 0 0 28.923-11.281 75.165 75.165 0 0 0 10.368-10 60.996 60.996 0 0 0 12.194-25.756c.745-3.518.796-4.182.801-11.083.007-6.394-.072-7.762-.626-10.648a59.38 59.38 0 0 0-29.192-40.78 61.375 61.375 0 0 0-19.096-6.734 72.965 72.965 0 0 0-17.557-.31A59.384 59.384 0 0 0 51.81 51.41a58.294 58.294 0 0 0-12.014 54.825 59.392 59.392 0 0 0 31.075 36.589 64.465 64.465 0 0 0 18.852 5.4 78.265 78.265 0 0 0 12.889.013zm-14.903-7.314c-17.826-3.01-33.31-15.381-39.732-31.746a47.472 47.472 0 0 1-3.645-17.58 46.566 46.566 0 0 1 1.354-13.999c5.045-20.035 20.519-34.853 40.399-38.687 4.414-.853 4.725-.826 5.26.459 1.209 2.886 2.309 8.865 3.416 18.51.464.877-.121 7.542 1.806 6.73.365-.229.554-.913.716-2.583 1.165-12.028 3.042-22.006 4.406-23.413.35-.365.776-.358 3.357.06a51.012 51.012 0 0 1 28.136 14.605 46.81 46.81 0 0 1 9.193 12.4 49.668 49.668 0 0 1 5.98 25.946 46.64 46.64 0 0 1-1.803 11.954 51.874 51.874 0 0 1-38.718 36.708c-1.81.397-3.906.806-4.664.909l-1.373.189-.46-1.097c-1.376-3.274-3.123-12.932-3.844-21.243-.18-2.055-.391-3.966-.47-4.244-.148-.513-1.1-.698-1.372-.264-.081.133-.478 3.18-.883 6.77-1.215 10.769-2.876 19.12-3.934 19.79-.464.29-.378.297-3.126-.17z" fill="#e6e7e9"/><path d="M91.45 144.632c-.237-.054-1.984-.227-3.884-.38a39.398 39.398 0 0 1-10.719-2.552c-1.639-.634-4.214-2.063-4.039-2.24a12.461 12.461 0 0 1 2.398.782c5.553 2.174 7.624 2.61 13.367 2.822 4.157.153 5.575.307 6.452.702.864.387 1.031.567.718.766a12.872 12.872 0 0 1-4.292.1zm5.188-.108c-.364-.233-.415-1.66-.345-9.997.044-5.353.391-10.885.37-12.32-.04-3.046.085-7.338-.346-7.338.274-.084.603.235.648.905.207 3.266.382 17.688 1.358 23.506.602 3.61 1.465 3.838 5.535 4.04a35.383 35.383 0 0 0 13.044-2.801 20.64 20.64 0 0 1 3.261-1.066c.249.25-2.625 1.698-5.174 2.605a45.922 45.922 0 0 1-11.88 2.437c-4.535.378-5.912.384-6.47.03zm-.32-80.308c.432 0 .662-4.914.346-7.482-.464-3.838-.547-21.474-.101-21.918.618-.62 7.58.129 12.303 1.32a47.723 47.723 0 0 1 11.944 4.512c3.175 1.647 6.227 3.625 5.976 3.874a34.008 34.008 0 0 1-4.13-1.89 44.328 44.328 0 0 0-12.99-4.607c-2.343-.486-5.25-1.14-6.463-1.447-2.839-.724-3.561-.709-4.428.094-.627.584-.742 1.024-.992 3.814a20.1 20.1 0 0 0 .084 5.432c-.072 4.36.915 6.862-1.547 18.298z" fill="#8d9093"/><path d="M91.164 176.644c-10.583-5.03-16.728-8.36-23.025-12.487-15.316-10.038-27.178-22.71-37.1-39.647-9.18-15.666-14.143-32.244-15.591-52.09-.351-4.816-.176-23.835.247-26.337.422-2.52.603-.627.345 3.617-1.58 25.828 3.014 50.686 12.743 68.911 9.128 17.104 20.155 29.982 34.812 40.662 5.89 4.293 16.15 10.304 26.996 15.821 4.653 2.368 5.77 2.828 6.55 2.704a34.09 34.09 0 0 0 4.605-1.814c7.816-3.548 14.553-7.311 17.225-9.625.72-.621 3.97-3.021 7.222-5.332 3.248-2.309 7.425-5.471 9.281-7.025 16.183-13.559 29.36-33.27 35.403-52.94 3.793-12.345 5.778-26.816 5.761-41.882-.01-6.278-.361-13.085-.724-14.04-.149-.386-.034-.495.531-.495.648 0 .743.146.9 1.369a215.344 215.344 0 0 1 .448 21.823c-.567 12.87-1.955 21.342-5.353 32.622a85.732 85.732 0 0 1-6.74 17.15c-6.898 13.616-16.172 26.097-25.859 34.805-9.426 8.475-17.333 13.716-30.987 20.546-5.218 2.61-12.483 6.115-12.615 6.088-.02-.005-2.302-1.085-5.07-2.403zm-.212-5.067c-7.63-3.976-17.71-10.427-20.97-13.425-1.273-1.17-1.264-1.165 3.2 1.62 4.313 2.691 10.011 5.815 16.614 9.103l6.258 3.119 3.96-1.966c13.16-6.533 21.453-11.658 29.336-18.13a114.503 114.503 0 0 0 28.982-35.252c8.275-15.346 12.258-32.452 12.267-52.717.005-5.504-.522-15.036-.88-16.008-.392-1.057-11.898-9.078-18.089-12.612a146.51 146.51 0 0 0-23.327-10.425c-2.447-.86-4.522-1.634-4.606-1.719-.472-.478 7.007 1.283 11.24 2.646a102.153 102.153 0 0 1 21.562 10.033c2.983 1.854 11.528 8.075 14.049 10.228.604.518.696.938.968 4.538a228.56 228.56 0 0 1-.451 25.722 139.186 139.186 0 0 1-7.137 30.48 146.148 146.148 0 0 1-9.004 18.565c-2.155 3.537-7.749 11.596-10.195 14.678-4.36 5.5-15.277 15.703-19.952 18.646-3.455 2.176-18.093 9.715-24.174 12.449a40.5 40.5 0 0 0-4.218 2.12 5.713 5.713 0 0 1-.945.596c-.057-.004-2.073-1.033-4.485-2.29zm5.967-27.346c-.367-.236-.418-1.296-.337-7.26.108-7.708.594-10.525.637-3.685.034 5.498.368 8.93.908 9.328.59.437.862 1.606.374 1.606a2.629 2.629 0 0 0-.767.144 1.037 1.037 0 0 1-.816-.135zm-5.324-.293c-.23-.378 2.156-.378 2.735 0 .31.199.01.28-1.062.284a3.184 3.184 0 0 1-1.674-.284zM55.478 53.633c.003-.443 3.234-3.804 5.521-5.74a55.324 55.324 0 0 1 17.414-9.827c5.562-1.769 15.916-3.682 15.916-2.94 0 .17-.046.31-.104.31a74.413 74.413 0 0 0-9.967 2.299A67.823 67.823 0 0 0 62.962 48.44c-4.312 3.206-7.485 5.407-7.485 5.193zm41.37-4.383a105.969 105.969 0 0 1-.273-13.383l.248-.864 3.146.098a47.981 47.981 0 0 1 11.477 1.939c2.45.708 6.198 2.235 6.198 2.521a3.624 3.624 0 0 1-1.366-.28c-3.096-.941-14.218-3.571-15.82-3.74-1.515-.156-1.745-.115-1.918.362a11.396 11.396 0 0 1-.638 1.345c-.344.618-.493 2.243-.652 7.05-.132 3.985-.278 5.778-.4 4.952zM24.426 78.546c-.577-4.663-.853-8.28-1.044-13.756-.202-5.764.21-15.43.682-15.9.197-.197.489.025.905.682a3.276 3.276 0 0 1 .449 2.558 139.662 139.662 0 0 0-.711 24.296c.172 2.043.45 7.627-.281 2.12zM171.44 41.839c-2.942-1.974-5.42-3.875-5.434-4.172-.027-.463.661-.164 2.652 1.148 1.805 1.188 5.791 4.643 5.393 4.668a28.312 28.312 0 0 1-2.613-1.644z" fill="#60636a"/><path d="M89.697 176.22c-16.07-7.667-25.405-13.556-35.244-22.236a121.55 121.55 0 0 1-33.028-49.376c-5.247-15.304-7.352-31.662-6.544-50.897.225-5.351.472-8.518.688-8.828.526-.756 4.898-4.219 8.62-6.834a137.838 137.838 0 0 1 29.868-15.791 121.7 121.7 0 0 1 77.687-2.349c13.59 4.1 30.882 13.239 42.164 22.283a27.143 27.143 0 0 0 3.064 2.245c.74.26.964 4.323.958 17.189-.006 12.153-.23 15.233-1.741 24.177a109.171 109.171 0 0 1-3.74 15.416c-3.24 10.772-7.45 19.486-14.596 30.197-11.832 17.75-25.646 29.84-46.397 40.61-6.282 3.256-14.433 7.024-15.2 7.02a54.995 54.995 0 0 1-6.56-2.827zm12.383-1.053c4.633-2.165 7.364-3.666 8.365-4.595a57.814 57.814 0 0 1 4.894-3.191c12.567-7.595 20.802-13.901 28.205-21.599a117.515 117.515 0 0 0 19.074-26.161c9.16-16.685 13.5-36.105 13.567-60.728.016-4.59-.081-9.449-.21-10.799-.23-2.399-.26-2.47-1.222-3.024-21.275-15.813-39.31-25.273-65.313-29.11a160.554 160.554 0 0 0-26.623-.013c-12.112 1.582-22.541 4.244-29.782 7.6-13.419 6.22-17.206 8.282-26.34 14.328-3.402 2.255-6.982 4.576-7.951 5.164l-1.76 1.066-.176 1.925c-.422 4.603-.542 17.949-.209 23.081 1.593 24.508 7.398 42.455 19.736 61.016a107.355 107.355 0 0 0 14.233 17.293c10.576 10.597 19.974 16.992 38.932 26.485 6.129 3.071 7.04 3.442 7.951 3.25.373-.08 2.457-.974 4.628-1.988zm-11.348-3.277a143.31 143.31 0 0 1-22.708-14.61c-3.703-2.96-10.246-8.932-10.246-9.351 0-.162.551.175 1.225.75a145.15 145.15 0 0 0 20.36 14.238c4.863 2.763 15.956 8.364 16.564 8.364s12.075-5.74 16.536-8.28c20.217-11.506 34.62-26.225 45.825-46.833a100.14 100.14 0 0 0 10.27-30.076 157.69 157.69 0 0 0 1.62-27.988c-.373-6.78 1.343-8.591-4.256-12.824-16.241-11.87-29.97-18.318-48.527-22.783-2.747-.661-5.272-1.316-5.61-1.453-1.044-.42 1.74-.334 5.345.168a96.07 96.07 0 0 1 41.814 15.757 135.848 135.848 0 0 1 12.234 9.264l.718.765v12.568c-.006 13.81-.197 16.36-1.884 25.55a118.798 118.798 0 0 1-14.116 39.145c-1.796 3.064-6.645 10.218-10.01 14.774-4.025 5.451-14.539 15.812-19.983 19.7-2.079 1.482-17.728 9.463-24.613 12.549a20.8 20.8 0 0 0-4.4 2.362c-.49.91-1.742.553-6.156-1.758zM25.264 73.28l.14 3.376a98.163 98.163 0 0 0 8.998 35.675 125.629 125.629 0 0 0 11.366 18.945c1.188 1.66 2.858 3.988 3.704 5.17a99.726 99.726 0 0 0 6.98 7.627c2.99 3.01 5.061 5.147 4.605 4.744a106.036 106.036 0 0 1-25.71-33.226 109.128 109.128 0 0 1-11.44-38.567c-.658-5.486-.784-27.183-.157-28.271 1.289-2.257 15.205-11.537 22.223-14.822a66.614 66.614 0 0 1 8.71-3.375 15.877 15.877 0 0 1-3.109 1.68 121.856 121.856 0 0 0-18.985 11.413 94.124 94.124 0 0 1-5.108 3.348 10.376 10.376 0 0 0-2.52 1.818l.296 24.466zm37.082 76.487c-.357-.459-.347-.468.108-.108.48.374.635.61.397.61a1.753 1.753 0 0 1-.503-.502z" fill="#8d9093"/><path d="M90.59 165.202c-20.063-10.38-32.74-20.632-43.545-35.222a102.66 102.66 0 0 1-19.024-42.883c-1.512-7.921-1.76-11.226-1.746-23.168.008-6.095.108-11.535.223-12.089.178-.87.652-1.33 3.438-3.354a124.647 124.647 0 0 1 25.992-15.074c13.063-5.596 30.448-8.595 45.044-7.762 23.202 1.323 41.213 8.024 61.424 22.841 3.469 2.545 3.612 2.684 3.393 3.261-.127.328-.205.33-.478.009a13.355 13.355 0 0 0-1.62-1.31 818.632 818.632 0 0 1-3.782-2.747c-1.367-.999-2.987-2.12-3.599-2.484a92.462 92.462 0 0 1-2.68-1.698c-2.058-1.354-3.967-2.373-10.228-5.46-7.948-3.918-9.714-4.741-10.65-4.961-.477-.112-2.03-.616-3.454-1.12a101.807 101.807 0 0 0-32.954-5.279 101.915 101.915 0 0 0-39.114 7.492c-3.33 1.372-10.813 5.103-13.923 6.944-5.683 3.356-14.015 9.188-14.984 10.489-.732.983-1.008 4.445-1.034 13.05-.047 16.092 2.493 29.578 8.052 42.749 6.115 14.487 18.691 30.997 31.885 41.847 4.644 3.827 5.083 4.165 6.673 5.17.753.477 2.37 1.545 3.598 2.374a12.775 12.775 0 0 0 2.624 1.511c.214 0 .391.131.391.292s.567.58 1.256.931a65.26 65.26 0 0 1 6.22 3.494 6.927 6.927 0 0 0 2.07 1.04.86.86 0 0 1 .665.278 5.058 5.058 0 0 0 1.384.854c.668.317 1.406.697 1.647.84.237.14 1.046.542 1.8.89.756.348 1.296.751 1.206.898a.52.52 0 0 1-.365.261c-.105-.003-2.72-1.314-5.804-2.908zm.86-15.097a431.29 431.29 0 0 0-3.884-.602 22.722 22.722 0 0 1-3.942-.864 4.32 4.32 0 0 0-1.585-.386c-1.104-.004-7.067-2.08-9.82-3.416-.267-.13-1-.479-1.634-.773-.632-.297-1.974-1.026-2.978-1.625a19.03 19.03 0 0 0-1.976-1.088 35.558 35.558 0 0 1-4.761-3.526 6.43 6.43 0 0 0-1.415-1.08 3.629 3.629 0 0 1-1.053-.789c-3.958-3.758-5.805-5.638-5.67-5.77a9.813 9.813 0 0 1 2.241 1.89c15.53 15.267 39.113 20.603 60.074 13.593a57.591 57.591 0 0 0 30.284-23.313 57.846 57.846 0 0 0 6.96-50.94A60.665 60.665 0 0 0 121.96 36.67c-1.03-.516-1.715-.938-1.516-.942a53.283 53.283 0 0 1 7.697 3.726.81.81 0 0 0 .63.3 3.98 3.98 0 0 1 1.495.801 14.938 14.938 0 0 0 1.88 1.222c2.336 1.182 10.368 8.919 13.289 12.8a58.684 58.684 0 0 1 11.771 41.01c-.22 2.773-.537 5.621-.707 6.331s-.45 1.944-.625 2.735a68.766 68.766 0 0 1-4.342 12.09c-3.63 6.72-5.831 9.933-9.53 13.926a60.268 60.268 0 0 1-22.49 15.488c-8.187 3.11-12.06 3.843-21.007 3.976-3.483.054-6.655.044-7.052-.027zm9.914-10.044c-1.568-3.755-3.856-17.765-3.866-23.681-.002-2.006.462-2.386 1.323-1.076a17.968 17.968 0 0 1 1.266 6.254 14.22 14.22 0 0 0 .277 2.592c.153.675.55 3.338.887 5.923.621 4.798 1.72 9.326 2.47 10.162.37.415.342.486-.243.644-1.302.346-1.691.199-2.114-.818zm-13.188.475c-.081-.13.233-.18.702-.112a1.887 1.887 0 0 1 .847.237c0 .22-1.408.108-1.552-.126zm-1.54-.225a.583.583 0 0 1 .554-.024c.23.092.16.162-.178.175-.3.014-.47-.054-.374-.15zm-3.53-.726a51.556 51.556 0 0 1 2.413-100.417c3.726-.76 5.462-.693 5.591.222.072.49-.018.603-.364.472-.527-.202-5.5.612-7.209 1.18-.634.212-2.057.67-3.167 1.018a65.484 65.484 0 0 0-11.876 5.852 51.048 51.048 0 0 0-21.66 32.42 61.19 61.19 0 0 0-.592 15.484 48.788 48.788 0 0 0 4.812 16.285 59.964 59.964 0 0 0 5.44 8.864 69.496 69.496 0 0 0 8.497 8.678 53.167 53.167 0 0 0 6.477 4.508 1.72 1.72 0 0 1 .842.578 1.687 1.687 0 0 0 .934.574 2.982 2.982 0 0 1 1.196.557 5.632 5.632 0 0 0 1.628.76 4.093 4.093 0 0 1 1.144.436 43.969 43.969 0 0 0 6.034 2.12c.95.267 1.987.6 2.303.737 1.022.436-.187.277-2.444-.328zm24.298-32.894c-1.006-.438-4.09-3.202-3.847-3.445.086-.087.653.249 1.26.747a5.958 5.958 0 0 0 5.326 1.266c2.972-.77 4.704-3.01 5.791-7.487a18.754 18.754 0 0 1 .824-2.828c.102-.117.483-.008.845.243.58.412.648.669.583 2.365a8.337 8.337 0 0 1-.448 2.633 3.586 3.586 0 0 0-.378 1.366 1.19 1.19 0 0 1-.567.937 1.96 1.96 0 0 0-.74 1.232c-.19.986-1.742 2.344-3.433 2.997a9.904 9.904 0 0 1-5.216-.027zm-47.787-.166c-4.722-.113-6.179-.237-6.572-.563-.477-.398-.477-.429.027-.629.292-.114 3.528-.216 7.189-.23 5.224-.017 6.722-.103 6.979-.41a24.949 24.949 0 0 0 1.124-4.314 23.717 23.717 0 0 1 1.107-4.228 5.14 5.14 0 0 1 2.295-.218l1.984.086.086.887c.08.834.035.881-.76.764-1.404-.205-1.94.306-2.455 2.354a17.445 17.445 0 0 0-.472 2.385 6.854 6.854 0 0 1-1.11 3.274c-.715.886-2.151 1.015-9.422.844zm15.574.092c-.86-.23-1.647-1.012-1.331-1.323a45.657 45.657 0 0 1 6.704-.324 58.571 58.571 0 0 0 6.79-.275 1.743 1.743 0 0 0 .356-1.229c0-.994-.019-1.01-1.08-.918l-1.08.09-.067-10.792c-.04-7.033.035-10.628.213-10.321.154.259.715 1.776 1.255 3.375.878 2.632.945 3.04.685 4.42a52.76 52.76 0 0 0-.122 7.1l.165 5.583.877.909c1.161 1.198 1.205 2.524.1 3.245-.675.445-1.576.517-6.834.563-3.335.027-6.318-.018-6.634-.102zm20.793-.116c-.72-.422-.621-.844.197-.844a1.207 1.207 0 0 0 .861-.256c.116-.185.475-23.483.452-29.442 0-.354.292-.513 1.077-.576.986-.081 1.088-.17 1.172-1.026.092-.955.243-1.088.802-.713a3.42 3.42 0 0 1 .98 1.747 5.655 5.655 0 0 1-1.004 1.485l-1.009 1.205.135 8.248c.162 9.72.169 8.212-.08 14.39-.194 4.78-.23 5.014-.878 5.54a2.513 2.513 0 0 1-2.705.243zm22.014-.262c-.51-.314-.931-.702-.931-.864 0-.189 2.277-.291 6.439-.291 6.93 0 7.24-.068 7.036-1.496-.068-.48-.311-.689-.883-.752-.551-.065-.794-.256-.794-.63 0-.469.557-3.433 1.015-5.397.138-.605.301-.648 2.447-.648h2.295v.999c0 .94-.047.99-.802.84-1.239-.25-2.022.59-2.375 2.542-.277 1.512-.249 1.722.34 2.517a1.797 1.797 0 0 1 .372 1.94c-.418 1.68-.914 1.802-7.462 1.804-5.238.006-5.84-.047-6.696-.564zm17.198-.054l-1.006-.628.72-.206a33.177 33.177 0 0 1 4.502-.238c4.071-.03 4.13-.054 4.13-1.633 0-.905.388-.882 1.132.062.79.999.756 1.493-.173 2.464-.772.804-.79.81-4.533.807-3.359 0-3.87-.068-4.77-.625zm-76.71-3.763c-.079-.199-.104-6.253-.065-13.456l.075-13.095 1.094-.089c.86-.071 1.154-.245 1.369-.81.148-.394.4-.638.559-.54.542.338.29 1.364-.578 2.352l-.868.988.032 8.696c.02 4.786.13 10.313.246 12.29.144 2.484.112 3.658-.105 3.801-.5.34-1.61.254-1.76-.138zm21.821-.014a45.578 45.578 0 0 1-1.313-5.238 5667.95 5667.95 0 0 0-2.77-12.81c-.945-4.354-1.812-8.609-1.923-9.458-.194-1.485-.18-1.53.376-1.234a2.437 2.437 0 0 1 .89 1.111c.39.986 2.221 8.256 2.922 11.596 1.136 5.402 3.153 13.347 3.78 14.884a2.042 2.042 0 0 1 .247 1.037 2.641 2.641 0 0 1-2.209.113zm43.22.014c-.074-.199-.102-6.318-.062-13.598l.077-13.24.952-.01c.965-.01 1.482-.47 1.49-1.327a.595.595 0 0 1 1.153-.253 2.442 2.442 0 0 1-.586 3.041l-.877.842.086 12.293c.085 12.085.074 12.297-.49 12.449-.953.256-1.593.18-1.741-.199zm17.31-.144c-.083-.279-1.4-6.267-2.922-13.31-2.824-13.063-3.348-16.118-2.772-16.118.493 0 1.445 1.152 1.769 2.136.324.985 1.323 5.53 1.728 7.856.144.827.517 2.511.83 3.742.31 1.233.715 3.017.902 3.966.186.95.534 2.57.774 3.598a697.348 697.348 0 0 1 1.52 6.619 12.399 12.399 0 0 0 .435 1.512c.182.429.045.499-.952.499-.853 0-1.201-.131-1.313-.5zm-33.158-.067a4.752 4.752 0 0 1-2.143-2.844 56.707 56.707 0 0 1-.473-6.947c-.173-6.237.17-11.496.918-13.999.736-2.489 2.53-3.496 4.422-2.492 1.037.554 2.03 1.93 1.66 2.302-.123.121-.35-.004-.505-.28-.378-.677-1.834-.642-2.535.061-1.306 1.303-1.877 6.407-1.67 14.866.162 6.687.291 7.374 1.622 8.578a1.95 1.95 0 0 1 .608.791c0 .308-1.107.286-1.904-.04zm22.62-8.963a94.612 94.612 0 0 1 2.053-9.751 14.986 14.986 0 0 1 .665 3.236c.635 4.274.621 4.009.21 4.756-.408.742-.185 1.332.418 1.1a.269.269 0 0 1 .402.27c0 .266-.29.42-.792.424a13.957 13.957 0 0 0-1.871.18c-.81.135-1.084.081-1.084-.218zm-60.732-.181c-.03-.58 1.904-9.571 2.052-9.571a9.977 9.977 0 0 1 .543 2.551 7.75 7.75 0 0 1 .037 3.54 10.33 10.33 0 0 0-.386 2.346l-.059 1.35h-1.088c-.6.002-1.094-.095-1.099-.216zM91.78 81.872c-1.485-3.615-2.763-7.012-2.851-7.55l-.158-.98.864.638c.635.466 1.316 1.663 2.53 4.428a27.761 27.761 0 0 0 1.965 3.982c.297.195.648 4.536.446 5.532-.054.284-1.314-2.44-2.795-6.052zm22.837 2.092c-.316-.23-.513-.462-.43-.513.076-.054.4-.243.716-.414.526-.293.591-.702.72-4.8a29.18 29.18 0 0 1 .358-4.697c.118-.117.216.171.216.641 0 1.08.46 1.545 1.53 1.545.792 0 .829.054.653.934-.104.515-.289 2.073-.418 3.462a6.727 6.727 0 0 1-.81 3.31 1.768 1.768 0 0 1-2.538.532zm-32.604-7.43c-.472-.472-.434-.807.084-.807.243 0 .432.256.432.578 0 .67-.051.694-.516.23zm11.799 0c-.507-.507-.424-.807.23-.807a.512.512 0 0 1 .577.578c0 .652-.3.737-.807.23zm18.082-3.267c-1.104-.78-.972-.881.478-.36.523.189.954.513.954.72-.003.522-.283.453-1.434-.36zm-14.957-7.594c-.332-.21-.343-.344-.048-.698a22.32 22.32 0 0 0 .767-5.054c.891-10.146 3.037-20.937 4.262-21.407a11.932 11.932 0 0 1 2.802.27 51.272 51.272 0 0 1 32.25 19.101 14.121 14.121 0 0 1 1.369 2.011l.337.721-.516-.672a64.116 64.116 0 0 0-1.811-2.16 105.705 105.705 0 0 1-1.87-2.208c-1.354-1.688-6.215-5.662-9.773-7.988-7.093-4.637-19.965-8.919-21.44-7.135-.687.82-1.675 4.9-2.31 9.51-.73 5.296-.873 6.5-1.168 9.927-.39 4.474-.462 4.77-1.357 5.475-.82.648-.918.667-1.493.303z" fill="#202448"/><path d="M97.14 90.35l.073-14.876 1.076-.089c.979-.08 1.086-.175 1.165-1.007l.09-.918-3.006-.09c-3.937-.119-3.989-.108-3.88 1.012.078.802.211.932 1.096 1.056l1.008.142.077 6.713a44.123 44.123 0 0 1-.162 6.563c-.132-.08-1.643-3.59-3.359-7.8l-3.118-7.65-3.773.081-3.766.079v.864c0 .79.089.873 1.08.953l1.084.089-.075 13.58-.075 13.584h-2.592l-2.978-13.815c-3.612-16.73-3.402-15.875-3.953-16.087-1.193-.459-1.355.03-3.96 11.958-2.624 12.027-3.367 14.417-5.026 16.168a5.951 5.951 0 0 1-4.364 1.917h-1.457l.079-13.597.072-13.6 1.009-.143c.89-.127 1.004-.24 1.004-1.007v-.864h-8.921l-.095.829c-.108.944.305 1.316 1.463 1.322l.79.003v27.053h-.695c-1.188 0-1.607.306-1.607 1.167a1.493 1.493 0 0 0 .216.945c.118.074 3.706.049 7.97-.054l7.756-.186.877-4.32.878-4.316 2.366-.083c2.265-.081 2.373-.054 2.507.577.513 2.4 1.028 5.261 1.028 5.708 0 .383-.256.55-.935.617-.829.08-.936.189-.936.953v.864l6.905.077c5.997.067 6.952.019 7.238-.373.592-.81.144-1.535-1.007-1.63l-1.048-.086L85.183 92c-.04-5.845.027-10.734.155-10.861.126-.129 2.217 4.722 4.65 10.775 5.997 14.916 5.332 13.504 6.274 13.396l.794-.09.078-14.879zm-27.854 3.007c-.013-.693 2.147-10.435 2.313-10.435a82.627 82.627 0 0 1 2.083 10.435 6.602 6.602 0 0 1-2.25.216 5.573 5.573 0 0 1-2.144-.216zm41.254 11.706c2.466-.684 4.352-3.334 5.256-7.393.551-2.47.432-2.948-.72-2.948-1.044 0-1.057.021-1.76 2.767-.766 3-1.72 4.576-3.029 5.008-1.907.632-3.604-.216-4.538-2.26-.567-1.239-.624-1.92-.716-8.825-.143-10.601.49-14.485 2.525-15.538 2.673-1.38 4.938.55 5.742 4.892.349 1.895.584 2.255 1.361 2.106.486-.09.55-.518.702-4.557a47.975 47.975 0 0 0 .038-4.82c-.22-.642-1.49-.414-1.827.33l-.313.688-1.394-.868a4.066 4.066 0 0 0-3.27-.746 4.967 4.967 0 0 0-3.084.972c-3.367 2.378-5.716 8.572-5.716 15.069 0 7.514 2.962 14.246 7.054 16.033a5.316 5.316 0 0 0 3.685.09zm32.417-.398c.644-.776.233-1.442-.99-1.598l-1.136-.142-3.244-14.965a6798.392 6798.392 0 0 1-3.25-15.038 2.629 2.629 0 0 0-.857-.072c-1.004 0-.815-.58-2.727 8.348-.733 3.402-2.07 9.62-2.979 13.814l-1.647 7.627-1.367.086-1.372.09.076-13.615.076-13.614 1.007-.141c.893-.13 1.007-.243 1.007-1.009v-.864h-8.923v.864c0 .767.112.878 1.007 1.009l1.005.142v27.055l-1.007.143c-.89.128-1.02.253-1.097 1.084l-.09.94 6.854-.078 6.855-.077.092-.796c.08-.683-.027-.818-.794-.972-.486-.095-.873-.257-.87-.355.01-.099.306-1.606.662-3.348l.645-3.165 2.355-.081c2.251-.081 2.362-.057 2.494.573.521 2.43 1.029 5.265 1.029 5.724 0 .391-.205.545-.71.545a1.19 1.19 0 0 0-1.006.557c-.384.72-.382.76.153 1.291.641.646 8.224.675 8.747.04zm-12.872-11.741c.076-.355.56-2.752 1.08-5.325a29.501 29.501 0 0 1 1.154-4.677 31.984 31.984 0 0 1 1.15 4.968c.52 2.73 1.004 5.125 1.08 5.322.095.268-.459.36-2.234.36-2.301 0-2.362-.02-2.23-.647z" fill="#fff"/><path d="M142.95 56.013a44.245 44.245 0 0 1 2.919 5.902 951.536 951.536 0 0 0 2.165 4.828 15.686 15.686 0 0 1 .692 1.658c0 .077.53 1.38 1.18 2.9 1.501 3.515 2.187 6.867 2.57 12.548a60.862 60.862 0 0 1-2.37 21.81c-.891 2.786-3.01 7.673-3.234 7.451a24.142 24.142 0 0 1 1.16-3.649 52.983 52.983 0 0 0 3.571-19.64 57.385 57.385 0 0 0-2.75-18.916 54.831 54.831 0 0 0-7.176-13.773c-5.976-9.423-5.693-10.793 1.274-1.12z" fill="#8d9093"/><path d="M12.074 12h168.003v168H12.074" fill="none"/></svg>