<svg xmlns="http://www.w3.org/2000/svg" viewBox="0 0 192 192"><g fill="#1b1c20"><path d="M90.516 95.205h8.666v2.14h-8.666zM91.569 98.181h6.561v4.443h-6.561zM81.966 85.268h25.776v1.078H81.966zM80.584 87.294h28.526v1.074H80.584zM80.548 83.277h28.533v1.075H80.548zM99.35 90.676a5.532 5.532 0 0 0-1.418 3.657h-6.151a5.489 5.489 0 0 0-1.42-3.647 4.704 4.704 0 0 0-2.218-1.113c-.8-.157-.803-.246-.803-.297h15.014s0 .14-.793.297a4.726 4.726 0 0 0-2.211 1.103M82.08 89.276h3.101c0 1.827-1.19 2.653-3.1 2.241zM93.052 59.694c1.235-2.435 1.473-6.103 1.799-6.17.302.067.535 3.73 1.77 6.17 1.165 2.3 3.657 4.249 3.519 4.477-.176.29-1.56-.423-2.256-.75a92.29 92.29 0 0 0-2.026-.928 38.645 38.645 0 0 0 .976 11.218 30.634 30.634 0 0 0 4.211 8.769h-3.559c-.107-.19-.219-.37-.323-.554a21.102 21.102 0 0 1-2.32-5.719 21.648 21.648 0 0 1-2.334 5.719c-.1.183-.206.373-.324.554h-3.55a30.768 30.768 0 0 0 4.202-8.769 39.016 39.016 0 0 0 .978-11.218s-.908.405-2.019.928c-.703.327-2.087 1.04-2.262.76-.143-.231 2.355-2.188 3.518-4.487M81.959 82.48a50.374 50.374 0 0 0-1.621-10.947c-1.522-5.071-4.575-8.081-4.366-8.387.18-.282 2.709.227 4.602 1.525 2.029 1.387 4.01 3.677 3.86 3.85-.087.1-.773-.462-2.001-.918a4.171 4.171 0 0 0-1.876-.396 34.257 34.257 0 0 1 3.243 7.456 54.166 54.166 0 0 1 1.392 7.817zM107.752 82.48a50.389 50.389 0 0 1 1.624-10.947c1.524-5.071 4.576-8.081 4.372-8.387-.192-.282-2.71.227-4.61 1.525-2.027 1.387-4.006 3.677-3.855 3.85.084.1.767-.462 2-.918a4.182 4.182 0 0 1 1.88-.396 34.213 34.213 0 0 0-3.244 7.456 55.275 55.275 0 0 0-1.403 7.817zM107.627 89.276h-3.091c0 1.827 1.189 2.653 3.091 2.241zM42.686 121.05l2.509 6.975h-5.229zm72.693-1.964a4.38 4.38 0 0 1 4.677 4.678c0 2.297-.873 3.432-1.877 3.97a5.663 5.663 0 0 1-2.758.55h-1.918v-9.12c.458 0 1.163-.078 1.876-.078m25.206 1.963l2.516 6.976h-5.233zm-136.692.081L11 137.814h.96l7.317-16.684.752 12.625c.04.29.128 1.178.128 1.458a1.204 1.204 0 0 1-.88 1.256 8.41 8.41 0 0 1-2.337.34v1.005h9.564v-1.004c-2.958.119-3.011-.713-3.17-3.268l-.759-11.443c-.077-1.507-.033-2.185.29-2.515a1.581 1.581 0 0 1 .794-.33c.423-.044.929-.044 1.722-.044v-1.005H18.86l-6.4 14.623-6.313-14.623H-.455v1.005c2.548.168 2.881.168 2.753 2.052l-.951 11.824c-.255 3.383-.297 3.556-3.637 3.724v1.004h7.77v-1.004c-1.042 0-2.763-.047-2.763-1.258a8.96 8.96 0 0 1 .091-1.333zm40.843 16.684h9.612v-1.004c-1.296-.047-1.84-.168-2.262-.548a6.26 6.26 0 0 1-1.004-2.007l-6.184-16.675h-3.47l.512 1.373-5.65 14.18c-.25.622-.465 1.166-.624 1.583-.668 1.42-1.295 1.794-2.933 2.13v.968h7.95v-1.004c-.506-.047-.93-.081-1.26-.134-.882-.166-1.83-.368-1.83-1.463a10.651 10.651 0 0 1 .781-3.213l1.005-2.55h6.392l1.348 3.721a9.03 9.03 0 0 1 .63 2.424c0 1.081-1.345 1.168-3.013 1.215zm22.941.662c3.767 0 6.153-2.638 6.153-5.648a5.788 5.788 0 0 0-1.548-3.922 11.248 11.248 0 0 0-2.471-1.968c-1.13-.752-2.084-1.378-2.838-1.88a14.65 14.65 0 0 1-1.751-1.339 2.657 2.657 0 0 1-1.093-2.254 2.86 2.86 0 0 1 2.97-2.718c2.212 0 3.76 1.55 4.728 4.056h1.043l-.467-4.685h-.959c-.245.338-.42.422-.54.422-.174 0-1.093-.422-1.343-.502a8.927 8.927 0 0 0-2.875-.458 5.31 5.31 0 0 0-5.396 5.057c0 1.751.75 3.55 4.761 6.023 3.22 1.957 4.974 3.055 4.974 5.344 0 2.549-2.427 3.341-3.673 3.341-.923 0-3.676-.5-5.022-4.343h-1.084l.584 5.059h.925c.034-.293.117-.418.492-.418a1.409 1.409 0 0 1 .55.08c1.166.338 1.838.502 2.378.626a8.622 8.622 0 0 0 1.502.127m30.894-.662l.462-4.932h-1.044c-.878 3.38-1.882 3.718-3.859 3.718h-3.412c-1.84 0-1.925 0-1.925-1.842v-6.315h4.43c2.218 0 2.513.13 2.635 2.591h1.048v-6.224h-1.048c-.255 2.424-.71 2.424-2.304 2.424h-4.76v-7.778h4.808c2.134 0 2.802.212 3.34 3.225h1.004l-.204-4.476H82.147v1.005c2.594-.045 3.18.294 3.18 2.505v12.618c0 1.802-.212 2.596-3.18 2.477v1.004zm20.444-3.515c1.883 2.884 4.176 3.972 7.066 3.84v-.996c-1.669-.333-2.471-.92-3.978-3.972a28.513 28.513 0 0 0-1.663-3.223 9.025 9.025 0 0 0-1-1.126 8.818 8.818 0 0 0 1.158-.465 4.762 4.762 0 0 0 3.052-4.674c0-5.723-7.268-5.723-8.815-5.723a70.927 70.927 0 0 0-8.027.496v1c2.926.128 3.224.175 3.224 2.172v12.705c0 1.802-.256 2.596-3.224 2.477v1.004h10.199v-1.004h-1.422c-1.835 0-2.082-.502-2.082-3.055v-4.305h2.715c.495.747 2.297 4.092 2.797 4.849m23.581 3.515h9.614v-1.004c-1.259-.047-1.836-.168-2.212-.548a5.873 5.873 0 0 1-1.003-2.007l-6.23-16.675h-3.472l.501 1.373-5.598 14.18c-.254.622-.46 1.166-.665 1.583-.681 1.42-1.298 1.794-2.929 2.13v.968h7.977v-1.004c-.5-.047-.917-.081-1.297-.134-.834-.166-1.835-.368-1.835-1.463a9.32 9.32 0 0 1 .836-3.213l1-2.55h6.4l1.293 3.721a7.711 7.711 0 0 1 .625 2.424c0 1.081-1.293 1.168-3.004 1.215zm30.721-15.055h1.046l-.496-5.179h-.799c-.208.501-.334.625-1.798.625h-13.328c-.547-.045-.837-.087-1.127-.625h-.796l-.418 5.18h.958c.376-1.132.546-1.753.71-2.168a1.495 1.495 0 0 1 .586-.794c.336-.258.876-.342 2.135-.342h3.256v14.843c0 1.211-.124 1.75-.54 2.047a2.736 2.736 0 0 1-1.086.33c-.505.053-1.133.087-2.094.134v1.004h10.825v-1.004a42.948 42.948 0 0 1-2.014-.134 2.703 2.703 0 0 1-1.08-.33c-.45-.332-.583-.925-.583-2.258v-14.632h3.64c1.67 0 2.297.048 3.003 3.303m8.575 15.055H192v-1.004c-2.838-.168-3.466-.502-3.466-2.93v-10.824c0-3.258.044-3.723 3.345-3.846v-1.005h-10.116v1.005c2.844.207 3.346.545 3.346 2.923V132c0 .958-.042 3.386-.502 4.135-.254.465-.33.507-2.715.675z"/></g></svg>