<svg xmlns="http://www.w3.org/2000/svg" viewBox="0 0 192 192"><path d="M96 54.124a41.876 41.876 0 0 0-35.294 19.35H.5l5.994 5.993h51.084a41.877 41.877 0 0 0-2.299 6.982H13.476l5.92 5.921H54.31q-.172 1.81-.186 3.63.016 1.68.167 3.353h-27.91l5.92 5.921h22.9a41.876 41.876 0 0 0 2.21 6.983H39.284l5.993 5.993h15.306a41.77 41.77 0 0 0 70.834 0h15.306l5.993-5.993H134.59a41.876 41.876 0 0 0 2.21-6.983h22.9l5.92-5.92h-27.91q.15-1.673.167-3.354-.014-1.818-.185-3.63h34.912l5.92-5.92h-41.802a41.878 41.878 0 0 0-2.3-6.983h51.085l5.994-5.994h-60.206A41.876 41.876 0 0 0 96 54.123zm0 5.676A36.2 36.2 0 0 1 132.2 96 36.2 36.2 0 1 1 96 59.8zM67.202 86.618v18.764h3.913v-14.77l4.128 14.77H79.3l4.142-14.77v14.77h3.914V86.618h-6.32l-3.742 12.8-3.786-12.8zm24.237 0v18.764h4.212V86.618zm8.254 0v18.764h3.914V93.146l8.411 12.236h4.227V86.618h-3.914v12.53l-8.539-12.53zm20.892 0v18.764h4.213V86.618z" fill="#120a08"/></svg>