<svg xmlns="http://www.w3.org/2000/svg" viewBox="0 0 192 192"><path fill="#e31937" d="M35.129 8h121.743v176H35.129z"/><g fill="#fff"><path d="M128.972 149.955v7.713h2.474v-5.136h9.002v5.136h2.472v-7.7l-13.948-.013M131.17 147.46h9.511a3.51 3.51 0 0 0 2.58-2.557H128.59a3.523 3.523 0 0 0 2.58 2.557M121.48 157.673a3.537 3.537 0 0 0 2.176-2.514h-11.094l.007-10.25-2.487.008v12.756h11.399M91.589 147.425h8.784a3.85 3.85 0 0 0 2.707-2.512H89.126v7.538h11.42v2.646l-8.957.007a4.997 4.997 0 0 0-3.188 2.579l.726-.014H103v-7.724H91.589v-2.52M69.904 147.45h9.508a3.508 3.508 0 0 0 2.582-2.558H67.323a3.525 3.525 0 0 0 2.581 2.557M69.904 152.49h9.508a3.5 3.5 0 0 0 2.582-2.556H67.323a3.518 3.518 0 0 0 2.581 2.557M69.904 157.671h9.508a3.507 3.507 0 0 0 2.582-2.556H67.323a3.524 3.524 0 0 0 2.581 2.556M45.17 144.923a3.549 3.549 0 0 0 2.574 2.54h4.003l.204.08v10.1h2.499v-10.1l.227-.08h4.006a3.598 3.598 0 0 0 2.564-2.54v-.025H45.169v.025"/></g><g fill="#fff"><path d="M96.076 119.69l12.488-70.231c11.902 0 15.657 1.305 16.199 6.632 0 0 7.985-2.977 12.012-9.024a88.244 88.244 0 0 0-31.506-7.61l-9.214 11.222.021-.001-9.214-11.223a88.235 88.235 0 0 0-31.504 7.611c4.024 6.047 12.012 9.024 12.012 9.024.545-5.328 4.295-6.633 16.118-6.642l12.588 70.241"/><path d="M96.071 36.215a102.888 102.888 0 0 1 42.13 8.453 34.208 34.208 0 0 0 2.5-5.163 122.18 122.18 0 0 0-44.632-8.696 122.164 122.164 0 0 0-44.629 8.696 43.18 43.18 0 0 0 2.5 5.163 102.878 102.878 0 0 1 42.13-8.453h.001"/></g></svg>