<svg xmlns="http://www.w3.org/2000/svg" viewBox="0 0 192 192"><defs><linearGradient id="a" data-name="Sfumatura senza nome 93" x1="-267.835" y1="755.43" x2="-268.038" y2="704.103" gradientTransform="matrix(1.39347 0 0 1.39021 467.694 -932.924)" gradientUnits="userSpaceOnUse"><stop offset="0" stop-color="#7d7c80"/><stop offset="1" stop-color="#515054"/></linearGradient><linearGradient id="b" data-name="Sfumatura senza nome 92" x1="645.468" y1="-661.737" x2="645.468" y2="-702.528" gradientTransform="matrix(.73896 0 0 -.73724 -382.672 -453.711)" gradientUnits="userSpaceOnUse"><stop offset="0" stop-color="#515056"/><stop offset="1" stop-color="#757579"/></linearGradient><linearGradient id="c" data-name="Sfumatura senza nome 91" x1="645.462" y1="-660.97" x2="645.462" y2="-700.976" gradientTransform="matrix(.73896 0 0 -.73724 -382.672 -453.711)" gradientUnits="userSpaceOnUse"><stop offset="0" stop-color="#cad3d0"/><stop offset="1" stop-color="#95a09c"/></linearGradient><linearGradient id="d" data-name="Sfumatura senza nome 90" x1="645.462" y1="-711.48" x2="645.462" y2="-774.938" gradientTransform="matrix(.73896 0 0 -.73724 -382.672 -453.711)" gradientUnits="userSpaceOnUse"><stop offset="0" stop-color="#b9bebe"/><stop offset="1" stop-color="#586160"/></linearGradient><radialGradient id="e" data-name="Sfumatura senza nome 89" cx="645.462" cy="-717.065" r="148.429" gradientTransform="matrix(.73896 0 0 -.46351 -382.672 -257.431)" gradientUnits="userSpaceOnUse"><stop offset="0" stop-color="#ededed"/><stop offset=".498" stop-color="#cbccce"/><stop offset="1" stop-color="#57565a"/></radialGradient></defs><path d="M94.307 26.308c-42.954 0-77.903 21.817-77.903 48.633 0 26.813 34.95 48.632 77.903 48.632s77.893-21.82 77.893-48.632c0-26.816-34.94-48.633-77.893-48.633zm0 2.391c41.636 0 75.506 20.747 75.506 46.242 0 25.501-33.87 46.241-75.506 46.241S18.8 100.442 18.8 74.941c0-25.495 33.87-46.242 75.507-46.242zm-3.595 6.215l-3.764.238c-18.232 1.11-31.475 5.93-33.732 12.281a5.967 5.967 0 0 0-.357 1.996 6.246 6.246 0 0 0 .911 3.172c2.531 4.301 10.384 7.84 21.561 9.742l1.179.198.208-1.176c1.834-11.166 5.86-19.944 11.052-24.09zm7.2 0l2.931 2.362c5.19 4.145 9.218 12.923 11.053 24.089l.198 1.176 1.178-.198c11.182-1.903 19.04-5.44 21.56-9.742a5.978 5.978 0 0 0 .565-5.168c-2.257-6.351-15.5-11.17-33.732-12.281zM83.848 37.78c-4.265 4.814-7.548 12.571-9.26 21.994-9.716-1.793-16.703-4.885-18.758-8.379a3.83 3.83 0 0 1-.584-1.956 3.528 3.528 0 0 1 .218-1.206c1.723-4.851 13.432-9.086 28.384-10.453zm20.927 0c14.948 1.367 26.646 5.61 28.364 10.453a3.417 3.417 0 0 1 .218 1.206 3.908 3.908 0 0 1-.574 1.956c-2.061 3.494-9.047 6.586-18.758 8.379-1.711-9.423-4.985-17.18-9.25-21.994zm-10.468 8.2c-4.898 0-8.899 6.021-10.696 16.096l-.238 1.295 1.327.098c3.129.234 6.362.366 9.607.366 3.247 0 6.478-.132 9.606-.366l1.318-.098-.238-1.295c-1.798-10.075-5.793-16.095-10.686-16.095zm0 2.392c3.345 0 6.434 4.993 8.061 12.795-2.645.173-5.337.277-8.061.277-2.72 0-5.42-.104-8.062-.277 1.623-7.802 4.717-12.795 8.062-12.795zm-51.114 2.48l-1.515 1.265C33.484 58.964 29.15 67.095 29.15 75.642c0 20.106 24.58 37.101 57.164 39.523l3.635.276-2.773-2.361c-7.14-6.092-11.568-20.554-11.568-37.734l.07-4.051-1-.208C57.537 68.022 45.344 60.83 43.608 52.78zm102.217 0l-.416 1.927c-1.734 8.05-13.934 15.243-31.068 18.308l-1 .188.079 4.07c0 17.181-4.44 31.643-11.578 37.735l-2.763 2.361 3.635-.276c32.588-2.422 57.155-19.417 57.155-39.523 0-8.547-4.335-16.678-12.529-23.525zM41.856 55.18c3.135 8.135 14.85 14.908 31.405 18.061-.02.932-.04 2.105-.04 2.105 0 15.93 3.784 29.69 10.033 37.112-29.69-3.161-51.708-18.634-51.708-36.816 0-7.328 3.582-14.354 10.31-20.462zm104.891 0c6.733 6.108 10.32 13.134 10.32 20.462 0 18.182-22.025 33.655-51.718 36.816 6.25-7.423 10.043-21.182 10.043-37.112l-.04-2.105c16.55-3.153 28.26-9.926 31.395-18.061zM82.65 72.204l-.01 1.294-.01.435c0 15.97 5.022 28.012 11.677 28.012 6.653 0 11.666-12.043 11.666-28.012l-.01-1.73-1.287.11c-3.385.295-6.867.444-10.37.444-3.5 0-6.993-.149-10.369-.444l-1.287-.11zm2.387 2.569c3.04.223 6.146.365 9.27.365 3.128 0 6.226-.142 9.27-.365-.18 14.858-4.874 24.79-9.27 24.79-4.4 0-9.095-9.932-9.27-24.79z"/><path d="M145.84 46.644c.11.302.21.612.289.922a9.07 9.07 0 0 1-.227 5.25c7.774 6.395 12.357 14.283 12.357 22.83 0 21.333-28.635 38.63-63.954 38.63-35.322 0-63.953-17.297-63.953-38.63 0-8.54 4.587-16.435 12.351-22.83a9.11 9.11 0 0 1-.221-5.25 5.726 5.726 0 0 1 .37-.985C32.246 54.12 25.814 64 25.814 74.824c0 23.63 30.663 42.783 68.492 42.783 37.824 0 68.492-19.154 68.492-42.783 0-10.799-6.406-20.658-16.958-28.18" fill="url(#a)"/><g fill="#d0152c"><path d="M95.799 150.646a15.006 15.006 0 0 1 15.08-15.036 15.041 15.041 0 1 1-15.08 15.036zm15.08 9.503c4.53-.07 8.278-4.316 8.326-9.503-.048-5.287-3.796-9.532-8.325-9.502-4.725-.03-8.483 4.215-8.334 9.502-.15 5.187 3.609 9.432 8.334 9.503M143.008 141.936v22.963h-6.343v-22.963h-9.128v-5.138h24.201v5.138h-8.73M159.272 158.558l-2.374 6.341h-7.534l11.9-28.1h7.93l11.508 28.1h-7.533l-2.381-6.341H159.27zm5.96-4.744h3.961l-3.961-10.295-3.969 10.295h3.969M26.372 141.936v22.963h-6.348v-22.963h-8.726v-5.138h23.804v5.138h-8.73M36.69 150.646a15.05 15.05 0 0 1 15.068-15.036 15.04 15.04 0 1 1-15.068 15.036zm15.068 9.503c4.582-.07 8.329-4.316 8.333-9.503-.004-5.287-3.75-9.532-8.333-9.502-4.678-.03-8.431 4.215-8.322 9.502-.11 5.187 3.644 9.432 8.322 9.503M81.12 164.899h3.171V154.21l11.111-17.412h-7.139l-7.143 11.869-6.746-11.869h-7.536L77.95 154.21v10.689h3.17"/></g><path d="M103.82 62.285c-3.018.226-6.2.35-9.517.35-3.315 0-6.495-.124-9.513-.35h-.01l-1.972 1.43c3.64.317 7.482.496 11.497.496s7.858-.179 11.5-.496zm34.985-14.99c-2.404-7.927-22.222-13.75-44.5-13.75-22.273 0-42.092 5.823-44.497 13.75-2.086 6.878 9.306 13.243 27.278 15.768l-1.561-1.896c-14.54-2.469-23.18-7.732-21.187-13.329 2.416-6.793 19.966-11.714 39.965-11.714 19.999 0 37.553 4.92 39.967 11.714 1.991 5.597-6.647 10.86-21.19 13.33l-1.556 1.895c17.967-2.525 29.366-8.89 27.281-15.767" fill="#ebeeec"/><path d="M103.82 62.285c-3.018.226-6.2.35-9.517.35-3.315 0-6.495-.124-9.513-.35h-.01l-1.972 1.43c3.64.317 7.482.496 11.497.496s7.858-.179 11.5-.496zm34.985-14.99c-2.404-7.927-22.222-13.75-44.5-13.75-22.273 0-42.092 5.823-44.497 13.75-2.086 6.878 9.306 13.243 27.278 15.768l-1.561-1.896c-14.54-2.469-23.18-7.732-21.187-13.329 2.416-6.793 19.966-11.714 39.965-11.714 19.999 0 37.553 4.92 39.967 11.714 1.991 5.597-6.647 10.86-21.19 13.33l-1.556 1.895c17.967-2.525 29.366-8.89 27.281-15.767" fill="url(#b)"/><path d="M84.813 62.285c1.67-9.253 5.29-15.036 9.49-15.036 4.204 0 7.822 5.783 9.494 15.036h.033l1.952 1.414c-1.649-12.22-6.164-20.03-11.477-20.03-5.318 0-9.83 7.81-11.476 20.03l1.952-1.414h.032" fill="#ebeeec"/><path d="M84.813 62.285c1.67-9.253 5.29-15.036 9.49-15.036 4.204 0 7.822 5.783 9.494 15.036h.033l1.952 1.414c-1.649-12.22-6.164-20.03-11.477-20.03-5.318 0-9.83 7.81-11.476 20.03l1.952-1.414h.032" fill="#666"/><path d="M106.374 70.623l-1.596 2.88c0 .21.01.426.01.645 0 15.339-4.703 26.97-10.485 26.97-5.787 0-10.48-11.631-10.48-26.97 0-.242.005-.48.01-.714l-1.6-2.811a86.502 86.502 0 0 0-.07 3.51c0 17.39 5.435 30.562 12.142 30.562s12.147-13.173 12.147-30.563c0-1.194-.031-2.359-.078-3.51" fill="#ebeeec"/><path d="M106.374 70.623l-1.596 2.88c0 .21.01.426.01.645 0 15.339-4.703 26.97-10.485 26.97-5.787 0-10.48-11.631-10.48-26.97 0-.242.005-.48.01-.714l-1.6-2.811a86.502 86.502 0 0 0-.07 3.51c0 17.39 5.435 30.562 12.142 30.562s12.147-13.173 12.147-30.563c0-1.194-.031-2.359-.078-3.51" fill="#666"/><path d="M93.495 33.58c-8.298.668-15.296 11.589-17.946 27.617l1.535 1.877h.03c2.225-16.454 8.702-28.742 16.44-29.493-.02.001-.04-.002-.06 0zm1.564 0c7.738.752 14.217 13.04 16.44 29.494h.02l1.536-1.877c-2.652-16.06-9.68-26.99-17.996-27.617z" fill="url(#c)"/><path d="M76.44 69.921l-1.96 2.322a91.355 91.355 0 0 0-.07 3.33c0 24.194 8.468 41.488 19.372 42.023-9.705-.647-17.49-19.219-17.49-42.023 0-1.916.061-3.795.168-5.652zm35.713 0c.11 1.856.179 3.736.179 5.652 0 22.811-7.796 41.386-17.51 42.022 10.908-.534 19.371-17.828 19.371-42.022 0-1.125-.019-2.225-.059-3.32l-1.961-2.332z" fill="url(#d)"/><path d="M145.902 52.815a39.537 39.537 0 0 1 7.44 7.95 27.321 27.321 0 0 0-5.229-12.414 53.46 53.46 0 0 0-2.274-1.707c.11.302.21.612.29.922a9.07 9.07 0 0 1-.227 5.25M42.703 52.815a9.11 9.11 0 0 1-.221-5.25 5.725 5.725 0 0 1 .37-.984 70.8 70.8 0 0 0-2.355 1.77 27.418 27.418 0 0 0-5.23 12.413 39.508 39.508 0 0 1 7.436-7.949" fill="#343d3b"/><path d="M94.307 27.504c-42.365 0-76.705 21.243-76.705 47.437 0 26.2 34.34 47.427 76.705 47.427 42.36 0 76.695-21.227 76.695-47.427 0-26.194-34.335-47.437-76.695-47.437zm0 6.037c22.278 0 42.093 5.826 44.497 13.754 2.085 6.878-9.313 13.246-27.294 15.77-2.296-16.99-9.133-29.524-17.203-29.524zm0 0c-8.066 0-14.908 12.535-17.203 29.523-17.98-2.523-29.381-8.891-27.295-15.77 2.405-7.927 22.225-13.753 44.498-13.753zm0 10.128c5.317 0 9.833 7.813 11.478 20.038-3.635.32-7.47.503-11.478.503-4.007 0-7.844-.182-11.479-.503 1.644-12.225 6.162-20.038 11.479-20.038zm-51.48 2.924a5.568 5.568 0 0 0-.347.969c-2.516 9.928 11.778 19.096 33.98 22.35q-.163 2.783-.168 5.661c0 23.213 8.063 42.032 18.015 42.032s18.025-18.82 18.025-42.032c0-1.918-.06-3.806-.169-5.661 22.19-3.256 36.482-12.425 33.97-22.35q-.116-.459-.277-.91c10.546 7.528 16.945 17.382 16.945 28.17 0 23.63-30.67 42.783-68.494 42.783-37.829 0-68.495-19.153-68.495-42.783 0-10.815 6.422-20.695 17.015-28.229zm39.407 24.02c3.846.364 7.881.553 12.073.553s8.226-.189 12.072-.553c.047 1.149.07 2.327.07 3.527 0 17.383-5.435 30.551-12.142 30.551s-12.142-13.168-12.142-30.55c0-1.201.022-2.379.069-3.528z" fill="url(#e)"/><path d="M82.21 70.6l.015.01 1.645 2.894a121.043 121.043 0 0 0 20.917-.007l1.601-2.888.01-.01c-3.852.367-7.89.569-12.093.569-4.202 0-8.243-.202-12.095-.568zm64.19-20.355c-.411 8.859-14.06 16.708-34.237 19.665l.008.007 1.968 2.345c19.74-3.54 32.728-12.236 32.26-22.018zm-104.19 0c-.466 9.79 12.52 18.478 32.257 22.017l1.973-2.345.004-.007c-20.178-2.958-33.818-10.806-34.233-19.666" fill="#c3cecb"/><path d="M82.21 70.6l.015.01 1.645 2.894a121.043 121.043 0 0 0 20.917-.007l1.601-2.888.01-.01c-3.852.367-7.89.569-12.093.569-4.202 0-8.243-.202-12.095-.568zm64.19-20.355c-.411 8.859-14.06 16.708-34.237 19.665l.008.007 1.968 2.345c19.74-3.54 32.728-12.236 32.26-22.018zm-104.19 0c-.466 9.79 12.52 18.478 32.257 22.017l1.973-2.345.004-.007c-20.178-2.958-33.818-10.806-34.233-19.666" fill="#333"/><path d="M106.449 74.288a62.666 62.666 0 0 1-.114 8.781 64.038 64.038 0 0 1-.535 4.378 51.347 51.347 0 0 1-.898 4.333 36.177 36.177 0 0 1-1.326 4.246 27.07 27.07 0 0 1-1.919 4.065c-.198.323-.383.654-.607.964l-.325.47-.352.457c-.226.31-.498.591-.749.886-.28.274-.538.565-.85.815a6.279 6.279 0 0 1-8.936 0c-.311-.25-.57-.541-.85-.815-.25-.295-.523-.576-.749-.886l-.352-.456-.324-.471c-.225-.31-.41-.641-.608-.964a27.07 27.07 0 0 1-1.918-4.065 36.177 36.177 0 0 1-1.326-4.246 51.347 51.347 0 0 1-.899-4.333 64.038 64.038 0 0 1-.535-4.378 62.666 62.666 0 0 1-.113-8.781 76.91 76.91 0 0 0 2.77 17.153 33.252 33.252 0 0 0 3.34 7.854 13.495 13.495 0 0 0 2.602 3.182 4.795 4.795 0 0 0 6.86 0 13.495 13.495 0 0 0 2.602-3.182 33.25 33.25 0 0 0 3.34-7.854 76.91 76.91 0 0 0 2.77-17.153zM82.924 63.488a41.728 41.728 0 0 1 2.737-11.97 20.547 20.547 0 0 1 3.124-5.419 9.936 9.936 0 0 1 2.436-2.126 6.945 6.945 0 0 1 1.532-.674 5.682 5.682 0 0 1 1.688-.223 6.174 6.174 0 0 1 3.172 1.036 10.041 10.041 0 0 1 2.374 2.182 21.028 21.028 0 0 1 3.058 5.45 42.37 42.37 0 0 1 2.678 11.983 57.245 57.245 0 0 0-3.534-11.62 21.685 21.685 0 0 0-3.071-5.09 9.416 9.416 0 0 0-2.132-1.918 4.99 4.99 0 0 0-2.574-.826 4.604 4.604 0 0 0-1.333.165 5.771 5.771 0 0 0-1.264.544 9.138 9.138 0 0 0-2.17 1.859 21.077 21.077 0 0 0-3.125 5.049 56.406 56.406 0 0 0-3.596 11.598z" fill="#fff"/><path d="M77.062 63.228a83.035 83.035 0 0 1-10.226-1.869 51.139 51.139 0 0 1-9.859-3.463 23.376 23.376 0 0 1-4.48-2.838 10.039 10.039 0 0 1-3.27-4.375 6.403 6.403 0 0 1-.267-2.86 7.573 7.573 0 0 1 .99-2.668 13.593 13.593 0 0 1 3.816-3.873 36.304 36.304 0 0 1 9.528-4.538q2.494-.827 5.04-1.45a81.73 81.73 0 0 1 5.115-1.101 118.011 118.011 0 0 1 20.777-1.788q5.217.011 10.422.445a103.885 103.885 0 0 1 10.35 1.359 76.888 76.888 0 0 1 10.145 2.547 36.928 36.928 0 0 1 9.514 4.499 13.684 13.684 0 0 1 3.828 3.789 6.969 6.969 0 0 1 1.037 2.59 3.85 3.85 0 0 1 .078.706 3.749 3.749 0 0 1 .005.71l-.025.355-.06.35a4.575 4.575 0 0 1-.165.686 9.624 9.624 0 0 1-3.143 4.381 22.693 22.693 0 0 1-4.439 2.845 50.024 50.024 0 0 1-9.82 3.467 82.196 82.196 0 0 1-10.206 1.861q2.554-.438 5.08-1.006a80.667 80.667 0 0 0 5.013-1.27 49.43 49.43 0 0 0 9.564-3.763 22.411 22.411 0 0 0 4.203-2.833 8.671 8.671 0 0 0 2.746-3.971 5.327 5.327 0 0 0-.844-4.48 12.511 12.511 0 0 0-3.575-3.362 28.703 28.703 0 0 0-4.462-2.377 46.57 46.57 0 0 0-4.782-1.779 75.371 75.371 0 0 0-9.975-2.367 118.296 118.296 0 0 0-20.487-1.644 118.155 118.155 0 0 0-20.476 1.728 80.073 80.073 0 0 0-5.023 1.04q-2.495.589-4.929 1.376a46.275 46.275 0 0 0-4.762 1.804 28.143 28.143 0 0 0-4.421 2.408 12.21 12.21 0 0 0-3.48 3.383 6.218 6.218 0 0 0-.845 2.142 5.074 5.074 0 0 0 .172 2.258 8.83 8.83 0 0 0 2.812 3.853 22.89 22.89 0 0 0 4.206 2.772 50.22 50.22 0 0 0 9.559 3.687c1.652.47 3.324.878 5.006 1.243q2.521.558 5.075.981z" fill="#fff"/><path d="M146.976 47.294a45.94 45.94 0 0 1 10.637 10.854 31.071 31.071 0 0 1 5.333 14.223 28.856 28.856 0 0 1-2.597 15.002 37.162 37.162 0 0 1-3.942 6.6 48.516 48.516 0 0 1-5.147 5.705 60.282 60.282 0 0 1-5.961 4.84l-1.596 1.068c-.527.363-1.073.697-1.623 1.025-.549.328-1.09.67-1.645.986l-1.681.925c-.556.318-1.13.598-1.703.883-.573.283-1.14.578-1.719.85-1.17.515-2.317 1.082-3.51 1.543l-1.775.724-1.8.66c-1.193.458-2.417.824-3.63 1.227a103.372 103.372 0 0 1-30.196 4.498 103.631 103.631 0 0 1-30.208-4.425 82.508 82.508 0 0 1-14.153-5.847c-1.122-.615-2.248-1.222-3.332-1.904-1.106-.643-2.16-1.372-3.224-2.083a57.712 57.712 0 0 1-5.981-4.814 47.12 47.12 0 0 1-5.178-5.677 37.864 37.864 0 0 1-3.99-6.57 29.111 29.111 0 0 1-2.717-14.983 30.872 30.872 0 0 1 5.23-14.262 45.655 45.655 0 0 1 10.58-10.907 46.842 46.842 0 0 0-10.32 11.077 30.429 30.429 0 0 0-4.918 14.14 28.53 28.53 0 0 0 2.815 14.619 37.084 37.084 0 0 0 3.971 6.386 46.264 46.264 0 0 0 5.138 5.513 56.777 56.777 0 0 0 5.928 4.67c1.057.686 2.09 1.407 3.185 2.035 1.069.667 2.181 1.262 3.289 1.864a81.471 81.471 0 0 0 13.991 5.722 102.557 102.557 0 0 0 29.893 4.272 102.256 102.256 0 0 0 29.88-4.343c1.2-.394 2.411-.751 3.591-1.2l1.78-.646 1.755-.708c1.179-.45 2.313-1.006 3.47-1.51.57-.267 1.13-.556 1.697-.833.566-.279 1.134-.553 1.682-.864l1.66-.906c.548-.31 1.082-.645 1.624-.967 1.095-.626 2.118-1.364 3.179-2.043a59.354 59.354 0 0 0 5.91-4.695 47.665 47.665 0 0 0 5.106-5.541 36.383 36.383 0 0 0 3.924-6.415 28.28 28.28 0 0 0 2.698-14.637 30.628 30.628 0 0 0-5.022-14.106 41.101 41.101 0 0 0-4.738-5.923 52.807 52.807 0 0 0-5.64-5.102z" fill="#fff"/></svg>