<svg xmlns="http://www.w3.org/2000/svg" viewBox="0 0 192 192"><g fill-rule="evenodd"><path d="M28.534 127.865c1.66.105 2.417.949 2.417 2.191a2.056 2.056 0 0 1-2.147 2.186c-1.563.081-5.203.093-6.833 0q-.09-2.16 0-4.377c1.84-.063 5.023-.096 6.564 0m.292 7.718c2.296.067 3.441 1.04 3.441 2.54 0 1.559-1.017 2.389-3.352 2.5-2.155.1-4.6.1-6.926 0a49.001 49.001 0 0 1 0-5.04c2.235-.062 4.81-.062 6.835 0m-10.626 8.29q.196-9.46 0-19.151c3.252.086 6.97.086 10.39 0 3.92 0 5.96 2.386 5.96 4.787a4.732 4.732 0 0 1-2.115 4.128 4.826 4.826 0 0 1 3.469 4.825c0 3.661-2.665 5.411-5.984 5.411zm107.56-3.341q-.07 1.653 0 3.342-7.907-.137-15.807 0 .165-9.575-.002-19.15c1.218.046 2.431.046 3.646 0q-.154 7.906 0 15.808 6.079.122 12.161 0m-58.539-15.817q5.377 6.416 11.127 12.835.136-6.41-.004-12.821 1.61.07 3.266 0-.14 9.46 0 19.144a30.742 30.742 0 0 0-2.785.007q-5.605-6.711-11.688-13.574-.123 6.785-.002 13.57-1.575-.062-3.266 0 .127-9.573 0-19.147 1.676.065 3.352-.015m-9.314 3.353q-6.235-.14-12.61 0a32.289 32.289 0 0 0 0 4.332q4.265.12 8.63 0-.067 1.662 0 3.336-4.26-.13-8.631 0a44.367 44.367 0 0 0 0 4.797q6.416.128 12.828 0-.062 1.674 0 3.342-8.233-.137-16.471 0 .149-9.572 0-19.15 8.222.137 16.254 0-.07 1.671 0 3.343m103.47 15.8q.136-4.062 0-8.23-4.217-5.452-8.8-10.905 2.244.065 4.492 0 2.885 3.708 6.13 7.414 3.225-3.708 6.13-7.415 2.244.07 4.488 0-4.562 5.453-8.8 10.907-.138 4.115 0 8.23a52.457 52.457 0 0 0-3.64 0m-14.19-15.801q-6.234-.14-12.61 0a33.491 33.491 0 0 0 0 4.332q4.268.12 8.633 0-.07 1.662 0 3.336-4.266-.13-8.634 0a44.974 44.974 0 0 0 0 4.797q6.413.128 12.828 0-.066 1.674 0 3.342-8.234-.137-16.476 0 .151-9.572 0-19.15 8.223.137 16.258 0-.067 1.671 0 3.343m-52.939 15.807q.14-7.812 0-15.807-3.4-.15-6.89 0c.04-1.101.04-2.217 0-3.343q8.712.144 17.425 0a44.267 44.267 0 0 0 0 3.343q-3.441-.133-6.89 0-.136 7.903 0 15.807a47.41 47.41 0 0 0-3.646 0M.003 53.68s1.426-1.672 1.833-2.136c.413-.462.713-.821.987-1.092a1.033 1.033 0 0 1 .85-.316c.262.026 3.052.327 3.804.41.753.08 4.053.233 5.364.233 1.315 0 4.772.008 5.501.008s6.222-.31 7.443-.402c1.224-.093 8.237-.181 9.934-.208 1.699-.027 9.553.274 11.495.382 1.944.109 7.281.382 9.06.327 1.777-.053 10.18-.41 11.851-.41 1.667 0 6.924.326 8.1.518a21.68 21.68 0 0 1 2.545.629s2.244-.904 3.394-1.286A45.257 45.257 0 0 1 95.82 48.12a44.045 44.045 0 0 1 8.29.797 51.079 51.079 0 0 1 6.16 1.75c1.038.411 3.256 1.42 3.256 1.42s1.617-.49 2.983-.792a37.717 37.717 0 0 1 4.677-.709 35.92 35.92 0 0 1 3.642-.164c1.476.03 5.01.381 5.996.491a47.136 47.136 0 0 0 5.717.358c1.615-.018 6.816-.248 8.322-.33 1.504-.081 10.535-.49 12.394-.519 1.864-.028 10.016.466 11.662.547 1.643.085 5.089.246 6.157.222 1.068-.031 4.655-.196 6.459-.385 1.805-.192 5.68-.51 6.337-.55a2.726 2.726 0 0 1 1.162.043c.12.081 1.258 1.175 1.724 1.694.465.523.93 1.164 1.107 1.37.179.207.257.289.206.397a7.955 7.955 0 0 1-.507.835 1.073 1.073 0 0 1-.384.3c-.15.086-1.75.888-2.272 1.11l-1.885.793s.395.93.543 1.34a7.116 7.116 0 0 1 .37 1.508 3.518 3.518 0 0 1-.039.888c-.07.043-.876.509-1.192.643-.315.136-1.504.631-2.024.768-.518.132-1.492.395-1.492.395a9.863 9.863 0 0 1 .043 1.19 8.805 8.805 0 0 1-.137 1.437 3.787 3.787 0 0 1-.603 1.19 2.926 2.926 0 0 1-.919.629 11.349 11.349 0 0 1-1.779.534c-.505.094-1.204.205-1.503.232-.304.026-.551.026-.551.026s-.024.895-.068 1.288a9.09 9.09 0 0 1-.269 1.395 2.846 2.846 0 0 1-.66 1.082 1.901 1.901 0 0 1-.982.507 16.654 16.654 0 0 1-1.753.33c-.614.068-1.793.203-2.19.234-.397.023-.81.038-.81.038s-.3 1.107-.422 1.45a8.09 8.09 0 0 1-.755 1.451 7.922 7.922 0 0 1-.943 1.094 3.046 3.046 0 0 1-.779.518 9.712 9.712 0 0 1-1.451.1c-.412 0-1.655 0-2.272-.044-.615-.039-1.288-.109-1.71-.149a4.134 4.134 0 0 1-.644-.108s-.136.85-.18 1.068a7.333 7.333 0 0 1-.352 1.149 2.751 2.751 0 0 1-.55.874 1.408 1.408 0 0 1-.847.468 7.933 7.933 0 0 1-1.327.15c-.316.014-2.315.067-2.848.067-.535 0-1.561-.012-1.931-.027-.367-.012-.944 0-.944 0s-.148.631-.26.988a9.189 9.189 0 0 1-.478 1.203 3.045 3.045 0 0 1-.55.807 1.113 1.113 0 0 1-.794.437 11.136 11.136 0 0 1-1.555.082c-.553-.014-1.755-.082-2.314-.164-.56-.082-1.713-.304-2.04-.397a5.835 5.835 0 0 1-.67-.246 6.557 6.557 0 0 1-.368.917 4.692 4.692 0 0 1-.753 1.04 2.232 2.232 0 0 1-1.137.696 5.416 5.416 0 0 1-1.517-.093 25.092 25.092 0 0 1-1.859-.397c-.427-.11-1.496-.425-1.736-.494a5.121 5.121 0 0 1-.553-.193 6.893 6.893 0 0 1-.491.837 5.657 5.657 0 0 1-.795.849 2.863 2.863 0 0 1-.944.535 4.574 4.574 0 0 1-1.044-.068 10.472 10.472 0 0 1-1.502-.385c-.479-.152-.876-.328-.876-.328s-.518 1.505-.658 1.847a43.23 43.23 0 0 1-1.058 2.205c-.206.395-1.315 2.2-1.653 2.694-.409.605-2.05 2.67-2.447 3.066-.397.397-.958 1-1.315 1.37-.354.366-1.862 1.71-2.667 2.356a41.097 41.097 0 0 1-3.406 2.408c-1.138.697-3.202 1.807-4.107 2.216-.902.412-1.942.836-1.942.836s-.413.778-.628 1.274a13.996 13.996 0 0 1-.713 1.377.396.396 0 0 1-.479.114c-.204-.067-1.192-.439-1.56-.575-.367-.138-1.189-.48-1.189-.48s-.549.807-.742 1.108c-.19.304-.724 1.11-.818 1.204-.098.098-.304.059-.423.014-.122-.04-1.19-.626-1.41-.754-.218-.12-1.134-.654-1.134-.654s-.52.629-.795 1c-.22.298-.974 1.162-1.04 1.229-.07.07-.18.058-.34-.012a7.157 7.157 0 0 1-.838-.591c-.356-.26-.959-.74-1.148-.86a2.884 2.884 0 0 1-.37-.288s-.683.672-.93.903c-.245.234-.848.818-.93.903l-.23.217a.283.283 0 0 1-.289.016 12.455 12.455 0 0 1-1.163-1.028c-.248-.234-.958-.942-.958-.942s-.862.626-1.15.833c-.287.204-1.051.807-1.191.872a.35.35 0 0 1-.437-.105c-.11-.154-.93-1.099-1.08-1.29-.152-.19-.672-.808-.672-.808s-1.014.552-1.421.757c-.414.205-1.029.61-1.14.655-.112.042-.356.042-.438-.096-.08-.138-.612-.9-.82-1.204-.235-.343-.714-1.08-.714-1.08s-.93.34-1.258.48c-.325.135-1.312.52-1.488.558-.18.043-.44-.002-.51-.134-.093-.178-.764-1.464-.902-1.777-.136-.32-.354-.785-.354-.785s-1.102-.437-1.821-.767c-.78-.356-2.45-1.173-3.144-1.558a32.85 32.85 0 0 1-2.56-1.561c-.699-.48-2.3-1.655-2.93-2.202-.632-.544-2.764-2.667-3.27-3.24a39.117 39.117 0 0 1-2-2.478 20.638 20.638 0 0 1-1.655-2.696 27.078 27.078 0 0 1-1.288-2.737c-.437-1.082-.806-2.08-.914-2.45-.112-.37-.14-.521-.14-.521s-1.242.412-2.118.62a10.254 10.254 0 0 1-2.75.438c-.889-.059-1.053-.196-1.272-.372a4.845 4.845 0 0 1-.795-.918 9.236 9.236 0 0 1-.588-.984s-1.367.342-1.9.465c-.532.123-1.794.37-2.547.466a11.324 11.324 0 0 1-2.066.138 2.053 2.053 0 0 1-1.139-.564 3.938 3.938 0 0 1-.75-.861 12.12 12.12 0 0 1-.643-1.19 2.886 2.886 0 0 1-.136-.44s-1.574.028-1.986.028c-.41 0-2.572-.011-3.01-.026a18.391 18.391 0 0 1-2.092-.19 1.673 1.673 0 0 1-1.234-.783 4.476 4.476 0 0 1-.75-1.364c-.18-.479-.316-1.013-.316-1.013s-1.384-.014-2.123-.094c-.736-.084-2.27-.261-3.103-.397-.835-.137-2.103-.359-2.45-.48-.342-.122-.532-.412-.831-.74a10.18 10.18 0 0 1-.88-1.177c-.274-.411-.837-1.246-.889-1.367-.055-.123-.136-.261-.136-.261s-1.424-.138-2.05-.22a40.45 40.45 0 0 1-1.976-.313 14.636 14.636 0 0 1-1.776-.413 1.227 1.227 0 0 1-.673-.654 12.891 12.891 0 0 1-.546-2.057c-.19-.777-.316-1.407-.316-1.407s-1.147-.3-2.068-.547c-.914-.248-1.175-.327-1.807-.518a6.956 6.956 0 0 1-1.583-.66c-.356-.23-.343-.668-.382-.913-.042-.248-.14-1.29-.167-1.59-.028-.3-.014-.956-.014-.956s-2.284-1.054-2.873-1.312c-.589-.263-1.984-.932-2.273-1.066-.284-.14-.245-.44-.202-.672.035-.231.229-1.162.327-1.615.094-.451.245-1.192.274-1.288.023-.094.038-.187.038-.187s-2.205-1.11-2.751-1.398c-.547-.29-2.092-1.067-2.3-1.192-.206-.123-.284-.37-.382-.71-.094-.34-.136-.531-.136-.531"/><path d="M72.718 67.458c.22-2.527 3.397-5.355 2.939-7.924-.366-2.034-2.881-3.761-5.408-4.156-1.454-.228-6.23-.585-7.273-.617-1.286-.041-4.748-.109-5.828-.123-1.08-.012-3.943-.03-4.788-.056a21.802 21.802 0 0 1-3.26-.274 27.87 27.87 0 0 1-3.694-.931c-1.356-.411-2.435-.74-3.5-.972a29.689 29.689 0 0 0-3.355-.532c-.935-.082-2.764-.22-4.145-.246-1.385-.027-4.792 0-5.888.012-1.093.015-4.488.137-5.377.137s-1.846-.014-2.267.014c-.426.027-.33.231-.524.26s-1.23 0-1.818 0-1.029-.028-1.234-.042c-.207-.014-.507-.014-.507-.014a.212.212 0 0 0 .169.246 7.358 7.358 0 0 0 .902.11c.175.017 1.572.11 2.065.136.496.026 1.34.026 1.875.07.533.041 1.49.041 2.12.054.631.014 3.174 0 4.105.026.93.028 2.684.028 3.543.056.863.026 2.902.109 4.505.304a36.128 36.128 0 0 1 4.513.764c1.54.366 3.366.942 4.257 1.216s2.121.604 2.762.738a6.045 6.045 0 0 1 1.383.318c.164.134.164.287.07.494a4.763 4.763 0 0 0-.245.464c-.073.191-.14.34-.14.34h-.573a.463.463 0 0 0 .123-.233c.012-.12-.327-.33-.685-.397-.355-.07-1.982-.218-2.408-.273a28.47 28.47 0 0 0-2.916-.194c-.874.018-4.295-.027-5.172 0-.875.032-4.075-.037-4.886-.011-.806.028-3.623 0-4.39-.017-.766-.011-2.547-.011-3.257-.011s-3.12 0-3.968-.016c-.848-.015-3.751-.081-4.31-.067-.561.014-2.15-.042-2.942-.054-.795-.015-3.518-.097-4.258-.097a11.18 11.18 0 0 1-1.956-.137c-.286-.084-1.85-.892-2.476-1.204-.633-.315-1.823-.93-2.15-1.095-.327-.167-.643-.385-.74-.428-.093-.038-.533.386-.654.55-.123.163-.345 0-.345 0s1.504-1.672 1.808-2.022a4.45 4.45 0 0 1 .833-.89 4.867 4.867 0 0 1 1.218-.016c.397.04 2.928.257 3.422.3.491.04 2.642.11 3.214.136.576.03 3.298.042 4.202.07.902.026 3.736.094 4.584.053.848-.04 3.2-.26 3.927-.3s3.01-.206 4.076-.232c1.069-.026 3.258-.012 3.955-.054.697-.043 3.462-.07 4.42-.07.957 0 3.653.112 4.57.138.917.026 4.845.234 5.867.285 1.027.056 6.12.234 7.24.26 1.124.028 2.793.087 3.679.028.895-.054 5.16-.246 6.46-.287 1.298-.04 4.706-.093 6.09-.052 1.385.038 4.706.37 5.832.507 1.122.136 2.226.423 2.542.435a1.983 1.983 0 0 1 1 .207c.178.163.34.531.683.738.339.204.82.284.984.503.164.222.18.673.275.865a4.671 4.671 0 0 1 .549 1.244 2.958 2.958 0 0 1-.272 1.63 9.018 9.018 0 0 1-1.237 1.542c-.506.522-1.27 1.085-1.943 1.66a16.083 16.083 0 0 0-2.396 2.267 4.761 4.761 0 0 0-1.08 2.163c-.122.808-.054 1.289-.094 1.425a2.026 2.026 0 0 1-.357.682 35.123 35.123 0 0 0-1.328 1.578 30.522 30.522 0 0 0-.932 1.326c-.124.19-.233.394-.233.394l-.19-.327a5.215 5.215 0 0 0 .462-.626c.164-.189.088-.773.173-1.756" fill="#fff"/><path d="M6.3 57.976l.094-.507s1.396-.012 1.819.015c.424.023 2.97.109 3.86.109.892 0 3.654.081 4.323.056.671-.028 4.407.052 5.215.052.807 0 4.722.014 5.529.028.806.012 5.282.038 5.977.038.698 0 4.382 0 5.243.015.859.012 4.554-.026 5.391-.026.832 0 2.969.038 3.434.024a5.51 5.51 0 0 0 .932-.082c.094-.024.394-.15.573-.068.181.082.26.29.343.395a1.706 1.706 0 0 0 .34.304 1.659 1.659 0 0 1 .415.33 1.07 1.07 0 0 0 .315.312c.192.154.234.222.164.303-.066.082-.358.453-.48.643s-.163.398-.23.451a1.845 1.845 0 0 1-.479.097s.246-.175.204-.34a.995.995 0 0 0-.916-.574 22.944 22.944 0 0 0-2.708.16c-.658.073-5.014.452-5.777.523-.764.068-6.797.494-7.824.575-1.027.082-5.801.368-6.718.437-.917.067-4.49.245-5.599.312-1.108.07-3.667.179-4.64.222-.967.042-2.898.082-3.255.055a3.78 3.78 0 0 1-1.08-.341c-.246-.11-1.792-.807-2.23-1a5.996 5.996 0 0 1-1.34-.684c-.138-.182-.07-.466-.07-.684a.861.861 0 0 0-.262-.713c-.248-.21-.561-.44-.561-.44m4.802 5.912v-.381a8.2 8.2 0 0 0 .982-.056c.344-.055 1.698-.055 2.602-.094.902-.044 4.433-.195 5.54-.26 1.138-.07 6.175-.344 7.117-.412.947-.067 7.594-.52 8.524-.604.929-.078 6.42-.518 7.281-.584.86-.073 3.735-.372 4.76-.456a6.124 6.124 0 0 0 1.342-.23c.164-.013.288-.11.453.082a5.252 5.252 0 0 0 .71.712c.208.136.851.546.865.748a1.612 1.612 0 0 1-.278.66 1.734 1.734 0 0 0-.094.576l-.657.121a1.827 1.827 0 0 0 .07-.245.567.567 0 0 0-.37-.464 2.117 2.117 0 0 0-1.177-.094c-.45.094-2.506.45-3.339.585-.834.138-5.677.947-6.855 1.137-1.175.19-5.828.903-6.94 1.052-1.104.152-5.4.713-6.905.862-1.507.152-3.314.328-4.324.386a19.901 19.901 0 0 1-2.78.068c-.736-.082-2.366-.59-3.079-.766a8.02 8.02 0 0 1-1.959-.67 1.217 1.217 0 0 1-.327-.587 1.707 1.707 0 0 0-.577-.768 12.387 12.387 0 0 1-.585-.316m6.06 4.83a2.232 2.232 0 0 0 .574 0 7.234 7.234 0 0 1 .918-.19c.355-.015 1.422-.056 2.013-.083.587-.025 2.311-.19 2.913-.245.603-.056 3.463-.344 4.394-.468.928-.121 6.031-.847 6.882-.967.85-.125 5.119-.767 6.28-.974 1.163-.204 5.066-.89 6.064-1.082.997-.19 2.203-.382 2.653-.477.454-.098.756-.302 1.002-.234a6.634 6.634 0 0 1 .818.41c.316.151.795.303 1.054.397.26.097.507.233.534.33a1.29 1.29 0 0 1-.108.668 1.7 1.7 0 0 0-.219.56c-.043.22-.058.4-.058.4l-.613.219s.094-.276 0-.414a.963.963 0 0 0-.616-.355 3.58 3.58 0 0 0-.74.137c-.283.096-3.983 1.204-4.572 1.367l-4.406 1.216c-.547.155-4.023 1.028-5.006 1.232-.986.205-4.625.946-5.528 1.11-.903.166-4.324.604-5.198.658a10.67 10.67 0 0 1-1.728.04c-.697-.039-2.01-.204-2.846-.325s-1.736-.304-2.052-.37c-.315-.071-.614-.125-.753-.492-.136-.37-.121-.646-.353-.903a2.69 2.69 0 0 0-.713-.604c-.191-.082-.495-.08-.537-.176a1.088 1.088 0 0 1-.052-.385m7.361 4.995s2.49-.26 3.05-.342 4.395-.63 5.311-.82c.917-.194 4.87-1.053 5.582-1.216.711-.168 5.038-1.292 5.897-1.524.861-.234 3.763-1.052 4.543-1.298.78-.245 3.093-.943 3.354-1.054a1.75 1.75 0 0 1 .78-.273 11.726 11.726 0 0 1 1.285.34 5.623 5.623 0 0 1 1.11.328.447.447 0 0 1 .147.426c-.027.195-.016 1.203 0 1.313.015.111.275.327.275.327l-.656.261c-.14.056-.439.167-.439.167a.92.92 0 0 0 .024-.371 1.555 1.555 0 0 0-.52-.328.971.971 0 0 0-.522.096c-.285.096-1.025.427-1.39.592-.372.16-2.56 1.023-3.215 1.282-.66.26-3.314 1.274-4.165 1.577-.847.3-4.703 1.629-5.417 1.847-.71.219-3.241.93-3.843 1.08a6.83 6.83 0 0 1-1.385.304 31.48 31.48 0 0 1-3.202-.246c-.793-.11-3.023-.44-3.324-.537a1.358 1.358 0 0 1-.67-.42 2.006 2.006 0 0 0-.629-.521 9.432 9.432 0 0 0-.902-.438c-.245-.096-.356-.136-.521-.205a3.392 3.392 0 0 1-.439-.154.35.35 0 0 1-.123-.193m10.308 4.31a9.852 9.852 0 0 0 1.04-.301c.232-.109 1.533-.505 1.943-.615.413-.11 1.874-.507 2.489-.713.617-.206 3.489-1.19 4.053-1.379.561-.193 3.98-1.48 4.652-1.74.67-.259 4.476-1.818 5.02-2.04a10.238 10.238 0 0 0 1.285-.575 5.726 5.726 0 0 1 1.099-.493 5.231 5.231 0 0 1 1.118-.146c.263.012.456-.016.561.105a.647.647 0 0 1 .138.495 1.25 1.25 0 0 0 .288.9 2.676 2.676 0 0 0 .985.439 7.915 7.915 0 0 0 .914.164.903.903 0 0 0 .234 0s-.78.464-.97.56l-1.017.507s-.067-.205-.161-.246a2.693 2.693 0 0 0-.77-.015 2.09 2.09 0 0 0-.871.304c-.276.164-2.902 1.558-3.422 1.831s-4.547 2.37-5.09 2.616c-.55.245-3.133 1.517-3.56 1.71a3.232 3.232 0 0 1-1.066.397c-.398.04-1.297.054-2.104.067a56.58 56.58 0 0 1-2.89-.053 6.392 6.392 0 0 1-1.587-.191c-.381-.152-.439-.36-.67-.632a2.537 2.537 0 0 0-.888-.6 1.524 1.524 0 0 0-.66-.058c-.053.012-.093-.301-.093-.301m9.36 3.313s3.134-1.575 3.61-1.776c.482-.207 5.16-2.6 5.763-2.93.602-.327 4.022-2.202 4.762-2.61.739-.413 1.765-.958 1.929-1.068a2.165 2.165 0 0 1 .493-.345 2.385 2.385 0 0 1 .341-.094s.289.386.453.588a1.688 1.688 0 0 0 .946.631 3.104 3.104 0 0 0 .873.039c.26-.027.713-.122.713-.122s-1.133 1.094-1.34 1.256c-.206.166-2.697 2.206-3.189 2.645-.493.438-2.3 1.846-2.711 2.173-.41.328-1.722 1.302-2.01 1.45a9.887 9.887 0 0 1-1.465.549c-.451.122-2.533.561-3.284.71s-2.368.427-2.681.439a1.319 1.319 0 0 1-1.04-.275c-.276-.286-.425-.71-.781-.888a1.56 1.56 0 0 0-.85-.26c-.493.067-.531-.11-.531-.11m9.098 1.836s1.695-1.246 2.069-1.549c.366-.302 1.898-1.504 2.31-1.833.414-.33 2.218-1.792 2.766-2.244.55-.452 2.188-1.846 2.613-2.232.424-.38 1.272-1.201 1.272-1.201a.933.933 0 0 0 .204.448 2.521 2.521 0 0 0 .713.535 3.006 3.006 0 0 0 1.206.166c.354-.012.696-.054.832-.054a.34.34 0 0 1 .37.3c.011.234.027.398.027.509a.474.474 0 0 0 .051.204l-2.515 2.793c-.491.546-1.917 2.077-2.368 2.544-.453.462-1.601 1.708-1.737 1.82-.136.11-.54.024-.783-.122-.313-.193-.6-.042-.982.056-.385.093-1.069.3-1.519.409a14.775 14.775 0 0 1-1.779.344 1.063 1.063 0 0 1-.78-.22 4.126 4.126 0 0 0-.78-.713c-.206-.096-.453-.164-.561-.096-.11.066-.55.325-.631.134m8.282.546s1.64-1.736 2.01-2.119c.368-.385 2.355-2.531 2.78-2.996a63.937 63.937 0 0 0 1.324-1.549c.18-.22.316-.37.4-.37a6.567 6.567 0 0 0 .915-.096 5.257 5.257 0 0 1 1.064-.15c.14.04.14.149.154.26.015.108.026 1.298.041 1.681a7.78 7.78 0 0 1-.068 1.522c-.082.302-.985 2.067-1.192 2.545-.206.479-.795 1.546-.876 1.753a.75.75 0 0 1-.206.325c-.068.07-.222-.176-.438-.436a.774.774 0 0 0-.932-.234c-.312.082-2.078.546-2.393.613a3.66 3.66 0 0 1-1.15.164.819.819 0 0 1-.56-.477.641.641 0 0 0-.505-.383 1.232 1.232 0 0 1-.368-.056m8.004-1.226s.41-.97.506-1.151c.097-.18.23-.466.23-.466a6.593 6.593 0 0 0 .206.74 7.292 7.292 0 0 1 .414.752c.059.198.464 1.246.534 1.41a1.167 1.167 0 0 1 .149.575.642.642 0 0 0 .03.41c.054.135.105.264.012.301-.137.056-.425.26-.517.3a.413.413 0 0 1-.465-.175c-.085-.124-.427-.152-.699-.37a.525.525 0 0 1-.231-.574 6.522 6.522 0 0 0 .067-1.216c-.07-.183-.233-.537-.233-.537m-8.323 3.339s.507.642.837.63a1.629 1.629 0 0 0 .573-.14 1.026 1.026 0 0 1 .56.012.618.618 0 0 1 .29.496 2.673 2.673 0 0 0 .26.972c.179.397.876 1.819 1.285 2.49.41.671 1.602 2.366 2.107 2.983.51.616 2.192 2.451 2.627 2.832.438.384 2.656 2.232 3.451 2.762a43.945 43.945 0 0 0 3.831 2.326c1.146.576 2.572 1.246 2.94 1.386.368.138.616.175.683.285a1.207 1.207 0 0 0 .192.22l-.42.698-.372.587-.314-.148s.23-.194.15-.357a.953.953 0 0 0-.44-.467c-.259-.134-1.378-.612-1.874-.847-.49-.23-2.653-1.409-3.42-1.9-.766-.495-2.654-1.791-3.546-2.522a47.459 47.459 0 0 1-3.46-3.322c-.64-.713-1.983-2.478-2.395-3.11-.412-.627-1.573-2.734-1.821-3.295a3.665 3.665 0 0 0-.615-1.15c-.231-.218-.3-.26-.397-.273l-.34-.04s-.07-.164-.193-.536c-.098-.288-.178-.572-.178-.572" fill="#fff"/><path d="M63.633 86.232a3.11 3.11 0 0 0 .835-.176c.367-.152 1.384-.438 1.793-.549s.89-.316 1.094-.368a1.26 1.26 0 0 1 .477-.096c.126.026.195.096.327.286a4.396 4.396 0 0 0 .482.739 1.17 1.17 0 0 0 .86.37 3.801 3.801 0 0 0 1.084-.218c.314-.138.904-.521 1.04-.591.134-.07.328-.219.398-.148.068.068.164.19.257.218a.6.6 0 0 1 .288.247c.056.094.902 1.356 1.367 1.915.468.559 1.138 1.3 1.601 1.75.465.456 1.824 1.63 2.355 2.013.534.386 2.096 1.424 2.794 1.79.697.375 1.546.825 2.232 1.111.682.289 1.406.573 1.601.67a1.756 1.756 0 0 1 .393.301c.14.109.222.246.167.381-.054.138-.78 1.274-1.095 1.852-.316.572-.888 1.486-1.122 1.901-.232.41-.849 1.408-1.029 1.736-.175.33-.643 1.078-.668 1.165-.027.076-.149.07-.192 0-.042-.07.164-.292.164-.561a1.388 1.388 0 0 0-.316-.81 3.882 3.882 0 0 0-.847-.48c-.246-.109-1.45-.683-2.052-.997a36.203 36.203 0 0 1-2.615-1.534c-.792-.519-1.86-1.23-2.548-1.79-.684-.561-1.654-1.394-2.256-1.984a28.025 28.025 0 0 1-2.232-2.52 26.706 26.706 0 0 1-1.873-2.71c-.436-.78-.889-1.75-1.037-1.916a1.63 1.63 0 0 0-.686-.517 5.048 5.048 0 0 0-.631-.18c-.136-.012-.38-.012-.412-.123a.325.325 0 0 1 0-.18m-13.9-30.046s2.558-.012 3.313 0c.75.015 2.926.015 3.16.015a4.533 4.533 0 0 1 .658.109l.234.028s.107.245.023.327a2.342 2.342 0 0 0-.242.518c-.07.164-.015.345-.112.37-.094.023-.533.081-.533.081s.07-.206-.053-.289a1.398 1.398 0 0 0-.697-.175c-.264.012-1.562.138-1.973.175a64.58 64.58 0 0 0-1.808.232 1.32 1.32 0 0 1-.669-.067 6.666 6.666 0 0 1-.984-.464 1.003 1.003 0 0 0-.327-.205l-.262-.054.123-.33a1.97 1.97 0 0 1 .152-.272m.75 3.628a2.945 2.945 0 0 1 .327-.44 7.714 7.714 0 0 1 .947-.312c.246-.07 1.407-.345 1.929-.465.52-.126 1.519-.304 1.983-.425a10.107 10.107 0 0 1 1.04-.275 1.01 1.01 0 0 1 .52.18c.152.109.456.325.603.45.152.124.304.33.262.437a1.15 1.15 0 0 1-.192.304c-.08.108-.053.16-.08.287a1.677 1.677 0 0 0-.03.328s-.41.121-.478.136c-.07.012-.175.04-.175.04s.108-.288.026-.342a1.628 1.628 0 0 0-.685-.3 5.947 5.947 0 0 0-1.454.329c-.285.093-1.365.382-1.776.506a3.453 3.453 0 0 1-1.11.272 2.613 2.613 0 0 1-.9-.299c-.288-.138-.356-.194-.453-.245a12.796 12.796 0 0 0-.304-.164m1.106 2.899a.552.552 0 0 1 .155-.328 4.827 4.827 0 0 1 .611-.26c.166-.084.672-.25 1.204-.439.538-.19 1.535-.494 1.958-.614.429-.125 1.344-.412 1.578-.505a2.016 2.016 0 0 1 .752-.26 3.59 3.59 0 0 1 .915.204c.25.096.509.203.547.367a.805.805 0 0 1-.148.549.973.973 0 0 0-.15.37 1.626 1.626 0 0 0-.029.313.936.936 0 0 1-.33.167l-.285.066a.46.46 0 0 0-.095-.327.83.83 0 0 0-.7-.204c-.233.067-1.124.425-1.465.575-.342.151-1.314.601-1.642.738a1.558 1.558 0 0 1-.902.208 3.35 3.35 0 0 1-.888-.208c-.258-.121-.602-.301-.723-.342a2.723 2.723 0 0 0-.362-.068m2.135 2.364l1.162-.56c.397-.192 1.905-.877 2.367-1.096.465-.22 1.219-.59 1.383-.657a1.913 1.913 0 0 1 .535-.206 4.123 4.123 0 0 1 .874.14c.248.052.591.093.672.243a.956.956 0 0 1 .082.563 1.683 1.683 0 0 0-.122.533c.012.123.054.424.054.424l-.354.192c-.18.097-.414.206-.414.206a.751.751 0 0 0-.206-.342.73.73 0 0 0-.654-.137c-.152.044-1.04.56-1.374.765-.324.207-1.16.725-1.297.807a.77.77 0 0 1-.67.233 2.576 2.576 0 0 1-.807-.19 6.497 6.497 0 0 1-.74-.48c-.105-.081-.518-.192-.518-.3s.028-.135.028-.135m2.147 2.843s1.18-.778 1.686-1.08c.502-.3 1.734-1.013 2.216-1.272a7.213 7.213 0 0 1 1.192-.643 10.23 10.23 0 0 1 1.174-.028c.314 0 .533 0 .559.163a1.428 1.428 0 0 1-.04.44c-.013.136 0 .519 0 .519l-2.368 1.86c-.38.3-1.285 1.11-1.339 1.125-.055.011-.357-.234-.725-.37a3.473 3.473 0 0 0-.724-.191 3.043 3.043 0 0 1-.616-.248 1.55 1.55 0 0 0-.465-.179 1.517 1.517 0 0 0-.506.096l-.045-.193zm2.86 2.051s.588-.531 1-.888c.409-.354 1.665-1.37 1.998-1.643.327-.271 1.163-.915 1.286-1.011a.608.608 0 0 1 .409-.112c.152 0 .52-.109.685-.109.166 0 .45-.012.479.207a6.49 6.49 0 0 1 .125.806.917.917 0 0 0 .054.451.884.884 0 0 0 .11.152 3.725 3.725 0 0 1-.369.398c-.233.216-.944.888-1.26 1.192-.315.3-.958.917-1.19 1.162-.233.245-.601.587-.601.587a1.253 1.253 0 0 0-.304-.531 2.02 2.02 0 0 0-1.013-.288c-.3-.014-.683-.306-.837-.343a.525.525 0 0 0-.325.052s-.19.056-.248-.082m2.985 1.753l1.613-1.616c.318-.315 1.37-1.297 1.618-1.547a2.72 2.72 0 0 1 .724-.613c.274-.126.604-.288.752-.233a.721.721 0 0 1 .332.479 1.006 1.006 0 0 0 .654.642 2.267 2.267 0 0 0 .795.152c.179-.016.273-.029.273-.029l-.586.604c-.207.206-.807.792-1.167 1.122-.354.328-1.268 1.245-1.53 1.492-.261.243-.632.56-.632.56a.657.657 0 0 0-.19-.438 1.082 1.082 0 0 0-.886-.191.907.907 0 0 1-.676-.222c-.175-.15-.315-.304-.409-.316a1.045 1.045 0 0 0-.374.124 1.438 1.438 0 0 1-.31.027m3.23 1.455s.89-.837 1.328-1.274 1.286-1.26 1.653-1.627c.37-.371 1.04-1 1.04-1a.633.633 0 0 0 .452.234c.318.023.62.081.854.093.231.018.627.018.748-.11a.724.724 0 0 1 .292-.163s-.195.273-.426.572c-.233.304-.888 1.22-1.258 1.783-.37.56-1.204 1.776-1.342 2.01-.137.23-.454.724-.547.86-.094.14-.22.304-.22.304a1.162 1.162 0 0 0-.19-.64c-.222-.386-.345-.4-.534-.456-.192-.054-.26.026-.546-.123-.29-.15-.438-.437-.617-.48-.18-.038-.17-.07-.316 0a.384.384 0 0 1-.371.018m6.594-3.192a3.276 3.276 0 0 0 .217.316c.111.136.263.289.234.397-.027.11-.518 1.097-.631 1.356-.106.26-.463 1.422-.545 1.765a8.935 8.935 0 0 1-.316 1.11 3.557 3.557 0 0 0-.23.505l-.043.33a1.69 1.69 0 0 1-.302.163l-.299.082v-.26c0-.113-.166-.316-.272-.508a.848.848 0 0 1-.082-.78c.122-.369.272-.806.41-1.11.137-.301.233-.627.451-1.133a7.658 7.658 0 0 1 .657-1.29c.262-.382.384-.586.496-.738a.586.586 0 0 1 .255-.206m-13.86-13.64s1.064-.054 1.847-.07a16.463 16.463 0 0 1 2.284.081 11.896 11.896 0 0 0 1.71.113 16.093 16.093 0 0 1 1.617-.03c.792.03 2.216.07 3.162.207a14.908 14.908 0 0 1 2.569.588 7.725 7.725 0 0 1 2.63 1.398 2.19 2.19 0 0 1 .724 1.656 5.229 5.229 0 0 1-.55 1.833c-.218.425-.752 1.34-.848 1.504-.093.167-.917.931-1.244 1.3-.33.368-1.395 1.52-1.82 2.027-.423.505-.75.912-.89 1.052a2.79 2.79 0 0 0-.328.398h-.138a.644.644 0 0 0 .125-.453 1.193 1.193 0 0 0-.425-.697c-.192-.113-.246-.138-.384-.099-.135.042-.245.099-.339.125-.098.026-.178.04-.178.04s.476-.532.698-.764c.219-.234.822-.783 1.024-.987a1.075 1.075 0 0 1 .48-.33 1.442 1.442 0 0 0 .67.026 1.391 1.391 0 0 0 .684-.834.868.868 0 0 0-.327-.75 1.25 1.25 0 0 0-.697-.262 1.611 1.611 0 0 0-.646.163.94.94 0 0 1-.274.099s.016-.152.042-.386a1.054 1.054 0 0 0-.222-.657.93.93 0 0 0-.668-.382c-.3-.042-.438.04-.547-.042-.112-.082-.027-.26-.124-.482a1.11 1.11 0 0 0-.533-.642 2.439 2.439 0 0 0-.672-.176c-.134 0-.134-.082-.134-.26a1.595 1.595 0 0 0-.19-.835 1.917 1.917 0 0 0-.646-.397c-.192-.04-.327-.068-.327-.164a3.883 3.883 0 0 0 .121-.55.844.844 0 0 0-.299-.721c-.26-.18-.547-.275-.657-.454a1.277 1.277 0 0 0-.354-.383 2.04 2.04 0 0 0-.453 0c-.166.014-.561.097-.848.138a1.901 1.901 0 0 1-.591.07 2.76 2.76 0 0 0-.685-.167c-.219 0-.75.03-1.107.07a6.985 6.985 0 0 1-1.012.068 1.998 1.998 0 0 1-.727-.204 2.595 2.595 0 0 1-.436-.22 1.443 1.443 0 0 1-.206-.15 1.564 1.564 0 0 1 .041-.205 1.968 1.968 0 0 1 .099-.202" fill="#fff"/><path d="M58.38 58.864s.772-.323 1.301-.49a25.406 25.406 0 0 1 2.008-.518 3.055 3.055 0 0 1 .958-.18 1.475 1.475 0 0 0 .523.042l.245-.026s.11.132.041.178c-.07.04-.082.093-.231.257a1.461 1.461 0 0 1-.452.413c-.178.07-.59.164-1.055.286-.465.124-1.204.356-1.464.426a1.23 1.23 0 0 1-.737.068 6.755 6.755 0 0 1-.713-.152.3.3 0 0 0-.286.043.156.156 0 0 1-.152 0v-.19a1.017 1.017 0 0 1 .015-.156m1.339 1.958s.738-.397 1.355-.658c.615-.263 1.863-.713 2.122-.78a1.179 1.179 0 0 1 .697-.073c.149.085.275.18.234.304a1.278 1.278 0 0 1-.4.507c-.148.08-1.023.561-1.355.698a9.157 9.157 0 0 1-1.27.531 1.914 1.914 0 0 1-.672-.108 2.507 2.507 0 0 0-.411-.124 2.612 2.612 0 0 0-.341 0 .41.41 0 0 0 .029-.134 1.613 1.613 0 0 1 .012-.164m1.383 2.066s.822-.479 1.097-.643c.268-.163 1.16-.587 1.542-.794a2.554 2.554 0 0 1 1.014-.37c.218.016.409.113.44.219a.856.856 0 0 1-.097.52 1.919 1.919 0 0 1-.465.616c-.339.321-.589.48-.795.658a2.266 2.266 0 0 1-.683.464c-.166.027-.425-.125-.561-.152a3.937 3.937 0 0 1-.643-.245.726.726 0 0 0-.382-.11c-.124.013-.48.094-.48.094l.015-.257zm2.174 1.78s.495-.452.837-.724c.339-.275.97-.7 1.27-.919a2.708 2.708 0 0 1 .632-.4.317.317 0 0 1 .261.098c.07.07.26.07.314.234.058.164 0 .298.058.394.052.098.187.07.216.152a.68.68 0 0 1 0 .245s-.685.536-.932.768a9.709 9.709 0 0 1-.739.669c-.093.058-.451-.149-.67-.246a4.37 4.37 0 0 0-.916-.26c-.194-.01-.33-.01-.33-.01m1.931 1.285s.585-.55.877-.807c.285-.263.584-.535.804-.74.222-.205.686-.535.686-.535s.207.014.179.137c-.03.123.121.152.218.152a2.009 2.009 0 0 1 .398-.028.223.223 0 0 1 .177.218c0 .152.012.288.07.302.052.015.187-.014.203.042a1.482 1.482 0 0 1 .028.15s-.766.765-1.095 1.068c-.328.3-.837.832-.905.917a3.47 3.47 0 0 0-.108.136 1.558 1.558 0 0 0-.385-.547 1.334 1.334 0 0 0-.64-.397 2.185 2.185 0 0 0-.507-.07m4.485 1.919s.455-.561.853-.988l.955-1.026a2.688 2.688 0 0 0 .273-.343 7.444 7.444 0 0 0-.313.892 6.665 6.665 0 0 0-.125 1.025 4.675 4.675 0 0 1-.15.779 3.237 3.237 0 0 0-.056.549s-.193.11-.327.175a4.926 4.926 0 0 0-.304.179 1.428 1.428 0 0 0-.19-.629.946.946 0 0 0-.723-.463l.105-.152zm9.992-15.998s.778-.288 1.27-.493c.496-.206 3.006-1.07 3.78-1.274.943-.246 3.143-.779 4.476-.984a47.493 47.493 0 0 1 6.562-.494 48.998 48.998 0 0 1 5.297.3c1.068.125 3.218.51 4.093.725.873.22 2.337.59 3.16.863.82.274 2.104.713 2.6.932a7.718 7.718 0 0 1 .888.371c.082.078.096.207.355.327.26.122.645.257.645.257a1.29 1.29 0 0 1-.341.208c-.206.082-.465.218-.67.304a2.966 2.966 0 0 0-.41.202s0-.288-.11-.383a7.489 7.489 0 0 0-1.395-.67 35.149 35.149 0 0 0-2.455-.82c-.902-.26-2.515-.725-3.596-.916-1.081-.193-2.244-.398-3.298-.508-1.052-.11-3.474-.301-4.734-.288-1.258.014-3.652.148-4.856.299-1.192.152-3.161.453-4.31.739-1.15.292-2.686.672-3.287.876a12.877 12.877 0 0 1-1.559.519c-.233.015-.724-.054-.89-.054a1.977 1.977 0 0 0-.421.026c-.093.027-.358.166-.467.111-.106-.055-.325-.175-.325-.175" fill="#fff"/><path d="M117.246 67.567l-.439-.464c-.146-.166-.216-.917-.395-1.33a7.85 7.85 0 0 0-1.204-1.667 12.933 12.933 0 0 0-2.542-2.053 22.607 22.607 0 0 0-4.23-2.19 27.335 27.335 0 0 0-4.325-1.383 36.175 36.175 0 0 0-6.65-.889 38.082 38.082 0 0 0-6.197.316 30.344 30.344 0 0 0-5.477 1.218 21.295 21.295 0 0 0-2.995 1.163c-.606.285-2.055 1.01-2.589 1.367-.532.355-1.379.943-1.901 1.274-.52.325-.62.596-.93.518a.824.824 0 0 1-.578-.519s.386-.464.755-.836c.368-.367 1.242-1.105 1.79-1.56a77.12 77.12 0 0 0 1.793-1.531c.179-.168.658-.74.658-.74s.152.325.427.243a2.087 2.087 0 0 0 .97-.818 3.707 3.707 0 0 0 .603-2.164c-.11-.793-.217-1.37-.436-1.52a2.361 2.361 0 0 0-.863-.436 2.425 2.425 0 0 1-.507-.04 1.627 1.627 0 0 1-.33-.22s.657-.246.944-.367c.292-.123 1.575-.59 2.439-.823.863-.232 1.776-.464 2.873-.684s2.708-.479 3.995-.602c1.288-.122 2.956-.248 3.943-.233.982.014 3.268.14 4.198.245.932.112 2.735.346 3.82.59 1.078.246 3.106.736 3.997 1.052a20.91 20.91 0 0 1 2.064.753 1.288 1.288 0 0 0 .397.304 2.189 2.189 0 0 1 .327.177 6.852 6.852 0 0 0-.738.998c-.877 1.496.17 3.384 1.563 4.418 1.805 1.338 5.1 3.384 5.672 6.44a12.56 12.56 0 0 1 .098 1.992" fill="#fff"/><path d="M118.468 65.927a6.663 6.663 0 0 0-1.232-2.834c-.486-.704-.79-1.428-1.34-2.35a11.585 11.585 0 0 0-3.053-2.527 4.017 4.017 0 0 1-1.72-2.618c0-.439-.22-1.103-.749-.804a1.85 1.85 0 0 1 .564-.663 8.48 8.48 0 0 1 2.282-1.313c.861-.315 2.928-.879 3.775-1.07.849-.188 3.243-.587 4.231-.67.982-.08 2.707-.164 3.53-.164.888 0 2.6.09 3.872.22 1.34.137 3.173.413 4.377.48 1.208.07 3.272.122 4.176.095s2.557-.093 3.46-.108c.905-.016 4.203-.125 5.297-.194a649.71 649.71 0 0 1 5.174-.3c1.108-.057 4.5-.124 5.474-.124.97 0 5.171.192 6.238.246 1.067.055 3.693.206 4.666.26.973.057 2.365.111 3.176.152.804.04 3.2-.026 3.723-.026.514 0 2.337-.014 3.338-.054.998-.042 3.652-.248 4.623-.33.97-.082 3.462-.341 4.257-.4a15.46 15.46 0 0 1 1.928-.12 1.814 1.814 0 0 1 .849.436c.109.122.573.631.916 1a5.18 5.18 0 0 1 .736.916c.059.135.279.437.234.545-.04.11-.082.316-.205.386-.12.067-.68.312-.68.312a.456.456 0 0 0-.223-.342 1.172 1.172 0 0 0-.765-.105c-.246.078-1.04.418-1.502.625a8.349 8.349 0 0 1-1.59.603c-.353.038-1.748.093-2.678.105-.935.018-3.655.03-4.83.07-1.178.045-5.158.07-5.997.084-.835.012-4.488.054-5.65.054s-4.418.068-5.476.056c-1.052-.016-5.719.07-6.746.053-1.024-.014-3.941.019-4.718.029-.78.015-1.835.053-2.846.122-1.013.07-2.438.22-2.846.247a3.754 3.754 0 0 1-1.149-.11 1.283 1.283 0 0 0-.33-.11c-.122-.013-.466-.067-.466-.067l-.078-.18s.45-.082.818-.161c.37-.086.684-.25 1.34-.386s2.312-.45 3.136-.588c.818-.137 4.528-.795 5.596-.931 1.067-.136 3.845-.452 4.815-.52.973-.067 3.737-.287 4.71-.338.968-.059 3.158-.155 3.705-.14.55.015 2.42.054 3.16.093.74.047 1.138.047 1.138.047l.137-.482s-.779-.04-1.438-.082c-.654-.04-2.354-.067-2.926-.067-.575 0-2.656.011-3.448.052-.76.043-1.876-.085-2.78-.12-1.096-.041-3.572-.014-4.585.069-1.01.08-3.87.354-4.774.464-.903.108-4.009.56-5.432.821-1.423.26-3.64.696-4.681.889-1.04.191-2.368.467-3.558.59-1.192.123-3.597.167-4.472.152-.88-.017-3.466-.07-4.765-.056s-3.487.014-4.762.163a16.236 16.236 0 0 0-3.013.62 6.846 6.846 0 0 0-1.776.792c-.453.327-.657.683-.643.807a.699.699 0 0 0 .052.203l.34.11s-.326.258-.515.425a1.763 1.763 0 0 0-.467.872 13.124 13.124 0 0 0-.19 1.452 1.352 1.352 0 0 0 .056.727c.108.26.627 1.19.832 1.586.206.397.753 1.274.905 1.533.148.26.432.631.64.944a5.826 5.826 0 0 1 .602 1.314 6.162 6.162 0 0 1 .045.956v1.78a1.229 1.229 0 0 1-.085.587c-.053.07-.218.205-.23.36-.016.147-.11.49-.15.67-.042.172-.18.544-.18.544s-.217-.438-.232-.49a4.687 4.687 0 0 0 .056-.932 31.016 31.016 0 0 1-1.012-3.845" fill="#fff"/><path d="M117.97 58.606a2.645 2.645 0 0 1 .78-.725 8.073 8.073 0 0 1 1.793-.836 22.785 22.785 0 0 1 3.121-.627c.822-.07 3.027-.085 3.747-.096.727-.015 2.112.024 2.575.012.465-.012 1.122 0 1.615 0 .49 0 1.435-.012 1.736-.012a8.427 8.427 0 0 1 1.04.012c.163.04.467.097.51.222a.39.39 0 0 1 0 .366.686.686 0 0 0-.07.368v.129a2.154 2.154 0 0 0-.195.12c-.093.07-.544.33-.544.33a.716.716 0 0 0-.085-.275.835.835 0 0 0-.533-.372c-.189-.035-.888-.077-1.192-.093-.298-.012-1.022-.026-1.311-.056-.285-.027-.424-.07-.561-.07a.543.543 0 0 0-.355.098c-.112.081-.152.163-.219.175a1.88 1.88 0 0 1-.263-.014c-.052 0-.147.08.03.245a1.78 1.78 0 0 0 .983.344c.343.056.82.136 1.177.206s.836.15 1.146.222c.318.065.622.078.727.093.108.012.3.094.288.206a1.062 1.062 0 0 1-.084.3.78.78 0 0 0-.027.358.213.213 0 0 1-.093.219c-.084.054-.424.175-.51.222a.547.547 0 0 1-.229.023s.04-.217 0-.274a.87.87 0 0 0-.424-.257 17.428 17.428 0 0 0-1.274-.33c-.327-.067-.888-.218-1.257-.284-.37-.07-.618-.18-.723-.086-.112.097-.14.18-.207.19-.067.017-.18-.037-.247.028-.07.07-.168.152-.096.231a1.567 1.567 0 0 0 .563.318c.246.082 1.052.316 1.408.423s.97.357 1.298.423c.33.07.672.178.742.358a.404.404 0 0 1-.07.464.718.718 0 0 0-.179.327c-.027.07-.07.245-.07.245s-.313.205-.38.234l-.304.123a.37.37 0 0 0 .014-.37c-.093-.232-.368-.368-.724-.548-.355-.177-1.083-.436-1.356-.533-.273-.097-1.16-.45-1.368-.518a1.312 1.312 0 0 0-.628-.111c-.194.043-.293.154-.234.249.054.093.206.137.206.247s0 .202-.057.234a.547.547 0 0 0-.07.035 7.377 7.377 0 0 0 .783.468c.316.152 1.094.563 1.298.67.208.11.85.412.999.52.152.108.467.288.412.439s-.108.395-.136.476c-.03.084.027.151-.11.206-.14.053-.645.19-.645.19a.806.806 0 0 0-.041-.19c-.028-.07-.123-.192-.398-.356-.273-.164-1.243-.741-1.49-.861a8.573 8.573 0 0 1-.999-.578 5.965 5.965 0 0 0-.604-.479c-.122-.07-.37-.19-.534-.028-.129.133-.19.397-.111.494.086.094.266.26.266.26s-.163.124-.138.19a5.52 5.52 0 0 0 .791.615c.331.234 1.193.825 1.412.974.218.152.683.438.837.576.152.135.19.26.08.38a.787.787 0 0 0-.148.249s.012.163.012.233a.56.56 0 0 1-.026.149.465.465 0 0 1-.25.097c-.174.025-.433.04-.433.04a.307.307 0 0 1-.042-.205c.011-.123-.106-.206-.293-.368-.231-.206-.888-.66-1.215-.892a13.44 13.44 0 0 1-1.12-.818c-.152-.166-.428-.561-.576-.687-.152-.123-.358-.257-.533-.19-.179.067-.37.205-.397.37-.026.161-.056.286.052.367.108.082.257.179.257.233 0 .054-.175.096-.134.19a8.757 8.757 0 0 0 .877.74c.257.218 1.148.916 1.367 1.11a3.29 3.29 0 0 1 .686.736.994.994 0 0 1-.04.603.727.727 0 0 1-.44.164c-.18.028-.412.056-.412.056s.082-.206.04-.287a6.844 6.844 0 0 0-.713-.561c-.286-.234-1.145-.959-1.473-1.232a3.078 3.078 0 0 1-.766-.836c-.112-.234-.304-.547-.578-.547a.84.84 0 0 0-.713.26c-.163.22-.163.453-.037.549.123.096.339.231.271.27l-.245.153a4.647 4.647 0 0 1 .588.437c.385.327 1.04.863 1.288 1.096.245.234.748.713.846.793a.752.752 0 0 1 .22.507 1.499 1.499 0 0 1-.097.506c-.057.097.015.164-.124.234a1.299 1.299 0 0 1-.491.07.594.594 0 0 1-.18-.03s.235-.175.223-.26a2.299 2.299 0 0 0-.496-.534c-.191-.164-1.122-.956-1.466-1.272a4.327 4.327 0 0 1-.941-1.108 3.923 3.923 0 0 0-.288-.929c-.177-.248-.572-.55-.754-.81a18.009 18.009 0 0 1-1.04-1.723 5.34 5.34 0 0 1-.628-1.463 5.378 5.378 0 0 0-.097-.918c-.082-.152-.273-.381-.367-.381-.099.002-.414-.039-.414-.039m2.213 6.814s.752.862.944 1.026a6.677 6.677 0 0 0 .71.48 5.593 5.593 0 0 1 .713.683c.124.152.424.438.41.616a1.928 1.928 0 0 1-.258.764.869.869 0 0 1-.415.265 2.25 2.25 0 0 1-.38-.031s.304-.08.304-.205c0-.121-.055-.229-.276-.45a4.344 4.344 0 0 1-.535-.614 7.223 7.223 0 0 1-.42-.646l-.167.054-.163.014s-.059-.52-.125-.806c-.07-.285-.164-.538-.203-.67-.058-.179-.14-.48-.14-.48m-.08 6.212a4.439 4.439 0 0 0 .216-.632c.027-.175.125-.493.14-.572l.04-.219s.354.468.466.601c.109.137.48.424.614.617.136.19.753.982 1.013 1.342.26.354.998 1.34 1.134 1.53.14.194.549.782.52.948a1.869 1.869 0 0 1-.136.531c-.082.165-.164.343-.245.357s-.48.026-.48.026a.577.577 0 0 0 .111-.246.896.896 0 0 0-.42-.519 5.01 5.01 0 0 1-.837-.521c-.111-.122-.448-1.011-.603-1.327a13.366 13.366 0 0 0-.725-1.3c-.208-.288-.343-.587-.425-.614-.082-.026-.041.04-.167.053a.35.35 0 0 1-.215-.055m.628-2.053a2.89 2.89 0 0 0 1.369.166 1.2 1.2 0 0 1 .477-.318.947.947 0 0 1 .837.18c.273.205 1.643 1.575 1.846 1.766.207.19 1.097 1.05 1.37 1.31a5.552 5.552 0 0 1 .795.878c.08.178.121.328.054.423a1.036 1.036 0 0 0-.206.288 2.047 2.047 0 0 1-.14.479.42.42 0 0 1-.353.178 3.158 3.158 0 0 1-.383-.027s.218-.123.218-.26a.493.493 0 0 0-.26-.427c-.19-.11-.397-.219-.686-.372a2.483 2.483 0 0 1-.724-.584c-.206-.234-.682-.877-.917-1.139-.23-.26-.794-.982-1.051-1.23a1.902 1.902 0 0 0-.849-.546 2.73 2.73 0 0 0-.48-.084c-.07 0-.206.22-.178.274.028.054-.133-.082-.271-.257-.14-.181-.468-.699-.468-.699m2.6-.629a1.002 1.002 0 0 0 .053-.231c.014-.137.041-.316.113-.3a2.62 2.62 0 0 0 .642.175c.23 0 .26-.04.26-.04a.633.633 0 0 1 .409-.263 2.616 2.616 0 0 1 .48-.065 1.054 1.054 0 0 1 .533.093 11.429 11.429 0 0 1 1.45 1.052c.315.25 1.589 1.247 1.943 1.535.355.287.767.56.877.67.11.112.465.45.383.604a2.798 2.798 0 0 0-.304.49c-.038.168-.052.4-.08.491-.026.099-.219.14-.315.125-.097-.011-.37-.026-.37-.026a.59.59 0 0 0 .194-.217c.038-.113-.041-.233-.195-.346a4.16 4.16 0 0 0-.682-.409 7.352 7.352 0 0 1-1.082-.795c-.355-.287-1.286-1.147-1.491-1.34a7.859 7.859 0 0 0-1.013-.807 7.056 7.056 0 0 0-.821-.19l-.44-.1s-.12.18-.175.18c-.111 0-.096-.015-.096-.015s.012 0-.082-.081a1.923 1.923 0 0 1-.194-.19" fill="#fff"/><path d="M125.606 67.567l.018-.246a1.25 1.25 0 0 1 .41-.067 1.884 1.884 0 0 0 .712-.085 1.73 1.73 0 0 0 .436-.175c.175-.111.26-.137.44-.249.172-.109.135-.26.245-.272a1.452 1.452 0 0 1 .532 0c.093.056.79.617 1.203.862.412.246 1.653 1.012 2.12 1.3.462.289 1.161.668 1.394.877.233.204.385.315.37.508-.011.187-.166.327-.245.474a3.438 3.438 0 0 0-.125.412c-.054.123-.094.245-.094.245l-.576.124a.367.367 0 0 0 .124-.285.638.638 0 0 0-.37-.44 5.364 5.364 0 0 0-.85-.245 5.16 5.16 0 0 1-1.04-.645c-.288-.219-1.01-.778-1.356-1.011a12.007 12.007 0 0 0-1.079-.741 3.345 3.345 0 0 0-.958-.219c-.262-.015-.573.014-.627 0-.058-.015-.138.288-.248.19a1.493 1.493 0 0 0-.288-.19c-.132-.083-.15-.125-.15-.125m3.439-1.885s.368-.026.45-.19a3.053 3.053 0 0 0 .08-.686c.03-.164.015-.26.086-.274.067-.012.245.112.42.126a1.502 1.502 0 0 1 .686.149c.288.152 1.52.795 2.163 1.068.642.272 1.928.944 2.325 1.094a3.511 3.511 0 0 1 1.152.575.537.537 0 0 1 .038.547c-.11.175-.192.273-.152.397.041.124.152.273.055.343a2.808 2.808 0 0 1-.48.134 1.027 1.027 0 0 1-.312.055.259.259 0 0 0 .108-.245.57.57 0 0 0-.45-.425c-.29-.07-.616-.084-.877-.152a3.359 3.359 0 0 1-.89-.409c-.398-.233-1.205-.713-1.631-.931-.421-.22-1.204-.631-1.478-.807a2.348 2.348 0 0 0-.507-.303.891.891 0 0 0-.411-.026 1.272 1.272 0 0 1-.378-.041m2.302-2.216a3.541 3.541 0 0 0 .105-.464c.046-.245-.012-.37.072-.397.082-.026.219.042.393.025a.891.891 0 0 1 .483.045c.12.07.724.301 1.025.409.298.11 1.858.67 2.38.865.517.19 1.466.532 1.873.681a3.123 3.123 0 0 1 .835.327.744.744 0 0 1 .276.603c-.012.273.041.357-.068.491-.112.138-.138.166-.15.248-.014.08.094.234.024.316-.065.081-.175.095-.42.134-.246.042-.37.07-.37.07s.206-.22.014-.397a1.566 1.566 0 0 0-.699-.45c-.438-.166-1.136-.454-1.45-.576-.315-.123-1.67-.74-2.053-.877-.38-.137-1.163-.438-1.437-.587a1.421 1.421 0 0 1-.462-.315c-.085-.11-.371-.152-.371-.152m1.698-2.271s-.028-.669.066-.698c.097-.025.37.056.491.041a2.63 2.63 0 0 1 .783.07c.316.082 2.054.522 2.735.67.685.15 1.601.37 2.176.463.575.1.956.1 1.08.304a1.874 1.874 0 0 1 .097.879c-.015.23.055.724.012.792a1.748 1.748 0 0 1-.532.273c-.203.08-.289.122-.289.122a.468.468 0 0 0-.04-.42 2.53 2.53 0 0 0-1.027-.497c-.355-.096-1.379-.436-1.94-.601-.56-.166-1.492-.48-1.805-.561a3.606 3.606 0 0 1-.905-.318c-.222-.135-.452-.382-.55-.437a1.437 1.437 0 0 0-.355-.082m1.26-2.475l-.013-.26s.311-.3.398-.3a3.599 3.599 0 0 1 .643-.017c.339.03 1.803.205 2.38.304.575.091 2.109.297 2.545.354.44.056 1.11.012 1.329.07.369.096.313.426.342.655a3.042 3.042 0 0 1 .039.685 1.426 1.426 0 0 1-.45.452 5.057 5.057 0 0 1-.56.355c-.125.068.038-.285-.096-.423a1.346 1.346 0 0 0-.643-.26c-.342-.07-.892-.193-1.221-.26-.327-.071-1.59-.314-2.092-.41a7.035 7.035 0 0 1-1.424-.315c-.342-.168-.56-.44-.752-.523a1.629 1.629 0 0 0-.425-.11m.998-1.804a2.231 2.231 0 0 1-.093-.343.583.583 0 0 1 .026-.135 5.407 5.407 0 0 0 .942-.039c.382-.072 1.519-.245 2.244-.359a96.747 96.747 0 0 0 2.547-.438 3.335 3.335 0 0 1 1.19-.093.616.616 0 0 1 .356.465 7.827 7.827 0 0 0 .233.792c.054.18.193.456.164.538a2.368 2.368 0 0 1-.423.52c-.164.15-.561.53-.561.53a.822.822 0 0 0-.07-.506 1.282 1.282 0 0 0-.682-.522 11.59 11.59 0 0 0-2.057-.175c-.45.011-1.554.025-2.075.011a3.584 3.584 0 0 1-1.22-.207 1.497 1.497 0 0 0-.246-.093.282.282 0 0 0-.276.056m7.391 1.477s.534-.576.671-.74c.136-.163.273-.37.366-.397a3.7 3.7 0 0 0 .67-.056 25.822 25.822 0 0 1 2.63-.097c.494-.012 3.897-.012 4.636-.012.742 0 5.557-.07 6.354-.058.793.016 4.28 0 5.172-.023.89-.026 5.187 0 6.213-.043 1.024-.04 6.373-.067 7.266-.097.888-.025 5.02-.095 5.774-.108.75-.012 2.244-.04 2.707-.066a8.147 8.147 0 0 1 1.069-.058c.175.023.204.206.26.315.053.108.315.944.438 1.312a5.236 5.236 0 0 1 .231 1.096c.014.234.097.52.043.576a4.083 4.083 0 0 1-.645.367c-.093.028-.218.055-.218.055a.367.367 0 0 0 .028-.3.975.975 0 0 0-.536-.366 1.631 1.631 0 0 0-.79.164 19.785 19.785 0 0 1-1.988.56 7.803 7.803 0 0 1-1.846.234c-.998.024-3.311.012-4.295-.028-.987-.043-3.918-.125-5.297-.193-1.385-.07-4.8-.245-5.996-.303a454.89 454.89 0 0 1-5.73-.328c-.877-.051-5.16-.312-6.05-.38-.888-.07-5.364-.343-6.089-.41a93.824 93.824 0 0 0-2.763-.208 9.742 9.742 0 0 1-1.394-.15c-.246-.07-.246-.165-.438-.205a3.23 3.23 0 0 0-.45-.051m-1.825 3.404s.631-.386.905-.604.587-.42.658-.615a.973.973 0 0 0 .07-.3s1.926.056 2.364.097c.437.038 2.56.175 3.12.218.562.041 3.968.285 5.038.353 1.067.07 5.856.398 6.812.456.96.055 4.78.286 5.72.343.947.053 4.6.231 5.79.286 1.19.052 5.35.164 6.063.178.708.011 3.035.04 3.448.011.409-.023.915-.066 1.19-.066s.584.026.6.315a9.346 9.346 0 0 1-.163 1.887 3.672 3.672 0 0 1-.603 1.23 3.242 3.242 0 0 1-.52.344s.122-.26.04-.413a.788.788 0 0 0-.572-.356c-.207.011-1.426.315-2.026.382a19.658 19.658 0 0 1-2.356.164 75.22 75.22 0 0 1-3.368-.15c-.871-.07-3.256-.248-4.445-.37a675.825 675.825 0 0 1-5.937-.656 793.555 793.555 0 0 1-5.608-.698c-1.07-.138-4.546-.603-5.478-.739-.93-.137-3.42-.465-4.102-.576-.687-.108-2.837-.424-3.448-.507-.62-.08-1-.164-1.276-.164a8.214 8.214 0 0 0-.834 0c-.355.024-.299.024-.465.024-.152 0-.207-.012-.37-.024a.69.69 0 0 1-.246-.053m-1.642 3.094a8.402 8.402 0 0 0 .81-.3c.287-.137.753-.26.887-.49.14-.235.164-.29.15-.44a1.666 1.666 0 0 0-.052-.289l1.256.082c.357.03 2.068.289 2.6.356.538.073 3.148.48 3.86.577.712.095 5.544.765 6.486.888.947.123 5.078.659 5.844.74s5.42.604 6.144.67c.724.066 3.34.315 4.24.382.902.07 2.835.177 3.67.19a11.454 11.454 0 0 1 1.654.056c.222.07.385.219.344.37-.04.15-.218 1.464-.303 1.723a4.71 4.71 0 0 1-.343.947 1.347 1.347 0 0 1-.424.49 2.903 2.903 0 0 1-.285.138s.152-.289.066-.454a1.047 1.047 0 0 0-.56-.467c-.176-.014-.86.114-1.312.18-.451.07-1.286.166-1.849.205-.561.04-1.27.096-1.63.082a20.904 20.904 0 0 1-1.612-.163c-.59-.085-2.751-.383-3.52-.51-.762-.122-3.282-.561-4.333-.752-1.056-.19-4.792-.944-5.516-1.108s-3.507-.765-4.202-.93c-.698-.163-3.737-.876-4.434-1.052-.7-.179-2.638-.63-3.162-.754-.52-.121-1.585-.382-1.874-.438a2.226 2.226 0 0 0-.863-.07c-.245.07-.753.222-.915.277a.63.63 0 0 1-.438.04.746.746 0 0 1-.386-.176" fill="#fff"/><path d="M136.867 67.526a6.321 6.321 0 0 0 .74-.08c.234-.056.822-.178 1.084-.26.26-.083.354-.124.382-.262.027-.135-.028-.506.015-.655.04-.152.108-.33.108-.33a8.01 8.01 0 0 0 .794.136c.234.016 1.029.18 1.356.26.327.082 4.075 1.026 4.663 1.178.59.152 4.874 1.192 5.61 1.344.742.146 4.229.914 5.01 1.075.783.164 5.965 1.122 6.829 1.262.862.134 3.814.599 4.514.669.697.07 1.71.175 1.917.234.206.056.395.136.354.382a6.409 6.409 0 0 1-.507 1.356 6.506 6.506 0 0 1-.713 1.246 4.468 4.468 0 0 1-.668.708c-.192.124-.26.163-.26.163a.674.674 0 0 0 .122-.411.735.735 0 0 0-.536-.423c-.245-.039-.778-.012-1.312-.012a28.12 28.12 0 0 1-3.463-.276c-1.368-.204-3.462-.547-4.87-.874-1.41-.33-3.423-.806-4.859-1.219-1.434-.409-3.803-1.08-5.296-1.585-1.49-.512-3.401-1.137-4.238-1.44-.837-.3-3.288-1.162-3.67-1.313a3.224 3.224 0 0 0-.93-.234c-.286-.023-.643.042-.947 0a5.348 5.348 0 0 1-.83-.19c-.167-.053-.288-.093-.358-.219a.362.362 0 0 1-.043-.234m-2.844 2.411s.918-.218 1.384-.397a3.317 3.317 0 0 1 1.344-.327 10.333 10.333 0 0 1 1.911.56c.533.205 2.435.875 2.945 1.068.507.193 4.854 1.657 5.552 1.875a386.4 386.4 0 0 0 5.271 1.56c.791.222 4.432 1.15 5.294 1.324.86.18 2.282.44 2.724.526.437.077.848.187.888.394a1.309 1.309 0 0 1-.07.698c-.079.166-.219.696-.342 1.028a3.555 3.555 0 0 1-.462.944 1.318 1.318 0 0 1-.577.273.397.397 0 0 0 .178-.343.505.505 0 0 0-.263-.409.832.832 0 0 0-.49-.222c-.235-.014-.838.054-1.303.082-.465.023-2.065.023-2.695.023s-1.259.044-1.724-.009a11.226 11.226 0 0 1-1.765-.358c-.724-.203-2.516-.862-3.314-1.175-.793-.316-3.158-1.368-3.79-1.654a221.918 221.918 0 0 1-3.763-1.85c-.776-.397-1.886-.946-2.489-1.273-.6-.327-1.903-1.04-2.244-1.204a4.42 4.42 0 0 0-1-.342 4.705 4.705 0 0 1-.819-.274 4.197 4.197 0 0 0-.424-.135l.04-.383zm-3.023 2.068s.973-.22 1.22-.313a2.64 2.64 0 0 1 .985-.18 8.38 8.38 0 0 1 1.34.615c.424.236 2.3 1.235 2.902 1.546.6.319 3.077 1.59 3.637 1.862.563.274 2.38 1.178 3.035 1.465.658.289 2.93 1.3 3.574 1.56.594.242 1.546.592 2.092.782.55.19 1.246.395 1.574.491.33.097.903.25.945.398a.876.876 0 0 1-.068.602c-.11.233-.368.958-.493 1.192a3.943 3.943 0 0 1-.505.85c-.178.163-.262.245-.368.272-.111.028-.122.014-.122.014s.205-.246.205-.342a.901.901 0 0 0-.288-.534 1.154 1.154 0 0 0-.56-.22c-.178 0-.74 0-1.275-.052a22.412 22.412 0 0 1-2.05-.3 7.712 7.712 0 0 1-1.616-.441c-.533-.23-1.711-.845-2.326-1.201a96.224 96.224 0 0 1-3.188-1.973c-.585-.386-3.393-2.394-3.818-2.694a95.011 95.011 0 0 1-1.847-1.356 11.564 11.564 0 0 0-1.232-.888c-.234-.11-.919-.36-1.152-.456-.232-.094-.491-.175-.561-.327a.826.826 0 0 1-.041-.37m-2.983 1.805a4.203 4.203 0 0 0 .767-.024 6.887 6.887 0 0 1 .876-.198 1.544 1.544 0 0 1 .71.07 8.841 8.841 0 0 1 1.332.811 97.492 97.492 0 0 0 2.31 1.777c.466.342 2.71 1.931 3.161 2.244.452.315 2.49 1.67 3.039 1.998.55.33 1.56.947 2.051 1.232a10.71 10.71 0 0 1 1.192.713c.15.152.341.3.192.643a12.657 12.657 0 0 1-.7 1.203 3.07 3.07 0 0 1-.56.573 1.129 1.129 0 0 1-.22.137s.234-.26.19-.438a.86.86 0 0 0-.42-.585 6.132 6.132 0 0 0-1.23-.304 93.918 93.918 0 0 1-2.517-.628 4.44 4.44 0 0 1-1.452-.577c-.369-.273-1.339-1.177-1.805-1.6-.464-.422-1.454-1.357-2.014-1.864-.559-.505-1.71-1.586-2.12-1.98-.408-.397-1.532-1.383-1.725-1.6-.19-.223-.657-.658-.795-.796-.137-.136-.243-.122-.325-.263a.51.51 0 0 1-.015-.393c.028-.059.082-.152.082-.152m-3.438 2.287l.122-.414a.816.816 0 0 0 .042-.217 5.422 5.422 0 0 0 .861-.027 3.799 3.799 0 0 1 .914-.124.648.648 0 0 1 .645.424 6.01 6.01 0 0 0 1 1.192c.339.328 1.996 1.859 2.504 2.341.503.48 2.106 1.995 2.67 2.501.557.509 1.32 1.177 1.527 1.384.207.206.688.671.799.81a.594.594 0 0 1-.044.61 4.334 4.334 0 0 1-.575.807 7.043 7.043 0 0 1-.603.467s.155-.301.111-.44a1.177 1.177 0 0 0-.56-.49c-.223-.082-1.161-.33-1.574-.452a7.63 7.63 0 0 1-1.559-.671c-.248-.192-1.326-1.488-1.574-1.792-.25-.3-1.192-1.533-1.52-1.958s-1.054-1.437-1.452-1.94c-.395-.51-1.01-1.316-1.175-1.482a3.124 3.124 0 0 0-.341-.353 2.414 2.414 0 0 1-.22-.177m-3.35.438s.601.08.944.08c.346 0 .66-.038.81-.012a.669.669 0 0 1 .49.191 2.341 2.341 0 0 1 .302.67c.07.18 1.165 1.724 1.344 1.97.175.246.955 1.289 1.3 1.742.342.451 1.271 1.64 1.542 1.999.274.353.824.911.961 1.118.138.206.491.713.545.822.058.108-.08.257-.162.368a4.228 4.228 0 0 1-.413.464 2.238 2.238 0 0 1-.48.37c-.066.027.029-.191.044-.316.011-.123-.067-.277-.273-.435a4.158 4.158 0 0 0-1.014-.506c-.316-.124-.976-.324-1.422-.511a2.147 2.147 0 0 1-.822-.49 14.044 14.044 0 0 1-.93-1.548 94.19 94.19 0 0 1-1.22-2.283 2.713 2.713 0 0 1-.316-.853 10.138 10.138 0 0 0-.122-1.297 2.234 2.234 0 0 0-.476-.725 1.56 1.56 0 0 0-.273-.18 3.015 3.015 0 0 0-.304-.107s-.027-.302-.027-.369a.73.73 0 0 0-.026-.163m-.207 4.5s.382.648.519.863c.136.22.494.686.67 1.04.178.357.727 1.263.876 1.56a1.77 1.77 0 0 1 .315.889 2.423 2.423 0 0 1-.365.835c-.086.155-.097.318-.293.466a1.27 1.27 0 0 1-.49.204.744.744 0 0 0 .204-.364 1.036 1.036 0 0 0-.23-.561 1.882 1.882 0 0 0-.561-.468c-.246-.12-.741-.381-.795-.532a.777.777 0 0 1 .054-.615 1.838 1.838 0 0 0 .07-1.108 1.898 1.898 0 0 0-.175-.522.49.49 0 0 0-.178-.175s.19-.702.23-.877l.15-.633z" fill="#fff"/><path d="M106.462 95.59s.917-.338 1.341-.533c.428-.19 1.247-.545 1.776-.793.564-.259 2.027-1.065 2.657-1.463a21.11 21.11 0 0 0 2.092-1.504c.66-.55 1.713-1.52 2.135-1.93a21.256 21.256 0 0 0 1.727-2.023c.3-.438.821-1.26.821-1.26l1.148.578a5.663 5.663 0 0 0 1.381.531 3.719 3.719 0 0 0 .944.07.834.834 0 0 0 .686-.315 3.52 3.52 0 0 0 .49-.806c.082-.205.207-.48.207-.48s.438.205.713.304l1.325.465a5.653 5.653 0 0 1 1.08.367c.206.15.262.261.246.41a3.357 3.357 0 0 1-.3.794c-.137.274-.656 1.368-.864 1.74a41.103 41.103 0 0 1-1.46 2.325 30.535 30.535 0 0 1-2.288 2.778 10.25 10.25 0 0 1-1.49 1.298c-.37.191-.959.303-1.356.549l-2.08 1.297c-.546.345-1.327.807-1.887 1.096-.56.29-1.956.986-2.38 1.193-.425.204-1 .45-1.272.576a1.653 1.653 0 0 1-.713.217.58.58 0 0 1-.465-.342c-.094-.176-.765-1.328-1.012-1.777a74.296 74.296 0 0 0-1.365-2.34 1.17 1.17 0 0 0-.7-.615 1.462 1.462 0 0 0-.505-.15 1.112 1.112 0 0 1-.425-.041.384.384 0 0 1-.205-.21m-3.134.886s.752-.193 1.122-.316c.368-.122.78-.272 1.04-.327.26-.056.37-.07.506.07a1.72 1.72 0 0 1 .33.587c.068.191.836 1.519 1.093 1.972.264.45.989 1.711 1.206 2.104.222.398.998 1.657 1.163 1.932.163.269.356.643.493.865.133.217.354.719.451.926.094.208.179.369.109.547-.07.178-.521.986-.615 1.192-.097.205-.52.958-.52.958a4.76 4.76 0 0 0-.152-.92 1.207 1.207 0 0 0-.453-.64c-.22-.152-.643-.25-.807-.368a1.472 1.472 0 0 1-.518-.648c-.208-.409-.76-1.893-.946-2.365-.206-.52-.889-2.244-1.122-2.817a14.055 14.055 0 0 0-.795-1.794 2.054 2.054 0 0 0-.792-.588 3.24 3.24 0 0 0-.412-.04c-.058.01-.231.028-.231.028l-.156-.36z" fill="#fff"/><path d="M127.839 87.066a1.304 1.304 0 0 0 .505-.055 4.865 4.865 0 0 0 .821-.631 4.702 4.702 0 0 0 .658-.739 1.083 1.083 0 0 1 .135-.203s.14.04.14.136a11.901 11.901 0 0 1-.362 1.231 17.764 17.764 0 0 1-.558 1.412c-.19.412-.806 1.602-1.028 1.994-.219.4-1.216 1.975-1.63 2.534a52.94 52.94 0 0 1-2.036 2.519c-.385.424-1.905 1.901-2.273 2.258-.37.354-3.05 2.117-3.568 2.43-.524.319-2.232 1.318-2.63 1.536-.397.22-1.6.795-2.01.999a15.904 15.904 0 0 1-1.738.766 2.64 2.64 0 0 1-.795-.023 2.771 2.771 0 0 0-.424-.032c-.082 0-.385.041-.385.041l-.12-.204s.998-.398 1.503-.64c.51-.249 2.684-1.264 3.296-1.618.617-.354 1.905-1.08 2.56-1.52.657-.437 2.232-1.587 2.805-2.092.575-.507 2.217-2.11 2.504-2.464.287-.356 1.598-1.573 1.9-1.886a10.451 10.451 0 0 0 1.205-1.344 25.753 25.753 0 0 0 1.451-2.42c.175-.41.381-.74.34-.914-.038-.18-.054-.344-.106-.37a6.519 6.519 0 0 0-.36-.112l.125-.368c.044-.124.074-.222.074-.222m-27.479 9.977a1.881 1.881 0 0 0 .604-.081 9.845 9.845 0 0 1 1.22-.398c.273-.028.683-.028.75.082a5.265 5.265 0 0 1 .29.725c.121.343.929 2.396 1.122 2.941.19.55 1.095 2.724 1.258 3.176.164.456.585 1.452.643 1.66a3.496 3.496 0 0 1 .206.914 5.697 5.697 0 0 1-.561.956c-.19.29-.862 1.192-.862 1.192a1.139 1.139 0 0 1 .03-.465.709.709 0 0 0 .096-.463 1.67 1.67 0 0 0-.398-.672c-.204-.166-.59-.304-.797-.491a1.274 1.274 0 0 1-.449-.853c-.152-.6-.535-2.213-.657-2.692-.125-.481-.619-2.751-.74-3.202a5.006 5.006 0 0 0-.412-1.286 1.915 1.915 0 0 0-.701-.59 1.98 1.98 0 0 0-.379-.014 1.426 1.426 0 0 0-.155.014l-.108-.451zm-2.844.26a7.232 7.232 0 0 0 .74-.108 5.23 5.23 0 0 1 1.096-.178c.327 0 .642.081.697.286.053.206.136.795.176 1.055.042.262.63 2.776.699 3.144.067.372.755 3.079.821 3.477.067.398.3 1.342.285 1.56a2.069 2.069 0 0 1-.025.482 8.716 8.716 0 0 1-.658.804c-.206.205-.928 1.122-.928 1.122s-.07-.26.027-.383c.093-.123.3-.302.273-.507a1.613 1.613 0 0 0-.397-.752c-.178-.166-.573-.372-.754-.56a1.122 1.122 0 0 1-.316-.796 413 413 0 0 1-.272-3.611c-.056-.78-.22-2.957-.272-3.284a1.531 1.531 0 0 0-.328-.86 1.482 1.482 0 0 0-.577-.374 1.902 1.902 0 0 0-.273-.054l-.014-.463zm-2.954.033a4.349 4.349 0 0 0 .67-.032 4.473 4.473 0 0 1 1.038-.096c.385.018.794.111.822.316.027.21.042.876.054 1.286.015.41.18 2.532.19 2.878.018.34.196 2.706.234 3.282.041.573.124 1.683.111 1.903-.014.22-.014.494-.014.494s-.63.657-.833.835c-.206.18-.947.806-.947.806a2.04 2.04 0 0 1 .222-.451c.106-.137.204-.357.12-.493a7.067 7.067 0 0 0-.82-.865 1.203 1.203 0 0 1-.44-.725c-.024-.284.113-2.185.196-2.98.077-.795.19-2.589.243-3.203a5.296 5.296 0 0 0 .03-1.615 1.51 1.51 0 0 0-.48-.654 2.064 2.064 0 0 0-.412-.126l.017-.558zm-2.93-.184s.397 0 .588-.011a3.911 3.911 0 0 1 .682-.044 2.808 2.808 0 0 1 .795.082.497.497 0 0 1 .386.59c-.028.38-.126 1.737-.164 2.12-.04.383-.272 3.144-.272 3.405s-.087 1.467-.115 1.86c-.018.308-.135 1.057-.163 1.342-.028.287-.176.768-.176.822a.464.464 0 0 1-.042.148 6.475 6.475 0 0 1-.683.496c-.18.082-.18-.094-.289-.201-.108-.115-.26-.125-.52-.249a2.707 2.707 0 0 1-.835-.78 1.132 1.132 0 0 1-.122-.999c.11-.453.49-2.014.616-2.571.122-.561.493-2.121.613-2.672a14.18 14.18 0 0 0 .344-1.709 1.048 1.048 0 0 0-.257-.74.854.854 0 0 0-.304-.22c-.109-.038-.222-.07-.222-.07l.14-.595zm-2.971-.49s.4.04.588.04a3.63 3.63 0 0 1 .892.039c.369.084.808.152.861.318a.969.969 0 0 1 .042.699c-.093.35-.74 3.022-.847 3.475-.109.454-.602 2.57-.684 2.926-.082.359-.356 1.578-.438 1.846a15.28 15.28 0 0 1-.275.854 2.657 2.657 0 0 1-.518.299c-.096.04-.233.11-.233.11s.15-.22.095-.357a.453.453 0 0 0-.411-.286c-.205 0-.436.164-.6.107a.963.963 0 0 1-.617-.615 1.105 1.105 0 0 1-.136-.865c.07-.34.918-2.361 1.096-2.844.18-.48.947-2.464 1.138-2.942a6.016 6.016 0 0 0 .437-1.297 1.26 1.26 0 0 0-.257-.603.42.42 0 0 0-.292-.14c-.054.015-.121-.041-.121-.041l.285-.725zm-2.915-.795a2.163 2.163 0 0 0 .578.093 3.03 3.03 0 0 1 .913.085 1.546 1.546 0 0 1 .837.533c.068.18-.096.518-.287.945-.192.424-1.081 2.79-1.286 3.3-.207.5-1.11 2.776-1.232 3.093-.125.313-.52 1.27-.645 1.517-.121.245-.22.49-.22.49l-.504.153s.136-.207.051-.328c-.078-.122-.337-.383-.49-.397a1.335 1.335 0 0 0-.535.096c-.216.082-.48.082-.57-.097a6.477 6.477 0 0 1-.4-.807.665.665 0 0 1 .016-.558c.133-.261 1.024-1.905 1.216-2.21.19-.297 1.23-2.05 1.463-2.473.234-.421.809-1.396.917-1.613.112-.222.178-.398.1-.564-.085-.163-.085-.245-.179-.286a1.468 1.468 0 0 0-.26-.07l.52-.902z" fill="#fff"/><path d="M96.299 89.873h-.23c-2.996 0-6.386-.839-6.386-5.662 0-4.842 3.335-5.797 6.498-5.824 3.021.023 6.23 1.134 6.23 5.825 0 4.243-2.972 5.664-6.113 5.664"/><path d="M95.691 96.774c-14.287 0-25.09-8.804-25.09-18.8 0-10.005 10.803-18.806 25.09-18.806 14.288 0 25.09 8.8 25.09 18.805 0 9.997-10.802 18.802-25.089 18.802" fill="#fff"/><path d="M95.655 65.919c3.454.03 5.783 1.43 5.783 5.256 0 3.997-2.434 5.282-5.782 5.306-3.197-.02-5.787-1.164-5.787-5.306 0-3.677 2.627-5.228 5.788-5.256"/><path d="M105.43 77.017c3.439-1.954 4.148-3.93 3.885-6.244-.467-4.182-6.194-7.17-13.78-7.078-9.132.105-14.659 4.68-14.659 5.874 0 1.195 1.812 1.5 1.812 2.144v12.58c.023.782-1.698 1.649-1.698 2.517 0 .9 5.88 5.236 15.608 5.178 8.548-.047 13.46-3.63 13.506-7.92a7.837 7.837 0 0 0-4.675-7v-.05z"/><path d="M95.698 60.04c14.441 0 24.267 9.011 24.267 17.987s-9.825 17.99-24.268 17.99c-14.442 0-24.263-9.012-24.263-17.991.002-8.976 9.82-17.987 24.263-17.987"/><path d="M95.655 65.919c3.454.03 5.78 1.43 5.78 5.256 0 3.997-2.434 5.282-5.781 5.306-3.198-.02-5.788-1.164-5.788-5.306 0-3.677 2.628-5.228 5.789-5.256m9.774 11.098c3.44-1.952 4.15-3.93 3.886-6.244-.467-4.182-6.199-7.167-13.784-7.08-9.128.11-14.656 4.683-14.656 5.876 0 1.195 1.812 1.503 1.812 2.144l.002 12.582c.02.78-1.7 1.65-1.7 2.515 0 .9 5.882 5.236 15.61 5.178 8.547-.044 13.458-3.63 13.505-7.92a7.846 7.846 0 0 0-4.675-7v-.05zM96.3 89.873h-.23c-2.996 0-6.386-.839-6.386-5.662 0-4.842 3.335-5.797 6.498-5.824 3.021.023 6.23 1.134 6.23 5.825 0 4.243-2.972 5.664-6.113 5.664" fill="#fff"/></g></svg>