<svg xmlns="http://www.w3.org/2000/svg" xmlns:xlink="http://www.w3.org/1999/xlink" viewBox="0 0 192 192"><defs><linearGradient id="b" data-name="Sfumatura senza nome 131" x1="71.082" y1="1048.644" x2="71.082" y2="1001.631" gradientTransform="matrix(1 0 0 -1 -1.5 1092.423)" gradientUnits="userSpaceOnUse"><stop offset="0" stop-color="#f8f8f9"/><stop offset=".46" stop-color="#f6f6f7"/><stop offset=".62" stop-color="#eff0f2"/><stop offset=".74" stop-color="#e4e5e8"/><stop offset=".84" stop-color="#d3d6da"/><stop offset=".92" stop-color="#bdc1c7"/><stop offset=".99" stop-color="#a2a9b1"/><stop offset="1" stop-color="#9da4ad"/></linearGradient><linearGradient id="c" data-name="Sfumatura senza nome 130" x1="39.24" y1="1041.653" x2="41.829" y2="1043.558" gradientTransform="matrix(1 0 0 -1 -1.5 1092.423)" gradientUnits="userSpaceOnUse"><stop offset="0" stop-color="#acb6cd"/><stop offset=".35" stop-color="#a0aabd"/><stop offset="1" stop-color="#818b96"/></linearGradient><linearGradient id="d" data-name="Sfumatura senza nome 129" x1="44.368" y1="1024.633" x2="49.49" y2="1025.454" gradientTransform="matrix(1 0 0 -1 -1.5 1092.423)" gradientUnits="userSpaceOnUse"><stop offset="0" stop-color="#e1e4ec"/><stop offset=".17" stop-color="#d8dce4"/><stop offset=".46" stop-color="#c0c5ce"/><stop offset=".81" stop-color="#98a1ab"/><stop offset="1" stop-color="#818b96"/></linearGradient><linearGradient id="e" data-name="Sfumatura senza nome 128" x1="111.063" y1="997.275" x2="76.587" y2="1004.736" gradientTransform="matrix(1 0 0 -1 -1.5 1092.423)" gradientUnits="userSpaceOnUse"><stop offset="0" stop-color="#e1e4ec"/><stop offset=".02" stop-color="#d7dbe3"/><stop offset=".09" stop-color="#bcc2cb"/><stop offset=".17" stop-color="#a6aeb7"/><stop offset=".27" stop-color="#959ea8"/><stop offset=".38" stop-color="#8a939e"/><stop offset=".55" stop-color="#838d98"/><stop offset="1" stop-color="#818b96"/></linearGradient><linearGradient id="a" data-name="Sfumatura senza nome 114" x1="49.161" y1="1029.216" x2="61.174" y2="1029.216" gradientTransform="matrix(1 0 0 -1 -1.5 1092.423)" gradientUnits="userSpaceOnUse"><stop offset="0" stop-color="#cad0df"/><stop offset=".02" stop-color="#c7cddc"/><stop offset=".7" stop-color="#687685"/><stop offset="1" stop-color="#435363"/></linearGradient><linearGradient id="f" x1="50.245" y1="1021.201" x2="62.555" y2="1021.201" xlink:href="#a"/><linearGradient id="g" data-name="Sfumatura senza nome 127" x1="119.252" y1="997.206" x2="167.715" y2="1047.266" gradientTransform="matrix(1 0 0 -1 -1.5 1092.423)" gradientUnits="userSpaceOnUse"><stop offset="0" stop-color="#1d1d1b"/><stop offset=".34" stop-color="#1e1f1e"/><stop offset=".54" stop-color="#232526"/><stop offset=".71" stop-color="#2a3034"/><stop offset=".86" stop-color="#353f48"/><stop offset="1" stop-color="#435262"/><stop offset="1" stop-color="#435363"/></linearGradient><linearGradient id="h" data-name="Sfumatura senza nome 126" x1="101.32" y1="1004.049" x2="149.269" y2="1004.049" gradientTransform="matrix(1 0 0 -1 -1.5 1092.423)" gradientUnits="userSpaceOnUse"><stop offset="0" stop-color="#818b96"/><stop offset=".01" stop-color="#828c97"/><stop offset=".46" stop-color="#b5bbc5"/><stop offset=".81" stop-color="#d5d9e1"/><stop offset="1" stop-color="#e1e4ec"/></linearGradient><linearGradient id="i" data-name="Sfumatura senza nome 125" x1="101.32" y1="1023.717" x2="167.875" y2="1023.717" gradientTransform="matrix(1 0 0 -1 -1.5 1092.423)" gradientUnits="userSpaceOnUse"><stop offset="0" stop-color="#f6f6f8"/><stop offset=".33" stop-color="#f4f4f6"/><stop offset=".48" stop-color="#ededf0"/><stop offset=".59" stop-color="#e0e2e5"/><stop offset=".69" stop-color="#ced1d6"/><stop offset=".77" stop-color="#b6bcc3"/><stop offset=".85" stop-color="#99a1ab"/><stop offset=".92" stop-color="#76828e"/><stop offset=".98" stop-color="#4f5e6d"/><stop offset="1" stop-color="#435363"/></linearGradient><linearGradient id="j" data-name="Sfumatura senza nome 124" x1="110.007" y1="1044.782" x2="110.007" y2="1048.456" gradientTransform="matrix(1 0 0 -1 0 1109.153)" gradientUnits="userSpaceOnUse"><stop offset="0" stop-color="#407cca"/><stop offset=".12" stop-color="#3e77c2"/><stop offset=".32" stop-color="#3969ab"/><stop offset=".56" stop-color="#315185"/><stop offset=".83" stop-color="#253152"/><stop offset=".9" stop-color="#222944"/></linearGradient><linearGradient id="k" data-name="Sfumatura senza nome 123" x1="146.518" y1="1037.667" x2="141.772" y2="1042.744" gradientTransform="matrix(1 0 0 -1 0 1109.153)" gradientUnits="userSpaceOnUse"><stop offset="0" stop-color="#fff"/><stop offset=".16" stop-color="#fcfcfc"/><stop offset=".3" stop-color="#f1f1f1"/><stop offset=".42" stop-color="#e0e0e0"/><stop offset=".54" stop-color="#c8c8c7"/><stop offset=".66" stop-color="#a9a9a8"/><stop offset=".78" stop-color="#828281"/><stop offset=".89" stop-color="#545453"/><stop offset=".99" stop-color="#21211f"/><stop offset="1" stop-color="#1d1d1b"/></linearGradient><linearGradient id="l" data-name="Sfumatura senza nome 122" x1="148.55" y1="1014.921" x2="140.188" y2="1019.131" gradientTransform="matrix(1 0 0 -1 -1.5 1092.423)" gradientUnits="userSpaceOnUse"><stop offset="0" stop-color="#fff"/><stop offset=".17" stop-color="#fcfcfc"/><stop offset=".31" stop-color="#f2f2f2"/><stop offset=".43" stop-color="#e1e1e1"/><stop offset=".55" stop-color="#cacac9"/><stop offset=".66" stop-color="#ababab"/><stop offset=".77" stop-color="#868685"/><stop offset=".88" stop-color="#5a5a58"/><stop offset=".98" stop-color="#282826"/><stop offset="1" stop-color="#1d1d1b"/></linearGradient><linearGradient id="m" data-name="Sfumatura senza nome 121" x1="143.664" y1="1011.084" x2="104.043" y2="1003.326" gradientTransform="matrix(1 0 0 -1 -1.5 1092.423)" gradientUnits="userSpaceOnUse"><stop offset="0" stop-color="#d2b887"/><stop offset=".06" stop-color="#c0a980"/><stop offset=".22" stop-color="#90826e"/><stop offset=".39" stop-color="#68625f"/><stop offset=".55" stop-color="#4a4953"/><stop offset=".71" stop-color="#34374b"/><stop offset=".86" stop-color="#262d46"/><stop offset="1" stop-color="#222944"/></linearGradient><linearGradient id="n" data-name="Sfumatura senza nome 120" x1="143.904" y1="1009.775" x2="142.717" y2="1014.168" gradientTransform="matrix(1 0 0 -1 -1.5 1092.423)" gradientUnits="userSpaceOnUse"><stop offset="0" stop-color="#fff"/><stop offset=".14" stop-color="#fbfbfb"/><stop offset=".28" stop-color="#f0f0f0"/><stop offset=".41" stop-color="#ddd"/><stop offset=".53" stop-color="#c3c3c2"/><stop offset=".66" stop-color="#a0a0a0"/><stop offset=".79" stop-color="#767675"/><stop offset=".91" stop-color="#464644"/><stop offset="1" stop-color="#1d1d1b"/></linearGradient><linearGradient id="o" data-name="Sfumatura senza nome 119" x1="33.475" y1="1048.376" x2="101.32" y2="1048.376" gradientTransform="matrix(1 0 0 -1 -1.5 1092.423)" gradientUnits="userSpaceOnUse"><stop offset="0" stop-color="#ebebeb"/><stop offset=".33" stop-color="#e0e0e0"/><stop offset=".92" stop-color="#c3c3c3"/><stop offset="1" stop-color="#bebebe"/></linearGradient><linearGradient id="p" data-name="Sfumatura senza nome 118" x1="43.811" y1="1041.126" x2="60.136" y2="1041.126" gradientTransform="matrix(1 0 0 -1 -1.5 1092.423)" gradientUnits="userSpaceOnUse"><stop offset="0" stop-color="#cad0df"/><stop offset=".14" stop-color="#bfc6d5"/><stop offset=".39" stop-color="#a1aaba"/><stop offset=".72" stop-color="#727e8e"/><stop offset="1" stop-color="#435363"/></linearGradient><linearGradient id="q" data-name="Sfumatura senza nome 117" x1="57.11" y1="1058.309" x2="55.467" y2="1057.088" gradientTransform="matrix(1 0 0 -1 0 1109.153)" gradientUnits="userSpaceOnUse"><stop offset="0" stop-color="#435363"/><stop offset=".22" stop-color="#404f5e"/><stop offset=".47" stop-color="#394550"/><stop offset=".74" stop-color="#2c3338"/><stop offset="1" stop-color="#1d1d1b"/></linearGradient><linearGradient id="r" data-name="Sfumatura senza nome 116" x1="57.986" y1="1051.568" x2="60.017" y2="1052.138" gradientTransform="matrix(1 0 0 -1 0 1109.153)" gradientUnits="userSpaceOnUse"><stop offset="0" stop-color="#435363"/><stop offset=".16" stop-color="#3d4a57"/><stop offset="1" stop-color="#1d1d1b"/></linearGradient><linearGradient id="s" data-name="Sfumatura senza nome 115" x1="48.306" y1="1035.131" x2="60.513" y2="1035.131" gradientTransform="matrix(1 0 0 -1 -1.5 1092.423)" gradientUnits="userSpaceOnUse"><stop offset="0" stop-color="#cad0df"/><stop offset=".02" stop-color="#c7cddc"/><stop offset=".66" stop-color="#687685"/><stop offset=".94" stop-color="#435363"/></linearGradient><linearGradient id="t" x1="52.23" y1="1012.229" x2="67.107" y2="1012.229" xlink:href="#a"/><linearGradient id="u" data-name="Sfumatura senza nome 113" x1="72.36" y1="1010.7" x2="72.36" y2="1013.906" gradientTransform="matrix(1 0 0 -1 -1.5 1092.423)" gradientUnits="userSpaceOnUse"><stop offset="0" stop-color="#407cca"/><stop offset=".06" stop-color="#3e76c1"/><stop offset=".51" stop-color="#2f4d7e"/><stop offset=".83" stop-color="#263354"/><stop offset="1" stop-color="#222944"/></linearGradient><linearGradient id="v" data-name="Sfumatura senza nome 112" x1="89.655" y1="1036.363" x2="89.655" y2="1039.42" gradientTransform="matrix(1 0 0 -1 0 1109.153)" gradientUnits="userSpaceOnUse"><stop offset="0" stop-color="#407cca"/><stop offset=".24" stop-color="#3866a7"/><stop offset=".76" stop-color="#283a60"/><stop offset="1" stop-color="#222944"/></linearGradient><linearGradient id="w" data-name="Sfumatura senza nome 111" x1="133.856" y1="1038.685" x2="133.856" y2="1042.484" gradientTransform="matrix(1 0 0 -1 -1.5 1092.423)" gradientUnits="userSpaceOnUse"><stop offset="0" stop-color="#407cca"/><stop offset="1" stop-color="#222944"/></linearGradient><linearGradient id="x" data-name="Sfumatura senza nome 110" x1="150.486" y1="1038.641" x2="149.54" y2="1042.736" gradientTransform="matrix(1 0 0 -1 -1.5 1092.423)" gradientUnits="userSpaceOnUse"><stop offset="0" stop-color="#fff"/><stop offset=".13" stop-color="#fbfbfb"/><stop offset=".26" stop-color="#efefef"/><stop offset=".4" stop-color="#dbdbda"/><stop offset=".53" stop-color="#bebebe"/><stop offset=".67" stop-color="#999"/><stop offset=".8" stop-color="#6d6d6b"/><stop offset=".94" stop-color="#383837"/><stop offset="1" stop-color="#1d1d1b"/></linearGradient><linearGradient id="y" data-name="Sfumatura senza nome 109" x1="148.143" y1="1041.69" x2="144.777" y2="1052.664" gradientTransform="matrix(1 0 0 -1 0 1109.153)" gradientUnits="userSpaceOnUse"><stop offset="0" stop-color="#fff"/><stop offset=".2" stop-color="#fcfcfc"/><stop offset=".34" stop-color="#f3f3f3"/><stop offset=".46" stop-color="#e4e4e3"/><stop offset=".57" stop-color="#cecece"/><stop offset=".67" stop-color="#b2b2b1"/><stop offset=".77" stop-color="#8f8f8e"/><stop offset=".87" stop-color="#666665"/><stop offset=".95" stop-color="#383836"/><stop offset="1" stop-color="#1d1d1b"/></linearGradient><linearGradient id="z" data-name="Sfumatura senza nome 108" x1="153.033" y1="1024.816" x2="158.19" y2="1024.816" gradientTransform="matrix(1 0 0 -1 -1.5 1092.423)" gradientUnits="userSpaceOnUse"><stop offset="0" stop-color="#e1e4ec"/><stop offset=".08" stop-color="#ced2db"/><stop offset=".22" stop-color="#b2b9c2"/><stop offset=".37" stop-color="#9ca4af"/><stop offset=".53" stop-color="#8d96a1"/><stop offset=".73" stop-color="#848e99"/><stop offset="1" stop-color="#818b96"/></linearGradient><linearGradient id="A" data-name="Sfumatura senza nome 107" x1="159.719" y1="1042.233" x2="164.076" y2="1042.233" gradientTransform="matrix(1 0 0 -1 -1.5 1092.423)" gradientUnits="userSpaceOnUse"><stop offset="0" stop-color="#acb6cd"/><stop offset=".03" stop-color="#a7b1c8"/><stop offset=".2" stop-color="#8894a8"/><stop offset=".38" stop-color="#707e8f"/><stop offset=".56" stop-color="#5f6e7e"/><stop offset=".76" stop-color="#556473"/><stop offset="1" stop-color="#526170"/></linearGradient><linearGradient id="B" data-name="Sfumatura senza nome 106" x1="133.822" y1="1062.545" x2="133.822" y2="1068.717" gradientTransform="matrix(1 0 0 -1 0 1109.153)" gradientUnits="userSpaceOnUse"><stop offset="0" stop-color="#ebebeb"/><stop offset=".41" stop-color="#e9e9e9"/><stop offset=".64" stop-color="#e0e0e0"/><stop offset=".83" stop-color="#d3d3d3"/><stop offset=".99" stop-color="#bfbfbf"/><stop offset="1" stop-color="#bebebe"/></linearGradient></defs><path d="M39.345 45.81a35.546 35.546 0 0 1 2.966 2.989H99.09v4.996H46.007c.274.48.536.97.776 1.46v.206h52.42v3.594H47.389l.273 1.734H99.09v4.791H48.437l.308 1.905h30.278v7.473H49.92c.149.97.297 1.893.422 2.715a5.385 5.385 0 0 0 .388 1.22h28.293v2.624h-24.95a70.05 70.05 0 0 0 7.484 2.157c8.1 1.551 38.263 7.928 38.263 7.928V45.81z" fill="url(#b)"/><path d="M56.936 83.137c-5.533-1.494-6.845-2.738-7.027-4.038s-3.913-23.82-3.913-23.82a62.814 62.814 0 0 0-5.796-7.815 14.717 14.717 0 0 0-7.312-3.936c1.836 2.487 6.023 8.157 8.453 11.477 0 0 3.662 21.025 4.221 23.957.228 1.232 1.586 2.647 6.549 4.426l16.884 2.567s-6.526-1.357-12.059-2.818z" fill="#1d1d1b" stroke="#70706f" stroke-linecap="round" stroke-linejoin="round" stroke-width=".399"/><path d="M34.12 45.182l2.544 1.997a5.122 5.122 0 0 1 2.886 1.563c1.266 1.369 4.563 5.59 4.563 5.59l-2.578 1.3a1.86 1.86 0 0 0-.33-.947z" fill="url(#c)"/><path d="M41.387 55.267h3.867s3.331 18.253 3.491 19.394 1.552 4.883 0 4.94-3.057-.194-3.422-2.476z" fill="url(#d)"/><path d="M98.394 91.306c-6.047-1.278-29.787-6.275-36.837-7.632-8.431-2.134-10.599-2.852-11.215-5.921-1.038-6.845-3.114-19.508-3.559-22.429a33.94 33.94 0 0 0-7.438-9.514 30.928 30.928 0 0 0-7.301-3.423l.844 1.141a14.717 14.717 0 0 1 7.312 3.947 62.814 62.814 0 0 1 5.796 7.815s3.822 22.463 3.913 23.809 1.494 2.544 7.027 4.038 12.047 2.795 12.047 2.795 26.24 5.168 29.422 5.362z" fill="#fff" stroke="#70706f" stroke-linecap="round" stroke-linejoin="round" stroke-width=".399"/><path d="M98.394 91.306c-3.183-.206-29.422-5.362-29.422-5.362l-16.873-2.578c6.845 2.464 20.535 5.647 47.72 10.039v-1.803z" stroke="#70706f" stroke-width=".399" fill="url(#e)"/><path d="M47.661 60.811l.776 4.792h11.237c-.274-1.38-.582-3.674-.718-4.792z" stroke="#70706f" stroke-linecap="round" stroke-linejoin="round" stroke-width=".399" fill="url(#a)"/><path d="M48.745 67.485c.41 2.579.833 5.191 1.141 7.473H61.02l-.935-7.473z" stroke="#70706f" stroke-linecap="round" stroke-linejoin="round" stroke-width=".399" fill="url(#f)"/><path d="M167.847 42.285l-7.495 3.525-6.583 9.685s-2.167 15.06-2.943 18.835-1.677 6.72-4.198 7.7c-8.819 2.876-46.774 9.572-46.774 9.572s24.665-3.354 36.027-5.932c4.335-.867 8.59-1.654 11.922-2.282 4.928-1.78 6.286-3.194 6.514-4.415.547-2.932 4.22-23.957 4.22-23.957 3.184-4.335 9.356-12.697 9.356-12.697z" stroke="#70706f" stroke-linecap="round" stroke-linejoin="round" stroke-width=".399" fill="url(#g)"/><path d="M99.82 91.602v1.803h.102c27.255-4.404 41.002-7.598 47.847-10.062-3.332.661-7.587 1.449-11.922 2.281-11.374 2.624-36.027 5.978-36.027 5.978z" stroke="#70706f" stroke-width=".399" fill="url(#h)"/><path d="M99.82 45.81v45.792s38-6.708 46.774-9.571c2.52-.981 3.422-3.925 4.198-7.7s2.943-18.836 2.943-18.836l6.617-9.685z" fill="url(#i)"/><path d="M100.698 61.085h18.618v2.453h-18.618z" stroke="#70706f" stroke-linecap="round" stroke-linejoin="round" stroke-width=".399" fill="url(#j)"/><path d="M139.943 67.622h-39.245v4.666h38.469z" fill="#d2b887" stroke="#70706f" stroke-linecap="round" stroke-linejoin="round" stroke-width=".399"/><path d="M150.986 67.61H139.92l-.753 4.667h10.872z" stroke="#70706f" stroke-linecap="round" stroke-linejoin="round" stroke-width=".399" fill="url(#k)"/><path d="M100.698 74.08v3.24h36.78a23.602 23.602 0 0 0 .776-3.24z" fill="#1e252b" stroke="#70706f" stroke-width=".399"/><path d="M149.697 74.148h-11.409a23.606 23.606 0 0 1-.775 3.24h11.876z" stroke="#70706f" stroke-linecap="round" stroke-linejoin="round" stroke-width=".399" fill="url(#l)"/><path d="M130.816 83.069c-3.149.821-26.136 4.563-30.072 5.225v2.282s34.989-6.446 39.221-7.587c1.221-.33 2.35-.639 3.354-.947-2.179-.285-6.046-.582-7.905-.719a18.767 18.767 0 0 1-4.598 1.746z" stroke="#70706f" stroke-linecap="round" stroke-linejoin="round" stroke-width=".399" fill="url(#m)"/><path d="M148.145 79.167h-10.77a4.095 4.095 0 0 1-2.007 2.168c1.86.137 5.704.433 7.906.719 2.487-.765 4.232-1.575 4.871-2.887z" stroke="#70706f" stroke-linecap="round" stroke-linejoin="round" stroke-width=".399" fill="url(#n)"/><path d="M99.82 45.81v-3.525H31.975l.069.08a30.927 30.927 0 0 1 7.3 3.422z" stroke="#70706f" stroke-linecap="round" stroke-linejoin="round" stroke-width=".399" fill="url(#o)"/><path d="M99.09 48.799H54.655l3.981 5.02H99.09z" fill="#d2b887" stroke="#70706f" stroke-linecap="round" stroke-linejoin="round" stroke-width=".399"/><path d="M55.328 49.643H99.09" fill="none" stroke="#b6a269" stroke-width=".125"/><path d="M55.75 50.179h43.34m-42.781.707h42.78" fill="none" stroke="#b6a269" stroke-width=".205"/><path d="M56.902 51.628H99.09" fill="none" stroke="#b6a269" stroke-width=".103"/><path d="M57.495 52.392H99.09m-40.956.799H99.09" fill="none" stroke="#b6a269" stroke-width=".205"/><path d="M59.332 48.799v5.02" fill="none" stroke="#b6a269" stroke-width=".125"/><path d="M60.872 48.799v5.02" fill="none" stroke="#b6a269" stroke-width=".205"/><path d="M63.37 48.799v5.02" fill="none" stroke="#b6a269" stroke-width=".297"/><path d="M65.812 48.799v5.02" fill="none" stroke="#b6a269" stroke-width=".205"/><path d="M67.945 48.799v5.02" fill="none" stroke="#b6a269" stroke-width=".103"/><path d="M71.037 48.799v5.02" fill="none" stroke="#b6a269" stroke-width=".297"/><path d="M74.448 48.799v5.02m3.548-5.02v5.02" fill="none" stroke="#b6a269" stroke-width=".205"/><path d="M81.704 48.799v5.02" fill="none" stroke="#b6a269" stroke-width=".297"/><path d="M84.795 48.799v5.02" fill="none" stroke="#b6a269" stroke-width=".205"/><path d="M87.932 48.799v5.02" fill="none" stroke="#b6a269" stroke-width=".103"/><path d="M90.442 48.799v5.02" fill="none" stroke="#b6a269" stroke-width=".205"/><path d="M93.055 48.799v5.02" fill="none" stroke="#b6a269" stroke-width=".297"/><path d="M96.409 48.799v5.02" fill="none" stroke="#b6a269" stroke-width=".103"/><path d="M42.31 48.799a31.304 31.304 0 0 1 3.697 4.996h12.275L54.381 48.8z" stroke="#70706f" stroke-linecap="round" stroke-width=".399" fill="url(#p)"/><path d="M54.655 48.799h-.32l3.947 5.02h.354l-3.981-5.02" fill="url(#q)"/><path d="M56.936 83.137c-5.533-1.494-6.845-2.738-7.027-4.038s-3.913-23.82-3.913-23.82a62.814 62.814 0 0 0-5.796-7.815 14.717 14.717 0 0 0-7.312-3.936c1.836 2.487 6.023 8.157 8.453 11.477 0 0 3.662 21.025 4.221 23.957.228 1.232 1.586 2.647 6.549 4.426l16.884 2.567s-6.526-1.357-12.059-2.818z" fill="none" stroke="#70706f" stroke-linecap="round" stroke-linejoin="round" stroke-width=".399"/><path d="M57.963 55.484l1.05 3.593h1.163l-1.05-3.593h-1.163" fill="url(#r)"/><path d="M46.806 55.495c.114.765.32 2.02.57 3.594h11.637l-1.05-3.594z" stroke="#70706f" stroke-linecap="round" stroke-linejoin="round" stroke-width=".399" fill="url(#s)"/><path d="M99.204 55.484H59.127l1.05 3.593h39.027v-3.593" fill="#1e252b"/><path d="M99.09 60.811H58.944c.148 1.141.445 3.423.719 4.792H99.09z" fill="#d2b887" stroke="#70706f" stroke-linecap="round" stroke-linejoin="round" stroke-width=".399"/><path d="M59.07 61.747h40.02" fill="none" stroke="#b6a269" stroke-width=".125"/><path d="M59.207 62.762H99.09" fill="none" stroke="#b6a269" stroke-width=".205"/><path d="M59.378 63.903H99.09" fill="none" stroke="#b6a269" stroke-width=".297"/><path d="M59.526 64.839H99.09M61.02 60.81v4.792m25.498-4.792v4.792" fill="none" stroke="#b6a269" stroke-width=".205"/><path d="M65.082 60.811v4.792m31.44-4.792v4.792M83.62 60.81v4.792m-9.115-4.792v4.792" fill="none" stroke="#b6a269" stroke-width=".103"/><path d="M71.23 60.811v4.792M90.09 60.81v4.792m-9.207-4.792v4.792" fill="none" stroke="#b6a269" stroke-width=".297"/><path d="M77.722 60.811v4.792m15.846-4.792v4.792M67.82 60.81v4.792" fill="none" stroke="#b6a269" stroke-width=".205"/><path d="M100.824 68.535h38.947" fill="none" stroke="#b6a269" stroke-width=".114"/><path d="M100.96 69.516h38.652" fill="none" stroke="#b6a269" stroke-width=".194"/><path d="M101.132 70.623h38.297" fill="none" stroke="#b6a269" stroke-width=".297"/><path d="M101.44 71.524h37.83m-36.495-3.913v4.666m25.486-4.666v4.666" fill="none" stroke="#b6a269" stroke-width=".194"/><path d="M106.836 67.61v4.667m31.43-4.666v4.666m-12.903-4.666v4.666m-9.104-4.666v4.666" fill="none" stroke="#b6a269" stroke-width=".103"/><path d="M112.974 67.61v4.667m18.869-4.666v4.666m-9.218-4.666v4.666" fill="none" stroke="#b6a269" stroke-width=".297"/><path d="M119.465 67.61v4.667m15.857-4.666v4.666m-25.748-4.666v4.666" fill="none" stroke="#b6a269" stroke-width=".194"/><path d="M119.408 85.419v-.251l-1.45.251z" fill="none"/><path d="M122.899 83.388v1.141l2.452-.433v-.742zm5.567.16l.833-.16h-.833zm-2.966-.16v.72l2.68-.491V83.4zm2.966-2.213v1.871h2.316l.912-.25v-1.62zm3.65 0v1.46a15.972 15.972 0 0 0 3.115-1.255v-.205zm-29.136 4.678v1.574h2.966l.867-.148v-1.426zm32.856-4.803a3.696 3.696 0 0 0 1.54-1.883h-1.86v1.883zm-28.875 4.803v1.403l2.522-.377v-1.026zm2.807 0v.935l3.046-.513v-.422zm9.902-2.465v1.734l2.795-.49v-1.255zm-3.285 0v2.031h1.551l1.472-.24v-1.79zm-3.138 2.83l2.134-.354h-2.134zm3.138-7.05h2.989v1.882h-2.99zm6.514 2.053h2.452v1.87H122.9zm-9.652 0h2.99v1.87h-2.99zm6.412 0h2.795v1.87h-2.795zm-3.274 0h2.989v1.87h-2.99zm-6.617 0h3.046v1.87h-3.046zm3.48 2.167h2.988v2.031h-2.989zm-10.28 0h3.845v2.031h-3.845zm6.8 0h3.046v2.031h-3.046zm-2.807 0h2.522v2.031h-2.522zm0-2.167h2.522v1.87h-2.522zm-3.993 0h3.845v1.87h-3.845zm22.52 0h2.681v1.87h-2.68zm-5.83-2.054h2.796v1.883h-2.795zm5.83 0h2.681v1.883h-2.68zm2.966 0h3.218v1.883h-3.218zm-15.207 0h2.99v1.883h-2.99zm9.652 0h2.452v1.883H122.9zm-21.402 8.556v-.285h1.14v-1.585h-1.482v-.434h1.505v-2.03h-1.642v-.286h1.677v-1.928h-1.826v-.171h1.814v-1.837h-1.94v9.127l1.94-.32v-.25zm1.483.194l1.22-.205h-1.22zm-.012-8.75h3.845v1.883h-3.845zm6.8 0h3.046v1.883h-3.046zm-2.807 0h2.522v1.883h-2.522zm25.155 0h3.115v1.883h-3.114z" fill="#d2b887"/><path d="M102.98 87.427v-1.574h3.879v1.426h.148v-1.426h2.476v1.026h.285v-1.026h3.046v.433l.433-.068v-.366h2.134l2.544-.433h-1.54v-2.03h3.023v1.79h.285v-1.79h2.795v1.209l.433-.08v-1.141h2.453v.741h.149V83.4h2.68v.217h.286v-.16h.832l1.335-.285h-2.179v-1.997h3.217v1.586l.434-.126v-1.46h3.114v.206l.286-.172.262-.17h-.32v-1.872h-.285v1.883h-3.114v-1.883h-.434v1.883h-3.217v-1.883h-.285v1.883h-2.68v-1.883h-.15v1.883h-2.452v-1.883h-.434v1.883h-2.749v-1.883h-.262v1.883h-3.023v-1.883h-.149v1.883h-2.989v-1.883h-.433v1.883h-3.046v-1.883h-.285v1.883h-2.522v-1.883h-.102v1.883h-3.88v-1.883h-.284v1.883h-1.826v.125h1.814v1.871h-1.665v.285h1.677v2.031h-1.54v.434h1.505v1.574h-1.14v.285h1.14v.365h.286v-.205h1.22l1.757-.285zm22.52-6.252h2.68v1.871h-2.68zm-2.59 0h2.453v1.871h-2.453zm-3.228 0h2.795v1.871h-2.807zm-3.286 0h3.012v1.871h-3.023zm-3.149 0h2.99v1.871h-2.99zm0 2.168h2.99v2.03h-2.99zm-3.422-2.168h3.046v1.871h-3.103zm0 2.168h3.046v2.03h-3.103zm-2.864-2.168h2.522v1.871h-2.522zm0 2.168h2.522v2.03h-2.522zm-3.981-2.168h3.879v1.871h-3.88zm0 2.168h3.879v2.03h-3.88z" fill="#b6a269"/><path d="M79.011 67.508H60.028l1.027 7.484H79.01z" fill="#a22a2e" stroke="#70706f" stroke-linecap="round" stroke-linejoin="round" stroke-width=".399"/><path d="M62.184 67.508v7.484" fill="none" stroke="#a93737" stroke-width=".297"/><path d="M66.131 67.508v7.484m12.127-7.484v7.484m-4.94-7.484v7.484" fill="none" stroke="#a93737" stroke-width=".205"/><path d="M69.805 67.508v7.484" fill="none" stroke="#a93737" stroke-width=".297"/><path d="M71.664 67.508v7.484m-7.655-7.484v7.484m12.789-7.484v7.484" fill="none" stroke="#a93737" stroke-width=".399"/><path d="M74.859 67.508v7.484m-7.12-7.484v7.484" fill="none" stroke="#a93737" stroke-width=".205"/><path d="M61.26 67.508v7.484" fill="none" stroke="#a93737" stroke-width=".262"/><path d="M100.698 48.89h18.618v7.472h-18.618z" fill="#a22a2e" stroke="#70706f" stroke-linecap="round" stroke-linejoin="round" stroke-width=".399"/><path d="M102.478 48.89v7.484" fill="none" stroke="#a93737" stroke-width=".297"/><path d="M106.425 48.89v7.484m12.127-7.484v7.484m-4.94-7.484v7.484" fill="none" stroke="#a93737" stroke-width=".205"/><path d="M110.087 48.89v7.484" fill="none" stroke="#a93737" stroke-width=".297"/><path d="M111.958 48.89v7.484m-7.655-7.484v7.484m12.789-7.484v7.484" fill="none" stroke="#a93737" stroke-width=".399"/><path d="M115.152 48.89v7.484m-7.13-7.484v7.484" fill="none" stroke="#a93737" stroke-width=".205"/><path d="M101.554 48.89v7.484" fill="none" stroke="#a93737" stroke-width=".262"/><path d="M141.585 57.48l-20.34.137v8.009h18.846z" fill="#a22a2e" stroke="#70706f" stroke-linecap="round" stroke-linejoin="round" stroke-width=".399"/><path d="M123.024 57.617v8.009" fill="none" stroke="#a93737" stroke-width=".308"/><path d="M126.971 57.617v8.009m12.139-8.009v8.009m-4.94-8.009v8.009" fill="none" stroke="#a93737" stroke-width=".205"/><path d="M130.645 57.617v8.009" fill="none" stroke="#a93737" stroke-width=".308"/><path d="M132.504 57.617v8.009m-7.643-8.009v8.009m12.788-8.009v8.009" fill="none" stroke="#a93737" stroke-width=".411"/><path d="M135.699 57.617v8.009m-7.119-8.009v8.009" fill="none" stroke="#a93737" stroke-width=".205"/><path d="M122.1 57.617v8.009" fill="none" stroke="#a93737" stroke-width=".274"/><path d="M62.697 78.894H50.73a5.442 5.442 0 0 0 3.343 2.6h11.534a6.571 6.571 0 0 1-2.91-2.6z" stroke="#70706f" stroke-linecap="round" stroke-linejoin="round" stroke-width=".399" fill="url(#t)"/><path d="M79.023 78.894H62.697a6.571 6.571 0 0 0 2.91 2.6h13.416z" stroke="#70706f" stroke-linecap="round" stroke-linejoin="round" stroke-width=".399" fill="url(#u)"/><path d="M80.278 69.95h18.755v2.76H80.278z" stroke="#70706f" stroke-linecap="round" stroke-linejoin="round" stroke-width=".399" fill="url(#v)"/><path d="M80.243 76.36v8.534l18.824 3.4V76.36z" fill="#a22a2e" stroke="#70706f" stroke-linecap="round" stroke-linejoin="round" stroke-width=".399"/><path d="M81.27 76.36v8.717" fill="none" stroke="#a93737" stroke-width=".399"/><path d="M83.22 76.36v8.717" fill="none" stroke="#a93737" stroke-width=".297"/><path d="M85.776 76.36v9.39" fill="none" stroke="#a93737" stroke-width=".205"/><path d="M88.4 76.452v9.754" fill="none" stroke="#a93737" stroke-width=".399"/><path d="M91.104 76.452V86.8" fill="none" stroke="#a93737" stroke-width=".297"/><path d="M93.477 76.452v10.69" fill="none" stroke="#a93737" stroke-width=".205"/><path d="M96.055 76.452v11.294" fill="none" stroke="#a93737" stroke-width=".297"/><path d="M98.052 76.452V88.1" fill="none" stroke="#a93737" stroke-width=".205"/><path d="M121.256 50.795v2.692h20.307a24.96 24.96 0 0 0 1.893-2.692z" stroke="#70706f" stroke-linecap="round" stroke-linejoin="round" stroke-width=".399" fill="url(#w)"/><path d="M152.902 50.795h-9.446a24.96 24.96 0 0 1-1.893 2.692h12.343l1.746-2.692a21.676 21.676 0 0 0-2.75 0z" stroke="#70706f" stroke-linecap="round" stroke-linejoin="round" stroke-width=".399" fill="url(#x)"/><path d="M152.549 57.412l-10.964.068-1.494 8.146h11.214z" stroke="#70706f" stroke-linecap="round" stroke-linejoin="round" stroke-width=".399" fill="url(#y)"/><path d="M100.755 79.167v9.127c-.011-2.978.023-7.016 0-9.127z" fill="none" stroke="#70706f" stroke-width=".103"/><path d="M158.447 55.21h-3.925s-2.498 17.455-4.563 22.508c-1.038 2.282-.148 2.35 1.255 2.282a6.651 6.651 0 0 0 3.114-1.529l4.256-23.272" fill="url(#z)"/><path d="M165.406 45.581l-3.24 2.818a6.913 6.913 0 0 0-2.91 1.666c-.866 1.072-3.17 4.472-3.17 4.472l2.532.262z" fill="url(#A)"/><path d="M137.387 79.167h-36.689v9.127s21.265-3.423 24.79-4.187 11.83-2.042 11.9-4.94zm2.556-11.545h-39.245v4.666h38.469zm1.642-10.142l-20.34.137v8.009h18.846zm-40.887-8.59h18.618v7.472h-18.618zm-1.608-.091H54.655l3.981 5.02H99.09zm0 12.012H58.944c.148 1.141.445 3.423.719 4.792H99.09zm-18.847 15.55v8.533l18.824 3.4V76.36z" fill="none" stroke="#70706f" stroke-linecap="round" stroke-linejoin="round" stroke-width=".399"/><path d="M79.011 67.508H60.028l1.027 7.484H79.01v-7.484" fill="none"/><path d="M79.011 67.508H60.028l1.027 7.484H79.01z" fill="none" stroke="#70706f" stroke-linecap="round" stroke-linejoin="round" stroke-width=".399"/><path d="M99.911 42.273h-.103v3.537h60.544l7.484-3.537z" stroke="#70706f" stroke-linecap="round" stroke-linejoin="round" stroke-width=".399" fill="url(#B)"/><path d="M74.437 127.949a55.353 55.353 0 0 0-5.773 5.134 54.258 54.258 0 0 0-5.487 6.16 11.784 11.784 0 0 0-1.016 1.654 2.282 2.282 0 0 0-.182.947.582.582 0 0 0 .536.593 2.59 2.59 0 0 0 1.38-.148 15.104 15.104 0 0 0 3.56-1.825 58.102 58.102 0 0 0 8.316-6.845 28.52 28.52 0 0 1 7.895-5.442 15.458 15.458 0 0 1 7.358-1.46 11.749 11.749 0 0 1 1.7.296.4.4 0 0 0 .422-.09c2.943-2.762 5.91-5.511 8.841-8.283a1.563 1.563 0 0 1 1.232-.48h3.172l-4.632 4.176c-4.187 3.799-8.396 7.587-12.264 11.716a41.4 41.4 0 0 0-4.312 5.248 17.635 17.635 0 0 0-1.004 1.825 1.357 1.357 0 0 0-.125.582.684.684 0 0 0 .753.719 6.263 6.263 0 0 0 1.517-.33 17.763 17.763 0 0 0 3.799-2.134 59.39 59.39 0 0 0 6.913-5.704c1.141-1.027 2.1-2.168 3.172-3.217 1.369-1.347 2.783-2.659 4.175-3.982a.56.56 0 0 1 .331-.16h3.981c-.262.194-.502.331-.707.514-1.027.924-2.065 1.814-3.046 2.783q-2.852 2.795-5.636 5.704a14.83 14.83 0 0 0-2.555 3.423 5.499 5.499 0 0 0-.433 1.072 1.494 1.494 0 0 0 1.551 2.077 10.267 10.267 0 0 0 3.035-.434 28.52 28.52 0 0 0 6.046-2.476c.126-.068.251-.125.24-.33a10.267 10.267 0 0 1 .924-4.324 22.19 22.19 0 0 1 3.867-5.944 46.774 46.774 0 0 1 10.69-9 23.398 23.398 0 0 1 3.958-2.168 7.985 7.985 0 0 1 1.666-.457c1.46-.217 2.35.765 2.088 2.282a7.586 7.586 0 0 1-1.312 2.955 38.674 38.674 0 0 1-6.355 7.084 90.219 90.219 0 0 1-9.925 7.598c-.844.57-1.688 1.14-2.544 1.688a.536.536 0 0 0-.274.514 2.578 2.578 0 0 0 1.597 2.43 6.73 6.73 0 0 0 3.959.445 21.14 21.14 0 0 0 6.446-2.134c.433-.205.855-.422 1.277-.661a.434.434 0 0 0 .194-.308 10.724 10.724 0 0 1 1.54-5.374 33.198 33.198 0 0 1 5.613-7.05 49.318 49.318 0 0 1 7.918-6.4 29.754 29.754 0 0 1 4.437-2.533 7.586 7.586 0 0 1 1.62-.513c1.677-.308 2.681.764 2.282 2.441a7.849 7.849 0 0 1-1.21 2.773 37.647 37.647 0 0 1-6.65 7.38 98.569 98.569 0 0 1-8.921 6.846c-1.141.798-2.282 1.585-3.423 2.384a.707.707 0 0 0-.25.4 2.578 2.578 0 0 0 .136 1.585 2.133 2.133 0 0 0 2.282 1.14 8.191 8.191 0 0 0 2.852-.718 27.608 27.608 0 0 0 5.384-3.206c2.282-1.688 4.564-3.582 6.72-5.441a28.43 28.43 0 0 1 8.168-4.997 17.295 17.295 0 0 1 7.301-1.14 8.955 8.955 0 0 1 4.005 1.14l.137.091c-.594.48-1.141.947-1.757 1.438a71.027 71.027 0 0 0-8.796 8.92 23.342 23.342 0 0 0-1.472 2.111 3.08 3.08 0 0 0-.365.936c-.17.696.194 1.14.913 1.06a6.058 6.058 0 0 0 2.11-.627 28.338 28.338 0 0 0 5.636-3.65c2.122-1.677 4.073-3.56 6.024-5.42a26.239 26.239 0 0 1 9.297-6 12.8 12.8 0 0 1 4.564-.89 3.97 3.97 0 0 1 2.064.514 2.453 2.453 0 0 1 1.027 2.612 5.293 5.293 0 0 1-1.814 2.886 12.4 12.4 0 0 1-4.095 2.34c0-.389-.08-.765-.103-1.142 0-.068.114-.148.183-.205a11.534 11.534 0 0 0 2.646-2.498 4.027 4.027 0 0 0 .833-1.769 1.14 1.14 0 0 0-1.14-1.471 5.704 5.704 0 0 0-1.69.16 12.424 12.424 0 0 0-4.562 2.395 29.194 29.194 0 0 0-5.328 5.34 10.119 10.119 0 0 0-2.1 4.083 5.385 5.385 0 0 0-.068 1.746 2.453 2.453 0 0 0 1.894 1.985 6.491 6.491 0 0 0 3.423 0 19.257 19.257 0 0 0 5.704-2.282 20.534 20.534 0 0 0 4.29-3.126h.08c.079.354.193.696.239 1.038 0 .092-.126.24-.228.32-.765.639-1.518 1.3-2.282 1.87a21.538 21.538 0 0 1-5.59 2.807 13.906 13.906 0 0 1-5.499.833 6.012 6.012 0 0 1-3.662-1.426 4.29 4.29 0 0 1-1.403-2.955 8.248 8.248 0 0 1 .33-2.92l-.227.194a41.673 41.673 0 0 1-5.191 4.175 15.972 15.972 0 0 1-3.982 2.03 4.94 4.94 0 0 1-2.418.263 2.008 2.008 0 0 1-1.711-1.757 5.293 5.293 0 0 1 .638-3.262c.149-.297.331-.57.468-.879l-1.14.97a43.684 43.684 0 0 1-5.043 3.685 7.324 7.324 0 0 1-2.818 1.14 2.1 2.1 0 0 1-2.555-2.11 5.19 5.19 0 0 1 .479-2.35 10.555 10.555 0 0 1 .547-1.141c-.821.639-1.631 1.29-2.452 1.905a22.497 22.497 0 0 1-5.773 3.183 9.743 9.743 0 0 1-4.563.605 3.605 3.605 0 0 1-3.149-2.613l-.103-.285c-.661.32-1.3.639-1.95.935a24.562 24.562 0 0 1-6.013 1.94 11.66 11.66 0 0 1-4.46 0 4.94 4.94 0 0 1-3.548-2.396c-.114-.205-.206-.433-.308-.65-.73.365-1.45.73-2.18 1.072a23.535 23.535 0 0 1-5.703 1.928 7.142 7.142 0 0 1-2.887.069 2.978 2.978 0 0 1-2.338-2.636 6.24 6.24 0 0 1 .65-3.103l.125-.296-1.46 1.266a30.106 30.106 0 0 1-5.499 3.845 7.986 7.986 0 0 1-3.194 1.038 2.67 2.67 0 0 1-1.974-.548 2.282 2.282 0 0 1-.718-1.802 6.571 6.571 0 0 1 1.06-3.503.296.296 0 0 0 0-.16c-.638.548-1.266 1.141-1.916 1.655a32.525 32.525 0 0 1-4.415 3.32 5.601 5.601 0 0 1-2.897.946 1.974 1.974 0 0 1-1.974-1.597 5.077 5.077 0 0 1 .354-2.954c.17-.468.387-.913.593-1.415l-1.232 1.084a31.089 31.089 0 0 1-4.7 3.422 10.268 10.268 0 0 1-4.05 1.54 4.175 4.175 0 0 1-1.472-.114 1.94 1.94 0 0 1-1.358-1.563 4.45 4.45 0 0 1 .354-2.863c.205-.468.468-.901.719-1.392l-.845.707a45.325 45.325 0 0 1-5.384 3.97 7.45 7.45 0 0 1-2.818 1.141 2.1 2.1 0 0 1-2.544-2.156 5.157 5.157 0 0 1 .559-2.487c.24-.536.513-1.05.81-1.631l-.833.65a73.674 73.674 0 0 1-9.423 6.389 50.55 50.55 0 0 1-7.62 3.593 24.14 24.14 0 0 1-7.416 1.654 12.834 12.834 0 0 1-5.122-.741 7.039 7.039 0 0 1-4.735-5.704 11.522 11.522 0 0 1 .274-4.564 19.12 19.12 0 0 1 3.628-7.346c.924-1.141 1.95-2.282 2.92-3.423l.183-.205-1.14-.092a30.151 30.151 0 0 1-6.777-1.334 9.994 9.994 0 0 1-4.221-2.453 4.883 4.883 0 0 1-1.141-5.362 10.45 10.45 0 0 1 3.48-4.655 28.19 28.19 0 0 1 6.16-3.696 50.903 50.903 0 0 1 5.635-2.167 66.43 66.43 0 0 1 8.146-2.054 53.972 53.972 0 0 1 8.75-1.004c.376 0 .616.057.764.422a9.3 9.3 0 0 0 .468.867.353.353 0 0 1 0 .069h-.251a32.217 32.217 0 0 0-5.533.194 50.904 50.904 0 0 0-7.986 1.608 45.541 45.541 0 0 0-7.415 2.773 24.573 24.573 0 0 0-4.894 2.989 11.58 11.58 0 0 0-3.092 3.605 5.02 5.02 0 0 0 1.78 6.787 10.644 10.644 0 0 0 4.267 1.552c1.391.217 2.795.32 4.186.468a.605.605 0 0 0 .422-.137 64.045 64.045 0 0 1 6.013-4.735 98.472 98.472 0 0 1 7.643-4.87c2.84-1.644 5.704-3.195 8.727-4.564 2.51-1.141 5.031-2.282 7.575-3.263a77.052 77.052 0 0 1 10.633-3.422c1.7-.411 3.422-.753 5.156-1.05a14.249 14.249 0 0 1 4.016-.262 8.82 8.82 0 0 1 2.03.445 2.75 2.75 0 0 1 1.838 2.909 6.229 6.229 0 0 1-1.335 3.342 18.253 18.253 0 0 1-4.096 3.959 54.087 54.087 0 0 1-10.849 6.035 81.429 81.429 0 0 1-8.408 3.034 94.675 94.675 0 0 1-9.31 2.35 93.602 93.602 0 0 1-8.327 1.312 70.581 70.581 0 0 1-7.404.457.616.616 0 0 0-.49.205 52.946 52.946 0 0 0-4.85 5.841 24.448 24.448 0 0 0-2.84 4.906 10.267 10.267 0 0 0-.867 4.244 5.122 5.122 0 0 0 2.202 4.3 6.389 6.389 0 0 0 3.206 1.039 16.759 16.759 0 0 0 5.339-.57 37.1 37.1 0 0 0 8.42-3.423 76.434 76.434 0 0 0 12.388-8.385c1.45-1.141 2.83-2.43 4.29-3.594a29.502 29.502 0 0 1 7.735-4.392 17.295 17.295 0 0 1 7.267-1.14 8.944 8.944 0 0 1 4.061 1.14zm-44.698-1.757v.08c1.37-.091 2.75-.148 4.118-.274a63.647 63.647 0 0 0 8.694-1.323q3.502-.81 6.97-1.826a81.41 81.41 0 0 0 9.89-3.662q4.153-1.836 8.238-3.844a28.932 28.932 0 0 0 6.035-3.925 10.268 10.268 0 0 0 2.67-3.114 2.453 2.453 0 0 0 .319-1.643 2.03 2.03 0 0 0-1.837-1.529 11.236 11.236 0 0 0-3.194 0 47.446 47.446 0 0 0-7.325 1.609 78.23 78.23 0 0 0-7.107 2.487 103.817 103.817 0 0 0-9.845 4.563 97.23 97.23 0 0 0-9.047 5.374 56.859 56.859 0 0 0-7.176 5.612zm96.97 11.26h.137c2.02-1.495 4.073-2.943 6.046-4.495a72.829 72.829 0 0 0 6.845-6.115 48.063 48.063 0 0 0 4.986-5.704 4.05 4.05 0 0 0 .798-1.586c.114-.604-.228-1.038-.844-.958a3.046 3.046 0 0 0-1.14.377 37.842 37.842 0 0 0-5.511 4.095 56.312 56.312 0 0 0-6.514 6.663 30.369 30.369 0 0 0-3.913 5.818 11.913 11.913 0 0 0-.901 1.916zm-16.302-.183l.216-.09a83.28 83.28 0 0 0 6.72-5.043 80.27 80.27 0 0 0 6.628-6.104 44.583 44.583 0 0 0 4.153-4.928 3.993 3.993 0 0 0 .798-1.688.673.673 0 0 0-.833-.845 2.715 2.715 0 0 0-.958.308c-1.027.64-2.076 1.278-3.046 2.008a52.478 52.478 0 0 0-10.267 10.21 24.334 24.334 0 0 0-2.83 4.564 36.252 36.252 0 0 1-.593 1.608zm48.256-8.978a2.475 2.475 0 0 0-.399-.182 5.031 5.031 0 0 0-2.715.102 15.743 15.743 0 0 0-4.563 2.362 40.75 40.75 0 0 0-5.796 4.848 27.152 27.152 0 0 0-3.913 4.666 3.423 3.423 0 0 0-.661 1.711c0 .57.216.776.775.674a7.689 7.689 0 0 0 2.613-1.21 47.8 47.8 0 0 0 6.217-4.905c2.282-2.03 4.438-4.107 6.64-6.172.582-.593 1.164-1.244 1.791-1.882zm-88.984 0a3.88 3.88 0 0 0-.616-.228 6.092 6.092 0 0 0-3.422.456 18.253 18.253 0 0 0-3.617 2.02 42.062 42.062 0 0 0-7.643 6.753 18.345 18.345 0 0 0-2.282 3.137 2.943 2.943 0 0 0-.479 1.426c0 .491.24.708.719.628a2.407 2.407 0 0 0 .684-.194 24.952 24.952 0 0 0 2.282-1.266 50.367 50.367 0 0 0 6.183-4.951c2.145-1.94 4.244-3.936 6.343-5.921.673-.582 1.244-1.221 1.871-1.86zm21.596.069c-.205-.092-.342-.183-.502-.24a3.49 3.49 0 0 0-1.95-.091 12.081 12.081 0 0 0-3.8 1.768 35.525 35.525 0 0 0-6.423 5.305 26.763 26.763 0 0 0-4.027 5.03 6.753 6.753 0 0 0-.65 1.598c-.125.456.16.73.628.707a1.894 1.894 0 0 0 .695-.148 16.92 16.92 0 0 0 1.985-1.038 43.705 43.705 0 0 0 5.978-4.917c2.054-1.95 4.062-3.947 6.08-5.932.685-.65 1.313-1.312 2.009-2.042z"/><path d="M110.623 121.469a1.346 1.346 0 0 1 1.392 1.745 3.194 3.194 0 0 1-3.194 2.282 1.278 1.278 0 0 1-1.157-1.388q.005-.06.016-.118a3.24 3.24 0 0 1 2.943-2.521z"/></svg>