<svg xmlns="http://www.w3.org/2000/svg" viewBox="0 0 192 192"><path d="M13.975 124.856h10.588v-2.612H11.637c-2.613 0-4.126.825-4.126 4.125v7.7c0 3.162 1.513 4.125 4.125 4.125h12.925v-2.613H13.976c-.825 0-.825-.275-.825-.825v-8.525c-.138-1.1-.138-1.375.825-1.375zM40.375 122.244v6.187H31.85v-6.187h-5.363v15.812h5.363v-7.012h8.525v7.012H45.6v-15.812h-5.225zM82.588 122.244l-5.225 12.925c0 .275-.275.275-.55.275s-.55 0-.55-.275l-5.088-12.925H52.063c-2.613 0-4.126.825-4.126 4.125v7.7c0 3.162 1.513 4.125 4.126 4.125h13.474v-2.613H54.4c-.825 0-.825-.275-.825-.825v-3.575h11.137v-2.612H53.575v-2.613a.73.73 0 0 1 .825-.825h11.963a119.362 119.362 0 0 1 4.675 11.413 2.291 2.291 0 0 0 2.337 1.787h4.95c1.512 0 1.787-.825 2.338-1.787.275-.825 5.912-14.025 5.912-14.025h-3.987zM127.412 126.369c0-3.163-1.512-4.125-4.125-4.125h-11.275c-2.612 0-4.125.825-4.125 4.125v7.7c0 3.162 1.513 4.125 4.125 4.125h11.275c2.613 0 4.125-.825 4.125-4.125v-7.7zm-12.925-1.513h7.15c.963 0 .826.275.826.825v8.8c0 .825-.275.825-.825.825h-7.15c-.826 0-.826-.275-.826-.825v-8.8q-.412-.825.825-.825zM135.387 135.444v-13.2h-5.362v15.812h16.5v-2.612h-11.138zM150.925 122.244c-2.612 0-4.125.825-4.125 4.125v7.7c0 3.162 1.512 4.125 4.125 4.125H164.4v-2.613h-11.138c-.825 0-.825-.275-.825-.825v-3.575h11.138v-2.612h-11.137v-2.613a.73.73 0 0 1 .825-.825h17.6v13.2h5.225v-13.2H182v-2.887z" fill="#4a4a49"/><path d="M100.188 131.319c0-.275 2.337-.275 2.337-.275 1.787 0 3.575-.55 3.575-2.888v-2.337c0-2.613-1.513-3.575-3.163-3.575H87.263v15.812h5.224v-13.2h7.563c.55 0 .55 0 .55.275v3.025c0 .275-.275.275-.55.275H94v2.338l7.563 6.737h7.287c.138.55-8.662-6.187-8.662-6.187z" fill="#4a4a49"/><path fill="#aaa9a7" d="M66.313 103.819h29.288v2.888H66.313z"/><path fill="#aaa9a7" d="M95.463 103.681h29.288v2.888H95.463z"/><path fill="#aaa9a7" d="M66.313 103.819h29.288v2.888H66.313z"/><path fill="#aaa9a7" d="M95.463 103.681h29.288v2.888H95.463z"/><path fill="#adb0b2" d="M181 69.444v3.85l-10.313 23.375v-4.675L181 69.444M12 93.231h54.313v2.888H12z"/><path fill="#6b6a68" d="M66.312 93.231v10.588l5.225-5.638V87.594l-5.225 5.637z"/><path fill="#c9cdcc" d="M66.312 93.231H12l14.712-5.637h44.825l-5.225 5.637z"/><path fill="#d6d9e1" d="M23.412 70.269l42.9-.825 6.463 2.337H33.45l-10.038-1.512z"/><path fill="#b3b3b4" d="M33.45 71.781l-10.038-1.512L12 93.231l14.712-5.637 6.738-15.813z"/><path fill="#6b6a68" d="M72.775 71.781v-8.525l-6.188-2.062-.275 8.25"/><path fill="#d5d8db" d="M95.6 60.369v2.887H72.775l-6.188-2.062 29.013-.825z"/><path fill="#fff" d="M95.6 97.356l-24.063.825-5.225 5.638H95.6v-6.463z"/><path fill="#6a4b29" d="M34.275 73.019h39.6v-8.525H95.6v-1.238H72.775v8.525H33.45l-6.738 15.813 1.65-1.1 5.913-13.475z"/><path fill="#bb8a34" d="M26.712 87.594h44.825v10.587l24.063-.825v-1.237l-22.825.825v-10.45H28.362l-1.65 1.1z"/><path fill="#ffe36a" d="M95.6 96.119V64.494H73.875v8.525h-39.6l-5.913 13.475h44.413v10.45l22.825-.825z"/><path fill="#606059" d="M124.887 93.231v10.588l-5.224-5.638V87.594l5.224 5.637z"/><path fill="#b5b9bb" d="M118.425 71.781v-8.525l6.187-2.062v8.25"/><path fill="#d5d8db" d="M95.6 60.369v2.887h22.825l6.187-2.062-29.012-.825z"/><path fill="#a3a6a2" d="M95.6 97.356l24.063.825 5.224 5.638H95.6v-6.463z"/><path fill="#f6d586" d="M116.087 65.594h1.238v7.013h-1.238z"/><path fill="#c08a31" d="M95.6 64.356h21.725v1.238H95.6z"/><path fill="#343233" d="M97.112 103.819H95.6v-6.463h.55l.962 6.463z"/><path fill="#343233" d="M124.062 102.856H95.6v.963h29.287l-.825-.963z"/><path fill="#343233" d="M123.787 92.956h.825v10.863h-.825z"/><path fill="#da9f33" d="M95.6 96.119V64.494h21.725v8.525h44.562l-6.05 13.475h-37.412v10.45L95.6 96.119z"/><path fill="#adb0b2" d="M12 93.231h54.313v2.888H12zM170.687 96.669l-45.8-.55v-2.888h45.8v3.438z"/><path fill="#6b6a68" d="M66.312 93.231v10.588l5.225-5.638V87.594l-5.225 5.637z"/><path fill="#c9cdcc" d="M66.312 93.231H12l14.712-5.637h44.825l-5.225 5.637z"/><path fill="#d6d9e1" d="M23.412 70.269l42.9-.825 6.463 2.337H33.45l-10.038-1.512z"/><path fill="#b3b3b4" d="M33.45 71.781l-10.038-1.512L12 93.231l14.712-5.637 6.738-15.813z"/><path fill="#6b6a68" d="M72.775 71.781v-8.525l-6.188-2.062-.275 8.25"/><path fill="#d5d8db" d="M95.6 60.369v2.887H72.775l-6.188-2.062 29.013-.825z"/><path fill="#fff" d="M95.6 97.356l-24.063.825-5.225 5.638H95.6v-6.463z"/><path fill="#6a4b29" d="M34.275 73.019h39.6v-8.525H95.6v-1.238H72.775v8.525H33.45l-6.738 15.813 1.65-1.1 5.913-13.475z"/><path fill="#bb8a34" d="M26.712 87.594h44.825v10.587l24.063-.825v-1.237l-22.825.825v-10.45H28.362l-1.65 1.1z"/><path fill="#ffe36a" d="M95.6 96.119V64.494H73.875v8.525h-39.6l-5.913 13.475h44.413v10.45l22.825-.825z"/><path fill="#606059" d="M124.887 93.231v10.588l-5.224-5.638V87.594l5.224 5.637z"/><path fill="#b5b9bb" d="M118.425 71.781v-8.525l6.187-2.062v8.25l-6.187 2.337"/><path fill="#d5d8db" d="M95.6 60.369v2.887h22.825l6.187-2.062-29.012-.825z"/><path fill="#a3a6a2" d="M95.6 97.356l24.063.825 5.224 5.638H95.6v-6.463z"/><path fill="#f6d586" d="M116.087 65.594h1.238v7.013h-1.238z"/><path fill="#c08a31" d="M95.6 64.356h21.725v1.238H95.6z"/><path fill="#343233" d="M97.112 103.819H95.6v-6.463h.55l.962 6.463z"/><path fill="#343233" d="M124.062 102.856H95.6v.963h29.287l-.825-.963z"/><path fill="#b5b9bb" d="M163.675 71.781L181 69.444h-56.388l-6.187 2.337h45.25zM119.663 87.594l4.125 5.637h46.899l-14.3-5.637h-36.724z"/><path fill="#62625b" d="M123.788 91.994l-4.125-4.4v10.587l4.399 4.675-.274-10.862z"/><path fill="#ccd0d2" d="M181 69.444l-10.313 23.787-14.3-5.637 7.288-15.813L181 69.444z"/><path fill="#343233" d="M165.462 71.506L181 69.444l-4.4 10.312-13.75-3.025 2.612-5.225zM123.787 92.956h.825v10.863h-.825z"/><path fill="#343233" d="M123.788 92.269v.962h46.899l-2.612-.962h-44.287z"/><path fill="#fff" d="M123.788 92.269l-4.125-4.675h36.724l-.275.962h-34.937l2.613 3.713zM119.663 98.181l4.125 4.675-5.363-4.675"/><path fill="#6a4b29" d="M163.675 71.781h-45.25v-8.525H94.362v1.238h22.963v8.525h44.012l2.338-1.238z"/><path fill="#bb8a34" d="M161.337 73.019h.55l-6.05 13.475h-37.412v10.45l-24.063-.55v.962l25.301.825V87.594h36.724l7.288-15.813-2.338 1.238z"/><path fill="#5a5a56" d="M164.637 72.606l15.813-1.375-3.3 7.013-13.75-2.613 1.237-3.025z"/><path fill="#343233" d="M118.425 71.781l6.187-2.337v-1.788l-6.187 3.3v.825z"/></svg>