<svg xmlns="http://www.w3.org/2000/svg" xmlns:xlink="http://www.w3.org/1999/xlink" viewBox="0 0 192 192"><defs><clipPath id="d"><path fill="none" d="M14.686 170h162.628V27.325H14.686V170z"/></clipPath><linearGradient id="e" data-name="Sfumatura senza nome 47" x1="366.221" y1="1105.711" x2="368.233" y2="1105.711" gradientTransform="scale(15.28646 -15.28646) rotate(75.596 902.19 315.96)" gradientUnits="userSpaceOnUse"><stop offset="0" stop-color="#4a4a49"/><stop offset=".477" stop-color="#a4a3a3"/><stop offset=".83" stop-color="#e9e9e9"/><stop offset="1" stop-color="#e9e9e9"/></linearGradient><linearGradient id="f" data-name="Sfumatura senza nome 46" x1="309.742" y1="1071.831" x2="311.754" y2="1071.831" gradientTransform="matrix(0 95.92039 95.92039 0 -102714.407 -29748.178)" gradientUnits="userSpaceOnUse"><stop offset="0" stop-color="#131313"/><stop offset=".505" stop-color="#fff"/><stop offset=".739" stop-color="#434342"/><stop offset="1" stop-color="#434342"/></linearGradient><linearGradient id="g" data-name="Sfumatura senza nome 45" x1="321.375" y1="1065.257" x2="323.387" y2="1065.257" gradientTransform="matrix(-91.62676 0 0 91.62676 29633.579 -97575.9)" gradientUnits="userSpaceOnUse"><stop offset="0" stop-color="#f0f0f0"/><stop offset=".497" stop-color="#929292"/><stop offset="1" stop-color="#f0f0f0"/></linearGradient><linearGradient id="h" data-name="Sfumatura senza nome 4" x1="307.43" y1="1071.02" x2="309.442" y2="1071.02" gradientTransform="matrix(0 74.06325 74.06325 0 -79227.236 -22745.061)" gradientUnits="userSpaceOnUse"><stop offset="0" stop-color="#e3e3e3"/><stop offset=".111" stop-color="#fafafa"/><stop offset=".346" stop-color="#fff"/><stop offset=".695" stop-color="#dadada"/><stop offset=".849" stop-color="#d5d5d5"/><stop offset="1" stop-color="#e3e3e3"/></linearGradient><linearGradient id="i" data-name="Sfumatura senza nome 44" x1="307.429" y1="1071.009" x2="309.441" y2="1071.009" gradientTransform="matrix(0 73.82462 73.82462 0 -78970.812 -22666.229)" gradientUnits="userSpaceOnUse"><stop offset="0" stop-color="#c6c6c6"/><stop offset=".111" stop-color="#ededed"/><stop offset=".334" stop-color="#f0f0f0"/><stop offset=".667" stop-color="#575756"/><stop offset=".835" stop-color="#3a3938"/><stop offset=".965" stop-color="#929292"/><stop offset="1" stop-color="#929292"/></linearGradient><linearGradient id="j" data-name="Sfumatura senza nome 43" x1="307.43" y1="1071.009" x2="309.442" y2="1071.009" gradientTransform="matrix(0 73.82506 73.82506 0 -78971.283 -22666.369)" gradientUnits="userSpaceOnUse"><stop offset="0" stop-color="#c6c6c6"/><stop offset=".111" stop-color="#ededed"/><stop offset=".334" stop-color="#f0f0f0"/><stop offset=".667" stop-color="#575756"/><stop offset=".849" stop-color="#3a3938"/><stop offset=".98" stop-color="#929292"/><stop offset="1" stop-color="#929292"/></linearGradient><linearGradient id="k" data-name="Sfumatura senza nome 42" x1="281.508" y1="1062.808" x2="283.52" y2="1062.808" gradientTransform="matrix(0 22.38166 22.38166 0 -23691.42 -6241.04)" gradientUnits="userSpaceOnUse"><stop offset="0" stop-color="#e3e3e3"/><stop offset=".313" stop-color="#f4f4f4"/><stop offset=".985" stop-color="#646363"/><stop offset="1" stop-color="#646363"/></linearGradient><linearGradient id="a" data-name="Sfumatura senza nome 41" x1="291.347" y1="1083.071" x2="293.359" y2="1083.071" gradientTransform="scale(30.184 -30.184) rotate(-53.51 -930.75 827.582)" gradientUnits="userSpaceOnUse"><stop offset="0"/><stop offset=".453" stop-color="#4a4a49"/><stop offset=".803" stop-color="#8c8c8b"/><stop offset="1" stop-color="#f0f0f0"/></linearGradient><linearGradient id="l" x1="301.726" y1="1097.102" x2="303.738" y2="1097.102" gradientTransform="rotate(126.49 12952.942 14344.692) scale(30.184)" xlink:href="#a"/><linearGradient id="m" data-name="Sfumatura senza nome 40" x1="278.699" y1="1061.593" x2="280.711" y2="1061.593" gradientTransform="matrix(0 20.28571 20.28571 0 -21439.16 -5551.104)" gradientUnits="userSpaceOnUse"><stop offset="0" stop-color="#4a4a49"/><stop offset=".498" stop-color="#cacaca"/><stop offset="1" stop-color="#fff"/></linearGradient><linearGradient id="n" data-name="Sfumatura senza nome 39" x1="374.794" y1="1072.333" x2="376.805" y2="1072.333" gradientTransform="rotate(-104.404 -3386.793 10418.092) scale(15.28646)" gradientUnits="userSpaceOnUse"><stop offset="0" stop-color="#4a4a49"/><stop offset=".444" stop-color="#a4a3a3"/><stop offset=".83" stop-color="#e9e9e9"/><stop offset="1" stop-color="#e9e9e9"/></linearGradient><radialGradient id="b" data-name="Sfumatura senza nome 38" cx="176.901" cy="1031.677" r="2.012" gradientTransform="matrix(0 5.9481 5.9481 0 -6024.176 -1004.754)" gradientUnits="userSpaceOnUse"><stop offset="0" stop-color="#7a8ea8"/><stop offset="1" stop-color="#12406e"/></radialGradient><radialGradient id="o" cx="201.143" cy="1038.306" r="2.012" gradientTransform="matrix(0 7.17907 7.17907 0 -7352.105 -1398.308)" xlink:href="#b"/><radialGradient id="p" cx="196.479" cy="1035.437" r="2.012" gradientTransform="matrix(0 6.90361 6.90361 0 -7065.803 -1310.174)" xlink:href="#b"/><linearGradient id="c" data-name="Sfumatura senza nome 37" x1="577.02" y1="1152.66" x2="579.032" y2="1152.66" gradientTransform="matrix(0 -3.23707 -3.23707 0 3848.37 1935.187)" gradientUnits="userSpaceOnUse"><stop offset="0" stop-color="#12406e"/><stop offset="1" stop-color="#0d2e52"/></linearGradient><linearGradient id="q" x1="577.022" y1="1155.068" x2="579.034" y2="1155.068" gradientTransform="matrix(0 -3.23704 -3.23704 0 3840.635 1935.177)" xlink:href="#c"/><linearGradient id="r" x1="577.021" y1="1162.32" x2="579.033" y2="1162.32" gradientTransform="matrix(0 -3.23706 -3.23706 0 3817.454 1935.182)" xlink:href="#c"/><linearGradient id="s" x1="577.022" y1="1158.625" x2="579.033" y2="1158.625" gradientTransform="matrix(0 -3.23705 -3.23705 0 3829.267 1935.18)" xlink:href="#c"/><linearGradient id="t" x1="577.022" y1="1149.894" x2="579.034" y2="1149.894" gradientTransform="matrix(0 -3.23705 -3.23705 0 3857.19 1935.179)" xlink:href="#c"/></defs><path fill="gray" stroke="#000" stroke-miterlimit="5" stroke-opacity=".245" stroke-width=".402" d="M38.925 68.764h117.356v34.493H38.925z"/><g clip-path="url(#d)"><path d="M78.08 151.916c-13.263-4.862-18.014-15.86-22.953-27.016C49.34 111.835 38.19 77.292 34.967 67.4a1.8 1.8 0 0 0-.035-.108c.04.125.083.254.123.387 1.796 5.897 3.196 11.257 4.695 16.012 6.491 20.575 12.535 35.96 12.535 35.96s6.066 16.183 11.704 22.744a31.865 31.865 0 0 0 18.593 10.913c.28.055.569.113.88.168.292.05.597.1.919.149l.098.017a.073.073 0 0 0-.023-.005 39.408 39.408 0 0 1-6.3-1.69l-.075-.03" fill="#fff"/></g><path d="M34.078 64.596v.003l.05.158.036.093v.005l.14.415c.096.247.2.51.305.782a94.806 94.806 0 0 0 4.124 9.066c.063.124.134.254.2.38a98.132 98.132 0 0 0 2.265 4.095 98.604 98.604 0 0 0 14.904 19.503c.397.405.807.802 1.217 1.2.189.186.372.377.568.563.151.143.3.292.453.437a28.9 28.9 0 0 0 1.343 1.248l.005.005.003.002 1.478.068 3.931.171c1.798.078 3.586.154 4.575.191q5.564.223 11.144.35l3.033.113 4.899.033c2.344.032 4.63.05 6.825.05h.169c-.09 0-.201-.005-.33-.008-.354-.01-.842-.03-1.453-.065a79.682 79.682 0 0 1-12.902-1.881 83.048 83.048 0 0 1-6.481-1.75c-11.795-3.71-26.012-11.076-35.584-25.962a47.571 47.571 0 0 1-1.16-1.914c-1.888-3.282-3.555-6.906-3.737-7.31l-.012-.026-.008-.013v-.002z" fill="url(#e)"/><g clip-path="url(#d)"><path d="M123.234 121.293c-2.08 4.849-4.403 9.843-7.93 13.037-2.461 2.22-5.917 4.32-14.445 4.638-1.597.063-8.123.063-9.718 0-8.53-.317-11.984-2.417-14.446-4.638-3.526-3.194-5.85-8.188-7.93-13.037-.834-1.932-5.145-12.52-6.986-17.368 12.945.583 24.896.892 34.221.887 9.325.005 21.274-.304 34.218-.887-1.84 4.848-6.149 15.436-6.984 17.368m7.593-18.674l-3.928.171c-1.799.078-3.587.154-4.573.191q-5.568.223-11.146.35l-3.033.11-4.899.036c-2.346.033-4.63.05-6.828.05h-.843c-2.195 0-4.481-.017-6.828-.05l-4.899-.035-3.03-.111q-5.572-.132-11.146-.35c-.989-.037-2.774-.113-4.575-.19a5887.52 5887.52 0 0 0-3.928-.172c-.727-.032-1.265-.058-1.482-.068.073.207 5.83 14.65 7.102 17.67a95.234 95.234 0 0 0 4.082 8.85 24.452 24.452 0 0 0 5.526 7.11 15.484 15.484 0 0 0 1.705 1.23 19.748 19.748 0 0 0 6.42 2.507 48.853 48.853 0 0 0 9.61.798l1.866-.003 1.864.003a48.879 48.879 0 0 0 9.612-.798 19.77 19.77 0 0 0 6.42-2.507 15.975 15.975 0 0 0 1.705-1.23 24.495 24.495 0 0 0 5.526-7.11 95.234 95.234 0 0 0 4.082-8.85c1.272-3.02 7.026-17.463 7.1-17.67-.215.01-.755.036-1.482.068"/></g><path d="M96.001 30.725h-.007c-10.19.015-32.966.138-51.13.246-7.808.046-14.77.088-19.505.119-.777.057-1.489.115-2.125.168.015.06.098.355.249.853 1.029 3.478 5.138 16.875 9.662 30.046l.013.025q.464 1.237.94 2.462l-.017-.048c-.684-1.949-1.044-3.184-1.044-3.184a1.373 1.373 0 0 1 1.564-1.795c5.206 1.089 21.048 3.244 61.4 3.194 40.348.05 56.19-2.105 61.395-3.194a1.371 1.371 0 0 1 1.564 1.795s-.357 1.235-1.043 3.184l-.015.048q.479-1.226.938-2.462l.015-.025c4.524-13.171 8.631-26.568 9.665-30.046.143-.498.231-.793.244-.853-.637-.053-1.348-.11-2.123-.168-4.738-.03-11.697-.073-19.506-.119-18.165-.108-40.94-.23-51.129-.246h-.005z" fill="url(#f)"/><path d="M96.801 28.967h-1.605c-.452-.008-.912-.01-1.375-.01-1.746 0-3.468.04-4.545.045-13.12.08-26.475.322-39.58.81-8.827.3-16.797.75-22.328 1.134q-1.116.072-2.087.144c-.752.057-1.436.113-2.047.168.636-.053 1.348-.11 2.125-.168 4.736-.03 11.697-.073 19.506-.119 18.163-.108 40.938-.23 51.129-.246.002 0 32.976.138 51.141.246 7.809.046 14.768.088 19.506.119.775.057 1.486.115 2.123.168a149.69 149.69 0 0 0-2.048-.168 651.589 651.589 0 0 0-24.415-1.278c-13.108-.488-26.46-.73-39.577-.81-1.077-.005-2.792-.045-4.535-.045-.465 0-.933.002-1.388.01" fill="url(#g)"/><g clip-path="url(#d)"><path d="M175.723 35.708c0 .093-.435 2.55-.586 3.347q-1.588 8.703-3.478 17.353-1.894 8.586-4.06 17.1-1.323 5.16-2.753 10.308a823.739 823.739 0 0 1-4.122 14.25 677.071 677.071 0 0 1-4.474 14.194c-1.695 5.14-6.952 20.16-7.9 22.546-4.335 10.903-8.923 19.36-16.923 25.665-7.716 6.086-15.914 8.67-35.428 8.66-19.513.01-27.71-2.573-35.428-8.66-8-6.305-12.587-14.762-16.92-25.665-.948-2.386-6.207-17.406-7.902-22.546a662.382 662.382 0 0 1-4.472-14.194 804.538 804.538 0 0 1-4.124-14.25q-1.422-5.142-2.754-10.309-2.158-8.522-4.06-17.099-1.893-8.643-3.477-17.353c-.151-.797-.586-3.254-.586-3.348a3.633 3.633 0 0 1 .005-.81 3.56 3.56 0 0 1 2.567-3.068c.257-.067.798-.148 1.215-.203a70.011 70.011 0 0 1 3.174-.37c.606-.053 1.293-.108 2.045-.166q.97-.072 2.084-.143a646.34 646.34 0 0 1 22.33-1.132c13.108-.49 26.463-.734 39.58-.81 1.361-.01 3.753-.07 5.92-.038h1.605c2.168-.032 4.563.028 5.923.038 13.118.076 26.472.32 39.578.81 8.827.297 16.8.747 22.33 1.132.744.047 1.441.095 2.085.143.754.058 1.438.113 2.047.166 1.16.11 2.213.234 3.171.37.418.055.959.136 1.215.203a3.513 3.513 0 0 1 2.475 2.533 3.848 3.848 0 0 1 .093.536 3.632 3.632 0 0 1 .005.81m-2.233-5.576a13.309 13.309 0 0 0-1.386-.237 67.368 67.368 0 0 0-3.217-.374h-.007c-10.945-.986-45.164-2.158-72.87-2.196h-.02c-27.708.038-61.924 1.21-72.871 2.196h-.005c-1.16.108-2.249.236-3.22.374a13.31 13.31 0 0 0-1.385.237 4.88 4.88 0 0 0-3.531 5.299h.005c.09.724.588 3.4.593 3.423a507.63 507.63 0 0 0 3.489 17.4 577.183 577.183 0 0 0 4.069 17.142 537.674 537.674 0 0 0 2.759 10.33 790.223 790.223 0 0 0 4.132 14.282 669.045 669.045 0 0 0 4.484 14.227c1.733 5.256 6.991 20.265 7.927 22.62 4.36 10.97 8.978 19.626 17.325 26.207 7.35 5.795 15.304 8.94 36.155 8.94h.166c20.852 0 28.806-3.145 36.155-8.94 8.35-6.581 12.965-15.238 17.328-26.208.933-2.354 6.194-17.363 7.927-22.62a683.673 683.673 0 0 0 4.482-14.226 790.076 790.076 0 0 0 4.132-14.283 537.725 537.725 0 0 0 2.759-10.329 577.13 577.13 0 0 0 4.071-17.141 513.796 513.796 0 0 0 3.489-17.401c.002-.023.5-2.699.59-3.423h.006a4.878 4.878 0 0 0-3.531-5.3"/></g><path d="M175.141 37.073q-1.592 8.703-3.48 17.353-1.894 8.582-4.06 17.099-1.323 5.16-2.753 10.309c-.69 2.525-2.835 9.984-4.122 14.25a648.374 648.374 0 0 1-4.474 14.194c-1.693 5.14-6.952 20.157-7.9 22.546-4.335 10.903-8.923 19.358-16.923 25.665a37.373 37.373 0 0 1-4.564 3.119c-6.708 3.86-15.09 5.548-30.864 5.54-15.776.008-24.158-1.68-30.868-5.54a37.971 37.971 0 0 1-4.565-3.119c-8-6.307-12.587-14.762-16.92-25.665-.948-2.389-6.207-17.406-7.9-22.546a662.751 662.751 0 0 1-4.476-14.195c-1.288-4.265-3.43-11.724-4.12-14.25q-1.43-5.137-2.756-10.308-2.154-8.522-4.057-17.1-1.897-8.642-3.48-17.352c-.104-.553-.345-1.904-.483-2.709a3.405 3.405 0 0 0-.093.536c.115.701.415 2.399.535 3.035q1.592 8.703 3.478 17.353 1.894 8.583 4.062 17.1 1.324 5.16 2.754 10.308a810.89 810.89 0 0 0 4.122 14.25c1.439 4.75 2.93 9.471 4.472 14.194 1.697 5.14 6.953 20.16 7.902 22.547 4.335 10.902 8.92 19.357 16.923 25.665 7.723 6.088 15.924 8.671 35.468 8.659H96c19.541.012 27.745-2.57 35.469-8.66 8-6.307 12.59-14.762 16.92-25.664.948-2.387 6.207-17.406 7.902-22.547a662.377 662.377 0 0 0 4.472-14.194 792.286 792.286 0 0 0 4.124-14.25q1.422-5.138 2.754-10.308 2.158-8.522 4.06-17.1 1.893-8.638 3.477-17.353c.121-.636.423-2.334.541-3.035a3.728 3.728 0 0 0-.096-.536c-.138.805-.38 2.155-.482 2.709" fill="url(#h)"/><g clip-path="url(#d)"><path d="M113.918 151.916c13.264-4.862 18.015-15.86 22.957-27.016 5.784-13.065 16.933-47.608 20.157-57.501a1.8 1.8 0 0 1 .035-.108c-.04.125-.083.254-.123.387-1.796 5.897-3.197 11.257-4.696 16.012-6.49 20.575-12.532 35.96-12.532 35.96s-6.068 16.183-11.707 22.744a31.865 31.865 0 0 1-18.593 10.913c-.279.055-.568.113-.88.168-.292.05-.596.1-.918.149l-.098.017a.073.073 0 0 1 .023-.005 39.336 39.336 0 0 0 6.3-1.69l.075-.03" fill="#fff"/></g><path d="M168.52 32.11c-1.034 3.479-5.14 16.876-9.665 30.047l-.015.025c-.3.81-.609 1.612-.92 2.414v.003l-.051.158-.033.093a.047.047 0 0 1-.005.018c-.053.168-.13.432-.199.649-.188.596-.38 1.192-.565 1.773-.04.126-.083.256-.124.39-1.795 5.897-3.196 11.252-4.695 16.01-6.491 20.575-12.532 35.958-12.532 35.958s-6.069 16.184-11.705 22.748a31.888 31.888 0 0 1-18.595 10.91c-.28.058-.568.116-.878.169q-.437.075-.92.15c-.033.003-.066.01-.096.015a.184.184 0 0 1 .023-.005 79.282 79.282 0 0 1-11.544.697 79.296 79.296 0 0 1-11.546-.697c.008.003.015.003.025.005-.035-.005-.065-.012-.1-.015-.32-.05-.626-.1-.916-.15a23.23 23.23 0 0 1-.882-.169 31.89 31.89 0 0 1-18.593-10.91c-5.636-6.564-11.705-22.747-11.705-22.747s-6.043-15.384-12.532-35.96c-1.501-4.757-2.9-10.112-4.695-16.01l-.124-.39c-.19-.58-.38-1.176-.565-1.772l-.202-.65-.002-.017-.035-.093-.05-.158v-.003c-.313-.802-.62-1.604-.921-2.414l-.013-.025c-4.524-13.171-8.634-26.568-9.662-30.046-.151-.498-.234-.793-.25-.853-1.159.108-2.212.231-3.168.367-.42.056-.958.136-1.217.204a3.504 3.504 0 0 0-2.472 2.535c.138.805.38 2.155.482 2.709q1.589 8.703 3.481 17.353 1.894 8.582 4.057 17.099 1.324 5.16 2.756 10.309c.69 2.525 2.832 9.984 4.12 14.25 1.438 4.75 2.93 9.47 4.476 14.194 1.693 5.14 6.952 20.157 7.9 22.546 4.333 10.903 8.92 19.358 16.92 25.665a37.964 37.964 0 0 0 4.565 3.119c6.71 3.86 15.092 5.548 30.866 5.54H96c15.774.008 24.156-1.68 30.864-5.54a37.382 37.382 0 0 0 4.564-3.119c8-6.307 12.588-14.762 16.923-25.665.948-2.389 6.207-17.406 7.9-22.546a648.74 648.74 0 0 0 4.474-14.195c1.287-4.265 3.433-11.724 4.122-14.25q1.426-5.137 2.754-10.308 2.161-8.522 4.059-17.1 1.893-8.642 3.48-17.352c.104-.554.345-1.904.483-2.709a3.508 3.508 0 0 0-2.474-2.535c-.254-.068-.798-.148-1.215-.204-.958-.135-2.01-.259-3.171-.367-.013.06-.101.355-.244.853" fill="url(#i)"/><path d="M175.18 37.935q-1.593 8.703-3.479 17.353-1.894 8.583-4.06 17.1-1.323 5.16-2.753 10.308a792.286 792.286 0 0 1-4.124 14.25 662.279 662.279 0 0 1-4.472 14.194c-1.695 5.14-6.954 20.16-7.902 22.547-4.33 10.902-8.92 19.357-16.92 25.665-7.724 6.088-15.928 8.671-35.469 8.659-19.546.012-27.747-2.57-35.47-8.66-8.003-6.307-12.588-14.762-16.923-25.664-.949-2.387-6.205-17.406-7.902-22.547a692.293 692.293 0 0 1-4.472-14.194 810.977 810.977 0 0 1-4.122-14.25q-1.426-5.138-2.754-10.308-2.158-8.522-4.062-17.1-1.893-8.638-3.478-17.353c-.12-.636-.42-2.334-.535-3.035a3.465 3.465 0 0 0-.008.807c0 .096.438 2.55.586 3.347q1.588 8.707 3.478 17.356 1.898 8.582 4.06 17.097 1.323 5.16 2.753 10.31a840.729 840.729 0 0 0 4.122 14.248q2.162 7.126 4.477 14.197c1.692 5.14 6.951 20.154 7.9 22.546 4.332 10.898 8.92 19.358 16.92 25.665 7.718 6.084 15.917 8.667 35.428 8.657H96c19.511.01 27.707-2.573 35.428-8.657 7.998-6.307 12.585-14.767 16.92-25.665.949-2.391 6.208-17.406 7.9-22.546q2.32-7.085 4.474-14.197a818.093 818.093 0 0 0 4.122-14.247q1.422-5.146 2.754-10.311 2.158-8.522 4.06-17.097 1.893-8.646 3.477-17.356c.151-.797.586-3.252.586-3.347a3.609 3.609 0 0 0-.002-.807c-.118.701-.42 2.399-.54 3.035" fill="url(#j)"/><path d="M157.396 59.617c-5.206 1.089-21.048 3.244-61.395 3.194H96c-40.35.05-56.192-2.105-61.398-3.194a1.373 1.373 0 0 0-1.564 1.795s.36 1.235 1.044 3.184a.279.279 0 0 0 .017.04c.182.405 1.849 4.03 3.738 7.311.382.662.77 1.308 1.159 1.914 9.572 14.886 23.789 22.252 35.584 25.962 2.26.71 4.439 1.288 6.481 1.75a79.664 79.664 0 0 0 12.902 1.881c.61.036 1.099.056 1.453.066.129.002.22.007.161.007l.423.003H96l.42-.003a52.013 52.013 0 0 0 1.617-.073 79.72 79.72 0 0 0 12.902-1.88 83.296 83.296 0 0 0 6.478-1.751c11.796-3.71 26.015-11.076 35.584-25.962.39-.606.78-1.252 1.16-1.914 1.891-3.282 3.556-6.906 3.74-7.31l.015-.04c.686-1.95 1.043-3.185 1.043-3.185a1.387 1.387 0 0 0-1.267-1.828 1.553 1.553 0 0 0-.297.033" fill="url(#k)"/><path d="M34.164 64.858l.002.002-.002-.002zm.002.01v-.008zm.207.649c-.09-.274-.126-.388.123.397.126.395.271.858.437 1.376l.033.11c3.224 9.894 14.373 44.435 20.16 57.5 4.94 11.158 9.69 22.154 22.954 27.018.025.01.05.017.078.027a38.968 38.968 0 0 0 6.297 1.69 79.282 79.282 0 0 0 11.544.697H96v-12.663l-1.818.003a48.851 48.851 0 0 1-9.61-.798 19.92 19.92 0 0 1-6.388-2.545s-1.184-.777-1.737-1.24a24.474 24.474 0 0 1-5.526-7.11 95.912 95.912 0 0 1-4.084-8.85 514.344 514.344 0 0 1-3.712-9.104c-.609-1.521-2.709-7.469-2.656-7.32.284.729.553 1.435.838 2.165.583 1.537 1.207 3.023 1.815 4.547 1.22 3.05 2.442 6.081 3.715 9.101a94.962 94.962 0 0 0 4.084 8.853 24.388 24.388 0 0 0 5.526 7.107c.553.463 1.737 1.253 1.737 1.253a19.96 19.96 0 0 0 6.388 2.535 48.847 48.847 0 0 0 9.61.797l1.816-.002H96v-.347H96l-1.864.002a48.835 48.835 0 0 1-9.61-.797 19.812 19.812 0 0 1-6.423-2.505 16.165 16.165 0 0 1-1.702-1.232 24.4 24.4 0 0 1-5.525-7.11 94.343 94.343 0 0 1-4.085-8.853c-1.272-3.018-7.027-17.461-7.1-17.667l-.002-.003-.005-.005c-.327-.28-.785-.702-1.343-1.247-.153-.146-.302-.295-.453-.438a27.8 27.8 0 0 1-.568-.563c-.41-.398-.82-.795-1.217-1.2a98.604 98.604 0 0 1-14.904-19.503 98.229 98.229 0 0 1-2.266-4.095c-.065-.125-.136-.256-.199-.38a94.82 94.82 0 0 1-4.124-9.066l-.304-.782-.139-.402c.06.183.126.392.207.649" fill="url(#a)"/><path d="M157.693 65.27c-.096.247-.196.51-.305.782a94.689 94.689 0 0 1-4.121 9.067c-.063.123-.134.254-.2.38q-1.03 1.965-2.265 4.094a98.626 98.626 0 0 1-14.906 19.503c-.395.405-.805.802-1.215 1.2-.221.223-.425.427-.568.563-.151.143-.302.292-.456.438-.555.545-1.016.968-1.343 1.247l-.005.005v.003c-.072.206-5.83 14.65-7.102 17.667a94.982 94.982 0 0 1-4.081 8.853 24.485 24.485 0 0 1-5.526 7.11 16.196 16.196 0 0 1-1.705 1.232 19.777 19.777 0 0 1-6.42 2.505 48.888 48.888 0 0 1-9.613.797l-1.86-.003h-.003v.347H96l1.816.003a48.893 48.893 0 0 0 9.612-.797 19.969 19.969 0 0 0 6.386-2.535s1.182-.79 1.737-1.253a24.476 24.476 0 0 0 5.526-7.107 94.926 94.926 0 0 0 4.081-8.853 495.615 495.615 0 0 0 3.713-9.101c.61-1.524 1.237-3.01 1.818-4.547.287-.73.556-1.436.837-2.166.056-.148-2.044 5.8-2.655 7.321a514.268 514.268 0 0 1-3.713 9.104 94.583 94.583 0 0 1-4.081 8.85 24.563 24.563 0 0 1-5.526 7.11c-.555.463-1.737 1.24-1.737 1.24a19.92 19.92 0 0 1-6.388 2.545 48.888 48.888 0 0 1-9.613.797L96 141.67v12.663H96a79.282 79.282 0 0 0 11.544-.697 39.126 39.126 0 0 0 6.297-1.69l.076-.028c13.263-4.864 18.014-15.859 22.956-27.018 5.784-13.065 16.936-47.605 20.157-57.499.013-.035.023-.075.036-.11.163-.518.309-.981.435-1.376.249-.785.213-.671.125-.397l.204-.65.003-.012z" fill="url(#l)"/><path d="M131.527 104.704c-.281.73-.55 1.437-.837 2.166-.581 1.537-1.207 3.023-1.818 4.547a496.133 496.133 0 0 1-3.712 9.102 94.94 94.94 0 0 1-4.082 8.852 24.474 24.474 0 0 1-5.526 7.107c-.555.463-1.737 1.253-1.737 1.253a19.969 19.969 0 0 1-6.386 2.535 48.904 48.904 0 0 1-9.612.797l-1.816-.002H96l-1.816.002a48.834 48.834 0 0 1-9.61-.797 19.96 19.96 0 0 1-6.388-2.535s-1.184-.79-1.737-1.253a24.39 24.39 0 0 1-5.526-7.107 94.944 94.944 0 0 1-4.084-8.852 534.127 534.127 0 0 1-3.715-9.102c-.608-1.524-1.232-3.01-1.815-4.547-.282-.724-.551-1.429-.833-2.153.108.314 2.067 5.847 2.65 7.309 1.218 3.05 2.44 6.083 3.713 9.104a95.914 95.914 0 0 0 4.084 8.85 24.477 24.477 0 0 0 5.526 7.11c.553.462 1.737 1.24 1.737 1.24a19.92 19.92 0 0 0 6.388 2.544 48.863 48.863 0 0 0 9.61.798l1.818-.003 1.814.003a48.876 48.876 0 0 0 9.612-.798 19.92 19.92 0 0 0 6.388-2.545s1.182-.777 1.738-1.24a24.56 24.56 0 0 0 5.525-7.11 94.586 94.586 0 0 0 4.082-8.85 513.948 513.948 0 0 0 3.712-9.103c.603-1.504 2.658-7.324 2.658-7.324l-.003.003m-71.057 0a.019.019 0 0 1 .005.012l-.005-.015v.003" fill="url(#m)"/><path d="M157.92 64.599zm-.006.012a.116.116 0 0 0-.012.025c-.184.405-1.849 4.03-3.74 7.311-.38.662-.77 1.308-1.16 1.914-9.569 14.886-23.788 22.252-35.584 25.962a83.231 83.231 0 0 1-6.478 1.75 79.702 79.702 0 0 1-12.902 1.882 52.01 52.01 0 0 1-1.456.065c-.126.002-.236.007-.327.007h.166c2.196 0 4.48-.017 6.826-.05l4.901-.033 3.03-.113c3.715-.09 7.438-.2 11.147-.35.988-.037 2.774-.112 4.575-.19l3.928-.171 1.481-.068v-.003l.005-.005c.327-.279.788-.701 1.343-1.247.154-.146.305-.294.456-.438.193-.186.377-.377.568-.563.407-.397.82-.795 1.215-1.2a98.626 98.626 0 0 0 14.906-19.503q1.241-2.124 2.266-4.094c.065-.126.136-.257.199-.38a94.707 94.707 0 0 0 4.122-9.066c.108-.272.208-.536.304-.782l.14-.415.003-.005.033-.093.05-.159-.005.013" fill="url(#n)"/><path d="M114.285 69.784V52.001h5.681v17.783z" fill="#fff"/><g fill="#fff" clip-path="url(#d)"><path d="M100.74 69.786a11.546 11.546 0 0 1-5.048-1.203c-2.796-1.456-4.212-3.996-4.212-7.544 0-3.74 1.564-6.4 4.647-7.905a11.995 11.995 0 0 1 4.748-1.142h10.772v4.417h-10.082a4.109 4.109 0 0 0-4.04 4.479 4.328 4.328 0 0 0 1.497 3.581 4.278 4.278 0 0 0 2.55.903h10.075v4.411zM56.105 65.37a4.114 4.114 0 0 0 4.04-4.48 4.094 4.094 0 0 0-4.047-4.485h-6.574v8.966zm-12.262 4.414V52.001l13.087-.007a11.569 11.569 0 0 1 5.048 1.2c2.796 1.458 4.212 3.996 4.212 7.547 0 3.74-1.564 6.398-4.647 7.904a11.976 11.976 0 0 1-4.748 1.14zM82.132 62.196c-.496-1.092-1.414-3.109-1.841-4.067-.209-.47-.48-1.043-.558-1.154a1.077 1.077 0 0 0-.994-.458 1.07 1.07 0 0 0-.99.455 12.676 12.676 0 0 0-.559 1.155c-.43.96-1.348 2.977-1.843 4.069zm3.558 7.588l-.14-.295c-.4-.827-1.15-2.41-1.462-3.068H73.39c-.312.659-1.061 2.24-1.461 3.068l-.141.294h-6.275l.325-.734a341.642 341.642 0 0 1 3.903-8.438c.719-1.511 1.438-2.987 2.228-4.597a9.892 9.892 0 0 1 2.274-3.07 7.493 7.493 0 0 1 3.631-1.208c.242-.022.506-.032.802-.032h.124c.299 0 .563.01.804.032a7.473 7.473 0 0 1 3.6 1.185 9.809 9.809 0 0 1 2.298 3.078c.797 1.625 1.516 3.101 2.236 4.612a341.71 341.71 0 0 1 3.903 8.438l.324.734zM138.322 62.196c-.496-1.092-1.414-3.109-1.841-4.067-.209-.468-.48-1.043-.559-1.152a1.073 1.073 0 0 0-.993-.46 1.062 1.062 0 0 0-.988.455 11.862 11.862 0 0 0-.561 1.155c-.43.96-1.348 2.977-1.844 4.069zm3.558 7.587l-.14-.294c-.4-.827-1.15-2.41-1.462-3.068H129.58c-.312.659-1.062 2.24-1.461 3.068l-.141.294H121.7l.327-.734a339.073 339.073 0 0 1 3.904-8.438c.719-1.511 1.438-2.987 2.228-4.597a9.891 9.891 0 0 1 2.273-3.07 7.51 7.51 0 0 1 3.632-1.208c.241-.022.505-.032.802-.032h.123c.3 0 .564.01.805.032a7.5 7.5 0 0 1 3.6 1.185 9.838 9.838 0 0 1 2.298 3.078 421.19 421.19 0 0 1 2.236 4.613 344.409 344.409 0 0 1 3.903 8.437l.324.734z"/></g><path d="M114.808 69.261h4.635V52.524h-4.635z" fill="url(#b)"/><path d="M100.875 52.517a11.396 11.396 0 0 0-4.517 1.086c-2.89 1.411-4.355 3.914-4.355 7.435 0 3.34 1.322 5.721 3.933 7.082a11.032 11.032 0 0 0 4.803 1.144l10.387-.002v-3.365h-9.554c-1.582 0-4.57-1.047-4.57-5.008a4.642 4.642 0 0 1 4.562-5.005h9.562v-3.367z" fill="url(#o)"/><g clip-path="url(#d)"><path d="M49 65.894h7.105a4.644 4.644 0 0 0 4.563-5.004c0-3.961-2.99-5.007-4.57-5.007H49zm-4.634 3.365V52.525l12.564-.007a10.98 10.98 0 0 1 4.804 1.141c2.61 1.358 3.933 3.743 3.933 7.08 0 3.523-1.463 6.026-4.356 7.437a11.387 11.387 0 0 1-4.516 1.086z" fill="#12406e"/></g><path d="M78.676 52.225c-.254 0-.506.01-.755.033a6.551 6.551 0 0 0-3.362 1.104 9.565 9.565 0 0 0-2.12 2.882 473.22 473.22 0 0 0-2.226 4.595 327.503 327.503 0 0 0-3.896 8.423h5.14c.511-1.06 1.6-3.365 1.6-3.365H84.42s1.089 2.306 1.602 3.365h5.138c-1.38-3.122-2.804-6.13-3.893-8.423a542.217 542.217 0 0 0-2.228-4.595 9.6 9.6 0 0 0-2.118-2.882 6.593 6.593 0 0 0-3.365-1.104 8.399 8.399 0 0 0-.754-.033h-.126zm-1.967 5.691a12.882 12.882 0 0 1 .624-1.262 1.57 1.57 0 0 1 1.406-.66 1.562 1.562 0 0 1 1.403.66 11.91 11.91 0 0 1 .626 1.262c.606 1.348 2.178 4.804 2.178 4.804h-8.412s1.572-3.456 2.175-4.804" fill="url(#p)"/><g clip-path="url(#d)"><path d="M130.723 62.72s1.572-3.456 2.178-4.804a12.871 12.871 0 0 1 .623-1.263 1.569 1.569 0 0 1 1.404-.658h.002a1.569 1.569 0 0 1 1.404.658 12.87 12.87 0 0 1 .623 1.263c.606 1.348 2.178 4.804 2.178 4.804zm12.733-1.882a422.817 422.817 0 0 0-2.228-4.594 9.546 9.546 0 0 0-2.118-2.883 6.568 6.568 0 0 0-3.365-1.104c-.249-.022-.5-.03-.754-.03h-.124c-.254 0-.505.008-.757.03a6.565 6.565 0 0 0-3.362 1.104 9.597 9.597 0 0 0-2.12 2.883 473.458 473.458 0 0 0-2.226 4.594 341.566 341.566 0 0 0-3.895 8.423h5.143c.51-1.059 1.597-3.365 1.597-3.365h11.365s1.086 2.306 1.6 3.365h5.14a341.689 341.689 0 0 0-3.896-8.423" fill="#12406e"/></g><path d="M114.81 62.657v6.604h4.633v-6.71q-2.237.057-4.632.106" fill="url(#c)"/><path d="M92.14 62.808a6.959 6.959 0 0 0 3.796 5.312 11.032 11.032 0 0 0 4.803 1.144l10.387-.002v-3.365h-9.554a4.512 4.512 0 0 1-4.286-3.084c-.427 0-.852 0-1.285-.002H96q-1.966.003-3.858-.003z" fill="url(#q)"/><path d="M44.367 69.261h12.426a11.395 11.395 0 0 0 4.52-1.086 7.32 7.32 0 0 0 4.24-5.84c-1.75-.065-3.41-.136-4.992-.209a4.614 4.614 0 0 1-4.457 3.768H49V61.41q-2.55-.208-4.632-.42v8.271z" fill="url(#r)"/><path d="M66.317 69.261h5.14c.511-1.058 1.6-3.365 1.6-3.365H84.42s1.089 2.307 1.602 3.365h5.138a300.96 300.96 0 0 0-2.968-6.468q-3.704-.027-7.1-.073h-6.558l.053-.118q-2.679-.06-5.149-.136a316.61 316.61 0 0 0-3.12 6.795" fill="url(#s)"/><path d="M138.68 61.722c.266.588.455.998.455.998h-8.412l.261-.574q-2.512.117-5.304.217a284.915 284.915 0 0 0-3.171 6.898h5.138a543.227 543.227 0 0 0 1.602-3.365h11.362s1.09 2.306 1.6 3.365h5.14a321.81 321.81 0 0 0-3.654-7.912c-1.531.129-3.199.252-5.017.372" fill="url(#t)"/></svg>