<svg xmlns="http://www.w3.org/2000/svg" viewBox="0 0 192 192"><path d="M35.477 141.503h14.324v2.42l-2.493.28c-.737.072-1.086.702-1.086 1.652v9.302c0 1.02.561 1.405 1.053 1.473l2.526.284v2.456H35.477v-2.456l2.495-.284c.946-.103 1.088-.877 1.088-1.682v-2.74H28.039v2.88c0 1.193.56 1.542 1.121 1.612l2.458.28v2.39H17.295v-2.39l2.389-.28c.913-.105 1.193-.7 1.193-1.72v-9.054c.035-.914-.211-1.617-1.157-1.724l-2.39-.278v-2.421h14.288v2.42l-2.422.28c-.735.072-1.157.562-1.157 1.616v2.806h11.02v-2.77c0-.88-.244-1.546-1.087-1.653l-2.495-.313zm40.894-15.224c.222.01.597-.404.677-.684.527-1.852.914-3.747 1.495-5.58 1.29-4.068 2.542-8.156 4.053-12.142 1.095-2.889 3.485-4.337 6.538-4.786a52.141 52.141 0 0 1 12.583-.18c4.043.384 6.83 2.277 8.23 6.13.31.855.72 1.679.97 2.55q1.957 6.815 3.834 13.652c.217.797.488 1.161 1.4 1.087 2.095-.172 4.203-.185 6.302-.329 1.696-.116 3.386-.33 5.3-.524 1.93-28.067 3.853-56.003 5.778-83.974a10.647 10.647 0 0 0-1.097-.22c-2.061-.165-4.123-.34-6.187-.462-1.508-.088-1.495-.05-1.845 1.469-2.533 10.99-5.038 21.985-7.628 32.962a58.853 58.853 0 0 1-3.975 12.383 12.618 12.618 0 0 1-9.569 7.281 47.723 47.723 0 0 1-12.895.247 13.203 13.203 0 0 1-11.767-8.817 41.596 41.596 0 0 1-1.929-5.663c-2.943-12.224-5.81-24.465-8.708-36.7-.248-1.047-.222-2.543-.893-3.005-.752-.518-2.154-.15-3.268-.073-1.731.119-3.457.316-5.237.484 1.777 28.152 3.487 56.129 5.875 84.261 4.06.226 8.01.457 11.963.633zm81.845-45.305a177.7 177.7 0 0 1-2.928 25.582 84.345 84.345 0 0 1-2.947 10.825c-2.3 6.697-7.188 10.77-13.84 12.887a67.9 67.9 0 0 1-15.818 2.717 397.301 397.301 0 0 1-47.531.385c-6.585-.314-13.167-.775-19.58-2.482a27.44 27.44 0 0 1-8.637-3.748 20.617 20.617 0 0 1-7.415-9.839 69.692 69.692 0 0 1-3.706-15.614 213.395 213.395 0 0 1-2.3-37.23 60.738 60.738 0 0 1 1.293-12.954c2.143-8.685 7.883-13.688 16.318-15.941a74.883 74.883 0 0 1 15.055-2.27c9.94-.573 19.891-.961 29.845-1.426 9.932.466 19.849.841 29.752 1.432a70.84 70.84 0 0 1 16.163 2.594c9.745 2.914 14.793 9.665 15.912 19.542a154.782 154.782 0 0 1 .364 25.54zm-7.101-26.353c-.905-5.548-3.345-10.161-8.415-13.04a28.195 28.195 0 0 0-9.55-3.095 211.563 211.563 0 0 0-29.655-2.25A296.335 296.335 0 0 0 68.5 37.297a106.317 106.317 0 0 0-13.693 2.113c-7.656 1.778-12.528 6.628-13.78 14.5a116.788 116.788 0 0 0-1.167 13.496 185.364 185.364 0 0 0 1.446 29.599 88.065 88.065 0 0 0 3.282 16.465c2.376 7.45 7.283 12.076 14.94 13.649a67.998 67.998 0 0 0 9.342 1.412c9.06.572 18.132.936 25.816 1.314 8.797-.326 16.2-.44 23.579-.93a114.214 114.214 0 0 0 14.366-1.869c7.259-1.423 12.148-5.804 14.47-12.893a55.07 55.07 0 0 0 1.696-5.956 177.759 177.759 0 0 0 3.37-34.59 112.088 112.088 0 0 0-1.051-18.987zm24.05 102.293v2.456h-15.481v-2.424l1.968-.246c.948-.105 1.718-.523.948-1.684l-.739-1.123h-10.987l-.842 1.369c-.527.842 0 1.333.807 1.438l1.965.246v2.424h-11.441v-2.398l2.421-.275a1.81 1.81 0 0 0 1.299-1.049l6.038-9.829a.933.933 0 0 0-.62-1.523l-3.173-.372v-2.421h13.763a1.96 1.96 0 0 1 1.581.98l8.037 12.288c.632.982 1.121 1.756 1.927 1.86zm-15.377-6.181l-3.507-5.51-3.44 5.51zm-80.074-.386c0 5.757-4.53 9.653-14.571 9.653-10.11 0-14.636-3.896-14.636-9.653 0-5.618 4.527-9.547 14.636-9.547 10.041 0 14.571 3.93 14.571 9.547zm-8.216.035c0-4.633-2.316-6.14-6.388-6.14-4.073 0-6.39 1.507-6.39 6.14 0 4.706 2.317 6.213 6.39 6.213 4.072 0 6.388-1.507 6.388-6.213zm71.267-.21c0 5.232-3.51 9.198-11.653 9.198l-17.715-.007v-2.352l2.373-.311a1.252 1.252 0 0 0 1.019-1.401v-9.623a1.344 1.344 0 0 0-1.165-1.525l-2.217-.227.002-2.421h17.703c8.143 0 11.653 3.965 11.653 8.67zm-8.212.248c0-4.494-1.827-5.515-6.181-5.515h-4.562v11.023h4.562c4.354 0 6.181-.98 6.181-5.508zm-34.07-6.531l2.493.313c.88.109 1.087.845 1.087 1.688v8.847l-9.441-12.463a1.78 1.78 0 0 0-1.476-.771H80.513v2.42l2.384.28c.843.127 1.157.555 1.157 1.723v9.054c0 1.072-.292 1.59-1.192 1.72l-2.35.28v2.39h11.442v-2.39l-2.458-.28a1.319 1.319 0 0 1-1.125-1.474v-9.09l9.517 12.532a1.905 1.905 0 0 0 1.473.702h8.985V145.82c0-.635.168-1.505 1.087-1.617l2.495-.278v-2.421h-11.446z" fill="#19171c"/></svg>