<svg xmlns="http://www.w3.org/2000/svg" viewBox="0 0 192 192"><path d="M38.252 60.829v37.937c0 4.804-3.097 7.672-8.287 7.672-5.377 0-7.826-4.057-7.826-7.827v-6.915H8v7.07c0 12.962 7.649 19.814 22.119 19.814 8.673 0 15.013-2.566 18.842-7.626a21.045 21.045 0 0 0 3.891-12.497V60.829zm36.555 15.823c11.211 0 21.039 4.3 21.039 24.11H69.278c0 6.295 2.611 8.906 7.218 8.906a6.594 6.594 0 0 0 6.142-3.685h13.054c0 5.682-7.832 13.36-19.657 13.207-13.514 0-20.117-9.982-20.117-20.271S61.754 76.65 74.807 76.65zm7.985 16.124c0-3.839-2.147-7.525-7.064-7.525-4.76 0-6.45 3.378-6.45 7.525zM117.5 76.652c11.21 0 21.038 4.3 21.038 24.11H111.97c0 6.295 2.61 8.906 7.217 8.906a6.595 6.595 0 0 0 6.143-3.685h13.053c0 5.682-7.832 13.36-19.657 13.207-13.513 0-20.116-9.982-20.116-20.271s5.835-22.268 18.889-22.268zm7.985 16.124c0-3.839-2.148-7.525-7.064-7.525-4.761 0-6.45 3.378-6.45 7.525h13.514zm16.413 38.392v-52.98h13.207v6.037a11.365 11.365 0 0 1 1.843-2.967c.893-1.075 3.378-4.146 9.982-4.146 6.603 0 16.892 4.607 16.892 20.886 0 12.591-6.142 21.805-16.739 21.805-5.836 0-8.45-2.031-9.981-3.224a8.103 8.103 0 0 1-1.843-1.845v16.433h-13.36zm13.053-32.71c-.153 7.832 1.536 11.978 7.986 11.978 6.45 0 7.371-7.064 7.371-12.438 0-5.376-1.228-10.597-7.985-10.597-4.147 0-7.218 3.225-7.372 11.056z" fill="#1d1d1b"/></svg>