<svg xmlns="http://www.w3.org/2000/svg" xmlns:xlink="http://www.w3.org/1999/xlink" viewBox="0 0 192 192"><defs><linearGradient id="b" data-name="Sfumatura senza nome 201" x1="527.302" y1="884.779" x2="527.302" y2="764.634" gradientTransform="matrix(1 0 0 -1 -431.2 909.323)" gradientUnits="userSpaceOnUse"><stop offset=".194" stop-color="#fff"/><stop offset=".208" stop-color="#f8f7f7"/><stop offset=".366" stop-color="#ababac"/><stop offset=".513" stop-color="#707070"/><stop offset=".647" stop-color="#424242"/><stop offset=".764" stop-color="#232323"/><stop offset=".86" stop-color="#111"/><stop offset=".922" stop-color="#070909"/></linearGradient><radialGradient id="c" data-name="Sfumatura senza nome 200" cx="478.913" cy="916.625" r="120.197" gradientTransform="matrix(1 0 0 -1 -431.2 909.323)" gradientUnits="userSpaceOnUse"><stop offset=".202" stop-color="#fff"/><stop offset=".382" stop-color="#fdfdfd"/><stop offset=".487" stop-color="#f3f3f3"/><stop offset=".573" stop-color="#e4e4e4"/><stop offset=".648" stop-color="#d0d0d0"/><stop offset=".689" stop-color="#c3c3c2"/><stop offset="1" stop-color="#373737"/></radialGradient><radialGradient id="a" data-name="Sfumatura senza nome 199" cx="769.799" cy="724.102" r="250.322" gradientTransform="matrix(1 0 0 -1 -431.2 909.323)" gradientUnits="userSpaceOnUse"><stop offset=".202" stop-color="#fff"/><stop offset=".368" stop-color="#e2e2e1"/><stop offset=".594" stop-color="#c3c3c2"/><stop offset="1" stop-color="#373737"/></radialGradient><radialGradient id="d" cx="507.787" cy="779.345" r="76.853" xlink:href="#a"/><radialGradient id="e" cx="569.802" cy="700.763" r="145.819" xlink:href="#a"/><radialGradient id="f" data-name="Sfumatura senza nome 198" cx="526.148" cy="871.75" r="115.878" gradientTransform="matrix(1 0 0 -1 -431.2 909.323)" gradientUnits="userSpaceOnUse"><stop offset=".202" stop-color="#fff"/><stop offset=".397" stop-color="#fdfdfd"/><stop offset=".51" stop-color="#f3f3f3"/><stop offset=".603" stop-color="#e4e4e4"/><stop offset=".684" stop-color="#d0d0d0"/><stop offset=".728" stop-color="#c3c3c2"/><stop offset="1" stop-color="#4f4f4f"/></radialGradient><radialGradient id="g" data-name="Sfumatura senza nome 197" cx="528.836" cy="860.145" r="78.05" gradientTransform="matrix(1 0 0 -1 -431.2 909.323)" gradientUnits="userSpaceOnUse"><stop offset=".111" stop-color="#4f4f4f"/><stop offset=".248" stop-color="#4b4b4b"/><stop offset=".355" stop-color="#424242"/><stop offset=".451" stop-color="#333"/><stop offset=".541" stop-color="#1e1e1f"/><stop offset=".611" stop-color="#070909"/></radialGradient></defs><path d="M176.36 78.299a51.716 51.716 0 0 0-7.103-1.118c-15.462-.634-53.68-2.12-73.153-2.12s-57.686 1.486-73.148 2.122a51.756 51.756 0 0 0-7.108 1.117c-4.86 1.145-5.93 2.89-5.93 6.372v23.862c0 3.486 3.73 5.832 6.303 6.304a68.003 68.003 0 0 0 6.907.923c13.83.858 45.917 2.645 72.974 2.672 27.057-.024 59.143-1.814 72.973-2.672a68.119 68.119 0 0 0 6.911-.923c2.571-.474 6.301-2.818 6.301-6.304V84.672c.003-3.482-1.066-5.227-5.927-6.372z" fill="url(#b)"/><path d="M34.094 79.238C41.702 52.769 66.7 33.35 96.379 33.35c29.59 0 54.539 19.312 62.221 45.673.024.093.043.142.07.23a80.043 80.043 0 0 0 11.154-2.004c-.05-.17-.065-.206-.107-.371-8.733-31.404-38.26-54.512-73.34-54.512-35.199 0-64.802 23.258-73.426 54.815a70.746 70.746 0 0 0 11.142 2.056z" fill="url(#c)"/><path d="M158.42 113.927a31.86 31.86 0 0 0-.201.623c-8.09 25.727-32.717 44.442-61.84 44.442-29.355 0-54.133-19.005-62.028-45.04-4.822.854-6.453 1.178-11.219 1.812 8.833 31.252 38.278 54.208 73.248 54.208 34.989 0 64.444-22.983 73.258-54.256-4.2-.519-6.674-.911-11.216-1.788z" fill="url(#a)"/><path d="M35.646 79.18c1.832-.757 3.607-1.965 6.367-2.74 8.235-21.396 29.466-36.633 54.366-36.633 24.821 0 45.999 15.144 54.286 36.436.03.072.06.161.083.215 1.424.494 5.623 2.198 6.93 2.769.185 0 .58.017.989.027-.024-.083-.049-.152-.07-.231-7.683-26.352-32.63-45.66-62.218-45.66-29.67 0-54.67 19.409-62.282 45.875.441 0 1.278-.04 1.55-.059z" fill="url(#d)"/><path d="M95.905 35.153c27.763 0 52.376 16.555 61.697 43.84.022.061.045.143.076.231.144 0 .673.019.988.028-.025-.097-.049-.158-.067-.23-7.689-26.352-32.636-45.66-62.224-45.66-29.668 0-54.67 19.412-62.279 45.876.593-.012.878-.012 1.549-.056a63.597 63.597 0 0 1 60.26-44.03z" fill="#fff"/><path d="M156.845 114.002a37.287 37.287 0 0 1-6.462 2.813c-.024.063-.14.346-.164.413-8.584 20.703-29.456 35.318-53.84 35.318-24.535 0-45.518-14.794-54.002-35.702a48.395 48.395 0 0 1-6.99-2.84c-.482-.024-.743-.036-1.04-.053 7.894 26.036 32.677 45.04 62.032 45.04 29.223 0 53.91-18.831 61.92-44.68.014-.051.104-.334.121-.383-.459.018-1.166.075-1.575.075z" fill="url(#e)"/><path d="M174.979 80.027c-4.096-.5-6.89-.446-16.865-.79-.453-.016-.916-.028-1.384-.045-18.09-.622-45.264-1.45-60.625-1.45-15.36 0-42.535.827-60.629 1.448-.466.017-.927.03-1.38.045-9.978.344-12.769.29-16.866.79-4.095.501-7.312 2.295-7.312 5.344v22.13c0 3.054 3.875 5.524 7.312 5.524 0 0 43.738 2.7 78.876 2.733 35.139-.033 78.873-2.733 78.873-2.733 3.437 0 7.312-2.47 7.312-5.524V85.371c0-3.048-3.216-4.842-7.312-5.344z" fill="url(#f)"/><path d="M156.845 114.002a63.6 63.6 0 0 1-59.99 43.199c-27.546 0-51.984-16.296-61.47-43.199-.347-.018-.692-.032-1.035-.051 7.895 26.035 32.683 45.04 62.038 45.04 29.366 0 54.154-19.017 62.04-45.067l-1.582.078z" fill="#fff"/><path d="M156.897 114l-.054.002a37.256 37.256 0 0 1-6.458 2.813c-.025.063-.141.346-.164.413a56.235 56.235 0 0 1-11.567 17.556A62.057 62.057 0 0 0 156.897 114z" fill="#8a8a8a"/><path d="M55.76 136.43a56.384 56.384 0 0 1-13.385-19.587 48.159 48.159 0 0 1-6.989-2.842 54.462 54.462 0 0 0 4.868 8.183 63.932 63.932 0 0 0 13.65 13.093q.916.601 1.856 1.154z" fill="#4f4f4f"/><path d="M34.349 113.953h-.018c-4.81.854-6.444 1.182-11.203 1.81q.573 2.044 1.272 4.033l9.948-5.843z" fill="#2a2a2a"/><path d="M131.128 89.827c-1.439-3.214-.928-2.877-4.056-2.96a9.331 9.331 0 0 0-1.864-.084 12.438 12.438 0 0 0-1.858.085c-2.958 0-2.453-.17-3.466 1.943 0 0-5.074 11.413-7.271 16.148l-.085.17c-.423.843-.168.843.508.843h4.567a.602.602 0 0 0 .591-.335s.677-1.44 1.523-3.465h11.16c.846 1.946 1.438 3.38 1.438 3.466a.564.564 0 0 0 .59.337h4.737c.676 0 .844.09.59-.506-.846-2.028-6.342-13.865-7.102-15.639zm-9.725 8.283c1.438-3.38 2.879-6.675 2.879-6.76a.506.506 0 0 1 .505-.255c.085-.085.34-.085.59-.085.17 0 .423 0 .508.085a.428.428 0 0 1 .421.337c.34.93 1.608 3.806 2.791 6.68h-7.694zM60.53 86.613c.421 0 .506.17.506.506v18.094c0 .422-.085.592-.59.592h-4.397c-.506 0-.592-.085-.592-.592V87.12c0-.34.085-.507.423-.507h4.65zm-9.387.17c.505 0 .593.167.593.59v18.009c0 .51-.088.593-.593.593h-5.158c-3.043 0-3.297 0-4.31-1.689-2.113-3.298-8.457-13.02-8.457-13.02v14.118c0 .51-.085.59-.591.59h-3.808c-.505 0-.59-.08-.59-.59V87.372c0-.423.086-.592.59-.592h4.397c3.299 0 3.721-.085 4.907 1.607.929 1.523 8.623 13.358 8.623 13.358v-14.37c0-.422.085-.591.592-.591h3.804zm112.873 0c.51 0 .593.167.593.59v18.009c0 .51-.085.593-.593.593h-5.152c-3.047 0-3.3 0-4.316-1.689-2.113-3.3-8.456-13.02-8.456-13.02v14.118c0 .508-.085.59-.591.59h-3.802c-.508 0-.595-.082-.595-.59V87.372c0-.423.087-.592.595-.592h4.393c3.3 0 3.722-.085 4.905 1.607 1.015 1.523 8.623 13.358 8.623 13.358v-14.37c0-.422.085-.591.593-.591h3.802zM79.89 94.14c3.383.335 5.837.928 6.51 4.141 0 .252.086 1.098.086 2.029a8.511 8.511 0 0 1-.17 2.028c-.59 3.043-2.875 3.634-6.426 3.634H65.686c-.507 0-.59-.081-.59-.591v-3.042c0-.507.084-.592.59-.592H80.06c.592 0 .762-.17.845-.592v-1.268c-.085-.337-.17-.845-.93-.928-1.608-.085-6.34-.51-9.555-.845-4.142-.425-5.157-2.199-5.326-3.72a11.858 11.858 0 0 1-.085-1.777 14.276 14.276 0 0 1 .085-1.861c.592-2.706 2.624-3.972 6.17-3.972h13.782c.51 0 .68.085.68.507v3.127c0 .42-.17.59-.68.505H71.52c-.59 0-.843.255-.93.847v.76c0 .425.255.763.847.844 1.609.173 6.595.596 8.453.766zm24.434 0c3.386.335 5.837.928 6.51 4.141 0 .252.086 1.098.086 2.029a8.511 8.511 0 0 1-.17 2.028c-.59 3.043-2.87 3.634-6.426 3.634h-14.2c-.51 0-.596-.081-.596-.591v-3.042c0-.507.085-.592.595-.592h14.373c.59 0 .759-.17.844-.592v-1.268a1.064 1.064 0 0 0-.93-.928c-1.607-.085-6.34-.51-9.553-.845-4.145-.425-5.075-2.199-5.329-3.72a11.858 11.858 0 0 1-.085-1.777 14.276 14.276 0 0 1 .085-1.861c.593-2.706 2.621-3.972 6.17-3.972h13.786c.505 0 .677.085.677.507v3.127c0 .42-.17.59-.677.505h-13.53c-.59 0-.842.255-.93.847v.76c0 .425.17.763.848.844 1.606.173 6.593.596 8.454.766z" fill="url(#g)"/></svg>