<svg xmlns="http://www.w3.org/2000/svg" viewBox="0 0 192 192"><path d="M184.643 102.915l-16.914-1.067q.234-2.924.234-5.848A72 72 0 0 0 25.659 80.401H12.371a2.705 2.705 0 0 0-2.135.98l-3.962 5.526a1.36 1.36 0 0 0 1.067 2.178l16.856 1.067A70.555 70.555 0 0 0 23.964 96a72 72 0 0 0 142.303 15.599h13.347a2.69 2.69 0 0 0 2.135-1.053l3.962-5.453a1.345 1.345 0 0 0-1.068-2.178M95.993 34.16A62.293 62.293 0 0 1 157.787 96c0 1.74-.073 3.48-.22 5.19l-51.693-3.29 22.44-15.364a1.17 1.17 0 0 0-.672-2.135H36.171a62.41 62.41 0 0 1 59.821-46.24m0 123.664A62.293 62.293 0 0 1 34.124 96c0-1.754.073-3.494.234-5.22l51.737 3.232-22.382 15.452a1.17 1.17 0 0 0 .673 2.135h91.37a62.41 62.41 0 0 1-59.763 46.24" fill="#19171c"/></svg>