<svg xmlns="http://www.w3.org/2000/svg" viewBox="0 0 192 192"><path d="M78.536 20.27c19.335-.68 38.69-.004 57.993 1.235a49.367 49.367 0 0 1 6.091.59 4.5 4.5 0 0 1 2.885 1.658 9.75 9.75 0 0 1 .74 3.499c.459 5.792.594 11.608 1.027 17.4a16.41 16.41 0 0 1-2.508-.053c-14.888-.771-29.787-1.411-44.699-1.43-7.722.021-15.455-.054-23.17.32-1.87.276-3.987.902-5.067 2.57 5.838 1.036 11.664 2.155 17.5 3.21 19.34 3.62 38.695 7.16 58.036 10.775-.017 3.668-.01 7.336-.003 11.004-10.876-1.8-21.733-3.743-32.602-5.6C91.376 61.416 68 57.33 44.61 53.337c.047-4.07.22-8.14.305-12.214.147-3.226.056-6.495.785-9.663a11.644 11.644 0 0 1 3.093-6.08c2.924-2.895 7.153-3.709 11.09-4.117 6.202-.575 12.431-.764 18.654-.993zM44.498 58.696q50.251 9.271 100.485 18.683a18.33 18.33 0 0 1 2.219.462l.084.193c-.183 5.495-.29 10.995-.488 16.49-.128 3.39-.486 6.937-2.23 9.924-1.87 3.088-5.355 4.796-8.803 5.441-5.082.955-10.272 1.017-15.419 1.3a582.867 582.867 0 0 1-66.448-1.073 25.508 25.508 0 0 1-5.28-.645 4.01 4.01 0 0 1-2.31-1.554 10.166 10.166 0 0 1-.705-3.482c-.474-6.41-.725-12.833-1.061-19.25 11.405.724 22.83 1.13 34.257 1.384 11.033.179 22.066.176 33.1.285a9.263 9.263 0 0 0 6.758-2.027c.263-.302.691-.583.648-1.035-4.973-.746-9.917-1.674-14.88-2.491Q74.47 76.18 44.51 71.071c-.025-4.126.004-8.25-.012-12.375zM147.612 135.802c12.14-.062 24.283.003 36.425-.031.094 1.58.05 3.17.022 4.753q-7.514-.007-15.025-.002.029 9.739-.003 19.478h-6.365c-.132-5.881-.019-11.768-.06-17.652-.07-.623.22-1.343-.15-1.894a31.26 31.26 0 0 1-3.192.068c-3.883-.01-7.766.019-11.65-.012a191.048 191.048 0 0 1-.002-4.708z" fill="#19191b"/><path d="M10.713 136.62a11.746 11.746 0 0 1 5.485-.842c9.663.015 19.328-.029 28.992.02.002 1.539.012 3.078-.008 4.617-9.822.087-19.652-.01-29.475.046-.795-.038-1.81.288-1.981 1.17a2.122 2.122 0 0 0 .476 2.017 3.546 3.546 0 0 0 1.998.549q11.998 1 23.997 1.984c1.858.224 3.895.565 5.273 1.95 1.331 1.317 1.592 3.308 1.541 5.093a6.968 6.968 0 0 1-1.812 5.094 6.575 6.575 0 0 1-4.603 1.51c-10.54-.026-21.085.032-31.626-.033a44.669 44.669 0 0 1 .027-4.587c9.895.058 19.792.01 29.688.024a2.63 2.63 0 0 0 1.933-.536 2.126 2.126 0 0 0-1.914-3.569c-7.012-.6-14.027-1.174-21.042-1.764a25.24 25.24 0 0 1-6.493-.979 4.86 4.86 0 0 1-2.878-2.762c-.59-1.336-.285-2.817-.377-4.223a5.014 5.014 0 0 1 2.799-4.78zM55.259 135.786q18.54-.03 37.079-.008c.111.012.33.041.442.056-.002 1.534-.034 3.073.01 4.61a3.974 3.974 0 0 1-1.184.08c-9.968-.012-19.933.012-29.898-.012-.044 1.568-.012 3.139-.015 4.71 7.315.043 14.632.004 21.946.019 2.631.043 5.275-.092 7.897.07-.022 1.5-.027 3.003.002 4.506a11.103 11.103 0 0 1-1.858.078q-13.998-.004-27.996-.003c.043 1.322-.116 2.76.565 3.956.706 1.196 2.245 1.353 3.5 1.38q13.504.01 27.012-.005c.029 1.512.002 3.028.01 4.54-3.68.136-7.38.022-11.068.065-6.357-.012-12.712.005-19.067.003a7.986 7.986 0 0 1-5.928-2.88 9.01 9.01 0 0 1-1.474-5.64c.022-5.176-.026-10.352.025-15.526z" fill="#19181b"/><path d="M111.64 135.8c-5.396.214-8.668 2.635-9.019 8.092l.066 16.108h6.382l.101-7.121 24.205.08.01 7.041h6.386l.008-24.212zm21.718 12.314c-8.095.014-16.194.036-24.29-.012.093-1.93-.25-3.995.605-5.802a3.718 3.718 0 0 1 3.438-1.771c6.74-.024 13.481.024 20.223-.027.063 2.535.007 5.075.024 7.612z" fill="#19191b" fill-rule="evenodd"/></svg>