<svg xmlns="http://www.w3.org/2000/svg" viewBox="0 0 192 192"><path d="M134.52 91.42s-7.211 2.09-21.185 10.688c-12.556 7.724-17.475 12.912-17.475 12.912L57.193 88.272s16.273-11.98 29.867-2.803l18.236 12.522 2.22-1.468L57.195 61.24s7.236-2.093 21.214-10.691c12.553-7.728 17.45-12.918 17.45-12.918l38.685 26.753s-16.267 11.978-29.864 2.804L86.445 54.667l-2.22 1.461 50.296 35.292" fill="#e31f32"/><path d="M104.584 127.913H75.145v6.55h14.212l-14.71 13.756v5.489h29.888v-6.577H89.66l14.921-13.724v-5.495m-46.768 26.455c11.773 0 14.801-3.01 14.801-9.644v-16.808h-9.34v15.805c0 2.655-2.27 4.236-5.459 4.236-3.313 0-5.443-1.588-5.443-4.277v-15.764h-9.338v16.81c-.002 6.632 3.025 9.644 14.78 9.644m63.847-.002c11.774 0 14.801-3.01 14.801-9.644v-16.808h-9.34v15.805c0 2.655-2.27 4.236-5.459 4.236-3.315 0-5.443-1.588-5.443-4.277v-15.764h-9.338v16.81c-.002 6.632 3.023 9.644 14.78 9.644M183 127.913h-9.717v25.796H183v-25.794m-11.183-.002H159l-10.332 8.9v-8.898h-9.747v25.795h9.747v-9.149l9.6 9.15h13.073l-14.235-13.235 14.71-12.56m-151.77 7.127c0-1.993 2.957-2.06 3.949-2.06a5.617 5.617 0 0 1 4.776 2.909h10.995c0-4.857-4.586-8.723-15.725-8.723-12.39 0-14.493 5.437-14.493 8.554 0 5.757 4.468 7.442 14.14 8.475.83.089 5.863-.15 5.863 2.275 0 1.8-2.835 1.916-3.853 1.916-1.041 0-2.976-.166-4.59-3.017H9c0 5.658 3.809 8.935 16.674 8.935 11.823 0 14.968-4.835 14.968-8.517 0-3.568-2.436-7.199-12.534-8.492-4.207-.55-8.064-.78-8.064-2.256" fill="#045e9d"/></svg>