<svg xmlns="http://www.w3.org/2000/svg" viewBox="0 0 192 192"><defs><radialGradient id="a" data-name="Sfumatura senza nome 105" cx="72.555" cy="109.519" r="76.88" gradientTransform="translate(0 -62)" gradientUnits="userSpaceOnUse"><stop offset="0" stop-color="#3d6eae"/><stop offset=".236" stop-color="#3c6cab"/><stop offset=".388" stop-color="#3864a3"/><stop offset=".515" stop-color="#315894"/><stop offset=".629" stop-color="#28467f"/><stop offset=".734" stop-color="#1c2f64"/><stop offset=".788" stop-color="#142053"/></radialGradient><radialGradient id="b" data-name="Sfumatura senza nome 104" cx="77.498" cy="115.232" r="56.374" gradientTransform="translate(0 -62)" gradientUnits="userSpaceOnUse"><stop offset="0" stop-color="#6994cb"/><stop offset=".147" stop-color="#6690c7"/><stop offset=".307" stop-color="#5d83b9"/><stop offset=".473" stop-color="#4d6ea4"/><stop offset=".644" stop-color="#375085"/><stop offset=".817" stop-color="#1c2b5e"/><stop offset=".861" stop-color="#142053"/></radialGradient><linearGradient id="c" data-name="Sfumatura senza nome 103" x1="96.244" y1="87.633" x2="96.163" y2="183.361" gradientTransform="translate(0 -62)" gradientUnits="userSpaceOnUse"><stop offset="0" stop-color="#f7f8f8"/><stop offset=".19" stop-color="#f4f5f5"/><stop offset=".311" stop-color="#eceded"/><stop offset=".414" stop-color="#dededf"/><stop offset=".505" stop-color="#cac9cb"/><stop offset=".589" stop-color="#b0aeb1"/><stop offset=".633" stop-color="#9f9da0"/><stop offset=".712" stop-color="#b5b3b6"/><stop offset=".812" stop-color="#cbc8cb"/><stop offset=".909" stop-color="#d8d5d8"/><stop offset="1" stop-color="#dcd9dc"/></linearGradient><clipPath id="d"><path d="M75.51 39.832l1.161-3.384v-.097a41.746 41.746 0 0 0-14.988 13.441l2.998.097a31.708 31.708 0 0 1 10.83-10.057z" fill="none"/></clipPath><linearGradient id="e" data-name="Sfumatura senza nome 102" x1="85.333" y1="146.586" x2="87.285" y2="147.383" gradientTransform="translate(0 -62)" gradientUnits="userSpaceOnUse"><stop offset=".76" stop-color="#fff"/><stop offset=".845" stop-color="#fdfdfd"/><stop offset=".885" stop-color="#f5f5f5"/><stop offset=".915" stop-color="#e9e9e9"/><stop offset=".941" stop-color="#d7d7d6"/><stop offset=".963" stop-color="#bfbfbe"/><stop offset=".983" stop-color="#a2a2a2"/><stop offset="1" stop-color="#848483"/></linearGradient><clipPath id="f"><path d="M82.763 89.824L64.584 49.792h-2.707c-.097.097-.194-.097-.194 0l21.08 47.188z" fill="none"/></clipPath><linearGradient id="g" data-name="Sfumatura senza nome 101" x1="54.238" y1="148.972" x2="137.96" y2="148.972" gradientTransform="translate(0 -62)" gradientUnits="userSpaceOnUse"><stop offset="0" stop-color="#7e7773"/><stop offset=".015" stop-color="#8d8783"/><stop offset=".049" stop-color="#aba7a4"/><stop offset=".088" stop-color="#c6c2c1"/><stop offset=".131" stop-color="#dbd9d8"/><stop offset=".18" stop-color="#ebeae9"/><stop offset=".24" stop-color="#f7f6f6"/><stop offset=".32" stop-color="#fdfdfd"/><stop offset=".511" stop-color="#fff"/><stop offset=".716" stop-color="#fdfdfd"/><stop offset=".79" stop-color="#f7f7f6"/><stop offset=".843" stop-color="#ecebeb"/><stop offset=".886" stop-color="#dddbda"/><stop offset=".923" stop-color="#c8c5c4"/><stop offset=".955" stop-color="#afaba8"/><stop offset=".984" stop-color="#928c89"/><stop offset="1" stop-color="#7e7773"/></linearGradient><clipPath id="h"><path d="M96.204 112.45a39.398 39.398 0 0 0 10.733-1.45l1.16 2.611a40.216 40.216 0 0 1-11.893 1.74 42.877 42.877 0 0 1-12.28-1.837l1.16-2.61a42.295 42.295 0 0 0 11.12 1.547zm-15.858-.386l-1.74-3.868A39.053 39.053 0 0 1 57.138 73.29a40.465 40.465 0 0 1 1.353-10.346l-1.74-3.868a40.7 40.7 0 0 0-2.514 14.214 41.953 41.953 0 0 0 26.108 38.775zm57.727-38.678a41.843 41.843 0 0 0-2.708-14.795l-1.643 3.772v.193a40.146 40.146 0 0 1 1.547 10.83 39.064 39.064 0 0 1-21.757 35.004l-1.644 3.77a41.749 41.749 0 0 0 26.205-38.774z" fill="none"/></clipPath><linearGradient id="i" data-name="Sfumatura senza nome 100" x1="54.335" y1="148.923" x2="138.073" y2="148.923" gradientTransform="translate(0 -62)" gradientUnits="userSpaceOnUse"><stop offset="0" stop-color="#191411"/><stop offset=".052" stop-color="#332e2b"/><stop offset=".154" stop-color="#615b59"/><stop offset=".252" stop-color="#857f7e"/><stop offset=".343" stop-color="#9f9898"/><stop offset=".425" stop-color="#afa8a7"/><stop offset=".489" stop-color="#b4adad"/><stop offset=".558" stop-color="#aca5a5"/><stop offset=".665" stop-color="#979090"/><stop offset=".795" stop-color="#736d6d"/><stop offset=".943" stop-color="#433c3c"/><stop offset="1" stop-color="#2e2828"/></linearGradient><clipPath id="j"><path d="M127.63 49.502l3.19.193a41.716 41.716 0 0 0-15.18-13.537l.193.677 1.064 2.707a45.697 45.697 0 0 1 10.733 9.96z" fill="none"/></clipPath><clipPath id="k"><path d="M84.407 33.16l.967 2.128a39.413 39.413 0 0 1 21.176-.194l.967-2.224a43.76 43.76 0 0 0-11.313-1.547 51.006 51.006 0 0 0-11.797 1.837z" fill="none"/></clipPath><clipPath id="l"><path fill="none" d="M99.105 74.159h3.384l6.865 15.375 18.276-40.032 3.191.29-21.177 47.284-10.539-22.917z"/></clipPath><linearGradient id="m" data-name="Sfumatura senza nome 99" x1="104.281" y1="147.16" x2="107.916" y2="145.534" gradientTransform="translate(0 -62)" gradientUnits="userSpaceOnUse"><stop offset="0" stop-color="#8a8180"/><stop offset=".068" stop-color="#948b8a"/><stop offset=".509" stop-color="#cdc9c9"/><stop offset=".832" stop-color="#f1f0f0"/><stop offset="1" stop-color="#fff"/></linearGradient><linearGradient id="n" data-name="Sfumatura senza nome 98" x1="97.595" y1="135.918" x2="130.409" y2="135.918" gradientTransform="translate(0 -62)" gradientUnits="userSpaceOnUse"><stop offset="0" stop-color="#352927"/><stop offset=".281" stop-color="#544b48"/><stop offset=".549" stop-color="#6b6360"/><stop offset=".796" stop-color="#79726e"/><stop offset="1" stop-color="#7e7773"/></linearGradient><linearGradient id="o" data-name="Sfumatura senza nome 97" x1="52.633" y1="98.794" x2="142.879" y2="174.401" gradientTransform="translate(0 -62)" gradientUnits="userSpaceOnUse"><stop offset="0" stop-color="#eeeeed"/><stop offset=".039" stop-color="#e4e4e3"/><stop offset=".149" stop-color="#ccc"/><stop offset=".275" stop-color="#bab9b9"/><stop offset=".423" stop-color="#adacad"/><stop offset=".614" stop-color="#a5a4a5"/><stop offset="1" stop-color="#a3a2a3"/></linearGradient></defs><path d="M35.037 152.218l-6.975 19.478h-4.916l-6.976-19.478v-.292h4.388l5.029 15.525h.09l4.969-15.525h4.391v.292zM41.636 172.131c-4.796 0-7.384-3.371-7.384-7.44 0-4.073 2.588-7.444 7.384-7.444 4.883 0 7.414 3.371 7.414 7.444 0 4.069-2.531 7.44-7.414 7.44m0-3.225c2.063 0 3.401-1.395 3.401-4.215s-1.338-4.216-3.401-4.216c-2.006 0-3.371 1.395-3.371 4.216s1.365 4.215 3.371 4.215M55.794 151.346v17.21c0 .438.03.524.465.524h1.54v2.674a13.348 13.348 0 0 1-2.324.203c-2.678 0-3.608-1.306-3.608-4.1v-16.511zM64.282 165.213v6.484h-3.926v-20.351h3.926v12.645h.06l4.913-6.308h4.272v.293l-5.318 6.51 5.58 6.919v.292h-4.448l-4.999-6.484h-.06zM76.26 167.975a10.207 10.207 0 0 0 4.507 1.192c1.541 0 2.21-.464 2.21-1.368 0-.84-.669-1.163-1.92-1.481l-1.831-.436c-1.95-.465-3.81-1.57-3.81-4.129 0-2.76 2.182-4.507 5.816-4.507a12.68 12.68 0 0 1 5.232 1.02l-1.076 2.79a11.938 11.938 0 0 0-4.04-.844c-1.484 0-2.122.435-2.122 1.28 0 .813.638 1.105 1.8 1.424l1.774.435c2.239.555 3.983 1.717 3.983 4.189 0 2.906-2.325 4.594-5.9 4.594a11.977 11.977 0 0 1-5.786-1.339zM111.669 157.974l-4.186 13.722h-4.275l-3.198-10.087h-.057l-3.199 10.087h-4.271l-4.189-13.722v-.292h3.926l2.588 9.713h.056l2.996-9.713h4.246l2.992 9.713h.057l2.587-9.713h3.927v.292zM125.624 168.642c0 .439.026.525.465.525h1.016v2.674a10.014 10.014 0 0 1-2.036.203 2.693 2.693 0 0 1-2.79-1.654h-.057a7.833 7.833 0 0 1-4.507 1.744c-3.14 0-4.74-1.86-4.74-4.422 0-3.109 1.98-4.59 6.919-4.59h1.89v-.641c0-1.744-1.542-2.007-2.382-2.007a12.107 12.107 0 0 0-4.654 1.017l-.93-2.993a14.688 14.688 0 0 1 5.787-1.249c4.039 0 6.018 2.063 6.018 5.667zm-5.322-2.993c-2.587 0-3.577.668-3.577 1.715 0 1.162.67 1.687 1.863 1.687a6.15 6.15 0 0 0 3.196-.96v-2.442zM142.864 170.797c0 4.707-2.647 7.092-7.24 7.092a11.555 11.555 0 0 1-5.495-1.366l1.133-2.88a9.283 9.283 0 0 0 4.361 1.017c2.299 0 3.315-.814 3.315-3.139v-1.046h-.06a6.264 6.264 0 0 1-3.982 1.395c-4.04 0-6.106-3.196-6.106-7.268 0-4.07 2.067-7.354 6.106-7.354a6.923 6.923 0 0 1 4.331 1.714h.06l.525-1.28h3.052zm-3.926-9.45a5.759 5.759 0 0 0-2.82-.874c-2.325 0-3.315 1.631-3.315 4.129 0 2.501.99 4.042 3.315 4.042a6.018 6.018 0 0 0 2.82-.783zM149.695 165.823a3.213 3.213 0 0 0 3.517 3.17 13.126 13.126 0 0 0 4.478-.871l.9 2.817a13.529 13.529 0 0 1-5.67 1.192c-4.853 0-7.208-3.341-7.208-7.47 0-3.983 2.441-7.414 7.005-7.414 4.534 0 6.54 2.764 6.54 6.049a17.865 17.865 0 0 1-.202 2.527zm5.959-2.441a2.148 2.148 0 0 0 .03-.435c0-1.571-.728-2.85-2.937-2.85-1.976 0-2.966 1.597-3.052 3.285zM165.596 157.684l.525 1.365h.056a6.582 6.582 0 0 1 4.478-1.8c3.285 0 5.175 2.238 5.175 5.61v8.839h-3.926v-8.434c0-1.83-.784-2.79-2.498-2.79a5.108 5.108 0 0 0-3.026 1.192v10.032h-3.923v-14.014z"/><g><path d="M96.01 14.305a58.888 58.888 0 1 0 58.888 58.887A58.847 58.847 0 0 0 96.01 14.305zm0 103.754a44.867 44.867 0 1 1 44.867-44.867A44.899 44.899 0 0 1 96.01 118.06z" stroke="#1d1d1b" stroke-miterlimit="10" stroke-width=".253" fill="url(#a)"/><circle cx="96.204" cy="73.096" r="44.577" fill="url(#b)"/><path d="M92.82 72.129h-3.095L75.511 39.832l1.16-3.384 16.148 35.68" fill="#bfbabb"/><path d="M96.204 25.521a47.864 47.864 0 1 0 47.864 47.865A47.85 47.85 0 0 0 96.204 25.52zm11.313 7.543l-11.41 26.108-11.7-26.012a40.305 40.305 0 0 1 23.11-.096zM76.671 36.35L92.82 72.13h6.286l16.438-35.874a41.498 41.498 0 0 1 15.278 13.634l-21.177 47.284-10.54-23.014h-6.381l-9.96 22.82-21.08-47.284a41.486 41.486 0 0 1 14.988-13.344zM54.335 73.386a40.7 40.7 0 0 1 2.514-14.214l23.497 52.989a41.92 41.92 0 0 1-26.011-38.775zm29.588 40.032l11.99-26.398 12.184 26.494a40.217 40.217 0 0 1-11.893 1.741 42.876 42.876 0 0 1-12.28-1.837zm27.945-1.257l23.497-53.666a41.9 41.9 0 0 1-23.497 53.666z" fill="url(#c)"/><path d="M75.51 39.832l1.161-3.384v-.097a41.746 41.746 0 0 0-14.988 13.441l2.998.097a31.708 31.708 0 0 1 10.83-10.057z" fill="#565050"/><g clip-path="url(#d)"><path d="M77.251 36.932c-7.445 4.544-10.443 6.672-14.89 13.537l-2.321-.193.096-.967 4.835-5.319 5.222-4.931 3.964-2.708 2.61-.58.968.774z" fill="#372f2c"/></g><path d="M92.723 74.16h-3.385l-6.672 15.567v7.156l.097.097z" fill="url(#e)"/><path d="M82.763 89.824L64.584 49.792h-2.707c-.097.097-.194-.097-.194 0l21.08 47.188z" fill="#fff"/><g clip-path="url(#f)"><path d="M82.956 97.173l-20.5-47.961-1.836.193-.87 10.54 4.06 21.467 4.159 5.705 5.511 4.738 8.316 4.834z" fill="#989291"/></g><path d="M96.204 112.45a39.398 39.398 0 0 0 10.733-1.45l1.16 2.611a40.216 40.216 0 0 1-11.893 1.74 42.877 42.877 0 0 1-12.28-1.837l1.16-2.61a42.295 42.295 0 0 0 11.12 1.547zm-15.858-.386l-1.74-3.868A39.053 39.053 0 0 1 57.138 73.29a40.465 40.465 0 0 1 1.353-10.346l-1.74-3.868a40.7 40.7 0 0 0-2.514 14.214 41.953 41.953 0 0 0 26.108 38.775zm57.727-38.678a41.843 41.843 0 0 0-2.708-14.795l-1.643 3.772v.193a40.146 40.146 0 0 1 1.547 10.83 39.064 39.064 0 0 1-21.757 35.004l-1.644 3.77a41.749 41.749 0 0 0 26.205-38.774z" fill="url(#g)"/><g clip-path="url(#h)"><path d="M138.073 73.386a41.881 41.881 0 0 1-26.205 38.871l.387-.967a41.182 41.182 0 0 0 25.141-37.904 40.74 40.74 0 0 0-2.417-13.828l.386-.967a41.446 41.446 0 0 1 2.708 14.795zm-83.062 0a40.095 40.095 0 0 1 2.224-13.247l-.386-.967a40.7 40.7 0 0 0-2.514 14.214 41.92 41.92 0 0 0 26.01 38.775l-.386-.967A41.228 41.228 0 0 1 55.01 73.386zm41.193 41.869a42.877 42.877 0 0 1-12.28-1.837l.29-.677a40.864 40.864 0 0 0 11.99 1.74 41.54 41.54 0 0 0 11.603-1.643l.29.676a43.649 43.649 0 0 1-11.893 1.741z" fill="url(#i)"/></g><circle cx="96.204" cy="73.386" r="47.864" fill="none" stroke="#1d1d1b" stroke-miterlimit="10" stroke-width=".23"/><path d="M127.63 49.502l3.19.193a41.716 41.716 0 0 0-15.18-13.537l.193.677 1.064 2.707a45.697 45.697 0 0 1 10.733 9.96z" fill="#615a5c"/><g clip-path="url(#j)"><path d="M130.337 50.179c-3.48-5.222-11.216-11.99-16.051-13.538l1.16-2.804 6.092 1.257 7.639 8.123 4.061 4.931-.097 2.418z" fill="#2a2523"/></g><path d="M84.407 33.16l.967 2.128a39.413 39.413 0 0 1 21.176-.194l.967-2.224a43.76 43.76 0 0 0-11.313-1.547 51.006 51.006 0 0 0-11.797 1.837z" fill="#564f51"/><g clip-path="url(#k)"><path d="M107.614 33.74c-7.252-2.32-18.47-1.837-23.594.387l-.774-1.45 1.934-1.74s3.868-.29 4.062-.29h6.478l3.771.096 4.642.387 3.77 1.16.678.87z" fill="#372f2c"/></g><path d="M99.105 74.16h3.384l6.865 15.374 18.276-40.032 3.19.29-21.176 47.284z" fill="#fff"/><g clip-path="url(#l)"><path d="M109.354 88.277l.29 9.38-10.25-13.248-1.16-9.09.58-2.61 3.772.483 2.804 1.74z" fill="url(#m)"/></g><g clip-path="url(#l)"><path d="M99.298 73.966l10.153 22.24 21.273-47.284.387 1.45-7.833 19.823-12.667 28.718-2.997-.967-8.993-23.013-.29-1.547z" fill="url(#n)"/></g><path d="M99.105 72.129l16.438-35.874 1.257 3.48-14.601 32.394a16.502 16.502 0 0 0-3.094 0z" fill="#aca6a7"/><path d="M96.01 14.111a59.081 59.081 0 1 0 59.081 59.081 59.074 59.074 0 0 0-59.08-59.08zm0 116.422a57.34 57.34 0 1 1 57.34-57.34 57.341 57.341 0 0 1-57.34 57.34z" fill="#1d1d1b"/><path d="M96.01 14.305a58.888 58.888 0 1 0 58.888 58.887A58.847 58.847 0 0 0 96.01 14.305zm0 115.938a57.05 57.05 0 1 1 57.05-57.05 57.032 57.032 0 0 1-57.05 57.05z" fill="url(#o)"/></g></svg>