<svg xmlns="http://www.w3.org/2000/svg" viewBox="0 0 192 192"><g fill="#1d1d1b"><path d="M38.465 134.705c-.379-.02-.696-.06-1.037-.06-.378 0-.717.04-1.055.06-.578-1.653-1.294-3.566-2.092-5.38h-5.062c-.695 1.755-1.414 3.508-1.972 5.38-.28-.02-.499-.06-.738-.06-.26 0-.48.04-.698.06l6.218-13.927h.458zm-6.696-11.318l-2.172 5.1h4.385zM40.258 132.017a3.57 3.57 0 0 0 3.23 2.073 2.81 2.81 0 0 0 2.769-2.91c0-3.707-6.235-2.073-6.235-6.575 0-2.573 2.032-3.827 4.422-3.827a4.478 4.478 0 0 1 2.85.955 11.379 11.379 0 0 0-.54 1.634h-.197a2.554 2.554 0 0 0-2.47-1.733 2.356 2.356 0 0 0-2.512 2.33c0 3.668 6.279 2.194 6.279 6.436 0 2.852-2.213 4.544-4.924 4.544a5.133 5.133 0 0 1-3.249-1.154 9.31 9.31 0 0 0 .38-1.772zM55.265 134.746c-.317-.018-.597-.06-.878-.06-.296 0-.595.042-.878.06v-12.713a36.677 36.677 0 0 0-4.36.24c.019-.2.056-.4.056-.6 0-.2-.037-.377-.056-.597h10.278c-.015.22-.056.398-.056.598 0 .198.04.4.056.598a34.183 34.183 0 0 0-4.162-.24zM59.932 127.891c0-4.365 3.247-7.113 7.373-7.113 3.747 0 7.55 2.03 7.55 6.814 0 4.443-3.145 7.352-7.591 7.352-4.403 0-7.332-2.789-7.332-7.053m11.718-4.524a5.28 5.28 0 0 0-4.147-1.936c-3.505 0-5.62 2.655-5.62 6.698 0 4.046 2.473 6.16 5.441 6.16 4.208 0 5.72-4.345 5.583-6.537a6.605 6.605 0 0 0-1.257-4.385M89.248 134.705h-.602a23.608 23.608 0 0 0-1.034-1.216l-8.608-9.525h-.202v10.741c-.198-.02-.379-.06-.556-.06a4.876 4.876 0 0 0-.56.06v-13.63h.778l9.467 10.262h.197v-10.261a5.345 5.345 0 0 0 .561.061c.176 0 .357-.044.559-.061zM111.842 121.076c.52 4.922 1.077 9.824 1.615 13.63-.358-.02-.637-.06-.935-.06-.317 0-.637.04-.937.06-.34-4.004-.736-8.309-1.016-10.283-2.311 4.127-4.024 7.314-5.222 10.066h-.216l-1.099-2.255c-1.277-2.63-2.67-5.22-4.026-7.811-.436 3.886-.977 7.834-.977 10.282-.256-.02-.478-.06-.694-.06-.263 0-.48.04-.721.06.518-3.206 1.714-11.537 1.916-13.63h.517c1.594 3.168 3.507 6.916 5.64 10.443 1.894-3.409 3.726-6.876 5.736-10.442zM127.428 134.705c-.38-.02-.698-.06-1.037-.06-.377 0-.72.04-1.06.06a75.06 75.06 0 0 0-2.086-5.38h-5.064c-.697 1.755-1.416 3.508-1.972 5.38-.278-.02-.5-.06-.738-.06a6.784 6.784 0 0 0-.693.06l6.21-13.927h.46zm-6.696-11.318l-2.17 5.1h4.383zM129.542 121.076h4.224c3.07 0 4.422 1.017 4.422 3.03 0 2.31-2.071 3.427-4.084 3.785l4.105 5.2.955 1.117.38.497c-.416-.02-.78-.06-1.156-.06-.379 0-.777.04-1.135.06-.442-.615-.841-1.177-1.257-1.732l-2.348-3.05-1.596-1.872h-.757v6.654c-.318-.02-.597-.06-.88-.06-.298 0-.595.04-.873.06zm1.753 6.217a11.115 11.115 0 0 0 2.57-.1 2.896 2.896 0 0 0 2.547-2.85 2.328 2.328 0 0 0-2.189-2.512 18.249 18.249 0 0 0-2.928-.019zM145.705 134.746c-.32-.018-.598-.06-.877-.06-.3 0-.598.042-.875.06v-12.713a36.762 36.762 0 0 0-4.367.24c.019-.2.063-.4.063-.6 0-.2-.044-.377-.063-.597h10.281c-.021.22-.058.398-.058.598a5.727 5.727 0 0 0 .058.598 34.185 34.185 0 0 0-4.162-.24zM152.164 121.076c.275.017.577.061.874.061.278 0 .556-.044.877-.061v13.63c-.32-.02-.599-.06-.877-.06-.297 0-.6.04-.874.06zM169.361 134.705h-.6a23.89 23.89 0 0 0-1.036-1.216l-8.61-9.525h-.198v10.741c-.2-.02-.377-.06-.557-.06a4.94 4.94 0 0 0-.56.06v-13.63h.779l9.466 10.262h.195v-10.261a5.45 5.45 0 0 0 .561.061c.182 0 .358-.044.56-.061z"/><g><path d="M191.662 58.157a3.158 3.158 0 0 0-2.347-1.101h-77.322a7.59 7.59 0 0 0-5.668 2.048 6.918 6.918 0 0 0-1.838 4.047H87.512a6.917 6.917 0 0 0-1.836-4.047 7.595 7.595 0 0 0-5.67-2.048H2.685a3.161 3.161 0 0 0-2.348 1.101A1.97 1.97 0 0 0 0 59.291a2.955 2.955 0 0 0 .18.98.639.639 0 0 0 .066.133l2.08 3.26c.121.184.626.752 2.253.773a1.58 1.58 0 0 1 .899.686L7.3 68.371l.02.034a3.991 3.991 0 0 0 2.976 1.792h.028a1.856 1.856 0 0 1 1.538 1.138l.027.057 1.445 2.66a1.393 1.393 0 0 0 .178.301 1.202 1.202 0 0 0 .151.178c.498.53 1.635 1.292 4.227 2.096l7.91 2.33.006.002 22.228 6.552a3.855 3.855 0 0 1 1.946 1.378l.665 1.53c.108.24 1.166 2.316 6.068 3.756l8.144 2.241 18.576 5.113a5.955 5.955 0 0 0 6.074-1.325l6.109-6.108a1.053 1.053 0 0 0 .082-.102l-.026.035a.333.333 0 0 1 .173-.08l.154-.011.153.012a.333.333 0 0 1 .173.08l-.025-.036a1.147 1.147 0 0 0 .083.102l6.108 6.108a5.954 5.954 0 0 0 6.074 1.325l18.575-5.112.002-.001 8.131-2.238a21.274 21.274 0 0 0 1.223-.399c3.87-1.4 4.758-3.141 4.853-3.352l.669-1.54a3.861 3.861 0 0 1 1.946-1.376l22.228-6.552.006-.001 7.9-2.329c2.597-.805 3.735-1.565 4.235-2.096a1.116 1.116 0 0 0 .153-.181 1.348 1.348 0 0 0 .178-.3l1.445-2.66c.008-.017.02-.039.028-.058a1.855 1.855 0 0 1 1.536-1.136h.017l.012-.001a3.985 3.985 0 0 0 2.975-1.792.358.358 0 0 0 .021-.034l1.822-3.248a1.582 1.582 0 0 1 .9-.686c1.626-.02 2.132-.59 2.248-.766l2.085-3.267a.639.639 0 0 0 .065-.134 2.955 2.955 0 0 0 .181-.979 1.964 1.964 0 0 0-.338-1.134zm-84.406 1.836a6.377 6.377 0 0 1 4.737-1.65h35.577a13.366 13.366 0 0 0-3.68 4.807h-38.103a5.63 5.63 0 0 1 1.469-3.157zm28.493 11.438v-1.56l3.128.418q-.632.775-1.281 1.523zm.857 1.492q-.423.465-.857.92v-1.097zm-.857-4.35V67.12l5.295.355q-.606.833-1.232 1.639l-4.063-.543zm0-2.742v-1.393h7.383q-.595.918-1.212 1.807zm-55.743-7.488a6.378 6.378 0 0 1 4.738 1.65 5.623 5.623 0 0 1 1.468 3.158H48.11a13.371 13.371 0 0 0-3.681-4.807zm-25.602 13.47q-.65-.748-1.281-1.524l3.127-.417v1.56zm1.846.933v1.097q-.432-.455-.856-.92zm-4.062-3.631q-.626-.805-1.232-1.639l5.294-.355v1.451l-4.062.543zm-2.109-2.87q-.616-.89-1.212-1.807h7.383v1.393zM4.666 63.15a2.397 2.397 0 0 1-1.292-.236c-.228-.36-1.716-2.69-1.994-3.126a1.655 1.655 0 0 1-.093-.495.705.705 0 0 1 .11-.405 1.94 1.94 0 0 1 1.326-.544h38.1c2.939 0 5 3.206 5.845 4.807zm5.648 5.76a2.695 2.695 0 0 1-1.903-1.192l-1.818-3.24-.01-.016-.015-.024h40.77q.612.97 1.248 1.907zm4.295 4.74a.76.76 0 0 1-.096-.118l.014.038a.865.865 0 0 0-.04-.096L13.033 70.8a3.712 3.712 0 0 0-.467-.75l36.876-2.472q.625.88 1.272 1.734c-11.162 1.49-33.76 4.51-33.787 4.512a5.31 5.31 0 0 1-2.32-.174zm3.655 1.744c-.352-.109-.67-.216-.96-.32l34.326-4.586q.656.826 1.332 1.623l-26.945 5.568zm18.293 5.392l-7.918-2.334 25.293-5.227q.994 1.116 2.03 2.172l-16.38 5.23a8.433 8.433 0 0 1-3.025.159zm11.448 3.373l-7.932-2.337L56.99 76.42q1.721 1.672 3.547 3.176L51.342 83.9a6.884 6.884 0 0 1-3.337.258zm32.643 4.604q-.758-.217-1.537-.464-2.145-.683-4.219-1.545l9.844-10.335h3.124zm8.702-12.344h2.411l-3.746 13.88a51.893 51.893 0 0 1-6.079-1.187l7.414-12.693zM73.632 86.21q-2.352-1.049-4.598-2.322l10.43-7.47h3.494zm-5.814-3.036q-2.161-1.303-4.21-2.814-.321-.238-.64-.482l7.39-3.46h6.895l-9.435 6.756zm-5.985-4.186q-1.522-1.225-2.974-2.57h8.463l-5.49 2.57zm-5.854 11.594c-3.359-1.208-4.136-2.65-4.158-2.693l-.66-1.516a2.789 2.789 0 0 0-.717-.937 9.919 9.919 0 0 0 1.337-.324.628.628 0 0 0 .07-.028l9.806-4.592q.604.473 1.219.928 1.854 1.368 3.803 2.57l-8.271 5.923a4.272 4.272 0 0 1-2.43.669zm9.22 2.592l-6.73-1.852c.28-.128.492-.243.593-.3a.55.55 0 0 0 .06-.038l8.762-6.274q2.344 1.365 4.807 2.489l-3.309 3.473-.02.023c-.658.76-2.832 2.845-4.163 2.479zm9.864 2.715l-7.444-2.049a11.849 11.849 0 0 0 2.704-2.29c.006-.005 1.545-1.62 3.62-3.8q2.372 1.008 4.836 1.794.624.198 1.234.375c-1.409 2.623-3.654 5.862-4.95 5.97zm8.71 2.396l-6.915-1.902a13.604 13.604 0 0 0 2.537-2.965 35.884 35.884 0 0 0 1.886-3.146 53.331 53.331 0 0 0 6.393 1.29l-.78 2.892c-.949 2.775-1.694 4.131-3.12 3.831zm4.824-.992a4.228 4.228 0 0 1-2.209 1.184 11.713 11.713 0 0 0 1.73-3.625.565.565 0 0 0 .013-.04l.833-3.09a44.624 44.624 0 0 0 4.915.29l-5.282 5.281zm6.76-6.607a40.634 40.634 0 0 1-6.05-.232l3.788-14.036h2.262zM57.538 75.13V64.438h76.923v10.693zm46.602 1.288h3.124l9.843 10.335q-2.071.86-4.218 1.545-.778.248-1.537.464zm5.924 12.693a51.897 51.897 0 0 1-6.079 1.187l-3.745-13.88h2.409l7.415 12.693zm-1.022-12.693h3.493l10.432 7.47q-2.245 1.274-4.6 2.322zm5.705 0h6.894l7.391 3.46q-.319.244-.641.482-2.044 1.512-4.21 2.814l-9.434-6.756zm9.93 0h8.464q-1.45 1.344-2.973 2.57l-5.49-2.57zM96.645 90.687V76.419h2.263l3.786 14.036a40.64 40.64 0 0 1-6.05.232zm6.759 6.607l-5.282-5.281a44.618 44.618 0 0 0 4.915-.29l.833 3.09a.714.714 0 0 0 .012.04 11.7 11.7 0 0 0 1.73 3.625 4.229 4.229 0 0 1-2.208-1.184zm4.824.992c-1.426.3-2.173-1.056-3.121-3.831l-.78-2.892a53.327 53.327 0 0 0 6.392-1.29 36.166 36.166 0 0 0 1.887 3.146 13.65 13.65 0 0 0 2.536 2.965l-6.914 1.902zm8.71-2.396c-1.296-.108-3.541-3.347-4.95-5.97.407-.119.817-.243 1.234-.375q2.464-.782 4.835-1.794l3.62 3.801a11.84 11.84 0 0 0 2.704 2.29l-7.444 2.048zm9.864-2.715c-1.331.366-3.506-1.719-4.162-2.479l-.02-.023-3.31-3.473q2.461-1.122 4.806-2.489l8.762 6.274a.593.593 0 0 0 .061.039c.1.056.313.17.592.299l-6.73 1.852zm14.038-6.802l-.66 1.517c-.022.043-.8 1.486-4.166 2.695a4.315 4.315 0 0 1-2.42-.671l-8.271-5.923q1.946-1.201 3.802-2.57.615-.455 1.218-.928l9.807 4.592c.024.01.047.02.07.028a9.922 9.922 0 0 0 1.337.324 2.78 2.78 0 0 0-.717.936zm3.155-2.214a6.88 6.88 0 0 1-3.335-.258l-9.197-4.305q1.825-1.504 3.548-3.176l16.916 5.402-7.932 2.337zm11.448-3.373a8.43 8.43 0 0 1-3.024-.16l-16.38-5.23q1.035-1.054 2.031-2.17l25.292 5.226-7.92 2.334zm18.285-5.39c.004 0-3.312.977-7.743 2.283l-26.946-5.568q.677-.797 1.333-1.623l34.323 4.585a22.92 22.92 0 0 1-.967.324zm5.239-4.596l-1.452 2.674a.847.847 0 0 0-.041.096l.015-.038a.794.794 0 0 1-.096.118 5.31 5.31 0 0 1-2.32.174l-33.787-4.512q.648-.853 1.273-1.734l36.875 2.471a3.67 3.67 0 0 0-.467.751zm6.45-6.338l-.009.016-1.818 3.24a2.698 2.698 0 0 1-1.903 1.191l-38.271-2.564q.635-.938 1.248-1.907h40.77zm5.204-4.674l-1.995 3.126a2.386 2.386 0 0 1-1.292.236h-42c.846-1.6 2.906-4.807 5.844-4.807h38.1a1.94 1.94 0 0 1 1.325.545.712.712 0 0 1 .111.405 1.67 1.67 0 0 1-.093.495z"/><path d="M65.57 73.385c-.192-.01-.353-.03-.526-.03-.19 0-.363.02-.534.03a38.421 38.421 0 0 0-1.06-2.728h-2.567c-.353.89-.716 1.779-1 2.728-.142-.01-.253-.03-.374-.03-.131 0-.243.02-.354.03l3.152-7.061h.232zm-3.394-5.738l-1.101 2.586h2.223zM66.479 72.022a1.81 1.81 0 0 0 1.638 1.05 1.424 1.424 0 0 0 1.403-1.475c0-1.879-3.16-1.05-3.16-3.333a1.98 1.98 0 0 1 2.241-1.94 2.27 2.27 0 0 1 1.445.484 5.86 5.86 0 0 0-.273.829h-.1a1.295 1.295 0 0 0-1.253-.88 1.194 1.194 0 0 0-1.273 1.182c0 1.86 3.183 1.112 3.183 3.263a2.302 2.302 0 0 1-2.496 2.304 2.6 2.6 0 0 1-1.647-.586 4.755 4.755 0 0 0 .192-.898zM74.087 73.405c-.16-.009-.303-.03-.445-.03-.15 0-.301.021-.445.03V66.96a18.56 18.56 0 0 0-2.21.122c.01-.101.028-.203.028-.304 0-.101-.019-.192-.028-.303h5.21c-.008.111-.028.202-.028.303 0 .1.02.203.029.304a17.303 17.303 0 0 0-2.11-.122zM76.453 69.93a3.524 3.524 0 0 1 3.738-3.606c1.9 0 3.828 1.029 3.828 3.455a3.601 3.601 0 0 1-3.849 3.727 3.438 3.438 0 0 1-3.717-3.576m5.94-2.293a2.676 2.676 0 0 0-2.101-.982c-1.777 0-2.85 1.346-2.85 3.396s1.255 3.122 2.758 3.122c2.134 0 2.9-2.202 2.831-3.314a3.352 3.352 0 0 0-.637-2.222M91.315 73.385h-.305c-.11-.14-.313-.385-.524-.617l-4.364-4.829h-.103v5.446c-.1-.01-.191-.03-.281-.03a2.629 2.629 0 0 0-.284.03v-6.91h.394l4.8 5.202h.1v-5.202a2.769 2.769 0 0 0 .284.031c.09 0 .181-.022.283-.031zM102.77 66.475c.263 2.495.546 4.98.818 6.91-.182-.01-.323-.03-.473-.03-.162 0-.324.02-.476.03-.172-2.03-.373-4.212-.515-5.213-1.172 2.093-2.04 3.707-2.647 5.103h-.109l-.558-1.143c-.647-1.334-1.354-2.646-2.04-3.96-.222 1.97-.497 3.971-.497 5.213-.129-.01-.241-.03-.351-.03-.133 0-.244.02-.365.03.262-1.626.868-5.85.971-6.91h.263c.807 1.606 1.777 3.506 2.858 5.294.96-1.728 1.89-3.486 2.908-5.294zM110.67 73.385c-.191-.01-.353-.03-.525-.03-.191 0-.363.02-.537.03a37.95 37.95 0 0 0-1.058-2.728h-2.568c-.352.89-.716 1.779-.998 2.728-.141-.01-.254-.03-.375-.03-.131 0-.242.02-.352.03l3.15-7.061h.233zm-3.393-5.738l-1.1 2.586h2.221zM111.742 66.475h2.143c1.555 0 2.24.515 2.24 1.536 0 1.171-1.05 1.738-2.07 1.919l2.082 2.636.482.567.194.252c-.211-.01-.395-.03-.586-.03s-.393.02-.575.03c-.224-.313-.426-.598-.638-.879l-1.19-1.546-.809-.949h-.383v3.374c-.162-.01-.303-.03-.447-.03-.15 0-.302.02-.443.03zm.89 3.152a5.608 5.608 0 0 0 1.304-.05 1.467 1.467 0 0 0 1.29-1.446 1.18 1.18 0 0 0-1.11-1.273 9.22 9.22 0 0 0-1.484-.01zM119.937 73.405c-.162-.009-.304-.03-.445-.03-.153 0-.303.021-.444.03V66.96a18.624 18.624 0 0 0-2.213.122c.009-.101.031-.203.031-.304 0-.101-.022-.192-.031-.303h5.212c-.01.111-.03.202-.03.303a2.953 2.953 0 0 0 .03.304 17.304 17.304 0 0 0-2.11-.122zM123.211 66.475c.14.009.294.031.444.031.14 0 .282-.022.443-.031v6.91c-.161-.01-.302-.03-.443-.03-.15 0-.304.02-.444.03zM131.93 73.385h-.305c-.11-.14-.313-.385-.525-.617l-4.365-4.829h-.1v5.446c-.1-.01-.192-.03-.283-.03a2.63 2.63 0 0 0-.283.03v-6.91h.395l4.798 5.202h.1v-5.202a2.79 2.79 0 0 0 .284.031c.092 0 .18-.022.283-.031z"/></g></g></svg>