<svg xmlns="http://www.w3.org/2000/svg" viewBox="0 0 192 192"><path d="M153.659 65.495a30.371 30.371 0 0 0-19.22 6.822 30.488 30.488 0 0 0-38.439 0 30.49 30.49 0 0 0-38.44 0 30.505 30.505 0 1 0 0 47.366 30.487 30.487 0 0 0 38.44 0 30.487 30.487 0 0 0 38.44 0 30.503 30.503 0 1 0 19.219-54.188zm-19.22 44.214a23.589 23.589 0 0 1 0-27.42 23.587 23.587 0 0 1 0 27.419zm-38.439 0a23.585 23.585 0 0 1 0-27.42 23.59 23.59 0 0 1 0 27.419zm-38.44 0a23.587 23.587 0 0 1 0-27.42 23.584 23.584 0 0 1 0 27.419zM14.728 96a23.608 23.608 0 0 1 37.985-18.731 30.471 30.471 0 0 0 0 37.46A23.608 23.608 0 0 1 14.726 96zm47.681 18.73a30.475 30.475 0 0 0 0-37.462 23.591 23.591 0 0 1 28.743 0 30.47 30.47 0 0 0 0 37.461 23.593 23.593 0 0 1-28.742 0zm38.44 0a30.47 30.47 0 0 0 0-37.463 23.595 23.595 0 0 1 28.744.001 30.47 30.47 0 0 0 0 37.461 23.595 23.595 0 0 1-28.744 0zm52.81 4.882a23.505 23.505 0 0 1-14.37-4.882 30.473 30.473 0 0 0-.002-37.462 23.611 23.611 0 1 1 14.374 42.343z"/></svg>