<svg xmlns="http://www.w3.org/2000/svg" viewBox="0 0 192 192"><g fill="#6f6e6e"><path d="M146.61 109.865c-1.53-1.687-37.564-41.213-50.606-41.213-13.04 0-49.075 39.526-50.602 41.211l-.002.002c-.15.166-3.667 4.161-3.667 8.82 0 3.626.242 7.275.245 7.31.008.169.093 1.711.955 2.13a.995.995 0 0 0 .446.103 1.873 1.873 0 0 0 1.064-.425c.388-.341 37.096-32.562 51.56-32.562 14.468 0 51.176 32.22 51.545 32.548a1.913 1.913 0 0 0 1.086.438 1.02 1.02 0 0 0 .445-.103c.86-.418.945-1.96.952-2.135.002-.029.244-3.678.244-7.304 0-4.659-3.517-8.654-3.666-8.82zm.387 13.244c-9.477-8.074-37.629-31.049-50.993-31.049-13.37 0-41.502 22.961-50.982 31.041-.057-1.908-.11-3.069-.11-4.767a8.152 8.152 0 0 1 2.268-5.616 167.236 167.236 0 0 1 42.766-27.84c6.426-2.7 6.063-2.193 6.058-13.025a3.573 3.573 0 0 1 .47.002c9.048.814 33.38 24.282 47.78 40.146.024.028 2.842 3.267 2.842 6.684 0 1.598-.048 3.177-.1 4.424z"/><path d="M146.559 72.283c-1.53-1.684-37.525-41.171-50.555-41.171-13.028 0-49.026 39.487-50.551 41.17h-.002c-.15.167-3.664 4.158-3.664 8.813 0 3.622.243 7.268.246 7.304.007.167.092 1.708.953 2.126a1.001 1.001 0 0 0 .446.103 1.87 1.87 0 0 0 1.063-.424c.387-.342 37.058-32.53 51.509-32.53 14.452 0 51.124 32.188 51.492 32.515a1.9 1.9 0 0 0 1.085.438 1.015 1.015 0 0 0 .445-.102c.86-.418.944-1.959.951-2.133.002-.029.243-3.675.243-7.297 0-4.655-3.513-8.646-3.661-8.812zm.386 13.23c-9.466-8.063-37.59-31.016-50.94-31.016-13.357 0-41.461 22.938-50.931 31.01-.057-1.906-.11-3.066-.11-4.763a8.14 8.14 0 0 1 2.264-5.61 167.072 167.072 0 0 1 42.724-27.813c6.42-2.697 6.058-2.19 6.052-13.011a3.602 3.602 0 0 1 .47 0c9.04.815 33.345 24.26 47.731 40.108.025.028 2.84 3.264 2.84 6.677 0 1.598-.048 3.174-.1 4.419z"/><g><path d="M123.567 143.565c-4.52-.101-9.116-.001-9.156 0-5.523 0-10.016 3.829-10.016 8.535 0 4.778 4.493 8.665 10.02 8.665.037 0 4.63.092 9.156 0 5.534 0 10.036-3.887 10.036-8.665 0-4.66-4.41-8.41-10.04-8.535zm-3.1 14.836s-1.65.044-2.9 0a6.473 6.473 0 0 1-6.612-6.274c0-3.844 3.362-6.141 6.597-6.14.04-.005 1.617-.072 2.913-.001 3.252 0 6.615 2.297 6.615 6.141a6.473 6.473 0 0 1-6.613 6.274zM178.22 143.806h-14.246c-.233 0-.774.059-.774.624v15.479a.597.597 0 0 0 .598.634h5.955v-12.947a.818.818 0 0 1 .855-.847h6.558a4.857 4.857 0 0 1 4.5 5.18v7.963a.661.661 0 0 0 .687.652h5.631v-8.195c0-4.79-4.289-8.543-9.763-8.543zM71.645 143.807H47.15a.635.635 0 0 0-.637.646v2.675h5.854a3.71 3.71 0 0 1 3.674 3.642v9.14a.658.658 0 0 0 .646.635l5.94.001v-12.562a.858.858 0 0 1 .86-.855h8.79v-2.667a.63.63 0 0 0-.632-.655zM42.341 143.803h-5.288a.649.649 0 0 0-.644.636v15.469a.658.658 0 0 0 .645.637h5.935V144.44a.658.658 0 0 0-.648-.637zM96.82 154.421h.004c2.939-.673 4.837-2.785 4.837-5.225 0-2.594-2.538-5.392-6.64-5.392H79.217a3.382 3.382 0 0 0-3.416 3.419v12.684a.613.613 0 0 0 .626.638h5.933v-5.935h5.597c4.982 0 7.03 3.596 7.182 5.937h6.535c-.173-4.337-4.853-6.126-4.853-6.126zm-4.172-2.777H82.355v-3.343a1.499 1.499 0 0 1 1.58-1.552h8.743a2.448 2.448 0 1 1-.03 4.895zM17.205 145.913c.372-.015 1.681-.06 2.881 0a6.796 6.796 0 0 1 5.795 3.202.624.624 0 0 0 .544.308h6.395c-1.384-3.5-5.397-5.979-9.632-5.986-2.32-.005-6.453-.137-9.15 0a10.502 10.502 0 0 0-7.078 2.567 8.144 8.144 0 0 0-2.944 6.152c0 4.787 4.258 8.545 9.906 8.74 3.871.137 4.285.144 9.362-.01 4.703-.141 8.075-2.269 9.532-5.984h-6.393a.602.602 0 0 0-.55.321 6.661 6.661 0 0 1-5.715 3.226c-.83.013-1.948.015-2.969.005a6.28 6.28 0 1 1 .016-12.54zM143.303 156.697v-3.191h13.421v-2.937H143.3v-2.913a.875.875 0 0 1 .997-.846h15.376v-2.349c0-.686-.734-.657-.754-.656H137.38a.626.626 0 0 0-.655.656v12.678a3.391 3.391 0 0 0 3.445 3.405h18.863a.655.655 0 0 0 .644-.623v-2.382H144.19a.828.828 0 0 1-.888-.842zM142.166 140.526a4.857 4.857 0 0 0 4.508.044c.57-.347 1.186-.915 1.828-.915a3.785 3.785 0 0 1 1.796.871 4.363 4.363 0 0 0 2.278.577 4.245 4.245 0 0 0 2.298-.577 1.503 1.503 0 0 0-.02-2.784 4.261 4.261 0 0 0-2.278-.58 4.31 4.31 0 0 0-2.279.58c-.603.374-1.083.878-1.795.878-.71 0-1.138-.504-1.778-.878a4.404 4.404 0 0 0-2.28-.58 4.274 4.274 0 0 0-2.278.58 1.497 1.497 0 0 0 0 2.784z"/></g></g></svg>