<svg xmlns="http://www.w3.org/2000/svg" viewBox="0 0 192 192"><g fill-rule="evenodd"><path d="M145.694 177.15a5.845 5.845 0 0 1-5.847 5.85H52.153a5.847 5.847 0 0 1-5.848-5.848V13.454a5.846 5.846 0 0 1 5.848-5.848h87.696a5.845 5.845 0 0 1 5.846 5.847v163.696z"/><path d="M143.258 32.205V26.08H48.74v6.124h94.518" fill="#cd1719"/><path d="M48.74 18.3v6.124h94.518v-6.123H48.74" fill="#fff"/><path d="M143.258 16.644v-1.486a4.872 4.872 0 0 0-4.87-4.874H53.61a4.873 4.873 0 0 0-4.87 4.874v1.486z" fill="#3fa535"/><path d="M48.74 33.862v141.587a4.874 4.874 0 0 0 4.871 4.871h84.777a4.873 4.873 0 0 0 4.87-4.87V33.86H48.74z" fill="#ffed00"/><path d="M90.557 104.423s-.086-2.15.329-1.986 6.056 4.903 6.549 6.057c.5 1.157 1.383.577 1.654-.247.271-.826 1.343-4.486 2.09-4.651.742-.166 1.9.083 1.485.991a19.05 19.05 0 0 0-.992 2.171 7.032 7.032 0 0 1-.825 2.811c-.657.989-.385 1.649-1.32 1.817a9.796 9.796 0 0 1-1.842.247c-.579 0-2.48-.414-2.81-1.57-.331-1.158-.104-1.795-1.677-3.386a15.93 15.93 0 0 0-2.642-2.254z" fill="#fff"/><path d="M91.557 42.67c.291.676 1.308 1.19.894 2.05-.617.078-1.083-.328-1.603-.5-.19-.138-.392-.265-.445-.475-.129-.557.654-.743.5-1.314a.397.397 0 0 1 .185-.263c.339-.083.257.343.469.5z"/><path d="M94.58 42.618c.68.361.854 1.176 1.574 1.523.317.29.371.748.74.997a4.991 4.991 0 0 1 4.78 1.814c.412.485 1.086.357 1.707.421a13.595 13.595 0 0 0 2.077-.078 3.38 3.38 0 0 1 1.419.342.492.492 0 0 1 .128.5c-.134.169-.417.077-.575.183a6.22 6.22 0 0 0-2.733 1.129 2.585 2.585 0 0 0 .919.342 7.953 7.953 0 0 1 2.785 2.103 4.726 4.726 0 0 0 1.26.393c1.548.347 1.748 2.048 2.917 2.971-.019.036-.072.061-.08.104-1.267.189-1.539-1.518-2.629-1.604a6.89 6.89 0 0 1-4.016-1.235c-.249-.06-.595-.129-.763.078.018.31.371.31.577.474.964.209 1.471 1.286 2.21 1.919.335.345.917.181 1.39.288a5.806 5.806 0 0 1 3.676 1.839.733.733 0 0 1 .157.657.176.176 0 0 1-.235.078 6.442 6.442 0 0 0-.997-.971 2.959 2.959 0 0 0-.949-.343c-1.157.182-2.725.6-3.674-.263l-.238-.077v.104c.366.535.728 1.343 1.471 1.497A7.704 7.704 0 0 1 110 59.012c.243.12.574.057.867.157a.282.282 0 0 1 .05.261c-.767.72-1.688-.021-2.467-.131-.847-.328-1.875-.186-2.602-.708l-1.234-.633a.207.207 0 0 0-.235.157c.495.767 1.332 1.271 1.943 2.025a4.268 4.268 0 0 1 1.077 2.023c.567.59 1.5 1.021 1.391 2.023.269.562.836.857 1.286 1.288a.384.384 0 0 1-.18.237c-1.123-.01-1.847-1.085-2.55-1.838a12.81 12.81 0 0 1-3.52-2.497c-.062-.029-.09.014-.107.053.012.423.393.697.66 1.05 1.112.995 2.976 1.48 3.307 3.178.293 1.091 1.507 1.238 2.417 1.55.167.153.52.267.447.577a3.028 3.028 0 0 1-1.995.106 4.57 4.57 0 0 1-2.103-1.443c-.777-.586-1.814-.493-2.625-.896-.115.015-.237.029-.263.157a.582.582 0 0 0 .314.71c.977.357 1.081 1.686 2.181 1.839a5.066 5.066 0 0 1 2.363 2.338c.28.35.424.861.893 1.077.002.151-.133.206-.235.261-.764-.134-1.167-1.09-1.868-1.285-.843-.114-1.406-.852-2.285-.786-.149.04-.069.157 0 .234l.842.869c.069.091-.047.203-.105.261-.569.072-.949-.438-1.417-.578a5.37 5.37 0 0 0-.923-.264.179.179 0 0 0-.103.29c.7.98 1.994.665 2.917 1.26a5.165 5.165 0 0 0 2.547 1.448.398.398 0 0 1 .134.5 3.751 3.751 0 0 1-2.733-.317c-.867-.523-2.025-1.157-2.994-.475l.105.108a6.611 6.611 0 0 1 2.418.55 15.627 15.627 0 0 0 1.943 1.657c-.005.09-.078.157-.133.235-.883-.25-1.624-.953-2.6-.714a13.895 13.895 0 0 1-3.234.109c-.038.034-.118.057-.077.131a4.378 4.378 0 0 0 1.128.578 5.274 5.274 0 0 1 3.443 2.312 3.266 3.266 0 0 0 3.305-.053c.11-.086.183-.343.372-.21.074.171-.065.324-.136.475a4.115 4.115 0 0 1-3.992.603 8.737 8.737 0 0 0-3.496-1.157c-.554-.2-1.114-.353-1.652-.497-.053.033-.119.072-.079.157.117.179.336.152.526.237a8.157 8.157 0 0 1 3.574 2.154c.245.223.614.44.757.79-.032.162.054.426-.129.497a4.48 4.48 0 0 1-1.104-.81 3.251 3.251 0 0 0-2.337-.764c-.061.02-.071.065-.051.129.337.29.838.243 1.207.553a3.969 3.969 0 0 1 1.395 1.707 4.006 4.006 0 0 0 1.129 1.051c.042.111-.11.171-.158.237-1.342-.408-2.266-1.771-3.57-2.181-.758-.4-1.7-.3-2.417-.683-.486-.228-.863-.651-1.396-.657-.183.086-.119.286-.154.449-.107 2.79 1.457 4.91 2.914 7.092a25.473 25.473 0 0 0 3.47 3.994 39.58 39.58 0 0 1 3.362 2.262 36.824 36.824 0 0 1 4.78 4.52 18.065 18.065 0 0 1 3.205 5.728c.2.228.581.164.895.154a8.733 8.733 0 0 0 7.145-8.876 28.561 28.561 0 0 0-.814-6.595 20.476 20.476 0 0 1-1.338-5.438 10.607 10.607 0 0 1 6.196-10.3h.106v.24a12.265 12.265 0 0 0-4.043 6.094 7.358 7.358 0 0 0-.108 2.943c.028.086.133.064.235.08a23.196 23.196 0 0 1 3.786-3.731c.585-.703.953-1.51 1.471-2.207.024-.031.05.017.103.054a4.756 4.756 0 0 1-.524 2.312c-.737 1.308-1.957 2.424-2.469 3.836-.452 1.194-.888 2.796-.237 4.071a.4.4 0 0 0 .419.106c.605-.383.565-1.114 1.057-1.577.614-.929 1.761-1.438 2.15-2.497.091-.231.091-.577.368-.628a1.897 1.897 0 0 1 .157 1.548 9.17 9.17 0 0 0-2.128 4.624c-.524 2.57.418 4.942.604 7.46a17.236 17.236 0 0 1-.551 5.177 9.107 9.107 0 0 1-5.677 5.228c-.234.071-.053.261-.053.42.207.453.395.931.577 1.447a4.575 4.575 0 0 1 .029 2.623 7.749 7.749 0 0 0-.029 3.288l-.025.311a.263.263 0 0 1-.239-.208c-.877-1.5-.824-3.35-1.157-5.018a5.142 5.142 0 0 0-1.207-1.707.198.198 0 0 0-.314.131c-.039.683.726 1.057.76 1.761a9.581 9.581 0 0 1-1.077 6.2c-1.009 1.428-2.554 2.656-2.471 4.57-.086.076-.207.01-.292.052a1.344 1.344 0 0 1-.335-.92 4.25 4.25 0 0 1 .918-3.075c.871-1.696 1.696-3.72 1.026-5.7a.25.25 0 0 0-.343-.08c-.497.6-.222 1.532-.577 2.211a3.441 3.441 0 0 0-.393 1.575 4.361 4.361 0 0 1-.029 1.025c-.042.024-.102 0-.131.026a1.575 1.575 0 0 1-.343-.843c-.311-1.495.304-2.785.186-4.278a2.567 2.567 0 0 0-.606-2.05.49.49 0 0 0-.471.029c-.34.386-.157 1.011-.266 1.523-.757 4.438-4.8 7.937-8.482 10.43a4.118 4.118 0 0 0-1.053 4.468c.215.907 1.192 1.524 1.34 2.521-.074.893.257 1.837-.185 2.653a15.763 15.763 0 0 0-4.597 3.335 6.902 6.902 0 0 1-2.388 2.285c-.386.389-.357.975-.632 1.447a6.217 6.217 0 0 1-2.128 2.023c-.263.263-.08.72-.154 1.1-.009 1.461-1.586 1.908-2.6 2.471-.923.296-1.98.807-2.971.372a1.367 1.367 0 0 1-.317-1.315 8.374 8.374 0 0 1 2.025-3.756 17.06 17.06 0 0 0 1.994-2.207 3.716 3.716 0 0 1 2.1-1.34c1.428-1.357 2.7-2.803 4.077-4.231.534-.814 1.277-1.56 1.231-2.546a30.734 30.734 0 0 1-3.78-7.067 10.353 10.353 0 0 1-.63-6.121 10.09 10.09 0 0 1 2.153-4.095 8.011 8.011 0 0 0 .923-3.733 4.75 4.75 0 0 1 .814-1.522c.049-.172-.123-.243-.186-.292-.538-.028-.88.554-1.05.976a16.167 16.167 0 0 1-.315 2.074 15.581 15.581 0 0 1-.686 1.89c-.404.65-.824 1.68-1.731 1.785a2.584 2.584 0 0 1-1.996-1.84c-.074-1.674-1.4-2.828-2.602-3.962-1.886-1.853-4.143-2.748-6.095-4.337-2.92-2.25-6.065-4.962-7.616-8.199-.115-.408.342-.493.395-.814l-.157-.1c-2.147.171-4.445.04-5.676-1.92-1.386-1-3.003-1.428-4.386-2.365-.895-.4-1.56-1.395-2.652-1.157-.749.414-.652 1.268-.606 2.025a17.731 17.731 0 0 1 .866 2.968 10.794 10.794 0 0 0 .814 3.02c.094.607.838.971.893 1.628.138.39-.112.977.317 1.262a2.897 2.897 0 0 1 2.39 2.1c.332 1.42.478 3.293-.629 4.416a2.05 2.05 0 0 1-.393.157c-1.414-.347-2.11-1.9-2.862-2.942-.729-1.054-.843-2.389-1.997-3.18-.88-.82-.54-2.123-1.029-3.074a16.015 16.015 0 0 1-.367-2.024c-.3-1.843-.877-3.557-1.128-5.385-.176-1.111-.586-2.34-.155-3.443.458-.78.743-1.72 1.653-2.205 1.386-1.077 3.411-.367 4.914 0a13.006 13.006 0 0 1 2.862.5c.243-.214-.09-.429-.157-.604a1.987 1.987 0 0 0-.605-.5 22.285 22.285 0 0 1-3.229-3.703c-.452-.297-.97-.854-1.474-.475-.421.5-.277 1.248-.525 1.84-.31.978-.907 2.265-2.076 2.495-1.95 1.214-2.245 3.514-1.914 5.65a17.355 17.355 0 0 1 .496 2.389A7.084 7.084 0 0 1 63.58 90c-.104.931-1.042 1.448-1.5 2.261-.407.357-.8.81-1.365.709-.353-.437-.3-1.014-.447-1.5a10.503 10.503 0 0 1 .291-3.071 8.731 8.731 0 0 1 .207-3.128c1.129-1.926 1.332-4.221 2.286-6.2a7.128 7.128 0 0 0 .657-2.311 17.175 17.175 0 0 1 1.418-3.942 2.857 2.857 0 0 1 1.707-2.129 4.26 4.26 0 0 1 4.648 1.343c1.163 1.431 2.854 1.826 4.257 2.837l1.286.814c.434.066.761-.294 1.157-.42.605-.04.928-.788 1.445-1.078 1.269-1.157 2.971-1.386 4.071-2.863.424-1.904 2.548-2.728 3.603-4.31 2.197-2.278 3.185-5.095 4.252-7.856a1.056 1.056 0 0 0-.448-1.104c-1.089-.2-2.264-.147-3.282-.447a18.165 18.165 0 0 1-1.974-.657 2.978 2.978 0 0 1-1.314 0c-1.224.34-2.907 1.471-3.994.186a.316.316 0 0 1 .238-.343 7.284 7.284 0 0 0 2.285-.84.364.364 0 0 0-.05-.314c-.119-.148-.3-.068-.421-.029a11.418 11.418 0 0 1-3.129.714c-.771-.364-.4-1.322-.521-1.997.08-1.117 1.118-1.835 1.52-2.81.477-.858 1.481-.566 2.317-.658 2.564-.433 4.456-2.528 6.956-3.177.134-.217.529-.178.5-.474-.157-.257-.748-.118-.471-.577-.197-.2-.419-.079-.657-.106a5.422 5.422 0 0 0-2.996-.551 2.156 2.156 0 0 1-.605.106c-.058-.06-.033-.146-.029-.21a3.01 3.01 0 0 1 1.183-.526c.485-.16.88.171 1.394.024a.283.283 0 0 0 .08-.21 1.612 1.612 0 0 0-.896-.288c-.131-.079-.095-.249-.053-.34.182-.257.6-.072.896-.157 1.571-.547 2.835.451 4.204.862a1.437 1.437 0 0 0 1.311-.342c.053-.496-.557-.806-.371-1.339.234-.471.585-.893.817-1.367.314-.093.3.3.528.439z"/><path d="M99.413 46.95c-.033.06.039.086.026.16a.49.49 0 0 1-.5-.053c-.223-.04-.479-.028-.574-.237-.009-.16.161-.147.261-.211a.707.707 0 0 1 .786.343zm.393 1.42a.664.664 0 0 1-.628.157.299.299 0 0 1-.21-.183c.037-.142.185-.177.314-.208.183.017.437.017.524.234zm-6.49.369c-.08.295-.405.414-.656.474a.261.261 0 0 1-.265-.211c.023-.263.306-.369.529-.42.136.004.363-.06.393.157zm-5.094 1.154c-.029.328-.406.557-.629.763a8.585 8.585 0 0 1-2.418.842.98.98 0 0 1-.712.026c.036-.146.222-.186.347-.264a11.983 11.983 0 0 1 3.257-1.393zm3.52.686a1.365 1.365 0 0 1 .186 1.257 1.522 1.522 0 0 1-1.421-.155c-.353-.165-.628-.454-.943-.631a.473.473 0 0 1 .103-.577 1.801 1.801 0 0 1 1.051-.422 1.133 1.133 0 0 1 1.026.529zm8.091.89c.014.21-.381.487 0 .605l1.261-.183c.08.023.086.175.052.262a11.108 11.108 0 0 0-1.971 1c-.172.037-.382.128-.525.024-.368-.46.072-.906.212-1.311a.942.942 0 0 1 .863-.552l.108.154zm-18.18 1.762a1.027 1.027 0 0 1 0 .683 2.472 2.472 0 0 1-1.363.761c-.235-.133-.21-.44-.158-.654.14-.423.305-.928.786-1.104a.775.775 0 0 1 .736.314zm1.39.024a.404.404 0 0 1-.207.447c-.154.043-.232-.08-.314-.157-.09-.14.014-.264.079-.368.111-.214.35-.067.443.077zm9.354 1.577c.023.3-.38.36-.446.629a.976.976 0 0 1-.314.606c-.551.057-1.031.28-1.579.314-.092-.04-.05-.124-.05-.182.715-.474 1.415-1 2.157-1.447.072-.007.176-.025.233.08zm-7.668.317c.04.148-.086.266-.186.339-.168.043-.225-.086-.262-.183.038-.128-.026-.311.157-.343a.333.333 0 0 1 .291.186zm16.417.025c.097.15-.1.221-.186.29-.117 0-.228-.086-.128-.183a.297.297 0 0 1 .314-.107zm-6.067.418c-.011.809-.928 1.057-1.47 1.343a.396.396 0 0 1-.344-.053c.157-.593.822-.928 1.21-1.393a.367.367 0 0 1 .604.105zm6.46.79a.505.505 0 0 1-.315.314.171.171 0 0 1-.235-.102.209.209 0 0 1 .157-.236c.117-.004.3-.147.393.026zm-5.358.473a1.288 1.288 0 0 1-.526.971 5.448 5.448 0 0 1-2.023.605c-.111-.035-.242-.048-.264-.158.104-.404.589-.364.919-.5.664-.185 1.09-.942 1.814-1.024l.077.106zm5.332.894a.624.624 0 0 1-.524.262.158.158 0 0 1-.029-.238c.139-.092.472-.302.554-.025zm-.053.972c-.06.328-.434.314-.657.42-.131-.066-.051-.142-.024-.21a.524.524 0 0 1 .681-.21zm0 1.314c.064.171-.128.325-.261.42-.186-.003-.336.128-.5.053-.1-.133.025-.238.08-.34.161-.182.485-.372.681-.132zm.053 1.47c.031.167-.131.24-.234.315-.246.019-.562.129-.737-.053a.344.344 0 0 1 .261-.262c.177-.122.547-.248.711 0zm-7.46.315a6.106 6.106 0 0 1-.628 2.154 19.683 19.683 0 0 1-3.942 5.228c-.079.035-.172.007-.236.025a.234.234 0 0 1-.078-.339c1.028-1.128 1.217-2.6 2.075-3.785a21.999 21.999 0 0 1 1.917-3.153c.14-.1.171-.308.369-.314a.487.487 0 0 1 .525.186zm7.306 1.077c-.096.3-.472.357-.739.42a.199.199 0 0 1-.157-.08c.047-.325.386-.41.657-.471.096-.043.182.035.239.131zm.025 1.34c-.16.351-.595.337-.922.393a.196.196 0 0 1-.076-.29c.223-.217.788-.54 1-.103zm-.025 1.393c.054.214-.115.331-.266.394-.291-.004-.671.114-.864-.106.024-.365.418-.431.683-.553a.495.495 0 0 1 .448.263zm-.475 1.285c-.1.266-.388.26-.578.369a.39.39 0 0 1-.369-.21c-.1-.143.02-.254.106-.343a.712.712 0 0 1 .843.186zm-.368 1.396c.011.303-.336.414-.524.551-.2-.018-.396.022-.5-.131-.086-.236.128-.372.286-.447.218-.046.545-.307.738.028zm-.683 1.628c.029.035.004.115.026.182a.56.56 0 0 1-.604.185.196.196 0 0 1-.08-.288c.103-.274.471-.183.657-.077zm-.287 1.392c-.047.214-.306.242-.449.342-.134 0-.264-.021-.29-.134a.272.272 0 0 1 .186-.288c.14-.078.443-.129.552.08zm-31.21.945c-.03.386-.534.29-.815.394-.183.008-.429-.02-.524-.182-.072-.236.188-.308.314-.396.32-.069.811-.161 1.024.186zm30.734.42c.005.146-.131.217-.235.29a.492.492 0 0 1-.447-.08.288.288 0 0 1 .237-.34c.135-.043.374-.086.447.132zM89.85 73.85c.008.147.178.303.054.475-.367.157-.72-.136-1.052-.21a6.535 6.535 0 0 0-3.94-.079c-.313-.026-.706.407-.895 0 .066-.44.563-.61.923-.736 1.328-.328 3.128-.8 4.417 0l.494.55zm8.8-.051c.007.121-.137.16-.209.21a2.61 2.61 0 0 1-.317.028.216.216 0 0 1-.078-.314.368.368 0 0 1 .603.076zm-32.65 1.077c.085.571-.258 1.038-.318 1.603-.323.494-.328 1.248-.947 1.524-.196-.14-.078-.35-.103-.553a9.16 9.16 0 0 1 .472-1.946 1.556 1.556 0 0 1 .685-.838c.105-.006.149.121.21.21zm5.75 2.89c-.021.054.026.138-.051.185a2.727 2.727 0 0 1-1.183-1.105l.028-.132a2.352 2.352 0 0 1 1.205 1.05zm20.725-.29a1.218 1.218 0 0 1 .054 1.185c-.374.267-.8-.071-1.128-.211-.176-.152-.322-.329-.212-.529a.945.945 0 0 1 .792-.6.81.81 0 0 1 .494.157zm-15.258.5a16.249 16.249 0 0 1-.815 2.76 2.841 2.841 0 0 1-1.525 1.756c-.093.006-.15-.038-.157-.104v-.157a13.925 13.925 0 0 0 1.447-3.337 3.21 3.21 0 0 1 .814-1.128c.124-.029.183.097.236.21zm19.543 4.6a16.66 16.66 0 0 0 2.653 5.803c.51.754 1.192 1.448 1.731 2.232a2.168 2.168 0 0 1-.971-.471 11.54 11.54 0 0 1-4.071-6.07 3.233 3.233 0 0 1-.237-1.838.358.358 0 0 1 .262-.237c.335-.04.5.309.632.579zm-31.26-.318a1.45 1.45 0 0 1-.555 1.026h-.106a1.15 1.15 0 0 1 .5-1.157.188.188 0 0 1 .157.131zm7.96 4.94c.061.085.18.194.106.342-.083.1-.255.072-.346.05-1.089-.295-1.871-1.32-2.886-1.731a.426.426 0 0 1 .42.026 8.475 8.475 0 0 1 2.704 1.314zm-7.802 2.076a10.216 10.216 0 0 1 .548 2.862c-.024.134-.175.028-.234.025a8.145 8.145 0 0 1-.867-3.257c.014-.277.029-.557.239-.707.465.076.197.707.314 1.077zM61.9 90.403a.375.375 0 0 1-.238.261.321.321 0 0 1-.286-.208c0-.129.124-.175.208-.21a.343.343 0 0 1 .318.157zm63.888 2.652a10.476 10.476 0 0 1-.238 5.938 8.69 8.69 0 0 1-3.256 4.28.76.76 0 0 1-.369.028c-.271-.414.094-.807.29-1.128A12.969 12.969 0 0 0 125 97.181a23.366 23.366 0 0 0 .105-5.254c.033-.089.151-.18.237-.053a9.093 9.093 0 0 1 .445 1.181zm-40.299 1.762c1.537 1.414 2.477 3.142 4.178 4.413a16.022 16.022 0 0 1 1.734 2.022v.052h-.077a63.663 63.663 0 0 1-5.465-4.178c-.833-.78-1.428-1.625-2.128-2.414-.072-.314-.272-.721 0-.971.271-.186.59.04.842.207l.917.869zm15.131 2.022c.394.697-.38 1.192-.55 1.814-.193.192-.065.56-.368.706a.405.405 0 0 1-.369-.154 4.497 4.497 0 0 1 .262-1.734c-.015-.315.042-.629.367-.737a.472.472 0 0 1 .657.105zm-29.868 4.228a.36.36 0 0 1-.129.395.44.44 0 0 1-.37-.026c-.12-.143-.284-.243-.212-.423a.402.402 0 0 1 .711.054z" fill="#fff"/><path d="M92.108 104.616a7.13 7.13 0 0 1 3.546 5.125 10.17 10.17 0 0 0 1.867 1.702.765.765 0 0 1 .157.686l-.105.234a14.163 14.163 0 0 0 .026 5.568 22.792 22.792 0 0 0 1.917 4.993c.007.58-.551 1.005-.681 1.6a1.045 1.045 0 0 1-.867.634c-1.5-.043-2.634-.923-3.886-1.443a17.646 17.646 0 0 0-5.205-1.343c-1.39-.704-3.257.029-4.622-.628-.412-.72-1.274-.233-1.84-.315a5.32 5.32 0 0 1-3.81-.105c-1.4-.443-2.38-1.869-3.1-3.021a.375.375 0 0 1 .08-.42 3.658 3.658 0 0 1 3.15-.317 8.157 8.157 0 0 1 4.15.657c.734.164 1.343-.363 2.128-.153a6.29 6.29 0 0 1 2.29.838c1.917.492 3.781 1.239 5.932 1.182.743-.046 1.714.42 2.286-.235.395-1.034-.676-1.628-.996-2.418a31.3 31.3 0 0 1-4.65-10.873 7.145 7.145 0 0 1-.134-2.363.629.629 0 0 1 .503-.395 2.997 2.997 0 0 1 1.863.814z"/><path d="M113.387 107.112a1.823 1.823 0 0 1-.314 1.837.189.189 0 0 1-.236-.157 3.514 3.514 0 0 0-.447-1.338.704.704 0 0 1 .395-.761c.252-.05.462.194.604.42zm-12.555 4.543c.011.683-.535 1.208-.657 1.891a6.188 6.188 0 0 0-.449 1.446c-.071.042-.131.102-.21.102a3.25 3.25 0 0 1 0-1.995 3.071 3.071 0 0 1 1-1.604.247.247 0 0 1 .314.157zm-21.884 7.198c.075.15-.14.307-.265.394a.689.689 0 0 1-.475.08.617.617 0 0 1-.285-.293c-.089-.204.128-.211.207-.286a.76.76 0 0 1 .818.103zm6.278.395c.009.063-.09.086-.128.132a.7.7 0 0 1-.425-.105.11.11 0 0 1 .107-.157.394.394 0 0 1 .448.129zm3.86 1.052c.403.047.85.047 1.288.102a10.681 10.681 0 0 1 2.494.578c.043.048.174.095.133.237-.157.238-.429.028-.626.078-.842-.528-1.91.026-2.68-.577-.63-.343-1.44-.207-1.972-.686-.086-.105-.111-.207 0-.262a3.4 3.4 0 0 1 1.366.528zm12.533.365a6.344 6.344 0 0 0 .317 2.234c.003.082-.14.107-.186.079a11.755 11.755 0 0 1-.996-2.26c-.028-.357-.042-.738.286-.866.41.01.45.482.577.815zm-4.597-.13c.064.186-.14.326-.263.42-.165-.004-.31.165-.447.05-.08-.275.22-.428.393-.524.094-.083.208-.029.314.053zm9.009 7.25c-.034.21-.26.385-.417.55a.174.174 0 0 1-.186-.103.343.343 0 0 1 .186-.498c.088-.085.353-.15.418.052zm-2.993 1.5c-.014.42-.48.75-.71 1.153a13.29 13.29 0 0 1-1.97 1.997c-.38.443-.905.636-1.312 1.052l-.104-.029a1.18 1.18 0 0 1 .393-.814c.857-.971 1.804-1.791 2.6-2.708a3.192 3.192 0 0 1 1.104-.653zm-6.253 5.934c.028.296-.297.462-.497.629-.114.023-.257.114-.343.028a.534.534 0 0 1 .186-.528c.14-.206.477-.436.654-.129zm-2.89 4.071a1.464 1.464 0 0 1-.368.972 1.582 1.582 0 0 1-.79.185c-.209-.335.1-.557.263-.762.264-.207.554-.726.895-.393z" fill="#fff"/><path d="M132.652 155.374c1.562 0 2.833-.46 2.833-1.014 0-.571-1.271-1.02-2.834-1.02-1.557 0-2.828.449-2.828 1.02.003.554 1.271 1.014 2.828 1.014zm-71.029 12.963v2.154H53.21v-2.154h1.56s.825.052.825-.957v-11.149a.469.469 0 0 0-.521-.52h-1.522v-2.303h73.878v1.925H60.017a.814.814 0 0 0-.74.918l-.01 4.764h1a.465.465 0 0 0 .498-.511v-.857l1.58-.029-.02 4.666h-1.563v-1.006s0-.423-.369-.439l-1.118.008v4.63a.784.784 0 0 0 .782.857h1.566z"/><path d="M69.896 169.456a.964.964 0 0 1-.918-1.093l-.007-3.371h7.07v-4.522s.09-2.489-2.942-2.489h-5.357a2.122 2.122 0 0 0-2.304 2.371v7.985a2.252 2.252 0 0 0 2.457 2.154h5.691s2.454 0 2.454-2.154v-1.657h-3.408v1.657s0 1.119-.857 1.119h-1.879zm18.847-4.623h-3.035v-4.48s.128-1.02-.496-.566c-.64.48-2.464 1.48-2.523 2.447v6.413h1.286v1.843H78v-1.843h1.4v-9.06h-1.28v-1.607h4.607v1.805s1.825-1.681 3.424-1.714c1.614-.051 2.58.506 2.588 2.077v4.685zm22.783-6.852s2.59-.16 2.59 2.85v7.818h.983l.025 1.842h-8.836a2.121 2.121 0 0 1-2.171-2.154v-3.38s-.057-1.762 2.181-1.762l4.368.017v-3.532s0-.775-.697-.783h-1.681a.766.766 0 0 0-.781.848l.008 1.857h-3.195v-1.847s-.176-1.774 2.077-1.774h5.128zm-9.313 6.852h-3.045v-4.48s.128-1.02-.505-.566c-.631.48-2.457 1.48-2.5 2.447v6.413h1.272v1.843h-5.978v-1.843h1.405l.018-9.06h-1.296v-1.607h4.597l.018 1.805s1.817-1.681 3.424-1.714c1.596-.051 2.554.506 2.59 2.077zm25.317 0h-3.042v-4.48s.125-1.02-.496-.566c-.639.48-2.471 1.48-2.523 2.447v6.413h1.272v1.843h-5.961v-1.843h1.385v-9.06h-1.267l.01-1.607h4.599v1.805s1.814-1.681 3.42-1.714c1.6-.051 2.567.506 2.607 2.077v4.685zm6.922 3.437s.05.379.4.379h.774v1.842h-5.942v-1.842h.774s.463 0 .436-.41v-8.29s.066-.452-.296-.452h-.847l.009-1.514h5.975v1.528h-.976s-.311-.014-.311.386v8.375z"/><path d="M68.978 163.873h3.682l-.025-3.842a.814.814 0 0 0-.915-.838h-1.942s-.8 0-.8.757zm41.691.41v5.171h-2.347a.742.742 0 0 1-.731-.805v-3.564a.763.763 0 0 1 .8-.8h2.277z" fill="#fd0"/></g></svg>