<svg xmlns="http://www.w3.org/2000/svg" viewBox="0 0 192 192"><g fill="#231f20"><path d="M35.997 119.153v17.2s-5.683-16.12-5.814-16.543a.937.937 0 0 0-1.032-.657h-5.42v20.94h3.658V123.12s5.597 15.902 5.74 16.315a.927.927 0 0 0 .956.658h5.57v-20.94zM55.233 119.153v20.94h4.302l-.007-8.91h7.75v-3.829l-7.743.011v-4.359h7.86v-3.853zM154.696 119.152v4.027h4.804v16.912h4.373v-16.912h4.795v-4.027zM82.534 140.091h4.631v-20.93h-4.63zM135.284 140.091h4.632v-20.93h-4.632zM183.39 140.091H188v-20.93h-4.61zM3 140.091h4.633v-20.93H3zM119.282 119.153h-3.657v17.2s-5.68-16.12-5.816-16.543a.933.933 0 0 0-1.02-.657h-5.43v20.94h3.651V123.12s5.612 15.902 5.742 16.315a.942.942 0 0 0 .953.658h5.577zM114.46 84.783c-1.765-2.286-18.958-25.46-18.958-25.46s-17.26 23.37-18.909 25.512c-6.374-.544-17.45-4.796-17.45-12.175 0-9.383 16.082-18.073 36.359-18.073 21.295 0 36.362 8.69 36.362 18.073 0 7.379-11.02 11.58-17.404 12.123M95.502 51.907c-26.19 0-44.42 10.23-44.42 23.479 0 6.181 3.987 13.174 12.446 17.379 7.85 3.9 18.941 5.259 20.543 5.455l11.43-33.684 11.55 33.684c1.595-.196 12.585-1.556 20.438-5.455 8.453-4.205 12.441-11.198 12.441-17.379 0-13.25-18.234-23.479-44.428-23.479"/></g></svg>