<svg xmlns="http://www.w3.org/2000/svg" viewBox="0 0 192 192"><path d="M92.09 141.308a176.333 176.333 0 0 1-18.174-1.45c-24.532-3.3-45.09-11.713-56.533-23.134-4.853-4.844-7.929-10.165-8.966-15.514a24.196 24.196 0 0 1 0-8.95 27.441 27.441 0 0 1 4.69-10.5C18.51 74.162 27.99 67.397 40.43 62.265c20.732-8.555 47.879-11.944 74.313-9.277 31.032 3.13 56.56 14.455 66.69 29.583 4.63 6.916 5.765 14.428 3.288 21.77a32.693 32.693 0 0 1-8.125 12.383c-10.843 10.821-29.926 18.982-52.83 22.592a173.692 173.692 0 0 1-31.676 1.992zm13.534-5.71a137.63 137.63 0 0 0 33.13-5.767 84.238 84.238 0 0 0 21.473-9.898 44.412 44.412 0 0 0 7.248-5.92 28.827 28.827 0 0 0 5.915-8.061 19.295 19.295 0 0 0 2.222-9.216 19.606 19.606 0 0 0-2.283-9.362 29.313 29.313 0 0 0-5.854-7.915 54.478 54.478 0 0 0-14.689-10.22c-11.488-5.752-25.862-9.514-41.875-10.962a161.492 161.492 0 0 0-27.843-.001c-22.513 2.027-41.838 8.71-53.795 18.602a49.64 49.64 0 0 0-5.354 5.405c-4.052 5.08-5.965 10.56-5.529 15.842.475 5.754 3.066 10.828 8.114 15.887a53.864 53.864 0 0 0 14.281 10.008c13.463 6.807 30.006 10.709 49.462 11.665 2.197.108 13.235.045 15.377-.087zm-63.109-16.3a1.35 1.35 0 0 1-.388-.296c-.192-.214-.194-.37-.219-20.987l-.025-20.77-.256-.268c-.243-.254-.31-.27-1.237-.296l-.98-.028v-2.619l7.05-.025 7.05-.025.3.252.299.252v7.488c0 8.228-.022 7.92.57 7.92.366 0 .494-.153 2.539-3.056 5.417-7.69 8.397-11.873 8.666-12.163.663-.716.362-.687 7.22-.69l6.14-.002.235.235a.895.895 0 0 1 .265.961c-.083.178-2.74 4.123-12.018 17.845-1.013 1.498-1.296 1.986-1.293 2.231.002.255.661 1.243 3.474 5.214 12.432 17.544 12.472 17.601 12.51 17.956a.708.708 0 0 1-.205.63l-.243.283-6.413.026c-6.323.026-6.42.024-6.885-.177a2.523 2.523 0 0 1-.713-.462c-.132-.143-3.055-4.211-6.496-9.04s-6.325-8.838-6.41-8.908a.57.57 0 0 0-.818.177c-.096.19-.123 2.166-.124 9.04l-.001 8.8-.235.272-.234.272-5.465.02c-3.006.01-5.553-.018-5.66-.062zm48.7-.044a.926.926 0 0 1-.413-.39c-.092-.203-.119-4.819-.119-20.928V77.27l-.283-.284c-.274-.274-.315-.283-1.213-.283h-.929v-2.717h14.355l.317.284.317.283v44.25l-.27.27-.268.268-5.6.022c-4.487.017-5.66-.005-5.894-.108zm20.86.017a.765.765 0 0 1-.433-.727c-.002-.17 1.375-4.427 3.06-9.459l5.955-17.782c1.59-4.75 3.268-9.744 3.728-11.1a28.272 28.272 0 0 0 .836-2.73.924.924 0 0 0-.185-.494c-.166-.205-.285-.234-1.14-.277l-.955-.049-.027-1.334-.027-1.334 8.613.001c5.654 0 8.737.036 8.975.102a.863.863 0 0 1 .47.3c.121.227 1.087 3.082 5.64 16.673 7.405 22.109 9.098 27.211 9.098 27.42a.9.9 0 0 1-.451.8c-.165.075-1.887.108-5.64.108-4.954 0-5.433-.014-5.737-.17a1.706 1.706 0 0 1-.512-.413c-.098-.134-.85-2.339-1.672-4.9-7.831-24.407-7.615-23.74-7.79-23.937-.195-.217-.343-.215-.544.008-.16.176-.462 1.104-4.72 14.52-1.236 3.895-2.568 8.086-2.961 9.314s-.896 2.81-1.118 3.516c-.438 1.39-.631 1.722-1.125 1.928-.427.178-11.03.194-11.338.017z" fill="#c41230"/></svg>