<svg xmlns="http://www.w3.org/2000/svg" viewBox="0 0 192 192"><path d="M181.3 96c0 25.4-39.3 46.1-87.9 46.1-48.5 0-87.9-20.6-87.9-46.1 0-25.4 39.3-46.1 87.9-46.1 48.5 0 87.9 20.6 87.9 46.1z" fill="#e0e0e0"/><path d="M177.6 95.9c0 23.4-37.7 42.3-84.3 42.3C46.8 138.2 9 119.3 9 95.9c.1-23.3 37.8-42.3 84.4-42.3 46.5 0 84.2 19 84.2 42.3zM93.4 57c-44.7 0-81 17.5-81 39s36.2 39 81 39c44.7 0 81-17.5 81-39-.1-21.6-36.3-39-81-39z" fill="#2f5433"/><path d="M172.2 95.9c0 20.4-35.3 36.9-78.9 36.9s-78.9-16.5-78.9-36.9c.1-20.3 35.4-36.8 79-36.8 43.5 0 78.8 16.5 78.8 36.8zm-28.3-17.2h-13.5l-1.6 4.7h8.8l-10 3.5-.7 1.9 15.4-5zm-86.2 8.2h-5.5s5.1-13.6 5.5-14.6c.7-1.8 1.2-1.7 1.2-1.7h-7.6c.9.5.1 2.2.1 2.2s-6.1 17-6.5 17.8a2.714 2.714 0 0 1-.7 1h13.2l1.8-5c-.3.5-1.5.3-1.5.3zm23.1 4.7H87a1.702 1.702 0 0 1-.2-1.3c.4-1 3.7-9.9 3.7-9.9l1.4 11.2h5.6l7.4-20s.3-.9.7-.9h-6a2.211 2.211 0 0 1 0 1.2c-.2.5-3.6 9.6-3.6 9.6l-1.3-10.9h-6.4a1.42 1.42 0 0 1 .1 1.1c-.2.5-6.8 18.7-6.8 18.7s-.5 1.2-.8 1.2zm28.4-21s.5.8-.2 2.8-6.1 16.6-6.1 16.6-.4 1.4-1 1.6h8.5a13.96 13.96 0 0 0 13.5-10.4s4-10.7-7.6-10.6zm.9 16.2h1c1.4 0 4.1-.3 5.9-4.7 3-7.2-1.2-6.9-1.2-6.9h-1.6zm-75.5 21.7h13.5l1.6-4.7H41l10-3.5.7-1.9-15.4 5zm23.7 8.7c-.2 0-.2-.7-.2-.7l2.5-6.6s3.1 6.1 3.3 6.5a1.27 1.27 0 0 1 .1.8h7.4c-.7 0-1.4-1.3-1.4-1.3l-3.7-6.6c5.2 0 6.8-5.1 6.8-5.1 2.5-8.1-6-7.9-6-7.9h-8.8c.6.7.1 2.2.1 2.2S53 114 52.5 115.2a5.637 5.637 0 0 1-1.2 2zm5.2-16.2l-1.4 4.2h1.3s2.6.2 3.6-1.9c0 0 1.1-2.4-2-2.4a12.422 12.422 0 0 1-1.5.1zm71.5 16.3c-.5 0-.2-1.3-.2-1.3l2.2-6s3 6.1 3.2 6.5a1.27 1.27 0 0 1 .1.8h7.7c-.7 0-1.5-1.3-1.5-1.3l-3.7-6.6a7.157 7.157 0 0 0 6.7-4.9c2.7-8.5-5.9-8.1-5.9-8.1H135c.6.7.1 2.2.1 2.2s-5.7 15.6-6.1 16.8a5.637 5.637 0 0 1-1.2 2zm5-12s2.6.2 3.4-1.8c.9-2.4-1.4-2.3-1.4-2.3h-1.9l-1.4 4.2h1.3v-.1zm-57.8 12.4c7.7 0 12.2-7.5 12.2-12.9 0-5.6-2.3-9.2-7.6-9.2-6.8 0-11.2 5.1-12.3 11.5-1 6 2.3 10.6 7.7 10.6zm.5-4.9c1.9.4 4-1 5.1-5.4 1.7-6.6-1.4-6.7-2-6.8-1.7-.2-4 1.7-4.9 5.8-.3 1.9-.8 5.9 1.8 6.4zm13.6-16.5s.5.3.5 1.6v18.2s-.1 1-.4 1.2h5.6a2 2 0 0 1 .6-1.1c.6-.7 12.4-16.6 12.4-16.6s2.7-3.3 3.4-3.3h-8.1s.6.4.1 1.2-7.7 11.6-7.7 11.6l.1-10.9s0-1.8.7-1.9zm34.3 4.9l1.8-5h-13.8s.5.4-.1 2.2-6.2 16.8-6.2 16.8-1 2-1.3 2h14.2l1.7-5s-.2.3-1.6.3h-6l1.3-3.4h4.7s1-.1 1.2.2l1.9-5.4s-.1.5-1.4.5h-4.5l1.3-3.7h5.7c.1 0 .9-.1 1.1.5zm-71.9-9.6h6.8a2.313 2.313 0 0 1 .2-.9c.3-.6 1.2-2.1 1.2-2.1h6.8v1.8a1.694 1.694 0 0 1-.5 1.1H80a1.497 1.497 0 0 1-.6-1.1l-.9-18.5s0-1.2.5-1.4h-6.7s.5.6-.4 1.9-12.4 18.4-12.4 18.4a1.366 1.366 0 0 1-.8.8zm14.9-13.8L69.8 84h3.8z" fill="#2f5433"/></svg>