<svg xmlns="http://www.w3.org/2000/svg" viewBox="0 0 192 192"><g fill="#1d1d1b" fill-rule="evenodd"><path d="M96.285 106.479c13.863 0 22.936-4.46 28.186-10.194h-5.294c-4.592 4.24-12.478 7.25-22.892 7.25-21.155 0-28.954-11.885-28.954-22.122.154-9.139 8.524-21.749 29.482-22.166.79-.022 1.406.703.857 1.384-3.581 4.415-13.797 18.673-14.96 20.518-2.242 3.537-2.44 5.25-2.505 6.393a5.61 5.61 0 0 0 1.757 4.79c3.054 2.723 7.338 2.284 11.138 2.284h31.305a2.52 2.52 0 0 0 2.46-1.362 21.541 21.541 0 0 0 3.625-11.687c0-7.953-5.162-17.97-18.233-22.496l-1.472 2.11c10.369 4.92 14.653 11.357 14.653 20.364a12.931 12.931 0 0 1-2.153 7.447H92.836c-1.823 0-2.086-2.065-1.427-3.23a121.56 121.56 0 0 1 8.721-13.378c3.076-4.108 6.107-7.953 9.293-11.973.857-1.12.285-2.197-1.428-2.548a55.386 55.386 0 0 0-11.775-1.275c-24.978 0-34.118 14.346-34.118 24.978 0 11.534 9.205 24.913 34.183 24.913zM176.844 122.318H156.81a4.981 4.981 0 0 1 4.503-4.481h20.277l-.066-4.24h-21.507a12.563 12.563 0 0 0-12.412 12.214.696.696 0 0 0 .79.747l24.408-.088a2.467 2.467 0 0 1 2.219 2.33 2.514 2.514 0 0 1-2.637 2.372H145.54v-17.553h-7.909v17.597h-14.543c-3.932 0-4.745-2.395-4.745-4.592v-13.115h-13.115c-1.296.878-2.549 1.845-3.889 2.658l-7.777 4.79-10.105-7.382h-30.58a14.762 14.762 0 0 0-9.403 2.856c-4.108 3.251-5.426 6.678-5.382 8.216h5.36a13.144 13.144 0 0 0-4.767 6.305H21.11c-3.163 0-5.206-2.24-5.206-4.416v-13.115H8.126v13.62c0 4.9 4.657 8.283 12.127 8.283h58.963c1.23-.835 2.394-1.714 3.669-2.483l7.996-4.855 10.15 7.25h11.555l-15.268-11.49 7.843-5.118c1.67-1.099 3.427-2.022 5.14-3.032v11.555c0 4.877 1.253 8.26 11.073 8.26l55.47-.131c4.284.066 7.03-2.9 7.03-6.48a6.796 6.796 0 0 0-7.03-6.482zm-99.188 8.59H48.878a5.144 5.144 0 0 1 4.657-4.504h18.102v-4.503h-22.98c-.263-1.318 2.198-3.91 4.087-3.91h20.672v-2.417l13.38 9.6z"/></g></svg>