<svg xmlns="http://www.w3.org/2000/svg" viewBox="0 0 192 192"><path d="M56.502 87.916H42.485a2.068 2.068 0 0 0-1.714.969l-2.368 3.885h14.122a1.833 1.833 0 0 1 1.598 1.906l-.003 7.423H43.527v-2.134a.726.726 0 0 1 .68-.762h7.401v-2.745c0-.673-.372-1.05-.879-1.05H40.465a2.42 2.42 0 0 0-2.273 2.545v6.773a.346.346 0 0 0 .025.11 1.945 1.945 0 0 0 1.869 1.762h20.013V91.953a3.836 3.836 0 0 0-3.597-4.037M184.19 87.916h-14.013a2.065 2.065 0 0 0-1.715.969l-2.372 3.885h14.125a1.836 1.836 0 0 1 1.6 1.906l-.004 7.423h-10.596v-2.134a.726.726 0 0 1 .683-.762h7.403v-2.745c0-.673-.374-1.05-.884-1.05h-10.262a2.419 2.419 0 0 0-2.27 2.545v6.773a.346.346 0 0 0 .024.11 1.94 1.94 0 0 0 1.87 1.762h20.013V91.953a3.838 3.838 0 0 0-3.603-4.037M140.07 81.124v20.819h-8.793a1.12 1.12 0 0 1-1.032-1.11v-6.156a1.812 1.812 0 0 1 1.706-1.906h4.446a1.948 1.948 0 0 0 1.625-.946l2.047-3.905-12.329.003a3.836 3.836 0 0 0-3.6 4.031c0 .015.003.023.003.037l-.002 11.27a3.117 3.117 0 0 0 2.954 3.338h19.079V81.124zM152.671 87.92a2.587 2.587 0 0 0-2.497 2.724v15.957h6.105V94.707a1.786 1.786 0 0 1 1.642-1.957h4.517a2.073 2.073 0 0 0 1.573-1.053l2.368-3.778zM89.313 93.995v12.607h6.061V88.134s-2.813 1.962-4.803 3.353a3.079 3.079 0 0 0-1.258 2.508m0-12.888h6.061v4.707l-6.061 4.51zM30.162 81.123H1v25.475h6.056V87.07h6.474a1.204 1.204 0 0 1 1.108 1.27h.002v18.26h6.062v-18.26a1.21 1.21 0 0 1 1.138-1.273l.01.003h4.77a1.773 1.773 0 0 1 1.666 1.864v17.665h6.059v-20.79a4.458 4.458 0 0 0-4.183-4.685M116.598 87.92l-17.235.012V106.6h6.099V92.766h6.943a1.815 1.815 0 0 1 1.706 1.908h.002V106.6h6.084V91.955a3.837 3.837 0 0 0-3.6-4.034M85.31 91.95a3.835 3.835 0 0 0-3.6-4.034h-7.972c-.714 0-1.058.402-1.427 1.019-.02.03-2.382 3.834-2.382 3.834h7.69a1.828 1.828 0 0 1 1.632 1.909l-.002 11.92h6.061V91.95M63.868 81.125h6.064v25.472h-6.064z" fill="#e51636"/><path d="M155.537 117.192a3.638 3.638 0 0 0-.322-1.61 2.827 2.827 0 0 0-.847-1.036 3.228 3.228 0 0 0-1.193-.555 5.895 5.895 0 0 0-1.374-.16c-.47 0-.942.005-1.422.017a60.23 60.23 0 0 1-1.416.016l-.832 7.55c.487.049.965.088 1.42.125.46.036.929.053 1.421.053a4.744 4.744 0 0 0 3.381-1.109 4.294 4.294 0 0 0 1.184-3.291m2.105 12.353a1.012 1.012 0 0 1-.543.91 3.749 3.749 0 0 1-1.851.332.865.865 0 0 1-.56-.2 1.317 1.317 0 0 1-.365-.482l-3.097-7.083a2.054 2.054 0 0 1-.417.037h-.35c-.466 0-.876-.02-1.228-.054a28.52 28.52 0 0 1-1.23-.16l-.89 7.688a1.326 1.326 0 0 1-.402.107 3.811 3.811 0 0 1-.593.04.978.978 0 0 1-.748-.234 1.084 1.084 0 0 1-.209-.735c0-.118.026-.39.068-.822.04-.43.096-.965.158-1.61s.139-1.37.224-2.182.178-1.67.286-2.576c.169-1.452.347-2.897.525-4.327q.272-2.145.528-4.33l-2.072-.07a.855.855 0 0 1-.129-.501c0-.738.52-1.11 1.563-1.11h5.908a8.618 8.618 0 0 1 1.91.218 4.628 4.628 0 0 1 1.71.746 4.038 4.038 0 0 1 1.216 1.43 4.792 4.792 0 0 1 .46 2.212 5.745 5.745 0 0 1-1.166 3.838 6.936 6.936 0 0 1-3.205 2.052l2.901 6.354 1.377-.144a.954.954 0 0 1 .22.656M164.586 112.881a1.354 1.354 0 0 1-1.505 1.467 1.365 1.365 0 0 1-.874-.268 1.108 1.108 0 0 1-.336-.912 1.422 1.422 0 0 1 .417-1.056 1.546 1.546 0 0 1 1.148-.41 1.08 1.08 0 0 1 .891.32 1.325 1.325 0 0 1 .26.859m.557 16.663a1.001 1.001 0 0 1-.61.859 4.365 4.365 0 0 1-2.04.346 1.96 1.96 0 0 1-1.34-.394 1.843 1.843 0 0 1-.446-1.43 18.42 18.42 0 0 1 .188-2.218l1.088-8.477-2.013.07a.753.753 0 0 1-.223-.571.94.94 0 0 1 .62-.895 5.687 5.687 0 0 1 2.158-.285 1.89 1.89 0 0 1 1.211.265 1.222 1.222 0 0 1 .19 1.053l-.667 5.529q-.226 1.786-.385 3.105c-.108.878-.158 1.461-.158 1.746 0 .335.05.54.158.625a1.45 1.45 0 0 0 .77.126 2.916 2.916 0 0 0 .62-.093 7.06 7.06 0 0 0 .623-.16 1.01 1.01 0 0 1 .256.8M176.28 117.87a1.204 1.204 0 0 1-.173.733 1.259 1.259 0 0 1-.525.38 3.292 3.292 0 0 0-1.407-.771 7.035 7.035 0 0 0-1.72-.197 2.924 2.924 0 0 0-2.093.678 2.044 2.044 0 0 0-.72 1.506 2.84 2.84 0 0 0 .127.91 1.68 1.68 0 0 0 .482.698 4.06 4.06 0 0 0 .97.625q.622.304 1.58.698a11.626 11.626 0 0 1 1.425.752 3.534 3.534 0 0 1 .874.768 2.457 2.457 0 0 1 .447.895 4.096 4.096 0 0 1 .13 1.056 4.32 4.32 0 0 1-.273 1.5 3.844 3.844 0 0 1-.832 1.343 4.065 4.065 0 0 1-1.417.946 5.312 5.312 0 0 1-2.044.358c-.3 0-.709-.011-1.229-.031a8.085 8.085 0 0 1-1.565-.231 3.973 3.973 0 0 1-1.356-.594 1.283 1.283 0 0 1-.573-1.11 1.057 1.057 0 0 1 .289-.787 1.76 1.76 0 0 1 .733-.428 3.698 3.698 0 0 0 1.786 1.233 6.62 6.62 0 0 0 2.108.374 2.808 2.808 0 0 0 1.897-.591 1.962 1.962 0 0 0 .688-1.56 1.783 1.783 0 0 0-.545-1.326 6.528 6.528 0 0 0-2.04-1.148 10.506 10.506 0 0 1-1.63-.755 4.172 4.172 0 0 1-1.07-.861 3.087 3.087 0 0 1-.59-1.076 4.785 4.785 0 0 1-.19-1.433 3.774 3.774 0 0 1 .365-1.652 4.046 4.046 0 0 1 1.025-1.31 4.892 4.892 0 0 1 1.565-.878 5.917 5.917 0 0 1 1.992-.32 6.08 6.08 0 0 1 2.587.444c.613.299.922.687.922 1.163M186.113 119.91a2.129 2.129 0 0 0-.528-1.522 2.54 2.54 0 0 0-1.866-.552 4.195 4.195 0 0 0-1.279.214 3.854 3.854 0 0 0-1.276.715 4.987 4.987 0 0 0-1.1 1.36 7.087 7.087 0 0 0-.751 2.145 10.637 10.637 0 0 0 1.359.163c.542.034 1.035.054 1.484.054a5.31 5.31 0 0 0 3.077-.662 2.249 2.249 0 0 0 .88-1.914m1.723-.25q0 4.29-5.552 4.293c-.492 0-1.005-.02-1.535-.054a15.8 15.8 0 0 1-1.625-.197 2.705 2.705 0 0 0-.035.428v.358q0 4.653 3.414 4.65a8.952 8.952 0 0 0 2.107-.25 8.823 8.823 0 0 0 2.078-.786 1.023 1.023 0 0 1 .382.822c0 .479-.375.924-1.116 1.34a7.956 7.956 0 0 1-3.67.628q-5.075 0-5.079-5.94a13.154 13.154 0 0 1 .45-3.539 8.097 8.097 0 0 1 1.306-2.756 5.939 5.939 0 0 1 2.14-1.77 6.671 6.671 0 0 1 2.97-.626 5.222 5.222 0 0 1 1.8.268 3.038 3.038 0 0 1 1.148.715 2.534 2.534 0 0 1 .623 1.075 4.528 4.528 0 0 1 .194 1.34M192 128.997a1.612 1.612 0 0 1-.447 1.216 1.72 1.72 0 0 1-1.244.428 1.507 1.507 0 0 1-.96-.304 1.234 1.234 0 0 1-.381-1.016 1.63 1.63 0 0 1 .45-1.182 1.684 1.684 0 0 1 1.273-.465 1.263 1.263 0 0 1 1.008.355 1.478 1.478 0 0 1 .301.968" fill="#656263"/></svg>