<svg xmlns="http://www.w3.org/2000/svg" xmlns:xlink="http://www.w3.org/1999/xlink" viewBox="0 0 192 192"><defs><linearGradient id="b" data-name="名称未設定グラデーション 19" x1="165.035" y1="171.448" x2="165.035" y2="146.94" gradientUnits="userSpaceOnUse"><stop offset=".1"/><stop offset=".9" stop-color="#666"/></linearGradient><linearGradient id="a" data-name="名称未設定グラデーション 25" x1="163.888" y1="171.46" x2="163.888" y2="146.94" gradientUnits="userSpaceOnUse"><stop offset=".15" stop-color="#1a1a1a"/><stop offset=".45" stop-color="#666"/><stop offset=".75" stop-color="#b3b3b3"/><stop offset="1" stop-color="#666"/></linearGradient><linearGradient id="l" x1="163.91" y1="171.449" x2="163.91" y2="146.94" xlink:href="#a"/><linearGradient id="m" x1="33.623" y1="171.46" x2="33.623" y2="146.94" xlink:href="#a"/><linearGradient id="n" x1="33.623" y1="171.458" x2="33.623" y2="147.368" xlink:href="#b"/><linearGradient id="o" data-name="名称未設定グラデーション 2" x1="41.899" y1="171.458" x2="41.899" y2="152.449" gradientUnits="userSpaceOnUse"><stop offset=".1" stop-color="#1a1a1a"/><stop offset=".5" stop-color="#4d4d4d"/><stop offset=".9" stop-color="#1a1a1a"/></linearGradient><linearGradient id="p" data-name="名称未設定グラデーション 14" x1="33.569" y1="171.459" x2="33.569" y2="152.469" gradientUnits="userSpaceOnUse"><stop offset=".1"/><stop offset=".5" stop-color="#666"/><stop offset=".9" stop-color="#999"/></linearGradient><linearGradient id="q" data-name="名称未設定グラデーション 16" x1="30.769" y1="171.459" x2="30.769" y2="152.48" gradientUnits="userSpaceOnUse"><stop offset=".1" stop-color="#1a1a1a"/><stop offset=".5" stop-color="#4d4d4d"/><stop offset=".9" stop-color="#999"/></linearGradient><linearGradient id="r" data-name="名称未設定グラデーション 4" x1="16.978" y1="171.46" x2="16.978" y2="152.514" gradientUnits="userSpaceOnUse"><stop offset=".1"/><stop offset=".5" stop-color="#666"/><stop offset=".9"/></linearGradient><linearGradient id="h" data-name="名称未設定グラデーション 220" x1="163.91" y1="171.449" x2="163.91" y2="155.635" gradientUnits="userSpaceOnUse"><stop offset=".1"/><stop offset=".9" stop-color="#8c8c8c"/></linearGradient><linearGradient id="c" data-name="名称未設定グラデーション 71" x1="162.215" y1="157.011" x2="162.215" y2="151.441" gradientUnits="userSpaceOnUse"><stop offset=".105" stop-color="#262626"/><stop offset=".9" stop-color="#1a1a1a"/></linearGradient><linearGradient id="d" data-name="名称未設定グラデーション 218" x1="172.347" y1="166.941" x2="172.347" y2="159.944" gradientUnits="userSpaceOnUse"><stop offset=".1" stop-color="#4d4d4d"/><stop offset=".9"/></linearGradient><linearGradient id="e" data-name="名称未設定グラデーション 7" x1="163.886" y1="166.951" x2="163.886" y2="159.944" gradientUnits="userSpaceOnUse"><stop offset=".1" stop-color="#d9d9d9"/><stop offset=".177" stop-color="#a6a6a6"/><stop offset=".269" stop-color="#6f6f6f"/><stop offset=".349" stop-color="#474747"/><stop offset=".411" stop-color="#2f2f2f"/><stop offset=".45" stop-color="#262626"/><stop offset=".9"/></linearGradient><linearGradient id="f" data-name="名称未設定グラデーション 135" x1="94.448" y1="171.453" x2="94.448" y2="171.36" gradientUnits="userSpaceOnUse"><stop offset=".226" stop-color="#999"/><stop offset=".773" stop-color="#c5c5c5"/><stop offset="1" stop-color="#d9d9d9"/></linearGradient><linearGradient id="s" x1="125.733" y1="363.577" x2="125.733" y2="-66.608" xlink:href="#a"/><linearGradient id="t" x1="118.775" y1="171.452" x2="118.775" y2="146.57" xlink:href="#a"/><linearGradient id="u" x1="58.338" y1="171.457" x2="58.338" y2="146.785" xlink:href="#a"/><linearGradient id="v" x1="84.012" y1="171.455" x2="84.012" y2="146.69" xlink:href="#a"/><linearGradient id="w" x1="66.285" y1="172.342" x2="66.285" y2="146.705" xlink:href="#a"/><linearGradient id="x" x1="79.702" y1="171.402" x2="79.702" y2="146.726" xlink:href="#a"/><linearGradient id="y" x1="71.273" y1="169.777" x2="71.273" y2="147.26" xlink:href="#b"/><linearGradient id="z" x1="72.419" y1="171.456" x2="72.419" y2="155.846" xlink:href="#b"/><linearGradient id="A" x1="68.461" y1="171.423" x2="68.461" y2="146.733" xlink:href="#a"/><linearGradient id="B" x1="68.461" y1="157.205" x2="68.461" y2="151.705" xlink:href="#c"/><linearGradient id="C" x1="78.581" y1="171.455" x2="78.581" y2="146.709" xlink:href="#a"/><linearGradient id="D" x1="78.581" y1="167.007" x2="78.581" y2="160.1" xlink:href="#d"/><linearGradient id="E" x1="70.112" y1="171.472" x2="70.112" y2="146.69" xlink:href="#a"/><linearGradient id="F" x1="70.112" y1="167.017" x2="70.112" y2="160.1" xlink:href="#e"/><linearGradient id="G" x1="132.976" y1="171.461" x2="132.976" y2="146.518" xlink:href="#a"/><linearGradient id="H" data-name="名称未設定グラデーション 83" x1="132.976" y1="166.434" x2="132.976" y2="152.085" gradientUnits="userSpaceOnUse"><stop offset=".1" stop-color="#d9d9d9"/><stop offset=".177" stop-color="#a6a6a6"/><stop offset=".269" stop-color="#6f6f6f"/><stop offset=".349" stop-color="#474747"/><stop offset=".411" stop-color="#2f2f2f"/><stop offset=".45" stop-color="#262626"/><stop offset=".905" stop-color="#1a1a1a"/></linearGradient><linearGradient id="I" x1="124.173" y1="171.452" x2="124.173" y2="146.555" xlink:href="#a"/><linearGradient id="J" x1="124.173" y1="166.434" x2="124.173" y2="152.112" xlink:href="#d"/><linearGradient id="K" x1="115.812" y1="194.46" x2="115.812" y2="102.529" xlink:href="#a"/><linearGradient id="L" x1="98.305" y1="172.532" x2="98.305" y2="146.584" xlink:href="#a"/><linearGradient id="M" x1="88.802" y1="171.455" x2="88.802" y2="146.679" xlink:href="#a"/><linearGradient id="N" x1="108.732" y1="212.599" x2="108.732" y2="161.854" xlink:href="#a"/><linearGradient id="O" x1="99.182" y1="171.453" x2="99.182" y2="146.622" xlink:href="#a"/><linearGradient id="P" x1="99.182" y1="171.453" x2="99.182" y2="165.082" xlink:href="#f"/><linearGradient id="Q" x1="109.129" y1="171.484" x2="109.129" y2="146.497" xlink:href="#a"/><linearGradient id="R" x1="109.129" y1="171.483" x2="109.129" y2="165.073" xlink:href="#f"/><linearGradient id="S" x1="104.546" y1="171.453" x2="104.546" y2="146.58" xlink:href="#a"/><linearGradient id="T" x1="104.546" y1="171.453" x2="104.546" y2="165.073" xlink:href="#b"/><linearGradient id="U" x1="98.568" y1="172.95" x2="98.568" y2="146.639" xlink:href="#a"/><linearGradient id="V" data-name="名称未設定グラデーション 23" x1="98.568" y1="171.167" x2="98.568" y2="147.209" gradientUnits="userSpaceOnUse"><stop offset=".226" stop-color="#b3b3b3"/><stop offset=".904" stop-color="#dfdfdf"/><stop offset="1" stop-color="#e6e6e6"/></linearGradient><linearGradient id="W" data-name="名称未設定グラデーション 24" x1="104.149" y1="171.454" x2="104.149" y2="147.399" gradientUnits="userSpaceOnUse"><stop offset=".1"/><stop offset=".5" stop-color="#666"/><stop offset=".9" stop-color="#1a1a1a"/></linearGradient><linearGradient id="X" x1="130.762" y1="171.452" x2="130.762" y2="147.058" xlink:href="#b"/><linearGradient id="g" data-name="名称未設定グラデーション 28" x1="132.988" y1="169.809" x2="132.988" y2="148.2" gradientUnits="userSpaceOnUse"><stop offset="0" stop-color="#b5b5b5"/><stop offset=".114" stop-color="#a2a2a2"/><stop offset=".2" stop-color="#999"/><stop offset=".313" stop-color="#909090"/><stop offset=".39" stop-color="#878787"/><stop offset=".4" stop-color="#b3b3b3"/><stop offset=".525" stop-color="#cfcfcf"/><stop offset=".7" stop-color="#f2f2f2"/><stop offset=".823" stop-color="#e9e9e9"/><stop offset="1" stop-color="#d4d4d4"/></linearGradient><linearGradient id="Y" x1="70.124" y1="169.825" x2="70.124" y2="148.392" xlink:href="#g"/><linearGradient id="Z" x1="96.402" y1="170.061" x2="96.402" y2="148.295" xlink:href="#g"/><linearGradient id="aa" x1="106.342" y1="169.814" x2="106.342" y2="148.248" xlink:href="#g"/><linearGradient id="ab" x1="33.615" y1="169.84" x2="33.615" y2="148.593" xlink:href="#g"/><linearGradient id="ac" x1="163.902" y1="169.841" x2="163.902" y2="148.594" xlink:href="#g"/><linearGradient id="ad" x1="101.381" y1="169.825" x2="101.381" y2="148.252" xlink:href="#g"/><linearGradient id="ae" x1="165.031" y1="171.46" x2="165.031" y2="146.92" xlink:href="#b"/><linearGradient id="af" x1="72.419" y1="171.46" x2="72.419" y2="155.846" xlink:href="#h"/><linearGradient id="i" data-name="名称未設定グラデーション 22" x1="44.216" y1="146.035" x2="54.722" y2="156.541" gradientUnits="userSpaceOnUse"><stop offset=".1" stop-color="#fff" stop-opacity="0"/><stop offset=".195" stop-color="#fff" stop-opacity=".322"/><stop offset=".4" stop-color="#fff"/><stop offset=".6" stop-color="#fff"/><stop offset=".9" stop-color="#fff" stop-opacity="0"/></linearGradient><linearGradient id="ag" x1="169.727" y1="145.657" x2="179.061" y2="154.991" xlink:href="#i"/><linearGradient id="ah" x1="149.068" y1="163.284" x2="157.543" y2="154.809" xlink:href="#i"/><linearGradient id="ai" x1="76.007" y1="145.967" x2="85.28" y2="155.24" xlink:href="#i"/><linearGradient id="aj" x1="55.334" y1="163.441" x2="63.77" y2="155.004" xlink:href="#i"/><linearGradient id="ak" x1="135.747" y1="145.213" x2="148.825" y2="158.291" xlink:href="#i"/><linearGradient id="al" x1="82.505" y1="22.942" x2="110.453" y2="127.245" gradientUnits="userSpaceOnUse"><stop offset=".212"/><stop offset=".361" stop-color="#0b0b0b"/><stop offset=".594" stop-color="#262626"/><stop offset=".85" stop-color="#b2b2b2"/><stop offset="1" stop-color="#fff"/></linearGradient><linearGradient id="am" data-name="名称未設定グラデーション 11" x1="82.503" y1="22.943" x2="110.55" y2="127.616" gradientUnits="userSpaceOnUse"><stop offset="0"/><stop offset=".564" stop-color="#1a1a1a"/><stop offset=".614" stop-color="#202020"/><stop offset=".709" stop-color="#262626"/><stop offset=".836" stop-color="#fff"/><stop offset=".891" stop-color="#fff"/><stop offset="1" stop-color="gray"/></linearGradient><linearGradient id="an" data-name="名称未設定グラデーション 10" x1="1376.565" y1="20.002" x2="1403.718" y2="121.34" gradientTransform="matrix(-1 0 0 1 1458.334 0)" gradientUnits="userSpaceOnUse"><stop offset="0" stop-opacity="0"/><stop offset=".606" stop-color="#1a1a1a"/><stop offset=".666" stop-color="#1d1d1d"/><stop offset=".709" stop-color="#262626"/><stop offset=".867" stop-color="#eee"/><stop offset="1" stop-color="#dcdcdc" stop-opacity="0"/></linearGradient><linearGradient id="ao" data-name="名称未設定グラデーション 39" x1="116.416" y1="131.498" x2="75.678" y2="19.571" gradientUnits="userSpaceOnUse"><stop offset=".036"/><stop offset=".194"/><stop offset=".286" stop-color="#343434"/><stop offset=".448" stop-color="#8a8a8a"/><stop offset=".581" stop-color="#c9c9c9"/><stop offset=".677" stop-color="#f0f0f0"/><stop offset=".727" stop-color="#fff"/><stop offset="1" stop-color="#4d4d4d"/></linearGradient><linearGradient id="ap" x1="46.711" y1="70.606" x2="61.876" y2="17.718" gradientUnits="userSpaceOnUse"><stop offset="0" stop-color="#fff" stop-opacity="0"/><stop offset=".107" stop-color="#fff" stop-opacity=".255"/><stop offset=".282" stop-color="#fff" stop-opacity=".652"/><stop offset=".403" stop-color="#fff" stop-opacity=".903"/><stop offset=".461" stop-color="#fff"/><stop offset=".81" stop-color="#bcbcbc" stop-opacity=".341"/><stop offset="1" stop-color="#9a9a9a" stop-opacity="0"/></linearGradient><linearGradient id="aq" x1="54.529" y1="33.873" x2="137.998" y2="33.873" gradientUnits="userSpaceOnUse"><stop offset="0"/><stop offset=".028" stop-color="#101010" stop-opacity=".935"/><stop offset=".129" stop-color="#3f3f3f" stop-opacity=".743"/><stop offset=".238" stop-color="#616161" stop-opacity=".605"/><stop offset=".356" stop-color="#767676" stop-opacity=".523"/><stop offset=".503" stop-color="#7c7c7c" stop-opacity=".497"/><stop offset="1"/></linearGradient><linearGradient id="ar" x1="1271.479" y1="101.288" x2="1267.497" y2="112.228" gradientTransform="matrix(-1 0 0 1 1421 0)" gradientUnits="userSpaceOnUse"><stop offset=".236" stop-opacity="0"/><stop offset=".442"/><stop offset=".691" stop-opacity=".739"/><stop offset="1" stop-opacity="0"/></linearGradient><linearGradient id="as" data-name="名称未設定グラデーション 9" x1="78.852" y1="16.477" x2="45" y2="77.549" gradientTransform="translate(-11.166)" gradientUnits="userSpaceOnUse"><stop offset="0" stop-color="#fff" stop-opacity="0"/><stop offset=".05" stop-color="#fff" stop-opacity=".11"/><stop offset=".158" stop-color="#fff" stop-opacity=".392"/><stop offset=".315" stop-color="#fff" stop-opacity=".837"/><stop offset=".37" stop-color="#fff"/><stop offset="1" stop-color="gray" stop-opacity="0"/></linearGradient><linearGradient id="at" x1="132.013" y1="34.896" x2="152" y2="34.896" gradientUnits="userSpaceOnUse"><stop offset="0"/><stop offset=".09" stop-opacity=".798"/><stop offset="1" stop-opacity="0"/></linearGradient><linearGradient id="au" x1="1257.278" y1="29.595" x2="1257.278" y2="42.531" gradientTransform="matrix(-1 0 0 1 1306 0)" gradientUnits="userSpaceOnUse"><stop offset="0"/><stop offset="1" stop-opacity="0"/></linearGradient><linearGradient id="av" x1="353.932" y1="106.123" x2="348.292" y2="121.62" gradientTransform="translate(-299.025)" gradientUnits="userSpaceOnUse"><stop offset=".048" stop-opacity="0"/><stop offset=".261"/><stop offset=".533" stop-opacity=".852"/><stop offset=".611" stop-color="#050505" stop-opacity=".836"/><stop offset=".689" stop-color="#161616" stop-opacity=".787"/><stop offset=".739" stop-color="#262626" stop-opacity=".739"/><stop offset=".756" stop-color="#1c1c1c" stop-opacity=".538"/><stop offset=".794" stop-color="#0c0c0c" stop-opacity=".228"/><stop offset=".849" stop-color="#030303" stop-opacity=".049"/><stop offset="1" stop-opacity="0"/></linearGradient><linearGradient id="aw" data-name="名称未設定グラデーション 21" x1="1129.848" y1="66.779" x2="1143.843" y2="17.973" gradientTransform="matrix(-1 0 0 1 1274 0)" gradientUnits="userSpaceOnUse"><stop offset="0" stop-color="#fff" stop-opacity="0"/><stop offset=".166" stop-color="#c8c8c8" stop-opacity=".324"/><stop offset=".461" stop-color="#565656"/><stop offset=".473" stop-color="#404040"/><stop offset=".603" stop-color="#464646" stop-opacity=".929"/><stop offset=".74" stop-color="#595959" stop-opacity=".718"/><stop offset=".878" stop-color="#777" stop-opacity=".368"/><stop offset=".972" stop-color="#939393" stop-opacity=".054"/><stop offset="1" stop-color="#9a9a9a" stop-opacity="0"/></linearGradient><linearGradient id="j" x1="382.275" y1="42.689" x2="394.615" y2="42.689" gradientTransform="translate(-241.063)" gradientUnits="userSpaceOnUse"><stop offset="0"/><stop offset=".31" stop-color="#060606"/><stop offset=".706" stop-color="#151515"/><stop offset="1" stop-color="#262626"/></linearGradient><linearGradient id="ax" x1="1545.686" y1="42.85" x2="1558.023" y2="42.85" gradientTransform="matrix(-1 0 0 1 1596.75 0)" xlink:href="#j"/><linearGradient id="k" x1="19.201" y1="43.077" x2="31.994" y2="43.077" gradientTransform="translate(19.125)" gradientUnits="userSpaceOnUse"><stop offset="0" stop-color="#b2b2b2"/><stop offset=".005" stop-color="#b0b0b0"/><stop offset=".257" stop-color="#666"/><stop offset=".437" stop-color="#383838"/><stop offset=".527" stop-color="#262626"/></linearGradient><linearGradient id="ay" x1="-1272.1" y1="43.043" x2="-1259.253" y2="43.043" gradientTransform="matrix(-1 0 0 1 -1118.38 0)" xlink:href="#k"/><linearGradient id="az" x1="41.823" y1="79.199" x2="151.016" y2="79.199" gradientUnits="userSpaceOnUse"><stop offset="0"/><stop offset=".034" stop-color="#171717"/><stop offset=".097" stop-color="#3c3c3c"/><stop offset=".163" stop-color="#5b5b5b"/><stop offset=".231" stop-color="#737373"/><stop offset=".304" stop-color="#848484"/><stop offset=".384" stop-color="#8e8e8e"/><stop offset=".483" stop-color="#919191"/><stop offset=".497" stop-color="#fff" stop-opacity=".768"/><stop offset=".498" stop-opacity=".9"/><stop offset=".516" stop-color="#090909" stop-opacity=".924"/><stop offset=".546" stop-color="#212121" stop-opacity=".987"/><stop offset=".552" stop-color="#262626"/><stop offset=".552" stop-color="#272727"/><stop offset=".557" stop-color="#323232"/><stop offset=".566" stop-color="#393939"/><stop offset=".588" stop-color="#3b3b3b"/><stop offset="1"/></linearGradient><linearGradient id="aA" x1="955.58" y1="76.378" x2="908.441" y2="67.215" gradientTransform="matrix(-1 0 0 1 998.715 0)" gradientUnits="userSpaceOnUse"><stop offset="0"/><stop offset=".553" stop-color="#181818"/><stop offset="1" stop-color="#262626"/></linearGradient><linearGradient id="aB" data-name="名称未設定グラデーション 6" x1="96.006" y1="65.842" x2="154.107" y2="65.842" gradientUnits="userSpaceOnUse"><stop offset="0"/><stop offset=".031" stop-color="#282828"/><stop offset=".066" stop-color="#4f4f4f"/><stop offset=".105" stop-color="#717171"/><stop offset=".148" stop-color="#8d8d8d"/><stop offset=".195" stop-color="#a4a4a4"/><stop offset=".25" stop-color="#b6b6b6"/><stop offset=".315" stop-color="#c3c3c3"/><stop offset=".402" stop-color="#cacaca"/><stop offset=".606" stop-color="#ccc"/><stop offset=".824" stop-color="#fff"/></linearGradient><linearGradient id="aC" x1="120.528" y1="62.678" x2="129.101" y2="90.719" gradientUnits="userSpaceOnUse"><stop offset="0"/><stop offset=".03"/><stop offset=".339"/><stop offset=".419" stop-color="#090909"/><stop offset=".57" stop-color="#171717"/><stop offset=".806"/></linearGradient><linearGradient id="aD" data-name="名称未設定グラデーション 5" x1="902.426" y1="65.802" x2="960.834" y2="65.802" gradientTransform="matrix(-1 0 0 1 998.715 0)" gradientUnits="userSpaceOnUse"><stop offset="0"/><stop offset=".038" stop-color="#1f1f1f"/><stop offset=".085" stop-color="#3e3e3e"/><stop offset=".13" stop-color="#545454"/><stop offset=".173" stop-color="#616161"/><stop offset=".212" stop-color="#666"/><stop offset=".241" stop-color="#737373"/><stop offset=".346" stop-color="#9e9e9e"/><stop offset=".452" stop-color="#c1c1c1"/><stop offset=".559" stop-color="#dcdcdc"/><stop offset=".668" stop-color="#f0f0f0"/><stop offset=".777" stop-color="#fbfbfb"/><stop offset=".891" stop-color="#fff"/><stop offset="1" stop-color="#adadad"/></linearGradient><linearGradient id="aE" data-name="名称未設定グラデーション 20" x1="64.591" y1="21.06" x2="127.466" y2="129.963" gradientUnits="userSpaceOnUse"><stop offset="0" stop-color="#f2f2f2"/><stop offset=".972" stop-color="#262626"/></linearGradient><linearGradient id="aF" x1="57.383" y1="117.598" x2="136.112" y2="117.598" gradientUnits="userSpaceOnUse"><stop offset="0"/><stop offset=".237" stop-color="#262626"/><stop offset=".503" stop-color="#565656"/><stop offset="1"/></linearGradient><linearGradient id="aG" data-name="名称未設定グラデーション 18" x1="96" y1="128.054" x2="96" y2="51.821" gradientUnits="userSpaceOnUse"><stop offset=".121" stop-color="#333"/><stop offset=".178" stop-color="#3c3c3c"/><stop offset=".271" stop-color="#555"/><stop offset=".39" stop-color="#7e7e7e"/><stop offset=".529" stop-color="#b7b7b7"/><stop offset=".67" stop-color="#f8f8f8"/><stop offset=".727" stop-color="#fff"/></linearGradient><linearGradient id="aH" data-name="名称未設定グラデーション 17" x1="39.881" y1="103.498" x2="156.542" y2="61.037" gradientUnits="userSpaceOnUse"><stop offset="0" stop-color="#4d4d4d"/><stop offset=".208" stop-color="#999"/><stop offset=".373" stop-color="#f2f2f2"/><stop offset=".634" stop-color="#f0f0f0"/><stop offset=".728" stop-color="#e9e9e9"/><stop offset=".795" stop-color="#dedede"/><stop offset=".85" stop-color="#cdcdcd"/><stop offset=".896" stop-color="#b7b7b7"/><stop offset=".936" stop-color="#9c9c9c"/><stop offset=".973" stop-color="#7d7d7d"/><stop offset=".976" stop-color="#797979"/><stop offset=".998" stop-color="#505050"/><stop offset="1" stop-color="#4d4d4d"/></linearGradient><linearGradient id="aI" data-name="名称未設定グラデーション 13" x1="96" y1="127.008" x2="96" y2="52.707" gradientUnits="userSpaceOnUse"><stop offset=".363" stop-color="#f2f2f2" stop-opacity="0"/><stop offset=".429" stop-color="#e0e0e0" stop-opacity=".151"/><stop offset=".561" stop-color="#b0b0b0" stop-opacity=".542"/><stop offset=".698" stop-color="#797979"/><stop offset=".789" stop-color="#515151"/><stop offset=".875" stop-color="#333"/><stop offset=".948" stop-color="#212121"/><stop offset="1" stop-color="#1a1a1a"/></linearGradient><linearGradient id="aJ" data-name="名称未設定グラデーション 15" x1="528.591" y1="21.06" x2="591.467" y2="129.963" gradientTransform="matrix(-1 0 0 1 656 0)" gradientUnits="userSpaceOnUse"><stop offset="0" stop-color="#e6e6e6"/><stop offset="1" stop-color="#333"/></linearGradient></defs><path d="M46.208 172v-14.327c0-2.805-.556-3.334-3.502-3.327l-5.123.013V172h-8.027v-17.621l-8.585.02V172h-7.984v-25.069l29.896-.104c9.04-.032 11.383 2.17 11.383 10.712V172zM168.443 146.39l-17.569.062.014 6.964 17.57-.045c2.423-.006 2.647.04 2.651 1.714l-12.711.03c-4.383.01-9.598 1.484-9.585 8.452.014 6.97 5.236 8.433 9.62 8.433h20.58l-.04-16.382c-.018-7.583-1.934-9.26-10.53-9.229zm2.69 18.621l-12.714.013c-1.576.001-1.79-.79-1.792-1.562s.21-1.564 1.785-1.566l12.713-.018zM125.384 154.026l7.707-.02c6.824-.017 7.468.91 7.468 5.237s-.644 5.256-7.468 5.263l-7.707.008zm-48.02 11.076l-12.723.012c-1.577.002-1.79-.778-1.79-1.541s.213-1.544 1.79-1.546l12.722-.018zM133.9 146.51l-20.572.071-28.097 19.573v-10.328c0-7.485-1.915-9.14-10.518-9.11l-17.586.062v6.877l17.586-.045c2.424-.006 2.649.041 2.649 1.693l-12.722.029c-4.387.01-9.609 1.466-9.609 8.345S60.254 172 64.642 172h24.793l28.13-19.562V172h16.336c11.399 0 14.527-2.745 14.527-12.77s-3.128-12.76-14.527-12.72zm-23.866.083l-22.443.08v7.445l11.686-.028zM92.71 171.999h22.475v-7.474l-11.737.01z"/><g fill="#262626"><path d="M46.389 171.82v-14.147c0-2.925-.62-3.515-3.683-3.507l-5.303.013v17.64h-7.668v-17.621l-8.944.022v17.6h-7.625v-24.71l29.717-.103c8.896-.03 11.202 2.135 11.202 10.532v14.28zM158.433 171.816c-6.168 0-9.43-2.852-9.44-8.249-.011-5.396 3.238-8.255 9.405-8.27l12.892-.029v-.036c-.004-1.995-.244-2.052-2.832-2.045l-17.391.046-.013-6.599 17.39-.061c8.49-.03 10.33 1.576 10.349 9.046l.039 16.197zm-.021-10.104c-1.343.002-1.967.558-1.964 1.75s.629 1.746 1.971 1.745l12.894-.012-.008-3.501z"/></g><path d="M140.74 159.243c0-4.408-.707-5.437-7.65-5.42l-7.885.02v10.854l7.886-.008c6.942-.007 7.648-1.038 7.648-5.446zm-78.068 4.33c0 1.176.626 1.724 1.969 1.723l12.903-.012v-3.456l-12.903.018c-1.343.002-1.969.55-1.969 1.727zm71.229 8.244h-16.156v-19.725l-28.366 19.726H64.641c-6.172.001-9.43-2.814-9.43-8.141s3.258-8.15 9.43-8.164l12.903-.03v-.035c0-1.97-.24-2.026-2.83-2.019l-17.407.045v-6.516l17.407-.06c8.5-.03 10.337 1.556 10.337 8.932v10.669l28.334-19.735 20.516-.071c11.313-.04 14.346 2.605 14.346 12.536s-3.033 12.588-14.346 12.588zm-46.13-17.881v-7.083l21.683-.076-10.232 7.13zm27.234 10.771v7.11H93.289l10.215-7.099z" fill="#262626"/><path d="M168.444 146.94L151.6 147l1.348 1.37 15.498-.05c7.083-.024 8.617 1.273 8.631 7.303l.035 14.445 1.357 1.38-.038-15.828c-.018-7.259-1.687-8.708-9.988-8.679z" fill="url(#b)"/><path d="M158.407 159.693c-2.43.004-3.937 1.45-3.932 3.771.004 2.322 1.517 3.764 3.948 3.763l14.877-.01-.017-7.55zm.013 5.881c-1.542.002-2.328-.71-2.331-2.112s.78-2.115 2.322-2.117l13.254-.02.01 4.238z" fill="url(#a)"/><path d="M178.432 155.62c-.018-7.26-1.687-8.709-9.988-8.68l-17.031.06.011 5.865 17.033-.045c2.845-.008 3.189.251 3.194 2.411v.404l-13.252.03c-6.01.014-9.059 2.678-9.049 7.902.01 5.224 3.071 7.883 9.082 7.882l20.038-.001zm-20.003 14.177c-5.115.001-7.458-1.956-7.467-6.232-.008-4.276 2.327-6.238 7.44-6.248l14.875-.03-.004-2.06c-.01-3.783-2.004-4.07-4.82-4.061l-15.42.044-.005-2.566 15.42-.05c6.949-.023 8.346 1.15 8.36 7.029l.033 14.168z" fill="url(#l)"/><path d="M42.883 147.369l-29.359.1v23.991h6.909v-17.6l9.662-.024v17.623h6.948v-17.64l5.663-.015c3.256-.008 4.044.746 4.044 3.868v13.786h6.973V157.54c0-8.2-2.136-10.201-10.84-10.171zm5.493 22.461V157.67c0-4.014-1.538-5.502-5.67-5.49l-7.283.02v17.635l-3.71.001V152.21l-12.893.035v17.595l-3.685.001v-20.757l27.748-.088c7.397-.024 9.212 1.658 9.212 8.548v12.286z" fill="url(#m)"/><path d="M42.883 147.369l-29.359.1 1.342 1.345 28.017-.09c7.531-.025 9.483 1.789 9.483 8.819V170.1l-4.261.002-1.355 1.356h6.973V157.54c0-8.2-2.136-10.201-10.84-10.171z" fill="url(#n)"/><path d="M42.706 152.45l-7.013.018 1.35 1.35 5.663-.014c3.256-.008 4.044.746 4.044 3.868v13.786l1.355-1.356v-12.433c0-3.864-1.414-5.23-5.399-5.22z" fill="url(#o)"/><path fill="url(#p)" d="M35.693 152.469v17.636l-4.25.001-1.348 1.353 6.948-.001v-17.639l-1.35-1.35z"/><path fill="url(#q)" d="M30.095 153.836v17.623l1.348-1.353V152.48l-1.348 1.356z"/><path fill="#1a1a1a" d="M19.088 152.514l1.345 1.347 9.662-.025 1.348-1.356-12.355.034z"/><path fill="url(#r)" d="M19.088 152.514v17.595l-4.222.001-1.342 1.35h6.909v-17.599l-1.345-1.347z"/><path d="M177.113 170.067l-18.684.005c-5.273.001-7.727-2.064-7.735-6.507-.01-4.442 2.435-6.513 7.708-6.524l14.604-.03-1.354-1.376-13.253.03c-6.01.014-9.059 2.678-9.049 7.902.01 5.224 3.071 7.883 9.082 7.882l20.038-.001z" fill="url(#h)"/><path d="M168.454 151.441l-15.689.045-1.34 1.379 17.032-.045c2.845-.008 3.189.251 3.194 2.411v.404l1.355 1.376-.004-1.783c-.008-3.535-1.807-3.795-4.548-3.787z" fill="url(#c)"/><path fill="url(#d)" d="M171.665 161.326l.009 4.237 1.355 1.378-.016-6.997-1.348 1.382z"/><path d="M158.42 165.574c-1.542.002-2.328-.71-2.331-2.112s.78-2.114 2.322-2.117l13.254-.02 1.348-1.38-14.605.024c-2.3.003-3.669 1.31-3.664 3.495.004 2.185 1.379 3.489 3.679 3.487l14.606-.01-1.355-1.378z" fill="url(#e)"/><path d="M158.41 161.345c-1.541.002-2.324.717-2.321 2.117s.789 2.114 2.33 2.112l13.255-.011-.01-4.237zM62.852 163.573c0 .763.212 1.543 1.789 1.541l12.722-.012v-3.093l-12.722.018c-1.577.002-1.79.783-1.79 1.546zM140.559 159.243c0-4.327-.644-5.254-7.468-5.237l-7.707.02v10.488l7.707-.008c6.824-.007 7.468-.936 7.468-5.263z" fill="none"/><path fill="#262626" d="M94.448 171.453z"/><path fill="url(#f)" d="M94.448 171.453z"/><path fill="#fff" d="M103.499 165.163l.116-.081-.116.081z"/><path fill="#262626" d="M133.901 148.431l-16.336.053 16.336-.053z"/><path fill="url(#s)" d="M133.901 148.431l-16.336.053 16.336-.053z"/><path fill="#262626" d="M119.447 148.795l-1.344 2.603v20.054l1.344-1.369v-21.288z"/><path fill="url(#t)" d="M119.447 148.795l-1.344 2.603v20.054l1.344-1.369v-21.288z"/><path fill="#262626" d="M59.01 148.864l-1.345-1.353v5.6l1.346-1.362-.001-2.885z"/><path fill="url(#u)" d="M59.01 148.864l-1.345-1.353v5.6l1.346-1.362-.001-2.885z"/><path fill="#262626" d="M83.335 169.777l1.355-2.588v-11.358l-1.355.003v13.943z"/><path fill="url(#v)" d="M83.335 169.777l1.355-2.588v-11.358l-1.355.003v13.943z"/><path fill="#262626" d="M74.714 148.621v-1.361l-16.858.058 1.346 1.353 15.512-.05z"/><path fill="url(#w)" d="M74.714 148.621v-1.361l-16.858.058 1.346 1.353 15.512-.05z"/><path d="M83.335 155.834l1.355-.003c0-7.169-1.668-8.6-9.976-8.57v1.36c7.089-.023 8.621 1.258 8.621 7.213z" fill="#262626"/><path d="M83.335 155.834l1.355-.003c0-7.169-1.668-8.6-9.976-8.57v1.36c7.089-.023 8.621 1.258 8.621 7.213z" fill="url(#x)"/><path d="M84.69 155.83c0-7.168-1.668-8.598-9.976-8.57l-16.858.058 1.346 1.353 15.512-.05c7.089-.023 8.621 1.258 8.621 7.213v13.943l1.355-2.588z" fill="url(#y)"/><path d="M88.851 170.09l-24.21.007c-5.276.002-7.727-2.037-7.727-6.422s2.45-6.43 7.727-6.44l14.616-.03-1.353-1.359-13.263.03c-6.014.013-9.071 2.644-9.071 7.8s3.057 7.78 9.071 7.78l24.627-.002z" fill="url(#z)"/><path d="M79.257 155.444c0-3.49-1.8-3.747-4.543-3.739l-15.703.044-1.345 1.362 17.048-.045c2.847-.007 3.19.249 3.19 2.381v.4l1.353 1.358z" fill="#262626"/><path d="M79.257 155.444c0-3.49-1.8-3.747-4.543-3.739l-15.703.044-1.345 1.362 17.048-.045c2.847-.007 3.19.249 3.19 2.381v.4l1.353 1.358z" fill="url(#A)"/><path d="M79.257 155.444c0-3.49-1.8-3.747-4.543-3.739l-15.703.044-1.345 1.362 17.048-.045c2.847-.007 3.19.249 3.19 2.381v.4l1.353 1.358z" fill="url(#B)"/><path fill="#262626" d="M77.904 165.647l1.353 1.36V160.1l-1.353 1.364v4.183z"/><path fill="url(#C)" d="M77.904 165.647l1.353 1.36V160.1l-1.353 1.364v4.183z"/><path fill="url(#D)" d="M77.904 165.647l1.353 1.36V160.1l-1.353 1.364v4.183z"/><path d="M60.967 163.575c0 2.157 1.373 3.444 3.674 3.442l14.616-.01-1.353-1.36-13.263.011c-1.543.001-2.328-.702-2.328-2.085s.785-2.087 2.328-2.09l13.263-.019 1.353-1.364-14.616.024c-2.301.004-3.674 1.294-3.674 3.451z" fill="#262626"/><path d="M60.967 163.575c0 2.157 1.373 3.444 3.674 3.442l14.616-.01-1.353-1.36-13.263.011c-1.543.001-2.328-.702-2.328-2.085s.785-2.087 2.328-2.09l13.263-.019 1.353-1.364-14.616.024c-2.301.004-3.674 1.294-3.674 3.451z" fill="url(#E)"/><path d="M60.967 163.575c0 2.157 1.373 3.444 3.674 3.442l14.616-.01-1.353-1.36-13.263.011c-1.543.001-2.328-.702-2.328-2.085s.785-2.087 2.328-2.09l13.263-.019 1.353-1.364-14.616.024c-2.301.004-3.674 1.294-3.674 3.451z" fill="url(#F)"/><path d="M133.09 152.086l-9.59.026 1.346 1.367 8.245-.021c6.782-.018 8.009.867 8.009 5.784s-1.227 5.806-8.01 5.813l-8.244.008-1.347 1.371 9.592-.007c7.022-.006 9.361-1.045 9.361-7.187s-2.34-7.174-9.361-7.154z" fill="#262626"/><path d="M133.09 152.086l-9.59.026 1.346 1.367 8.245-.021c6.782-.018 8.009.867 8.009 5.784s-1.227 5.806-8.01 5.813l-8.244.008-1.347 1.371 9.592-.007c7.022-.006 9.361-1.045 9.361-7.187s-2.34-7.174-9.361-7.154z" fill="url(#G)"/><path d="M133.09 152.086l-9.59.026 1.346 1.367 8.245-.021c6.782-.018 8.009.867 8.009 5.784s-1.227 5.806-8.01 5.813l-8.244.008-1.347 1.371 9.592-.007c7.022-.006 9.361-1.045 9.361-7.187s-2.34-7.174-9.361-7.154z" fill="url(#H)"/><path fill="#262626" d="M124.846 153.479l-1.347-1.367v14.322l1.347-1.371v-11.584z"/><path fill="url(#I)" d="M124.846 153.479l-1.347-1.367v14.322l1.347-1.371v-11.584z"/><path fill="url(#J)" d="M124.846 153.479l-1.347-1.367v14.322l1.347-1.371v-11.584z"/><path fill="#262626" d="M117.565 148.483l-3.506.012 3.506-.012z"/><path fill="url(#K)" d="M117.565 148.483l-3.506.012 3.506-.012z"/><path fill="#262626" d="M103.931 148.528l4.359-1.382-19.97.069 1.345 1.359 14.266-.046z"/><path fill="url(#L)" d="M103.931 148.528l4.359-1.382-19.97.069 1.345 1.359 14.266-.046z"/><path fill="#262626" d="M89.474 148.767l-1.344-1.359v6.163l1.344-1.367v-3.437z"/><path fill="url(#M)" d="M89.474 148.767l-1.344-1.359v6.163l1.344-1.367v-3.437z"/><path fill="#262626" d="M113.29 166.442l-9.115.006 9.115-.006z"/><path fill="url(#N)" d="M113.29 166.442l-9.115.006 9.115-.006z"/><path fill="#1a1a1a" d="M108.29 147.146l-4.359 1.382-5.238 3.652-9.219.024-1.344 1.367 10.981-.027 9.179-6.398z"/><path fill="#262626" d="M98.796 170.088l5.121-3.559-.418-1.366-9.051 6.29 4.348-1.365z"/><path fill="url(#O)" d="M98.796 170.088l5.121-3.559-.418-1.366-9.051 6.29 4.348-1.365z"/><path fill="url(#P)" d="M98.796 170.088l5.121-3.559-.418-1.366-9.051 6.29 4.348-1.365z"/><path fill="#262626" d="M103.757 165.082l.418 1.366 9.115-.006 1.354-1.369-11.029.009h.142z"/><path fill="url(#Q)" d="M103.757 165.082l.418 1.366 9.115-.006 1.354-1.369-11.029.009h.142z"/><path fill="url(#R)" d="M103.757 165.082l.418 1.366 9.115-.006 1.354-1.369-11.029.009h.142z"/><path fill="#262626" d="M113.29 170.084l-14.494.004-4.348 1.365 20.196-.001v-6.379l-1.354 1.369v3.642z"/><path fill="url(#S)" d="M113.29 170.084l-14.494.004-4.348 1.365 20.196-.001v-6.379l-1.354 1.369v3.642z"/><path fill="url(#T)" d="M113.29 170.084l-14.494.004-4.348 1.365 20.196-.001v-6.379l-1.354 1.369v3.642z"/><path fill="url(#U)" d="M113.8 148.576l-.42-1.367-28.69 19.98-1.355 2.588 30.465-21.201z"/><path fill="url(#V)" d="M113.8 148.576l-.42-1.367-28.69 19.98-1.355 2.588 30.465-21.201z"/><path fill="url(#W)" d="M88.851 170.09l.417 1.364 28.835-20.056 1.344-2.603-30.596 21.295z"/><path d="M133.9 147.058l-20.26.07.419 1.367 19.842-.064c10.384-.034 12.63 1.884 12.63 10.802s-2.246 10.844-12.63 10.846l-14.454.004-1.344 1.37 15.798-.002c11.117 0 13.985-2.502 13.985-12.22s-2.868-12.211-13.985-12.173z" fill="url(#X)"/><g fill="#fff"><path d="M89.474 152.204l9.219-.024 5.238-3.652-14.266.046-1.345-1.36-.19.002v.192l1.344 1.36zM104.175 166.448l-.418-1.366h-.142l-.116.081.418 1.366-5.121 3.559 14.494-.004v-3.642zM42.883 148.724l-27.827.09-1.342-1.346h-.19v.192l1.342 1.345v21.105h4.222v-17.596l12.355-.034v17.626l4.25-.001v-17.636l7.013-.02c3.985-.01 5.399 1.356 5.399 5.22v12.433l4.261-.002v-12.557c0-7.03-1.952-8.844-9.483-8.82zM168.447 148.318l-15.498.051-1.347-1.37h-.19v.195l1.347 1.37.006 2.922 15.689-.045c2.741-.008 4.54.252 4.548 3.787l.004 1.783-14.604.03c-5.273.011-7.717 2.082-7.708 6.524.008 4.443 2.462 6.508 7.735 6.507l18.684-.005-.035-14.445c-.014-6.03-1.548-7.327-8.631-7.304zm4.582 18.623l-14.606.01c-2.3.002-3.675-1.302-3.68-3.487-.004-2.185 1.366-3.492 3.665-3.496l14.605-.024z"/><path d="M133.9 148.43l-19.841.065-.42-1.367h-.142l-.117.081.42 1.367-30.465 21.2v-13.942c0-5.955-1.532-7.236-8.621-7.213l-15.513.05-1.344-1.353h-.192v.193l1.345 1.353v2.885l15.704-.044c2.743-.008 4.543.248 4.543 3.739v1.761l-14.616.03c-5.276.01-7.727 2.055-7.727 6.44s2.45 6.424 7.727 6.422l24.21-.007 30.596-21.295v21.288l14.454-.004c10.384-.002 12.63-1.928 12.63-10.846s-2.246-10.836-12.63-10.802zm-69.259 18.587c-2.301.002-3.674-1.285-3.674-3.442s1.373-3.447 3.674-3.45l14.616-.025v6.907zm68.446-.591l-9.588.007v-14.321l9.588-.027c6.998-.02 9.365.991 9.365 7.154 0 6.183-2.393 7.182-9.365 7.187z"/></g><g><path d="M146.26 159.233c0-8.74-2.14-10.561-12.36-10.528l-14.184.046v21.058l14.185-.004c10.219-.003 12.359-1.831 12.359-10.572zm-23.03 7.475v-14.87l9.86-.027c7.107-.02 9.633 1.1 9.633 7.428s-2.526 7.457-9.632 7.462z" fill="url(#g)"/><path d="M79.527 155.443v2.034l-14.886.03c-5.117.01-7.458 1.947-7.458 6.168s2.34 6.152 7.458 6.15l18.423-.005v-13.986c0-5.804-1.395-6.963-8.35-6.94l-15.434.049v2.534l15.434-.044c2.817-.008 4.813.275 4.813 4.01zm0 11.836l-14.886.01c-2.433.002-3.943-1.422-3.943-3.714s1.51-3.718 3.943-3.722l14.886-.026z" fill="url(#Y)"/><path fill="url(#Z)" d="M103.06 148.804l-13.317.043v3.084l8.866-.024 4.451-3.103z"/><path fill="url(#aa)" d="M113.019 169.81v-3.094l-8.902.006-4.451 3.092 13.353-.004z"/><path d="M42.883 148.995l-27.748.088v20.757h3.685v-17.596l12.893-.035v17.626h3.71v-17.636l7.283-.02c4.132-.012 5.67 1.476 5.67 5.49v12.161h3.719v-12.287c0-6.89-1.815-8.572-9.212-8.548z" fill="url(#ab)"/><path d="M168.448 148.594l-15.42.05.006 2.566 15.42-.044c2.815-.009 4.81.278 4.819 4.061l.004 2.06-14.874.03c-5.114.01-7.45 1.972-7.44 6.248.008 4.276 2.351 6.233 7.466 6.232l18.412-.006-.033-14.168c-.014-5.878-1.411-7.052-8.36-7.029zm-10.025 18.633c-2.431.001-3.944-1.44-3.948-3.763-.005-2.322 1.501-3.767 3.932-3.77l14.876-.026.017 7.549z" fill="url(#ac)"/><path fill="url(#ad)" d="M119.033 148.757l-5.032.011-30.271 21.057 5.038-.007 30.265-21.061z"/></g><path d="M168.283 146.92L151.6 147l1.348 1.37 15.334-.069c7.231-.024 8.795 1.275 8.795 7.315v14.463l1.382 1.382v-15.848c0-7.27-1.701-8.722-10.177-8.692z" fill="url(#ae)"/><path d="M88.851 170.09l-24.216.011c-5.273.001-7.722-2.038-7.722-6.424s2.45-6.43 7.722-6.44l14.622-.032-1.353-1.359-13.269.032c-6.01.013-9.065 2.644-9.065 7.8s3.055 7.782 9.065 7.782l24.633-.006z" fill="url(#af)"/><g><path d="M42.883 147.369v1.355c7.531-.025 9.483 1.789 9.483 8.819l1.357-.003c0-8.2-2.136-10.201-10.84-10.171z" opacity=".5" fill="url(#i)"/><path d="M168.444 146.94l.003 1.378c7.083-.023 8.617 1.274 8.631 7.304l1.354-.003c-.018-7.259-1.687-8.708-9.988-8.679z" opacity=".5" fill="url(#ag)"/><path d="M158.399 155.665c-6.01.014-9.059 2.678-9.049 7.902l1.344-.002c-.01-4.442 2.435-6.513 7.708-6.524z" opacity=".5" fill="url(#ah)"/><path d="M83.335 155.834l1.355-.003c0-7.169-1.668-8.6-9.976-8.57v1.36c7.089-.023 8.621 1.258 8.621 7.213z" opacity=".5" fill="url(#ai)"/><path d="M64.641 157.235v-1.36c-6.014.014-9.071 2.645-9.071 7.801l1.344-.001c0-4.386 2.45-6.43 7.727-6.44z" opacity=".5" fill="url(#aj)"/><path d="M146.53 159.233l1.356-.003c0-9.718-2.868-12.21-13.985-12.172v1.373c10.384-.034 12.63 1.884 12.63 10.802z" opacity=".5" fill="url(#ak)"/></g><g><path d="M152.457 37.442C141.334 25.5 123.38 20.026 96.003 20h-.006c-27.376.025-45.33 5.5-56.454 17.442-8.256 8.862-13.447 21.121-13.447 37.761 0 9.191 2.274 32.622 20.763 44.712 11.072 7.24 25.365 11.921 49.138 11.953h.006c23.773-.032 38.066-4.713 49.138-11.953 18.489-12.09 20.763-35.52 20.763-44.712 0-16.588-5.223-28.934-13.447-37.761zM96 122.233c-8.999-.013-16.3-.75-22.32-2.25a40.423 40.423 0 0 1-14.997-6.92 33.81 33.81 0 0 1-8.114-8.95 44.733 44.733 0 0 1-4.715-10.304 59.765 59.765 0 0 1-2.723-17.385 73.83 73.83 0 0 1 .788-11.065 84.658 84.658 0 0 0 17.939 6.75l1.253.358c7.513 2.154 13.486 4.99 18.26 8.67a35.824 35.824 0 0 1 7.172 7.355 37.343 37.343 0 0 1 5.103 10.044c.565 1.688 1.157 2.733 2.354 2.733s1.788-1.045 2.354-2.733a37.343 37.343 0 0 1 5.103-10.044 35.825 35.825 0 0 1 7.172-7.354c4.774-3.68 10.747-6.517 18.26-8.67q.622-.18 1.253-.359a84.656 84.656 0 0 0 17.939-6.75 73.83 73.83 0 0 1 .788 11.065 59.92 59.92 0 0 1-2.709 17.386 44.551 44.551 0 0 1-4.713 10.302 33.746 33.746 0 0 1-8.13 8.95 40.586 40.586 0 0 1-15 6.917c-6.026 1.503-13.325 2.24-22.315 2.254zm0-41.196c-.217 0-.617-.263-1.294-1.512A44.101 44.101 0 0 0 83.193 65.81a48.544 48.544 0 0 0-12.233-6.974q-1-.397-2.012-.794a130.686 130.686 0 0 1-17.687-8.012 63.393 63.393 0 0 1-1.862-1.12 38.553 38.553 0 0 1 3.899-5.603 35.429 35.429 0 0 1 7.303-6.584 41.93 41.93 0 0 1 9.426-4.702c7.096-2.531 15.591-3.767 25.97-3.777 10.385.01 18.88 1.246 25.976 3.777a41.93 41.93 0 0 1 9.426 4.702 35.427 35.427 0 0 1 7.303 6.584 38.555 38.555 0 0 1 3.899 5.603c-.6.375-1.227.752-1.863 1.12a130.685 130.685 0 0 1-17.687 8.012l-2.011.794a48.543 48.543 0 0 0-12.234 6.974 44.102 44.102 0 0 0-11.512 13.714c-.677 1.25-1.077 1.512-1.294 1.512z"/><path d="M161.892 53.555a47.337 47.337 0 0 0-9.73-15.841c-5.556-5.963-12.742-10.242-21.967-13.083-9.209-2.835-20.393-4.22-34.192-4.233-13.803.013-24.99 1.398-34.198 4.233-9.225 2.84-16.41 7.12-21.967 13.083a47.337 47.337 0 0 0-9.742 15.834 61.924 61.924 0 0 0-3.603 21.656c0 7.253 1.485 31.889 20.594 44.38a65.938 65.938 0 0 0 19.69 8.627c8.306 2.177 17.864 3.243 29.22 3.259h.004c11.358-.015 20.916-1.082 29.222-3.26a65.939 65.939 0 0 0 19.69-8.626c19.109-12.491 20.594-37.127 20.594-44.38a61.89 61.89 0 0 0-3.615-21.649zm-112.97-4.647a38.98 38.98 0 0 1 4.058-5.858c8.675-10.354 22.344-15.186 43.023-15.208 20.673.022 34.342 4.854 43.017 15.208a38.979 38.979 0 0 1 4.058 5.858l.08.145-.14.09q-1.615 1.02-3.368 1.985a140.967 140.967 0 0 1-16.469 7.32l-2.012.795a44.52 44.52 0 0 0-23.51 20.478c-.648 1.196-1.16 1.729-1.659 1.729s-1.011-.533-1.658-1.729A44.52 44.52 0 0 0 70.83 59.243q-.99-.393-1.99-.785l-.022-.01a140.962 140.962 0 0 1-16.469-7.32q-1.755-.965-3.368-1.985l-.14-.09.08-.145zm84.646 64.476c-8.534 6.458-19.767 9.225-37.559 9.252H96c-17.823-.027-29.058-2.794-37.568-9.252-14.958-11.352-15.715-32.78-15.715-36.96a73.619 73.619 0 0 1 .853-11.555l.027-.174.155.085c6.555 3.603 12.642 5.338 18.246 6.934q.633.18 1.258.36c7.557 2.165 13.57 5.02 18.382 8.73a36.202 36.202 0 0 1 7.248 7.43 37.708 37.708 0 0 1 5.155 10.143c.598 1.784 1.13 2.448 1.959 2.448s1.36-.664 1.959-2.448a37.708 37.708 0 0 1 5.155-10.143 36.202 36.202 0 0 1 7.248-7.43c4.812-3.71 10.825-6.565 18.382-8.731q.625-.18 1.258-.36c5.604-1.595 11.691-3.33 18.246-6.933l.155-.086.027.175a73.62 73.62 0 0 1 .853 11.555c0 4.186-.757 25.64-15.715 36.96z" fill="#fff"/><path d="M80.273 121.53c-14.63-2.042-37.243-9.765-37.243-46.906 0-22.185 7.225-46.636 53.234-46.636 39.648 0 52.944 20.415 52.944 46.556a61.007 61.007 0 0 1-4.089 23.172c-6.681 16.445-20.574 21.647-32.863 23.671-8.14 1.346-22.45 1.472-31.983.143zm78.514-46.666c0-28.31-13.327-51.75-62.369-51.75-51.51 0-62.366 28.393-62.366 51.807 0 39.194 26.304 48.705 45.434 50.966a162.346 162.346 0 0 0 32.685.018c18.958-2.219 46.616-11.664 46.616-51.041z" fill-rule="evenodd" fill="url(#al)"/><path d="M80.273 121.53c-14.63-2.042-37.374-9.765-37.243-46.906.081-22.952 9.71-46.636 53.234-46.636 39.722 0 52.363 20.5 52.944 46.556a57.134 57.134 0 0 1-4.003 22.924c-6.791 16.917-20.044 21.793-32.949 23.92-8.14 1.345-22.45 1.47-31.983.142zm78.514-46.666c0-28.31-13.327-51.75-62.369-51.75-51.51 0-62.366 28.393-62.366 51.807 0 39.194 26.304 48.987 45.434 51.248a162.265 162.265 0 0 0 32.65.179c18.958-2.219 46.651-12.107 46.651-51.484z" fill-rule="evenodd" fill="url(#am)"/><path d="M96.487 23.945v3.55c-39.879.096-53.604 21.204-53.604 47.922 0 23.858 10.953 36.822 22.617 42.246 13.387 6.223 28.944 5.13 21.628 7.925-1.786.682-3.275 1.802-9.713 1.05-18.958-2.222-43.195-11.567-43.195-50.942 0-28.29 13.311-51.718 62.267-51.75z" fill-rule="evenodd" fill="url(#an)"/><path d="M165.425 76.016c-.176 14.37-5.116 30.905-16.837 40.629-12.295 10.2-31.18 14.626-52.535 14.626-21.169 0-39.437-3.62-53.252-15.232-10.978-9.228-16.309-25.63-16.309-40.206 0-15.877 5.11-32.713 18.432-42.882 12.739-9.725 33.492-12.724 51.05-12.724 19.62 0 38.635 3.208 51.317 13.33 13.176 10.52 18.331 26.255 18.134 42.459zm-6.929-.525c0-26.31-15.352-51.748-62.363-51.748-51.517 0-62.37 28.392-62.37 51.808 0 39.947 27.324 49.059 46.53 51.087a146.08 146.08 0 0 0 32.1-.04c11.945-1.328 46.103-7.133 46.103-51.107z" fill-rule="evenodd" fill="url(#ao)"/><path d="M35.207 62.504c2.388-6.827 5.384-18.128 14.176-25.93 9.91-8.792 27.33-11.899 32.442-12.49a24.82 24.82 0 0 0-5.985-2.362c-14.331 2.1-26.492 6.014-35.166 15.12-9.157 9.61-11.816 17.453-13.448 28.177 2.995-1.1 4.201-1.363 7.981-2.515z" fill-rule="evenodd" opacity=".74" fill="url(#ap)"/><path d="M95.637 26.079c16.614 0 32.44 2.834 42.36 15.588-15.198-18.817-66.538-19.26-83.468 0 9.924-11.318 24.489-15.588 41.108-15.588z" fill-rule="evenodd" fill="url(#aq)"/><path d="M160.441 100.042a16.575 16.575 0 0 0 1.181-3.006c.16-.535-.142.322-.502.998a9.642 9.642 0 0 1-1.072 1.814 5.766 5.766 0 0 1-2.282 1.965c-1.073.678-2.408 1.117-4.53 2.284-.548.3-.81.516-1.928 1.968-.805 1.04-1.666 2.235-2.111 2.746-1.38 1.591-4.845 4.662-6.853 6.422-1.751 1.528-1.363 1.5 1.114.645 2.219-.765 5.505-2.133 7.45-2.938a7.628 7.628 0 0 0 2.642-1.836 51.14 51.14 0 0 0 6.891-11.062z" fill-rule="evenodd" fill="url(#ar)"/><path d="M34.052 75.44c0-12.662 4.482-29.155 15.277-38.734 9.91-8.792 26.86-12.083 31.97-12.675a24.819 24.819 0 0 0-5.984-2.361c-14.331 2.1-26.494 6.272-35.172 15.378-9.934 10.428-13.569 24.584-13.807 36.344 2.521.736 4.41 1.26 7.716 2.048z" fill-rule="evenodd" opacity=".9" fill="url(#as)"/><path d="M132.013 30.172c2.944.402 13.527 2.7 17.115 4.881 3.412 2.07 2.836 2.152 2.836 2.152l-6.356 2.414s-4.461-4.987-13.595-9.447z" fill-rule="evenodd" opacity=".2" fill="url(#at)"/><path d="M59.646 30.015c-6.301 1.495-14.767 3.65-18.11 5.825-1.575 1.024-5.91 6.69-5.91 6.69l6.143-5.116c2.995-.787 3.15-.945 5.437-1.495a16.593 16.593 0 0 0 6.798-2.687c2.807-1.88 11.943-4.712 5.642-3.217z" fill-opacity=".42" fill-rule="evenodd" opacity=".2" fill="url(#au)"/><path d="M31.322 98.245a4.876 4.876 0 0 0 2.465 2.943c1.266.565 2.276.984 3.542 1.477 2.033.793 3.59 3.502 4.914 5.25a66.237 66.237 0 0 0 7.508 7.23 60.065 60.065 0 0 0 13.121 7.688c.314.126 12.184 5.065 10.869 6.22-.383.337-11.305-2.76-11.813-2.912-9.362-2.846-19.266-8.524-25.854-17.977a60.027 60.027 0 0 1-4.91-9.657c-.464-1.527-.373-1.4.158-.262z" fill-rule="evenodd" fill="url(#av)"/><path d="M157.161 62.658c-2.39-6.822-5.386-18.125-14.177-25.925-9.91-8.792-27.327-11.9-32.44-12.491a24.622 24.622 0 0 1 5.985-2.361c14.332 2.097 26.495 6.27 35.172 15.377 7.286 7.648 10.48 16.583 12.124 23.88-2.516.733-3.36.733-6.664 1.52z" fill-rule="evenodd" opacity=".9" fill="url(#aw)"/><path d="M148.615 44.045l-5.546 4.316-1.856-2.806c1.34-1.849 3.469-5.128 3.726-5.48a3.465 3.465 0 0 1 1.431-1.004c.531-.177 2.878-1.347 4.772-2.056l2.411 2.821z" fill-rule="evenodd" fill="url(#j)"/><path d="M43.49 44.381l5.545 4.318 2.028-3.215c-1.338-1.85-3.463-5.13-3.725-5.482a3.471 3.471 0 0 0-1.432-1.005c-.528-.175-3.064-1.29-4.953-1.998l-2.227 2.764z" fill-rule="evenodd" fill="url(#ax)"/><path d="M43.803 64.58a.08.08 0 0 1-.068-.04c-.017-.034-1.789-3.284-2.55-5.07-.762-1.788-2.405-6.35-2.422-6.396a.08.08 0 0 1 .045-.102.078.078 0 0 1 .103.048c.017.045 1.657 4.604 2.419 6.387.762 1.78 2.524 5.025 2.542 5.059a.077.077 0 0 1-.032.108.08.08 0 0 1-.037.006z" fill="#1a1a1a"/><path d="M43.54 64.58a.08.08 0 0 1-.068-.04c-.017-.034-1.789-3.284-2.55-5.07-.762-1.788-2.405-6.35-2.422-6.396a.08.08 0 0 1 .045-.102.078.078 0 0 1 .103.048c.017.045 1.657 4.604 2.419 6.387.762 1.78 2.524 5.025 2.541 5.059a.077.077 0 0 1-.03.108.08.08 0 0 1-.038.006z" fill="#1a1a1a"/><path d="M51.119 45.51s-.806 1.14-1.185 1.764a72.963 72.963 0 0 0-1.037 1.815 56.224 56.224 0 0 1-5.963-4.463 36.992 36.992 0 0 1-4.609-4.725 37.045 37.045 0 0 1 2.568-2.833s-.096.28.332.778a67.55 67.55 0 0 0 8.897 7.52.968.968 0 0 0 .997.144z" fill-rule="evenodd" fill="url(#k)"/><path d="M140.875 45.438s.798 1.155 1.178 1.78c.35.574 1.116 1.854 1.116 1.854a53.62 53.62 0 0 0 5.821-4.361 38.51 38.51 0 0 0 4.732-4.904c-.496-.627-1.24-1.406-2.58-2.791 0 0 .053.146-.375.643a70.084 70.084 0 0 1-9.049 7.706c-.596.385-.843.073-.843.073z" fill-rule="evenodd" fill="url(#ay)"/><path d="M115.696 66.675a1.517 1.517 0 0 0-.166.08c-3.309 1.651-19.244 19.13-19.637 19.523-.388.394-17.43-13.409-17.743-13.962-.314-.55-29.319-10.995-29.319-10.995l-7.008-.63a14.674 14.674 0 0 0 2.282 4.33c7.285 4.603 20.56 7.013 29.178 10.894 9.091 4.094 15.973 11.37 18.622 17.567 2.573 6.02 2.636 7.4 4.17 7.4 1.54 0 2.337-3.692 3.43-6.025 5.17-11.039 14.162-18.717 33.463-23.926 13.528-3.65 15.161-6.592 15.161-6.592l2.887-6.823s-31.235 7.362-35.32 9.159z" fill="url(#az)"/><path d="M40.732 58.773a44.375 44.375 0 0 0 2.865 5.921 51.02 51.02 0 0 0 8.213 3.659c5.967 1.972 12.897 3.41 18.173 4.618a38.34 38.34 0 0 1 14.304 6c6.862 4.619 8.272 8.091 10.605 12-1.312-3.302-1.406-5.521-5.982-11.202-6.6-8.202-10.845-10.101-20.313-13.592-3.26-1.203-7.796-2.994-13.284-5.04a92.524 92.524 0 0 1-16.793-8.515c-.054-.037 1.254 3.65 2.212 6.151z" fill-rule="evenodd" fill="url(#aA)"/><path d="M104.338 70.349a39.61 39.61 0 0 1 9.493-7.625c7.877-4.817 18.424-6.76 29.327-13.67a45.47 45.47 0 0 0 10.564-9.247s.279 2.245.364 4.884a31.459 31.459 0 0 1-.175 4.68 12.457 12.457 0 0 1-.43 2.417c-4.32 2.897-9.704 6.775-15.267 8.85-5.568 2.077-10.793 3.885-14.097 5.117-14.274 5.344-20.48 13.44-25.142 21.788-2.163 3.881-2.97 4.377-2.97 4.332.012-.16.236-9.224.236-10.553.103 0 .536-.291.96-1.03a53.044 53.044 0 0 1 7.137-9.943z" fill-rule="evenodd" fill="url(#aB)"/><path d="M153.609 52.564a95.945 95.945 0 0 1-17.195 8.32c-5.528 2.044-8.78 2.945-12.061 4.146-9.246 3.385-15.124 6.916-21.94 15.323a34.913 34.913 0 0 0-6.407 11.259v9.176a1.082 1.082 0 0 0 .937-.573 33.943 33.943 0 0 0 .065-4.467 5.18 5.18 0 0 1 .802-3.335c.616-1.126 1.323-2.392 1.8-3.134 3.873-5.974 11.12-10.238 18.347-13.53 6.42-2.923 15.797-4.803 21.996-7.098a76.86 76.86 0 0 0 8.32-3.724s1.375-2.436 2.715-5.5c1.131-2.584 2.678-6.9 2.62-6.863z" fill-rule="evenodd" fill="url(#aC)"/><path d="M94.844 80.396c.622 1.118 1.182.973 1.405.973 0 1.65.032 10.292.038 10.454.006.046-.182-.556-2.345-4.44C85.34 71.978 77.061 69.018 69.291 66.11c-3.298-1.232-9.434-3.594-15-5.667a86.422 86.422 0 0 1-16.157-8.476c-.251-.167.063-1.068-.114-2.615a35.903 35.903 0 0 1-.1-5.008 21.575 21.575 0 0 1 .623-4.567 41.252 41.252 0 0 0 10.299 9.277 82.097 82.097 0 0 0 12.93 6.448c6.097 2.541 11.034 4.038 17.024 7.703a39.082 39.082 0 0 1 9.888 8.111 45.73 45.73 0 0 1 6.16 9.081z" fill-rule="evenodd" fill="url(#aD)"/><path d="M82.962 66.141c3.937 4.144 5.846 6.333 8.573 11.58 1.877 3.6 2.26 3.884 4.62 13.016l-.598-9a76.504 76.504 0 0 0-4.924-7.689c-3.34-4.193-4.054-5.06-7.67-7.907z" fill-rule="evenodd"/><path fill="#fff" d="M96 90.201v-8.385h.303L96 90.201z"/><path d="M94.633 79.564c.617 1.139 1.055 1.554 1.367 1.554.312 0 .75-.415 1.367-1.554a44.988 44.988 0 0 1 23.68-20.63c7.2-2.852 14.803-5.683 21.665-9.988a38.437 38.437 0 0 0-3.946-5.683c-8.426-10.057-22.027-15.068-42.764-15.09h-.004c-20.737.022-34.338 5.033-42.764 15.09a38.435 38.435 0 0 0-3.946 5.683c6.862 4.305 14.466 7.136 21.665 9.988a44.988 44.988 0 0 1 23.68 20.63z" fill="none"/><path d="M98.274 98.483c-.584 1.738-1.168 2.673-2.274 2.673s-1.69-.935-2.273-2.673C88.552 83.058 76.312 76.16 63.165 72.392c-5.906-1.693-12.34-3.39-19.308-7.174a73.3 73.3 0 0 0-.809 11.206c0 7.74 2.038 26.444 15.585 36.695 8.268 6.258 19.357 9.158 37.365 9.185h.004c18.008-.027 29.105-2.916 37.365-9.185 13.509-10.251 15.585-28.955 15.585-36.695a73.301 73.301 0 0 0-.81-11.206c-6.966 3.785-13.401 5.481-19.307 7.174-13.147 3.768-25.387 10.666-30.561 26.09z" fill="none"/><path d="M148.143 65.218a73.301 73.301 0 0 1 .809 11.206c0 7.74-2.076 26.444-15.584 36.696-8.26 6.268-19.358 9.157-37.366 9.184h-.004c-18.008-.027-29.097-2.927-37.365-9.184-13.547-10.252-15.585-28.955-15.585-36.696a73.3 73.3 0 0 1 .81-11.206l-.161-.088a73.768 73.768 0 0 0-.814 11.294c0 4.172.754 25.556 15.65 36.828 8.502 6.434 19.706 9.19 37.46 9.218H96c17.784-.027 28.989-2.784 37.468-9.218 14.895-11.304 15.65-32.662 15.65-36.828a73.768 73.768 0 0 0-.814-11.294l-.161.088zM53.234 43.263c8.426-10.057 22.027-15.068 42.764-15.09h.004c20.737.022 34.338 5.033 42.764 15.09a38.437 38.437 0 0 1 3.946 5.683l.144-.091a38.8 38.8 0 0 0-3.963-5.699c-8.641-10.313-22.27-15.127-42.89-15.148h-.005c-20.62.021-34.25 4.835-42.89 15.148a38.801 38.801 0 0 0-3.964 5.699l.144.09a38.435 38.435 0 0 1 3.946-5.682z"/><path d="M130.047 71.873q-.633.18-1.258.36c-7.536 2.16-13.53 5.006-18.326 8.702a36.036 36.036 0 0 0-7.214 7.396 37.543 37.543 0 0 0-5.133 10.1c-.626 1.866-1.2 2.56-2.116 2.56-.917 0-1.49-.694-2.116-2.56a37.542 37.542 0 0 0-5.133-10.1 36.036 36.036 0 0 0-7.214-7.396c-4.795-3.696-10.79-6.543-18.326-8.703l-1.258-.359c-5.554-1.581-11.58-3.298-18.068-6.83l-.028.175c6.967 3.785 13.402 5.481 19.308 7.174 13.147 3.768 25.387 10.666 30.561 26.09.584 1.74 1.168 2.674 2.274 2.674s1.69-.935 2.274-2.673c5.174-15.425 17.414-22.323 30.561-26.091 5.906-1.693 12.34-3.39 19.308-7.174l-.027-.176c-6.488 3.533-12.515 5.25-18.069 6.831zM148.143 65.218l.16-.088-.027-.176c-.054.03-.107.06-.16.088l.027.176zM43.884 65.042l-.16-.088-.027.176.16.088.027-.176zM49.288 48.946l-.144-.091-.081.142.144.092zM142.793 49.089l.144-.092-.08-.142-.145.09z"/><path d="M128.79 72.232c-7.537 2.16-13.532 5.007-18.327 8.703a36.036 36.036 0 0 0-7.214 7.396 37.543 37.543 0 0 0-5.133 10.1c-.626 1.866-1.2 2.56-2.116 2.56-.917 0-1.49-.694-2.116-2.56a37.542 37.542 0 0 0-5.133-10.1 36.036 36.036 0 0 0-7.214-7.396c-4.795-3.696-10.79-6.543-18.326-8.703l-1.258-.359c-5.6-1.594-11.68-3.327-18.229-6.919a73.527 73.527 0 0 0-.841 11.47c0 4.172.754 25.556 15.65 36.828 8.502 6.434 19.705 9.19 37.46 9.218H96c17.783-.027 28.989-2.784 37.468-9.218 14.895-11.304 15.65-32.662 15.65-36.828a73.527 73.527 0 0 0-.842-11.47c-6.549 3.592-12.63 5.325-18.229 6.92l-1.258.358z" fill="none"/><path d="M95.998 28.008c-20.62.021-34.25 4.835-42.89 15.148a38.806 38.806 0 0 0-4.046 5.841q1.615 1.02 3.368 1.986a140.838 140.838 0 0 0 16.45 7.311l2.012.794a44.681 44.681 0 0 1 23.596 20.554c.606 1.12 1.087 1.642 1.512 1.642.425 0 .906-.522 1.512-1.642a44.681 44.681 0 0 1 23.596-20.554l2.012-.794a140.838 140.838 0 0 0 16.45-7.311q1.755-.966 3.368-1.986a38.806 38.806 0 0 0-4.045-5.84c-8.641-10.314-22.272-15.128-42.895-15.149z" fill="none"/><g fill="#666"><path d="M52.35 51.128a140.965 140.965 0 0 0 16.469 7.32l2.012.795a44.52 44.52 0 0 1 23.51 20.478c.648 1.196 1.16 1.729 1.659 1.729s1.011-.533 1.658-1.729a44.52 44.52 0 0 1 23.511-20.478q.99-.393 1.99-.785l.022-.01a140.962 140.962 0 0 0 16.469-7.32q1.755-.966 3.368-1.985l.14-.09-.08-.145a38.98 38.98 0 0 0-4.058-5.858c-8.675-10.354-22.344-15.186-43.022-15.208-20.674.022-34.343 4.854-43.018 15.208a38.98 38.98 0 0 0-4.058 5.858l-.08.145.14.09q1.615 1.02 3.368 1.985zm.757-7.972c8.641-10.313 22.27-15.127 42.89-15.148 20.624.021 34.255 4.835 42.896 15.148a38.806 38.806 0 0 1 4.045 5.841q-1.615 1.02-3.368 1.986a140.838 140.838 0 0 1-16.45 7.311l-2.012.794a44.681 44.681 0 0 0-23.596 20.554c-.606 1.12-1.087 1.642-1.512 1.642-.425 0-.906-.522-1.512-1.642a44.681 44.681 0 0 0-23.596-20.554l-2.012-.794a140.838 140.838 0 0 1-16.45-7.311q-1.755-.966-3.368-1.986a38.806 38.806 0 0 1 4.045-5.84z"/><path d="M148.43 64.87l-.027-.176-.155.086c-6.555 3.603-12.642 5.338-18.246 6.934l-1.258.359c-7.557 2.166-13.57 5.021-18.382 8.73a36.201 36.201 0 0 0-7.248 7.431 37.707 37.707 0 0 0-5.155 10.143c-.598 1.784-1.13 2.448-1.959 2.448s-1.36-.664-1.959-2.448a37.708 37.708 0 0 0-5.155-10.143 36.202 36.202 0 0 0-7.248-7.43c-4.812-3.71-10.825-6.565-18.382-8.731q-.625-.18-1.258-.36c-5.604-1.595-11.691-3.33-18.246-6.933l-.155-.086-.027.175a73.62 73.62 0 0 0-.853 11.555c0 4.186.757 25.64 15.715 36.96 8.534 6.458 19.767 9.225 37.56 9.252H96c17.823-.027 29.058-2.794 37.568-9.252 14.958-11.352 15.715-32.78 15.715-36.96a73.62 73.62 0 0 0-.853-11.555zm-14.962 48.382c-8.48 6.434-19.685 9.191-37.468 9.218h-.008c-17.754-.027-28.957-2.784-37.46-9.218-14.895-11.272-15.65-32.656-15.65-36.828a73.527 73.527 0 0 1 .842-11.47c6.549 3.592 12.63 5.325 18.229 6.92l1.258.358c7.536 2.16 13.53 5.007 18.326 8.703a36.036 36.036 0 0 1 7.214 7.396 37.542 37.542 0 0 1 5.133 10.1c.626 1.866 1.2 2.56 2.116 2.56.917 0 1.49-.694 2.116-2.56a37.543 37.543 0 0 1 5.133-10.1 36.036 36.036 0 0 1 7.214-7.396c4.795-3.696 10.79-6.543 18.326-8.703l1.258-.359c5.6-1.594 11.68-3.327 18.229-6.919a73.527 73.527 0 0 1 .841 11.47c0 4.166-.754 25.524-15.65 36.828z"/></g><path d="M38.292 40.082c.124-.552.276-.472.178-.02a37.253 37.253 0 0 0-.41 7.163 29.187 29.187 0 0 0 .46 4.246.683.683 0 0 0-.75.407 35.864 35.864 0 0 1 .522-11.796z" fill="#fff" fill-rule="evenodd"/><path d="M153.881 40.27c-.123-.552-.275-.472-.177-.02a37.892 37.892 0 0 1 .348 7.135 24.75 24.75 0 0 1-.547 4.286c.265-.02.624.345.731.692a37.091 37.091 0 0 0-.355-12.093z" fill="#ccc" fill-rule="evenodd"/><path d="M165.839 75.204c0 9.18-2.272 32.583-20.744 44.658-11.062 7.231-25.341 11.908-49.092 11.94h-.006c-23.751-.032-38.03-4.709-49.092-11.94-18.472-12.075-20.744-35.478-20.744-44.658 0-16.568 5.219-28.9 13.435-37.717 11.113-11.926 29.05-17.395 56.401-17.42h.006c27.35.025 45.288 5.494 56.401 17.42 8.249 8.852 13.435 21.097 13.435 37.717zm-69.84 56.432h.004c11.37-.016 20.943-1.083 29.262-3.265a66.102 66.102 0 0 0 19.74-8.648c19.177-12.537 20.668-37.245 20.668-44.519a62.09 62.09 0 0 0-3.614-21.713 47.501 47.501 0 0 0-9.776-15.89c-5.576-5.985-12.785-10.28-22.04-13.128-9.224-2.84-20.424-4.228-34.246-4.24-13.816.012-25.016 1.4-34.24 4.24-9.255 2.849-16.464 7.143-22.04 13.128a47.502 47.502 0 0 0-9.764 15.896 62.054 62.054 0 0 0-3.626 21.707c0 7.274 1.49 31.982 20.669 44.52a66.102 66.102 0 0 0 19.739 8.647c8.32 2.182 17.891 3.25 29.262 3.265z"/><path d="M95.997 131.636c-11.37-.016-20.943-1.083-29.262-3.265a66.102 66.102 0 0 1-19.74-8.648c-19.177-12.537-20.668-37.245-20.668-44.519a62.054 62.054 0 0 1 3.626-21.707 47.502 47.502 0 0 1 9.764-15.896c5.576-5.985 12.785-10.28 22.04-13.128 9.224-2.84 20.424-4.228 34.24-4.24 13.822.012 25.022 1.4 34.247 4.24 9.254 2.849 16.463 7.143 22.04 13.128a47.501 47.501 0 0 1 9.775 15.89 62.09 62.09 0 0 1 3.614 21.713c0 7.274-1.49 31.982-20.669 44.52a66.102 66.102 0 0 1-19.739 8.647c-8.32 2.182-17.891 3.25-29.262 3.265h-.006zm.005-.166c11.357-.015 20.915-1.081 29.221-3.26a65.938 65.938 0 0 0 19.69-8.625c19.109-12.492 20.594-37.128 20.594-44.38a61.924 61.924 0 0 0-3.603-21.657 47.337 47.337 0 0 0-9.742-15.834c-5.556-5.963-12.742-10.242-21.967-13.083-9.209-2.835-20.395-4.22-34.198-4.233-13.799.013-24.983 1.398-34.192 4.233-9.225 2.84-16.41 7.12-21.967 13.083a47.337 47.337 0 0 0-9.73 15.841 61.89 61.89 0 0 0-3.615 21.65c0 7.252 1.485 31.888 20.594 44.38a65.939 65.939 0 0 0 19.69 8.626c8.306 2.178 17.864 3.244 29.222 3.259z" fill="url(#aE)"/><path d="M153.45 53.17a.08.08 0 0 0-.047-.102.078.078 0 0 0-.102.048c-.017.046-1.64 4.61-2.395 6.396-.755 1.784-2.506 5.034-2.523 5.069a.077.077 0 0 0 .032.108.08.08 0 0 0 .037.005.08.08 0 0 0 .068-.04 55.549 55.549 0 0 0 2.516-5.086c.958-2.324 2.413-6.398 2.413-6.398zM38.57 53.17a.08.08 0 0 1 .047-.102.078.078 0 0 1 .102.048c.017.046 1.64 4.61 2.395 6.396.755 1.784 2.506 5.034 2.523 5.069a.077.077 0 0 1-.032.108.08.08 0 0 1-.037.005.08.08 0 0 1-.068-.04 55.549 55.549 0 0 1-2.516-5.086c-.958-2.324-2.413-6.398-2.413-6.398z" fill="#1a1a1a"/><path d="M135.501 111.794c.96-.855.768-.81-.433.185a34.746 34.746 0 0 1-6.141 4.241c-1.028.533-2.011 1.118-3.115 1.568-9.774 3.993-16.391 4.422-28.038 4.783l-.887.026q-.442.002-.887.002c-9.647 0-19.829-.899-28.153-4.002-1.117-.415-2.236-.963-3.28-1.464a43.676 43.676 0 0 1-6.035-3.881c-1.228-.962-1.555-1.08-.57-.256-.69-.494-.568-.38.358.47 7.302 6.676 15.468 9.358 27.759 10.207a96.653 96.653 0 0 0 10.834.299 96.651 96.651 0 0 0 10.82-.635c12.258-1.23 20.333-4.163 27.425-11.063.899-.877 1.017-.996.343-.48z" fill-rule="evenodd" fill="url(#aF)"/><path d="M155.629 55.826a48.266 48.266 0 0 0-1.312-3.41.885.885 0 0 0-.812-.595.942.942 0 0 0-.527.173c-8.625 5.866-17.656 9.049-24.912 11.607-6.506 2.293-12.65 4.46-16.693 7.373a47.065 47.065 0 0 0-8.932 8.788A57.863 57.863 0 0 0 96 90.42a57.865 57.865 0 0 0-6.441-10.66 47.063 47.063 0 0 0-8.932-8.787c-4.043-2.914-10.188-5.08-16.694-7.373-7.256-2.558-16.286-5.741-24.91-11.607a.942.942 0 0 0-.528-.173.885.885 0 0 0-.812.596 48.275 48.275 0 0 0-1.312 3.41 64.539 64.539 0 0 0-3.137 21.105c0 8.454 1.808 29.347 18.553 40.746a53.793 53.793 0 0 0 17.892 7.725c7.203 1.753 15.738 2.62 26.088 2.65v.001h.465v-.001c10.35-.03 18.886-.897 26.089-2.65a53.793 53.793 0 0 0 17.892-7.725c16.745-11.399 18.552-32.292 18.552-40.746a64.538 64.538 0 0 0-3.136-21.106zm-15.51 61.716a53.63 53.63 0 0 1-17.838 7.7c-7.228 1.76-15.803 2.625-26.215 2.646h-.132c-10.412-.021-18.987-.887-26.215-2.646a53.63 53.63 0 0 1-17.838-7.7C35.2 106.187 33.4 85.36 33.4 76.932a64.378 64.378 0 0 1 3.127-21.052 48.117 48.117 0 0 1 1.307-3.398.727.727 0 0 1 .66-.496.777.777 0 0 1 .434.144c8.643 5.878 17.684 9.066 24.95 11.627 6.493 2.289 12.627 4.451 16.65 7.351a47.062 47.062 0 0 1 8.9 8.757A58.535 58.535 0 0 1 96 90.786a58.534 58.534 0 0 1 6.571-10.921 47.063 47.063 0 0 1 8.9-8.757c4.022-2.9 10.156-5.062 16.65-7.351 7.266-2.561 16.307-5.749 24.95-11.627a.777.777 0 0 1 .434-.144.727.727 0 0 1 .66.496c.472 1.1.912 2.244 1.307 3.398a64.377 64.377 0 0 1 3.127 21.052c0 8.427-1.8 29.255-18.48 40.61z" fill="url(#aG)"/><path d="M47.183 39.9a.191.191 0 0 1-.136-.055 3.44 3.44 0 0 0-.634-.48.22.22 0 0 1-.107-.165c-.02-.174-.122-.166.384-.658l.06-.058a40.372 40.372 0 0 1 2.467-2.295 43.625 43.625 0 0 1 4.832-3.619 51.919 51.919 0 0 1 11.224-5.38 75.682 75.682 0 0 1 13.916-3.267 120.032 120.032 0 0 1 16.555-1.11h.516a120.08 120.08 0 0 1 16.57 1.11 75.684 75.684 0 0 1 13.917 3.266 51.917 51.917 0 0 1 11.224 5.381 43.624 43.624 0 0 1 4.832 3.62c.83.708 1.757 1.572 2.48 2.308l.071.069c.455.432.336.468.318.635a.222.222 0 0 1-.109.167 3.39 3.39 0 0 0-.625.507.195.195 0 0 1-.138.055c-.2 0-.336-.4-.56-.641-10.215-10.15-25.99-15.095-48.23-15.117-22.248.022-38.02 4.957-48.214 15.089-.3.322-.428.637-.613.637z" fill="#b3b3b3"/><path d="M153.51 52.892l-.079-.185-.167.113a81.705 81.705 0 0 1-11.445 6.246c-4.247 1.997-8.902 3.645-13.404 5.239-6.432 2.278-12.508 4.429-16.429 7.267-6.01 4.352-11.619 11.534-15.386 19.704-.272.59-.395.743-.6.743s-.328-.153-.6-.743c-3.767-8.17-9.375-15.352-15.386-19.704-3.92-2.838-9.996-4.99-16.429-7.267-4.502-1.594-9.157-3.242-13.404-5.239a81.713 81.713 0 0 1-11.445-6.246l-.167-.113-.079.185c-2.9 6.838-4.31 14.682-4.31 23.979 0 8.313 1.768 28.855 18.14 40.014 10.214 6.961 23.673 10.084 43.63 10.123h.1c19.957-.039 33.415-3.162 43.63-10.123 16.372-11.159 18.14-31.7 18.14-40.014 0-9.298-1.41-17.141-4.31-23.979zm-14.017 63.719c-10.165 6.928-23.579 10.032-43.492 10.065-19.915-.033-33.33-3.137-43.494-10.065-16.241-11.07-17.995-31.48-17.995-39.74 0-9.168 1.376-16.911 4.205-23.664a82.96 82.96 0 0 0 11.322 6.16c4.262 2.003 8.926 3.654 13.435 5.25 6.41 2.27 12.464 4.413 16.345 7.224 5.966 4.32 11.535 11.454 15.28 19.573.268.583.462.986.9.986s.634-.403.903-.986c3.744-8.12 9.313-15.254 15.279-19.573 3.881-2.81 9.935-4.954 16.345-7.223 4.51-1.597 9.172-3.248 13.434-5.252a82.952 82.952 0 0 0 11.323-6.159c2.829 6.753 4.205 14.496 4.205 23.664 0 8.26-1.754 28.67-17.995 39.74z" opacity=".9" fill="url(#aH)"/><path d="M153.51 52.892l-.079-.185-.167.113a81.705 81.705 0 0 1-11.445 6.246c-4.247 1.997-8.902 3.645-13.404 5.239-6.432 2.278-12.508 4.429-16.429 7.267-6.01 4.352-11.619 11.534-15.386 19.704-.272.59-.395.743-.6.743s-.328-.153-.6-.743c-3.767-8.17-9.375-15.352-15.386-19.704-3.92-2.838-9.996-4.99-16.429-7.267-4.502-1.594-9.157-3.242-13.404-5.239a81.713 81.713 0 0 1-11.445-6.246l-.167-.113-.079.185c-2.9 6.838-4.31 14.682-4.31 23.979 0 8.313 1.768 28.855 18.14 40.014 10.214 6.961 23.673 10.084 43.63 10.123h.1c19.957-.039 33.415-3.162 43.63-10.123 16.372-11.159 18.14-31.7 18.14-40.014 0-9.298-1.41-17.141-4.31-23.979zm-14.017 63.719c-10.165 6.928-23.579 10.032-43.492 10.065-19.915-.033-33.33-3.137-43.494-10.065-16.241-11.07-17.995-31.48-17.995-39.74 0-9.168 1.376-16.911 4.205-23.664a82.96 82.96 0 0 0 11.322 6.16c4.262 2.003 8.926 3.654 13.435 5.25 6.41 2.27 12.464 4.413 16.345 7.224 5.966 4.32 11.535 11.454 15.28 19.573.268.583.462.986.9.986s.634-.403.903-.986c3.744-8.12 9.313-15.254 15.279-19.573 3.881-2.81 9.935-4.954 16.345-7.223 4.51-1.597 9.172-3.248 13.434-5.252a82.952 82.952 0 0 0 11.323-6.159c2.829 6.753 4.205 14.496 4.205 23.664 0 8.26-1.754 28.67-17.995 39.74z" fill="url(#aI)"/><path d="M155.472 55.565a48.432 48.432 0 0 0-1.307-3.413.727.727 0 0 0-.66-.497.775.775 0 0 0-.434.145c-8.643 5.903-17.684 9.104-24.95 11.677-6.494 2.299-12.628 4.47-16.65 7.383a47.161 47.161 0 0 0-8.9 8.795A58.84 58.84 0 0 0 96 90.624a58.842 58.842 0 0 0-6.571-10.97 47.16 47.16 0 0 0-8.9-8.794c-4.023-2.913-10.156-5.084-16.65-7.383-7.266-2.573-16.307-5.774-24.95-11.677a.774.774 0 0 0-.434-.145.727.727 0 0 0-.66.497 48.435 48.435 0 0 0-1.307 3.413 64.918 64.918 0 0 0-3.127 21.144c0 8.465 1.8 29.383 18.48 40.787a53.51 53.51 0 0 0 17.838 7.734c7.228 1.767 15.804 2.636 26.215 2.657h.132c10.412-.021 18.987-.89 26.215-2.657a53.51 53.51 0 0 0 17.838-7.734c16.68-11.404 18.48-32.322 18.48-40.787a64.917 64.917 0 0 0-3.127-21.144zm-15.802 61.306c-10.22 6.966-23.688 10.087-43.67 10.12-19.982-.033-33.45-3.154-43.67-10.12-16.366-11.154-18.133-31.69-18.133-40 0-9.368 1.433-17.265 4.38-24.14a81.088 81.088 0 0 0 11.597 6.35c4.247 1.997 8.903 3.646 13.406 5.24 6.431 2.277 12.506 4.428 16.424 7.265 6.009 4.35 11.615 11.53 15.38 19.697.25.54.373.715.55.746v.006h.132v-.006c.177-.031.3-.207.55-.746 3.765-8.168 9.371-15.347 15.38-19.697 3.918-2.837 9.993-4.988 16.425-7.265 4.502-1.594 9.158-3.243 13.405-5.24a81.092 81.092 0 0 0 11.597-6.35c2.947 6.875 4.38 14.772 4.38 24.14 0 8.31-1.767 28.846-18.133 40zM151.04 36.931c-.908.393-3.884 1.384-5.126 1.795l-.035.011a.822.822 0 0 1-.255.04.655.655 0 0 1-.47-.17 40.841 40.841 0 0 0-2.469-2.299 43.457 43.457 0 0 0-4.814-3.606 51.752 51.752 0 0 0-11.188-5.363 75.515 75.515 0 0 0-13.886-3.26 120.142 120.142 0 0 0-16.703-1.107H95.9a120.12 120.12 0 0 0-16.697 1.108 75.514 75.514 0 0 0-13.886 3.259 51.753 51.753 0 0 0-11.188 5.363 43.454 43.454 0 0 0-4.814 3.606 40.188 40.188 0 0 0-2.457 2.285.832.832 0 0 1-.525.217.696.696 0 0 1-.234-.047l-.037-.012c-1.242-.41-4.178-1.387-5.084-1.78l-.059.07c.284.123.841.429 1.506.727l.007.003c1.334.599 2.994 1.344 3.312 1.45a2.494 2.494 0 0 1 .478.225 3.614 3.614 0 0 1 .666.506 1.639 1.639 0 0 1 .166.186c.155.21 3.38 4.536 4.009 5.396l.056-.078c-.026-.039-2.673-3.977-3.484-5.148a1.037 1.037 0 0 1 .032-1.17C57.894 28.973 73.704 24.021 96 24c22.289.022 38.116 4.998 48.349 15.168a1 1 0 0 1 0 1.147 782.324 782.324 0 0 0-3.478 5.128l.068.09.054-.075c.628-.86 3.757-5.139 3.913-5.349a1.734 1.734 0 0 1 .171-.192 3.642 3.642 0 0 1 .657-.531 3.513 3.513 0 0 1 .544-.281c.318-.106 1.943-.844 3.277-1.443.667-.3 1.303-.522 1.587-.646z" fill="#fff"/><path d="M63.21 72.232c7.537 2.16 13.532 5.007 18.327 8.703a36.036 36.036 0 0 1 7.214 7.396 37.543 37.543 0 0 1 5.133 10.1c.626 1.866 1.2 2.56 2.116 2.56.917 0 1.49-.694 2.116-2.56a37.543 37.543 0 0 1 5.133-10.1 36.036 36.036 0 0 1 7.214-7.396c4.795-3.696 10.79-6.543 18.326-8.703l1.258-.359c5.6-1.594 11.68-3.327 18.229-6.919a73.528 73.528 0 0 1 .841 11.47c0 4.172-.754 25.556-15.65 36.828-8.502 6.434-19.705 9.19-37.46 9.218H96c-17.783-.027-28.989-2.784-37.468-9.218-14.895-11.304-15.65-32.662-15.65-36.828a73.527 73.527 0 0 1 .842-11.47c6.549 3.592 12.63 5.325 18.229 6.92l1.258.358z" fill="none"/><path d="M96.002 28.008c20.62.021 34.25 4.835 42.89 15.148a38.807 38.807 0 0 1 4.046 5.841q-1.615 1.02-3.368 1.986a140.837 140.837 0 0 1-16.45 7.311l-2.012.794a44.681 44.681 0 0 0-23.596 20.554c-.606 1.12-1.087 1.642-1.512 1.642-.425 0-.906-.522-1.512-1.642a44.681 44.681 0 0 0-23.596-20.554l-2.012-.794a140.837 140.837 0 0 1-16.45-7.311q-1.755-.966-3.368-1.986a38.807 38.807 0 0 1 4.045-5.84c8.641-10.314 22.272-15.128 42.895-15.149z" fill="none"/><g fill="#4d4d4d"><path d="M143.018 49.142l.14-.089-.08-.145a38.98 38.98 0 0 0-4.058-5.858c-8.675-10.354-22.344-15.186-43.017-15.208-20.679.022-34.348 4.854-43.023 15.208a38.98 38.98 0 0 0-4.058 5.858l-.08.145.14.09q1.615 1.02 3.368 1.985a140.96 140.96 0 0 0 16.469 7.32l.023.01q.999.393 1.989.785a44.52 44.52 0 0 1 23.51 20.478c.648 1.196 1.16 1.729 1.659 1.729s1.011-.533 1.658-1.729a44.52 44.52 0 0 1 23.511-20.478q1.001-.397 2.012-.794a140.965 140.965 0 0 0 16.469-7.321q1.755-.966 3.368-1.986zm-.08-.145q-1.615 1.02-3.368 1.986a140.837 140.837 0 0 1-16.45 7.311l-2.012.794a44.681 44.681 0 0 0-23.596 20.554c-.606 1.12-1.087 1.642-1.512 1.642-.425 0-.906-.522-1.512-1.642a44.681 44.681 0 0 0-23.596-20.554l-2.012-.794a140.837 140.837 0 0 1-16.45-7.311q-1.755-.966-3.368-1.986a38.807 38.807 0 0 1 4.045-5.84c8.641-10.314 22.272-15.128 42.895-15.149 20.62.021 34.25 4.835 42.89 15.148a38.807 38.807 0 0 1 4.046 5.841z"/><path d="M42.717 76.424c0 4.18.757 25.608 15.715 36.96 8.51 6.458 19.745 9.225 37.568 9.252h.009c17.792-.027 29.025-2.794 37.559-9.252 14.958-11.32 15.715-32.774 15.715-36.96a73.62 73.62 0 0 0-.853-11.555l-.027-.175-.155.086c-6.555 3.603-12.642 5.338-18.246 6.934l-1.258.359c-7.557 2.166-13.57 5.021-18.382 8.73a36.202 36.202 0 0 0-7.248 7.431 37.708 37.708 0 0 0-5.155 10.143c-.598 1.784-1.13 2.448-1.959 2.448s-1.36-.664-1.959-2.448a37.708 37.708 0 0 0-5.155-10.143 36.202 36.202 0 0 0-7.248-7.43c-4.812-3.71-10.825-6.565-18.382-8.731q-.625-.18-1.258-.36c-5.604-1.595-11.691-3.33-18.246-6.933l-.155-.086-.027.175a73.619 73.619 0 0 0-.853 11.555zm.166 0a73.527 73.527 0 0 1 .841-11.47c6.549 3.592 12.63 5.325 18.229 6.92l1.258.358c7.536 2.16 13.53 5.007 18.326 8.703a36.036 36.036 0 0 1 7.214 7.396 37.543 37.543 0 0 1 5.133 10.1c.626 1.865 1.2 2.56 2.116 2.56.917 0 1.49-.695 2.116-2.56a37.543 37.543 0 0 1 5.133-10.1 36.036 36.036 0 0 1 7.214-7.396c4.795-3.696 10.79-6.543 18.326-8.703l1.258-.359c5.6-1.594 11.68-3.327 18.229-6.919a73.528 73.528 0 0 1 .841 11.47c0 4.172-.754 25.556-15.65 36.828-8.502 6.434-19.705 9.19-37.46 9.218H96c-17.783-.027-28.989-2.784-37.468-9.218-14.895-11.304-15.65-32.662-15.65-36.828z"/></g><path d="M96 131.636h-.003c-11.37-.016-20.943-1.083-29.262-3.265a66.102 66.102 0 0 1-19.74-8.648c-19.177-12.537-20.668-37.245-20.668-44.519a62.09 62.09 0 0 1 3.614-21.713 47.501 47.501 0 0 1 9.776-15.89c5.576-5.985 12.785-10.28 22.04-13.128 9.224-2.84 20.424-4.228 34.246-4.24 13.816.012 25.016 1.4 34.24 4.24 9.255 2.849 16.464 7.143 22.04 13.128a47.502 47.502 0 0 1 9.764 15.896 62.054 62.054 0 0 1 3.626 21.707c0 7.274-1.49 31.982-20.669 44.52a66.102 66.102 0 0 1-19.739 8.647c-8.32 2.182-17.891 3.25-29.262 3.265zm0-.166c11.36-.015 20.917-1.081 29.223-3.26a65.939 65.939 0 0 0 19.69-8.625c19.109-12.492 20.594-37.128 20.594-44.38a61.89 61.89 0 0 0-3.615-21.65 47.337 47.337 0 0 0-9.73-15.841c-5.556-5.963-12.742-10.242-21.967-13.083-9.209-2.835-20.393-4.22-34.192-4.233-13.803.013-24.99 1.398-34.198 4.233-9.225 2.84-16.41 7.12-21.967 13.083a47.338 47.338 0 0 0-9.742 15.834 61.924 61.924 0 0 0-3.603 21.656c0 7.253 1.485 31.89 20.594 44.38a65.938 65.938 0 0 0 19.69 8.627c8.306 2.178 17.864 3.244 29.22 3.259z" fill="url(#aJ)"/></g></svg>