<?xml version="1.0" encoding="utf-8"?>
<!-- Generator: Adobe Illustrator 23.0.3, SVG Export Plug-In . SVG Version: 6.00 Build 0)  -->
<svg version="1.1" id="Livello_1" xmlns="http://www.w3.org/2000/svg" xmlns:xlink="http://www.w3.org/1999/xlink" x="0px" y="0px"
	 viewBox="0 0 192 192" style="enable-background:new 0 0 192 192;" xml:space="preserve">
<style type="text/css">
	.st0{fill:url(#SVGID_1_);}
	.st1{fill:url(#SVGID_2_);}
	.st2{opacity:0.4;fill:url(#SVGID_3_);enable-background:new    ;}
	.st3{fill:#FFFFFF;}
	.st4{opacity:0.4;fill:url(#SVGID_4_);enable-background:new    ;}
	.st5{fill:#565F64;}
	.st6{fill:url(#SVGID_5_);}
	.st7{fill:#A4AAAE;fill-opacity:0.6;}
	.st8{fill:#333E46;}
	.st9{fill:url(#SVGID_6_);}
	.st10{fill:url(#SVGID_7_);fill-opacity:0.8;}
	.st11{opacity:0.8;fill:url(#SVGID_8_);enable-background:new    ;}
	.st12{fill:url(#SVGID_9_);}
	.st13{fill:url(#SVGID_10_);}
	.st14{fill:url(#SVGID_11_);}
	.st15{fill:url(#SVGID_12_);}
	.st16{fill:url(#SVGID_13_);}
	.st17{fill:url(#SVGID_14_);}
	.st18{fill:#FBFBFB;}
	.st19{fill:#333F47;}
</style>
<title>mercedes-benz</title>
<g>
	<path d="M106.2,156.4c0-4.3-1.9-7.7-6-7.7c-3.8,0-6,3.4-6,7.7s1.8,7.7,6,7.7c4.1,0,5.3-2,5.9-5.2l-1.4,0c-0.1,1.2-0.9,3.9-3.9,3.9
		c-3.4,0.1-3.6-4.3-3.6-6.4H106.2z M100.3,150c2.5,0,2.9,3.2,2.9,5.2h-5.9C97.2,153.9,97.1,150,100.3,150z"/>
	<path d="M78.9,156.4c0-4.3-1.9-7.7-6-7.7c-3.8,0-6,3.4-6,7.7s1.8,7.7,6,7.7c4.1,0,5.3-2,5.9-5.2l-1.4,0c-0.1,1.2-0.9,3.9-3.9,3.9
		c-3.4,0.1-3.6-4.3-3.6-6.4H78.9z M73,150c2.5,0,2.9,3.2,2.9,5.2H70C70,153.9,69.8,150,73,150z"/>
	<path d="M91.9,160.6v-16.7c0-0.7-0.4-1.3-1-1.1c-1.1,0.4-2.3,0.6-3.5,0.7v0.6c1.7-0.1,1.9,0.4,1.9,1v5.1c-0.8-0.9-2-1.4-3.3-1.4
		c-2,0-5.8,1.6-5.8,7.3c0,7.5,4.4,8,5.7,8c1.3-0.1,2.5-0.7,3.4-1.6c0-0.1,0.2-0.3,0.3,0c0.1,0.5,0.4,1.3,1,1.2
		c1.1-0.4,2.3-0.6,3.5-0.7v-0.6C91.6,162.5,91.9,161.2,91.9,160.6z M89.3,158.8c-0.1,3.3-1.8,4.3-3.2,4.3c-3.2-0.1-3-5-3-7.1
		c0-2.1,0.1-6.2,3.1-5.9c2.9,0.4,3.2,3.5,3.2,5.3V158.8z"/>
	<path d="M28.6,161.6C28.6,161.6,28.6,161.6,28.6,161.6l-0.3-16.1c0.1-0.6,0.6-1.1,1.2-1.1h1.1v-1h-5.4l-5.6,14.7l-5.6-14.7H8.4v0
		l-0.1,1h0.9c0.7,0,1.5,0.1,1.5,0.9l-0.3,16.2c0,0.6-0.3,1.3-1.5,1.3H8.1l-0.1,1h6v-1h-1c-0.8,0-1.3-0.2-1.3-1.3L12,146l6.5,16.7
		h0.7l6.5-16.9l0.3,15.7c-0.1,0.7-0.7,1.3-1.4,1.3h-1.3v1h7.6v-1H30C29.3,162.9,28.7,162.3,28.6,161.6z"/>
	<path d="M116,156c-1.8-0.7-3.3-1.6-4.5-2.2c-0.8-0.4-1.2-1.2-1.1-2c0.2-1,1-2,2.9-2c1.9-0.1,2.9,1.6,3.1,3.4h0.7v-4.8h-0.6
		l-0.7,1.1c-0.8-0.7-1.9-1-2.9-1c-1.7,0-3.2,0.9-4.1,2.3c-1.1,1.7-0.6,3.9,1,5c0.2,0.2,0.5,0.3,0.8,0.4c2.6,1.1,3.8,1.7,4.5,2.1
		c0.8,0.6,1.1,1.7,0.7,2.6c-0.5,1.1-1.6,1.8-2.8,1.8c-2.2-0.1-4-1.8-4.2-4.1h-0.6v5.1h0.7l0.6-1.3c0.9,0.9,2.2,1.4,3.5,1.4
		c1.9,0,3.7-1,4.8-2.6C118.5,159.6,118,156.9,116,156z"/>
	<path d="M43,156.4c0-4.3-1.9-7.7-6-7.7c-3.8,0-6,3.4-6,7.7s1.8,7.7,6,7.7c4.1,0,5.3-2,5.9-5.2l-1.4,0c-0.1,1.2-0.9,3.9-3.9,3.9
		c-3.4,0.1-3.6-4.3-3.6-6.4H43z M37.1,150c2.5,0,2.9,3.2,2.9,5.2h-5.9C34.1,153.9,34,150,37.1,150z"/>
	<path d="M51.8,148.8c-0.1,0-0.3,0-0.4,0c-1,0-2,0.5-2.7,1.3c-0.3,0.5-0.8,0.3-0.8-0.2c-0.1-0.5-0.3-1.1-0.9-0.9
		c-1.1,0.4-2.3,0.6-3.5,0.7v0.6c2.5-0.1,2.3,1.1,2.3,1.7v9.8c0,1.1-1,1.3-1.5,1.3h-0.8v0.8h7v0v0V163h-0.6c-0.5,0-1.5-0.2-1.5-1.3
		v-7.8c0-2.5,1.3-3.3,2.5-3.3c0.5,0,0.8,0.2,0.7,1.1c-0.1,0.7,0.4,1.3,1.1,1.4c0.1,0,0.2,0,0.2,0c0.7-0.1,1.5-0.2,1.4-1.9
		C54.1,149.9,53.1,148.8,51.8,148.8z"/>
	<path d="M60.9,162.8c-3.4,0.1-3.6-4.3-3.6-6.4c0-1.3,0.2-6.6,3.1-6.6c2-0.1,3.8,1.4,3.9,3.5c0,0.1,0,0.2,0,0.2h0.8v-5h-0.7
		l-0.8,1.2c-1-0.7-2.1-1-3.3-1c-3.8,0-6,3.4-6,7.7s1.8,7.7,6,7.7c3.7,0,4.6-2.1,5.2-5.3l-1.4,0C64,160,63.6,162.7,60.9,162.8z"/>
	<path d="M168.6,161.7v-8.8c-0.1-4-3.6-4.1-4.9-4.1c-1.1,0-2.2,0.5-3.1,1.3c-0.3,0.5-0.8,0.3-0.8-0.2c-0.1-0.5-0.3-1.1-0.9-0.9
		c-1.1,0.4-2.3,0.6-3.5,0.7v0.6c2.5-0.1,2.3,1.1,2.3,1.7v9.8c0,1.1-1,1.3-1.5,1.3h-0.8v0.8h7V163h-0.6c-0.5,0-1.5-0.2-1.5-1.3v-7.8
		c0-1.3,0.5-3.4,2.9-3.6c2.5-0.2,2.9,1.4,2.9,2.6l0,0v8.9c0,1.1-1,1.3-1.5,1.3h-0.4v0.8h6.5V163h-0.6
		C169.6,163,168.6,162.8,168.6,161.7z"/>
	<rect x="118.9" y="153.8" width="7.9" height="1.4"/>
	<path d="M179.2,162.9h-4.7l8.7-13.8h-10.2l-1.1,4.1h0.6c1.5-3.2,2.6-3.2,3.5-3.2h3.9l-8.7,13.8h10.4l1-4h-0.5
		C181.1,162.5,180.3,162.9,179.2,162.9z"/>
	<path d="M138,152.8c1.4-0.4,2.9-2.9,2.9-4.7c0-1.7-0.7-4.7-4.8-4.7h-9v0.8c0.9,0,2.5,0.2,2.5,1.7v14.8c0,0.8-0.1,2.2-2.5,2.2v0.8
		h7.4c2.2,0,7.3-0.2,7.4-6C141.9,155.3,140.3,153.2,138,152.8z M132,144.4h3c2.2,0,3.1,1.6,3.1,3.7c0,2.6-0.8,4.5-3.1,4.5h-3V144.4z
		 M135.1,162.8h-3v-9.2h3.4c2,0,3.7,1.4,3.7,4.4C139.2,161,137.4,162.8,135.1,162.8z"/>
	<path d="M155.1,156.4c0-4.3-1.9-7.7-6-7.7c-3.8,0-6,3.4-6,7.7s1.8,7.7,6,7.7c4.1,0,5.3-2,5.9-5.2l-1.4,0c-0.1,1.2-0.9,3.9-3.9,3.9
		c-3.4,0.1-3.6-4.3-3.6-6.4H155.1z M149.2,150c2.5,0,2.9,3.2,2.9,5.2h-5.9C146.2,153.9,146,150,149.2,150z"/>
</g>
<linearGradient id="SVGID_1_" gradientUnits="userSpaceOnUse" x1="57.4955" y1="433.8088" x2="134.5117" y2="498.3099" gradientTransform="matrix(1 0 0 1 0 -386.847)">
	<stop  offset="0" style="stop-color:#FFFFFF"/>
	<stop  offset="0.1" style="stop-color:#E7E8E6"/>
	<stop  offset="0.1" style="stop-color:#CDD0D0"/>
	<stop  offset="0.2" style="stop-color:#B5BBBD"/>
	<stop  offset="0.2" style="stop-color:#A5ACAF"/>
	<stop  offset="0.3" style="stop-color:#9BA3A7"/>
	<stop  offset="0.3" style="stop-color:#98A0A4"/>
	<stop  offset="0.4" style="stop-color:#828A8F"/>
	<stop  offset="0.5" style="stop-color:#667075"/>
	<stop  offset="0.6" style="stop-color:#535C63"/>
	<stop  offset="0.7" style="stop-color:#475158"/>
	<stop  offset="0.8" style="stop-color:#434D54"/>
	<stop  offset="1" style="stop-color:#475157"/>
</linearGradient>
<path class="st0" d="M146.2,79.2c0,27.7-22.5,50.2-50.2,50.2S45.8,107,45.8,79.2S68.3,29,96,29C123.7,29,146.2,51.4,146.2,79.2
	C146.2,79.2,146.2,79.2,146.2,79.2z M96,32c-26.1,0-47.2,21.1-47.2,47.2s21.1,47.2,47.2,47.2s47.2-21.1,47.2-47.2l0,0
	c0.1-26-20.9-47.1-46.9-47.2C96.2,32,96.1,32,96,32z"/>
<linearGradient id="SVGID_2_" gradientUnits="userSpaceOnUse" x1="59.891" y1="435.6976" x2="132.143" y2="496.3893" gradientTransform="matrix(1 0 0 1 0 -386.847)">
	<stop  offset="0" style="stop-color:#0B1F2A"/>
	<stop  offset="0.2" style="stop-color:#333F47"/>
	<stop  offset="0.5" style="stop-color:#777F84"/>
	<stop  offset="0.5" style="stop-color:#81898D"/>
	<stop  offset="0.7" style="stop-color:#B3B8B8"/>
	<stop  offset="0.8" style="stop-color:#D2D5D3"/>
	<stop  offset="0.8" style="stop-color:#DEE0DD"/>
	<stop  offset="1" style="stop-color:#FBFBFB"/>
</linearGradient>
<path class="st1" d="M96,32c-26.1,0-47.2,21.1-47.2,47.2s21.1,47.2,47.2,47.2s47.2-21.1,47.2-47.2l0,0c0.1-26-20.9-47.1-46.9-47.2
	C96.2,32,96.1,32,96,32z M96,123.3c-24.4,0-44.1-19.8-44.1-44.1S71.6,35.1,96,35.1s44.1,19.8,44.1,44.1
	C140.1,103.6,120.4,123.3,96,123.3C96,123.3,96,123.3,96,123.3z"/>
<linearGradient id="SVGID_3_" gradientUnits="userSpaceOnUse" x1="2056.1123" y1="709.52" x2="2091.2561" y2="806.1246" gradientTransform="matrix(-1 0 0 -1 2169.6726 837.0071)">
	<stop  offset="0" style="stop-color:#E1E3E1"/>
	<stop  offset="0.1" style="stop-color:#C1C5C4"/>
	<stop  offset="0.3" style="stop-color:#9BA1A2"/>
	<stop  offset="0.5" style="stop-color:#7D8487"/>
	<stop  offset="0.7" style="stop-color:#687074;stop-opacity:0"/>
	<stop  offset="0.8" style="stop-color:#5B6469;stop-opacity:0"/>
	<stop  offset="1" style="stop-color:#576065;stop-opacity:0"/>
</linearGradient>
<path class="st2" d="M96,129.4c27.7,0,50.2-22.5,50.2-50.2S123.7,29,96,29S45.8,51.5,45.8,79.2c0,0,0,0,0,0
	C45.8,106.9,68.2,129.4,96,129.4C96,129.4,96,129.4,96,129.4z M96,27.9c28.4,0,51.4,23,51.4,51.4s-23,51.4-51.4,51.4
	s-51.4-23-51.4-51.4c0,0,0,0,0,0C44.7,50.9,67.7,27.9,96,27.9z"/>
<path class="st3" d="M48.2,79.4c0-26.4,21.4-47.9,47.8-48l0,0c26.4,0,47.8,21.5,47.8,47.9c0,0,0,0,0,0.1l0,0
	c0,26.3-21.4,47.7-47.7,47.7c0,0-0.1,0-0.1,0l0,0C69.7,127.1,48.2,105.8,48.2,79.4C48.2,79.4,48.2,79.4,48.2,79.4z M63.1,46.3
	C54.3,55.1,49.3,67,49.3,79.4l0,0c0,12.3,4.9,24.2,13.6,32.9l0,0c8.8,8.7,20.7,13.6,33.1,13.6l0,0c12.4,0.1,24.2-4.9,32.9-13.6l0,0
	c8.8-8.7,13.7-20.5,13.6-32.9l0,0c0-12.4-4.9-24.3-13.6-33.1l0,0c-8.7-8.8-20.5-13.8-32.9-13.8l0,0C83.6,32.5,71.8,37.5,63.1,46.3z"
	/>
<linearGradient id="SVGID_4_" gradientUnits="userSpaceOnUse" x1="73.8278" y1="427.7289" x2="118.116" y2="504.431" gradientTransform="matrix(1 0 0 1 0 -386.847)">
	<stop  offset="0" style="stop-color:#E1E3E1"/>
	<stop  offset="0.1" style="stop-color:#C1C5C4"/>
	<stop  offset="0.3" style="stop-color:#9BA1A2"/>
	<stop  offset="0.5" style="stop-color:#7D8487"/>
	<stop  offset="0.7" style="stop-color:#687074;stop-opacity:0"/>
	<stop  offset="0.8" style="stop-color:#5B6469;stop-opacity:0"/>
	<stop  offset="1" style="stop-color:#576065;stop-opacity:0"/>
</linearGradient>
<path class="st4" d="M96,123.5c-24.5,0-44.4-19.8-44.5-44.3s19.8-44.4,44.3-44.5s44.4,19.8,44.5,44.3c0,11.8-4.7,23.1-13,31.5
	C119,118.9,107.7,123.5,96,123.5z M96,122.2c23.7,0,42.8-19.2,42.8-42.9c0-23.7-19.2-42.8-42.9-42.8C84.5,36.5,73.7,41,65.7,49
	C57.5,57,52.9,67.9,53,79.2C53,103,72.2,122.2,96,122.2z"/>
<path class="st3" d="M135,100.1c-0.8-0.6-31.8-25.2-31.8-25.2L96,33.6c-0.6,0.2-1.1,0.7-1.4,1.3L89.4,75L57.5,99.6
	c0,0-0.6,0.8-1,1.3c-0.1,0.4-0.2,0.8-0.2,1.3l0,0L95.8,86l39.5,16.2l0,0C135.6,101.5,135.4,100.7,135,100.1z"/>
<path class="st5" d="M96.3,80.5L96,87.9l36.3,14.6c1,0.6,2.3,0.4,3.2-0.3L96.8,80.3c-0.1-0.1-0.3-0.1-0.4,0.1
	C96.3,80.4,96.3,80.5,96.3,80.5z"/>
<linearGradient id="SVGID_5_" gradientUnits="userSpaceOnUse" x1="116.044" y1="477.9296" x2="113.316" y2="482.4228" gradientTransform="matrix(1 0 0 1 0 -386.847)">
	<stop  offset="0" style="stop-color:#27343C"/>
	<stop  offset="1" style="stop-color:#00111E;stop-opacity:0"/>
</linearGradient>
<path class="st6" d="M96.3,80.5c1.3,2.2,2.8,4.3,4.5,6.3c2.3,2.4,5,4.5,7.9,6.3l23.6,9.5c1,0.6,2.3,0.4,3.2-0.3L96.8,80.3
	c-0.1-0.1-0.3-0.1-0.4,0.1C96.3,80.4,96.3,80.5,96.3,80.5z"/>
<path class="st7" d="M135.3,100.7c0-0.2-0.2-0.3-0.3-0.6l-33.1-24.2l-4.5,2.9c0,0,0.3,0.2,0.5,0c0.8-0.2,1.6-0.2,2.4,0
	c0.8,0.3,35,22.1,35,22.1V100.7z"/>
<path class="st8" d="M134.2,99.3l-30.8-24.4l0,0l-1.4,1l33.1,24.4C134.8,99.9,134.5,99.6,134.2,99.3z"/>
<path class="st5" d="M96.8,78.1l-0.2,0.2c0,0,0,0.3,0.3,0.2c0.2-0.2,4.8-2.6,6.4-3.5l-5.6-38.5c0-1.2-0.8-2.2-1.9-2.6l0.6,44.6
	L96.8,78.1z"/>
<path class="st7" d="M94.1,36.4v2.1l-3.5,35.5c0,0.5,0.2,1,0.6,1.3l2.1,1.6l1.4-39.2l0.2-3C94.4,35.1,94.1,35.7,94.1,36.4z"/>
<path class="st7" d="M92.1,77.5l-1.9-1.6L57.6,99.4c0,0-1,0.6-1.1,1.3l0,0l1.1-0.6l0,0l34.2-21.5C92.5,78.3,92.6,77.9,92.1,77.5z"/>
<path class="st5" d="M95.5,80.5c0-0.2-0.2-0.3-0.3-0.2l-38.8,22c0.9,0.7,2.2,0.8,3.2,0.3L95.8,88L95.5,80.5z"/>
<linearGradient id="SVGID_6_" gradientUnits="userSpaceOnUse" x1="108.1602" y1="461.4323" x2="103.667" y2="454.2109" gradientTransform="matrix(1 0 0 1 0 -386.847)">
	<stop  offset="0.1" style="stop-color:#02131F"/>
	<stop  offset="0.9" style="stop-color:#02131F;stop-opacity:0"/>
</linearGradient>
<path class="st9" d="M96.6,78.3l0.2-0.2L96.6,78.3L96.6,78.3c0,0.1,0.1,0.2,0.2,0.2c0,0,0,0,0,0H97c0.2-0.2,4.8-2.6,6.4-3.5
	l-0.6-4.7l0,0l-5-33.9c0-0.5-0.1-1-0.5-1.4c0,0,2.4,32.4,2.4,35.9C99.7,73.6,98.6,76.3,96.6,78.3z"/>
<linearGradient id="SVGID_7_" gradientUnits="userSpaceOnUse" x1="95.973" y1="473.0303" x2="89.2332" y2="474.9559" gradientTransform="matrix(1 0 0 1 0 -386.847)">
	<stop  offset="0.2" style="stop-color:#02131F"/>
	<stop  offset="0.9" style="stop-color:#02131F;stop-opacity:0"/>
</linearGradient>
<path class="st10" d="M95.5,80.5c0-0.2-0.2-0.3-0.3-0.2l-38.8,22c0.9,0.7,2.2,0.8,3.2,0.3L95.8,88L95.5,80.5z"/>
<linearGradient id="SVGID_8_" gradientUnits="userSpaceOnUse" x1="78.0132" y1="481.9561" x2="77.0503" y2="479.549" gradientTransform="matrix(1 0 0 1 0 -386.847)">
	<stop  offset="0" style="stop-color:#02131F"/>
	<stop  offset="0.1" style="stop-color:#02131F"/>
	<stop  offset="1" style="stop-color:#02131F;stop-opacity:0"/>
</linearGradient>
<path class="st11" d="M59.6,102.5l36.3-14.6l-0.3-7.1c-0.7,2.5-2.5,4.5-4.8,5.6l0,0C88.5,87.7,67,98.3,59.3,102
	c-0.5,0.3-0.9,0.5-1.4,0.6C58.4,102.9,59.1,102.9,59.6,102.5z"/>
<linearGradient id="SVGID_9_" gradientUnits="userSpaceOnUse" x1="101.7797" y1="442.3368" x2="96.3237" y2="442.9787" gradientTransform="matrix(1 0 0 1 0 -386.847)">
	<stop  offset="0.3" style="stop-color:#02131F"/>
	<stop  offset="0.8" style="stop-color:#02131F;stop-opacity:0"/>
</linearGradient>
<path class="st12" d="M96.8,78.1l-0.2,0.2c0,0,0,0.3,0.3,0.2c0.2-0.2,4.8-2.6,6.4-3.5l-5.6-38.5c0-1.2-0.8-2.2-1.9-2.6l0.6,44.6
	L96.8,78.1z"/>
<linearGradient id="SVGID_10_" gradientUnits="userSpaceOnUse" x1="101.9495" y1="442.2451" x2="98.2586" y2="442.7265" gradientTransform="matrix(1 0 0 1 0 -386.847)">
	<stop  offset="0.4" style="stop-color:#27343C"/>
	<stop  offset="1" style="stop-color:#3B474E;stop-opacity:0"/>
</linearGradient>
<path class="st13" d="M96.8,78.1l-0.2,0.2c0,0,0,0.3,0.3,0.2c0.2-0.2,4.8-2.6,6.4-3.5l-5.6-38.5c0-1.2-0.8-2.2-1.9-2.6l0.6,44.6
	L96.8,78.1z"/>
<linearGradient id="SVGID_11_" gradientUnits="userSpaceOnUse" x1="44.0702" y1="467.398" x2="88.8422" y2="493.2341" gradientTransform="matrix(1 0 0 1 0 -386.847)">
	<stop  offset="0" style="stop-color:#24303A;stop-opacity:0"/>
	<stop  offset="0" style="stop-color:#25323B;stop-opacity:0"/>
	<stop  offset="0.1" style="stop-color:#27343C"/>
</linearGradient>
<path class="st14" d="M52.8,99.1C51.7,96.5,45.3,84,52.4,60h-2.7c-1.4,4.8-2.6,7.7-3.2,12c0,0-0.3,1.6-0.5,3.4
	c-0.1,1.3-0.2,2.6-0.2,3.9c0,9.6,2.4,15.2,2.4,15.2c2.5,7.9,7,15.1,13.2,20.7c5.3,4.7,13.5,8.2,20.2,9.5
	C80.4,124.5,61.2,116.3,52.8,99.1z"/>
<linearGradient id="SVGID_12_" gradientUnits="userSpaceOnUse" x1="95.9198" y1="474.7292" x2="95.9198" y2="467.0266" gradientTransform="matrix(1 0 0 1 0 -386.847)">
	<stop  offset="0.3" style="stop-color:#A5ABAF"/>
	<stop  offset="1" style="stop-color:#A5ABAF;stop-opacity:0"/>
</linearGradient>
<path class="st15" d="M96.6,80.2h-1.4c0.2,0,0.3,0,0.3,0.2l0.3,7.4H96l0.3-7.4C96.3,80.2,96.5,80,96.6,80.2L96.6,80.2z"/>
<linearGradient id="SVGID_13_" gradientUnits="userSpaceOnUse" x1="121.114" y1="418.4033" x2="121.114" y2="516.2917" gradientTransform="matrix(1 0 0 1 0 -386.847)">
	<stop  offset="0" style="stop-color:#DEE0DD"/>
	<stop  offset="0" style="stop-color:#C5C9C7"/>
	<stop  offset="0" style="stop-color:#9EA4A5"/>
	<stop  offset="0" style="stop-color:#82898C"/>
	<stop  offset="0" style="stop-color:#71797D"/>
	<stop  offset="0" style="stop-color:#6B7378"/>
	<stop  offset="0.2" style="stop-color:#333F47"/>
	<stop  offset="0.5" style="stop-color:#27343C"/>
	<stop  offset="0.8" style="stop-color:#333F47"/>
	<stop  offset="1" style="stop-color:#434D54"/>
</linearGradient>
<path class="st16" d="M112,31.6c16.8,6.4,32.7,24.1,32.7,46.4c0.1,26.9-21.6,48.8-48.4,48.9c-0.1,0-0.2,0-0.3,0v2.6
	c27.8,0,50.2-22.5,50.2-50.3C146.2,57.6,132.5,38.5,112,31.6z"/>
<linearGradient id="SVGID_14_" gradientUnits="userSpaceOnUse" x1="136.5822" y1="427.6989" x2="114.9184" y2="459.4724" gradientTransform="matrix(1 0 0 1 0 -386.847)">
	<stop  offset="0.7" style="stop-color:#27343C"/>
	<stop  offset="0.7" style="stop-color:#2B373F"/>
	<stop  offset="0.7" style="stop-color:#36424A"/>
	<stop  offset="0.7" style="stop-color:#49545B"/>
	<stop  offset="0.8" style="stop-color:#646D73;stop-opacity:0"/>
	<stop  offset="0.8" style="stop-color:#868D92;stop-opacity:0"/>
	<stop  offset="0.8" style="stop-color:#B0B5B8;stop-opacity:0"/>
	<stop  offset="0.8" style="stop-color:#E1E3E4;stop-opacity:0"/>
	<stop  offset="0.8" style="stop-color:#FFFFFF;stop-opacity:0"/>
</linearGradient>
<path class="st17" d="M139,60.3c-11.2-25.8-36.6-27.3-38-27.4h-0.2c19.4,3.5,31.8,16.2,36.1,29.5v0.2c1.9,5.3,3,10.9,3,16.5
	c0.1,6.1-1.1,12.1-3.5,17.7c-0.2,0.8-0.3,1.8-0.5,1.8h2.6C146.2,84,142.9,69.4,139,60.3z"/>
<path class="st18" d="M48.2,79.4c0-26.4,21.4-47.9,47.8-48l0,0c26.4,0,47.8,21.5,47.8,47.9c0,0,0,0,0,0.1l0,0
	c0,26.3-21.4,47.7-47.7,47.7c0,0-0.1,0-0.1,0l0,0C69.7,127.1,48.2,105.8,48.2,79.4C48.2,79.4,48.2,79.4,48.2,79.4z M63.1,46.3
	C54.3,55.1,49.3,67,49.3,79.4l0,0c0,12.3,4.9,24.2,13.6,32.9l0,0c8.8,8.7,20.7,13.6,33.1,13.6l0,0c12.4,0.1,24.2-4.9,32.9-13.6l0,0
	c8.8-8.7,13.7-20.5,13.6-32.9l0,0c0-12.4-4.9-24.3-13.6-33.1l0,0c-8.7-8.8-20.5-13.8-32.9-13.8l0,0C83.6,32.5,71.8,37.5,63.1,46.3z"
	/>
<path class="st19" d="M57.3,99.8L57.3,99.8l32.7-23.6c1.6,0.9,3.3,1.6,5,2.2c0.3,0.2,0.3-0.2,0.3-0.2l-4-3.4
	c-0.4-0.3-0.7-0.8-0.6-1.3l3.9-38.7c-0.2,0.2-0.2,0.5-0.3,0.6c-0.1,0.2-0.2,0.5-0.2,0.8L88.5,75L57.6,99.3
	C57.5,99.4,57.3,99.6,57.3,99.8z"/>
</svg>
