<svg xmlns="http://www.w3.org/2000/svg" viewBox="0 0 192 192"><g fill="#231916"><path d="M24.033 136.131v14.279h-4.534v-20.26h5.884l4.824 8.297 4.631-8.297h5.981v20.26h-4.535v-14.279l-6.077 10.227-6.174-10.227zM44.678 130.151h4.534v20.259h-4.534zM61.271 134.395v16.015H56.64v-16.015h-5.402v-4.245h15.531v4.245h-5.498zM68.41 150.216v-4.244a31.072 31.072 0 0 0 5.98.579c2.316 0 3.474-.29 3.474-1.64 0-1.447-.965-1.64-4.245-3.184-3.184-1.447-5.595-2.701-5.595-6.174 0-4.245 2.604-5.692 7.62-5.692a37.099 37.099 0 0 1 5.693.386v4.245c-1.158-.097-3.184-.386-5.5-.386-2.7 0-3.28.29-3.28 1.447s1.448 1.736 3.667 2.701c3.376 1.544 6.077 2.798 6.077 6.657 0 4.051-2.508 5.884-7.91 5.884a57.158 57.158 0 0 1-5.981-.579M85.099 143.56v-13.41h4.534v13.217c0 2.315 1.35 3.087 3.57 3.087 2.122 0 3.569-.772 3.569-3.087v-13.216h4.534v13.409c0 4.92-3.184 7.139-8.104 7.139S85.1 148.48 85.1 143.56M105.165 130.15h8.875c4.148 0 6.464 1.544 6.464 5.21a4.253 4.253 0 0 1-3.184 4.438 4.59 4.59 0 0 1 3.763 4.92c0 3.57-2.123 5.691-6.657 5.691h-9.165v-20.258zm8.2 8.2c1.833 0 2.508-.964 2.508-2.315 0-1.64-.772-2.026-2.508-2.026h-3.666v4.342zm.29 8.297c1.832 0 2.604-.675 2.604-2.412 0-1.543-.675-2.219-2.412-2.219H109.7v4.631zM123.687 130.151h4.534v20.259h-4.534zM131.501 150.216v-4.244a31.072 31.072 0 0 0 5.982.579c2.315 0 3.473-.29 3.473-1.64 0-1.447-.965-1.64-4.245-3.184-3.184-1.447-5.595-2.701-5.595-6.174 0-4.245 2.604-5.692 7.62-5.692a37.099 37.099 0 0 1 5.692.386v4.245c-1.157-.097-3.183-.386-5.498-.386-2.702 0-3.28.29-3.28 1.447s1.447 1.736 3.665 2.701c3.377 1.544 6.078 2.798 6.078 6.657 0 4.051-2.508 5.884-7.91 5.884a59.815 59.815 0 0 1-5.982-.579M152.436 150.41h-4.534v-20.26h4.534v8.008h7.235v-8.008h4.533v20.26h-4.533v-8.008h-7.235v8.008zM167.967 130.151h4.534v20.259h-4.534zM45.353 163.433v14.277h-4.63v-20.259h5.884l4.824 8.2 4.727-8.2h5.981v20.259h-4.631v-14.277l-6.077 10.226-6.078-10.226zM65.226 167.581c0-7.235 2.798-10.419 8.779-10.419s8.779 3.184 8.779 10.42S79.986 178 74.004 178s-8.778-3.184-8.778-10.419m12.734 0c0-4.148-.675-6.27-4.052-6.27-3.28 0-4.051 2.122-4.051 6.27s.675 6.27 4.051 6.27 4.052-2.122 4.052-6.27M93.492 161.696v16.014h-4.534v-16.014h-5.499v-4.245h15.532v4.245h-5.499zM99.763 167.581c0-7.235 2.797-10.419 8.778-10.419s8.78 3.184 8.78 10.42S114.522 178 108.54 178s-8.778-3.184-8.778-10.419m12.734 0c0-4.148-.676-6.27-4.052-6.27s-4.052 2.122-4.052 6.27.675 6.27 4.052 6.27 4.052-2.122 4.052-6.27M120.31 157.452h8.2c4.342 0 7.14 1.64 7.14 6.463 0 3.184-1.544 5.21-4.149 5.789l5.017 8.007h-5.306l-4.245-7.236h-2.026v7.236h-4.534v-20.26zm8.008 9.068c2.026 0 2.701-1.061 2.701-2.605s-.675-2.604-2.701-2.604h-3.377v5.209zM138.35 177.421v-4.244a31.074 31.074 0 0 0 5.982.578c2.315 0 3.473-.29 3.473-1.64 0-1.447-.965-1.64-4.245-3.183-3.183-1.447-5.595-2.701-5.595-6.174 0-4.245 2.605-5.692 7.621-5.692a37.1 37.1 0 0 1 5.692.386v4.244c-1.158-.096-3.184-.385-5.499-.385-2.701 0-3.28.289-3.28 1.35 0 1.158 1.447 1.737 3.666 2.701 3.376 1.544 6.078 2.798 6.078 6.657 0 4.052-2.509 5.885-7.911 5.885a24.657 24.657 0 0 1-5.981-.483"/></g><g fill="#e60013"><path d="M95.711 81.24l19.487-33.669L95.711 14 76.32 47.571 95.711 81.24zM95.711 81.24l19.487 33.571h38.781L134.588 81.24H95.711zM95.711 81.24L76.32 114.811H37.539l19.39-33.571h38.782z"/></g></svg>