<svg xmlns="http://www.w3.org/2000/svg" xmlns:xlink="http://www.w3.org/1999/xlink" viewBox="0 0 192 192"><defs><linearGradient id="c" x1="131.54" y1="45.784" x2="105.154" y2="86.196" gradientUnits="userSpaceOnUse"><stop offset=".203" stop-color="#d2d2d1"/><stop offset=".218" stop-color="#bdbdbc"/><stop offset=".251" stop-color="#949493"/><stop offset=".283" stop-color="#747473"/><stop offset=".314" stop-color="#5d5d5c"/><stop offset=".343" stop-color="#4f4f4e"/><stop offset=".368" stop-color="#4a4a49"/><stop offset=".443" stop-color="#50504f"/><stop offset=".543" stop-color="#616160"/><stop offset=".657" stop-color="#7c7c7b"/><stop offset=".78" stop-color="#a3a3a2"/><stop offset=".813" stop-color="#aeaead"/><stop offset="1" stop-color="#1d1d1b"/></linearGradient><linearGradient id="d" x1="57.428" y1="75.118" x2="62.209" y2="64.169" gradientUnits="userSpaceOnUse"><stop offset=".031" stop-color="#b0b0af"/><stop offset=".2" stop-color="#b0b0af"/><stop offset=".99" stop-color="#616160"/></linearGradient><linearGradient id="e" x1="122.713" y1="48.817" x2="116.823" y2="48.26" gradientUnits="userSpaceOnUse"><stop offset=".197" stop-color="#4a4a49"/><stop offset=".261" stop-color="#4c4c4b"/><stop offset=".284" stop-color="#535352"/><stop offset=".301" stop-color="#5e5e5d"/><stop offset=".314" stop-color="#6f6f6e"/><stop offset=".326" stop-color="#858584"/><stop offset=".336" stop-color="#a0a0a0"/><stop offset=".345" stop-color="silver"/><stop offset=".354" stop-color="#e4e4e4"/><stop offset=".359" stop-color="#fff"/><stop offset=".824" stop-color="#4a4a49"/><stop offset="1" stop-color="#333332"/></linearGradient><linearGradient id="f" x1="69.724" y1="80.903" x2="74.57" y2="69.805" gradientUnits="userSpaceOnUse"><stop offset="0" stop-color="#d2d2d1"/><stop offset=".105" stop-color="#c3c3c2"/><stop offset=".246" stop-color="#b5b5b4"/><stop offset=".368" stop-color="#b0b0af"/><stop offset=".99" stop-color="#1d1d1b"/></linearGradient><linearGradient id="g" x1="116.863" y1="133.219" x2="30.302" y2="45.158" gradientUnits="userSpaceOnUse"><stop offset=".077" stop-color="#8e8e8d"/><stop offset=".121" stop-color="#999"/><stop offset=".17" stop-color="#777776"/><stop offset=".308" stop-color="#8e8e8d"/><stop offset=".473" stop-color="#f4f4f4"/><stop offset=".698" stop-color="#f4f4f4"/><stop offset=".723" stop-color="#e5e5e5"/><stop offset=".772" stop-color="#bdbdbd"/><stop offset=".839" stop-color="#7d7d7c"/><stop offset=".841" stop-color="#7c7c7b"/><stop offset=".962" stop-color="#4a4a49"/></linearGradient><radialGradient id="h" cx="79.406" cy="56.648" r="19.74" gradientUnits="userSpaceOnUse"><stop offset=".036" stop-color="#fff"/><stop offset=".467" stop-color="#fff"/><stop offset=".521" stop-color="#fbfbfb"/><stop offset=".577" stop-color="#eee"/><stop offset=".634" stop-color="#dadada"/><stop offset=".691" stop-color="#bdbdbd"/><stop offset=".747" stop-color="#999"/><stop offset=".846" stop-color="#777776"/><stop offset="1" stop-color="#4a4a49"/></radialGradient><radialGradient id="i" cx="83.836" cy="41.569" r="6.968" gradientTransform="matrix(1 0 0 .9636 0 12.61)" gradientUnits="userSpaceOnUse"><stop offset=".036" stop-color="#fff"/><stop offset=".228" stop-color="#fff"/><stop offset=".299" stop-color="#f6f6f6"/><stop offset=".417" stop-color="#dddddc"/><stop offset=".568" stop-color="#b4b4b3"/><stop offset=".745" stop-color="#7b7b7a"/><stop offset=".943" stop-color="#333331"/><stop offset="1" stop-color="#1d1d1b"/></radialGradient><radialGradient id="j" cx="79.48" cy="41.721" r="8.197" gradientUnits="userSpaceOnUse"><stop offset=".231" stop-color="#fff"/><stop offset=".571" stop-color="#f6f6f6"/><stop offset=".863" stop-color="#1d1d1b"/></radialGradient><radialGradient id="k" cx="93.213" cy="57.715" r="27.609" gradientUnits="userSpaceOnUse"><stop offset=".036" stop-color="#fff"/><stop offset=".253" stop-color="#fff"/><stop offset=".272" stop-color="#fbfbfb"/><stop offset=".292" stop-color="#efeeee"/><stop offset=".312" stop-color="#dadada"/><stop offset=".332" stop-color="#bebdbd"/><stop offset=".346" stop-color="#a5a4a4"/><stop offset=".412" stop-color="#777776"/><stop offset=".473" stop-color="#4a4a49"/><stop offset=".857" stop-color="#4a4a49"/></radialGradient><linearGradient id="l" x1="73.925" y1="73.423" x2="60.408" y2="76.802" gradientUnits="userSpaceOnUse"><stop offset="0" stop-color="#f4f4f4"/><stop offset=".061" stop-color="#e6e6e6"/><stop offset=".258" stop-color="#bbb"/><stop offset=".287" stop-color="#c8c8c8"/><stop offset=".347" stop-color="#dbdbdb"/><stop offset=".417" stop-color="#e9e9e9"/><stop offset=".501" stop-color="#f2f2f2"/><stop offset=".648" stop-color="#f4f4f4"/><stop offset=".896" stop-color="#fff"/></linearGradient><linearGradient id="m" x1="2156.15" y1="607.547" x2="2297.415" y2="779.659" gradientTransform="translate(-871.782 -226.847) scale(.4383)" gradientUnits="userSpaceOnUse"><stop offset="0" stop-color="#fff"/><stop offset=".069" stop-color="#e2e2e1"/><stop offset=".157" stop-color="#fff"/><stop offset=".203" stop-color="#fff"/><stop offset=".274" stop-color="#e3e3e3"/><stop offset=".33" stop-color="#d2d2d1"/><stop offset=".36" stop-color="#e6e6e6"/><stop offset=".394" stop-color="#f4f4f4"/><stop offset=".435" stop-color="#fdfdfc"/><stop offset=".502" stop-color="#fff"/><stop offset=".885" stop-color="#fff"/><stop offset=".98" stop-color="#b9b9b8"/></linearGradient><linearGradient id="n" x1="57.548" y1="54.081" x2="120.827" y2="114.183" gradientUnits="userSpaceOnUse"><stop offset="0" stop-color="#ddd"/><stop offset=".008" stop-color="#dadad9"/><stop offset=".131" stop-color="#a7a7a6"/><stop offset=".246" stop-color="#7f7f7e"/><stop offset=".351" stop-color="#626261"/><stop offset=".441" stop-color="#50504f"/><stop offset=".507" stop-color="#4a4a49"/><stop offset=".577" stop-color="#4f4f4e"/><stop offset=".66" stop-color="#5d5d5c"/><stop offset=".75" stop-color="#757574"/><stop offset=".845" stop-color="#969696"/><stop offset=".943" stop-color="silver"/><stop offset="1" stop-color="#ddd"/></linearGradient><linearGradient id="o" x1="88.045" y1="83.165" x2="63.386" y2="120.03" gradientUnits="userSpaceOnUse"><stop offset="0" stop-color="#c6c6c6"/><stop offset=".1" stop-color="#fff"/><stop offset=".349" stop-color="#efefef"/><stop offset=".413" stop-color="#f6f6f6"/><stop offset=".538" stop-color="#fff"/><stop offset=".57" stop-color="#cacaca"/><stop offset=".606" stop-color="#959594"/><stop offset=".64" stop-color="#6a6a6a"/><stop offset=".67" stop-color="#4c4c4b"/><stop offset=".696" stop-color="#3a3a39"/><stop offset=".714" stop-color="#333332"/><stop offset=".716" stop-color="#383837"/><stop offset=".734" stop-color="#6c6c6c"/><stop offset=".752" stop-color="#999"/><stop offset=".77" stop-color="#bebebe"/><stop offset=".788" stop-color="#dadada"/><stop offset=".806" stop-color="#efefef"/><stop offset=".824" stop-color="#fbfbfb"/><stop offset=".841" stop-color="#fff"/><stop offset=".851" stop-color="#fafafa"/><stop offset=".861" stop-color="#ededed"/><stop offset=".872" stop-color="#d7d7d6"/><stop offset=".883" stop-color="#b7b7b7"/><stop offset=".895" stop-color="#8f8f8e"/><stop offset=".906" stop-color="#5e5e5d"/><stop offset=".91" stop-color="#4c4c4b"/><stop offset=".945" stop-color="#4c4c4b"/><stop offset="1" stop-color="#838382"/></linearGradient><linearGradient id="p" x1="85.292" y1="102.367" x2="91.8" y2="106.2" gradientUnits="userSpaceOnUse"><stop offset=".2" stop-color="#fff"/><stop offset=".324" stop-color="#fdfdfd"/><stop offset=".397" stop-color="#f4f4f4"/><stop offset=".457" stop-color="#e6e6e6"/><stop offset=".51" stop-color="#d2d2d2"/><stop offset=".521" stop-color="#cdcdcd"/><stop offset=".835" stop-color="#4a4a49"/><stop offset=".948" stop-color="#3b3b3a"/><stop offset="1" stop-color="#333332"/></linearGradient><linearGradient id="q" x1="88.942" y1="84.74" x2="95.789" y2="76.542" gradientUnits="userSpaceOnUse"><stop offset=".022" stop-color="#fff"/><stop offset=".183" stop-color="#fff"/><stop offset=".209" stop-color="#fff"/><stop offset=".312" stop-color="#f7f7f7"/><stop offset=".47" stop-color="#e2e2e2"/><stop offset=".5" stop-color="#ddd"/><stop offset=".561" stop-color="#d2d2d2"/><stop offset=".814" stop-color="#a9a9a9"/><stop offset=".945" stop-color="#999"/><stop offset="1" stop-color="#929292"/></linearGradient><linearGradient id="a" x1="104.056" y1="38.998" x2="112.972" y2="48.118" gradientUnits="userSpaceOnUse"><stop offset="0" stop-color="#1d1d1b"/><stop offset=".045" stop-color="#1f1f1d"/><stop offset=".071" stop-color="#282826"/><stop offset=".092" stop-color="#353534"/><stop offset=".11" stop-color="#494947"/><stop offset=".127" stop-color="#636361"/><stop offset=".142" stop-color="#828281"/><stop offset=".157" stop-color="#a7a7a7"/><stop offset=".17" stop-color="#d1d1d1"/><stop offset=".179" stop-color="#f4f4f4"/><stop offset=".229" stop-color="#c9c9c8"/><stop offset=".285" stop-color="#9f9f9e"/><stop offset=".342" stop-color="#7c7c7b"/><stop offset=".4" stop-color="#616160"/><stop offset=".458" stop-color="#4e4e4c"/><stop offset=".518" stop-color="#434341"/><stop offset=".579" stop-color="#3f3f3d"/><stop offset=".725" stop-color="#383836"/><stop offset=".939" stop-color="#242422"/><stop offset="1" stop-color="#1d1d1b"/></linearGradient><linearGradient id="r" x1="105.125" y1="76.903" x2="115.272" y2="70.241" xlink:href="#a"/><linearGradient id="s" x1="113.268" y1="44.509" x2="126.593" y2="44.509" gradientUnits="userSpaceOnUse"><stop offset="0" stop-color="#616160"/><stop offset=".286" stop-color="#d2d2d1"/><stop offset=".338" stop-color="#ababaa"/><stop offset=".391" stop-color="#8b8b8a"/><stop offset=".443" stop-color="#747473"/><stop offset=".491" stop-color="#666665"/><stop offset=".533" stop-color="#616160"/><stop offset=".758" stop-color="#333332"/><stop offset="1" stop-color="#1d1d1b"/></linearGradient><linearGradient id="b" x1="58.879" y1="113.805" x2="89.606" y2="113.805" gradientUnits="userSpaceOnUse"><stop offset="0" stop-color="#1d1d1b"/><stop offset=".053" stop-color="#1f1f1d"/><stop offset=".083" stop-color="#272726"/><stop offset=".108" stop-color="#353534"/><stop offset=".129" stop-color="#494947"/><stop offset=".149" stop-color="#626261"/><stop offset=".167" stop-color="#818180"/><stop offset=".179" stop-color="#9b9b9b"/><stop offset=".253" stop-color="#7b7b7b"/><stop offset=".332" stop-color="#616160"/><stop offset=".412" stop-color="#4e4e4c"/><stop offset=".494" stop-color="#434341"/><stop offset=".579" stop-color="#3f3f3d"/><stop offset=".725" stop-color="#383836"/><stop offset=".939" stop-color="#242422"/><stop offset="1" stop-color="#1d1d1b"/></linearGradient><linearGradient id="t" x1="97.977" y1="102.012" x2="111.719" y2="102.012" xlink:href="#b"/><linearGradient id="u" x1="107.178" y1="103.859" x2="132.42" y2="103.859" xlink:href="#b"/><linearGradient id="v" x1="57.53" y1="79.207" x2="83.842" y2="79.207" gradientUnits="userSpaceOnUse"><stop offset="0" stop-color="#777776"/><stop offset=".059" stop-color="#797978"/><stop offset=".092" stop-color="#828281"/><stop offset=".12" stop-color="#90908f"/><stop offset=".144" stop-color="#a3a3a2"/><stop offset=".165" stop-color="#bdbdbc"/><stop offset=".179" stop-color="#d2d2d1"/><stop offset=".279" stop-color="#a8a8a6"/><stop offset=".394" stop-color="#7d7d7c"/><stop offset=".512" stop-color="#5b5b59"/><stop offset=".631" stop-color="#40403e"/><stop offset=".751" stop-color="#2c2c2a"/><stop offset=".873" stop-color="#21211f"/><stop offset="1" stop-color="#1d1d1b"/></linearGradient><linearGradient id="w" x1="58.111" y1="63.195" x2="67.474" y2="63.195" gradientUnits="userSpaceOnUse"><stop offset="0" stop-color="#3f3f3d"/><stop offset=".051" stop-color="#41413f"/><stop offset=".08" stop-color="#4a4a48"/><stop offset=".103" stop-color="#575756"/><stop offset=".124" stop-color="#6b6b69"/><stop offset=".142" stop-color="#858583"/><stop offset=".16" stop-color="#a4a4a3"/><stop offset=".176" stop-color="#c9c9c8"/><stop offset=".179" stop-color="#d2d2d1"/><stop offset=".279" stop-color="#a8a8a6"/><stop offset=".394" stop-color="#7d7d7c"/><stop offset=".512" stop-color="#5b5b59"/><stop offset=".631" stop-color="#40403e"/><stop offset=".751" stop-color="#2c2c2a"/><stop offset=".873" stop-color="#21211f"/><stop offset="1" stop-color="#1d1d1b"/></linearGradient><linearGradient id="x" x1="50.111" y1="76.851" x2="56.274" y2="76.851" gradientUnits="userSpaceOnUse"><stop offset="0" stop-color="#777776"/><stop offset=".064" stop-color="#797978"/><stop offset=".101" stop-color="#818181"/><stop offset=".13" stop-color="#8f8f8f"/><stop offset=".156" stop-color="#a3a3a2"/><stop offset=".179" stop-color="#bbb"/><stop offset=".278" stop-color="#9e9e9e"/><stop offset=".418" stop-color="#7c7c7b"/><stop offset=".559" stop-color="#616160"/><stop offset=".703" stop-color="#4e4e4c"/><stop offset=".848" stop-color="#434341"/><stop offset="1" stop-color="#3f3f3d"/></linearGradient><linearGradient id="y" x1="82.52" y1="38.646" x2="83.197" y2="40.134" gradientUnits="userSpaceOnUse"><stop offset="0" stop-color="#fff"/><stop offset=".115" stop-color="#ededed"/><stop offset=".907" stop-color="#555554"/></linearGradient><linearGradient id="z" x1="74.048" y1="53.978" x2="98.947" y2="53.978" gradientUnits="userSpaceOnUse"><stop offset=".687" stop-color="#fff"/><stop offset=".718" stop-color="#fafafa"/><stop offset=".757" stop-color="#eaeaea"/><stop offset=".799" stop-color="#d1d1d1"/><stop offset=".845" stop-color="#aeaead"/><stop offset=".894" stop-color="#81817f"/><stop offset=".943" stop-color="#4a4a49"/><stop offset=".98" stop-color="#1d1d1b"/></linearGradient><linearGradient id="A" x1="72.416" y1="115.612" x2="81.646" y2="82.969" gradientUnits="userSpaceOnUse"><stop offset="0" stop-color="#e8e8e8"/><stop offset=".066" stop-color="#555554"/><stop offset=".249" stop-color="#7d7d7c"/><stop offset=".352" stop-color="#8e8e8d"/><stop offset=".479" stop-color="#a3a3a3"/><stop offset=".604" stop-color="#b4b4b4"/><stop offset=".708" stop-color="#9b9b9b"/><stop offset=".871" stop-color="#797978"/><stop offset=".959" stop-color="#6c6c6b"/><stop offset="1" stop-color="#b0b0af"/></linearGradient></defs><g style="isolation:isolate"><path d="M132.963 115.566c-1.633-4.876-8.226-17.115-13.406-24.002-1.12-1.5-.7-2.272-.102-2.757a43.17 43.17 0 0 0 4.806-4.761c2.305-2.637 2.86-5.615 1.23-9.926-1.622-4.269-6.978-14.418-8.102-17.78-1.29-3.877-1.42-5.601-.642-7.714.915-2.487 2.251-2.592 3.259-2.576a1.068 1.068 0 0 1 .947.842 14.144 14.144 0 0 0 1.152 5.283 16.35 16.35 0 0 0 7.473 8.05c.963.417 1.135-.329 1.051-.689-.088-.357-1.514-5.947-2.585-10.149-1.119-4.403-1.683-5.358-2.677-6.29a8.724 8.724 0 0 0-6.04-2.235c-4.55.177-6.561 4.575-6.81 4.982-.217.365-.3.622-.764.301-1.3-.91-5.102-4.081-5.45-6.07-.206-1.174-.41-1.339-1.583-1.794-4.567-1.782-8.524-3.348-12.9-4.122a7.403 7.403 0 0 0-3.9-.08 26.267 26.267 0 0 0-8.224 2.824 4.108 4.108 0 0 0-1.89 1.637 1.91 1.91 0 0 1-.97.794 43.213 43.213 0 0 0-5.204 2.13c-.69.4-1.066.823-.713 1.603a22.723 22.723 0 0 0 3.29 4.967 5.71 5.71 0 0 0 2.018.797c.293.072.499.157.609-.062a1.87 1.87 0 0 1 .743-.996 8.285 8.285 0 0 1 3.335-1.105 2 2 0 0 1 1.396.168 4.66 4.66 0 0 1 1.384 1.909c.268.832.1 1.145-.365 1.341a14.672 14.672 0 0 1-3.489.644c-1.615.13-2.075-.318-2.19-.417a.286.286 0 0 0-.463-.012 3.294 3.294 0 0 1-1.31.938c-.36.173-.552.555-.211 1.15 1.03 1.78 2.387 3.779 3.644 4.16 1.002.312 1.539-.016 2.666-.82 1.006-.729 1.661-.725 1.938-.521.302.228.91.743.754 1.256a18.264 18.264 0 0 1-2.413 3.463c-.326.416-.633.637-1.215.358-.852-.406-13.783-7.115-15.51-7.788a13.925 13.925 0 0 0-4.972-.984 24.607 24.607 0 0 0-4.751.305 4.338 4.338 0 0 0-2.283 1.387c-1.17 1.082-2.408 2.467-2.524 3.62a6.277 6.277 0 0 0 .94 2.642.741.741 0 0 0 .773.306 7.889 7.889 0 0 1 3.317-.458c1.384.24 1.523 1.327 1.595 2.16a.562.562 0 0 0 .576.46 5.15 5.15 0 0 1 2.408.487 22.226 22.226 0 0 1 4.029 2.881c.303.34.284.647-.293.703a56.629 56.629 0 0 0-9.948 1.902c-1.541.504-3.357 1.196-4 2.312a17.475 17.475 0 0 0-1.911 4.744c-.264 1.442 1.278 3.23 1.691 3.627.279.27.467.44.96.17a10.744 10.744 0 0 1 4.324-1.66c1.058-.062 1.483.936 1.737 1.302.256.36.5.111 1.449-.144 1.681-.452 11.064-.281 14.374-.125a12.364 12.364 0 0 1 5.173 1.146 32.001 32.001 0 0 1 4.332 3.482s-3.706 6.215-5.701 9.898c-1.848 3.403-3.198 5.96-3.863 7.44a10.92 10.92 0 0 0-1.001 4.789c.166 2.213.225 3.349.197 4.35-.029.884-.85.98-2.016 1.267-1.608.409-4.812.703-7.41 1.342-2.36.589-3.24 1.144-3.668 2.97a49.454 49.454 0 0 0-.874 6.587c-.029.66-.04.984.798.81.482-.094 1.871-.294 3.64-.423 2.19-.17 4.563-.134 6.397-.14 3.373-.02 13.334.563 14.004.629.852.083 1.023-.02.966-.614-.08-.786-.224-3.289-.259-4.781-.042-1.498-.268-3.016 1.082-4.473 1.344-1.46 11.495-12.78 12.057-13.36.492-.494.821-1.018 1.575-.328.763.7 9.12 6.726 10.819 7.958a8.427 8.427 0 0 0 5.21 1.678c1.38.024 1.764 2.43.59 2.657-1.204.23-3.039.607-4.32.9-1.979.461-2.584 1.107-3.18 2.44-.508 1.126-1.067 6.656-1.087 7.134-.014.343-.035.842.51.728a51.063 51.063 0 0 1 10.44-.505c4.746.147 9.357.54 10.004.577.698.048.765-.055 1.117-.6a23.543 23.543 0 0 1 3.941-4.277c.776-.633.793-.896.47-1.85zm-18.235-33.438a2.348 2.348 0 0 1-2.575-.506c-.59-.562-5.379-6.326-6.92-8.088a2.234 2.234 0 0 1 .98-3.781c1.916-.698 5.35-1.8 6.305-2.303a2.365 2.365 0 0 0 1.546-1.998c.075-.983.085-2.085.09-2.453.006-.37.485-.666.73-.232.17.308 1.03 1.986 2.078 3.924 1.568 2.913 3.546 6.556 4.19 8.122a3.413 3.413 0 0 1-.617 3.784c-1.257 1.554-4.925 3.242-5.807 3.531z" fill="#1d1d1b"/><path d="M119.67 41.76a.1.1 0 0 0-.044 0c-3.737-.019-7.525 4.316-6.803 10.774a23.284 23.284 0 0 0 2.222 8.315c.584 1.26 6.963 13.408 7.259 14.695a3.907 3.907 0 0 1-1.366 4.275 20.376 20.376 0 0 1-5.884 3.613 3.56 3.56 0 0 1-1.136.212c-.396 0-1.38-.136-3.248-2.435l8.246 11.002c-1.054-1.407-1.596-2.47-1.406-3.402.188-.918 1.691-1.92 3.418-3.28a13.127 13.127 0 0 0 4.524-5.341 5.548 5.548 0 0 0 .367-2.043c0-2.193-1.064-4.677-2.341-7.37-1.649-3.495-6.323-11.119-7.745-16.462a13.97 13.97 0 0 1-.502-3.539c0-3.03 1.291-4.95 2.867-5.602a5.316 5.316 0 0 1 1.996-.41 3.816 3.816 0 0 1 1.718.372 1.281 1.281 0 0 1 .506 1.194v.092c-.003.093-.014.319-.014.652a14.19 14.19 0 0 0 1.618 6.644 13.897 13.897 0 0 0 6.123 5.768c.105.044-2.833-10.837-3.358-12.887-.611-2.393-2.297-4.79-7.016-4.837z" fill="url(#c)"/><path d="M68.317 65.933c.72.72-.532.68-4.332 1.01a42.796 42.796 0 0 0-9.809 1.883c-1.492.563-2.395.96-2.991 2.33a23.706 23.706 0 0 0-1.406 3.758 1.496 1.496 0 0 0 .21 1.215c.145.227.502-7.021 9.854-7.498 8.278-.422 10.315-1.291 8.698-2.872z" fill="url(#d)"/><path d="M115.709 51.054a15.053 15.053 0 0 1 .513-2.786c.83-2.413 2.378-2.915 3.444-2.915a1.588 1.588 0 0 1 1.334.49 1.35 1.35 0 0 1 .42.857 13.55 13.55 0 0 0 1.116 5.107c.064.17.13.338.202.502a15.022 15.022 0 0 1-.996-5.418c-.002-.343.015-.74.015-.743.004-.817-.898-1.057-1.706-1.054a4.673 4.673 0 0 0-1.8.374c-1.303.529-2.502 2.164-2.557 4.95z" fill="url(#e)"/><path d="M68.643 66.249c.282.764-.834.584-4.636.915a43.004 43.004 0 0 0-9.811 1.851c-1.495.563-2.396.96-2.993 2.33a23.932 23.932 0 0 0-1.41 3.761 1.556 1.556 0 0 0 .31 1.215c.399.626.653.761 1.231.429a10.591 10.591 0 0 1 3.895-1.467 1.84 1.84 0 0 1 1.962 1.37c.111.402.657.195.75.17a13.766 13.766 0 0 1 3.004-.44c2.299-.17 11.265-.092 14.556-.015 2.959.069 14.616 9.216 14.79 9.26l.587-1.182c-3.96-3.273-18.672-14.938-22.23-18.417z" fill="url(#f)"/><path d="M102.235 73.475c1.774 2.131 7.057 8.547 11.58 14.344a113.263 113.263 0 0 1 15.988 26.54c.457 1.038.11 1.152-.617 1.738-1.404 1.14-1.108 1.6-2.152 3.403-.117.207-.387.541-.718.511-.966-.075-8.466-.711-13.397-.536a18.167 18.167 0 0 0-4.332.466c-.523.13-.702.075-.69-.607a31.743 31.743 0 0 1 .985-4.48 2.693 2.693 0 0 1 2.065-1.84c.979-.271 3.76-.787 4.885-1.066 1.13-.28 1.178-1.354 1.073-2.163s-.748-1.897-1.484-2.03a10.284 10.284 0 0 1-2.732-.79c-1.07-.48-16.386-12.815-17.786-13.952-.355-.295-.633-.506-.743-.376-.115.13.18.497.313.644.262.274 2.574 2.66 3.08 3.148.368.355.175.53-.007.708-.272.248-7.519 7.394-10.523 10.511-2.999 3.107-5.161 4.93-5.136 7.412.029 2.487.134 4.432.143 4.862.003.374-.385.369-.707.34-.933-.084-8.123-.794-12.16-.88a34.618 34.618 0 0 0-8.856.78c-.448.113-.585-.153-.558-.539a28.478 28.478 0 0 1 1.033-4.854 2.727 2.727 0 0 1 2.206-1.84c1.315-.321 6.483-1.252 8.807-1.61 1.268-.204 1.529-.632 1.515-1.698-.018-1.088-.142-3.406-.2-4.57a8.391 8.391 0 0 1 .744-3.463c1.836-4.301 6.34-13.375 10.253-18.781a1.202 1.202 0 0 1 1.337-.625 29.531 29.531 0 0 1 3.056 2.066c.412.21.96.022.707-.232-1.366-1.369-5.507-3.886-8.03-5.894-4.99-3.982-10.193-9.764-14.378-13.626a15.523 15.523 0 0 0-6.196-3.833c-.613-.137-1.187-.137-1.714-.21a.354.354 0 0 1-.301-.38 1.974 1.974 0 0 0-.513-1.397 2.731 2.731 0 0 0-1.865-.614 12.732 12.732 0 0 0-3.024.37c-.386.107-.572.028-.711-.14a2.905 2.905 0 0 1-.429-1.13 1.457 1.457 0 0 1 .245-.959 12.432 12.432 0 0 1 2.581-2.636 2.875 2.875 0 0 1 2-.845 19.045 19.045 0 0 1 6.468.181 20.898 20.898 0 0 1 4.807 1.917c1.694.842 11.538 5.88 12.8 6.478z" fill="url(#g)"/><path d="M85.882 55.557c.192 1.226-.596 2.027-1.073 2.783-.468.741-1.43 1.847-1.923 2.465a2.003 2.003 0 0 1-1.826.551s5.67 2.883 8.932 4.522c1.294.654 3.322.047 4.699-2.532.321-.598 2.363-4.915 2.87-6.198a5.419 5.419 0 0 0 .072-5.152c-1.17-2.441-4.792-6.952-6.232-8.683a4.35 4.35 0 0 0-3.558-1.562 23.377 23.377 0 0 0-7.239.986 65.35 65.35 0 0 0-7.12 2.501c-.083.055-.07.13-.029.223.037.083.448.791.448.791a1.904 1.904 0 0 0 .795.814 5.12 5.12 0 0 0 1.312.504.23.23 0 0 0 .274-.112 4.138 4.138 0 0 1 2.742-1.722 9.016 9.016 0 0 1 2.231-.324 3.129 3.129 0 0 1 1.882.75 6.46 6.46 0 0 1 1.572 2.634 1.43 1.43 0 0 1-.56 1.625 13.237 13.237 0 0 1-3.372.813 5.192 5.192 0 0 1-2.841-.314.211.211 0 0 0-.273.01 5.037 5.037 0 0 1-.865.65c-.106.062-.175.196-.07.402a13.947 13.947 0 0 0 2.258 3.032c.81.607 1.241.335 2.21-.202.974-.536 1.63-1.194 2.637-1.162a2.241 2.241 0 0 1 2.047 1.907z" fill="url(#h)"/><path d="M84.067 50.644a13.607 13.607 0 0 1-3.304.75 5.376 5.376 0 0 1-2.783-.29.214.214 0 0 0-.265.01 4.976 4.976 0 0 1-.85.6c-.104.056-.171.18-.069.37a12.029 12.029 0 0 0 2.138 2.81c.824.596 1.263.329 2.248-.196.99-.526 1.657-1.17 2.68-1.138z" opacity=".85" fill="url(#i)" style="mix-blend-mode:multiply"/><path d="M80.45 43.069a64.105 64.105 0 0 0-6.763 2.271c-.077.05-.065.208-.026.292.036.075.425.719.425.719a1.752 1.752 0 0 0 .756.739 5.433 5.433 0 0 0 1.168.48.23.23 0 0 0 .274-.112 4.138 4.138 0 0 1 2.742-1.723 9.016 9.016 0 0 1 2.231-.324z" opacity=".85" fill="url(#j)" style="mix-blend-mode:multiply"/><path d="M85.902 55.731a4.083 4.083 0 0 1-1.072 2.866c-.468.741-1.431 1.847-1.923 2.465a1.394 1.394 0 0 1-1.542.45s5.365 2.727 8.628 4.366c1.293.654 3.246.208 4.623-2.37.32-.599 2.364-4.916 2.868-6.198z" opacity=".85" fill="url(#k)" style="mix-blend-mode:multiply"/><path d="M59.185 75.917c-.249-.1-.254-.396.082-.748a8.172 8.172 0 0 1 2.57-1.624c.92-.209 4.145-.505 5.517-.584.387-.02 5.374-.466 5.834-.445.454.021 1.592 1.796 2.935 3.258-.155.012-4.5-.084-8.185-.075-3.485.007-6.56.103-7.69.198a3.276 3.276 0 0 1-1.063.02z" fill="url(#l)"/><path d="M59.16 75.98l.025-.063-.025.063a.332.332 0 0 1-.222-.317.841.841 0 0 1 .28-.54 8.169 8.169 0 0 1 2.604-1.644c.932-.21 4.152-.506 5.528-.585.376-.02 5.145-.446 5.8-.446h.041a.945.945 0 0 1 .506.333c.195.195.423.467.678.781.51.63 1.129 1.439 1.798 2.167l.094.102-.14.01h-.073c-.569 0-4.275-.076-7.624-.076l-.492.001c-3.484.006-6.557.103-7.684.198-.248.022-.535.06-.77.06a.948.948 0 0 1-.324-.044zm.325-.09c.221 0 .505-.037.758-.06 1.135-.097 4.208-.192 7.695-.198h.492c3.217 0 6.766.07 7.542.075-.969-1.073-1.823-2.282-2.37-2.83a.88.88 0 0 0-.417-.294h-.035c-.637 0-5.412.425-5.792.444-1.368.079-4.598.377-5.506.583a8.131 8.131 0 0 0-2.537 1.606.726.726 0 0 0-.242.447.193.193 0 0 0 .137.19.787.787 0 0 0 .275.036z" fill="#7c7c7b"/><path d="M131.03 114.78a125.595 125.595 0 0 0-11.603-20.606c-5.725-8.429-15.433-19.844-16.774-21.74-1.313-1.858-1.826-3.949.91-4.813 1.785-.568 6.086-1.457 7.846-1.95 1.713-.47 1.837-1.026 1.98-2.35a67.054 67.054 0 0 0-1.108-12.529 3.488 3.488 0 0 0-1.447-2.066 36.302 36.302 0 0 1-4.28-3.978 10.023 10.023 0 0 1-2.425-4.568 1.08 1.08 0 0 0-.325-.532 1.402 1.402 0 0 0-.391-.29c-2.572-1.584-11.665-4.072-13.523-4.232a20.222 20.222 0 0 0-9.871 2.928c-1.204.73-1.256 1.628-2.1 2.115-.837.49-2.767.929-4.793 1.837-1.12.497-1.123.58-.857 1.21.104.264.833 1.589 1.203 1.589a3.528 3.528 0 0 0 1.257-.36 58.546 58.546 0 0 1 7.767-2.46c3.536-.757 7.335-.82 8.685.606a58.384 58.384 0 0 1 6.749 9.158c1.076 2.09.966 3.106.252 5.25a59.525 59.525 0 0 1-3.881 8.2c-.737 1.068-1.627 1.66-3.758.79-2.286-.94-10.703-5.258-12.533-6.182-1.24-.626-6.44-3.26-10.377-5.233a19.28 19.28 0 0 0-3.96-1.591 19.412 19.412 0 0 0-7.44-.168c-.652.109-1.062 1.161-1.031 1.587.042.531 1.569.153 2.837.244a26.973 26.973 0 0 1 6.56 1.27c2.136.866 12.84 6.631 15.543 8.085 20.592 11.205 29.404 18.417 45.317 45.16.71 1.195 1.053 2.662-.071 2.996-1.63.474-8.419 1.767-10.47 2.441-1.727.568-1.956.704-2.21 1.557a13.445 13.445 0 0 0-.614 3.294c.043.16-.093.366.259.366 1.908 0 8.757.009 14.034.509.636.065.67.048 1.072-.56a20.545 20.545 0 0 1 3.487-3.684c.505-.376.167-1.074.083-1.3z" fill="url(#m)"/><path d="M126.185 110.818c-.11-1.087-1.104-2.7-2.876-5.473-1.781-2.793-4.02-6.605-7-10.824a85.15 85.15 0 0 0-16.974-18.462 116.75 116.75 0 0 0-13.475-8.966c-3.679-2.156-19.213-10.652-21.622-11.407a23.326 23.326 0 0 0-8.37-1.098c-.891 0-.578-.722-.453-1.009-.093.204-.626 1.2.252 1.2a31.038 31.038 0 0 1 3.119.06 26.457 26.457 0 0 1 5.859 1.329c2.159.84 12.299 6.887 14.92 8.351a140.213 140.213 0 0 1 19.539 13.132c8.616 6.94 16.052 14.986 25.376 31.315a3.287 3.287 0 0 1 .564 1.71 1.323 1.323 0 0 1-1.018 1.314c-1.605.483-8.186 1.966-10.136 2.638-1.654.585-1.962.95-2.198 1.717a9.511 9.511 0 0 1-.695 2.288 2.455 2.455 0 0 1-1.891.511c-.498 0-.743.027-.693-.524.048-.552.374-2.044.561-2.902a2.787 2.787 0 0 1 1.328-1.98c.785-.48 3.513-.92 5.05-1.298 1.531-.375 1.616-1.088 1.588-2.244 0 1.227-.426 1.523-1.965 1.869-1.564.349-4.193.686-5.057 1.277a3.25 3.25 0 0 0-1.318 2 22.067 22.067 0 0 0-.823 4.314c.05.478.24.545.772.485.53-.062 1.854-.247 3.839-.322.587 0 .548-.714.538-1.5a6.139 6.139 0 0 1 .163-1.555 1.473 1.473 0 0 1 .964-.947c1.103-.344 7.218-1.995 10.326-2.92 1.362-.407 1.931-.839 1.806-2.08z" fill="url(#n)"/><path d="M85.373 82.157a9.022 9.022 0 0 1 1.804 1.13c.489.358.875.645.875.645a155.37 155.37 0 0 0-12.195 17.795 7.495 7.495 0 0 0-.969 4.574c.028 1.726.233 3.85.12 4.845-.109 1.002-.75 1.432-1.751 1.709-1.001.274-6.926 1.227-8.236 1.614a2.35 2.35 0 0 0-1.827 2.067c-.223.945-.3 1.56-.408 1.926-.118.408-.04.693-.426.721a34.5 34.5 0 0 0-1.707.168c-.43.057-.49-.034-.478-.494a30.058 30.058 0 0 1 .738-3.617 2.646 2.646 0 0 1 2.241-2.188c1.483-.361 7.507-1.373 8.641-1.576 1.335-.243 1.663-.809 1.597-2.092-.064-1.341-.258-3.205-.293-4.352a7.728 7.728 0 0 1 .413-3.122c.417-1.123 2.56-5.767 4.348-9.04a116.82 116.82 0 0 1 6.114-10.08c.478-.586.809-.816 1.399-.633z" fill="url(#o)"/><path d="M81.889 115.241a4.816 4.816 0 0 1 1.02-3.02 42.436 42.436 0 0 1 4.046-4.439c3.022-3.136 10.39-10.35 10.655-10.613.165-.165.366-.397-.043-.792-.73-.701-1.113-1.152-2.265-2.305-.703-.702-1.19-1.128-1.164-1.374.003-.035-8.234 9.225-10.93 16.07a12.09 12.09 0 0 0-1.425 5.047 6.1 6.1 0 0 0 .106 1.426z" fill="url(#p)" style="mix-blend-mode:multiply"/><path d="M55.774 54.778a24.915 24.915 0 0 1 3.215.085 25.173 25.173 0 0 1 5.858 1.389c.786.328 2.648 1.339 4.82 2.566 3.766 2.13 8.468 4.902 10.136 5.836a145.832 145.832 0 0 1 14.995 9.67 137.325 137.325 0 0 1 4.585 3.583c8.638 6.981 15.735 14.71 25.213 31.27a2.857 2.857 0 0 1 .441 1.711 1.376 1.376 0 0 1-1.156 1.146z" fill="url(#q)" style="mix-blend-mode:multiply"/><path d="M112.21 47.016h-.04a1.317 1.317 0 0 1-.755-.277c-1.365-1.018-5.19-3.994-5.741-6.52-.347-1.18.089-.642-1.14-1.264-.342-.134-.674-.267-1.013-.394.117.062.227.122.328.182a2.24 2.24 0 0 1 .484.357 1.785 1.785 0 0 1 .573.944 9.317 9.317 0 0 0 2.263 4.237 35.36 35.36 0 0 0 4.278 3.867 4.789 4.789 0 0 1 .948.773 14.215 14.215 0 0 1 .808-2.696 3.733 3.733 0 0 1-.235.376 1.01 1.01 0 0 1-.758.415z" fill="url(#a)"/><path d="M103.853 68.31c-1.275.459-1.438.864-1.477 1.501v.007a4.28 4.28 0 0 0 .844 2.3c.66.945 3.871 4.593 7.45 9.09a13.072 13.072 0 0 0 .925 1.044c-.131-.171-5.186-6.565-6.734-8.33a3.333 3.333 0 0 1-.952-2.127 3.058 3.058 0 0 1 2.13-2.703c1.923-.701 5.419-1.836 6.214-2.267.773-.445 1.005-.64 1.12-1.167a4.32 4.32 0 0 1-1.573.717c-1.802.496-6.237 1.4-7.947 1.934z" fill="url(#r)"/><path d="M113.268 47.356c.694-2.423 2.898-5.286 6.396-5.286 4.452 0 6.307 1.682 6.93 4.188-.798-3.556-3.911-4.663-6.944-4.592-3.416.08-5.715 2.978-6.382 5.69z" fill="url(#s)"/><path d="M84.27 111.935c.591-.642 2.896-3.201 5.336-5.914a269.9 269.9 0 0 0-2.088 2.13c-3.45 3.527-5.014 4.625-4.945 6.817.04 1.294.143 4.482.15 4.956a.82.82 0 0 1-.516.915 2.312 2.312 0 0 1-.97.145c-.937 0-10.027-.885-13.215-.885a33.438 33.438 0 0 0-7.568.767 1.324 1.324 0 0 1-1.238-.393 1.23 1.23 0 0 1-.208-.621c-.069.621-.129 1.348-.129 1.662a36.74 36.74 0 0 1 3.672-.432c2.234-.174 4.764-.143 6.45-.143s14.192.649 14.24.65c-.083-.962-.208-3.248-.243-4.679l-.042-1.386a4.953 4.953 0 0 1 1.314-3.59z" fill="url(#b)"/><path d="M109.664 106.111a8.107 8.107 0 0 0 2.055 1.1c-.572-.4-1.417-1.043-2.525-1.892a670.91 670.91 0 0 1-5.741-4.513 821.242 821.242 0 0 1-4.994-3.993 1.103 1.103 0 0 1-.482.887 1.813 1.813 0 0 1 .933.503c.646.601 9.078 6.698 10.754 7.908z" fill="url(#t)"/><path d="M132.019 116.863c.29-.23.4-.213.4-.437a3.218 3.218 0 0 0-.224-.834c-1.702-4.871-8.19-16.898-13.232-23.586a3.933 3.933 0 0 1-.802-2.087 2.083 2.083 0 0 1 .815-1.657 35.84 35.84 0 0 0 2.328-2.133c-1.742 1.306-2.96 2.345-3.112 2.813a2.39 2.39 0 0 0-.195.94 3.946 3.946 0 0 0 .84 2.22c.404.57.796 1.132 1.168 1.674a121.553 121.553 0 0 1 11.485 20.857c.34.942.27 1.408-.034 1.828 0 0-3.052 3.121-3.418 3.704a2.863 2.863 0 0 1-.488.613 1.916 1.916 0 0 1-1.256.269c-4.506-.424-9.397-.602-11.85-.602-3.188 0-5.049.308-6.11.336a1.642 1.642 0 0 1-1.043-.214.118.118 0 0 0-.028-.042c-.046.448-.076.784-.085.934a44.596 44.596 0 0 1 7.425-.497c.919 0 1.862.015 2.83.041 4.758.147 10.284.586 10.298.586a43.499 43.499 0 0 1 4.288-4.726z" fill="url(#u)"/><path d="M83.842 81.632c-1.43-1.007-2.944-2.032-4.316-2.871a12.706 12.706 0 0 0-4.04-1.899c-5.502-.086-5.503-.086-8.74-.086-2.522 0-4.917.095-5.866.166a18.23 18.23 0 0 0-3.042.418 1.022 1.022 0 0 1-.308.032c.046.074.12.22.153.277.05-.017.126-.047.267-.088a33.169 33.169 0 0 1 6.944-.495c3.063 0 6.409.023 8.14.104a13.053 13.053 0 0 1 5.489 1.239c1.625.907 5.15 3.352 5.32 3.203z" fill="url(#v)"/><path d="M67.245 65.667c-2.087-1.937-5.241-4.171-6.726-4.477a11.33 11.33 0 0 0-1.852-.205c-.457-.027-.424-.559-.556-.658.015.093.042.893.319.911a5.864 5.864 0 0 1 2.562.36 38.43 38.43 0 0 1 5.5 3.89c.672.776 1.349.697.753.18z" fill="url(#w)"/><path d="M55.376 76.2a1.85 1.85 0 0 1 .898.15c-.212-.36-.448-.522-1.12-.508a13.168 13.168 0 0 0-3.85 1.51c-.58.321-.83.329-1.193-.067.166.402.446.646.701.559.254-.088 3.241-1.644 4.564-1.644z" fill="url(#x)"/><path d="M84.325 38.32c.456-.074.846-.172.891.202a1.354 1.354 0 0 1-.067.59.472.472 0 0 1-.33.278 118.92 118.92 0 0 0-3.617 1.328.414.414 0 0 1-.616-.236 1.63 1.63 0 0 1 .157-.991.783.783 0 0 1 .511-.402c.228-.078 2.394-.66 3.071-.77z" fill="url(#y)"/><path d="M84.25 38.548c.3-.054.447-.024.463.14a1.296 1.296 0 0 1-.012.343c-.016.09-.054.14-.201.197-.31.106-2.27.807-2.743 1.004-.435.182-.654.081-.693-.1a1.087 1.087 0 0 1 .105-.61.599.599 0 0 1 .353-.269c.353-.126 2.172-.603 2.727-.705z" fill="#1d1d1b"/><path d="M95.212 64.16c.327-.595 2.498-5.188 3.021-6.512a6.972 6.972 0 0 0 .714-2.71 6.795 6.795 0 0 0-.663-2.74c-1.196-2.52-4.98-7.31-6.49-9.118-1.28-1.512-2.437-1.747-4.617-1.691-5.56.145-10.407 2.5-13.129 3.612a43.003 43.003 0 0 1 11.91-2.911c2.889-.177 4.046.069 5.105 1.256a62.272 62.272 0 0 1 6.388 8.936 4.753 4.753 0 0 1 .658 2.573 8.268 8.268 0 0 1-.82 2.679c-.552 1.272-2.6 5.43-2.954 6.034-1.492 2.581-2.918 2.49-4.437 2.14.08.042.774.37 1.414.632 1.768.723 2.89-.284 3.9-2.18z" fill="url(#z)"/><path d="M88.5 84.248c-.059-.03-.324-.225-.678-.487a97.81 97.81 0 0 0-7.203 9.798c-1.974 3.141-4.818 7.828-5.263 8.858a7.084 7.084 0 0 0-.56 2.928l.162 5.099a2.262 2.262 0 0 1-.427 1.534 2.41 2.41 0 0 1-1.567.687c-1.173.171-6.698 1.025-8.216 1.332a2.819 2.819 0 0 0-2.41 1.97 10.256 10.256 0 0 0-.508 2.427 1.47 1.47 0 0 0 0 .288c-.042.56.16.528.16.528a98 98 0 0 1 10.202-.264c3.809.223 9.065.72 9.065.72s-5.53-1.036-9.294-1.27c-3.763-.224-8.749.186-8.794-.043a2.283 2.283 0 0 1-.088-.856c.063-.298.14-.64.245-.997a2.56 2.56 0 0 1 2.14-2.099c1.394-.355 6.765-1.244 7.784-1.49 1.005-.256 1.658-.631 1.797-1.452a10.637 10.637 0 0 0 .068-1.34c0-1.08-.19-3.942-.183-4.122a7.435 7.435 0 0 1 1.261-4.596c1.786-2.968 8.501-13.179 11.844-16.724.211-.223.31-.414.682-.355a.84.84 0 0 1-.219-.074z" fill="url(#A)"/><g fill="#052453"><path d="M8.167 142.766v14.907h4.105v-4.586h3.676c7.886 0 11.903-2.53 11.903-5.328 0-3.004-4.313-4.993-11.545-4.993zm4.105 8.712v-7.048h3.23c3.335 0 7.738.564 7.738 3.329 0 1.878-1.428 3.72-8.273 3.72zM51.259 157.673v-1.876H41.142c-2.172 0-2.8-.983-2.8-2.65v-2.183h11.874v-1.87H38.342v-4.457h12.41v-1.87H34.237v10.47c0 2.799 1.161 4.436 4.94 4.436zM77.53 142.766h-4.105v12.582a14.382 14.382 0 0 1-4.851.747c-3.154 0-6.28-.803-6.28-3.573v-9.756h-4.105v10.054c0 4.11 4.105 5.326 8.628 5.326a27.142 27.142 0 0 0 10.712-2.11zM88.944 150.262c0-4.136 3.513-6.075 7.796-6.075a25.777 25.777 0 0 1 8.78 1.88v-2.5a29.027 29.027 0 0 0-8.78-1.25c-6.871 0-12.467 3.153-12.467 7.945 0 5.061 5.596 7.884 12.467 7.884a39.655 39.655 0 0 0 9.227-1.274v-5.908h-4.046v4.417a12.665 12.665 0 0 1-4.882.894c-4.671 0-8.095-2.32-8.095-6.013M130.469 157.673v-1.876h-10.12c-2.17 0-2.796-.983-2.796-2.65v-2.183h11.875v-1.87h-11.875v-4.457h12.41v-1.87h-16.515v10.47c0 2.799 1.158 4.436 4.939 4.436zM148.282 142.316c-6.87 0-12.495 3.214-12.495 8.023 0 5.042 5.625 7.807 12.495 7.807 6.876 0 12.47-2.765 12.47-7.807 0-4.809-5.594-8.023-12.47-8.023m0 14.166c-4.671 0-7.824-2.41-7.824-6.143 0-4.096 3.511-6.152 7.824-6.152 4.287 0 7.797 2.056 7.797 6.152 0 3.734-3.155 6.143-7.797 6.143M164.12 144.904h8.184v12.769h4.107v-12.769h8.183v-2.138H164.12v2.138z"/></g></g></svg>