<svg xmlns="http://www.w3.org/2000/svg" viewBox="0 0 192 192"><defs><linearGradient id="a" data-name="Sfumatura senza nome 88" x1="984.906" y1="-116.288" x2="986.24" y2="-116.288" gradientTransform="matrix(-.32 -91.06 90.49 -.31 10935.308 89779.362)" gradientUnits="userSpaceOnUse"><stop offset="0" stop-color="#99a2a7"/><stop offset=".48" stop-color="#98a4a9"/><stop offset=".54" stop-color="#e6e6e6"/><stop offset="1" stop-color="#e6e6e6"/></linearGradient><linearGradient id="b" data-name="Sfumatura senza nome 87" x1="976.422" y1="-97.766" x2="977.756" y2="-97.766" gradientTransform="scale(81.74 -81.74) rotate(42.46 364.397 -1305.507)" gradientUnits="userSpaceOnUse"><stop offset="0" stop-color="#151313"/><stop offset=".09" stop-color="#151313"/><stop offset=".13" stop-color="#f8f1f1"/><stop offset=".23" stop-color="#151313"/><stop offset=".3" stop-color="#141414"/><stop offset=".38" stop-color="#f8f1f1"/><stop offset=".45" stop-color="#151313"/><stop offset=".57" stop-color="#f8f0f4"/><stop offset=".63" stop-color="#141414"/><stop offset=".79" stop-color="#f8f1f1"/><stop offset="1" stop-color="#f8f1f2"/></linearGradient><linearGradient id="c" data-name="Sfumatura senza nome 86" x1="915.227" y1="-40.743" x2="916.561" y2="-40.743" gradientTransform="matrix(5.8 7.58 -7.58 5.8 -5515.61 -6624.407)" gradientUnits="userSpaceOnUse"><stop offset="0" stop-color="#151313"/><stop offset=".16" stop-color="#ccc4c4"/><stop offset=".5" stop-color="#b8acad"/><stop offset="1" stop-color="#151313"/></linearGradient><linearGradient id="d" data-name="Sfumatura senza nome 85" x1="1066.424" y1="-156.406" x2="1067.758" y2="-156.406" gradientTransform="scale(-9.33 9.33) rotate(22.11 105.42 -2832.04)" gradientUnits="userSpaceOnUse"><stop offset="0" stop-color="#151313"/><stop offset=".25" stop-color="#ccc4c4"/><stop offset=".5" stop-color="#b8acad"/><stop offset="1" stop-color="#151313"/></linearGradient></defs><circle cx="97.005" cy="68.593" r="60.513" fill="url(#a)"/><path d="M96.791 8.08v.654h.214a59.86 59.86 0 0 1 59.86 59.66v.212a59.86 59.86 0 0 1-59.66 59.86h-.2a59.873 59.873 0 0 1-59.873-59.66v-.213a59.873 59.873 0 0 1 59.66-59.86V7.4a61.166 61.166 0 0 0-60.954 61.153v.214a61.166 61.166 0 0 0 61.167 60.993h.213a61.153 61.153 0 0 0 60.953-61.153v-.214A61.153 61.153 0 0 0 97.005 7.44h-.214z" fill="#141414"/><path d="M97.005 122.904a54.311 54.311 0 1 1 38.426-15.885 54.338 54.338 0 0 1-38.426 15.885" fill="#141414"/><path d="M97.005 118.516a49.923 49.923 0 1 1 35.304-14.618 49.923 49.923 0 0 1-35.304 14.618" fill="#fff"/><path d="M134.91 92.574a25.462 25.462 0 0 0-13.417-6.589 1.2 1.2 0 0 0-1.327 1.06q-.006.057-.007.114V89a1.134 1.134 0 0 1-.96 1.174h-1.2c-1.415 0-1.668-1.76-1.335-2.774 3.015-10.803 3.748-17.339 3.722-22.14a48.349 48.349 0 0 0-2.454-16.819c-2.255-6.429-4.322-12.737-14.952-22.367a3.788 3.788 0 0 0-2.427-1.04 43.92 43.92 0 0 0-2.961-.107A44.108 44.108 0 0 0 84.88 26.78c-1.507.453-1.334 1.507-.454 2.214a61.193 61.193 0 0 1 13.218 15.045 7.269 7.269 0 0 1-5.722-2.495 72.13 72.13 0 0 0-14.405-10.51 2.054 2.054 0 0 0-2.16-.16 40.32 40.32 0 0 0-11.297 9.337.942.942 0 0 0 .386 1.6 82.854 82.854 0 0 1 15.899 11.297c-1.16.974-3.001.654-5.682-.747a63.807 63.807 0 0 0-13.831-5.215 1.814 1.814 0 0 0-2.08.747 41.974 41.974 0 0 0-4.869 14.285 1.76 1.76 0 0 0 1.47 2.01l.024.004c8.776 1.534 24.421 5.668 27.022 23.687a2.04 2.04 0 0 1-3.108 2.081l-7.896-3.748a2.187 2.187 0 0 0-.893-.24h-12.43a1.734 1.734 0 0 0-1.335 3.001 77.358 77.358 0 0 1 8.083 11.097.867.867 0 0 0 .854.48h5.428a1.88 1.88 0 0 0 1-.28l5.122-3a1.814 1.814 0 0 1 1-.188h40.894a.92.92 0 0 1 .984.851l.003.056v2.014a1.2 1.2 0 0 0 1.219 1.181q.057 0 .114-.007a25.488 25.488 0 0 0 13.418-6.589 1.334 1.334 0 0 0 0-2.027" fill="url(#b)"/><path d="M135.43 92.027a26.222 26.222 0 0 0-13.817-6.788h-.307a1.96 1.96 0 0 0-1.947 1.947v1.84l-.12.32-.08.08h-1.187a.6.6 0 0 1-.32-.08.774.774 0 0 1-.294-.4 2.08 2.08 0 0 1-.133-.76 2.267 2.267 0 0 1 .08-.587c2.947-10.603 3.708-17.192 3.708-22.047v-.333a49.136 49.136 0 0 0-2.468-17.006 50.99 50.99 0 0 0-4.321-10.123 54.03 54.03 0 0 0-10.67-12.564 4.575 4.575 0 0 0-2.881-1.227c-1.12-.094-2.001-.094-3.095-.094A44.908 44.908 0 0 0 84.654 26.1a2.668 2.668 0 0 0-1.174.667 1.64 1.64 0 0 0-.466 1.134 2.36 2.36 0 0 0 .92 1.64 60.526 60.526 0 0 1 13.07 14.885l.654-.386-.08-.76h-.467a5.042 5.042 0 0 1-2.494-.694 10.844 10.844 0 0 1-2.174-1.68 72.904 72.904 0 0 0-14.551-10.67 3.414 3.414 0 0 0-1.654-.494 2.454 2.454 0 0 0-1.24.333 41.12 41.12 0 0 0-11.484 9.536 1.827 1.827 0 0 0-.494 1.187 1.56 1.56 0 0 0 .374 1 2.414 2.414 0 0 0 .72.574 82.226 82.226 0 0 1 15.739 11.177l.506-.56-.493-.587a1.734 1.734 0 0 1-1.187.387 8.63 8.63 0 0 1-3.655-1.227 64.5 64.5 0 0 0-13.99-5.335 3.028 3.028 0 0 0-.761-.093 2.454 2.454 0 0 0-2.174 1.187 42.747 42.747 0 0 0-4.962 14.551 2.561 2.561 0 0 0 0 .387 2.534 2.534 0 0 0 2.134 2.48 41.64 41.64 0 0 1 15.552 5.549 23.888 23.888 0 0 1 10.843 17.66v.28a1.334 1.334 0 0 1-.346.906 1.147 1.147 0 0 1-.867.36 1.96 1.96 0 0 1-.827-.2l-7.963-3.734a2.921 2.921 0 0 0-1.214-.307H58.072a2.774 2.774 0 0 0-1.907.693 2.32 2.32 0 0 0-.747 1.721 2.84 2.84 0 0 0 .747 1.854 76.732 76.732 0 0 1 8.002 10.99 1.72 1.72 0 0 0 .627.64 1.747 1.747 0 0 0 .88.214h5.429a2.668 2.668 0 0 0 1.334-.387l5.121-3.001h41.734v2.094a1.96 1.96 0 0 0 1.96 1.947h.294a26.235 26.235 0 0 0 13.885-6.855 2.147 2.147 0 0 0 .099-3.035q-.048-.052-.1-.1l-1.04 1.107a.614.614 0 0 1 .2.454.627.627 0 0 1-.2.453 24.728 24.728 0 0 1-13.017 6.39.44.44 0 0 1-.44-.428v-2a1.614 1.614 0 0 0-.547-1.227 1.814 1.814 0 0 0-1.2-.427H78.171a4.12 4.12 0 0 0-.614 0 1.987 1.987 0 0 0-.746.253l-5.149 3.028a1.107 1.107 0 0 1-.613.173h-5.522l-.08-.106a78.08 78.08 0 0 0-8.15-11.204 1.334 1.334 0 0 1-.373-.854.787.787 0 0 1 .267-.6 1.334 1.334 0 0 1 .88-.293h12.43a1.507 1.507 0 0 1 .574.173l7.91 3.708a3.468 3.468 0 0 0 1.48.267 2.668 2.668 0 0 0 1.974-.84 2.84 2.84 0 0 0 .76-1.828 3.15 3.15 0 0 0 0-.427 25.435 25.435 0 0 0-11.537-18.632 43.067 43.067 0 0 0-16.138-5.762 1.014 1.014 0 0 1-.88-.987v-.16a41.213 41.213 0 0 1 4.774-14.045.934.934 0 0 1 .867-.44 1.588 1.588 0 0 1 .374 0 63.1 63.1 0 0 1 13.67 5.228 9.977 9.977 0 0 0 4.349 1.334 3.268 3.268 0 0 0 2.16-.747l.667-.56-.64-.587a83.627 83.627 0 0 0-16.005-11.403.934.934 0 0 1-.267-.2l.107-.174a39.533 39.533 0 0 1 11.097-9.216.934.934 0 0 1 .48-.134 1.934 1.934 0 0 1 .92.307 71.41 71.41 0 0 1 14.245 10.404 12.391 12.391 0 0 0 2.48 1.92 6.549 6.549 0 0 0 3.228.88h.614l1.187-.106-.613-1.054A61.967 61.967 0 0 0 85 28.42a.974.974 0 0 1-.387-.573v-.08a1.24 1.24 0 0 1 .52-.267 43.36 43.36 0 0 1 12.484-1.827 26.606 26.606 0 0 1 2.921.106 3.014 3.014 0 0 1 1.974.84 52.47 52.47 0 0 1 10.39 12.258 49.481 49.481 0 0 1 4.202 9.843 47.602 47.602 0 0 1 2.414 16.579v.253c0 4.655-.76 11.084-3.695 21.607a3.761 3.761 0 0 0-.147 1.067 3.308 3.308 0 0 0 .454 1.747 2.08 2.08 0 0 0 1.814.92h1.214a1.64 1.64 0 0 0 1.333-.666 2.08 2.08 0 0 0 .44-1.254v-1.8a.44.44 0 0 1 .44-.427h.067a24.701 24.701 0 0 1 12.911 6.388z" fill="#141414"/><path d="M104.434 86.692a7.282 7.282 0 1 1 7.242-7.322v.027a7.282 7.282 0 0 1-7.242 7.295zm26.782 6.87a20.807 20.807 0 0 0-9.23-4.456c-.32-.066-.48 0-.48.387v.187a2.014 2.014 0 0 1-1.747 1.88h-2.294a3.054 3.054 0 0 1-2.961-4.174c8.309-29.676-.974-48.016-12.711-58.299-3.188-2.788-3.468-2.934-6.669-2.814a42.107 42.107 0 0 0-7.923 1c-.493.12-.893.507-.253 1.04a55.418 55.418 0 0 1 17.953 27.476c.133.467-.147.44-.507.467-3.455.213-4.615-1.907-5.695-3.241a83.307 83.307 0 0 0-23.141-19.553c-.654-.387-.76-.387-1.254-.094a36.905 36.905 0 0 0-7.682 6.162c-.44.467-.32.68.16.947a76.825 76.825 0 0 1 23.34 20.074c.52.653.56.96.267 1.133-1.614.96-4.308.947-7.255-.893A93.364 93.364 0 0 0 60.66 50.44c-.68-.2-.8-.16-1.08.426a45.615 45.615 0 0 0-3.842 11.164c-.08.48-.12.52.32.614 17.486 3.547 27.089 13.137 28.183 25.968a3.748 3.748 0 0 1-4.829 3.615c-2.667-.867-5.335-1.828-8.082-2.668a2.8 2.8 0 0 0-.894-.133H59.14c-.507 0-.8.32-.293.947a75.558 75.558 0 0 1 6.495 8.99.854.854 0 0 0 .854.48h4.134a2.814 2.814 0 0 0 1.494-.414c1.507-.88 3.001-1.707 4.508-2.588a2.668 2.668 0 0 1 1.44-.453h41.908a2.054 2.054 0 0 1 1.774 1.894v.307c0 .333.16.453.48.386a21.207 21.207 0 0 0 9.23-4.694c.253-.214.253-.4 0-.614" fill="#54b041"/><path d="M112.023 78.57" fill="url(#c)"/><path d="M105.207 71.634l-2.467 16.272a8.23 8.23 0 0 0 2.467-16.272z" fill="url(#d)"/><path d="M110.836 79.543a5.508 5.508 0 1 1-5.522-5.521 5.508 5.508 0 0 1 5.522 5.521" fill="#fff"/><path d="M110.076 79.543a4.735 4.735 0 1 1 0-.053v.053h1.52a6.267 6.267 0 1 0 0 .014v-.014zM32.984 146.178l2.668 2.975a.587.587 0 0 0 .506.226h5.469a.587.587 0 0 0 .52-.226l2.668-2.975c.226-.253.146-.52-.227-.52h-3.855a.614.614 0 0 0-.52.254l-1.107 1.6h-.614l-1.107-1.6a.627.627 0 0 0-.546-.254H33.17c-.374 0-.454.254-.227.52m48.269 14.952v.28c0 9.99 1.64 10.59 13.631 10.59s13.631-.6 13.631-10.67v-.254c0-9.99-1.627-10.59-13.631-10.59s-13.631.6-13.631 10.59m-1.214 9.937l-11.403-11.137 10.67-8.443c.32-.226.2-.52-.2-.52h-6.963a.747.747 0 0 0-.52.2l-10.937 8.736v-8.509a.373.373 0 0 0-.427-.427h-5.335a.387.387 0 0 0-.426.427v19.753a.387.387 0 0 0 .426.427h5.335a.373.373 0 0 0 .427-.427v-4.975l3.241-2.547 7.843 7.735a.694.694 0 0 0 .547.227h7.509c.373 0 .493-.253.2-.52m44.24-20.1h-11.43a.387.387 0 0 0-.426.427v19.753a.387.387 0 0 0 .427.427h11.43c12.23 0 13.831-.6 13.831-10.23v-.174c0-9.616-1.6-10.216-13.831-10.216m44.268 20.1l-9.884-19.793a.467.467 0 0 0-.48-.32h-8.763a.467.467 0 0 0-.493.32L138.992 171c-.147.32 0 .52.32.52h5.708a.467.467 0 0 0 .48-.32l1.494-2.921h13.498l1.494 2.92a.467.467 0 0 0 .493.32h5.695c.347 0 .454-.2.32-.52m-66.688-9.936v.28c0 5.789-.226 5.869-6.989 5.869s-6.989-.08-6.989-5.869v-.28c0-5.788.227-5.869 6.99-5.869s6.988.08 6.988 5.87m29.73 0v.28c0 5.334-.427 5.468-7.31 5.468h-5.64v-11.23h5.668c6.869 0 7.309.173 7.309 5.468m26.795 2.974h-9.203l4.215-8.336h.747zm-132.163 7.59c3.028.146 8.003.28 10.844.28 12.484 0 13.977 0 13.977-6.816 0-5.335-1.573-5.789-8.189-5.989l-7.709-.173c-3.521-.12-3.574-.48-3.574-2.068s.426-1.627 8.882-1.627c1.6 0 6.67.08 9.337.147a.373.373 0 0 0 .427-.427v-3.494a.4.4 0 0 0-.4-.454c-2.668-.147-7.016-.293-10.137-.293-12.257 0-14.231.227-14.231 6.562 0 5.415 1.2 6.135 9.042 6.389l7.043.226c3.294.12 3.36.52 3.36 1.748 0 1.693-.146 1.774-7.935 1.774-3.641 0-7.39-.147-10.79-.254-.294 0-.427.12-.427.4v3.668a.413.413 0 0 0 .371.452l.03.002" fill="#141414"/></svg>