<svg xmlns="http://www.w3.org/2000/svg" viewBox="0 0 192 192"><path d="M32.095 10h127.81v172H32.095z"/><path d="M120.542 146.155v12.189h4.09v-11.89a3.027 3.027 0 0 1 3.014-3.013h1.922v-4.035h-2.086a7.035 7.035 0 0 0-6.98 6.817M138.963 154.35a3.027 3.027 0 0 1-3-3.014v-7.976h4.608v-3.982h-4.608v-3.75h-4.186v15.926a7.063 7.063 0 0 0 6.981 6.817h2.14v-3.981h-1.935M88.87 139.024a6.913 6.913 0 0 0-5.332 2.536 6.926 6.926 0 0 0-5.358-2.536 6.817 6.817 0 0 0-6.818 6.476v12.844h4.186v-12.271a2.959 2.959 0 0 1 2.862-3.053l.083-.001c1.364 0 2.959.927 2.959 3.545v11.821h4.186v-11.93a3.122 3.122 0 0 1 2.682-3.508q.13-.017.263-.024a2.863 2.863 0 0 1 2.958 3.054v12.272h4.186v-12.83a6.817 6.817 0 0 0-6.817-6.49M113.725 148.909a5.454 5.454 0 0 1-5.645 5.808 5.808 5.808 0 1 1 5.643-5.97l.002.162m-5.727-9.844a9.544 9.544 0 0 0-9.655 9.431q-.002.173.002.345a9.544 9.544 0 0 0 9.196 9.88q.262.01.526.005a7.24 7.24 0 0 0 5.453-2.182v1.786h4.173v-9.407a9.435 9.435 0 0 0-9-9.852q-.347-.016-.695-.006zM61.586 147.014c-4.09-.464-4.854-1.2-4.854-2.305 0-1.745 2.646-1.977 3.818-1.977a8.48 8.48 0 0 1 5.454 1.991l2.727-2.727a12.53 12.53 0 0 0-8.672-3c-5.004 0-7.69 3.027-7.69 5.89 0 3.396 2.632 5.318 8.045 5.905 2.277.245 3.995.559 3.995 2.154 0 2.918-7.322 2.631-10.253-.627l-2.905 2.917a13.198 13.198 0 0 0 8.658 3.49c6.095 0 8.863-2.985 8.863-5.78 0-3.504-2.277-5.454-7.186-5.972" fill="#fff"/><path d="M115.334 42.655c9.299 6.026 22.674 24.815 26.274 35.19-3.6 10.404-16.975 29.151-26.274 35.191V42.655" fill="#fdba34"/><path d="M95.468 56.003a29.15 29.15 0 0 1 15.912 5.454V40.24a32.887 32.887 0 0 0-17.657-4.785 42.376 42.376 0 0 0 0 84.739 32.723 32.723 0 0 0 17.657-4.732V94.234a29.26 29.26 0 0 1-15.912 5.454c-13.184 0-22.865-9.626-22.865-21.815s9.68-21.815 22.865-21.815" fill="#c1c4c6"/></svg>