<svg xmlns="http://www.w3.org/2000/svg" viewBox="0 0 192 192"><g fill="#1d3a6a"><path d="M26.924 148.228c-.39-3.612-10.152-8.007-10.152-8.007-2.54-1.562-1.468-3.51-1.468-3.51 1.564-3.42 9.762-.197 9.762-.197l1.561-3.711a15.083 15.083 0 0 0-9.894-2.59c-6.817.78-7.833 5.387-7.833 5.387-1.558 7.057 3.887 8.731 3.887 8.731a68.526 68.526 0 0 1 6.461 3.293c4.068 2.63.477 4.368.477 4.368-4.425 2.088-9.99-.781-9.99-.781L8 155.279c4.609 3.108 11.723 1.795 11.723 1.795 9.037-1.316 7.199-8.847 7.199-8.847z"/><path d="M41.482 149.67c-.314-2.924-8.218-6.48-8.218-6.48-2.056-1.264-1.185-2.845-1.185-2.845 1.264-2.765 7.902-.158 7.902-.158l1.264-3.004a12.217 12.217 0 0 0-8.008-2.095c-5.52.632-6.344 4.361-6.344 4.361-1.26 5.712 3.147 7.07 3.147 7.07a55.2 55.2 0 0 1 5.23 2.665c3.292 2.129.388 3.53.388 3.53-3.581 1.697-8.087-.627-8.087-.627l-1.402 3.294c3.73 2.517 9.49 1.451 9.49 1.451 7.315-1.066 5.825-7.162 5.825-7.162z"/><path d="M48.093 135.592l-7.802 20.942 4.492.08 2.036-4.576h9.411l2.036 4.154h4.32l-8.14-20.6h-6.353zm.25 12.716l2.967-7.292 3.223 7.292h-6.19zm28.743 1.101l-8.73-13.646h-5.768v20.43l4.24.084v-13.395l9.325 13.99h5.34v-21.03h-4.407M100.483 145H93.36v3.222h4.835v4.917a10.464 10.464 0 0 1-6.782-.082c-6.867-4.578-3.138-10.259-3.138-10.259 4.244-6.614 14.329-2.543 14.329-2.543v-3.815c-12.297-3.985-17.555 2.711-17.555 2.711-6.949 9.579 1.696 15.856 1.696 15.856a17.143 17.143 0 0 0 16.62.677v-7.547c-.168-3.47-2.884-3.134-2.884-3.134zm80.64 0h-7.12v3.222h4.828v4.917a10.464 10.464 0 0 1-6.781-.082c-6.868-4.578-3.138-10.259-3.138-10.259 4.24-6.614 14.328-2.543 14.328-2.543v-3.815c-12.292-3.985-17.549 2.711-17.549 2.711-6.953 9.579 1.693 15.856 1.693 15.856a17.132 17.132 0 0 0 16.616.677v-7.547c-.166-3.47-2.878-3.134-2.878-3.134z"/><path d="M119.554 131.097l-6.525 10.852-6.526-10.595h-5.681l9.748 15.853-5.427 10.17h5.172l15.009-26.28m5.252 4.203a11.148 11.148 0 1 0 .002 0zm0 17.925a6.785 6.785 0 1 1 .001 0zm27.3-4.067l-8.732-13.481h-5.935v20.935l4.499-.079v-13.568l9.233 13.817h5.427v-21.189h-4.492m-5.135-69.239c-3.248-11.988-18.76-18.029-18.76-18.029-4.14-1.515-2.484.867-2.484.867s17.85 8.214 17.85 19.652c0 14.163-19.453 18.4-19.453 18.4 17.693-5.628 17.741-17.64 17.741-17.64-.308-12.01-16.138-20.413-16.138-20.413a44.844 44.844 0 0 0-9.414-4.329c-7.969-2.668-5.382.434-5.382.434s24.03 7.571 24.03 24.275c0 17.063-33.498 22.542-33.498 22.542 31.497-5.844 31.506-22.4 31.506-22.4 0-14.914-22.039-24.418-22.039-24.418a49.223 49.223 0 0 0-8.925-3.257c-5.2-1.106-2.25 1.163-2.25 1.163 21.105 12.337 21.105 25.97 21.105 25.97 0 15.151-13.89 18.935-13.89 18.935-4.036 1.569-11.845 2.825-11.845 2.825a2.622 2.622 0 0 0-2.148 2.262 1.618 1.618 0 0 0 .4 1.142 40.727 40.727 0 0 0 3.33 2.724 4.263 4.263 0 0 1 1.457 3.095c0 2.842-3.272 5.15-7.337 5.204h-.298c-4.064-.053-7.335-2.362-7.335-5.204a4.268 4.268 0 0 1 1.456-3.096 40.48 40.48 0 0 0 3.33-2.724 1.622 1.622 0 0 0 .403-1.142 2.625 2.625 0 0 0-2.15-2.262s-7.81-1.255-11.847-2.825c0 0-13.89-3.785-13.89-18.937 0 0 0-13.635 21.108-25.97 0 0 2.947-2.27-2.251-1.162A49.124 49.124 0 0 0 76.2 45.29S54.164 54.795 54.164 69.71c0 0 .004 16.555 31.504 22.4 0 0-33.498-5.48-33.498-22.542 0-16.706 24.032-24.277 24.032-24.277s2.585-3.102-5.384-.433a44.814 44.814 0 0 0-9.414 4.328s-15.83 8.404-16.142 20.413c0 0 .05 12.014 17.744 17.64 0 0-19.448-4.237-19.448-18.4 0-11.438 17.846-19.653 17.846-19.653s1.656-2.381-2.484-.865c0 0-15.512 6.043-18.758 18.03 0 0-.982 4.515.456 7.814 1.747 4.038 6.297 10.73 17.89 14.478 0 0 5.277 2.167 26.384 6.387l1.244.282s.909.398.26 1.117l-2.909 2.498s-4.263 3.28 1.82 6.041a17.551 17.551 0 0 1 6.335 4.069 7.267 7.267 0 0 0 4.534 1.681v.012h.191c.01 0 .016.003.023.003v-.003h.124v.004a.066.066 0 0 1 .02-.004h.131v-.005a7.253 7.253 0 0 0 4.592-1.688 17.552 17.552 0 0 1 6.333-4.069c6.088-2.76 1.822-6.04 1.822-6.04l-2.901-2.494c-.65-.72.256-1.115.256-1.115l1.244-.283c21.106-4.221 26.384-6.389 26.384-6.389 11.592-3.747 16.141-10.436 17.893-14.476 1.437-3.3.452-7.816.452-7.816z"/></g></svg>