<svg xmlns="http://www.w3.org/2000/svg" xmlns:xlink="http://www.w3.org/1999/xlink" viewBox="0 0 192 192"><defs><linearGradient id="j" data-name="Sfumatura senza nome 191" x1="266.835" y1="1088.226" x2="393.57" y2="1088.226" gradientTransform="translate(-233.6 -1010.84)" gradientUnits="userSpaceOnUse"><stop offset=".005" stop-color="#808081"/><stop offset=".154" stop-color="#fff"/><stop offset=".194" stop-color="#f4f4f4"/><stop offset=".3" stop-color="#ddd"/><stop offset=".399" stop-color="#cfcece"/><stop offset=".483" stop-color="#cac9c9"/><stop offset=".488" stop-color="#c1c0c0"/><stop offset=".514" stop-color="#989797"/><stop offset=".539" stop-color="#767676"/><stop offset=".565" stop-color="#5b5b5b"/><stop offset=".592" stop-color="#484848"/><stop offset=".619" stop-color="#3d3d3d"/><stop offset=".648" stop-color="#383938"/><stop offset=".835" stop-color="#383938"/><stop offset="1" stop-color="#7a7b7b"/></linearGradient><linearGradient id="k" data-name="Sfumatura senza nome 190" x1="266.835" y1="1088.226" x2="393.57" y2="1088.226" gradientTransform="translate(-233.6 -1010.84)" gradientUnits="userSpaceOnUse"><stop offset=".005" stop-color="#d1d1d1"/><stop offset=".456" stop-color="#4e4e4e"/><stop offset="1" stop-color="#a6a6a6"/></linearGradient><linearGradient id="l" data-name="Sfumatura senza nome 189" x1="303.453" y1="1060.554" x2="355.278" y2="1114.18" gradientTransform="translate(-233.6 -1010.84)" gradientUnits="userSpaceOnUse"><stop offset=".005" stop-color="#e6e6e6"/><stop offset=".456" stop-color="#5a5a5a"/><stop offset=".835" stop-color="#808081"/><stop offset="1" stop-color="#d9d9d9"/></linearGradient><linearGradient id="m" data-name="Sfumatura senza nome 188" x1="306.626" y1="1074.316" x2="374.396" y2="1113.805" gradientTransform="translate(-233.6 -1010.84)" gradientUnits="userSpaceOnUse"><stop offset=".005" stop-color="#f2f2f2"/><stop offset=".346" stop-color="#1b1b1b"/><stop offset=".588" stop-color="#3d3d3d"/><stop offset=".696" stop-color="#494949"/><stop offset=".769" stop-color="#535353"/><stop offset="1" stop-color="#bdbdbc"/></linearGradient><linearGradient id="n" data-name="Sfumatura senza nome 187" x1="340.105" y1="1109.242" x2="356.315" y2="1109.242" gradientTransform="translate(-233.6 -1010.84)" gradientUnits="userSpaceOnUse"><stop offset=".082" stop-color="#9a9999"/><stop offset=".175" stop-color="#7c7c7d"/><stop offset=".324" stop-color="#535353"/><stop offset=".637" stop-color="#4b4a4b"/><stop offset=".786" stop-color="#b0b0b0"/><stop offset=".89" stop-color="#7a7b7b"/><stop offset="1" stop-color="#9e9e9e"/></linearGradient><linearGradient id="o" data-name="Sfumatura senza nome 186" x1="363.9" y1="1104.767" x2="363.9" y2="1105.585" gradientTransform="translate(-233.6 -1010.84)" gradientUnits="userSpaceOnUse"><stop offset=".137" stop-color="#e6e6e6"/><stop offset=".505" stop-color="#cdcccc"/><stop offset=".912" stop-color="#e0e0e0"/></linearGradient><linearGradient id="h" data-name="Sfumatura senza nome 169" x1="345.68" y1="1101.763" x2="354.848" y2="1101.163" gradientTransform="translate(-233.6 -1010.84)" gradientUnits="userSpaceOnUse"><stop offset=".082" stop-color="#9a9999"/><stop offset=".128" stop-color="#a5a4a3"/><stop offset=".324" stop-color="#cfcfcf"/><stop offset=".56" stop-color="#d9d9d9"/><stop offset=".758" stop-color="#e0e0e0"/></linearGradient><linearGradient id="a" data-name="Sfumatura senza nome 179" x1="334.289" y1="1101.069" x2="339.205" y2="1105.908" gradientTransform="translate(-233.6 -1010.84)" gradientUnits="userSpaceOnUse"><stop offset=".082" stop-color="#eeeded"/><stop offset=".205" stop-color="#bcbcbb"/><stop offset=".324" stop-color="#919191"/><stop offset=".56" stop-color="#8c8c8c"/><stop offset=".758" stop-color="#9a9999"/></linearGradient><linearGradient id="b" data-name="Sfumatura senza nome 178" x1="329.64" y1="1111.752" x2="339.395" y2="1103.747" gradientTransform="translate(-233.6 -1010.84)" gradientUnits="userSpaceOnUse"><stop offset=".082" stop-color="#949494"/><stop offset=".164" stop-color="#7c7c7d"/><stop offset=".324" stop-color="#535353"/><stop offset=".56" stop-color="#4b4a4b"/><stop offset=".758" stop-color="#9a9999"/></linearGradient><linearGradient id="c" data-name="Sfumatura senza nome 177" x1="325.695" y1="1108.679" x2="330.36" y2="1116.771" gradientTransform="translate(-233.6 -1010.84)" gradientUnits="userSpaceOnUse"><stop offset="0" stop-color="#d9d9d9"/><stop offset=".203" stop-color="#6d6d6c"/><stop offset=".206" stop-color="#6d6d6d"/><stop offset=".445" stop-color="#979797"/><stop offset=".56" stop-color="#979797"/><stop offset=".758" stop-color="#a8a8a8"/></linearGradient><linearGradient id="d" data-name="Sfumatura senza nome 176" x1="328.119" y1="1113.504" x2="329.11" y2="1113.504" gradientTransform="translate(-233.6 -1010.84)" gradientUnits="userSpaceOnUse"><stop offset=".214" stop-color="#979797"/><stop offset=".363" stop-color="#adadad"/><stop offset=".505" stop-color="#cac9c9"/><stop offset=".742" stop-color="#a3a3a2"/><stop offset=".885" stop-color="#9e9e9e"/></linearGradient><linearGradient id="e" data-name="Sfumatura senza nome 175" x1="318.43" y1="1105.338" x2="324.432" y2="1108.84" gradientTransform="translate(-233.6 -1010.84)" gradientUnits="userSpaceOnUse"><stop offset="0" stop-color="#a8a8a8"/><stop offset=".088" stop-color="#6d6d6c"/><stop offset=".368" stop-color="#5f5f5f"/><stop offset=".463" stop-color="#636363"/><stop offset=".542" stop-color="#6d6d6d"/><stop offset=".615" stop-color="#7d7d7e"/><stop offset=".685" stop-color="#979797"/><stop offset=".687" stop-color="#979797"/><stop offset=".846" stop-color="#d9d9d9"/></linearGradient><linearGradient id="f" data-name="Sfumatura senza nome 174" x1="313.692" y1="1101.182" x2="329.465" y2="1101.182" gradientTransform="translate(-233.6 -1010.84)" gradientUnits="userSpaceOnUse"><stop offset="0" stop-color="#a8a8a8"/><stop offset="1" stop-color="#fff"/></linearGradient><linearGradient id="g" data-name="Sfumatura senza nome 173" x1="328.601" y1="1098.525" x2="332.028" y2="1104.978" gradientTransform="translate(-233.6 -1010.84)" gradientUnits="userSpaceOnUse"><stop offset="0" stop-color="#c8c7c7"/><stop offset=".082" stop-color="#bdbdbc"/><stop offset=".143" stop-color="#8c8c8c"/><stop offset=".215" stop-color="#7e7f7f"/><stop offset=".33" stop-color="#6d6d6c"/><stop offset=".391" stop-color="#5a5a5a"/><stop offset=".544" stop-color="#2e2f2f"/><stop offset=".574" stop-color="#333"/><stop offset=".604" stop-color="#3f3f3f"/><stop offset=".635" stop-color="#545454"/><stop offset=".666" stop-color="#717171"/><stop offset=".697" stop-color="#969596"/><stop offset=".728" stop-color="#c2c1c1"/><stop offset=".747" stop-color="#e0e0e0"/><stop offset=".89" stop-color="#fff"/></linearGradient><linearGradient id="i" data-name="Sfumatura senza nome 163" x1="328.331" y1="1097.985" x2="328.777" y2="1097.985" gradientTransform="translate(-233.6 -1010.84)" gradientUnits="userSpaceOnUse"><stop offset="0" stop-color="#fff"/><stop offset=".451" stop-color="#bfbfbf"/><stop offset=".824" stop-color="#c3c2c2"/></linearGradient><linearGradient id="p" data-name="Sfumatura senza nome 185" x1="316.056" y1="1105.721" x2="316.062" y2="1104.848" gradientTransform="translate(-233.6 -1010.84)" gradientUnits="userSpaceOnUse"><stop offset="0" stop-color="#a6a6a6"/><stop offset=".451" stop-color="#e6e6e6"/><stop offset=".824" stop-color="#b8b8b8"/></linearGradient><linearGradient id="q" data-name="Sfumatura senza nome 184" x1="363.561" y1="1105.16" x2="360.328" y2="1115.621" gradientTransform="translate(-233.6 -1010.84)" gradientUnits="userSpaceOnUse"><stop offset=".005" stop-color="#fff"/><stop offset=".006" stop-color="#fff"/><stop offset=".035" stop-color="#cccccb"/><stop offset=".064" stop-color="#a2a1a1"/><stop offset=".092" stop-color="#818282"/><stop offset=".118" stop-color="#6b6b6b"/><stop offset=".143" stop-color="#5d5d5d"/><stop offset=".165" stop-color="#585858"/><stop offset=".204" stop-color="#6a6a69"/><stop offset=".281" stop-color="#969596"/><stop offset=".341" stop-color="#bdbdbc"/><stop offset=".454" stop-color="#a2a1a1"/><stop offset=".511" stop-color="#919191"/><stop offset=".857" stop-color="#b8b8b8"/></linearGradient><linearGradient id="r" data-name="Sfumatura senza nome 183" x1="355.872" y1="1099.995" x2="360.991" y2="1105.231" gradientTransform="translate(-233.6 -1010.84)" gradientUnits="userSpaceOnUse"><stop offset=".082" stop-color="#dedede"/><stop offset=".244" stop-color="#7d7d7e"/><stop offset=".324" stop-color="#535353"/><stop offset=".56" stop-color="#747374"/><stop offset=".67" stop-color="#a1a0a0"/><stop offset=".824" stop-color="#e6e6e6"/></linearGradient><linearGradient id="s" data-name="Sfumatura senza nome 182" x1="355.296" y1="1099.127" x2="356.063" y2="1099.127" gradientTransform="translate(-233.6 -1010.84)" gradientUnits="userSpaceOnUse"><stop offset="0" stop-color="#e3e3e2"/><stop offset=".451" stop-color="#bababa"/><stop offset=".764" stop-color="#dadada"/><stop offset=".824" stop-color="#e0e0e0"/></linearGradient><linearGradient id="t" data-name="Sfumatura senza nome 181" x1="366.813" y1="1104.961" x2="366.813" y2="1105.435" gradientTransform="translate(-233.6 -1010.84)" gradientUnits="userSpaceOnUse"><stop offset="0" stop-color="#e6e6e6"/><stop offset=".054" stop-color="#ddd"/><stop offset=".203" stop-color="#cccccb"/><stop offset=".36" stop-color="#c1c0c0"/><stop offset=".538" stop-color="#bdbdbc"/><stop offset=".645" stop-color="#c3c2c2"/><stop offset=".772" stop-color="#d0d0d0"/><stop offset=".908" stop-color="#e9e8e8"/><stop offset="1" stop-color="#fdfdfd"/></linearGradient><linearGradient id="u" data-name="Sfumatura senza nome 180" x1="355.179" y1="1111.491" x2="356.497" y2="1111.491" gradientTransform="translate(-233.6 -1010.84)" gradientUnits="userSpaceOnUse"><stop offset=".017" stop-color="#878787"/><stop offset=".064" stop-color="#8a8a8a"/><stop offset=".093" stop-color="#919191"/><stop offset=".429" stop-color="#e0e0e0"/><stop offset=".769" stop-color="#9e9e9e"/><stop offset="1" stop-color="#adadad"/></linearGradient><linearGradient id="v" x1="351.7" y1="1089.686" x2="355.201" y2="1093.134" xlink:href="#a"/><linearGradient id="w" x1="348.267" y1="1099.467" x2="358.107" y2="1091.392" xlink:href="#b"/><linearGradient id="x" x1="344.347" y1="1096.377" x2="349.071" y2="1104.57" xlink:href="#c"/><linearGradient id="y" x1="346.775" y1="1101.275" x2="347.775" y2="1101.275" xlink:href="#d"/><linearGradient id="z" x1="337.043" y1="1092.988" x2="343.077" y2="1096.509" xlink:href="#e"/><linearGradient id="A" x1="332.283" y1="1088.761" x2="348.129" y2="1088.761" xlink:href="#f"/><linearGradient id="B" x1="347.239" y1="1086.071" x2="350.714" y2="1092.614" xlink:href="#g"/><linearGradient id="C" data-name="Sfumatura senza nome 172" x1="380.002" y1="1094.459" x2="371.598" y2="1096.384" gradientTransform="translate(-233.6 -1010.84)" gradientUnits="userSpaceOnUse"><stop offset="0" stop-color="#b8b8b8"/><stop offset=".107" stop-color="#a1a0a0"/><stop offset=".319" stop-color="#767676"/><stop offset=".434" stop-color="#767676"/><stop offset=".56" stop-color="#747374"/><stop offset=".63" stop-color="#797879"/><stop offset=".71" stop-color="#868686"/><stop offset=".775" stop-color="#979797"/></linearGradient><linearGradient id="D" data-name="Sfumatura senza nome 171" x1="378.326" y1="1090.912" x2="380.722" y2="1093.308" gradientTransform="translate(-233.6 -1010.84)" gradientUnits="userSpaceOnUse"><stop offset="0" stop-color="#e6e6e6"/><stop offset=".102" stop-color="#c9c9c9"/><stop offset=".269" stop-color="#9d9d9c"/><stop offset=".43" stop-color="#a6a6a6"/><stop offset=".753" stop-color="#b7b7b7"/><stop offset="1" stop-color="#bdbdbc"/></linearGradient><linearGradient id="E" data-name="Sfumatura senza nome 170" x1="372.629" y1="1086.984" x2="375.363" y2="1093.252" gradientTransform="translate(-233.6 -1010.84)" gradientUnits="userSpaceOnUse"><stop offset=".143" stop-color="#dedede"/><stop offset=".236" stop-color="#a1a0a0"/><stop offset=".308" stop-color="#767676"/><stop offset=".577" stop-color="#747374"/><stop offset=".617" stop-color="#797879"/><stop offset=".664" stop-color="#868686"/><stop offset=".714" stop-color="#9e9d9d"/><stop offset=".766" stop-color="#bdbdbc"/><stop offset=".819" stop-color="#e6e6e6"/></linearGradient><linearGradient id="F" x1="356.082" y1="1089.24" x2="372.755" y2="1089.24" xlink:href="#h"/><linearGradient id="G" data-name="Sfumatura senza nome 168" x1="372.394" y1="1086.898" x2="373.073" y2="1086.898" gradientTransform="translate(-233.6 -1010.84)" gradientUnits="userSpaceOnUse"><stop offset="0" stop-color="#e3e3e2"/><stop offset=".11" stop-color="#dbdbdb"/><stop offset=".281" stop-color="#c6c5c6"/><stop offset=".451" stop-color="#a8a8a8"/><stop offset=".671" stop-color="#c9c9c9"/><stop offset=".824" stop-color="#e0e0e0"/></linearGradient><linearGradient id="H" data-name="Sfumatura senza nome 167" x1="372.149" y1="1098.12" x2="374.264" y2="1098.12" gradientTransform="translate(-233.6 -1010.84)" gradientUnits="userSpaceOnUse"><stop offset="0" stop-color="#bababa"/><stop offset=".115" stop-color="#a1a0a0"/><stop offset=".319" stop-color="#767676"/><stop offset=".434" stop-color="#767676"/><stop offset=".56" stop-color="#747374"/><stop offset=".663" stop-color="#797879"/><stop offset=".775" stop-color="#858686"/></linearGradient><linearGradient id="I" data-name="Sfumatura senza nome 166" x1="357.346" y1="1095.351" x2="371.907" y2="1095.351" gradientTransform="translate(-233.6 -1010.84)" gradientUnits="userSpaceOnUse"><stop offset=".082" stop-color="#9a9999"/><stop offset=".175" stop-color="#7c7c7d"/><stop offset=".324" stop-color="#535353"/><stop offset=".56" stop-color="#404040"/><stop offset=".747" stop-color="#9a9999"/><stop offset=".868" stop-color="#d1d1d1"/></linearGradient><linearGradient id="J" data-name="Sfumatura senza nome 165" x1="373.353" y1="1099.28" x2="370.203" y2="1096.356" gradientTransform="translate(-233.6 -1010.84)" gradientUnits="userSpaceOnUse"><stop offset="0" stop-color="#3b3b3b"/><stop offset=".026" stop-color="#3d3d3d"/><stop offset=".256" stop-color="#4d4d4d"/><stop offset=".44" stop-color="#535353"/><stop offset=".497" stop-color="#5a5959"/><stop offset=".574" stop-color="#6a6a69"/><stop offset=".626" stop-color="#797879"/><stop offset=".747" stop-color="#9a9999"/><stop offset=".868" stop-color="#d1d1d1"/></linearGradient><linearGradient id="K" data-name="Sfumatura senza nome 164" x1="334.785" y1="1092.588" x2="334.785" y2="1093.432" gradientTransform="translate(-233.6 -1010.84)" gradientUnits="userSpaceOnUse"><stop offset="0" stop-color="#bdbdbc"/><stop offset=".451" stop-color="#d9d9d9"/><stop offset=".824" stop-color="#a8a8a8"/></linearGradient><linearGradient id="L" x1="346.991" y1="1085.513" x2="347.437" y2="1085.513" xlink:href="#i"/><linearGradient id="M" data-name="Sfumatura senza nome 162" x1="284.197" y1="1081.472" x2="311.512" y2="1085.674" gradientTransform="translate(-233.6 -1010.84)" gradientUnits="userSpaceOnUse"><stop offset="0" stop-color="#a8a8a8"/><stop offset=".088" stop-color="#6d6d6c"/><stop offset=".368" stop-color="#4e4e4e"/><stop offset=".452" stop-color="#515151"/><stop offset=".522" stop-color="#5b5b5b"/><stop offset=".588" stop-color="#6d6d6d"/><stop offset=".649" stop-color="#858585"/><stop offset=".687" stop-color="#979797"/><stop offset=".846" stop-color="#f0f0f0"/></linearGradient><linearGradient id="N" data-name="Sfumatura senza nome 161" x1="277.222" y1="1071.035" x2="313.427" y2="1071.035" gradientTransform="translate(-233.6 -1010.84)" gradientUnits="userSpaceOnUse"><stop offset="0" stop-color="#a8a8a8"/><stop offset=".61" stop-color="#f0f0f0"/><stop offset=".736" stop-color="#fff"/><stop offset=".8" stop-color="#fcfcfc"/><stop offset=".871" stop-color="#eeeded"/><stop offset=".945" stop-color="#d7d8d8"/><stop offset="1" stop-color="#c3c2c2"/></linearGradient><linearGradient id="O" data-name="Sfumatura senza nome 160" x1="311.958" y1="1070.195" x2="328.09" y2="1070.195" gradientTransform="translate(-233.6 -1010.84)" gradientUnits="userSpaceOnUse"><stop offset="0" stop-color="#cfcfcf"/><stop offset=".082" stop-color="#d9d9d9"/><stop offset=".143" stop-color="#6d6d6c"/><stop offset=".192" stop-color="#60605f"/><stop offset=".286" stop-color="#4e4e4e"/><stop offset=".3" stop-color="#515151"/><stop offset=".516" stop-color="#7a7b7b"/><stop offset=".576" stop-color="#7f8080"/><stop offset=".638" stop-color="#8b8b8b"/><stop offset=".7" stop-color="#9f9f9f"/><stop offset=".762" stop-color="#bcbcbb"/><stop offset=".824" stop-color="#e0e0e0"/><stop offset=".973" stop-color="#eeeded"/></linearGradient><linearGradient id="P" data-name="Sfumatura senza nome 159" x1="312.233" y1="1062.802" x2="313.172" y2="1062.802" gradientTransform="translate(-233.6 -1010.84)" gradientUnits="userSpaceOnUse"><stop offset="0" stop-color="#d5d5d4"/><stop offset=".527" stop-color="#9e9e9e"/><stop offset=".824" stop-color="#d9d9d9"/></linearGradient><linearGradient id="Q" data-name="Sfumatura senza nome 158" x1="361.529" y1="1073.356" x2="358.412" y2="1079.159" gradientTransform="translate(-233.6 -1010.84)" gradientUnits="userSpaceOnUse"><stop offset="0" stop-color="#d1d1d1"/><stop offset=".621" stop-color="#fff"/><stop offset=".799" stop-color="#d6d7d7"/><stop offset="1" stop-color="#ababab"/></linearGradient><linearGradient id="R" data-name="Sfumatura senza nome 157" x1="373.888" y1="1078.426" x2="374.723" y2="1083.314" gradientTransform="translate(-233.6 -1010.84)" gradientUnits="userSpaceOnUse"><stop offset=".066" stop-color="#fff"/><stop offset=".264" stop-color="#8c8c8c"/><stop offset=".308" stop-color="#777778"/><stop offset=".407" stop-color="#4e4e4e"/><stop offset=".639" stop-color="#4a4a4a"/><stop offset=".687" stop-color="#484848"/><stop offset="1" stop-color="#ebebeb"/></linearGradient><linearGradient id="S" data-name="Sfumatura senza nome 156" x1="368.115" y1="1081.11" x2="365.114" y2="1092.666" gradientTransform="translate(-233.6 -1010.84)" gradientUnits="userSpaceOnUse"><stop offset=".06" stop-color="#e0e0e0"/><stop offset=".258" stop-color="#ebebeb"/><stop offset=".267" stop-color="#e4e4e3"/><stop offset=".409" stop-color="#797879"/><stop offset=".472" stop-color="#4e4e4e"/><stop offset=".67" stop-color="#4e4e4e"/><stop offset=".687" stop-color="#4e4e4e"/><stop offset="1" stop-color="#5f5f5f"/></linearGradient><linearGradient id="T" data-name="Sfumatura senza nome 155" x1="317.149" y1="1086.898" x2="311.998" y2="1104.355" gradientTransform="translate(-233.6 -1010.84)" gradientUnits="userSpaceOnUse"><stop offset="0" stop-color="#bdbdbc"/><stop offset=".225" stop-color="#828383"/><stop offset=".26" stop-color="#777778"/><stop offset=".407" stop-color="#4e4e4e"/><stop offset=".48" stop-color="#515151"/><stop offset=".542" stop-color="#5b5b5b"/><stop offset=".6" stop-color="#6d6d6d"/><stop offset=".654" stop-color="#858585"/><stop offset=".687" stop-color="#979797"/><stop offset="1" stop-color="#9d9d9c"/></linearGradient><linearGradient id="U" data-name="Sfumatura senza nome 154" x1="308.163" y1="1088.654" x2="311.464" y2="1105.861" gradientTransform="translate(-233.6 -1010.84)" gradientUnits="userSpaceOnUse"><stop offset="0" stop-color="#b6b6b5"/><stop offset=".225" stop-color="#6d6d6c"/><stop offset=".407" stop-color="#4e4e4e"/><stop offset=".48" stop-color="#515151"/><stop offset=".542" stop-color="#5b5b5b"/><stop offset=".6" stop-color="#6d6d6d"/><stop offset=".654" stop-color="#858585"/><stop offset=".687" stop-color="#979797"/><stop offset="1" stop-color="#c3c2c2"/></linearGradient><linearGradient id="V" data-name="Sfumatura senza nome 153" x1="312.291" y1="1101.745" x2="313.092" y2="1101.745" gradientTransform="translate(-233.6 -1010.84)" gradientUnits="userSpaceOnUse"><stop offset="0" stop-color="#9a9999"/><stop offset=".451" stop-color="#e6e6e6"/><stop offset=".824" stop-color="#a3a3a2"/></linearGradient><linearGradient id="W" data-name="Sfumatura senza nome 152" x1="280.876" y1="1080.122" x2="280.876" y2="1081.291" gradientTransform="translate(-233.6 -1010.84)" gradientUnits="userSpaceOnUse"><stop offset="0" stop-color="#a8a8a8"/><stop offset=".043" stop-color="#b3b2b2"/><stop offset=".258" stop-color="#dcdcdc"/><stop offset=".427" stop-color="#f5f5f5"/><stop offset=".527" stop-color="#fff"/><stop offset=".646" stop-color="#ebebeb"/><stop offset=".888" stop-color="#b8b8b8"/><stop offset="1" stop-color="#9e9e9e"/></linearGradient><linearGradient id="X" data-name="Sfumatura senza nome 151" x1="320.153" y1="1088.958" x2="344.067" y2="1077.851" gradientTransform="translate(-233.6 -1010.84)" gradientUnits="userSpaceOnUse"><stop offset="0" stop-color="#bdbdbc"/><stop offset=".264" stop-color="#6d6d6c"/><stop offset=".407" stop-color="#4e4e4e"/><stop offset=".639" stop-color="#4a4a4a"/><stop offset=".687" stop-color="#484848"/><stop offset="1" stop-color="#555"/></linearGradient><linearGradient id="Y" data-name="Sfumatura senza nome 150" x1="363.214" y1="1083.341" x2="353.476" y2="1081.54" gradientTransform="translate(-233.6 -1010.84)" gradientUnits="userSpaceOnUse"><stop offset="0" stop-color="#bfbfbf"/><stop offset=".264" stop-color="#747374"/><stop offset=".407" stop-color="#4e4e4e"/><stop offset=".639" stop-color="#4a4a4a"/><stop offset=".687" stop-color="#484848"/><stop offset="1" stop-color="#555"/></linearGradient><linearGradient id="Z" data-name="Sfumatura senza nome 149" x1="363.595" y1="1081.97" x2="365.446" y2="1089.831" gradientTransform="translate(-233.6 -1010.84)" gradientUnits="userSpaceOnUse"><stop offset="0" stop-color="#d1d1d1"/><stop offset=".242" stop-color="#9d9d9c"/><stop offset=".328" stop-color="#777778"/><stop offset=".44" stop-color="#4e4e4e"/><stop offset=".645" stop-color="#4a4a4a"/><stop offset=".687" stop-color="#484848"/><stop offset="1" stop-color="#4e4e4e"/></linearGradient><linearGradient id="aa" data-name="Sfumatura senza nome 148" x1="365.084" y1="1088.733" x2="366.019" y2="1088.733" gradientTransform="translate(-233.6 -1010.84)" gradientUnits="userSpaceOnUse"><stop offset="0" stop-color="#4b4a4b"/><stop offset=".103" stop-color="#4e4e4e"/><stop offset=".188" stop-color="#585858"/><stop offset=".267" stop-color="#6a6a6a"/><stop offset=".342" stop-color="#818282"/><stop offset=".415" stop-color="#a1a0a0"/><stop offset=".484" stop-color="#c7c6c7"/><stop offset=".505" stop-color="#d5d5d4"/><stop offset=".548" stop-color="#cbcaca"/><stop offset=".62" stop-color="#b0b0b0"/><stop offset=".711" stop-color="#868686"/><stop offset=".753" stop-color="#717171"/><stop offset=".94" stop-color="#505050"/></linearGradient><linearGradient id="ab" data-name="Sfumatura senza nome 147" x1="367.982" y1="1082.879" x2="375.969" y2="1080.995" gradientTransform="translate(-233.6 -1010.84)" gradientUnits="userSpaceOnUse"><stop offset="0" stop-color="#e6e6e6"/><stop offset=".231" stop-color="#747374"/><stop offset=".451" stop-color="#4e4e4e"/><stop offset=".632" stop-color="#484848"/><stop offset=".692" stop-color="#676767"/><stop offset=".789" stop-color="#919292"/><stop offset=".876" stop-color="#b3b2b2"/><stop offset=".95" stop-color="#c6c5c6"/><stop offset="1" stop-color="#cdcccc"/></linearGradient><linearGradient id="ac" data-name="Sfumatura senza nome 146" x1="377.124" y1="1080.995" x2="377.111" y2="1080.314" gradientTransform="translate(-233.6 -1010.84)" gradientUnits="userSpaceOnUse"><stop offset="0" stop-color="#cac9c9"/><stop offset=".246" stop-color="#c7c6c7"/><stop offset=".449" stop-color="#bcbcbb"/><stop offset=".505" stop-color="#b8b8b8"/><stop offset=".554" stop-color="#aeaeaf"/><stop offset=".636" stop-color="#949494"/><stop offset=".725" stop-color="#717171"/><stop offset=".94" stop-color="#505050"/></linearGradient><linearGradient id="ad" data-name="Sfumatura senza nome 145" x1="369.031" y1="1079.342" x2="366.413" y2="1073.22" gradientTransform="translate(-233.6 -1010.84)" gradientUnits="userSpaceOnUse"><stop offset="0" stop-color="#fff"/><stop offset=".126" stop-color="#a6a6a6"/><stop offset=".274" stop-color="#777778"/><stop offset=".423" stop-color="#4e4e4e"/><stop offset=".731" stop-color="#484848"/><stop offset=".992" stop-color="#525252"/><stop offset="1" stop-color="#535353"/></linearGradient><linearGradient id="ae" data-name="Sfumatura senza nome 144" x1="365.066" y1="1073.478" x2="365.952" y2="1073.478" gradientTransform="translate(-233.6 -1010.84)" gradientUnits="userSpaceOnUse"><stop offset="0" stop-color="#d5d5d4"/><stop offset=".203" stop-color="#d0d0d0"/><stop offset=".37" stop-color="#c7c6c7"/><stop offset=".505" stop-color="#b8b8b8"/><stop offset=".547" stop-color="#aeaeaf"/><stop offset=".616" stop-color="#949494"/><stop offset=".704" stop-color="#6b6b6b"/><stop offset=".725" stop-color="#5f5f5f"/><stop offset=".94" stop-color="#4e4e4e"/></linearGradient><linearGradient id="af" data-name="Sfumatura senza nome 143" x1="325.643" y1="1078.105" x2="352.307" y2="1080.007" gradientTransform="translate(-233.6 -1010.84)" gradientUnits="userSpaceOnUse"><stop offset="0" stop-color="#e9e8e8"/><stop offset=".621" stop-color="#fff"/><stop offset=".799" stop-color="#d6d7d7"/><stop offset="1" stop-color="#ababab"/></linearGradient><linearGradient id="ag" data-name="Sfumatura senza nome 142" x1="372.149" y1="1099.499" x2="373.454" y2="1099.499" gradientTransform="translate(-233.6 -1010.84)" gradientUnits="userSpaceOnUse"><stop offset=".028" stop-color="#4b4a4b"/><stop offset=".089" stop-color="#585858"/><stop offset=".205" stop-color="#7c7b7c"/><stop offset=".357" stop-color="#b3b2b2"/><stop offset=".489" stop-color="#d5d5d4"/><stop offset=".55" stop-color="#c8c7c7"/><stop offset=".662" stop-color="#a5a5a4"/><stop offset=".72" stop-color="#919191"/><stop offset=".874" stop-color="#767676"/></linearGradient><radialGradient id="ah" data-name="Sfumatura senza nome 141" cx="307.565" cy="1076.982" r="47.599" gradientTransform="translate(-233.6 -1010.84)" gradientUnits="userSpaceOnUse"><stop offset=".071" stop-color="#fff"/><stop offset=".075" stop-color="#fefefe"/><stop offset=".144" stop-color="#d6d6d6"/><stop offset=".207" stop-color="#b8b8b8"/><stop offset=".262" stop-color="#a7a6a6"/><stop offset=".302" stop-color="#a2a1a1"/><stop offset=".375" stop-color="#8f8f8f"/><stop offset=".483" stop-color="#7d7d7e"/><stop offset=".595" stop-color="#727272"/><stop offset=".714" stop-color="#6f6f6f"/><stop offset="1" stop-color="#6a6a6a"/></radialGradient><linearGradient id="ai" data-name="Sfumatura senza nome 140" x1="354.989" y1="1087.954" x2="365.795" y2="1102.562" gradientTransform="translate(-233.6 -1010.84)" gradientUnits="userSpaceOnUse"><stop offset="0" stop-color="#adadad"/><stop offset=".092" stop-color="#9a9999"/><stop offset=".154" stop-color="#919191"/><stop offset=".168" stop-color="#8f8f8f"/><stop offset=".342" stop-color="#7d7d7e"/><stop offset=".522" stop-color="#727272"/><stop offset=".714" stop-color="#6f6f6f"/><stop offset="1" stop-color="#8a8a8a"/></linearGradient><linearGradient id="aj" data-name="Sfumatura senza nome 139" x1="354.603" y1="1115.168" x2="349.066" y2="1111.031" gradientTransform="translate(-233.6 -1010.84)" gradientUnits="userSpaceOnUse"><stop offset="0" stop-color="#e6e6e6"/><stop offset=".244" stop-color="#c7c6c7"/><stop offset=".564" stop-color="#a5a4a3"/><stop offset=".827" stop-color="#8f8f8f"/><stop offset="1" stop-color="#878787"/></linearGradient><linearGradient id="ak" data-name="Sfumatura senza nome 138" x1="382.235" y1="1092.503" x2="382.235" y2="1093.304" gradientTransform="translate(-233.6 -1010.84)" gradientUnits="userSpaceOnUse"><stop offset="0" stop-color="#c3c2c2"/><stop offset=".126" stop-color="#bababa"/><stop offset=".322" stop-color="#a5a4a3"/><stop offset=".451" stop-color="#919191"/><stop offset=".715" stop-color="#b2b2b2"/><stop offset=".824" stop-color="#bfbfbf"/></linearGradient></defs><path d="M29.344 124.03c1.881.244 3.804.563 4.923 2.365.96 1.358.92 3.121 1 4.878h-5.923a3.457 3.457 0 0 0-.32-1.839c-1.282-.96-3.083-.519-4.723-.64-3.294.02-6.401-.08-9.444.241a1.727 1.727 0 0 0-.92.918 1.63 1.63 0 0 0 .36 1.642l.64.482c5.201.438 10.244.521 15.487.92a5.814 5.814 0 0 1 4.522 2.642 8.77 8.77 0 0 1-.68 9.044c-1.401 1.643-3.361 1.922-5.404 1.96a120.189 120.189 0 0 1-15.17-.077 6.06 6.06 0 0 1-4.441-2.2 11.048 11.048 0 0 1-1.19-5.653l5.952.05c-.038 1-.038 2.044.922 2.56a84.177 84.177 0 0 0 14.243-.078 1.593 1.593 0 0 0 .883-1.08 1.887 1.887 0 0 0-.719-2.003l-1-.237-14.886-.883c-2.042-.32-4.363-1.358-5.043-3.56-.602-2.16-.678-4.805.68-6.645 2.52-3.48 7.003-2.598 10.847-2.959l9.404.156zm14.716 15.64a3.031 3.031 0 0 0 1.239 1.402 44.948 44.948 0 0 0 12.689-.201 1.937 1.937 0 0 0 .998-1.802V124.02l6.102-.005-.08 17.29a6.773 6.773 0 0 1-2.98 4.846 8.692 8.692 0 0 1-4.443.883l-14.007-.083a6.462 6.462 0 0 1-4.76-3.522l-.6-1.801-.081-17.607h5.842l.08 15.648zm118.633.04a2.916 2.916 0 0 0 1.205 1.401 61.556 61.556 0 0 0 12.123.08 2.636 2.636 0 0 0 1.4-1.079l.162-.841v-15.208l6.01.019v17.41a6.144 6.144 0 0 1-2.875 4.373 9.012 9.012 0 0 1-4.5 1.043l-14.006-.08a6.328 6.328 0 0 1-4.803-3.359 9.075 9.075 0 0 1-.677-3.2v-16.204l5.988.02-.027 15.626zm-11.12-3.69l.826-.593c2.285-2.678 1.65-6.162.49-8.646a5.502 5.502 0 0 0-4.783-2.7l-20.591-.018-.048 22.747h6.026l.023-8.063.003-.041h12.127c2.326.253 2.46 1.758 2.497 3.81 0 1.457.026 3.072.026 4.313h5.963c0-4.039.758-8.774-2.558-10.81zm-4.766-2.76l-.36.008-13.031.032.023-4.235 13.09.08a2.09 2.09 0 0 1 1.237 1.081c.118.841.536 2.327-.96 3.036zm-33.125-9.178l-6.856-.02L94.38 146.91h6.885c.719-1.32 1.31-2.541 2.204-4h13.242c.867 1.42 1.422 2.52 2.169 3.9l7.13.04-12.328-22.765zm-7.777 14.024c1.244-2.763 2.844-5.323 4.124-8.046 1.56 2.524 2.722 5.324 4.203 7.966zm-13.581-3.479c2.161-1.36 2.08-4.284 1.641-6.565a5.744 5.744 0 0 0-4.68-3.96l-21.055-.033v22.826l.201.005h18.533a11.97 11.97 0 0 0 4.841-.801 5.774 5.774 0 0 0 2.884-4.284c.32-2.682.116-5.828-2.363-7.188zm-18.24-5.605l12.929.08a1.927 1.927 0 0 1 1.161 1.003 1.974 1.974 0 0 1-.403 1.882 2.428 2.428 0 0 1-1.479.679H74.085v-3.644zm14.01 12.049a5.58 5.58 0 0 1-3.562.637c-3.442-.039-6.926.081-10.37-.078v-4.203l12.77.078a2.496 2.496 0 0 1 1.48 1.081 2.53 2.53 0 0 1-.32 2.485zm99.927 3.656a2.306 2.306 0 1 1-.01 0h.01zm-.01.314a1.618 1.618 0 1 0 .008 0zm-.376 2.872h-.356v-2.248a3.894 3.894 0 0 1 .633-.054 1.191 1.191 0 0 1 .7.171.54.54 0 0 1 .205.467.559.559 0 0 1-.438.545v.017c.198.036.332.217.376.547a1.844 1.844 0 0 0 .142.555h-.376a1.71 1.71 0 0 1-.154-.571.417.417 0 0 0-.48-.395h-.251v.965zm0-1.244h.26c.297 0 .546-.11.546-.385 0-.197-.143-.396-.546-.396a1.62 1.62 0 0 0-.26.021v.76z" fill="#010202"/><path d="M155.096 77.84c0 16.691-26.188 30.222-58.497 30.222-32.305 0-58.494-13.53-58.494-30.222s26.19-30.223 58.494-30.223c32.31 0 58.497 13.53 58.497 30.221z" fill="#0e4687"/><path d="M159.968 77.386c0 18.86-28.371 34.152-63.37 34.152-34.995 0-63.364-15.291-63.364-34.152s28.368-34.151 63.364-34.151c34.999 0 63.37 15.291 63.37 34.151z" fill="none" stroke="#010202" stroke-width="2.146"/><path d="M154.766 77.254c0 16.577-26.01 30.015-58.1 30.015-32.084 0-58.095-13.438-58.095-30.015s26.01-30.016 58.096-30.016c32.087 0 58.1 13.435 58.1 30.016z" fill="none" stroke="#010202" stroke-width="1.072"/><path d="M159.968 77.386c0 18.86-28.371 34.152-63.37 34.152-34.995 0-63.364-15.291-63.364-34.152s28.368-34.151 63.364-34.151c34.999 0 63.37 15.291 63.37 34.151z" fill="none"/><path d="M158.901 77.052c0 18.237-27.866 33.017-62.235 33.017s-62.23-14.782-62.23-33.017 27.862-33.016 62.23-33.016S158.9 58.818 158.9 77.052z" fill="none"/><path d="M96.6 43.235c-34.996 0-63.365 15.291-63.365 34.151s28.368 34.152 63.366 34.152 63.37-15.291 63.37-34.152-28.372-34.151-63.37-34.151zm.066 66.833c-34.37 0-62.23-14.781-62.23-33.016s27.86-33.016 62.23-33.016S158.9 58.819 158.9 77.052c0 18.235-27.866 33.017-62.235 33.017z" fill="url(#j)"/><path d="M154.766 77.254c0 16.577-26.01 30.015-58.1 30.015-32.084 0-58.095-13.438-58.095-30.015s26.01-30.016 58.096-30.016c32.087 0 58.1 13.435 58.1 30.016z" fill="none"/><path d="M96.6 43.235c-34.996 0-63.365 15.291-63.365 34.151s28.368 34.152 63.366 34.152 63.37-15.291 63.37-34.152-28.372-34.151-63.37-34.151zm.066 64.034c-32.085 0-58.096-13.437-58.096-30.015s26.01-30.016 58.096-30.016c32.087 0 58.097 13.438 58.097 30.016s-26.01 30.015-58.097 30.015z" fill="url(#k)"/><path d="M96.4 44.637c-33.891 0-61.364 14.572-61.364 32.548S62.51 109.736 96.4 109.736c33.895 0 61.366-14.575 61.366-32.551s-27.471-32.548-61.364-32.548zm.266 62.632c-32.085 0-58.096-13.438-58.096-30.015s26.01-30.016 58.096-30.016c32.087 0 58.097 13.438 58.097 30.016s-26.01 30.015-58.097 30.015z" fill="url(#l)"/><path d="M96.666 46.754c-32.602 0-59.028 13.655-59.028 30.498 0 16.845 26.428 30.497 59.028 30.497 32.602 0 59.029-13.65 59.029-30.498 0-16.843-26.426-30.499-59.03-30.499zm0 60.515c-32.085 0-58.096-13.438-58.096-30.015s26.01-30.016 58.096-30.016c32.087 0 58.097 13.438 58.097 30.016s-26.01 30.015-58.097 30.015z" fill="url(#m)"/><path d="M86.16 93.395s-6.1.466-6.066 1.133c.03.667 5.036 1.166 5.865 1.268a40.395 40.395 0 0 1 5.039.801c.933.332 1.567.601 1.934 1.633.367 1.035 1.265 4.103 1.265 4.103s.433 1.7.8 1.7.8-1.801.8-1.801.903-3.836 1.57-4.535c.666-.702.767-.968 3.734-1.434a59.292 59.292 0 0 1 8.136-1.001 25.299 25.299 0 0 1 4.035.199 44.213 44.213 0 0 1 5.469.9 2.866 2.866 0 0 1 1.87 1.967c.3.768.967 2.804.967 2.804s.166.834.569.834c.397 0 .564-.868.564-.868s1.068-3.401 1.666-3.934c.604-.534 1.038-1.036 4.005-1.401 2.968-.367 4.734-.735 5.768-.801 1.034-.068 1.768-.202 1.768-.533 0-.335-.403-.468-1.867-.669-1.466-.198-5.835-.667-8.139-1.166-2.299-.497-2.434-2.332-2.772-3.235-.33-.9-.562-2.334-1.097-2.334s-.666.97-.767 1.268a17.99 17.99 0 0 1-1.031 2.835 2.834 2.834 0 0 1-2.27 1.636 45.25 45.25 0 0 1-7.268.995 37.914 37.914 0 0 1-6.506-.398 21.594 21.594 0 0 1-5.669-1.034c-1.5-.664-2.268-2.868-2.669-4.2-.398-1.334-.666-1.967-.9-1.967-.234 0-.664 1.001-.933 1.866-.266.869-.967 3.437-2.002 4.073-1.031.628-2.767.995-5.868 1.298z" fill="none" stroke="#010202" stroke-width="2.146"/><path d="M122.645 99.332c-.065.299-.197.833-.497.833-.301 0-.403-.332-.533-.767a17.728 17.728 0 0 0-.77-2.768c-.498-1.202-2.667-1.334-4.2-1.467-1.534-.13-7.75-.423-9.038-.298-.178.015-.493.023-.898.05l-.204.538a23.302 23.302 0 0 1 2.735-.19 25.099 25.099 0 0 1 4.036.201 44.215 44.215 0 0 1 5.468.901 2.867 2.867 0 0 1 1.873 1.967c.3.767.965 2.803.965 2.803s.166.834.57.834c.396 0 .563-.869.563-.869l-.066-1.768z" fill="url(#n)"/><path d="M124.679 93.26a21.108 21.108 0 0 0 4.908.716c.503 0 1.363-.05 1.363.384 0 .435-.498.47-1.1.501l4.302.1c1.034-.068 1.769-.202 1.769-.533 0-.335-.403-.469-1.868-.669-1.464-.198-5.833-.667-8.137-1.166l-1.235.666z" fill="url(#o)"/><path d="M122.645 89.992c-.1-.566-.331-1.066-.6-1.066s-.497.635-.599 1.102c-.1.468-.066 2.1-1.134 2.8-1.066.7-2.236.987-5.94 1.188-3.7.198-6.802.078-7.932.048l-.04-.448a33.228 33.228 0 0 0 4.31.144 45.076 45.076 0 0 0 7.268-.997 2.83 2.83 0 0 0 2.27-1.636 17.67 17.67 0 0 0 1.03-2.835c.103-.299.233-1.268.768-1.268s.765 1.434 1.097 2.334l-.498.635z" fill="url(#h)"/><path d="M98.068 92.056a2.443 2.443 0 0 0 .467.27 21.536 21.536 0 0 0 5.67 1.035 38.002 38.002 0 0 0 6.503.4l.024.325c-2.003.032-3.565-.004-4.292-.023-1.136-.036-7.037-.202-8.906-.838a2.544 2.544 0 0 1-.497-.26z" fill="url(#a)"/><path d="M107.607 94.862c-1.1.032-7.237.57-8.871.666a2.7 2.7 0 0 0-2.435 1.603c-.235.469-.9 3.701-.967 3.97s-.166.8-.334.8v2.132c.367 0 .8-1.801.8-1.801s.9-3.835 1.567-4.534c.667-.701.768-.968 3.735-1.434 2.3-.363 4.578-.763 6.53-.926l-.026-.474z" fill="url(#b)"/><path d="M89.229 95.33a11.044 11.044 0 0 1 2.801.466c.801.368 1.5.767 1.702 1.567.199.802.867 3.668.934 3.934s.165.602.331.602c.17 0 .27-.533.336-.8l.465 1.133s-.431 1.801-.8 1.801c-.367 0-.8-1.702-.8-1.702s-.902-3.069-1.267-4.102c-.368-1.03-1-1.3-1.934-1.633a11.866 11.866 0 0 0-1.823-.38l.055-.888z" fill="url(#c)"/><path d="M94.666 101.297c.066.269.165.602.331.602.127 0 .216-.299.278-.562l.087 2.245c-.12.26-.243.45-.365.45-.118 0-.249-.18-.365-.427l.033-2.307z" fill="url(#d)"/><path d="M90.997 96.597a40.812 40.812 0 0 0-5.036-.802c-.835-.1-5.836-.6-5.868-1.268-.032-.666 6.067-1.132 6.067-1.132l.168.632c-1 .135-1.837.1-1.837.434 0 .335.635.569 1.869.636 1.235.066 2.868.232 2.868.232a11.059 11.059 0 0 1 2.802.467l-1.033.802z" fill="url(#e)"/><path d="M80.093 94.528c-.032-.667 6.067-1.133 6.067-1.133 3.102-.302 4.837-.667 5.87-1.3 1.035-.635 1.736-3.203 2.003-4.071.265-.865.699-1.868.931-1.868.235 0 .5.633.9 1.967l-.331 1.401c-.201-1.2-.302-1.501-.6-1.501-.302 0-.503.898-.67 1.701-.165.799-.414 3.014-2 3.502a18.53 18.53 0 0 1-5.936.8c-1 .135-1.837.1-1.837.434l-4.396.068z" fill="url(#f)"/><path d="M97.534 93.227c-1.066-.434-1.635-1.365-2.002-3.702-.198-1.201-.296-1.501-.599-1.501l.032-1.868c.235 0 .503.633.9 1.967.401 1.334 1.17 3.532 2.67 4.201l-1 .9z" fill="url(#g)"/><path d="M94.758 88.132a.23.23 0 0 1 .174-.107.26.26 0 0 1 .22.095l.027-1.801c-.074-.11-.147-.163-.214-.163s-.147.076-.234.211l.028 1.766z" fill="url(#i)"/><path d="M84.823 94.822c-.22-.098-.332-.221-.332-.361 0-.124.121-.197.32-.247l-3.806-.138c-.553.136-.92.289-.912.453.007.172.335.332.84.474l3.89-.18z" fill="url(#p)"/><path d="M122.148 101.968c.398 0 .565-.869.565-.869s1.066-3.4 1.667-3.934c.605-.533 1.037-1.036 4.005-1.4 2.969-.368 4.734-.736 5.769-.802 1.033-.067 1.768-.201 1.768-.533l-4.971-.069c0 .435-.498.47-1.1.501a50.562 50.562 0 0 0-5.036.6c-1.734.332-2.1 3.57-2.168 3.87-.066.299-.198.833-.498.833v1.801z" fill="url(#q)"/><path d="M126.997 93.73a10.835 10.835 0 0 1-2.317-.469c-1.264-.5-1.732-1.368-2.033-3.27-.1-.569-.332-1.069-.6-1.069s-.498.636-.6 1.102l-.168-1.734c.103-.298.234-1.267.768-1.267s.765 1.433 1.097 2.334c.338.904.472 2.737 2.773 3.235.418.092.905.181 1.43.27l-.348.868z" fill="url(#r)"/><path d="M121.598 87.35a.536.536 0 0 1 .448-.326c.148 0 .272.109.379.286l.09 2.183-.014-.038c-.119-.31-.277-.533-.456-.533-.18 0-.344.294-.465.628l.017-2.202z" fill="url(#s)"/><path d="M135.166 94.85c.468-.082.756-.213.756-.42 0-.222-.175-.356-.726-.478l-4.693.031c.256.055.448.163.448.377a.366.366 0 0 1-.111.282l4.325.209z" fill="url(#t)"/><path d="M122.645 99.332c-.065.299-.197.833-.497.833-.301 0-.403-.332-.533-.767l-.036 1.736s.168.818.569.835c.497.014.746-1.47.746-1.47z" fill="url(#u)"/><path d="M127.9 82.892a58.126 58.126 0 0 0-8.138 1.019c-2.968.474-3.069.746-3.732 1.46-.669.714-1.568 4.621-1.568 4.621s-.433 1.834-.801 1.834-.8-1.733-.8-1.733-.9-3.125-1.266-4.177c-.367-1.055-1-1.325-1.935-1.666a39.919 39.919 0 0 0-5.036-.816c-.833-.101-5.837-.612-5.87-1.291-.03-.678 6.073-1.153 6.073-1.153 3.099-.308 4.835-.683 5.865-1.327 1.036-.645 1.738-3.263 2.003-4.144.267-.883.7-1.902.934-1.902.233 0 .503.646.9 2.006.401 1.358 1.165 3.6 2.669 4.28a21.376 21.376 0 0 0 5.668 1.055 28.217 28.217 0 0 0 5.32.429 31.555 31.555 0 0 0 5.505-.7c1.066-.165 3.066-.5 3.7-1.966.633-1.467 1.265-3.603 1.735-3.635.465-.033 1.197 2.335 1.197 2.335s.533 2.3 2.337 2.701c1.799.4 4.635 1.067 6.103 1.265 1.466.201 1.935.335 1.935.734s-1.968.601-1.968.601-5.302.6-6.37 1.268c-1.066.666-1.704 1.133-2.504 4.734-.3.933-.367 1.368-.667 1.368s-.801-1.503-1.4-3.57-1.1-2.635-4.07-3.069a37.516 37.516 0 0 0-5.818-.561z" fill="none" stroke="#010202" stroke-width="2.146"/><path d="M125.15 81.697c-1.138-.033-7.068-.201-8.944-.846a2.53 2.53 0 0 1-.501-.272l1.037-.918a2.711 2.711 0 0 0 .467.275 21.551 21.551 0 0 0 5.697 1.05" fill="url(#v)"/><path d="M126.322 82.51c-1.106.036-7.27.576-8.91.678a2.707 2.707 0 0 0-2.446 1.626c-.235.474-.903 3.76-.972 4.031-.067.27-.168.812-.334.812v2.168c.37 0 .805-1.83.805-1.83s.905-3.893 1.576-4.605c.668-.711.77-.982 3.751-1.458 2.31-.367 4.6-.774 6.556-.938l-.023-.484z" fill="url(#w)"/><path d="M107.864 82.985a11.008 11.008 0 0 1 2.81.474c.809.371 1.51.779 1.707 1.593.205.814.873 3.728.941 3.996.068.272.166.611.335.611.166 0 .268-.545.334-.814l.47 1.153s-.439 1.83-.806 1.83c-.371 0-.803-1.728-.803-1.728s-.906-3.117-1.27-4.168c-.373-1.05-1.01-1.32-1.948-1.659a11.976 11.976 0 0 0-1.83-.386l.059-.9z" fill="url(#x)"/><path d="M113.323 89.046c.068.273.17.612.335.612.127 0 .216-.303.277-.571l.09 2.279c-.12.264-.248.46-.367.46s-.248-.187-.37-.437l.036-2.344z" fill="url(#y)"/><path d="M109.639 84.272a40.336 40.336 0 0 0-5.06-.814c-.838-.103-5.86-.61-5.895-1.288-.036-.675 6.098-1.152 6.098-1.152l.166.644c-1.008.137-1.842.104-1.842.44 0 .34.637.576 1.875.646 1.242.068 2.884.237 2.884.237a11.028 11.028 0 0 1 2.81.472l-1.037.815z" fill="url(#z)"/><path d="M98.684 82.171c-.036-.675 6.098-1.152 6.098-1.152 3.114-.305 4.856-.675 5.894-1.32 1.043-.644 1.744-3.251 2.012-4.133.269-.88.702-1.896.938-1.896.233 0 .504.642.903 1.998l-.334 1.422c-.201-1.218-.3-1.525-.602-1.525-.303 0-.504.916-.67 1.73-.17.812-.42 3.057-2.009 3.555a18.447 18.447 0 0 1-5.964.813c-1.007.136-1.843.104-1.843.44l-4.424.068z" fill="url(#A)"/><path d="M116.206 80.851c-1.072-.44-1.64-1.39-2.01-3.76-.201-1.218-.3-1.525-.602-1.525l.034-1.896c.232 0 .503.645.903 2s1.173 3.587 2.678 4.265l-1.002.916z" fill="url(#B)"/><path d="M126.322 82.51c-1.106.027-7.27.576-8.91.678a2.707 2.707 0 0 0-2.446 1.626c-.235.474-.903 3.76-.972 4.031-.067.27-.168.812-.334.812s-.268-.338-.334-.612c-.066-.267-.735-3.181-.94-3.993-.198-.814-.9-1.22-1.707-1.594a11.027 11.027 0 0 0-2.81-.472s-1.643-.169-2.885-.237c-1.24-.07-1.875-.305-1.875-.645 0-.337.835-.304 1.842-.439a18.412 18.412 0 0 0 5.964-.814c1.59-.495 1.84-2.742 2.009-3.555.166-.815.367-1.73.67-1.73.301 0 .401.308.602 1.526.371 2.37.937 3.318 2.011 3.76 1.877.643 7.81.812 8.945.846 0 0 3.533.06 5.368-.041 1.834-.102 5.069-.435 5.801-.6a2.28 2.28 0 0 0 1.967-1.771c.202-1.2.502-2.568.869-2.568s.569 1.034.632 1.301c0 0 .277 2.306 1.588 2.78a17.424 17.424 0 0 0 4.12.681c.814.054 1.52.211 1.52.577 0 .368-1.049.605-1.495.605a13.42 13.42 0 0 0-3.567.445 2.537 2.537 0 0 0-1.837 2.204c-.315 1.576-.474 2.1-.474 2.1s-.047.654-.47.654c-.422 0-.527-.841-.527-.841a17.756 17.756 0 0 0-.837-3.016c-.34-.55-.735-1.339-3.963-1.443-3.227-.107-4.657-.327-7.525-.256z" fill="none"/><path d="M140.117 85.311a2.539 2.539 0 0 1 1.837-2.204 13.488 13.488 0 0 1 3.566-.446c.448 0 1.493-.237 1.493-.605l3.681.067c0 .398-1.965.6-1.965.6s-5.305.599-6.371 1.265a3.873 3.873 0 0 0-1.925 2.571l-.317-1.25z" fill="url(#C)"/><path d="M141.375 80.799a17.433 17.433 0 0 0 4.12.681c.815.051 1.52.21 1.52.576 0 .37-1.048.605-1.493.605l3.206.062s1.965-.201 1.965-.6c0-.403-.468-.534-1.932-.735-1.47-.202-4.305-.865-6.102-1.268l-1.285.678z" fill="url(#D)"/><path d="M142.924 81.188a10.141 10.141 0 0 1-1.55-.389c-1.31-.474-1.588-2.78-1.588-2.78-.065-.268-.266-1.301-.634-1.301s-.667 1.369-.865 2.568l-.903-.569c.634-1.465 1.266-3.6 1.737-3.632.463-.033 1.197 2.334 1.197 2.334s.533 2.302 2.338 2.702c.296.065.626.139.97.218l-.703.849z" fill="url(#E)"/><path d="M139.124 75.085c-.472.033-1.105 2.169-1.739 3.636-.631 1.465-2.63 1.8-3.697 1.967a31.272 31.272 0 0 1-5.506.699 27.863 27.863 0 0 1-5.32-.432l-.38.64c1.23.062 2.256.09 2.666.103 0 0 3.535.06 5.368-.042 1.837-.1 5.072-.433 5.803-.597a2.279 2.279 0 0 0 1.967-1.77c.202-1.2.501-2.569.869-2.569l-.032-1.635z" fill="url(#F)"/><path d="M138.851 77.032c.095-.197.197-.314.304-.314.126 0 .23.12.32.288V75.38c-.125-.186-.246-.305-.351-.296-.107.006-.22.12-.341.312z" fill="url(#G)"/><path d="M140.664 85.943a17.2 17.2 0 0 0-.809 2.785c-.301.932-.367 1.365-.668 1.365-.16 0-.376-.433-.64-1.153l.1-1.715s.106.841.525.841.47-.654.47-.654.16-.527.475-2.1a4.251 4.251 0 0 1 .252-.846l.297 1.477z" fill="url(#H)"/><path d="M138.306 85.724a7.32 7.32 0 0 0-.498-1.515c-.34-.55-.734-1.339-3.96-1.442-3.23-.106-4.66-.328-7.526-.257-.384.01-1.377.08-2.576.175l.068.576a29.295 29.295 0 0 1 4.084-.37 37.48 37.48 0 0 1 5.819.565c2.97.435 3.472 1 4.069 3.069l.521-.801z" fill="url(#I)"/><path d="M137.97 84.565a25.251 25.251 0 0 1 .675 2.66s.107.842.527.842l.016 2.026c-.299 0-.801-1.503-1.4-3.567a7.91 7.91 0 0 0-.4-1.143l.584-.818z" fill="url(#J)"/><path d="M99.621 82.678c-.557-.154-.928-.322-.936-.51-.008-.172.397-.336 1.004-.478l3.995.113c-.355.05-.575.125-.575.3a.378.378 0 0 0 .23.315l-3.715.258z" fill="url(#K)"/><path d="M113.418 75.677a.229.229 0 0 1 .175-.11.273.273 0 0 1 .22.097l.027-1.832c-.074-.109-.145-.163-.211-.163-.069 0-.15.08-.237.213l.027 1.793z" fill="url(#L)"/><path d="M52.226 68.33l-7.301 1.002s-1.304.05-1.304.55c0 .501 1.105.501 1.503.552.4.047 8.205 1.1 8.205 1.1s12.456 1.702 13.653 1.9c1.205.202 4.556.652 6.004 1.953 1.452 1.301 2.702 4.1 3.603 8.254.9 4.152 1.85 7.704 1.85 7.704s.151 1.252.65 1.252c.504 0 .652-1.304.652-1.304s2.449-9.752 3.053-11.455c.598-1.698 1.45-5.302 6.9-6.15 5.453-.853 15.61-2.003 15.61-2.003s9.903-1.202 13.307-1.002c3.4.201 7.204.701 8.155.85.948.152 2.482.318 3.152 1.987a45.237 45.237 0 0 1 1.398 4.799s.233.968.6.968.602-.9.602-.9 1.1-3.8 1.5-4.768c.403-.97 1.201-1.801 4.17-2.168 2.968-.368 6.104-1.031 6.104-1.031s1.5-.036 1.5-.605-1.6-.598-1.6-.598l-6.807-1.102s-2.733-.2-3.432-2c-.7-1.804-1.434-3.772-1.434-3.772s-.134-.8-.534-.8-.6.967-.6.967a19.009 19.009 0 0 1-1.434 3.669c-.635.9-1.4 1.8-4.769 2.135-3.37.332-5.135.7-6.47.735a49.78 49.78 0 0 1-6.304-.235l-16.438-2a61.92 61.92 0 0 1-7.505-1.236c-1.8-.6-4.435-.7-6.47-7.071-2.034-6.37-2.165-6.837-2.165-6.837s-.17-1.164-.738-1.164c-.562 0-.728 1.299-.728 1.299s-2.27 7.37-3.337 9.572-1.835 4.268-10.74 5.267c-7.906 1.038-12.058 1.687-12.058 1.687z" fill="none" stroke="#010202" stroke-width="2.146"/><path d="M74.228 73.651a7.609 7.609 0 0 0-3.14-1.166c-2.349-.45-11.305-1.35-11.305-1.35l-8.856-.752s-1.7-.15-1.7-.55 1.7-.45 1.7-.45l-6.001-.051s-1.301.05-1.301.55 1.102.5 1.502.552c.4.047 8.205 1.1 8.205 1.1s12.454 1.702 13.653 1.9c1.202.202 4.555.652 6.004 1.953l1.24-1.736z" fill="url(#M)"/><path d="M79.827 51.673s-.172-1.167-.74-1.167c-.562 0-.728 1.304-.728 1.304s-2.27 7.37-3.336 9.57-1.834 4.268-10.74 5.268c-7.903 1.034-12.055 1.683-12.055 1.683l-7.302 1.002s-1.304.05-1.304.551l5.605-.047c0-.4 1.703-.453 1.703-.453l6.702-.6s7.603-.625 11.254-1c3.652-.377 6.352-2.427 7.352-4.504 1.005-2.076 2.13-8.427 2.13-8.427s.198-2.053.722-2.053c.527 0 .676 2.003.676 2.003l.061-3.129z" fill="url(#N)"/><path d="M94.49 66.636a45.686 45.686 0 0 1-6.029-1.055c-1.799-.6-4.434-.702-6.47-7.072s-2.169-6.837-2.169-6.837-.165-1.167-.734-1.167c-.563 0-.73 1.303-.73 1.303l.008 3.042s.198-2.052.723-2.052c.35 0 .533.874.618 1.467.04.303.062.497.062.497s.024.16.075.376c.27 1.203 1.199 5.261 1.623 6.914a7.184 7.184 0 0 0 4.1 4.878c2.228.925 7.556 1.251 8.506 1.275l.415-1.569z" fill="url(#O)"/><path d="M78.642 53.406c.11-.34.26-.608.446-.608.199 0 .34.275.442.622l.04-2.544a.588.588 0 0 0-.483-.371c-.197 0-.344.161-.455.37l.011 2.53z" fill="url(#P)"/><path d="M132.538 64.764c-.135-.7-.218-1.318-.554-1.318-.332 0-.486.818-.583 1.336-.1.516-.414 2.718-1.283 3.3a9.706 9.706 0 0 1-4.503 1.118c-1.967.101-6.12.267-7.237.267l.336-.415c1.333-.035 3.098-.403 6.47-.734 3.367-.335 4.132-1.236 4.766-2.136a18.93 18.93 0 0 0 1.433-3.67s.202-.967.601-.967.533.8.533.8l.02 2.418z" fill="url(#Q)"/><path d="M135.364 68.776a14.574 14.574 0 0 0 2.023.255c1.034.083 3.187.32 3.187.32s1.2.098 1.2.45c0 .35-1.152.484-1.152.484l3.673.134s1.498-.034 1.498-.602c0-.567-1.6-.599-1.6-.599l-6.806-1.102a5.416 5.416 0 0 1-.731-.118l-1.292.782z" fill="url(#R)"/><path d="M133.8 71.633c-.75.652-.997 2.737-1.066 3.136-.065.4-.367 1.733-.367 1.733s-.115.652-.365.652l-.085 2.133c.367 0 .602-.9.602-.9s1.1-3.8 1.5-4.768a2.63 2.63 0 0 1 .585-.898z" fill="url(#S)"/><path d="M79.088 89.793c.604 0 .654-1.35.654-1.35s1.303-7.956 1.499-8.906c.201-.95.85-4.153 2.251-5.354l1.514 1.615a9.275 9.275 0 0 0-2.21 4.036c-.605 1.7-3.054 11.456-3.054 11.456s-.148 1.3-.652 1.3v-2.8h-.002z" fill="url(#T)"/><path d="M79.742 88.442s-.05 1.351-.654 1.351c-.599 0-.599-1.35-.599-1.35s-.548-2.951-1.398-8.856c-.853-5.901-3.653-6.655-6.004-7.104l-.351 1.754a6.274 6.274 0 0 1 2.251 1.149c1.452 1.298 2.702 4.1 3.603 8.251.9 4.153 1.85 7.702 1.85 7.702s.149 1.253.648 1.253c.505 0 .654-1.3.654-1.3v-2.85z" fill="url(#U)"/><path d="M78.577 91.965c.1.314.26.628.512.628.229 0 .385-.27.486-.565l.021-2.753c-.095.276-.249.518-.507.518-.267 0-.418-.273-.498-.576l-.014 2.75z" fill="url(#V)"/><path d="M50.925 70.383s-1.7-.15-1.7-.551 1.702-.45 1.702-.45l-6-.05s-1.303.05-1.303.55c0 .501 1.104.501 1.502.55l5.802-.049z" fill="url(#W)"/><path d="M84.842 75.965a8.213 8.213 0 0 1 4.854-2.28c5.453-.853 15.608-2.002 15.608-2.002s5.157-.625 9.305-.898l.053-.605c-1.95 0-15.66 1.202-22.164 1.652-6.502.45-7.602 1.152-9.006 2.351l1.351 1.781z" fill="url(#X)"/><path d="M129.392 72.646a4.087 4.087 0 0 0-2.628-1.114 105.16 105.16 0 0 0-8.152-.85 44.163 44.163 0 0 0-5.072.179l-.065-.628c.543-.032.948-.05 1.185-.05 1.95 0 4.854 0 7.554.201 2.698.202 5.854.25 7.302.9a2.027 2.027 0 0 1 .81.726l-.936.636z" fill="url(#Y)"/><path d="M129.197 72.45a2.835 2.835 0 0 1 .72 1.066 44.705 44.705 0 0 1 1.4 4.803s.234.966.6.966c.367 0 .602-.901.602-.901l-.15-1.884s-.12.652-.368.652c-.252 0-.301-.351-.403-.652-.1-.3-.284-1.268-.382-1.718a6.67 6.67 0 0 0-1.113-3.058l-.907.723z" fill="url(#Z)"/><path d="M131.317 78.32s.234.966.6.966c.367 0 .602-.9.602-.9l-.15-1.885s-.12.652-.368.652c-.252 0-.301-.351-.403-.652l-.282 1.818z" fill="url(#aa)"/><path d="M134.44 72.899a2.283 2.283 0 0 1 .19-.202c.575-.557 1.588-1.002 3.559-1.248 2.968-.367 6.105-1.03 6.105-1.03s1.499-.036 1.499-.605l-4.017-.015c0 .348-1.152.483-1.152.483a18.673 18.673 0 0 1-3.018.4c-1.967.13-3.053.3-3.804.951a1 1 0 0 0-.122.123l.762 1.142z" fill="url(#ab)"/><path d="M141.235 69.456c.277.071.54.178.54.344 0 .113-.121.201-.281.273l4.032.094a.427.427 0 0 0 .267-.353c0-.33-.545-.477-.999-.545l-3.559.19z" fill="url(#ac)"/><path d="M131.984 63.445c.336 0 .419.616.554 1.318.13.699.331 2.482 1.214 3.282a3.887 3.887 0 0 0 1.884.784l1.316-.777c-.806-.14-2.477-.59-2.998-1.943-.7-1.801-1.434-3.769-1.434-3.769s-.135-.8-.536-.8z" fill="url(#ad)"/><path d="M131.7 61.727a.368.368 0 0 1 .284-.182.386.386 0 0 1 .313.202l-.012 1.963c-.073-.166-.166-.264-.302-.264-.124 0-.225.115-.304.284l.02-2.002z" fill="url(#ae)"/><path d="M121.464 68.757c-1.173.157-2.026.273-2.75.292a49.285 49.285 0 0 1-6.306-.233c-2.199-.265-16.441-2.002-16.441-2.002s-.865-.095-2.027-.249l-.042 1.667c.95.024 14.275.966 16.393 1.067 2.116.1 6.971.166 8.086.166.545 0 1.806-.04 3.185-.092z" fill="url(#af)"/><path d="M138.646 87.225s.105.842.526.842c.421 0 .47-.655.47-.655l.212 1.313c-.299.937-.368 1.368-.667 1.368-.16 0-.377-.433-.64-1.153l.1-1.712z" fill="url(#ag)"/><path d="M57.632 68.78l-6.707.602s-1.7.052-1.7.45 1.702.551 1.702.551l8.856.75s8.959.9 11.305 1.35c2.35.451 5.152 1.204 6.004 7.105.851 5.904 1.402 8.855 1.402 8.855s0 1.351.6 1.351.651-1.35.651-1.35 1.302-7.955 1.5-8.906.85-4.15 2.25-5.354c1.404-1.2 2.5-1.9 9.006-2.35 6.503-.45 20.212-1.651 22.164-1.651 1.948 0 4.852 0 7.553.201 2.701.202 5.854.249 7.303.9 1.35.617 1.6 3.052 1.703 3.504.097.446.28 1.413.382 1.713.1.301.15.652.403.652.247 0 .365-.652.365-.652s.299-1.333.364-1.734c.071-.4.32-2.486 1.067-3.134.752-.652 1.836-.818 3.803-.953a18.339 18.339 0 0 0 3.02-.399s1.153-.134 1.153-.483-1.2-.45-1.2-.45-2.155-.235-3.188-.32c-1.034-.084-2.75-.183-3.635-.984-.884-.801-1.083-2.583-1.214-3.283-.135-.701-.218-1.318-.554-1.318-.332 0-.486.817-.58 1.335-.102.517-.417 2.718-1.285 3.301a9.708 9.708 0 0 1-4.503 1.117c-1.967.1-6.12.266-7.238.266-1.114 0-5.969-.065-8.085-.166-2.119-.1-15.267-1.066-16.219-1.092-.948-.024-6.28-.35-8.506-1.275a7.195 7.195 0 0 1-4.1-4.88c-.5-1.95-1.662-7.284-1.662-7.284s-.264-1.987-.716-1.967c-.521.02-.723 2.05-.723 2.05s-1.126 6.351-2.127 8.427c-1 2.076-3.7 4.127-7.35 4.503-3.657.375-11.261 1-11.261 1z" fill="url(#ah)"/><path d="M126.322 82.51c-1.106.027-7.27.576-8.91.678a2.707 2.707 0 0 0-2.446 1.626c-.235.474-.903 3.76-.972 4.031-.067.27-.168.812-.334.812s-.268-.338-.334-.612c-.066-.267-.735-3.181-.94-3.993-.198-.814-.9-1.22-1.707-1.594a11.027 11.027 0 0 0-2.81-.472s-1.643-.169-2.885-.237c-1.24-.07-1.875-.305-1.875-.645 0-.337.835-.304 1.842-.439a18.412 18.412 0 0 0 5.964-.814c1.59-.495 1.84-2.742 2.009-3.555.166-.815.367-1.73.67-1.73.301 0 .401.308.602 1.526.371 2.37.937 3.318 2.011 3.76 1.877.643 7.81.812 8.945.846 0 0 3.533.06 5.368-.041 1.834-.102 5.069-.435 5.801-.6a2.28 2.28 0 0 0 1.967-1.771c.202-1.2.502-2.568.869-2.568s.569 1.034.632 1.301c0 0 .277 2.306 1.588 2.78a17.424 17.424 0 0 0 4.12.681c.814.054 1.52.211 1.52.577 0 .368-1.049.605-1.495.605a13.42 13.42 0 0 0-3.567.445 2.537 2.537 0 0 0-1.837 2.204c-.315 1.576-.474 2.1-.474 2.1s-.047.654-.47.654c-.422 0-.527-.841-.527-.841a17.756 17.756 0 0 0-.837-3.016c-.34-.55-.735-1.339-3.963-1.443-3.227-.107-4.657-.327-7.525-.256z" fill="url(#ai)"/><path d="M89.229 95.33a11.044 11.044 0 0 1 2.801.466c.801.368 1.5.767 1.702 1.567.199.802.867 3.668.934 3.934s.165.602.331.602c.17 0 .27-.533.336-.8s.732-3.5.967-3.97a2.703 2.703 0 0 1 2.436-1.602c1.632-.097 7.77-.631 8.87-.663 1.1-.036 7.505.166 9.039.298 1.53.133 3.697.266 4.2 1.467a17.16 17.16 0 0 1 .765 2.768c.132.434.233.767.537.767.298 0 .432-.533.497-.833.068-.3.435-3.536 2.169-3.87a50.121 50.121 0 0 1 5.036-.599c.6-.035 1.1-.07 1.1-.504 0-.43-.767-.43-1.268-.43a21.295 21.295 0 0 1-5.001-.666c-1.266-.5-1.735-1.368-2.035-3.271-.1-.566-.331-1.067-.6-1.067s-.5.636-.601 1.102c-.099.469-.065 2.1-1.133 2.802-1.067.699-2.204.934-5.904 1.133-3.7.201-6.837.132-7.97.1-1.135-.035-7.036-.201-8.905-.833-1.066-.435-1.633-1.366-2-3.703-.2-1.199-.299-1.501-.6-1.501s-.5.9-.668 1.703c-.166.798-.415 3.013-1.998 3.501a18.582 18.582 0 0 1-5.937.799c-1.002.135-1.837.1-1.837.434 0 .334.636.569 1.867.635 1.238.067 2.872.235 2.872.235z" fill="url(#aj)"/><path d="M146.864 81.796a.319.319 0 0 1 .15.26c0 .157-.185.29-.438.391l3.05.142c.517-.1 1.067-.254 1.067-.468 0-.29-.245-.438-.936-.577l-2.894.253z" fill="url(#ak)"/></svg>