<svg xmlns="http://www.w3.org/2000/svg" viewBox="0 0 192 192"><g fill="#4a6baf"><path d="M20 118.616h36.594v11.136H46.095v26.763H30.848v-26.763H20m55.127 4.177l-7.702 22.586H52.778l14.362-37.9h15.906l14.705 37.9H82.928m11.327-37.9h36.59v11.137H120.35v26.763h-15.246v-26.763H94.255m55.129 4.177l-7.707 22.586h-14.645l14.368-37.9h15.897l14.703 37.9h-14.818m-7.26-107.508a33.94 33.94 0 0 0-5.402-7.676c-5.03-5.432-12.128-9.949-20.527-13.063a83.694 83.694 0 0 0-55.885 0c-8.403 3.114-15.5 7.634-20.532 13.063a33.972 33.972 0 0 0-5.407 7.68c10.934-2.643 29.64-6.134 47.008-6.504a4.152 4.152 0 0 1 3.587 1.462c.927 1.174.856 5.352.834 7.222l-.494 48.317c.978.03 1.96.053 2.942.053.993 0 1.982-.017 2.957-.05l-.491-48.32c-.025-1.87-.098-6.048.831-7.22a4.145 4.145 0 0 1 3.586-1.463c17.36.366 36.06 3.857 46.992 6.5"/><path d="M152.26 55.29a202.224 202.224 0 0 0-37.24-4.872c-9.192-.513-9.311 2.77-8.395 9.043.06.382.133.866.22 1.416 3.083 18.263 6.923 33.978 7.582 36.645C136.838 92.4 153 78.197 153 61.512a26.802 26.802 0 0 0-.741-6.222m-66.78 4.173c.921-6.273.801-9.557-8.389-9.044a202.058 202.058 0 0 0-37.25 4.874 26.772 26.772 0 0 0-.744 6.22c0 7.212 2.934 14.19 8.484 20.183 5.029 5.432 12.128 9.949 20.531 13.067a74.016 74.016 0 0 0 9.557 2.788c.621-2.498 4.549-18.54 7.666-37.13.058-.357.112-.685.148-.957"/></g></svg>