<svg xmlns="http://www.w3.org/2000/svg" xmlns:xlink="http://www.w3.org/1999/xlink" viewBox="0 0 192 192"><defs><radialGradient id="a" cx="96.292" cy="95.996" r="76.995" gradientUnits="userSpaceOnUse"><stop offset=".962" stop-color="#fff"/><stop offset=".993" stop-color="#e4e3e3"/><stop offset="1" stop-color="#dddcdc"/></radialGradient><radialGradient id="d" cx="96.292" cy="95.996" r="77.408" xlink:href="#a"/><radialGradient id="e" cx="92.401" cy="64.667" fx="84.749" r="107.144" gradientUnits="userSpaceOnUse"><stop offset="0" stop-color="#f4f3f3"/><stop offset=".481" stop-color="#f2f1f1"/><stop offset=".654" stop-color="#ebebeb"/><stop offset=".698" stop-color="#e8e8e8"/><stop offset=".865" stop-color="#dddcdc"/></radialGradient><radialGradient id="f" cx="99.826" cy="43.481" r="125.046" gradientUnits="userSpaceOnUse"><stop offset="0" stop-color="#fff"/><stop offset=".566" stop-color="#fdfdfd"/><stop offset=".769" stop-color="#f6f6f6"/><stop offset=".914" stop-color="#ebebeb"/><stop offset=".936" stop-color="#e8e8e8"/></radialGradient><radialGradient id="g" cx="102.811" cy="111.207" fx="61.605" fy="94.036" r="77.324" gradientUnits="userSpaceOnUse"><stop offset=".019" stop-color="#f4f3f3"/><stop offset=".27" stop-color="#eeeded"/><stop offset=".605" stop-color="#dddcdc"/><stop offset=".608" stop-color="#dddcdc"/><stop offset=".651" stop-color="#d7d6d6"/><stop offset=".706" stop-color="#c7c6c6"/><stop offset=".769" stop-color="#adabac"/><stop offset=".837" stop-color="#888687"/><stop offset=".909" stop-color="#585657"/><stop offset=".983" stop-color="#1f1d1e"/><stop offset=".99" stop-color="#191718"/></radialGradient><linearGradient id="h" x1="142.368" y1="33.53" x2="148.758" y2="33.53" gradientUnits="userSpaceOnUse"><stop offset=".024" stop-color="#e8e8e8"/><stop offset=".212" stop-color="#e3e3e3"/><stop offset=".422" stop-color="#d6d6d6"/><stop offset=".642" stop-color="silver"/><stop offset=".867" stop-color="#a2a1a1"/><stop offset="1" stop-color="#8c8b8b"/></linearGradient><linearGradient id="c" x1="111.963" y1="109.833" x2="81.916" y2="61.778" gradientUnits="userSpaceOnUse"><stop offset="0" stop-color="#dddcdc"/><stop offset=".316" stop-color="#dad9d9"/><stop offset=".551" stop-color="#d1d0d0"/><stop offset=".759" stop-color="#c1c0c0"/><stop offset=".951" stop-color="#aaa9aa"/><stop offset="1" stop-color="#a3a2a3"/></linearGradient><linearGradient id="i" x1="38.328" y1="108.107" x2="154.256" y2="108.107" gradientUnits="userSpaceOnUse"><stop offset=".005" stop-color="#5e5d5d"/><stop offset="1" stop-color="#757474"/></linearGradient><radialGradient id="j" cx="96.754" cy="88.146" fx="34.963" r="61.791" gradientTransform="matrix(.00171 1 -1.3388 .0023 214.599 -8.81)" gradientUnits="userSpaceOnUse"><stop offset=".778" stop-color="#fff"/><stop offset=".779" stop-color="#f3f3f3"/><stop offset=".781" stop-color="#cecdcd"/><stop offset=".784" stop-color="#acabac"/><stop offset=".787" stop-color="#908f90"/><stop offset=".79" stop-color="#7a7879"/><stop offset=".794" stop-color="#686767"/><stop offset=".798" stop-color="#5c5a5b"/><stop offset=".804" stop-color="#555354"/><stop offset=".819" stop-color="#535152"/><stop offset=".828" stop-color="#5c5a5b" stop-opacity=".949"/><stop offset=".839" stop-color="#767475" stop-opacity=".797"/><stop offset=".849" stop-color="#a1a0a1" stop-opacity=".544"/><stop offset=".86" stop-color="#dedede" stop-opacity=".193"/><stop offset=".864" stop-color="#fff" stop-opacity="0"/><stop offset=".883" stop-color="#fff" stop-opacity=".149"/><stop offset=".94" stop-color="#fff" stop-opacity=".602"/><stop offset=".979" stop-color="#fff" stop-opacity=".888"/><stop offset=".998" stop-color="#fff"/></radialGradient><linearGradient id="k" x1="146.561" y1="34.296" x2="144.361" y2="32.458" gradientUnits="userSpaceOnUse"><stop offset=".024" stop-color="#fff"/><stop offset=".184" stop-color="#fafafa"/><stop offset=".382" stop-color="#ebebeb"/><stop offset=".599" stop-color="#d2d2d2"/><stop offset=".828" stop-color="#b0afaf"/><stop offset="1" stop-color="#919090"/></linearGradient><linearGradient id="l" x1="158.82" y1="50.075" x2="158.824" y2="43.264" gradientUnits="userSpaceOnUse"><stop offset=".034" stop-color="#dddcdc"/><stop offset=".21" stop-color="#d8d7d7"/><stop offset=".427" stop-color="#c9c8c8"/><stop offset=".665" stop-color="#b0afaf"/><stop offset=".918" stop-color="#8e8c8d"/><stop offset="1" stop-color="#817f80"/></linearGradient><linearGradient id="m" x1="171.347" y1="58.028" x2="171.396" y2="19.577" gradientUnits="userSpaceOnUse"><stop offset="0" stop-color="#dddcdc"/><stop offset=".417" stop-color="#d8d7d7"/><stop offset=".93" stop-color="#c9c8c8"/><stop offset="1" stop-color="#c6c5c5"/></linearGradient><linearGradient id="n" x1="135.443" y1="20.948" x2="172.254" y2="20.948" gradientUnits="userSpaceOnUse"><stop offset=".004" stop-color="#f1f1f1"/><stop offset="1" stop-color="#cfcece"/></linearGradient><radialGradient id="o" cx="92.897" cy="91.65" fx="14.268" r="78.629" gradientTransform="matrix(.28225 .95934 -1.07015 .31485 164.756 -26.326)" gradientUnits="userSpaceOnUse"><stop offset=".402" stop-color="#e8e8e8"/><stop offset=".567" stop-color="#e6e6e6"/><stop offset=".643" stop-color="#dfdedf"/><stop offset=".7" stop-color="#d2d2d2"/><stop offset=".748" stop-color="silver"/><stop offset=".79" stop-color="#a9a8a8"/><stop offset=".829" stop-color="#8c8b8b"/><stop offset=".863" stop-color="#6b696a"/><stop offset=".884" stop-color="#535152"/></radialGradient><radialGradient id="b" cx="96.292" cy="95.996" r="58.497" gradientUnits="userSpaceOnUse"><stop offset=".922" stop-color="#bab9ba"/><stop offset=".932" stop-color="#c5c4c5"/><stop offset=".958" stop-color="#dfdede"/><stop offset=".981" stop-color="#efeeee"/><stop offset="1" stop-color="#f4f3f3"/></radialGradient><linearGradient id="p" x1="146.119" y1="34.806" x2="144.767" y2="31.176" gradientUnits="userSpaceOnUse"><stop offset=".382" stop-color="#fff"/><stop offset=".426" stop-color="#f2f2f2"/><stop offset=".619" stop-color="#bcbcbc"/><stop offset=".786" stop-color="#969595"/><stop offset=".918" stop-color="#7e7d7d"/><stop offset="1" stop-color="#757474"/></linearGradient><linearGradient id="q" x1="158.685" y1="46.572" x2="160.564" y2="48.679" gradientUnits="userSpaceOnUse"><stop offset=".009" stop-color="#757474"/><stop offset=".37" stop-color="#5e5c5d"/><stop offset=".731" stop-color="#4d4b4c"/><stop offset="1" stop-color="#474546"/></linearGradient><radialGradient id="r" cx="95.916" cy="98.864" r="87.952" gradientUnits="userSpaceOnUse"><stop offset=".96" stop-color="#3c3a3b"/><stop offset=".976" stop-color="#565555"/><stop offset=".98" stop-color="#5e5d5d"/></radialGradient><linearGradient id="s" x1="170.439" y1="56.959" x2="170.282" y2="54.326" gradientUnits="userSpaceOnUse"><stop offset="0" stop-color="#3c3a3b"/><stop offset=".839" stop-color="#545354"/><stop offset="1" stop-color="#595859"/></linearGradient><linearGradient id="t" x1="153.849" y1="19.578" x2="153.849" y2="21.765" gradientUnits="userSpaceOnUse"><stop offset="0" stop-color="#cfcece"/><stop offset="1" stop-color="#fff"/></linearGradient><linearGradient id="u" x1="134.612" y1="23.725" x2="136.882" y2="20.571" gradientUnits="userSpaceOnUse"><stop offset="0" stop-color="#8c8b8b"/><stop offset=".144" stop-color="#929191"/><stop offset=".341" stop-color="#a3a3a3"/><stop offset=".568" stop-color="#c0bfbf"/><stop offset=".816" stop-color="#e7e7e7"/><stop offset=".947" stop-color="#fff"/></linearGradient><radialGradient id="v" cx="95.654" cy="98.854" r="88.709" gradientUnits="userSpaceOnUse"><stop offset=".953" stop-color="#3c3a3b"/><stop offset=".961" stop-color="#4b494a"/><stop offset=".972" stop-color="#5e5d5d"/></radialGradient><radialGradient id="w" cx="99.789" cy="109.402" fx="53.04" r="73.395" gradientUnits="userSpaceOnUse"><stop offset=".019" stop-color="#f4f3f3"/><stop offset=".269" stop-color="#eeeded"/><stop offset=".604" stop-color="#dddcdc"/><stop offset=".606" stop-color="#dddcdc"/><stop offset=".649" stop-color="#d7d6d6"/><stop offset=".706" stop-color="#c7c6c6"/><stop offset=".77" stop-color="#acaaab"/><stop offset=".84" stop-color="#868485"/><stop offset=".915" stop-color="#555454"/><stop offset=".992" stop-color="#1b191a"/><stop offset=".994" stop-color="#191718"/></radialGradient><radialGradient id="x" cx="96.022" cy="89.988" fy="25.077" r="69.03" gradientTransform="matrix(1 .0036 -.00331 .91903 .299 6.94)" gradientUnits="userSpaceOnUse"><stop offset=".83" stop-color="#fff"/><stop offset=".831" stop-color="#f3f3f3"/><stop offset=".834" stop-color="#cecdcd"/><stop offset=".837" stop-color="#acabac"/><stop offset=".841" stop-color="#908f90"/><stop offset=".845" stop-color="#7a7879"/><stop offset=".85" stop-color="#686767"/><stop offset=".855" stop-color="#5c5a5b"/><stop offset=".863" stop-color="#555354"/><stop offset=".882" stop-color="#535152"/><stop offset=".893" stop-color="#595758" stop-opacity=".967"/><stop offset=".901" stop-color="#6b696a" stop-opacity=".86"/><stop offset=".907" stop-color="#8a898a" stop-opacity=".678"/><stop offset=".913" stop-color="#b7b6b6" stop-opacity=".42"/><stop offset=".918" stop-color="#efefef" stop-opacity=".091"/><stop offset=".92" stop-color="#fff" stop-opacity="0"/><stop offset=".93" stop-color="#fff" stop-opacity=".149"/><stop offset=".964" stop-color="#fff" stop-opacity=".602"/><stop offset=".987" stop-color="#fff" stop-opacity=".888"/><stop offset=".998" stop-color="#fff"/></radialGradient><radialGradient id="y" cx="96.292" cy="95.996" r="59.027" xlink:href="#b"/><linearGradient id="z" x1="76.869" y1="20.592" x2="161.429" y2="80.681" gradientUnits="userSpaceOnUse"><stop offset="0" stop-color="#fff" stop-opacity="0"/><stop offset=".41" stop-color="#fff" stop-opacity="0"/><stop offset=".476" stop-color="#fefefe" stop-opacity=".024"/><stop offset=".552" stop-color="#fafafa" stop-opacity=".093"/><stop offset=".632" stop-color="#f3f3f3" stop-opacity=".209"/><stop offset=".715" stop-color="#eaeaea" stop-opacity=".37"/><stop offset=".801" stop-color="#dedede" stop-opacity=".578"/><stop offset=".887" stop-color="#d0cfcf" stop-opacity=".827"/><stop offset=".94" stop-color="#c6c5c5"/><stop offset=".963" stop-color="#c7c6c6" stop-opacity=".99"/><stop offset=".971" stop-color="#c9c8c8" stop-opacity=".956"/><stop offset=".978" stop-color="#cccbcb" stop-opacity=".896"/><stop offset=".983" stop-color="#d1d0d0" stop-opacity=".81"/><stop offset=".987" stop-color="#d7d7d7" stop-opacity=".698"/><stop offset=".991" stop-color="#dfdfdf" stop-opacity=".56"/><stop offset=".994" stop-color="#e8e8e8" stop-opacity=".395"/><stop offset=".997" stop-color="#f3f3f3" stop-opacity=".211"/><stop offset="1" stop-color="#fff" stop-opacity="0"/></linearGradient><linearGradient id="A" x1="122.807" y1="35.478" x2="127.313" y2="85.794" gradientUnits="userSpaceOnUse"><stop offset=".418" stop-color="#fff" stop-opacity="0"/><stop offset=".646" stop-color="#fefefe" stop-opacity=".009"/><stop offset=".728" stop-color="#fdfcfc" stop-opacity=".044"/><stop offset=".787" stop-color="#f9f9f9" stop-opacity=".103"/><stop offset=".834" stop-color="#f4f4f4" stop-opacity=".189"/><stop offset=".875" stop-color="#eee" stop-opacity=".3"/><stop offset=".911" stop-color="#e6e6e6" stop-opacity=".437"/><stop offset=".943" stop-color="#dddcdc" stop-opacity=".601"/><stop offset=".972" stop-color="#d2d1d1" stop-opacity=".785"/><stop offset=".999" stop-color="#c6c5c5" stop-opacity=".992"/><stop offset="1" stop-color="#c6c5c5"/></linearGradient><linearGradient id="B" x1="89.579" y1="71.135" x2="101.667" y2="115.899" gradientUnits="userSpaceOnUse"><stop offset="0" stop-color="#fff"/><stop offset=".03" stop-color="#fff"/><stop offset=".25" stop-color="#fafafa"/><stop offset=".504" stop-color="#ececec"/><stop offset=".774" stop-color="#d6d6d5"/><stop offset="1" stop-color="#bdbdbc"/></linearGradient><linearGradient id="C" x1="108.017" y1="110.626" x2="79.201" y2="60.716" gradientTransform="translate(2.684 -1.175)" xlink:href="#c"/><linearGradient id="D" x1="109.762" y1="135.282" x2="79.268" y2="85.063" gradientTransform="translate(2.684 -1.175)" gradientUnits="userSpaceOnUse"><stop offset="0" stop-color="#c6c5c5"/><stop offset=".352" stop-color="#c3c2c2"/><stop offset=".613" stop-color="#bab9b9"/><stop offset=".844" stop-color="#aaa9a9"/><stop offset="1" stop-color="#9a9999"/></linearGradient><linearGradient id="E" x1="93.681" y1="110.018" x2="93.596" y2="108.535" gradientTransform="translate(2.684 -1.175)" gradientUnits="userSpaceOnUse"><stop offset="0" stop-color="#dddcdc"/><stop offset="1" stop-color="#d1d1d1"/></linearGradient><linearGradient id="F" x1="38.332" y1="108.107" x2="154.07" y2="108.107" gradientUnits="userSpaceOnUse"><stop offset=".009" stop-color="#a3a2a3"/><stop offset=".091" stop-color="#d5d4d5"/><stop offset=".167" stop-color="#fff"/><stop offset=".834" stop-color="#fff"/><stop offset=".945" stop-color="#c3c2c3"/><stop offset="1" stop-color="#a3a2a3"/></linearGradient><linearGradient id="G" x1="93.609" y1="85.671" x2="93.609" y2="84.177" gradientTransform="translate(2.684 -1.175)" gradientUnits="userSpaceOnUse"><stop offset="0" stop-color="#e8e8e8"/><stop offset="1" stop-color="#d1d1d1"/></linearGradient><radialGradient id="H" cx="93.033" cy="95.181" fx="67.534" fy="8.434" r="90.418" gradientTransform="matrix(.99999 .0046 -.0043 .9337 .41 5.883)" gradientUnits="userSpaceOnUse"><stop offset=".513" stop-color="#fff"/><stop offset=".59" stop-color="#fcfcfc"/><stop offset=".651" stop-color="#f2f2f2"/><stop offset=".707" stop-color="#e1e1e1"/><stop offset=".76" stop-color="#cac9ca"/><stop offset=".81" stop-color="#acabab"/><stop offset=".859" stop-color="#878586"/><stop offset=".905" stop-color="#5c5a5b"/><stop offset=".925" stop-color="#474546"/></radialGradient><linearGradient id="I" x1="146.866" y1="36.132" x2="144.603" y2="30.666" gradientUnits="userSpaceOnUse"><stop offset="0" stop-color="#fff"/><stop offset=".306" stop-color="#d5d4d4"/><stop offset=".724" stop-color="#a0a0a0"/><stop offset=".928" stop-color="#8c8b8b"/></linearGradient><linearGradient id="J" x1="158.28" y1="46.212" x2="159.456" y2="47.154" gradientUnits="userSpaceOnUse"><stop offset=".033" stop-color="#757474"/><stop offset=".991" stop-color="#535152"/></linearGradient><radialGradient id="K" cx="96.343" cy="96.825" r="86.516" gradientUnits="userSpaceOnUse"><stop offset=".959" stop-color="#7e7d7e"/><stop offset=".971" stop-color="#6a6869"/><stop offset=".971" stop-color="#6e6c6d"/><stop offset=".986" stop-color="#bab9ba"/></radialGradient><linearGradient id="L" x1="170.146" y1="54.788" x2="170.14" y2="55.476" gradientUnits="userSpaceOnUse"><stop offset="0" stop-color="#afaeae"/><stop offset="1" stop-color="#6a6869"/></linearGradient><linearGradient id="M" x1="170.213" y1="38.47" x2="170.761" y2="38.47" gradientUnits="userSpaceOnUse"><stop offset="0" stop-color="#bab9ba"/><stop offset=".496" stop-color="#acabac"/><stop offset="1" stop-color="#a3a2a3"/></linearGradient><linearGradient id="N" x1="153.849" y1="20.745" x2="153.849" y2="22.298" gradientUnits="userSpaceOnUse"><stop offset=".276" stop-color="#dddcdc"/><stop offset=".422" stop-color="#e8e7e7"/><stop offset=".639" stop-color="#fff"/></linearGradient><linearGradient id="O" x1="137.207" y1="21.658" x2="137.214" y2="23.202" gradientUnits="userSpaceOnUse"><stop offset="0" stop-color="#e8e8e8"/><stop offset=".268" stop-color="#e5e5e5"/><stop offset=".494" stop-color="#dadada"/><stop offset=".705" stop-color="#c9c9c9"/><stop offset=".905" stop-color="#b1b0b1"/><stop offset="1" stop-color="#a3a2a3"/></linearGradient><radialGradient id="P" cx="95.248" cy="97.342" r="86.503" gradientUnits="userSpaceOnUse"><stop offset=".775" stop-color="#817f80"/><stop offset=".965" stop-color="#bdbcbc"/><stop offset=".991" stop-color="#c6c5c5"/></radialGradient><radialGradient id="Q" cx="96.292" cy="95.996" fx="35.828" r="60.47" gradientTransform="matrix(-.26069 -.96542 1.13163 -.30557 12.762 218.292)" gradientUnits="userSpaceOnUse"><stop offset=".447" stop-color="#fff"/><stop offset=".573" stop-color="#fcfcfc"/><stop offset=".653" stop-color="#f4f4f4"/><stop offset=".719" stop-color="#e5e5e5"/><stop offset=".779" stop-color="#d1d0d1"/><stop offset=".833" stop-color="#b6b6b6"/><stop offset=".884" stop-color="#969595"/><stop offset=".933" stop-color="#6f6d6e"/><stop offset=".978" stop-color="#434142"/><stop offset=".985" stop-color="#3c3a3b"/></radialGradient><radialGradient id="R" cx="1726.772" cy="1727.663" fx="1719.549" r="8.105" gradientTransform="matrix(.89599 4.32211 -10.68792 2.21566 17013.69 -11195.136)" gradientUnits="userSpaceOnUse"><stop offset="0" stop-color="#fff"/><stop offset=".344" stop-color="#f9f9f9"/><stop offset=".782" stop-color="#eaeaea"/><stop offset="1" stop-color="#dfdfdf"/></radialGradient></defs><g style="isolation:isolate"><path d="M155.707 49.84l.147.19a75.235 75.235 0 0 1-59.562 121.194A75.228 75.228 0 0 1 43.098 42.802a75.249 75.249 0 0 1 99.24-6.307l.191.148-.16-2.339a76.992 76.992 0 1 0 15.675 15.698z" fill="url(#a)"/><path d="M155.707 49.84l.147.19a75.235 75.235 0 0 1-59.562 121.194A75.228 75.228 0 0 1 43.098 42.802a75.249 75.249 0 0 1 99.24-6.307l.191.148-.16-2.339a76.992 76.992 0 1 0 15.675 15.698z" fill="url(#d)"/><path d="M39.577 83.749a58.03 58.03 0 0 1 113.43 0zm56.715 70.25a58.054 58.054 0 0 1-56.715-45.755h113.43A58.053 58.053 0 0 1 96.292 154zM156.07 49.864l5.843-5.841a83.649 83.649 0 0 1 7.606 11.36h1.24V21.557h-33.823v1.223a83.673 83.673 0 0 1 11.411 7.658l-5.842 5.84a75.506 75.506 0 0 0-99.602 113.105 75.507 75.507 0 0 0 113.167-99.521z" fill="url(#e)"/><path d="M39.577 83.749a58.03 58.03 0 0 1 113.43 0zm56.715 70.25a58.054 58.054 0 0 1-56.715-45.755h113.43A58.053 58.053 0 0 1 96.292 154zM156.07 49.864l5.843-5.841a83.649 83.649 0 0 1 7.606 11.36h1.24V21.557h-33.823v1.223a83.673 83.673 0 0 1 11.411 7.658l-5.842 5.84a75.506 75.506 0 0 0-99.602 113.105 75.507 75.507 0 0 0 113.167-99.521z" fill="url(#f)" style="mix-blend-mode:multiply"/><path d="M149.462 83.002a54.744 54.744 0 0 0-106.34 0l-4.466 1.494-.328.274.064-.327a59.048 59.048 0 0 1 115.8 0l.064.327-.337-.274zm0 25.989a54.744 54.744 0 0 1-106.34 0l-4.466-1.494-.328-.274.064.327a59.048 59.048 0 0 0 115.8 0l.064-.327-.337.274z" fill="url(#g)"/><path fill="url(#h)" d="M146.089 30.585l-3.721 3.719.161 2.339 6.229-6.227-2.669.169z"/><path fill="url(#c)" d="M43.122 83.002h106.34l4.457 1.494.337.274H38.328l.328-.274 4.466-1.494z"/><path fill="url(#i)" d="M43.122 108.991h106.34l4.457-1.494.337-.274H38.328l.328.274 4.466 1.494z"/><path d="M154.256 84.77l-.064-.327a59.048 59.048 0 0 0-115.8 0l-.064.327.328-.274 4.466-1.494a54.744 54.744 0 0 1 106.34 0l4.457 1.494zm-4.794 24.22a54.744 54.744 0 0 1-106.34 0l-4.466-1.493-.328-.274.064.327a59.048 59.048 0 0 0 115.8 0l.064-.327-.337.274zm4.794-24.22l-.064-.327a59.048 59.048 0 0 0-115.8 0l-.064.327.328-.274 4.466-1.494a54.744 54.744 0 0 1 106.34 0l4.457 1.494zm-4.794 24.22a54.744 54.744 0 0 1-106.34 0l-4.466-1.493-.328-.274.064.327a59.048 59.048 0 0 0 115.8 0l.064-.327-.337.274z" fill="url(#j)" style="mix-blend-mode:multiply"/><path fill="url(#k)" style="mix-blend-mode:multiply" d="M146.089 30.585l-3.721 3.719.161 2.339 6.229-6.227-2.669.169z"/><path fill="url(#l)" d="M161.937 43.611l-6.23 6.229 2.337.162 3.722-3.72.171-2.671z"/><path fill="url(#m)" d="M170.487 21.831v33.277l1.767 1.767V20.064l-1.767 1.767z"/><path fill="url(#n)" d="M172.254 20.064h-36.811l1.767 1.767h33.277l1.767-1.767z"/><path d="M155.707 49.84l.147.19a75.235 75.235 0 0 1-59.562 121.194A75.228 75.228 0 0 1 43.098 42.802a75.249 75.249 0 0 1 99.24-6.307l.191.148-.16-2.339a76.992 76.992 0 1 0 15.675 15.698z" fill="url(#o)" style="mix-blend-mode:multiply"/><path d="M149.462 83.002a54.744 54.744 0 0 0-106.34 0l-4.466 1.494-.328.274.064-.327a59.048 59.048 0 0 1 115.8 0l.064.327-.337-.274zm0 25.989a54.744 54.744 0 0 1-106.34 0l-4.466-1.494-.328-.274.064.327a59.048 59.048 0 0 0 115.8 0l.064-.327-.337.274z" fill="url(#b)" style="mix-blend-mode:multiply"/><path fill="url(#p)" style="mix-blend-mode:multiply" d="M146.089 30.585l-3.721 3.719.161 2.339 6.229-6.227-2.669.169z"/><path fill="url(#q)" style="mix-blend-mode:multiply" d="M161.937 43.611l-6.23 6.229 2.337.162 3.722-3.72.171-2.671z"/><path d="M169.681 55.108a84.244 84.244 0 0 0-7.553-11.256l-.19-.24-.172 2.67a82.465 82.465 0 0 1 6.847 10.594z" fill="url(#r)"/><path fill="url(#s)" d="M170.487 55.108h-.806l-1.068 1.768 3.641-.001-1.767-1.767z"/><path fill="url(#t)" style="mix-blend-mode:multiply" d="M172.254 20.064h-36.811l1.767 1.767h33.277l1.767-1.767z"/><path fill="url(#u)" d="M135.443 20.064v3.628l1.767-1.072v-.789l-1.767-1.767z"/><path d="M135.443 23.692a82.313 82.313 0 0 1 10.646 6.893l2.67-.169-.24-.19a84.247 84.247 0 0 0-11.309-7.606z" fill="url(#v)"/><path d="M96.292 155.023a59.026 59.026 0 1 1 41.738-17.289 58.64 58.64 0 0 1-41.738 17.289zm38.69-20.336a54.717 54.717 0 1 0-38.69 16.026 54.358 54.358 0 0 0 38.69-16.026z" fill="url(#w)"/><path d="M96.292 154.745a58.749 58.749 0 1 1 41.542-17.207 58.366 58.366 0 0 1-41.542 17.207zm38.69-20.058a54.717 54.717 0 1 0-38.69 16.026 54.358 54.358 0 0 0 38.69-16.026z" fill="url(#x)" style="mix-blend-mode:multiply"/><path d="M96.292 155.023a59.026 59.026 0 1 1 41.738-17.289 58.64 58.64 0 0 1-41.738 17.289zm38.69-20.336a54.717 54.717 0 1 0-38.69 16.026 54.358 54.358 0 0 0 38.69-16.026z" fill="url(#y)" style="mix-blend-mode:multiply"/><path d="M96.292 36.972a59.068 59.068 0 0 1 57.9 47.47l.064.328-.337-.274-4.457-1.494a54.767 54.767 0 0 0-53.17-41.722z" fill="url(#z)"/><path d="M96.292 36.972a59.068 59.068 0 0 1 57.9 47.47l.064.328-.337-.274-4.457-1.494a54.767 54.767 0 0 0-53.17-41.722z" fill="url(#A)" style="mix-blend-mode:multiply"/><path d="M153.924 107.497a59.665 59.665 0 0 0 0-23.001H38.66a59.665 59.665 0 0 0 0 23z" fill="#2a377d"/><path d="M153.924 107.497a59.665 59.665 0 0 0 0-23.001H38.66a59.665 59.665 0 0 0 0 23z" fill="url(#B)" style="mix-blend-mode:multiply"/><path d="M149.466 83.002H43.127l-4.466 1.494h115.263z" fill="url(#C)"/><path d="M153.92 107.497H38.655l4.466 1.494h106.34z" fill="url(#D)"/><path d="M153.92 107.497H38.655l4.466 1.494h106.34z" fill="url(#E)" style="mix-blend-mode:multiply"/><path fill="url(#F)" style="mix-blend-mode:multiply" d="M38.332 107.223H154.26l-.337.274-4.457 1.494H43.126l-4.465-1.494-.329-.274z"/><path d="M149.466 83.002H43.127l-4.466 1.494h115.263z" fill="url(#G)" style="mix-blend-mode:multiply"/><path d="M155.342 49.817a74.959 74.959 0 0 1-112.05 99.18A74.959 74.959 0 0 1 142.55 37.009l-.044-.73a75.506 75.506 0 0 0-99.602 113.105 75.507 75.507 0 0 0 113.167-99.521z" fill="url(#H)"/><path fill="url(#I)" d="M149.169 30.393l-6.619 6.616-.044-.73 5.842-5.84.821-.046z"/><path fill="url(#J)" d="M161.914 44.022l-5.843 5.841-.729-.046 6.619-6.616-.047.821z"/><path d="M169.52 55.382a83.649 83.649 0 0 0-7.606-11.36l.047-.82a84.212 84.212 0 0 1 7.881 11.632z" fill="url(#K)"/><path fill="url(#L)" d="M170.761 55.381l-1.241.001.322-.548h.371l.548.547z"/><path fill="url(#M)" d="M170.761 21.558v33.823l-.548-.547V22.105l.548-.547z"/><path fill="url(#N)" d="M170.213 22.105h-32.729l-.547-.547h33.824l-.548.547z"/><path fill="url(#O)" d="M137.484 22.105v.353l-.547.323v-1.223l.547.547z"/><path d="M137.484 22.458a84.2 84.2 0 0 1 11.685 7.935l-.82.046a83.673 83.673 0 0 0-11.412-7.658z" fill="url(#P)"/><path d="M96.292 155.294a59.298 59.298 0 1 1 41.93-17.368 58.91 58.91 0 0 1-41.93 17.368zm41.543-17.755a58.75 58.75 0 1 0-41.543 17.207 58.366 58.366 0 0 0 41.543-17.207z" fill="url(#Q)"/><path d="M44.041 90.423l-.906.907a.29.29 0 0 0 .205.085h2.9l.001.002.589-.994zM138.603 103.385c5.982 0 9.847-2.855 9.847-7.273 0-4.548-3.787-7.3-9.883-7.3-6.075 0-9.774 2.752-9.774 7.3 0 4.418 3.806 7.273 9.81 7.273zm.015-12.184l.06.001c2.225.048 3.18 2.541 3.144 4.992-.043 2.918-1.308 4.765-3.283 4.757h-.052c-1.886-.034-3.169-2.043-3.12-4.87.04-2.251.914-4.878 3.251-4.88z" fill="#aaafcb"/><path d="M131.69 101.6a6.308 6.308 0 0 1-2.671-5.25c0-4.513 3.75-7.315 9.786-7.315 4.035 0 7.05 1.245 8.615 3.408-1.514-2.347-4.629-3.705-8.853-3.705-6.075 0-9.847 2.826-9.847 7.374a6.396 6.396 0 0 0 2.97 5.489z" fill="#191718"/><path d="M141.813 96.194c-.048 2.794-1.394 4.746-3.274 4.746h-.052c-1.86-.034-3.133-1.982-3.118-4.75l-.003.095c-.052 2.912 1.285 4.97 3.25 5.004h.055c1.958 0 3.36-2.01 3.41-4.887.04-2.225-.728-4.484-2.501-5.02 1.58.611 2.27 2.724 2.233 4.812z" fill="#191718"/><path d="M129.134 90.178h-7.336l-1.15 1.15a.291.291 0 0 0 .206.086h2.332l-4.309 7.97-4.37-7.969 2.918-.001a.293.293 0 0 0 .292-.292v-1.803a.29.29 0 0 0-.084-.203l-1.308 1.307h-6.358l5.733 10.019-2.421 2.42a.53.53 0 0 0 .302.116l6.823.006h.141a.542.542 0 0 0 .431-.257l6.116-11.313 2.9.002a.293.293 0 0 0 .293-.292v-1.805a.29.29 0 0 0-.085-.206zM104.731 90.423l-.907.907a.29.29 0 0 0 .206.085h2.9v.002l.589-.994z" fill="#aaafcb"/><path fill="#191718" d="M123.186 91.414l.48-.292 1.539-.944h.753l-6.251 11.361-.83-1.543v-.612l4.309-7.97z"/><path d="M129.134 90.178l1.066-1.065a.29.29 0 0 0-.206-.086h-9.14a.293.293 0 0 0-.293.292v1.803a.292.292 0 0 0 .086.206l1.151-1.15zM109.967 90.423h6.358l1.308-1.307a.29.29 0 0 0-.208-.09h-13.392a.293.293 0 0 0-.293.293l-.002 1.804a.29.29 0 0 0 .086.207l.907-.907h2.788l-.588.994 6.217 11.305a.467.467 0 0 0 .13.14l.183-.176 2.239-2.244z" fill="#191718"/><path d="M107.42 96.44l-1.062 1.06v3.89h-9.153l.835-.835.002-9.145h2.848a.257.257 0 0 0 .292-.292V89.32a.291.291 0 0 0-.086-.206l-1.063 1.064h-5.349v11.559h-5.181l-1.145 1.145a.292.292 0 0 0 .206.085l18.65-.001a.293.293 0 0 0 .292-.292v-6.028a.293.293 0 0 0-.087-.207zM89.506 90.178l-1.147 1.146a.29.29 0 0 0 .206.086h2.884l1.233-1.232z" fill="#aaafcb"/><path d="M106.358 101.39V97.5l1.061-1.06a.292.292 0 0 0-.206-.087h-1.79a.28.28 0 0 0-.28.282 3.892 3.892 0 0 1-4.142 3.92H98.04l-.835.836zM94.684 101.737v-11.56h5.349l1.063-1.063a.291.291 0 0 0-.206-.086l-12.326-.001a.293.293 0 0 0-.292.292l.001 1.8a.291.291 0 0 0 .086.205l1.147-1.146h3.176L91.45 91.41l.003 9.15h-2.888a.293.293 0 0 0-.292.292v1.823a.292.292 0 0 0 .086.207l1.145-1.145z" fill="#191718"/><path d="M77.929 103.385c5.98 0 9.846-2.855 9.846-7.273 0-4.548-3.787-7.3-9.883-7.3-6.074 0-9.774 2.752-9.774 7.3 0 4.418 3.807 7.273 9.81 7.273zm.014-12.184l.06.001c2.225.048 3.18 2.541 3.144 4.992-.043 2.918-1.307 4.765-3.283 4.757h-.052c-1.885-.034-3.168-2.043-3.12-4.87.04-2.251.915-4.878 3.251-4.88z" fill="#aaafcb"/><path d="M68.445 90.178h-7.337l-1.15 1.15a.29.29 0 0 0 .206.086h2.333l-4.317 7.97-4.362-7.969 2.917-.001a.293.293 0 0 0 .292-.292v-1.803a.29.29 0 0 0-.084-.203l-1.307 1.307h-6.358l5.732 10.019-2.42 2.42a.53.53 0 0 0 .3.116l6.824.006h.141a.54.54 0 0 0 .431-.257l6.116-11.313 2.901.002a.293.293 0 0 0 .292-.292v-1.805a.292.292 0 0 0-.085-.206z" fill="#aaafcb"/><path fill="#191718" d="M62.497 91.414l.474-.292 1.501-.944h.796l-6.245 11.355-.843-1.537v-.612l4.317-7.97z"/><path d="M68.445 90.178l1.065-1.065a.291.291 0 0 0-.206-.086h-9.14a.293.293 0 0 0-.293.292v1.803a.29.29 0 0 0 .087.206l1.15-1.15zM49.278 90.423h6.358l1.307-1.307a.29.29 0 0 0-.208-.09H43.343a.293.293 0 0 0-.292.293l-.002 1.804a.29.29 0 0 0 .086.207l.906-.907h2.789l-.589.994 6.217 11.305a.471.471 0 0 0 .131.14l2.421-2.42zM81.138 96.194c-.047 2.794-1.394 4.746-3.274 4.746h-.052c-1.86-.034-3.132-1.982-3.118-4.75l-.003.095c-.052 2.912 1.285 4.97 3.25 5.004h.055c1.959 0 3.361-2.01 3.41-4.887.04-2.225-.728-4.484-2.5-5.02 1.58.611 2.269 2.724 2.232 4.812z" fill="#191718"/><path d="M71.016 101.6a6.308 6.308 0 0 1-2.672-5.25c0-4.513 3.75-7.315 9.786-7.315 4.035 0 7.05 1.245 8.616 3.408-1.515-2.347-4.63-3.705-8.854-3.705-6.074 0-9.847 2.826-9.847 7.374a6.396 6.396 0 0 0 2.971 5.489z" fill="#191718"/><path d="M138.603 103.093c-5.916 0-9.591-2.713-9.591-7.081 0-4.241 3.75-6.982 9.554-6.982 5.826 0 9.592 2.74 9.592 6.982 0 4.368-3.662 7.081-9.555 7.081zm-.054-1.878c2.55 0 3.504-2.783 3.545-5.166.052-3-1.35-5.12-3.408-5.157h-.055c-2.05 0-3.516 2.07-3.566 5.033-.047 2.597.994 5.237 3.422 5.288zm-60.622 1.878c-5.916 0-9.592-2.713-9.592-7.081 0-4.241 3.75-6.982 9.555-6.982 5.827 0 9.593 2.74 9.593 6.982 0 4.368-3.662 7.081-9.556 7.081zm-.053-1.878c2.548 0 3.501-2.783 3.543-5.166a6.774 6.774 0 0 0-.823-3.554 3.009 3.009 0 0 0-2.584-1.603h-.056c-2.048 0-3.515 2.07-3.566 5.033-.046 2.597.996 5.237 3.423 5.288zm42.238 1.477l-6.65-.006-6.36-11.563h-3.072l.003-1.804h13.392v1.803l-3.41.002 4.862 8.872 4.685-8.663.104-.211h-2.812V89.32h9.14l-.001 1.804-3.075-.001-6.255 11.57h-.551zm-60.698 0l-6.65-.006-6.358-11.563h-3.072V89.32h13.393l.001 1.803-3.41.002 4.862 8.872 4.791-8.874h-2.814v-1.803h9.14v1.804l-3.076-.001-6.255 11.57h-.552zm29.15-1.84h3.18l-.003-9.734h-3.176l-.001-1.8 12.326.002v1.798h-3.14l-.002 9.73h3.24a4.146 4.146 0 0 0 4.433-4.202h1.792v6.028l-18.65.001z" fill="url(#R)"/></g></svg>